<?xml version="1.0" encoding="utf-8"?>
<!-- Generator: Adobe Illustrator 25.2.3, SVG Export Plug-In . SVG Version: 6.00 Build 0)  -->
<svg version="1.1" id="Capa_1" xmlns="http://www.w3.org/2000/svg" xmlns:xlink="http://www.w3.org/1999/xlink" x="0px" y="0px"
	 viewBox="0 0 11.3 15.9" style="enable-background:new 0 0 11.3 15.9;" xml:space="preserve">
<style type="text/css">
	.st0{fill:#FFFFFF;stroke:#FFFFFF;stroke-miterlimit:10;}
	.st1{fill:#FFFFFF;fill-opacity:0.5;}
</style>
<path class="st1" d="M11.1,11.5c0,0.3-0.2,0.6-0.2,0.9c-0.5,3.8-0.5,3.8-4.3,3.1c-2.3-0.4-2.3-0.4-4.5,0.4c-0.7-1.9-1.2-3.7-1.9-5.4
	c-0.4-1-0.3-1.8,0.5-2.5c1.4-1.3,2.7-2.8,4.1-4.1c0.8-0.7,1.4-1.5,1.1-2.6C5.8,0.7,5.6,0.2,6.3,0C7-0.2,7.2,0.4,7.6,0.7
	C11.6,3.5,11.5,7.5,11.1,11.5z"/>
</svg>
