<?xml version="1.0" encoding="utf-8"?>
<!-- Generator: Adobe Illustrator 25.2.3, SVG Export Plug-In . SVG Version: 6.00 Build 0)  -->
<svg version="1.1" id="Capa_1" xmlns="http://www.w3.org/2000/svg" xmlns:xlink="http://www.w3.org/1999/xlink" x="0px" y="0px"
	 viewBox="0 0 125.1 112.5" style="enable-background:new 0 0 125.1 112.5;" xml:space="preserve">
<style type="text/css">
	.st0{fill:#FFFFFF;stroke:#FFFFFF;stroke-miterlimit:10;}
	.st1{fill:#FFFFFF;fill-opacity:0.5;}
</style>
<path class="st1" d="M124.7,81.4c-1.3,1.2-1.6,2.9-1.8,4.5c-0.4,3.2-1.7,6.2-1.5,9.4c0.1,0.8-0.6,1-1,1.5c-2.1,2.3-5,3.7-6.9,6.2
	c-1.9,2.5-4,5-2,8.4c0.4,0.7,0,1.2-0.9,1.1c-3.4-0.3-6.2-1.5-7.4-5c-0.6-1.7-1.5-3.2-2.5-4.7c-1.6-2.2-2.8-2.6-5-0.9
	c-1.8,1.3-3.3,2.9-5,4.2c-0.3,0.2-0.5,0.9-1.2,0.3c-3.1-2.4-4.9-2.5-8.1-0.3c-1.1,0.8-1.9,0.7-2.9,0.2c-4.2-2-8.4-4.2-12.4-6.5
	c-3.6-2.1-5.6-1.8-8.5,1.3c-0.2,0.2-0.3,0.3-0.5,0.5c-3.2,3.7-5.9,3.4-8.5-0.6c-3.5-5.3-8.1-6.9-13.9-6.8c-3.2,0.1-6.4-0.3-9.7,0.8
	c0.3-1.7,0.9-3,1.8-3.8c2-1.8,2.1-3.9,1.6-6.2c-0.3-1.4-0.4-2.5,0.8-3.6c1.3-1.1,0.5-2.5,0.2-3.7c-0.5-1.7-0.5-3,0.9-4.2
	c0.9-0.8,1-1.9,0.7-3c-1.1-3.3-4.8-5.8-8.2-5.2c-1.4,0.2-2.2,1.5-3,2.5c-4,4.9-4.1,5-8.7,0.6C7.7,65.2,4,62,2.7,57.2
	c-0.4-1.2-0.3-2.5-0.3-3.7c0-1.5,0.3-3.1-1.8-3.4c-0.2,0-0.3-0.3-0.4-0.5c-0.7-1.5,0.3-6.3,1.5-7.4c5.2-4.8,11-8.7,16.8-12.6
	c7.2-4.8,13.9-9.9,17.9-18c2-4.2,5.5-7.3,8.5-10.8c0.4-0.5,0.8-1.3,1.6-0.4c2,2.3,4.2,4.4,5.5,7.2c1.1,2.3,1.2,4.8,0.4,7.2
	c-0.9,2.8-0.8,5.4,1.5,7.5c0.4,0.3,0.8,0.9,0.8,1.4c-0.1,3.9,1.9,7.5,1.6,11.5c-0.3,3.2-0.2,6.4,0.3,9.5c0.2,0.9,0.1,1.8,1.2,2.1
	c1.1,0.3,1.9-0.3,2.4-1.1c1.1-1.8,2.1-2.6,4.2-1.2c1.3,0.9,2.5-0.8,3.8-1.3c0.6,1.2-0.3,2.2-0.3,3.2c0,0.8-0.5,1.7,0.4,2.3
	c0.9,0.7,1.8,0.1,2.5-0.4c0.3-0.2,0.6-0.5,0.9-0.7c0.1,0.1,0.2,0.2,0.2,0.3c-0.3,0.6-0.6,1.2-0.8,1.9c-0.5,1.6,0.7,2.8,2.3,2.4
	c0.6-0.2,1.1-0.5,1.7-0.7c0.6-0.2,1.3,0,1.6,0.6c0.4,0.7-0.1,1.2-0.7,1.5c-0.2,0.1-0.4,0.2-0.6,0.4c-1.2,1.3-3.4,2.2-2.9,4.2
	c0.6,2.2,2.4,3.6,4.6,4.6c3.4,1.5,7,1,10.5,1.7c3.6,0.7,6.6,1.9,7.9,5.9c1.3,4,3.1,4.8,7.2,4.9c5,0.2,10-0.4,14.9-0.5
	c3.4,0,6.1,1.8,7,4.5C125.1,80.2,125.3,80.7,124.7,81.4z"/>
</svg>
