<?xml version="1.0" encoding="utf-8"?>
<!-- Generator: Adobe Illustrator 25.2.3, SVG Export Plug-In . SVG Version: 6.00 Build 0)  -->
<svg version="1.1" id="Capa_1" xmlns="http://www.w3.org/2000/svg" xmlns:xlink="http://www.w3.org/1999/xlink" x="0px" y="0px"
	 viewBox="0 0 925.5 646.3" style="enable-background:new 0 0 925.5 646.3;" xml:space="preserve">
<style type="text/css">
	.st0{fill:#FFFFFF;stroke:#FFFFFF;stroke-miterlimit:10;}
	.st1{fill:#FFFFFF;fill-opacity:0.5;}
</style>
<path class="st0" d="M574,420.8v0.1C574,420.9,574,420.8,574,420.8S574,420.8,574,420.8z"/>
<path class="st0" d="M129.8,229c0,0.1,0,0.2,0,0.2v0.1C129.8,229.2,129.9,229.1,129.8,229z"/>
<path class="st0" d="M923.7,397.9c-0.8-1.2-0.2-2.5-0.4-3.8c-0.2-1-0.7-1.8-1.4-2.3c-0.6-0.6-1.5-1-2.5-1.2c-0.8-0.2-1.7,0-2.4-0.8
	c-0.9,0-1.8,0-2.8,0c-1,0.1-1.9,0.4-2.7,1.2c-1.6,1.6-1.5,1.8,0.5,2.8c1.5,0.7,3,0.2,4.7,0.6c-1.8,2.7-4.1,3.9-7.1,3.5
	c-2-0.3-3.9-0.9-5.9-1.1c-4.7-0.7-8.9-3.1-13.4-4.2c-3.3-0.8-6.2-0.6-9.1,1.5c-1.4,1-2.8,2.5-4.8,2.5c-1.4,0.6-2.9,0.3-4.4,0.3
	c-1.1,0.4-2.1,0.8-3,1.4s-1.7,1.3-2.4,2.3c-0.5,0.8-1.2,1.5-2.4,1.5c-4.5,0-8.6,1.5-12.8,3c-3.6,1.3-7.1,3.2-10.8,4.4
	c-3.3,1.1-6.9,1.7-10.3,2.4c-3.3,0.7-6.3,1.6-8.5,4.5c-1.1,1.4-2.9,2.3-4.8,2.6c-3.3,0.7-5.1,3-5.9,6.1c-1.5,5.5-1.6,11.1-1.4,16.7
	c0.6,0.7,0.2,1.6,0.3,2.4c0.3,1.5,0.2,3,0.5,4.6c0.4,1.8,0.2,3.7-1,5.3c-1,1.4-1,3.1-0.7,4.7c0.2,1.1,0.3,2.1,0.4,3.2
	c0.5,1.3,0.6,2.6,0,3.9c-2.1,3.6-4.7,7-4.7,11.2c0,1,0.2,2,0.5,3.1c0.6,1.6,0.7,3.2,0,4.8c0,0.8-0.4,1.4-0.9,2
	c-3,3.7-6.9,6.5-10.1,10c-0.1,0.1-0.4,0-0.7,0.1c-0.4,0.5-0.8,1.1-1.5,1.3c-1,0.5-1.7,1.5-2.7,2.2c-5.8,3.8-12.1,6.7-18.2,9.9
	c-2.2,1.2-4.8,1-7.2,0c-1.2,0-2.5,0-3.7,0c-1.6,0.5-3.3,0.8-4.9,1.4c-5.7,2.4-11.1,5.3-16.1,9c-1.4,1-3,2.5-4.6,2.2
	c-3.6-0.7-7,0.4-10.5,0.6c-0.7,0.6-1.5,0.4-2.3,0.4c-1.9,0.3-3.8,0.5-5.7,0.9c-1.9,0.4-3.7,0.9-5.5,1.7c-1.5,0.7-2.2,1.9-1.1,3.1
	c1.3,1.5,0.4,1.7-0.8,1.9c-0.4,0.5-0.6,1.3-1.5,1.3c-1.7,1-3.3,2.5-5.4,2.5c-0.6,0-1.3-0.1-2-0.5c-0.7-0.3-1.6,0-2.4,0.4
	c-4.5,2.3-9.4,2.8-14.3,3.3c-2.1,0.2-3.8-0.6-5.1-2.5c-1-1.4-1-3.1-1.7-4.5c-0.7-0.5-1.3-1-1.6-1.9c-0.9-0.1-1.3-0.8-1.8-1.4
	c-3.1-3-6.5-5.3-10.7-6.2c-3.8-0.8-7.6-1.3-11.2-2.6c-3-1-6.1-1.2-9.2-1.2c-0.8,0-1.6-0.1-2,0.8c-0.3,1,0.5,1.4,1.1,1.9
	c0.6,0.6,1.9,0.6,1.7,1.9c-0.7,1.7-1.8,0.8-2.9,0.5c-1.3,0-2.4-0.3-3.3-0.9c-0.9-0.6-1.7-1.5-2.2-2.6c-1.2-2.5-2.7-4.7-4.8-6.5
	c-3.2-2.9-6.5-5.8-9.8-8.6c-0.7-0.5-1.3-1-1.6-1.9c-1.3-1.4-2.4-3-3.2-4.6c-0.9-1.7-1.6-3.4-2.2-5.2c-1-2,0-4.1-0.6-6.2
	c-0.5-1-1.1-2-1.6-3c-1.9-3.1-3.8-6.2-5.7-9.2c-0.4-0.6-0.8-1.2-1.2-1.8c-0.9-0.7-1.5-1.7-2-2.8c-0.5-1-1-2.1-1.8-3
	c-3.4-3.7-6.8-7.3-10.6-10.6c-3.2-2.8-5.9-6-7.9-9.8c-0.6-0.2-1.1-0.5-1.4-1.1c-1-0.8-2-1.5-2.9-2.3c-0.3-0.2-1.2-0.5-0.2-1.1
	c1.2-0.8,0.8-1.8,0.4-2.9c-0.4-1.1-1.2-2.2-1-3.5c-0.6-1-0.6-2,0-3c0.2-0.8,0.3-1.7,0.5-2.5c0.3-0.8,0.6-1.6,1.3-2.2
	c0-0.7,0.5-1,1-1.3c0.2-0.6,0.4-1.2,0.6-1.8c0-0.8,0-1.5,0-2.3c-0.5-0.9-1-1.8-1.5-2.8c-0.8-0.8-1.6-1.6-2.3-2.4
	c-0.6-0.6-1.2-1.2-1.9-1.9c-1.2-1.1-2.7-2-3.3-3.7c-2.1-2.4-3.7-5.2-4.5-8.2c-0.4-1.6-1.2-2.9-2.3-4c-2.3-2.4-2.9-5.3-2.4-8.3
	c0.4-2.1,0.1-3.7-1.3-5.4c-1.5-1.9-1.1-4.4,1-5.8c1.5-1.1,2.4-2.4,2-4.3c-0.1-0.7-0.1-1.5,0.6-1.9c1.9-1.1,2-2.6,1.4-4.5
	c-1.9-6.8-3.5-13.7-3.9-20.9c-0.7-1.4-0.3-2.8-0.4-4.2c0-0.8-0.1-1.5-0.1-2.3c-0.2-0.5-0.4-1-0.4-1.6c0-0.5,0.1-1,0.4-1.4
	c0-0.3,0-0.6,0-0.8c0-1,0.1-2,0.6-2.9c0.1-1.3-0.3-2.6,0.4-3.8c0-1.2,0-2.4,0.1-3.5c0.1-1.2,0.4-2.3,0.9-3.4
	c0.1-1.1-0.3-2.3,0.4-3.3c0-2.1,0-4.2,0-6.4c-0.7-1.7-0.3-3.5-0.3-5.3c0-0.8-0.1-1.5-0.1-2.3c-0.6-0.9-0.4-1.9-0.4-2.8
	c-1.1-4.2-2.5-8.3-1.8-12.7c0.1-1.3-0.4-2.6,0.4-3.8c0-0.1,0-0.2,0-0.3c0-0.7-0.2-1.4,1.2-0.8c1.2,0.6,2.4,1.2,3.1,2.3
	c0.8,1.4,1.8,2.1,3.3,1.9c1.7-0.2,2.7-1.3,3-2.8c0.5-2.6,1.8-5.1,0.8-7.9c-0.2-0.5-0.1-1.1,0.3-1.5c2.8-3.1,4.5-6.8,5.8-10.6
	c0-1.4,0-2.8,0-4.2c-1.2-1.9-2.2-2.8-3.5-2.8c-0.9,0-2,0.5-3.4,1.3c-0.1,0.1-0.2,0.2-0.3,0.3c-1.2,0.7-2.2,1-2.8-0.8
	c-0.5-1.7-2-2.4-3.5-2.7c-3.8-0.7-7.6-0.4-11.4-0.3c-3,0.1-6-0.1-8.8-1.8c-2.8-1.7-5.4-3.9-8.6-5c-1.1,0-2.2,0-3.2,0
	c-0.1,0-0.3,0-0.4,0c-0.5,0-1-0.3-1.5-0.5c-3.2-1.5-6.1-4-9.9-4.2c-1.1,0-2.2,0.4-3.3-0.4c-0.7,0-1.3-0.3-1.7-0.8
	c-0.4-0.4-0.7-1-1-1.5c-0.3-0.7-0.7-1.7-1.4-1.7c-3.2-0.1-4-2.1-3.9-4.8c0-0.1,0-0.3-0.1-0.5c-0.8-0.4-1.1-1.2-1.5-1.9
	c-0.1-0.2-0.2-0.3-0.4-0.5c-0.8-0.9-0.3-1.9-0.4-2.8c-0.6-1.8-0.9-3.7-1.2-5.5c-0.3-1.9-0.6-3.7-1.3-5.5c-0.9-2.6-1.4-5.2-0.5-7.9
	c0.4-1.2-0.2-2.2-0.9-3.3c-2.5-4-5.5-7.5-9.5-10.1c-0.6-0.4-1.3-0.9-1.3-1.8c-0.2-4.8-3.2-7.6-7.2-9.6c-2.7-1.3-4.7-3.2-5.6-6.2
	c-0.5-1.6-1.5-3.1-2.7-4.3c-1.3-1.5-2.6-2.9-1.9-5.2c0.3-1.1-0.3-2-1.1-2.9c-1.8-2.3-3.1-5-3.6-7.9c-0.7-1-0.3-2.2-0.4-3.4
	c-0.8-2.3-1.8-4.5-3.4-6.5c-0.8-0.8-1.5-1.6-2.3-2.4c-1.8-1.2-2.8-3.1-4.2-4.6c-0.7-0.3-1.2-0.9-1.6-1.5c-1.2-1-2.4-1.8-3.8-2.4
	c-1.4-0.6-2.8-0.9-4.3-0.9c-1.4-0.1-2.3-0.4-2.5-2c-0.1-1.3-0.7-2.9-1.9-3.2c-4.1-1-7.3-4.2-11.6-4.7c-0.8,0-1.5,0-2.3,0
	c-0.6,0-1.3,0-1.9,0c-0.9,0-1.9,0-2.8,0c-0.4,0-0.9,0.1-1.3,0.1c-1.2,0.6-2.4,0.7-3.6,0c-2.3-1.3-4.7-1.4-7,0
	c-1.4,0.9-2.6,0.8-4.1,0.4c-4-0.9-7.6,0.6-8,5.1c0,0.8,0.3,1.7-0.3,2.5c-1.7,4-3.4,8-5.3,11.9c-0.8,1.8-1.8,3.6-3.1,5.1
	c-1.2,1.3-2.4,1.7-3.9,0.6c-1.6-0.1-3.2,0.4-4.8-0.4h0.1c-1.7,0-3.3-0.2-4.4-1.8c-0.6-0.7-1.2-1.3-1.8-2c-1.1-0.5-2.3-1-3.3-1.7
	c-3.7-2.3-7.9-4-10.9-7.3c-1.9-2.1-4.4-3.1-7.2-3.3c-2-0.2-3.7-0.8-4.7-2.6c-2.5-4.7-4.1-9.8-4.8-15.1c-0.6-0.9-0.3-1.9-0.4-2.9
	c-0.1-2-0.5-3.8-1.3-5.5c-0.8-1.7-1.8-3.2-3.1-4.7c-0.9-0.8-1.1-1.8-0.9-2.9c0-0.8,0-1.5,0-2.3c-0.5-1.2-1-2.5-1.5-3.7
	c-1.1-1.1-2.3-2.2-3.4-3.3c-0.9-0.5-1.8-0.9-2.6-1.4c-4-2.4-8.1-4.5-10.8-8.4c-0.5-0.5-1-1-1.4-1.4c-0.8-0.4-1.4-1-1.8-1.9l-1.9-1.9
	c-1.5-0.9-2.3-2.4-3.3-3.7c-0.7-0.5-1.2-1.1-1.6-1.9c-0.3-0.3-0.5-0.6-0.8-1c-0.7-0.5-1.1-1.1-1.5-1.9c-1.1-1.1-2.1-2.3-2.7-3.8
	c-0.4-0.6-0.8-1.2-1.1-1.8c-1.5-1.3-2.6-3-3.6-4.8c-0.5-0.5-0.9-0.9-1.4-1.4c-1.1-1.3-2.3-2.4-3.6-3.4c-1.3-1-2.8-1.7-4.4-2.2
	c-1.4-0.1-2.9,0.3-4.3-0.4c-2.3,0-4.6-0.1-6.9-0.1c-1.6-0.1-3.2,0.3-4.8-0.4c-1.2,0-2.4-0.1-3.6-0.1c-5.6,0-11.2,0-16.8,0
	c-1.7,0-2.7,1.1-3.1,2.5c-0.8,2.6-1.1,5.2-0.3,8c0.8,2.8-0.3,4.9-2.5,5.1c-3.5,0.7-7,0.6-10.5,0c-2.8,0-5.6-0.1-8.3-0.1
	c-1.3,0-2.6,0.3-3.9-0.3c-0.2,0-0.3,0-0.5,0c-1.9,0-3.7-0.3-5.4-1c-1.4-0.1-2.9,0.2-4.3-0.4c-1.5,0.2-3,0.1-4.6-0.1
	c-1.9-0.1-3.9,0.3-5.7-0.4c-0.6,0-1.2-0.1-1.8-0.1c-0.8,0-1.7,0.2-2.4-0.4c-0.4,0-0.9-0.1-1.3-0.1c-1,0-2,0.2-2.9-0.4
	c-0.9,0-1.8-0.1-2.7-0.1c-1.6-0.1-3.3,0.4-4.8-0.3c-3.2,0-6.2-0.9-9.2-1.5c-0.8,0-1.7,0.2-2.4-0.3c-2,0.1-3.9-0.1-5.9-0.6
	c-7.1-1.9-12.6-7-19.3-9.6c-1-0.4-2.1-0.7-3-1.5c-2.3-1.1-4.6-2.2-6.9-3.2c-0.7-0.2-1.4-0.5-1.9-1c-0.8,0-1.4-0.5-2.1-0.9
	c-4.9-2.7-9.7-5.6-14.7-7.8c-9.7-4.4-19.1-9.3-28.6-14.1c-0.7-0.2-1.4-0.5-1.9-1c-3.6-1.6-7.3-3-10.9-4.6s-7.2-3.3-10.6-5.3
	c-1.2,0.3-2,0-2.7-0.7c-1.3-0.5-2.7-1-4-1.6c-2.1-0.9-2.2-1.4-0.7-3.2c0-1.2,0.1-2.5,0.1-3.7c-0.9-1.6-2-2.7-3.9-2.7
	c-0.3,0-0.6,0-0.9,0.1c-1.4,0.2-3.2,0.1-4.6-0.7c-0.8,0-1.7,0.1-2.5-0.4c-1.1,0-2.1-0.1-3.2-0.1c-1.4-0.1-2.9,0.3-4.3-0.4
	c-1.2,0-2.4-0.1-3.6-0.1c-2.4-0.1-4.8,0.4-7.2-0.3c-2.7,0.1-5.4,0.1-8.1,0.1c-2.4,0-4.8-0.1-7.2-0.3c-0.8,0-1.5,0-2.3,0
	c-0.8,0-1.6,0-2.4,0S17.8,2,17.1,1.5c-1.1,0-2.1-0.1-3.2-0.1S11.6,1.7,10.6,1C9.4,1,8.1,0.9,6.9,0.9c-0.8,0-1.7,0.2-2.4-0.4H3.3
	C0.5,0.8,0,1.6,0.9,4.1c0.6,1.6,1.2,3.3,2,4.9c0.7,1.5,1,3,1.4,4.5c0.6,2.1-0.2,4.4,1.1,6.5c0.9,1.5,2.2,2.2,3.3,3.2
	c1.3,1.2,1.8,2.7,1.7,4.3c-0.1,1.3-1.6,1-2.4,1.4c-0.7,0.4-1.2,0.9-1.2,1.8V33c0.6,4.5,3.1,7.8,6.9,10.2c0.9,0.6,1.4,1.1,1.7,2.2
	c0.8,3,0.4,5.8-0.2,8.7c0,0.8,0,1.5,0,2.3c0.2,0.7,0.2,1.4,0.5,2c0.8,1.8,1.4,4.2,4.3,2.3c0.4-0.2,1.1-0.2,1.5,0.2
	c1.1,1.6-0.7,3.2-0.1,4.8c0.1,0.7,0.4,1.1,0.9,1.5c1.3,1,1.3,2.1,0.2,3.2c-0.3,0.5-0.4,1.1-1.1,1.2c-0.7,0.7-0.9,1.4-0.9,2
	c0,1.2,1,2.3,1.8,3.2c1,1.3,1.6,2.6,1.5,4.2c-0.1,2.2,0.4,4.2,1.6,5.9c1.2,1.8,1.3,3.6,0.9,5.7c-1.3,5.9-0.6,11.5,3.2,16.5
	c0.9,0.4,1.8,1,2.3,1.9c1.9,1,3.7,2,5.5,3.1s3.4,2.4,4.9,4c1.1,0.7,2,1.6,2.7,2.7c1.6,1.9,3.2,3.7,4.8,5.6c0.9,0.2,1.5,0.6,1.8,1.4
	c0.8,0.4,1.3,1.1,2,1.7c0.6,0.6,1.3,1.1,2.3,1.2c0.8,0.8,0.5,1.6,0,2.5c-0.1,0.5-0.1,1-0.1,1.4c0,3.6,1.7,6.5,4.3,9.1
	c2.5,2.4,5.1,4.7,7.6,7.2c2,1.9,2.1,3.8,0.3,5.8c-0.7,0.8-0.9,1.7-1.1,2.7c0,0.9,0,1.8,0.1,2.8c0.2,1,1,2,1,3c0,0.4-0.1,0.7-0.4,1.1
	c-2.8,4.2-5.6,8.4-11.2,9.1c-0.8,0.5-1.6,0.4-2.5,0.3c-1.8,0.4-3.7,0.7-5.6,1c-0.8,0.6-1.7,0.6-2.5,0c-0.1,0-0.1,0-0.2,0
	c-0.9,0-1.6-0.5-2.4-1c-1.6-0.9-3.2-1.9-5.2-1.9c-2.1,0-3,1.2-2.2,3.1c0.6,1.5,1.8,2.5,2.9,3.5c0.6,0.2,1,0.6,1,1.3
	c1.1,1.4,2.1,2.9,3.2,4.3c0.6,0.2,0.9,0.7,0.9,1.3c2.1,2.2,4.3,4.3,6.1,6.8c0.6,0.8,1.1,1.6,1.1,2.7c0,3.6,0.1,3.7,3.7,5
	c0.8-0.1,1.4,0.3,2,0.8c2.3,0.7,4,2,4.8,4.4c0.6,1.8,2.4,2.7,4.4,2.5c1.5-0.1,2.6,0.5,2.9,2c0.4,2.6,1.8,4.5,3.6,6.2
	c0.7,0.2,1,0.8,1.2,1.3s0.7,0.4,1.1,0.6c1,0,1.9-0.2,2.8-0.7c0.4-1.2,1.3-2.2,1.4-3.6c0.1-0.9,0-2,1.1-2c1,0,1.6,0.8,1.8,2
	c0.4,2.6,1.3,2.9,3.7,1.8c0.6-0.7,1.2-1.3,1.8-2c0.7-0.4,1.3-0.8,1.9-1.3c0.5-0.6,1-0.3,1.2,0.2c0.4,0.9,0,1.6-0.7,2.2
	c-2.1,3.3-1.4,6.4,0.4,9.6c1.3,2.3,3.2,4.1,4.8,6.2c0.6,0.5,1.3,1,1.4,2c0.9,1,1.7,2.1,2.8,2.8c0.8,0,1.3,0.3,1.7,0.9
	c0.5,0.7,1.2,1.1,1.9,1.5c0.7,0.4,1.4,0.8,2,1.3c1.1,0.1,1.9,0.8,2.8,1.3c2.9,1.4,5.4,3.3,7,6.2c0.6,0.4,0.9,1,0.9,1.8
	c0.8,2.4,1.6,4.9,2.5,7.3c0.5,1.4,0.3,2.4-0.6,3.5c-1.3,1.7-2.2,3.6-1.3,5.9c1,2.1,0.4,3.4-1.9,3.8c-0.5,0.5-0.9,0.9-1.4,1.4
	c-0.8,0.8-0.3,1.8-0.5,2.7c0.3,0.8,0.8,1.6-0.1,2.4c-1.1,0.6-1.9,1.4-2.6,2.2c-0.7,0.9-1.2,1.9-1.7,3c0,1.1,0,2.2-0.1,3.2
	c0.1,0.3,0.1,0.6,0.1,0.8c0,1.5-0.7,2.8-1.3,4c-0.6,1.2-0.8,2.5-0.6,3.9c0.3,1.8,1.2,3.6,2.9,3.8c2.1,0.2,1.6-2,2.1-3.3
	c0-0.1,0-0.1,0.1-0.2c-0.5-1.1-0.7-2.3,0-3.4c0-0.4,0-0.8,0-1.2c0-0.7,0-1.6,0.9-1.5c0.8,0.1,0.8,0.9,0.6,1.7
	c-0.1,0.9-0.1,1.9-0.1,2.8c0.2,1.8,1,2.9,3,2.5c0.7-0.1,1.2,0.3,1.6,0.7c1.2,1.2,2.4,2.4,3.3,3.9c1.5,2.6,3.2,5.2,5.9,6.7
	c1.1,0.6,2,1.4,2.7,2.4c3,4.1,6.1,8,11.2,9.8c1.9,0.7,3.8,2.2,4.4,4.2c1.1,3.7,3.7,6.5,5.7,9.6c0.5,0.5,0.9,0.9,1.4,1.4
	c0.6,0.6,1.2,1.2,1.9,1.8c1.3,1.1,2.5,2.1,3.8,3.2c0.6,0.1,1.1,0.4,1.4,1c1.1,0.5,2.2,1,3.3,1.5c1.1,0.1,1.6,0.8,1.9,1.8
	c0.9,1.1,1.5,2.3,1.9,3.6c0.6,0.9,0.3,2,0.4,2.9c0.3,1.8,0.8,3.6,1,5.4c0.5,4.4,1.7,8.5,3.8,12.4c1.1,2.1,3.6,3.5,5.1,2.8
	c2.3-1,4.5-2.3,5.8-4.5c0.9-1.6,1.8-2.8,3.9-2.7c0.7,0,1.3-0.5,1.8-1.2c1.1-1.7,1.9-3.9,4.3-4.5c0.5-0.1,0.9-1.1,1.1-1.7
	c1.5-5.7,1.5-10.5-4.6-13.7c-0.5-0.3-1-0.8-1.6-1c-2-0.9-2.2-2.5-1.6-4.3c0.8-2.1-0.1-3.5-1.5-4.7c-1.1-1-2.3-1.8-3.7-2.4
	c-2.5-1.1-3.6-3.1-4.4-5.6c-0.8-2.7-1.9-5.2-3.8-7.4c-1.8-2.1-4.6-2.1-5.7-0.1c0,0.8,0,1.5,0.1,2.3c0,0.1,0,0.2,0,0.2
	c0,1.3-1.1,0.8-1.7,0.7c-4.4-0.5-9.2-5.7-9.5-10.3c-0.7-0.9-0.4-1.9-0.4-2.8c-0.5-1.8-0.9-3.6-1.4-5.3c-0.1-0.5-0.1-1,0.5-1.4
	c1.4-0.8,2-2.3,2.8-3.6c0-0.8,0-1.5,0-2.3c-1.3-3-2.6-5.9-4.4-8.6c-2.8-4.1-4.6-8.3-3.4-13.5c0.4-1.7-0.1-4.1-2.2-4.9
	c-3.7-1.5-4.9-4.4-5.1-8c-0.6-0.7-0.4-1.6-0.4-2.4c-0.6-1.5-2.2-2.8-2.2-4.4c0-0.7,0.3-1.4,1.1-2.2c0-0.9,0.1-1.8,0.1-2.8
	c-0.4-0.9-0.7-1.8-1.2-2.7c-1.1-2-1.1-3.7,0.5-5.4c0.5-0.5,0.8-1.2,1.1-1.7c0-0.9,0.1-1.8,0.1-2.8c-1.1-2.3-2.3-4.7-3.4-7
	c-1.3-2.6-3.2-4.8-4.9-7c-0.7-0.8-1.7-1.8-2.8-1.1c-1,0.6-0.8,1.9-0.4,2.9c0.3,0.9,0.5,1.7,0.8,2.6c0.3,0.6,0.4,1.2,0.4,1.8
	c0,1.2-0.5,2.4-0.8,3.5c-0.4,1.6-1.7,0.4-2.6,0.1c-0.3-0.3-0.6-0.6-0.8-0.9c-0.5-0.9-1.3-1.7-1.3-2.8v-0.1c-0.1-0.1-0.1-0.2-0.1-0.4
	c-0.6-0.9-0.6-1.7,0-2.6c0-0.1,0-0.2,0-0.3c0-0.6,0.3-1.2,0.7-1.6c1.6-1.6,1.2-3.2,0.2-4.8c-0.4-0.6-0.8-1.2-1.1-1.8
	c-0.4-0.8-0.8-1.3,0.3-2c1.6-1,1.4-2.5-0.2-3.6c-0.7-0.5-1.5-1-2.4-1.3c-2-0.7-3.5-1.9-3.6-4.3c-0.1-7.3-4.1-12.5-9.4-17.1
	c-1-0.9-2.6-1.4-2.7-3.2c-0.2-3.8-0.3-7.6,0.1-11.4v-1.9c0-2-0.1-4-0.1-6c-0.5-0.9-0.3-1.9-0.4-2.9c-0.5-1.3-1.3-1.9-2.4-1.9
	c-0.5,0-1,0.1-1.5,0.3s-1,0.3-1.3,0c-1.4-1.4-3.3-2.5-3.3-4.8c0-2,0.1-4,0-6.1c-0.1-2.5-1.3-4-3.4-3.8c-2,0.1-2.6-0.5-2.8-2.6
	c-0.3-3.3-1.6-3.8-4.7-2.4c0,0-0.2-0.2-0.3-0.3c-0.8-1.2-0.3-2.5-0.4-3.7c-0.2-1.4-0.3-2.8-0.6-4.2c-0.8-3.4-0.5-7.4-4.9-9
	c-0.5-0.2-0.8-1-1-1.5c-2.5-4.7-5.9-8.8-10.1-12c-2.2-1.7-4.2-3.7-6.1-5.8c-0.9-1-1.7-2.1-1.5-3.3c0.4-1.9-0.4-3.5-1-5.2
	c-0.6-1.9-1.4-3.8-0.7-5.9c1.8-5.4,2.4-10.8-0.1-16.1c-0.4-1-0.3-1.8,0.5-2.5c1.9-1.7,1.8-3.4,0.9-5.7c-1.9-4.6-3.9-9.3-2.2-14.6
	c0.3-1,0.4-2.2-0.3-3.2c-1-1.5-0.6-2.5,0.5-3.7c2.3-2.4,2.5-5,0.9-7.9C59.3,34,58.3,32.7,58,31c1.2,0,1.8,0.7,2.5,1.2
	c6.4,5,11.5,11.3,18.3,15.9c3.6,2.4,6.9,2.9,10.8,1.9c3.2-0.8,3.5-0.7,4,2.5c0.7,4.1,2.8,6.8,7.1,7.5c2.1,0.3,4.1,1,6.1,1.7
	c2.6,1,3.6,3.6,2.1,5.7c-2,2.9-2.7,6-2.8,9.3c0,1.5,0,3.1,0,4.6c0.1,1.3,0.4,3,1.6,3.5c2.6,0.9,3.3,3.4,3.5,5.2
	c0.5,5.2,3.9,9.7,3.5,15.1c0.7,1.2,0.3,2.6,0.3,3.9c0.2,1.5,0.6,2.9,1.2,4.3c0.6,1.3,1.5,2.5,2.5,3.7c0.7,0.8,1.1,1.5,0.8,2.8
	c-0.5,2,0,4,1.2,5.7c2,2.9,4.1,5.8,5.9,8.8c1.6,2.7,3.7,5.3,3.6,8.8c0.5,0.8,0.4,1.6,0.3,2.5c0.2,0.5,0.1,1,0.4,1.5
	c2.3,4,5,7.7,6.2,12.3c1,3.9,3,6.8,6.9,8.5c2.1,0.9,3.6,3.3,4.2,5.6c0.9,4,3.1,6.9,6.2,9.3c2.9,2.2,5.7,4.6,9.5,4.8
	c1.6,0.1,3,0.6,4.3,1.2c2.6,1.2,3,3.2,1.1,5.2c-0.6,0.7-0.4,1.3-0.2,2.1c0.5,2.1,2.6,3.4,2.7,5.8c0.1,3.2,2.9,5.7,2.4,9.2
	c-0.1,0.6,0.7,1.5,1.3,2.1c1.4,1.5,2.9,2.9,4.6,4.2c1.6,1.1,3.2,1.5,5,0.9c1.2-0.4,1.8,0.1,2.3,0.9c0.6,0.8,1.1,1.7,1.6,2.5
	c0.6,1,0.6,2,0,3c-0.1,0.4-0.2,0.8-0.2,1.1c0,2.1,1.8,4.4,4.2,5.3c2.7,1,5.4,1.8,8.1,2.8c4.1,1.6,5.3,4.3,5.7,8.1
	c0.2,1.4,0.4,3.2,2.7,2.7c0.8-0.2,0.9,0.3,1,0.9c0.2,1.5-0.7,2.3-2,2.3c-2.6-0.1-3.9,1.6-4.5,3.6c-0.8,2.4-1.7,4.8-2.4,7.2
	c-0.4,1.3-2.1,2.4-1,4.1c0.7,1.2,0.3,2.5,0.3,3.8c0.3,1.8,1.4,2.9,2.9,3.8c1.6,1,3.6,0.5,5.2,1.4c1.3,0.2,2.7-0.3,3.9,0.4
	c4.3,0.6,7.9,2.8,10.4,5.9c2.7,3.3,5.3,6.6,9.1,8.7c0.8,1,0.3,2.1,0.4,3.1c0.8,1.8,1.9,3.4,2.9,5c1.1,1.6,2.2,3.2,3.1,4.9
	c0.4,0.9,1.3,1.2,2.2,0.8c2.2-1,2.2,0.4,2.7,1.9c0.6,1.9-0.5,4.1,0.6,5.6c1.6,2.1,3.5,4,6.2,4.9c2.1,0.6,3.9,1.9,5.2,3.7
	c-0.6,0.6-1.2,0.4-1.7,0.5c-0.9,0.2-2.1,0-2.5,1.2c-0.3,1.2,0.4,1.9,1.2,2.7c1.7,1.6,4,2,5.7,3.5c1.8,1.7,4.5,2.9,4.2,6.2
	c0,0.9,0,1.8,0,2.8c0,0.8,0.3,1.5,0.8,2s1.1,0.8,1.7,1.1c2.6,0.9,3.8,2.7,4.6,5.2c1.1,3.4,2.5,6.7,4.5,9.8c1.9,2.9,4.3,5.4,5.1,9
	c0.2,0.8,1.1,1.6,2.1,2.3c4,2.9,7.9,6,10.7,10.2c2.3,3.5,4.6,6.7,8.7,8.1c2.4,0.8,4.5,2.1,6.8,3.2c-0.4,0.5-1.1,0.6-1.3,1.2
	c-0.2,0.9,0.6,1.9-0.4,2.7c-2.3,1.1-2.9,1.6-2.9,3.2c0,0.6,0.1,1.2,0.2,2.2c0.4,3.3,1.8,6.3,2.3,9.5c0.7,1.4,0.3,2.9,0.3,4.3
	c0.7,6.2,4.1,11,8.2,15.4c2,2.1,2.9,4.4,2.3,7.3c-0.4,2-0.9,3.9-1.2,5.9c-0.4,2.9-1.8,5.5-4.6,7c-1.1,0.6-2.2,1.5-3,2.5
	c-2,2.5-0.4,6.2,1.7,6.3c2.1,0.1,3.6,1.1,5.1,2.1c0.6,0.9,0.7,1.8,0,2.7c-1.9,1.5-4.1,2.1-6.3,2.5c-2.7,0.5-5.1,1.5-7.6,2.6
	c-1.4,0.6-2.2,1.6-1.5,3.4c0.7,2,2.2,3.3,3.3,5c1,1.5,2.2,3,1.9,5c-0.4,3.2-0.2,3.6,2.8,4.6c1.4,0.5,2.5,1.2,3.3,2.4
	c3.4,5.1,6.6,10.3,7.9,16.4c0.7,0.7,0.3,1.6,0.4,2.4v0.2c0,1.6,0.8,2.5,2.4,2.9c1.9,0.4,3.7,1.3,5.7,1.6c1.8,0.3,3.5,1.1,4.5,2.5
	c0.8,1.1,1.9,1.5,3,2c3.5,1.6,7.4,1.8,10.8,3.7c3.4,1.8,6.1,4.6,9.5,6.4c4.6,2.4,8.6,5.4,10.9,10.3c0.4,0.8,1.1,1.5,2,1.8
	c0.8,0.3,1.1,0.9,1.4,1.8c1.9,6.9,7.6,11.9,14,12.2c0.8,0,1.7-0.2,2.4,0.4c1.3,0.3,2.6,0.6,3.9,1.1s2.4,1.1,3.5,2
	c1.4,1.1,2.8,2.4,4.7,2.6h2.8c1.1-0.3,2.1-0.5,3.2-0.5c1.4,0,2.8,0.4,4.2,1.3c2.8,1.9,6,2.5,9.2,0.5c0.5-0.3,1-0.4,1.6-0.4
	c0.9-0.7,1.9-0.3,2.9-0.3c0.2,0,0.4,0,0.5,0c2.7,0,4.7,1.1,5.9,3.9c1.1,2.7,2.9,5.2,5.3,6.9c3.4,2.3,7,4.3,10.6,6.4
	c3.4,2,7,3.7,8.8,7.7c0.5,1.1,1.5,1.8,2.6,2.2c3.6,1.1,7.3,2.1,11,2.9c3.5,0.8,7.2,1.1,10,3.7c2.2,2,4.9,2.9,7.8,3.4
	c3.4,0.6,6.8,1.5,9.3,4.5c1.1,1.3,3,2.1,4.8,2.4c5.4,0.9,10.7,1.7,16.1,2.5c0.9,0,1.9-0.3,2.8,0.4c0.7,0.4,1.4,0.5,2.2,0.7
	c0.8,0.2,1.5,0.4,2,0.8c3.5,2.7,7.6,2.9,11.6,3.7c2,0.4,4.3,0.5,5.5,2.4c2.2,3.4,5.3,4.6,9.1,4.7c0.8,0,1.6-0.2,2.4,0.4
	c0.8,0.5,1.5,1,2.3,1.4c5.7,2.8,11.8,4.9,17.8,7c2.1,0.7,4.1,1.2,6.3,0.5c1-0.3,2.3-0.4,3,1c1.1,2.1,2.9,2.3,5,1.8
	c6-1.4,11.3,0,15.8,4.1c0.9,0.9,1.9,1.5,3.2,1.6c0.8,0,1.5,0,2.3,0c0.2-0.1,0.5-0.1,0.7-0.1c0.9,0,1.7,0.4,2.6,0.7
	c2.2,0.7,4.4,1.5,6.6,2.2c0.9,0,1.8,0,2.8,0c2.2-0.3,4.2-1.1,6-2.3c8.8-5.8,18.2-10.2,28.4-12.9c1.3-0.3,2.5-1.1,3.2-2.3
	c2-3.3,5.1-4.2,8.6-4.2c1.4-0.6,2.7-0.5,4,0c2.7-0.4,5-1.6,6.9-3.5c0.5-0.5,0.8-1.4,1.8-1c1.5,0.6,2.8-0.1,4.2-0.7
	c0.8-0.3,1.8-1.8,2.5-0.4c0.9,1.7-1.4,1-1.9,1.8c-0.1,0.1-0.3,0.1-0.4,0.1c-0.9,0.4-1.4,1.3-1.3,2.2c0.1,0.9,0.8,1.2,1.7,1.5
	c1.4,0.4,2.8,0.3,4.1,0.5c0.8-0.1,1.6-0.2,2.3,0.4c2,0.3,4.1,0.7,6.1,1c0.8,0,1.5-0.1,2.3-0.1c0.2-0.3,0.3-0.6,0.3-0.8
	c0-0.5-0.4-0.9-0.9-1.2c-0.7-0.4-1.4-0.8-2.2-1.3c-0.5-0.2-0.9-0.3-1.4-0.5c-0.4-0.2-0.8-0.3-1.4-0.6c0.9-0.4,1.4-0.4,1.9,0.1
	c0.6,0.1,1.3,0,1.8,0.6c2.7,0.3,5.1,1.6,7.6,2.4c1.3,0.5,3.1,0.8,3.2,2.8c0.1,1.7,3.7,4.4,5.3,4c0.6-0.1,1.2-0.5,1.3-1.5
	c0-0.6-0.7-1.1,0-1.7c2.4,0.5,4.1,2.1,5.6,3.7c4,4.4,8.6,8,12.7,12.2c2.3,2.4,5.2,4.4,6,8c0.3,1.4,1.1,3,2.9,3.3c1.1,0,2.2,0,3.2,0
	c0.3-0.1,0.6-0.2,0.9-0.2c0.9,0,1.6,0.5,2.3,1.1c3.1,3,6,3,9.8,0.6c5-3.2,8.9-7.2,11.8-12.2c1.7-2.9,2.9-6,4.7-8.8
	c2.7-4.3,4.4-9,7.2-13.3c1-1.5,2-2.4,4.1-2.5c3.6-0.2,7.1-1,10.7-1.3c3.5-0.3,6.9-1.7,10.4-1.9c0.9-0.6,1.9-0.4,2.8-0.4
	c5.6-0.7,11.1-1.3,16.7-2c3-0.4,3.8-1.6,2.8-4.5c-0.1-0.4-0.3-0.9-0.5-1.3c-0.4-0.8-0.2-1.4,0.4-2.1c1.6-1.9,1.5-2.5-0.8-3.8
	c-1.6-0.8-3.2-1.6-4.8-2.4c-0.5-0.3-1.4-0.5-1.1-1.3c1-2.4-1-3.3-2.3-4.3c-3.4-2.8-6.8-5.5-9.8-8.8c-0.8-0.9-1.8-1.2-3.1-0.5
	c-1.2,0.7-2.4,0.5-3.7-0.2c-3.4-1.7-5.8-4.3-8-7.3c-0.4-0.6-1.5-0.9-1.1-1.9c0.4-0.9,1.4-0.6,2.1-0.6c2.3-0.8,4.7-0.2,7.1-0.4
	c2.6-0.2,3.5-0.8,3.5-2.7c0-0.5-0.1-1-0.1-1.6c-0.1-0.9,0-1.8-0.1-2.7c-0.6-0.7-0.4-1.6-0.4-2.4c0-0.6-0.1-1.2-0.1-1.8
	c-0.6-0.9-0.4-1.9-0.4-2.9c0-1.2-0.1-2.4-0.1-3.6c0-0.1-0.1-0.2-0.1-0.3c-0.3-1.3-1.3-2.9,1.5-2.6c4.8-1,9.7-1.2,14.5-2
	c1-0.7,2.2-0.3,3.3-0.4c1.8-0.2,3.7-0.4,5.5-0.6c0.7-0.6,1.6-0.4,2.4-0.3c3.2-0.4,6.5-0.7,9.7-1.1c1.2-0.7,2.6-0.3,3.9-0.3
	c1.2-0.2,2.5-0.4,3.7-0.6c0.5-0.3,1.1-0.4,1.7-0.4c0.5,0,1.1,0.1,1.6,0.1c0.8,0,1.5-0.1,2.2-0.1c0.5-0.3,1.1-0.4,1.6-0.4
	c0.4,0,0.9,0,1.3,0c1.1-0.2,2.1-0.4,3.2-0.6c1.1-0.7,2.2-0.3,3.4-0.3c1.2-0.3,2.4-0.6,2.4-1.6c0-0.4-0.2-0.9-0.8-1.6
	c-0.4-0.5-0.7-1.5-0.6-2.2c0.2-1.1,0-2.5,1.2-3.1s1.9,0.4,2.5,1.1c3.2,3.6,5.5,3.1,7.1-1.5c1.7-5,3.4-10.1,5-15.2
	c0.4-1.1,1-1.9,2.1-2.3c1.6-0.5,3.2-1.3,4.9-1.4c0.7-0.6,1.6-0.3,2.4-0.4c1.6-1.4,2.7-3,2.7-5.1c0-0.3,0-0.6-0.1-0.9
	c-0.1-0.9,0-2,1.1-2.5c0.5-0.5,1-0.9,1.5-1.4c0.2-1.2,0.4-2.3,0.6-3.7c2.6,2.6,2.3,6,2.7,9.2c0.6,0.9,0.3,1.9,0.3,2.9
	c0,0.8,0.6,1.5,1.1,1.6c2.7,0.7,3.3,2.9,4,5.1c0.5,1.6,1.3,3,3,3c1.8,0,2.3-1.6,2.7-3c1.2-4.4,2.9-8.7,2-13.5
	c-1.1-5.8,1.5-11.2,2.5-16.8c0.7-3.9,0.1-6.2-3.1-6.9c-0.8,0-1.5,0-2.3,0c-1.5,0.1-1-0.5-0.4-1.2c1.2-1.5,2.9-2.2,4.7-2.9
	c2.7-1.1,3.4-3.3,2.3-6.3c-1-2.8-2.7-1.5-4.3-0.8c-0.5,0.2-1,0.2-1.5,0.4c-1.1,0.4-1.4,0-1.8-1c-0.9-2.4-0.1-4.3,1.7-5.8
	c3.8-3.1,4.5-6.8,2.3-11.1c-0.1-0.3-0.1-0.6-0.2-0.9c-0.8-1.6-0.3-2.8,0.7-4c2.2-2.6,3.8-5.4,4.6-8.7c0.8-3.5,2.1-6.6,5-8.9
	c1.8-1.4,2.7-3.3,3.5-5.4c0-0.8-0.1-1.7,0.4-2.4c0-1.4,0.1-2.8,0.1-4.1c0-0.8,0-1.5,0-2.3C925.6,405.6,924.6,401.8,923.7,397.9z
	 M914.3,392.2c0.8-0.6,1.4-0.5,2-0.3C915.7,392.3,915.2,392.7,914.3,392.2z M109.3,295.6c-1.5-1-1.4-2.2-0.7-3.6
	c0.2-0.5,0.4-1,0.7-1.8c0.3,1,0.3,1.7-0.2,2.3C109,293.6,109.7,294.5,109.3,295.6z M813.1,430.8c0.5-1.3,0.9-2.7,1.4-4
	c0.9-2.4,2.2-4.4,4.8-5.4c2.4-0.9,4.6-2.3,6.1-4.6c0.7-1,1.6-1.5,2.9-1.8c3.2-0.9,6.4-1.8,9.8-2.2c3.8-0.5,7.1-2.3,10.5-3.8
	c5.3-2.3,10.7-4.6,16.7-4.7c1.7,0,2.8-1.2,3.9-2.4c1.6-1.9,3.5-3,6.1-2.8c2.9,0.2,5.3-1.2,7.5-2.9c2.4-1.9,4.8-2.2,7.8-1.5
	c4.1,1.1,7.8,3.3,12.1,3.6c0.9,0.1,0.9,0.8,1.1,1.5c0.7,2.8,0.2,5.8,0.8,8.6c0.2,1.1,0.2,2.3,0.4,3.5c0.3,2.7,0.1,5.1-1.4,7.6
	c-10,16-21.1,31.2-33.8,45.2c-4,4.4-6.5,9.6-10,14.5c-6-6.2-12.2-12.4-18.1-18.8c-4.3-4.7-8.9-9-13.3-13.5c-0.8-0.8-1.6-1.5-2.2-2.4
	c-1.5-2.1-3.2-3.4-5.9-2.2c-0.4,0.2-1.2,0.2-1.2-0.2c-0.4-2-1.6-2.7-3.5-2.6c-0.2,0-0.4-0.2-0.6-0.4
	C813.7,438.1,812.5,432.2,813.1,430.8z M564,405.4c1.2,3.8,3.4,7,5.6,10.2c1.7,1.7,3.4,3.4,5.2,5.2c1.6,1.5,2.2,2.3,2.2,3.3
	c0,0.8-0.4,1.7-1.2,3.2c-2.1,3.9-3.2,7.9-1.2,12.3c0.2,0.4,0.8,1.1,0.3,1.5c-2.9,1.9-0.5,3.6,0.6,4.5c2.7,2.3,5,4.8,6.8,7.9
	c1.4,2.6,3.8,4.6,6.1,6.4c5.9,4.8,10.4,10.7,14.2,17.2c1.2,2.1,2.5,4.2,3.8,6.1c1.9,2.7,3.4,5.4,3.3,8.8c0,0.8,0.2,1.7,0.6,2.5
	c3.6,6.8,7.5,13.4,13.9,18.1c3.5,2.6,6.5,5.8,8.6,9.8c1.7,3.4,8,5.3,11.4,3.9c1.2-0.5,1.6-1.5,1.3-2.7c-0.2-0.7-0.5-1.5-0.8-2.3
	c2.6-0.5,5,0.4,7.3,1.1c2.5,0.8,5.1,1.4,7.7,1.7c4.5,0.6,8.2,3.1,11.8,5.8c3,2.3,3.8,5.8,5.8,8.5c1.3,1.8,3,2.4,5,2.5
	c2.7,0.1,5.3-0.2,7.9-0.7c2.4-0.4,4.4,1.4,4.1,3.7c-0.3,1.9,1,2.9,2,4c3.8,4.1,7.8,8,12.1,11.7c1.1,0.9,2.1,1.9,3,3
	c2.7,3.1,1.7,6.5-2.2,7.6c-1.3,0.4-2.8,0.7-3.4,1.8c-1.4,2.3-3.5,2.2-5.7,2c-8.8-0.4-17.7-1.8-26.5-1.2c-2.3,0.2-3.9,0.1-5.2-2.3
	c-1.4-2.3-4.4-3-6.8-4.4c-1.2-0.7-1.8-1.2-1.6-2.8c0.3-2.5,0.1-5,0.2-7.5c0-1.1-0.3-1.9-1.3-2.5c-1.1-0.6-2-0.2-2.8,0.4
	c-1.3,1.1-2.7,2.1-3.8,3.4c-2.6,3.1-6.4,4.7-9.4,7.1c-1.6,1.3-3.1,0.3-4.1-0.9c-1.9-2.4-2.8-5.5-4.7-8c-0.7-0.9,0.2-2.1,0.8-3
	c2.2-3.5,2-7.2-0.6-10.4c-0.6-0.8-1.5-0.7-2.4-0.7c-3.1,0.1-6.1-0.4-9.1-1.3c-5.4-1.6-8.2-5.9-11.3-10c-0.7-1-1.4-2-2.3-2.9
	c-0.7-0.8-1.7-1.5-2.9-1.1c-1.3,0.4-1.6,1.6-1.9,2.8c-0.1,0.4,0,0.9-0.1,1.4c-0.1,0.7,0.4,1.9-0.4,2.1c-1.1,0.3-1.4-1-1.8-1.8
	c-1.5-3.1-2.1-3.3-5.1-1.6c-0.5,0.3-1,0.5-1.4,0.8c-1.7,1.3-2.8,1.4-3.6-1c-0.6-1.7-2.3-2.2-3.8-2.8c-2.7-1.1-3.8-2.8-3.4-5.7
	c0.4-3.2,0.8-6.3,1.4-9.4c0.3-1.7,1-3.1,2.9-3.5c2.2-0.4,3.5-1.8,3.5-4c0-2.4-2.3-2.9-3.9-2.9c-2.5,0-4.4-1.2-6.5-2.1
	c-2.4-1-3.3-2.9-2.4-5.6c1.7-5.2,3.5-10.2,5.2-15.4c0.3-0.9,0.6-1.9,0.6-2.9c0.1-3.3,0-3.4-3.2-4.1c-2.8-0.6-2.8-0.7-1.7-3.5
	c0.2-0.4,0.3-0.9,0.5-1.3c0.2-0.7,0-1.3-0.6-1.6c-0.7-0.3-1.3,0.1-1.5,0.7c-0.7,1.3-1.5,2.7-1.7,4.1c-0.2,1.6-1.1,2.5-1.9,3.6
	c-1.7,2.2-4.4,1.8-5.5-0.9c-0.4-1.1-0.6-2.2-1-3.4c-0.6-2.2-0.1-3.8,2-4.8c1.4-0.7,2.8-1.4,2.4-3.2c-0.4-1.9-1.7-3.4-3.6-3.6
	c-2.3-0.2-2.5-1.3-2.5-3.1c0-0.9,0.1-1.9-0.2-2.8c-0.5-1.2-1-2.6-2.5-2.4c-1.4,0.2-3.1,0.4-3.2,2.3c-0.1,1.1-0.5,0.3-0.8,0.3
	c-2.4-0.4-3.8,0.4-4.5,2.9c-1.7,5.9-5.8,8.4-11.9,7.2c-0.8-0.2-1.5-0.5-1.7-1.4s0.4-1.4,1-1.9c2.5-1.9,5.1-3.7,7.4-6
	c3.1-3.1,2.4-6.4,1.4-9.7c-1.1-3.5-3.3-6.3-7.2-7.2c-0.7-0.2-0.6-0.7-0.8-1.3c-0.5-1.9-0.4-3.9-0.4-5.8c0-3.8-0.2-7.6-2.8-10.8
	c-0.3-0.4-0.5-1-0.4-1.5c0.7-3.4,1.3-6.9,2.1-10.2c0.5-2.1,1.3-2.2,2.8-0.7c0.7,0.7,1.3,1.6,2,2.3c1.7,1.7,3.1,1.8,4.9,0.4
	c1.2-1,2.4-2,3.5-3C559.4,400.4,562.6,401,564,405.4z M567.1,547.5c0.8,1,2.1,2.2,0.9,3.7s-2.7,1.9-4.6,1c-2.7-1.4-5.3-3-8.5-2.6
	c-0.6,0.1-0.9-0.3-1.3-0.8c-3.1-3.6-7.9-4.6-12.2-2.6c-0.4,0.2-0.9,0.8-1.2,0.4c-1.6-2-3-0.6-4.5,0c-1.3,0.6-8.3-1.5-9.3-2.5
	c-0.7-0.7-0.1-1.1,0.3-1.5c2.9-2.7,6-5,10-5.7c1.4-0.3,1.9-1,1.9-2.5c0-2.2-0.2-4.5,0.4-6.7c0.2-0.7,0.1-1.5-0.6-1.9
	c-1.5-0.9-1.3-2.4-1.7-3.8c-1-4.2,1.8-7.5,2.2-11.4c0.2-1.6,0.4-3.2-0.1-4.8c-0.4-1.3,0-2.4,0.7-3.5c1.1-1.7,2.4-1.8,3.9-0.6
	c2.7,2.2,5.4,4.5,8.1,6.7c1.9,1.6,3.7,3.1,6.4,1.1c0.7-0.5,2,0,3-0.3c2-0.6,4-1.1,5.6-2.7c0.7-0.7,1.6-1.3,2.4-1.9
	c3.5-2.4,3.5-3,0.4-6.1c-4.9-5-11.2-8.1-17-11.9c-1.3-0.9-1.8-1.7-1.5-3.2c1.4-6.7,3.4-13.1,7.7-18.5c2.1-2.7,3.5-5.8,5.3-8.7
	c0.7-1.1,0.1-2.6-0.7-3.7c-0.4-0.6-0.8-1.2-0.1-1.8c0.5-0.4,1-1,1.6-0.7c0.6,0.4,0.8,1.1,0.8,1.8c0.1,1.2-0.2,2.5,0.3,3.7
	c0.6,1.4,1.3,2.5,3,2.4c1.4-0.1,2.3,0.8,2.7,1.9c0.4,1.1-0.9,1.4-1.5,1.8c-2.6,1.5-3.2,3.6-2.7,6.5c0.8,4.2,2.1,6.1,5.3,6.9
	c0.3,0.1,0.6,0.2,0.9,0.3c1.8-0.2,2.8-1.6,3.7-2.9c1.1-1.6,5.7-2,6.9-0.5c0.4,0.5,0.4,1.1,0.3,1.8c-0.8,5.2-2.9,9.9-4.7,14.8
	c-0.1,0.4-0.3,0.7-0.5,1.1c-2.5,6.4,0.1,11.1,6.8,12.3c1.1,0.2,2.3-0.2,3.4,0.2c0.6,0.2,1.5,0.3,1.6,1.1c0.1,0.7-0.2,1.8-1,2
	c-5.7,1.2-5.6,6-6.2,10.2c-0.5,3.2-1.4,6.6,0.4,9.8c0.6,1.1,1.3,1.9,2.5,2.2c1.8,0.5,3.4,1.3,4.1,3.4c0.6,1.6,2.8,2.1,4.4,1.3
	c0.5-0.2,0.9-0.6,1.4-0.9c2.7-1.6,2.7-1.6,4.4,1c0.2,0.4,0.6,0.8,0.9,1.1c1.8,1.8,1.8,2.4,0,4.2c-0.9,0.9-2,1.4-3.2,1.9
	c-1.3,0.6-2.6,1-3.8,1.7c-2,1.1-3.6,2.2-6.4,1.9c-3.4-0.4-6,2.6-8.3,5c-1.6,1.6-2.9,1.6-3.9-0.5c-0.7-1.4-1.3-2.8-1.5-4.4
	c-0.2-2.7-2-3.5-4.4-2.4c-1.1,0.5-2.1,1.3-3,2.2C565.1,545.1,565.1,545,567.1,547.5z M482.6,502.7c-0.9-3.2,0-6.5,2.2-9
	c2.6-2.9,3.4-6.4,3.7-10.1c0.2-3.7,1.1-7.1,4.3-9.4c0.2-0.2,0.4-0.5,0.6-0.7c0.8-0.7,0.2-2.4,2.1-2.3c2.1,0.2,4.2,0.5,5.4,2.2
	c1.3,1.8,2.6,2.4,4.7,1.7c1.5-0.5,2.6,0.2,3.1,1.7c0.4,1.2,0.8,2.4,1.3,3.5c1,2.3,2.9,3.6,5.3,4.1c2.1,0.4,3.6-0.8,4-2.9
	c0.3-1.4,0.5-3,2.4-2.9c1.7,0,2.5,1.2,2.8,2.8c0.2,1.1,0.5,2.3,0.9,3.4c0.8,2.4,2.5,3,4.8,1.8c1-0.5,2-1.1,3.1-1.7
	c0.8-0.5,1.6-0.7,2.3,0.1c0.7,0.7,1.3,1.5,0.9,2.5c-0.6,1.6-0.6,3,0.6,4.3c0.5,0.5,0.6,1.1,0,1.6c-2.1,2-1.7,4.3-1.2,6.9
	c0.8,3.9,2.2,7.8,0.7,11.9c-0.1,0.3-0.2,0.6-0.3,0.9c-1.4,4.2-1.5,4.2-4.3,1.1c-0.2-0.2-0.4-0.6-0.7-0.6c-4-1.3-3.3-4.5-3-8.9
	c1-3.1-1.4-6.1-4.1-9c-0.8-0.9-1.7-1.4-2.9-0.7c-0.9,0.6-2,1.1-1.4,2.5c0.3,0.8-0.2,1.1-0.6,1.6c-0.6,0.6-1.2,1.2-1.8,1.8
	c-2.7,2.5-3.9,5.2-2.2,9c2.7,6.3-2.3,11.9-6.2,14.4c-1.4,0.9-3.2,0.4-4.8,0.3c-3.4-0.2-5.8,0.8-7,4.1c-0.7,1.8-1.6,2.2-3.5,1.3
	c-2.3-1.1-5.6,0.4-7.4,3.1c-0.9,1.3-1.8,2.1-3.4,1.8c-1.6-0.2-2.8-0.9-3.2-2.6c-0.1-0.5-0.3-1-0.6-1.5c-3.1-5.3-2.3-10.3,1.1-15.2
	C483.1,511.8,484,507.5,482.6,502.7z M482.4,472c-1.9-1.8-4.4-2.9-5.8-5.3c-0.8-1.3-1.4-2.6-1.2-4.1c0.2-2.2-0.2-4.3-1.1-6.4
	c-1.2-2.9,0.7-6,3.9-5.9c2.6,0.1,4.3-0.7,5.5-3c0.8-1.4,1.8-2.3,3.6-2.5c2-0.3,3.2-2.1,4.3-3.7c1.2-1.6,2.4-2.8,4.4-1.4
	c0.8,0.5,1.5,0.2,2.1-0.3c0.8-0.8,1.7-1.6,2.5-2.4c0.9-1,1.2-2,0.3-3.1c-0.3-0.4-0.6-0.9-0.9-1.4c-0.7-1.2-1.7-2.6-0.6-4
	c1.5-1.9,4-2.3,5.8-1c1.7,1.2,3,1.1,4.5-0.5c1.2-1.3,2.6-2.4,4-3.6c1.4-1.2,2.7-1,3.6,0.7c0.7,1.3,1.5,2.5,2,3.9
	c1.3,3.8,3.9,5.9,7.9,6.3c0.8,0.1,1.6,0,2.2,0.6c-4.5,2.4-9.4,3.3-14.4,3.7c-2.1,0.2-3.2,1.5-3.9,3.2c-0.9,2.3-1.5,4.9-4.1,6.2
	c-0.6,0.3-0.9,1.3-1.1,2c-0.9,3.6-2.8,6.9-3.2,10.7c-0.1,1.2-0.8,2-2.1,2.5c-4,1.5-6.4,4.7-8.2,8.4c-0.3,0.7-0.8,1.3-1.4,1.9
	c-0.8,0.7-1.8,1.3-2.1,2.2c-1.1,3.1-3.2,2.7-5.8,2C485.6,475.4,484.2,473.8,482.4,472z M438,426.6c-1.5-2-1.4-3.6,0.2-5.3
	c0.9-1,1.7-2,2.5-3c0.9-1,1.8-1.8,3.4-1.6c1.9,0.2,3.9,0,5.9,0v-0.1c1.1,0,2.2,0.1,3.3,0c5-0.4,8.7,1.6,11.6,5.8
	c3.2,4.7,7.7,5.1,11.4,0.6c2.3-2.8,3.8-2.9,7.1-1c4,2.4,8,4.8,12.3,6.5c1,0.4,1.7,0.9,1.8,2.1c0.1,0.9,0.6,1.7,1,2.6
	s1.9,1.6,0.6,2.8c-1.1,0.9-1.8,2.4-3.9,1.4c-1.7-0.8-3.3,0.4-4.4,1.8c-1.5,1.9-2.8,4-5.7,4.4c-1.4,0.2-2.4,1.9-3.2,3.3
	c-0.7,1.2-1.5,1.7-3,1.7c-3-0.1-6.4,2.7-7.1,5.5c-0.2,0.9,0.3,1.7,0.6,2.4c1,2.2,1.3,4.5,1.2,7c0,3.3,2.3,5.5,4.6,7.5
	c1,0.9,2.1,1.6,3.1,2.5c0.6,0.6,1.9,1.1,1.2,2.5c-0.6,1.2-1.2,2.4-2.9,2.1c-1.1-0.2-2.1,0.3-2.9,1.1c-3.1,3-8.6,3.7-12,1.1
	c-4-2.9-8.7-3.2-13.2-4.1c-1.8-0.4-3.8,0.3-5,2c-1.3,1.8-2.5,1.1-3.6-0.1c-1.1-1.3-1.4-2.9-1.6-4.5c-0.1-0.6,0-1.2-0.2-1.9
	c-0.5-1.9-1.4-3.7-3.5-3.8c-1.9-0.1-3.3,1.2-4.2,2.8c-1.5,2.6-2.5,2.7-4.8,0.9c-1.4-1.2-3-2.1-4.6-3.2c-1.5-1-2-1.8,0.1-2.8
	c2.1-1.1,3.2-3,3.3-5.3c0.1-2.2-1.4-3.9-2.7-5.5c-1.2-1.6-1.2-2.5,0.3-4c5-5,9.1-10.9,13.2-16.6C440.4,431.1,440.4,429.7,438,426.6z
	 M426.7,406.5c-1.4-3.5-3.4-6.4-6.2-8.9c-4.4-3.9-7-4.7-11.4-2c-1.9,1.2-4,2.2-5.7,3.7c-1.9,1.7-4.3,2.5-6.7,3.2
	c-2.9,0.8-5.4,2-5.6,5.6c-0.1,1.8-1.7,3-1.2,5.1c0.9,3.9,3.9,5.3,7.2,6.2c1.1,0.3,1.5,0.6,1.5,1.8c0,1.1,0.2,2.2,0.3,3.2
	c0.7,4.7-0.6,7.1-5.2,9.5c-5.5,2.9-11.2,4.2-17.1,1.4c-1.6-0.8-3.1-0.6-4.6,0.5c-1.4,1-2.8,2.5-4.8,1c-1.3-1-3.2-4.1-2.3-6.4
	c0.5-1.5,1-2.9,1.5-4.4c1.2-3.2,2.3-6.4,3.5-9.6c0.9-2.4,2.7-3.2,5.1-2.1c1.2,0.6,2.5,1.2,3.7,0.2c1-0.9,0.5-2.1,0.2-3.3
	c-0.6-2.3,0.2-3.2,2.5-2.6c2.2,0.6,4-0.9,4.4-2.2c0.9-2.9,2.8-5.5,2.4-8.8c-0.3-3-2.1-4.6-4.3-5.9c-1.9-1.1-3.8-0.2-5.5,0.8
	c-1.9,1.1-3,2.8-3.9,4.9c-0.5,1.1-0.4,3.2-2.3,2.8c-1.7-0.3-2.7-3.7-1.6-5.4c1.1-1.8,2-3.6,2-5.9c-0.1-1.9-1.1-2.9-2.7-3.4
	c-1.8-0.5-2.8,0.6-3.4,2.1c-0.8,2-1.5,4-2.3,6c-0.8-2.9-0.2-5.5,1.8-7.7c1.2-1.4,2.2-2.9,1.7-4.8c-0.6-2.6-3-4.2-5.6-3.7
	c-2.3,0.5-4.3,3.1-4.1,5.5c0.2,1.9,0.9,3.6,1.8,5.2c0.7,1.2,0.5,1.9-0.8,2.6c-1.8,0.9-3.4,2.2-5.7,2.6c2.4-6.3,2.1-13,3.3-19.4
	c0.8-4,0.8-8,1.3-12c0.5-3.5,1.8-6.5,5.7-7.7c1.8-0.5,3.6-1.5,4.9-3c0.7-0.8,0.9-1.8,0.4-2.6c-3.3-5.2-0.8-9.5,2.3-13.3
	c3-3.7,6.8-6.9,10.2-10.3c1.4-1.3,3.2-1.7,5-1.3c7.9,1.8,15.7,1.5,23.5-0.6c1.1-0.3,1.5-0.8,1.6-1.6c0.7-4.3,1.2-8.7,0.9-13
	c-0.1-2.3-1.9-4.2-3.4-6c-3.4-3.8-3.4-3.8,1.5-5.3c1.7-0.5,3.3-1.3,5.2-1.3c2,0,3.7,0.2,5.2,1.5c1.4,1.1,3,1.8,4.9,2.1
	c2.9,0.4,4.7,2.1,6.1,4.5c1.4,2.5,3.1,4.8,6.6,3.9c1.2-0.3,1.1,0.7,1.2,1.5c0.3,3.1,2.1,4.2,5,3c3.3-1.3,3.3-1.3,5.3,1.5
	c1.1,1.4,2.2,2.8,3.3,4.3c2,2.8,4.8,1.5,7.3,1.6c0.3,0,0.6-0.1,0.9-0.2c-0.1,0.8-0.5,1.4-1,1.8c-4.3,3.8-7.7,8.4-10.6,13.3
	c-3.6,6.2-9.3,10.2-14.9,14.2c-5.5,3.9-11.3,7.5-16.4,12c-1.9,1.7-3.1,3.4-2.7,6.1c0.2,1.4,0,2.8,0,4.2c0,0.7,0.2,1.6,0.8,1.5
	c2.2-0.5,1.5,1,1.5,2c-0.1,3,0.8,5.6,2.5,8.1c2.6,3.7,5.5,7.2,9.1,10c2.5,2,4,2,6.3-0.2c0.7-0.7,1.5-1.4,1.9-2.3
	c1-2.1,2.6-2.2,4.4-1.9c1.9,0.3,2.8,1.8,3.7,3.2c0.4,0.6,0.2,1.2-0.3,1.7c-0.6,0.5-1.2,1.3-1.1,2c0.7,3.6-1.4,7.1-0.7,10.6
	c0.7,3.4-1.8,5.3-2.9,7.8c-0.3,0.7-0.8,0.1-1.1-0.2c-0.8-0.8-1.6-1.5-2.4-2.3c-2.1-1.9-4.6-3-7.3-2.2
	C428.5,409.3,427.4,408.2,426.7,406.5z M426.6,410.6c-2.2,1.4-3.9,3.2-5.4,5.3c-1.3,1.9-3.6,2.6-6.3,2.6c-0.9,0.1-2-0.3-3.1-0.7
	c-3.5-1.2-6.9-1.5-10.4-0.2c-3.1,1.2-7.6-0.7-9.2-3.4c-0.6-1.1-1-2.3-0.2-3.5c0.2-0.3,0.4-0.7,0.4-1.1c0.1-4,3-5.2,6.2-6.1
	c2-0.6,3.7-1.5,5.3-2.8c1.9-1.6,4.1-2.7,6.3-3.9c3.7-2,6-1.2,9,1.6c3.4,3.1,5,7.2,7.7,10.7C427.6,410,427.2,410.2,426.6,410.6z
	 M363.8,386c-0.4,0.7-0.8,1.5-1.4,2.7c-1-2.4-2.4-4.2-2.3-6.6c0-2.1,2.3-3.8,4.1-3.2c2.1,0.7,2.7,3,1.3,4.9
	C365,384.6,364.3,385.3,363.8,386z M351.8,391.2c-0.1-2.6-1.3-3.4-3.7-2.2c-1.1,0.6-1.6,0.4-2.1-0.8c-1.4-4.1-2.1-4.7-6.6-4.7
	c-3,0-6.1,0.3-8.9,1.5c-0.6,0.2-1.2,0.5-1.6,0.9c-1.7,2-3.4,1.3-5.2,0.1c1.2-1.5,2.3-2.9,3.5-4.2c3.5-4.1,2.8-7.7-2.1-10.1
	c-3.8-1.8-7.7-3.4-11-6.1c-5.2-4.3-8.6-9.7-10.6-16.1c-1.6-5-2.1-10.3-3.5-15.4c-1.2-4.5-3.5-8.5-6.6-12c-1.9-2.1-5.2-2.1-7.4-0.3
	c-2.6,2.2-3.1,2.1-4.3-1.1c-0.8-2-0.5-4-0.6-6c-0.2-3.4-2.2-5.8-4.5-7.9c-3.8-3.6-7-7.5-8.9-12.5c-1.2-3.3-1.6-6.6,0-9.9
	c1.2-2.5,0.3-5-0.4-7.5c-0.8-3.1-0.9-3.1,2.4-3.2c3.5-0.1,7,0.9,10.6-0.3c3.9-1.3,5.7-4.1,4.9-8.2c-0.4-2.6-0.5-4.7,1.9-6.6
	c1.7-1.3,2.3-3.6,1.8-5.9c-0.7-3.9-0.6-4,3-5.6c1.2-0.5,2.5-1,3.3-2.1c0.6-0.8,1.1-1.6,0.6-2.8s-1.6-2.3-0.7-3.7
	c1.2-1.6,3-2.5,4.9-3c2.6-0.7,6.1,0.9,7.4,3.3c0.7,1.4,1.6,1.9,3.1,1.8c2.8-0.3,5,0.3,5.8,3.5c0.6,2.5,3,2.8,5.1,2.9
	c3,0.2,6.2,1.4,9.1-0.4c0.1-0.1,0.4-0.1,0.5,0c2.4,2.2,5.4,1,8.1,1.3c1.4,0.2,2.1,1.3,2.9,2.2c3.6,3.6,6.4,3.1,8.6-1.5
	c0.9-2,2-3.8,3.2-5.7c0.7-1.2,1.3-2.4,1.6-3.8c0.6-2.7,2.4-3.5,5.1-3.6c3.4-0.1,5.6,1.5,7.8,3.7c1.5,1.6,3.4,2.6,5.8,2.7
	c1.4,0,2.6,0.7,3.1,2.1c0.5,1.6,1.6,2.7,2.9,3.6c2.2,1.6,3.5,3.9,4.9,6.2c0.9,1.6,0.9,3.4,0.2,5.2c-0.9,2.1-1.8,4.3-2.2,6.6
	c-0.4,2.1-0.2,4.2,0.5,6.2c0.8,2.2,0.2,3.8-1.4,5.4c-2.9,2.9-4.9,6.2-4.9,10.5c0,3.9,2.3,6.6,4.7,9.2c1.2,1.4,2.5,2.5,3.2,4.4
	c1.8,4.6,6,5.5,10.2,6.5c5,1.2,6.8-2.1,8.6-5.6c1.3-2.6,1.3-2.3,3.4-0.4c4.4,3.9,4,8.9,3.5,13.9c-0.1,0.6-0.2,1.2-0.3,1.8
	c-0.2,3.6-0.2,3.7-3.8,4.5c-5.6,1.2-11.2,1.4-16.8,0.1c-1.9-0.4-3.9-0.9-6-0.5c-3.1,0.6-4.6,3.1-6.7,4.8c-2.5,2.2-4.8,4.7-6.9,7.2
	c-2.9,3.7-5,7.8-3.9,12.8c0.3,1.2,2,2,1,3.5c-0.8,1.1-2,1.5-3.2,1.9c-6.2,1.9-7.7,6.7-8.2,12.4c-0.7,8-1.8,16-2.8,24
	c-0.2,1.4-0.6,2.7-1.8,4.3C351.8,392,351.8,391.6,351.8,391.2z M471.7,343c0.4,0.3,0.8,0.9,0.8,1.4c-0.1,3.9,1.9,7.5,1.6,11.5
	c-0.3,3.2-0.2,6.4,0.3,9.5c0.2,0.9,0.1,1.8,1.2,2.1c1.1,0.3,1.9-0.3,2.4-1.1c1.1-1.8,2.1-2.6,4.2-1.2c1.3,0.9,2.5-0.8,3.8-1.3
	c0.6,1.2-0.3,2.2-0.3,3.2c0,0.8-0.5,1.7,0.4,2.3c0.9,0.7,1.8,0.1,2.5-0.4c0.3-0.2,0.6-0.5,0.9-0.7c0.1,0.1,0.2,0.2,0.2,0.3
	c-0.3,0.6-0.6,1.2-0.8,1.9c-0.5,1.6,0.7,2.8,2.3,2.4c0.6-0.2,1.1-0.5,1.7-0.7s1.3,0,1.6,0.6c0.4,0.7-0.1,1.2-0.7,1.5
	c-0.2,0.1-0.4,0.2-0.6,0.4c-1.2,1.3-3.4,2.2-2.9,4.2c0.6,2.2,2.4,3.6,4.6,4.6c3.4,1.5,7,1,10.5,1.7c3.6,0.7,6.6,1.9,7.9,5.9
	s3.1,4.8,7.2,4.9c5,0.2,10-0.4,14.9-0.5c3.4,0,6.1,1.8,7,4.5c0.3,0.7,0.5,1.2-0.2,1.9c-1.3,1.2-1.6,2.9-1.8,4.5
	c-0.4,3.2-1.7,6.2-1.5,9.4c0.1,0.8-0.6,1-1,1.5c-2.1,2.3-5,3.7-6.9,6.2s-4,5-2,8.4c0.4,0.7,0,1.2-0.9,1.1c-3.4-0.3-6.2-1.5-7.4-5
	c-0.6-1.7-1.5-3.2-2.5-4.7c-1.6-2.2-2.8-2.6-5-0.9c-1.8,1.3-3.3,2.9-5,4.2c-0.3,0.2-0.5,0.9-1.2,0.3c-3.1-2.4-4.9-2.5-8.1-0.3
	c-1.1,0.8-1.9,0.7-2.9,0.2c-4.2-2-8.4-4.2-12.4-6.5c-3.6-2.1-5.6-1.8-8.5,1.3c-0.2,0.2-0.3,0.3-0.5,0.5c-3.2,3.7-5.9,3.4-8.5-0.6
	c-3.5-5.3-8.1-6.9-13.9-6.8c-3.2,0.1-6.4-0.3-9.7,0.8c0.3-1.7,0.9-3,1.8-3.8c2-1.8,2.1-3.9,1.6-6.2c-0.3-1.4-0.4-2.5,0.8-3.6
	c1.3-1.1,0.5-2.5,0.2-3.7c-0.5-1.7-0.5-3,0.9-4.2c0.9-0.8,1-1.9,0.7-3c-1.1-3.3-4.8-5.8-8.2-5.2c-1.4,0.2-2.2,1.5-3,2.5
	c-4,4.9-4.1,5-8.7,0.6c-3.4-3.2-7.1-6.4-8.4-11.2c-0.4-1.2-0.3-2.5-0.3-3.7c0-1.5,0.3-3.1-1.8-3.4c-0.2,0-0.3-0.3-0.4-0.5
	c-0.7-1.5,0.3-6.3,1.5-7.4c5.2-4.8,11-8.7,16.8-12.6c7.2-4.8,13.9-9.9,17.9-18c2-4.2,5.5-7.3,8.5-10.8c0.4-0.5,0.8-1.3,1.6-0.4
	c2,2.3,4.2,4.4,5.5,7.2c1.1,2.3,1.2,4.8,0.4,7.2C469.3,338.2,469.4,340.9,471.7,343z M542.4,431.5c0.1,2.1,0.4,3.5,3.1,4.5
	c3.3,1.1,5.1,4.5,5.7,8.2c0.6,3.3-1.1,5.5-3.4,7.4c-1.9,1.5-3.9,2.9-5.8,4.3c-1.1,0.8-1.8,2.1-1.4,3.2c0.4,1.2,1.1,2.7,2.7,2.9
	c3.7,0.5,7.3,0,10.6-1.8c2-1.2,2.9-3.4,3.4-5.7c0.3-1.3,0.3-3.1,2.4-2.7c1.9,0.4,2.8,2.3,2.1,4.2c-1.2,3.2-3.3,5.8-5.2,8.5
	c-4.5,6.5-7.6,13.5-7.7,21.6c0,2.9-2.1,4.4-3.5,6.3c-0.5,0.7-1.8,0.5-2.6,0.1c-1.1-0.6-2.2-1-3.5-1.3c-1.9-0.4-1.8-1.9-1.6-3.8
	c0.1-0.8,0-1.9-0.7-3c-0.9-1.5-2.1-2.3-3.9-1.2c-0.8,0.5-1.8,0.6-2.5,1.1c-3,2.1-3.3,0.6-4.1-1.8c-0.4-1.4-0.5-2.9-1.5-4.1
	c-1.1-1.4-2.6-2-4.3-1.7c-1.5,0.3-2.5,1.2-2.8,2.8c-0.2,1.2-0.2,2.5-1.9,2.7c-2,0.2-3.5-0.5-4.5-2.2c-0.5-0.9-0.8-2-1.1-3
	c-1-3.4-2.2-4.1-5.6-3.4c-1.1,0.2-1.9,0.1-2.3-0.9c-1.1-2.1-3.2-2.8-5.2-3.1c-2.1-0.3-1.6-0.9-0.7-2.1c1.4-1.8,3.3-2.9,5.4-3.6
	c1.3-0.5,2.2-1.2,2.4-2.6c0.4-3.3,2-6.2,2.8-9.3c0.4-1.8,1.1-3.3,2.9-4.2c1.6-0.8,1.9-2.6,2.4-4.1c0.7-2.2,1.8-3.6,4.5-3.8
	c4.5-0.3,8.8-1.7,12.9-3.7c1.3-0.6,1.7-1.7,1.2-3.1c-1.2-3.4-1.2-6.7,1.5-9.5c2.1-2.1,4.6-3.7,6.7-5.9c1-1,1.5,0.2,1.8,0.9
	c0.8,2.1,1.4,4.4,1.3,6.6C542.1,427.7,542.3,429.6,542.4,431.5z M550.5,488.7c0.3-0.9,0.9-0.6,1.4-0.3c5.7,3.5,11.7,6.6,16.4,11.5
	c1.3,1.3,2.1,2.2-0.3,3.3c-2.3,1-3.9,3.3-6.5,4c-2,0.5-4.2-0.1-5.9,1.6c-0.5,0.5-1.3-0.2-1.9-0.6c-1.9-1.4-3.8-2.8-5.4-4.5
	c-1-1.1-2.1-2.1-3.3-3c-3.6-2.5-4.1-2.5-7.1,0.8c-0.7-2.7-1.6-5.1,0.9-7.3c0.9-0.8,1.3-0.9,2.3-0.4c3.2,1.8,4.9,1.4,7-1.7
	C548.9,491,550,490,550.5,488.7z M521.7,497.8c-0.1-0.6-0.3-1.1,0.4-1.3c0.7-0.2,0.9,0.4,1.3,0.7c3.8,2.8,3.7,6.8,3.3,10.9
	c0,0.3-0.2,0.6-0.2,0.9c-0.5,3.8-0.5,3.8-4.3,3.1c-2.3-0.4-2.3-0.4-4.5,0.4c-0.7-1.9-1.2-3.7-1.9-5.4c-0.4-1-0.3-1.8,0.5-2.5
	c1.4-1.3,2.7-2.8,4.1-4.1C521.4,499.6,522,498.9,521.7,497.8z M511.3,525.2c2.8-2.6,5.2-5.5,6-9.5c0.3-1.6,1.6-2.3,3.3-2.3
	c2.4-0.1,4.8,1.2,7.4,0.1c0.8-0.3,2.4,1.2,3.1,2.4c0.9,1.3,1.6,2.7,3.6,3c1.3,0.2,0.2,1.8,0.7,2.4c-0.2,2.2,0.2,4.1,1.9,5.5
	c0.6,0.5,0.4,1.1,0.3,1.7c-0.3,2.2,0.1,4.7-1,6.3c-1,1.5-3.6,1.8-5.4,2.7c-0.6,0.3-1.2,0.5-1.6,1c-1.8,2.4-3.2,1.2-4.7-0.4
	c-1.8-1.9-4.4-3-6-5.2c-0.8-1-2.2-0.5-3.3-0.6c-3.8-0.2-4.9-1.2-5.1-5.1C510.4,526.3,510.7,525.8,511.3,525.2z M498.4,208
	c2.5,2.7,4.4,5.3,3,9.3c-0.8,2.3,0.8,4.4,1.3,6.5c0.9,3.9,1.9,7.8,2.2,11.9c0,0.2,0,0.5,0.1,0.7c1.7,2.2,3.1,4.6,2.9,7.5
	c0,0.6,0.8,1.2,1.5,1.2c2.1,0,3.3,1,4.3,2.9c1.3,2.5,4,2.5,6.4,2.7c2.3,0.2,4.4,1,6.3,2.2c2.4,1.4,4.7,3,7.8,2.4
	c1.4-0.3,2.9,0.9,4.3,1.7c1.6,1,3.3,1.8,4.8,2.8c3.1,2.1,6.6,2.5,10.2,2.8c3.3,0.2,6.7-0.3,10,0.4c1,0.2,1.6,0.6,2.1,1.6
	c1.4,2.8,3.4,3.3,6.3,1.8c0.9-0.5,1.9-2,3-1c1,0.9,0.6,2.4,0.2,3.8c-0.8,3.2-2.2,6.1-4.4,8.6c-1,1.2-1.4,2.3-1.1,3.9
	c0.6,2.3-0.3,4.6-0.7,6.9c-0.1,0.7-0.4,1.2-1.2,1.2c-0.7,0-1-0.4-1.2-1c-0.8-1.8-2.5-2.5-4.1-3.2c-2.5-1.1-3.8-0.6-4.3,2
	c-1,4.3-0.8,8.6,0.2,13c1.8,7.9,2.7,15.8,1.6,23.8c-0.6,4.5-1,9.1-1.7,13.6c-0.7,4.6,0.2,9.2,0.6,13.7c0.6,6.5,1.6,13,3.7,19.2
	c0.4,1-0.3,1.4-0.9,1.8c-1.2,0.9-1.9,2.2-1.5,3.7c0.4,1.2-0.1,1.8-1,2.5c-3.4,2.4-3.9,6.1-1.4,9.5c0.4,0.6,1,1.1,0.8,1.8
	c-1.1,3.5,0.6,6.5,2,9.8c-2.8,0.4-5,1.3-6.7,3.3c-0.7,0.8-1.7,1.3-2.6,2c-0.6,0.5-1.4,0.8-1.9,0.3c-1.7-1.5-3.8-2.9-4.7-4.8
	c-2.9-6-6.5-8.2-13.1-7.1c-4.3,0.7-8.6,0.3-12.8,0.3c-1.3,0-2.8-0.5-3.1-1.7c-2.2-8.3-9-8.8-15.8-9.5c-2.7-0.3-5.4-0.7-7.3-3
	c-0.9-1-1.1-1.8,0-2.7c0.6-0.5,1.2-1,1.8-1.5c1.3-0.9,1.6-2.1,1.1-3.5c-0.6-1.4-1.9-1.4-3.1-1.2c-0.7,0.1-1.3,0.3-2.1,0.5
	c-0.4-1.6,2.1-3.1,0.1-4.5c-1.2-0.9-2.1,0.5-3.1,0.8c-0.4-0.9,0.1-1.6,0.2-2.3c0.2-1.3,0.3-2.6-1.2-3.1c-1.6-0.5-1.3-2-1.3-2.9
	c-0.1-1.1,1.4-1.1,2.2-1.2c0.9-0.2,1.9-0.2,2.8,0c3.5,0.4,3.9-1.2,4.6-3.7c0.3-1,0.4-2.1,0.3-3.2c-0.1-3,1.4-4.8,4-5.9
	c1.9-0.8,3.6-1.8,5.3-3c2.5-1.9,2.3-4.7-0.4-6.2c-2.1-1.2-2.7-3-2.1-5.1c1.1-4.6,0.4-8.6-3.2-12c-0.4-0.4-0.9-0.9-0.7-1.4
	c0.2-0.7,1-0.7,1.6-0.7c0.8,0,1.3-0.1,1.8-0.8c1.9-2.7,4.6-4,8-4c1.4,0,2.8-0.4,4.1-0.9c1.7-0.7,2.6-1.9,2.6-3.8
	c0-2.4,0-4.8,0.4-7.2c0.6-3.3,3.5-6,7.1-4.5c2.7,1.2,5.1,0.4,7-2.1c2.5-3.3,6-5.7,7.6-9.7c1.2-2.9,1.1-3.2-1.9-4.3
	c-1.7-0.6-1.1-2-0.9-3c0.5-2.4,0.4-4.8,0.4-7.2c0-3.9-3.1-6.9-7-7.6c-4.8-0.8-9.6-1.9-13.5-5.2c-0.4-0.3-0.7-0.6-1.2-0.8
	c-4.6-2-6.9-5.5-7.3-10.5c-0.3-3.1-2.9-5.6-5.9-6c-1.3-0.2-1.9-0.8-1.7-2c0.3-2-0.6-3.3-2-4.4c-0.6-0.5-1.4-1.1-0.3-1.8
	c1.9-1.4,1.6-3.2,1.1-5.1c-0.4-1.7-0.9-3.5-0.7-5.3c0.2-1.2-0.3-2.1-1-3c-1.3-1.7-2.6-3.3-3.9-4.9c-1.8-2.2-1.1-4.1,1.1-5.9
	C495.6,205.2,496.8,206.2,498.4,208z M493.8,204c0.4,0.5-0.2,0.7-0.4,0.9c-0.1,0.2-0.3,0.3-0.5,0.4c-4.1,2.7-4.6,5.5-1.6,9.4
	c0.3,0.4,0.6,0.7,0.9,1.1c1.4,2.2,3.9,3.8,3.1,7.1c-0.3,1,0.4,2.2,0.8,3.4c0.6,1.8,0.6,3.2-1.2,4.5c-1.5,1.1-0.5,2.4,0.5,3.3
	c1.2,1.1,2.2,2,1.8,4.1c-0.4,1.9,1.2,3,3.2,3.3c2.7,0.4,4.4,2.2,4.7,4.9c0.5,5,2.7,8.4,7.4,11c4.7,2.7,9.4,5,14.6,6.3
	c0.5,0.1,1.1,0.2,1.6,0.3c3.2,0.5,4.9,2.4,5,5.6c0.1,3-0.2,5.9-0.6,8.8c-0.2,1.7,0.2,2.9,2.3,3c1.4,0.1,1.5,0.8,0.9,2
	c-2,4.2-5.7,7-8.5,10.4c-1,1.2-2.9,0.7-4.2,0.4c-4-1-7.3,0.5-8.5,4.5c-0.8,2.4-1.1,4.8-1.1,7.3c0,3.1-0.8,4.1-3.8,4.2
	c-4,0.1-7.3,1.5-9.8,4.6c-0.5,0.7-1.2,0.6-1.9,0.6c-2.3,0.2-2.9,1.5-1.9,3.5c0.3,0.6,0.8,1.2,1.2,1.7c2.4,2.6,3.1,5.7,2.3,9.1
	c-0.8,3.6,0.1,5.7,3.1,7.7c1.7,1.1,1.8,2.6,0.1,3.7c-1.5,1-3.2,1.9-4.9,2.7c-3,1.6-5.1,3.8-4.7,7.6c0.1,0.6,0.1,1.3-0.1,1.9
	c-0.6,3.1-1,3.4-4.1,3.4c-1,0-2.1-0.1-3,0.1c-2.8,0.6-3.2,1.4-2.6,4.3c0.1,0.7,0.8,1.6-0.2,2.3c-0.9,0.6-1.4,0-2.1-0.4
	c-1.5-1-2.6,0.1-3.7,1c-0.6,0.5-0.7,1.4-1.8,1.8c-0.2-3-0.6-5.8-0.4-8.5c0.2-4.2-1-8.3-1.4-12.4c-0.1-1.3-0.6-2.4-1.6-3.3
	c-1.6-1.5-1.8-3.4-1.2-5.2c1.7-4.9,0.1-9-3-12.7c-0.9-1.1-1.9-2.2-2.9-3.4c-0.3-0.3-0.8-0.6-0.7-1.1c1-6.1-0.1-12.1-0.2-18.1
	c-0.1-3.7,2.5-6.2,6.2-6.3c3.8-0.1,7.6,0,11.4,0.9c1.2,0.3,2.9,1.2,3.6-1.2c0.7-2.3-0.6-3-2.3-3.5c-3.8-1.3-6.8-3.7-9.9-6
	c-3.2-2.4-5.4-5.5-6.9-9.2c-0.6-1.5-1.2-3-3.1-3.5c-1.3-0.4-1.5-1.5-1.4-2.7c0.2-1.8-0.2-3.4-1.3-4.8c-0.3-0.4-0.6-0.8-0.4-1.4
	c0.5-2.8-1.4-5.4-4.2-5.3c-1.8,0.1-2.3-0.6-2.7-2c-0.2-0.7-0.4-1.4-0.7-2c-0.6-1.1-0.6-1.7,0.8-2.2c2.7-1,3.9-3.5,5.2-5.8
	c1.2-2.2,2.6-3.4,5.2-2.9c1.9,0.4,3.4-0.6,4.6-1.8c2-1.9,3.4-4.4,5-6.7c0.6-0.9,0.5-1.8-0.4-2.5c-2.1-1.6-3.7-3.8-5.3-5.9
	c-1.2-1.6-2.4-0.7-3.6,0.1c0.4-5.9,1.1-6.8,6.7-8.6c4.5-1.5,5.3-2.6,5.3-7.3c0-1.5,1.2-2.2,2.1-2.9c2.1-1.6,4.1-3.4,7.2-1.6
	c1.6,0.9,3.5,0.4,5-1c0.6-0.5,1.1-1.1,1.8-1.5C493,203.3,493.5,203.6,493.8,204z M394.3,160.6c1.8-0.5,2.9-2.1,3.8-3.6
	c2.8-4.9,5.1-10,7.3-15.1c0.4-1,0.6-2.1,0.6-3.2c0.1-3.5,2.5-5,5.8-3.8c1.6,0.6,3.1,0.2,4.5-0.6c1.7-1.1,3.2-1.5,5.2-0.2
	c1.3,0.9,3,0.6,4.6,0.3c3.3-0.6,6.6-0.9,9.9-0.1c3.2,0.8,5.6,3.6,9,4c0.9,0.1,1.2,1.4,1.3,2.5c0.2,1.5,0.9,2.5,2.6,2.8
	c3.8,0.6,6.8,2.5,9.3,5.4c2.2,2.5,4.5,5,6.9,7.3c1.4,1.5,2.2,3.2,2.6,5.1c0.8,4.1,2.3,7.9,4.7,11.3c0.4,0.5,0.7,1,0.4,1.7
	c-0.9,1.9-0.1,3.4,1.3,4.8c1.6,1.6,2.9,3.5,3.6,5.6c1,3.2,3,5.4,6,6.8c1.5,0.7,3,1.4,4.2,2.6c1.3,1.2,2.2,2.6,2.1,4.5
	c0,0.5,0.2,1.1,0.2,1.6c-0.1,0.9,1.8,1.4,0.4,2.5c-1.3,1.1-2.6,2-4.4,1.3c-3.8-1.3-8.7,0.6-10.9,4c-0.6,1-0.4,2-0.4,2.9
	c0,2.7-0.9,4-3.5,4.8c-1.3,0.4-2.5,0.8-3.7,1.3c-3.6,1.6-5.4,4.4-4.9,8.4c0.1,1.2-1.1,2.8,0,3.5c1.1,0.7,2.1-0.9,3.1-1.5
	c0.8-0.5,1.1-0.1,1.5,0.4c1.3,1.8,2.8,3.3,4.5,4.7c0.9,0.8,1,1.4,0.2,2.3c-1.3,1.5-2.5,3.2-3.9,4.7c-1.1,1.2-2.4,2.1-4.3,1.7
	c-2.6-0.6-4.4,0.9-5.6,2.9c-1.8,2.9-3.2,6.1-7,7c-0.8,0.2-0.8,1-0.4,1.8c0.5,1.1,0.9,2.3,1.3,3.5c0.6,1.9,1.5,3.3,3.9,3.1
	c2.2-0.1,3,1.3,2.6,3.6c-0.1,0.4-0.1,0.9,0.1,1.1c1.7,1.8,2,4.1,2,6.5c0,1.2,0.7,2.4,1.9,2.7c1.7,0.5,2.3,1.7,2.8,3.1
	c1.9,5,5.5,8.6,9.8,11.5c2.7,1.8,5.2,3.6,8.4,4.5c0.5,0.1,1.1,0.2,0.9,1.1c-0.2,0.8-0.7,0.8-1.4,0.6c-2.8-0.8-5.6-1-8.5-1.3
	c-4.2-0.4-8.1-0.3-10.7,3.9c-1,1.7-0.6,3.5-0.8,5.7c0.5,3.9,0.5,8.4,0.6,12.8c0,1.7-0.5,2.4-2.1,2.5c-1.6,0.1-3.1,0.1-4.7,0.2
	c-0.9,0-1.4-0.6-1.8-1.2c-1.1-1.5-2.3-2.8-3.2-4.3c-2-3.8-3.6-3.2-6.8-2.2c-2.8,0.9-3.2,0.7-3.4-2.3c-0.1-1.6-0.8-2.4-2.3-2.2
	c-2.8,0.3-4.4-1.1-5.5-3.4c-1.5-2.9-3.7-4.7-6.9-5.3c-1.6-0.3-3.2-0.8-4.5-1.8c-3.1-2.3-6.5-2.3-10-1c-0.4,0.2-0.9,0.4-1.3,0.5
	c-4.6,0.8-7.3,3.5-9.1,7.6c-2.1,4.6-2.3,4.6-7.3,3.8c-4-0.7-7.5-2.2-8.6-6.7c-0.3-1-0.9-1.8-1.7-2.5c-2.1-1.9-3.6-4.3-4.9-6.8
	c-1.7-3.2-0.2-6.1,1.4-8.8c0.8-1.3,1.9-2.4,3.1-3.5c1.9-1.8,2.6-3.9,1.8-6.4c-1.2-3.5-0.8-6.8,0.5-10.2c2.4-6.1,0.8-9.6-4.4-14.9
	c-1.1-1.2-2.4-2.1-3.1-3.7c-0.4-1.1-1.2-2.2-2.4-2.3c-1.6-0.1-1.8-1.2-2-2.3c-1.4-8.9-3.3-17.7-4-26.7c-0.3-3.9-1.1-7.7-1.6-11.5
	c-0.1-0.9-0.4-1.8,0.4-2.7c6.7-7.6,11-16.7,16.6-25.1c2.1-3.2,4-6.5,6.1-9.7C392.4,161.8,393,161,394.3,160.6z M239,74.7
	c3.6,0,7.2,0,10.8,0c0.6,0,1.2,0,1.9,0c6.1-0.1,8-2.4,7.1-8.5c-0.1-0.8-0.3-1.7-0.4-2.5c-0.1-4.6,0.5-5.1,5-4.6c2,0.2,4-0.1,6,0
	c5.3,0.2,10.6,0.6,15.9,0.9c3.6,0.2,7.3-0.5,11,0c1.9,0.2,3.2,1,4.4,2.3c2.3,2.5,4.3,5.3,6.1,8.3c4.1,6.9,9.4,12.8,14.9,18.5
	c4.1,4.3,8.7,7.7,13.7,10.8c3,1.8,5.2,4.2,4.6,8.2c-0.2,1.4,0.4,2.9,1.5,3.8c3.5,3.3,4,7.7,4.6,12.1c0.8,5.5,2.6,10.9,5.4,15.8
	c1.4,2.6,3.9,3.5,6.7,3.6c2.3,0.1,4.1,1.1,5.7,2.8c3.1,3.2,6.8,5.3,11,6.8c1.9,0.7,3.6,1.7,4.8,3.6c1.8,3,5.1,2.8,8.1,3.3
	c1.2,0.2,2.5-0.4,3.7,0.7c-8.2,11.5-14.1,24.4-23.1,35.3c-1.7,2.1-1.5,4.4-1.1,6.6c1.4,9.2,2,18.5,3.9,27.7c0.7,3.1,1.7,6.3,1.7,9.7
	c-1.6-0.2-2.6-1.2-3.6-2.3c-2.6-2.7-5.6-4-9.4-3.8c-2.9,0.2-5.4,2.1-5.8,5c-0.1,0.7-0.3,1.3-0.6,2c-1.5,2.6-2.9,5.1-4.4,7.7
	c-1.4,2.4-3,2.8-4.6,0.9c-2.5-3.1-5.3-4.3-9.2-3.1c-0.4,0.1-1,0-1.3-0.3c-1.8-1.7-3.6-1-5.6-0.5c-3.2,0.9-6.2-0.3-9.3-0.9
	c-1.1-0.2-1.3-1.3-1.6-2.2c-0.7-2.4-2.4-3.6-4.9-3.5c-1.8,0.1-2.9-0.3-4.1-2c-4.1-5.4-12.1-3.3-15.1,1.1c-0.8,1.1,0,2.3,0.4,3.3
	c0.7,1.7,0,2.5-1.4,3.1c-1.1,0.5-2.3,1-3.4,1.5c-1.9,1-2.6,2.7-2.1,4.7c0.7,3.1,0.4,5.7-2.3,7.9c-1.4,1.2-1.5,3-1.1,4.8
	c0.2,1.3,0.8,2.5,0.6,3.8c-0.6,3.5-4.2,6-8.7,5.4c-2-0.3-4-0.5-6-0.4c-1.2,0.1-1.7-0.4-1.4-1.5c1.2-3.2-0.3-5.5-2.7-7.3
	c-1.8-1.4-2.4-2.8-1-4.8c0.7-1.1,0.2-2-0.7-2.6c-0.9-0.7-2-1.2-3.2-1.1c-3.5,0.2-5.8-2.2-5.6-6.9c0.1-2.9,0.8-5.8,0.2-8.8
	c-1.2-5.2-4.4-9-8.1-12.5c-0.7-0.7-1.8-0.4-2.7-0.4c-3-0.1-5.9-0.6-8.6-1.7c-2.5-1-3.4-2.8-3.2-5.5c0.2-4.2,0.4-8.4,0.1-12.6
	c-0.1-1.7-0.9-2.7-2.3-3.4c2.1-3,1.9-3.5-1.6-4.2c-1.2-0.2-1.8-0.9-2.4-1.9c-2.6-4.3-4.1-9-5.3-13.9c-0.1-0.4-0.2-0.8-0.2-1.1
	c-0.2-1.6-1.9-3.3-0.9-4.5c0.8-1,3-0.3,4.5-0.3c2.7-0.1,5.5-0.1,8.2,0.1c1.9,0.1,2.4-0.8,2.8-2.3c0.5-2.3,0.5-4.6,0.5-7
	c0-2,0.2-4,1.6-5.7c0.5-0.6,0.7-1.3,0.5-2.2c-1.4-6.5-0.4-13.1-0.8-19.6c0-0.8,0.3-1.3,1.1-1.5c1.6-0.4,2.1-1.6,2.4-3.1
	c1.3-6.9,1.1-13.7,1-20.7c-0.1-11.5-3-22.7-3.9-34.1c-0.1-1.8,0.4-3.7-0.1-5.6C237.2,74.3,238.4,74.7,239,74.7z M106.1,187.2
	c0.5,0.1,1,0.7,1.4,1.1c2.1,2.3,4.1,4.7,6.2,7c2.1,2.4,2.4,5.4,2.6,8.3c0.3,3.9,2,6.4,5.8,7.6c0.3,0.1,0.5,0.3,0.9,0.6
	c-2.5,2-1.4,4,0,5.9c1.1,1.4,1.4,2.5,0.3,4.3c-2.2,3.6-0.4,8.9,3.3,11c2.5,1.4,4.5,0.5,5.1-2.2c0.4-1.9,0.7-3.8,0.7-5.9
	c2.9,3.4,5.2,7.1,6.4,11.5c0.3,1-0.2,1.8-0.9,2.5c-2.2,2.3-2.4,4.8-0.9,7.5c1,1.8,1.3,3.3-0.2,5.1c-1,1.3-0.5,2.9,0.5,4.1
	c1.3,1.6,1.6,3.4,2,5.4c0.8,3.7,2,7.2,6.2,8.7c1.2,0.4,1.5,1.7,1.2,2.8c-1.5,6.4,1.6,11.5,4.9,16.4c0.7,1.1,1.4,2.3,1.9,3.5
	c1.6,3.9,1.9,4.8-1.2,7c-1.1,0.8-1.4,1.8-1.1,3.3c0.8,3.1,1.4,6.2,2,9.3c1.1,5.2,6.5,10.3,11.8,10.9c2.7,0.3,3.9-0.9,3.6-3.5
	c-0.1-0.5-0.7-1.1,0.1-1.4c0.7-0.3,1.2,0.3,1.5,0.8c1.4,1.8,2.4,3.9,3,6c1.1,3.9,3.1,6.8,6.9,8.5c2.9,1.3,3.1,2.1,2.3,5.1
	c-0.6,2.3,0.3,4,2.1,5.2c0.8,0.6,1.7,1,2.6,1.5c3.5,1.9,4.6,4.8,3.9,8.6c-0.3,1.4-0.6,2.6-2.3,3.1c-1.2,0.4-2.1,1.5-2.3,2.8
	c-0.3,1.5-1.3,2.1-2.6,2.2c-1.7,0.1-2.8,1-3.3,2.5s-1.6,2.7-2.9,3.6c-2.2,1.6-3.5,1.3-4.8-1.2c-1.9-3.9-2.6-8.1-3.2-12.3
	c-0.7-4.6-0.4-9.7-4.4-13.2c-2.2-1.9-5-3-7.4-4.9c-4.8-3.9-8.7-8.4-11.4-14c-1.1-2.3-2.9-4.1-5.3-5c-4.1-1.6-7.1-4.3-9.5-8
	c-1.2-1.8-2.7-3.4-4.7-4.5c-2-1.1-3.1-3-4.2-4.9c-1.3-2.2-2.8-4.6-4.9-5.5c-2.7-1.1-3.7-2.1-3.4-5.2c0.2-2.2-2-2.8-4.7-1.8
	c-1.2-3.4,0.8-5.6,3-7.6c1.2-1.1,1.9-2.1,1.6-3.8c-0.2-1.3,0-2.6,1.6-3.3c2.4-1.1,3-3.2,2.4-5.5c-0.4-1.7-0.1-3.1,0.8-4.4
	c1.5-2.1,1.2-4.1,0.5-6.4c-2.2-7.9-6.4-14-14.1-17.5c-5.9-2.7-9.6-8.1-13.5-13c-2.1-2.7-3.1-5.8-0.7-9c0.4-0.5,0.6-1.3,0.7-2
	c0.3-1.1,0.1-2.2-0.9-2.9s-2.1-0.7-3.1,0c-1.5,1-3.2,1.7-4.1,4c-0.4-2.2-0.8-3.6-2.6-4.2c-3-1-4.2-0.3-4.7,2.8
	c-0.1,0.5-0.2,1.1-0.4,1.6c-0.5,1.7-1.2,2.1-2.4,0.5c-1.4-1.9-3.1-3.6-3.4-6.2c-0.2-1.9-1.8-2.8-3.6-2.7c-2.6,0.1-4.1-1-4.7-3.5
	c-0.2-1.1-1-1.7-2-2.1c-1.4-0.6-2.8-1.3-4.3-1.8c-2.1-0.7-3.5-1.6-3.1-4.3c0.3-2.2-1.6-3.7-3-5c-3.8-3.6-6.8-8-10.5-11.6
	c-0.8-0.8-0.9-1.8-1.4-2.8c1.1-0.3,1.9,0.2,2.7,0.7c3.3,2.2,6.6,2.6,10.4,1.2c2.7-1,5.8-0.6,8.7-1.6c2-0.8,3.9-1.7,5.3-3.3
	c0.7-0.8,1.4-1.1,2.5-1c6.6,0.7,13.3,1.5,19.9,2.1c3.2,0.3,6.4,0.5,9.6,0.6c1.8,0,3.5,0.5,5.3,0.5c1.4,0,1.1,1.1,1.1,1.9
	c0.1,2.5,0.1,5,0.9,7.4C104.8,186,104.9,186.9,106.1,187.2z M56.1,31.8c0.7,1.6,1.4,3.3,2.3,4.8c1.1,2,1,3.8-0.7,5.5
	c-1.7,1.6-2.3,3.4-0.9,5.6c0.4,0.6,0.4,1.5,0.2,2.3c-1.1,5.8,0.6,11,2.7,16.3c0.4,1.1,0.5,1.9-0.5,2.6c-1.8,1.3-1.8,3.3-1.1,4.9
	c2,4.8,1.5,9.5,0.1,14.3c-0.1,0.3-0.3,0.6-0.3,0.9c0.6,7,0.5,14.2,6.8,19.3c3.6,2.9,7.4,5.8,10.1,9.7c0.9,1.2,1.7,2.4,2.5,3.7
	c1,1.6,1.7,3.2,3.8,3.8c1.3,0.4,1.7,1.9,2.1,3.2c0.9,3.2,1.2,6.5,1.2,9.9c0,3.6,1.5,4.6,4.7,3c0.2,1,0.4,2,0.6,2.9
	c0.4,2,1.6,3,3.7,2.5c1.4-0.3,1.9,0.4,1.9,1.6c0.1,1.8,0.1,3.6,0,5.4c-0.2,3.6,1.9,5.8,4.4,7.7c0.4,0.3,1.1,0.6,1.5,0.5
	c3.2-0.9,2.7,1.3,2.6,3c-0.1,2.6,0.1,5.3-0.3,7.9c-0.2,0.9-0.3,1.3-1.5,1.1c-2.5-0.6-5.1-0.8-7.6-0.7c-6.5,0.2-12.9-1.2-19.3-1.7
	c-2.5-0.2-5-0.3-7.4-0.4c-0.4-0.6,0.1-0.9,0.4-1.2c2.2-2.5,3.2-5.1,1.4-8.3c-0.7-1.2-0.3-2.4,0.5-3.5c2.3-3.3,2.2-5.5-0.3-8.7
	c-2.3-2.9-5.3-5-7.9-7.6c-2.6-2.7-5-5.4-4-9.6c0.4-1.7-0.9-3-2.1-3.9c-5.3-4.1-9.1-9.8-14.3-14.1c-2-1.7-4-3.3-6.4-4.2
	c-5.6-2-7.8-9.5-7.2-13.5c0.7-4.6,1.4-9.1-1.5-13.2c-0.6-0.8-0.4-2-0.4-3c0-2-0.4-3.9-2-5.2c-1.2-1-1.4-2.1-0.2-3.4
	c0.8-0.8,1.3-1.7,1.9-2.6c0.7-1.2,0.6-2.3-0.5-3.1c-1.3-0.9-1.5-1.8-1.2-3.4c0.8-3.4-1.5-5.4-4.8-4.4c-0.9,0.3-1.1-0.1-1.4-0.7
	c-0.8-1.2-0.7-2.6-0.4-3.9c0.7-2.9,0.6-5.9,0.3-8.8c-0.1-1.7-0.9-3-2.5-3.9C12,39.4,9.9,36.7,9,33.1c-0.3-1.4-0.2-2.2,1.3-2.6
	c1.9-0.5,2.5-1.8,2.3-3.7c-0.2-2.4-1-4.7-3-6.1c-1.6-1.2-2.4-2.5-2.5-4.4C6.9,12.2,5.8,8.5,3.8,5.1C3.5,4.6,3.5,3.9,3.2,2.9
	c4.5,1,8.7,1.4,13,1.9C22,5.6,28,5.4,33.9,5.4c8-0.1,15.9,0.2,23.9,0.6c2.4,0.1,4.8,0.5,7.2,0.4c1,0,1.6,0.5,2,1.4
	c0.4,0.8,0.2,1.5-0.4,2.1c-0.6,0.5-1.1,1.1-1,2c0.1,1-0.5,1.3-1.3,1.6c-3.5,0.9-4.6,3.8-5.2,6.8c-0.5,2.5-0.3,5.2-2.4,7.3
	C55.6,28.5,55.5,30.3,56.1,31.8z M210.4,242.7c-0.7-0.1-0.6-0.8-0.6-1.3c-0.5-4.4-2.3-7.5-6.8-9.1c-2.4-0.9-4.7-2.2-7.4-2.7
	c-2.6-0.5-3.6-2.1-3.1-4.7c0.6-3.7-1.5-6.2-3.4-8.9c-0.6-0.9-2-0.8-2.8-0.2c-1.8,1.2-3.2,0.4-4.7-0.6c-1.4-1-2.8-2-3.9-3.3
	c-0.7-0.8-1.3-1.7-0.8-2.9c0.4-1,0.3-2.1-0.5-2.9c-1.2-1.1-1.5-2.5-1.6-4c-0.1-2-0.9-3.6-2.3-5c-0.8-0.7-1.4-1.4,0.2-2.2
	c1.5-0.7,1.2-2.2,0.8-3.5c-1.3-3.9-4.5-5-8.1-5.7c-6.3-1.2-11.2-4.8-13.4-10.7c-1.7-4.5-4.2-7.8-8.4-10.1c-1.6-0.9-2.4-2.5-3-4.1
	c-1.7-4.9-3.8-9.7-6.6-14.1c-0.4-0.7-0.9-1.6-0.9-2.4c0.2-5.6-3.1-9.8-5.7-14.3c-0.9-1.5-1.9-2.9-2.8-4.3c-1.2-1.8-2.3-3.6-1.4-6
	c0.5-1.5-0.3-3-1.3-4.1c-3.3-3.6-3.8-8.1-3.8-12.7c0-0.7,0.3-1.6,0-2.1c-2.8-4.5-2.6-10.2-5.5-14.7c-0.8-1.2-0.8-3.3-3.2-3.2
	c-0.5,0-0.7-1.1-0.7-1.8c-0.2-4.3,0.3-8.5,2.5-12.4c2.2-3.8,0.6-7.7-3.6-9.1c-2.2-0.7-4.5-1.3-6.8-1.8c-2.8-0.6-4.1-2.5-4.3-5.1
	c-0.1-1.2-0.4-2.3-1-3.3c-1.4-2.5-2.3-2.7-4.9-1.8c-3.5,1.2-6.5,0.9-9.9-1.2C74,42.3,69.2,36.2,63.2,31.3c-1.4-1.2-3.7-1.8-4.5-3.2
	c-0.5-0.9,1.4-2.9,1.5-4.7c0.2-1.9,0.7-3.8,1.5-5.6c0.9-2.2,3-2.6,4.7-3.6c0.4-0.2,0.7,0.1,1.1,0.3C77.9,20.4,89,24.9,99.8,30.1
	c7,3.4,13.8,7.2,20.9,10.5c12.5,5.8,24.3,13.1,36.9,18.6c4.8,2.1,9.3,4.7,13.7,7.5c2.4,1.5,5.1,1.3,7.6,1.7
	c4.7,0.9,9.4,2.1,14.2,2.6c6.8,0.8,13.6,1.4,20.5,1.8c6.9,0.4,13.8,1.3,20.7,1.8c1,0.1,1.2,0.5,1.1,1.3c-0.8,10.8,2.8,21.1,3.5,31.7
	c0.6,9.1,1.4,18.4-0.6,27.5c-0.1,0.7,0.1,1.6-0.8,1.8c-3.4,0.8-2.9,3.7-2.8,5.9c0.3,4.2-0.1,8.4,0.1,12.6c0.1,2.9,0.6,5.6-0.7,8.6
	c-1.3,3-0.1,6.6-0.6,9.9c-0.2,1.3-0.4,1.8-2,1.6c-4.1-0.5-8.2,0-12.4,0.4c-1.8,0.1-1.9,1.5-1.6,2.8c1.4,5.5,2.3,11.1,5.1,16.2
	c0.3,0.6,0.7,1.2,0.9,1.9c0.9,2.7,2.5,4.3,6.2,3.9c-2.1,2.1-2.2,3.4-0.1,4.6c0.8,0.5,0.9,1.6,0.9,2.5c-0.1,4.1,0.5,8.2-0.4,12.3
	c-0.4,1.9,0.6,3.3,1.5,4.8c0.5,0.8,2,1,1.5,2.1c-0.8,1.8-0.4,4.2-2.5,5.5c-3.2,2-6.3,4.3-9.4,6.5c-1.5,1.1-3.4,1.8-4.6,3.2
	C214.8,244.6,212.6,243.1,210.4,242.7z M301.1,378.8c-2.3-0.9-3.9-2.4-5.2-4.7c-2.6-5-7.2-8.1-11.6-11.3c-1.4-1-2.4-2.1-2.7-3.9
	c-0.3-1.5-0.9-2.8-1.9-4c-3.5-4.5-6-9.4-7.6-14.9c-0.6-2-1.7-3.6-3.8-4.4c-2-0.8-3.2-2.1-2.4-4.6c0.5-1.5-0.1-2.9-1.1-4.1
	c-1.9-2.1-3.8-4.1-6.5-5.2c-1-0.4-2-0.8-2.8-1.9c1-0.2,1.9-0.2,2.7-0.4c2.2-0.8,2.6-2.4,0.8-3.8c-2.1-1.7-4.3-3.4-6.9-4.4
	c-3.2-1.3-5.6-3.3-5.1-7.2c0.1-1.1-0.2-2.2-0.5-3.2c-0.6-1.8-1.8-2.8-3.7-2.1c-1.1,0.4-1.3,0-1.8-0.8c-1.2-2.1-2.5-4.1-3.8-6.2
	c-0.7-1.1-1.1-2.2-1-3.5c0.2-2.5-1.2-4.2-3.4-4.9c-1.9-0.6-3-1.7-4-3.3c-3.4-5.4-7.9-9.5-14.6-10.2c-1.9-0.2-3.8-0.5-5.7-0.8
	c-4.2-0.6-5.9-3.2-4.5-7.2c1.1-3,2.2-6,3.4-8.9c0.5-1.3,1.2-2.3,2.9-2.1c2.2,0.3,3.2-1,3.6-2.8c0.3-1.4,1.1-2.3,2.2-3.1
	c5.2-3.7,10.4-7.4,15.6-11.1c1.5-1.1,2.6-2.4,2.9-4.3c0.2-1.7,1-2.7,3.1-2.1c2.4,0.7,4.9,1.5,7.6,1c0.8-0.2,1.3,0.5,1.8,1
	c4.4,4.7,7.8,9.7,6.3,16.7c-0.5,2.1-0.2,4.3,0.8,6.4c1.1,2.4,2.7,3.9,5.4,4c0.6,0,1.2,0.2,1.8,0.3c1.6,0.2,1.9,0.7,0.9,2.2
	c-1.3,1.9-0.9,4.1,1,5.4c3.6,2.5,3.7,5.7,2.4,9.3c-0.5,1.3,0.2,2.5,0.5,3.6c0.7,2.7,0.9,5.2-0.2,7.9c-1.2,2.9-0.9,6.1,0.2,9.1
	c1.9,5.3,5,9.6,9.1,13.4c2.7,2.5,4.7,5.2,4.3,9.3c-0.2,2.5,0.9,4.9,2.2,7c0.8,1.3,1.9,1.9,3.3,1.1c0.8-0.4,1.7-0.8,2.4-1.4
	c2.1-1.7,3.6-1.8,5.5,0.1c2.8,2.8,4.5,6.3,5.7,10c2.1,6.5,2.6,13.4,5.2,19.7c2.4,5.7,5.9,10.2,10.6,14c0.5,0.4,0.9,0.8,1.4,1.3
	c-2.4,1.7-4.3,3.6-4.2,6.8c0.1,2.7,0,5.4,0,8.4C308.2,381.6,304.6,380.3,301.1,378.8z M315.3,451.6c-0.9-1-2.2-1.4-3.5-1.7
	c-1.9-0.4-2.1-1.2-0.9-2.7c0.5-0.7,1.2-1.3,1.9-1.8c3.7-2.6,5.3-6.2,5.6-10.5c0.1-1.9,1-3.7,1-5.7c0-3-1.1-5.4-3.1-7.6
	c-3.2-3.4-6.1-7.1-7.3-11.8c-0.2-1-0.5-1.9-0.5-3c0.1-2.4-0.3-4.6-1.2-6.8c-0.9-2.2-1.4-4.6-1.6-7c-0.1-0.9-0.2-1.7,1-2
	c2-0.5,2.8-1.8,2.2-4.1c3,1.6,3.6,1.3,4.4-1.6c0.9-3.3-0.4-6.5-0.2-9.7c0.1-1.6,0.5-2.8,1.6-4c1.1-1.1,2.4-1.3,3.7-0.8
	c2.5,1,5,2.2,7.3,3.6c2.5,1.5,2.7,3.1,1.1,5.4c-1.2,1.6-2.5,3.2-3.7,4.8c-1.3,1.7-1.1,2.9,0.9,3.6c2.1,0.7,4.4,1.9,6.2-0.8
	c0.7-1,2.2-1.1,3.4-1.3c2.5-0.5,5.1-0.8,7.6-0.7c1.9,0.1,2.8,1.1,3.3,3c0.7,2.7,1.6,3.1,4.2,2c1.6-0.6,1.7,0.2,1.6,1.2
	c-0.3,2.4-0.5,4.8-1.1,7.1c-0.5,2-0.3,4-0.6,6c-0.2,1.4,0.1,3.2,1.4,4.2c4.2,3.2,4,7.7,3.1,12c-0.9,4.6-1.1,4.6,2.7,7.4
	c1.7,1.2,2.2,4.1,0.9,5.7c-0.8,1-1.7,0.5-2.4-0.2c-1.1-1.1-2.3-2.1-3.9-2.5c-2.2-0.7-3.7,0.4-3.9,2.6c-0.2,2,0.3,3.7,1.7,5.1
	c0.7,0.7,1.3,1.5,1.6,2.6c0.3,1.4,0.7,2.6-1.3,3.5c-2.1,0.9-2.5,3.3-1.4,5.9c0.6,1.6,1.1,3.2-0.8,4.3c-2.3,1.4-4.9,0.2-5.2-2.5
	c-0.1-1-0.1-2.1,0.1-3c0.8-3.1-0.3-5.5-2.8-7.4c-1-0.8-2-1.5-3.1-2.1c-3.4-2.1-7.4-1-9.1,2.7c-1,2.1-1.6,4.2-4.8,3.2
	c-1.1-0.4-2.1,0.8-2.9,1.6C317.3,449,316.4,450.3,315.3,451.6z M330.9,504.2c-0.2,0.5-0.7,0.2-1,0.1c-2.4-0.7-4.8-1.4-7.2-2.1
	c-0.5-0.2-0.9-0.5-1.1-1.1c-1.1-3.8-2-7.8-3.8-11.4c-1.4-2.8-2.9-5.5-4.7-8.1c-1.2-1.7-2.4-3.2-4.7-3.4c-1.1-0.1-1.8-0.7-1.4-2.2
	c0.9-2.9-0.8-5.2-2.5-7.5c-3-4-3-4,1.8-5.6c2.4-0.8,4.8-1.3,7.2-2c4-1.2,5-3.3,3.8-7.3c-0.7-2.2,2.3-6,4.6-5.8
	c3.1,0.3,4-0.2,5.3-2.9c2-4.4,4.4-5,8.4-2.2c2.7,1.9,4.6,4.1,4,7.8c-0.2,1.3-0.4,2.8,0.3,4.1c1.3,2.6,3.6,3.4,6.2,2.4
	c2.7-1.1,3.8-3.2,2.6-6c-1-2.5-0.6-4,1.9-5c0.9-0.3,1.2-1.1,1.2-2.1c0-2.2-0.6-4.1-2-5.9c-0.4-0.5-1-1.1-1.2-1.7
	c-0.3-1-0.7-2.3,0.2-3.1c0.8-0.7,1.8,0.2,2.5,0.7c0.8,0.5,1.6,1.3,2.4,1.9c1.9,1.4,3.7,0.4,4.6-1.8c1.6-3.9,0.4-6.3-3.1-8.1
	c-1.4-0.7-1.4-1.8-1-3.4c1.3-5.2,1.6-10.3-2.9-14.4c-2.5-2.3-1-5.2-0.9-7.9c0-0.6,0.3-1.2,0.3-1.8c0.1-1.5,0.6-2.5,2.3-3
	c3.2-1,6.4-2.3,9.3-4.9c0.1,1.1,0.1,1.9,0.1,2.7c0.1,1.3-0.1,3,1.6,3.2c1.5,0.2,1.8-1.4,2.2-2.6c0.6-1.7,1.2-3.4,1.8-5
	c0.3-0.8,0.4-2,1.8-1.6c1.3,0.3,1,1.4,1.1,2.3c0.1,1.5-0.6,2.7-1.3,3.9c-1.6,2.8-1.2,5.4,1.2,7.5c1.6,1.5,3.1,1.3,4.2-0.5
	c0.4-0.7,0.8-1.5,1.1-2.3c0.2-0.3,0.2-0.7,0.4-1.1c1.1-2.5,4.6-4.8,6.5-4.1c2.9,1,4.6,4.5,3.6,7.7c-0.5,1.6-1.2,3.2-2.1,4.6
	c-0.6,1-1.6,2-3.1,1.4c-1.2-0.5-2.4-0.5-3.2,0.6c-0.9,1.2-1.6,2.5-0.8,4.1c0.2,0.5,0.9,1.2,0.3,1.7c-0.6,0.6-1.3-0.1-1.9-0.3
	c-3.4-1.4-6.1-0.2-7.3,3.2c-1.6,4.6-3.6,9.1-4.9,13.8c-0.7,2.6-0.1,4.9,1.3,7.1c1.7,2.6,4.3,3,7,0.9c1.7-1.3,3.1-1.5,5.1-0.7
	c4.9,2.1,9.7,1.5,14.4-0.8c2.2-1.1,4.4-2.2,6.5-3.6c2.5-1.7,3.2-4.1,2.8-6.9c-0.1-0.6-0.3-1.2-0.3-1.8c-0.4-3.9,0.7-5.1,4.9-5.4
	c3-0.2,5.6,1.1,8.4,1.6c3.9,0.7,7.8-0.7,9.9-4.1c1.5-2.3,3.7-3.8,6.1-4.9c3-1.5,5.6-0.2,7.9,1.8c3.2,2.8,3.1,2.8,0.4,5.8
	c-0.5,0.6-1,1.2-1.5,1.8c-2.4,3-2.4,4.1-0.2,7.3c1.9,2.8,2,3.6,0,6.4c-4,5.8-8.3,11.5-13.4,16.5c-1.5,1.4-1.7,2.5-0.3,4.1
	c1.1,1.3,2,2.8,2.7,4.3c0.9,1.9,0,3.5-1.4,4.8c-1.5,1.4-3.2,2.4-5.5,2c-1.1-0.2-2.8-0.4-3.3,0.5c-1.3,2.1-3.1,1.5-4.9,1.8
	c-1.4,0.2-2.2,1.4-2.9,2.5c-1,1.6-2,2.6-4.1,1.2c-2.2-1.5-4.3-0.5-5,2.2c-0.5,1.8-1.1,2.2-3.1,1.8c-2.7-0.5-5.6-0.3-8.4-0.1
	c-2.1,0.1-4.4,2.5-4.5,4.2c-0.1,2.3,2,5,4.6,5.5c2.6,0.5,5.2,0.9,7.7,1.9c0.9,0.3,1.7,0.7,2.6,1.1c1.8,0.8,2.1,2.1,0.6,3.4
	c-4,3.4-1.5,7.9,2.8,9.6c0.6,0.2,1.4,0.4,2.1,0.4c3.1,0.3,3.2,0.6,1.5,3.2c-1.6,2.6-3.6,4.2-6.9,3.4c-1.6-0.4-3.1,0.2-4.2,1.5
	c-1.8,2.1-3.6,4.3-5.5,6.4c-2.2,2.5-3.6,2.5-5.8,0.2c-1.3-1.4-2.9-1.8-4.7-1.3c-1.3,0.3-2.7,0.7-4.2,1.1c0-2.9,0-5.7,0-8.5
	c0-2.1-0.7-4-1.8-5.7c-1.6-2.4-2.4-2.6-5-1.3c-1,0.5-1.8,0.2-2.6-0.2c-2.3-1.2-4.3-1.6-6.7,0.2c-3,2.3-6.7,2.1-10.3,2.4
	c-4.3,0.4-8.5-0.7-12.8-0.1C332.7,503.3,331.4,502.6,330.9,504.2z M369.5,530.1c-0.9,0-1.1-0.6-1.3-1.1c-1.9-4.2-4.9-7.5-9.1-9.7
	c-2.5-1.4-5.1-2.8-7.4-4.5c-4-2.9-8.4-4.5-13.2-5.6c-3.9-0.9-4.7-1.6-5.6-4.4c3.8-0.8,7.7-0.2,11.5-0.2c5,0,9.9-0.1,14.4-3
	c1.2-0.7,2.3,0.2,3.3,0.6c1.8,0.8,3.5,1.4,5.2-0.1c0.7-0.6,1.3-0.3,1.8,0.2c1.3,1.2,2.1,2.9,2,4.6c0,2.1,0.5,4.1-0.1,6.2
	c-0.4,1.5-0.5,3.2,0.9,4.6c0.3,0.3,0.4,0.8,0.2,1.3C370.4,522.6,370.2,526.4,369.5,530.1z M416.9,550.1c-0.1,2.5-1.3,2.9-3.3,2.8
	c-1.5,0-2.9-0.6-4.1-1.5c-2.4-1.7-4.9-2.1-7.8-1.5c-2.1,0.5-3.9,0.1-5.6-1.5c-2.9-2.6-6.4-4.1-10.3-4.5c-7-0.7-11.3-4.5-13.9-11.1
	c-1.8-4.7,0.8-8.3,1.4-12.5c0.4-2.6,2.3-3,4.3-3.3c1-0.2,2,0,2.7,0.9c2.3,2.7,5.3,2.9,7.8,0.3c1.5-1.6,2.9-3.2,4.3-4.9
	c1.6-1.9,3-3.5,6-2.8c3.4,0.7,8.5-4.3,8.4-7.9c0-2-1.4-2.7-3.1-2.7c-2.1,0-3.8-0.7-5.2-2.3c-1.2-1.4-1.4-2.6-0.1-4.1
	c2.9-3.4,2.5-5.5-1.7-7.2c-2.6-1.1-5.4-1.8-8.3-2.3c-1.1-0.2-2.2-0.5-3-1.1c-0.9-0.7-1.9-1.5-1.5-2.9c0.4-1.4,1.3-2.5,3-2.5
	c1.2,0,2.5,0,4,0c1.4,0.1,3.1-0.1,4.8,0.4c2.3,0.7,3.4-1,3.8-2.8c0.5-2.1,1.3-2.6,3.2-1.5c2.1,1.2,3.9,0.7,5.4-1.5
	c1.2-1.8,2.4-3.2,4.9-2.2c0.7,0.3,1.5,0,2-0.8c1.2-2.1,4.4-2.6,6.1-0.9c2.2,2.3,5,3.8,7.4,5.7c1.6,1.3,4.7,0.5,5.8-1.3
	c0.2-0.3,0.2-0.6,0.4-0.8c0.6-1.1,1.4-2.4,2.8-2s1.5,1.9,1.6,3.1c0.1,1.7,0.4,3.4,1.2,4.9c1.6,3.1,5.2,4.6,7.6,1.2
	c1-1.5,2.7-1.5,4.3-1.1c4.3,1,8.8,1.6,12.7,4.3c3.2,2.3,10.7,0.9,13-2c0.9-1.2,7.3-1.4,8.5-0.6c0.7,0.5,0.6,1.1,0.5,1.7
	c-0.6,3.8-0.4,7.7-3.2,11c-3,3.5-3.9,7.8-2.3,12.3c1.3,3.7-0.4,6.7-2.1,9.6c-1.4,2.5-3.1,4.9-4,7.7c-0.2,0.6-0.4,0.8-1,1
	c-4.8,1.3-4.9,5.4-3.7,9.4c0.1,0.4,0.4,0.7,0.5,1c1,2.4,0.2,3.7-2.3,3.5c-2.7-0.2-4.9-1.8-7.1-3.2c-2.6-1.6-5.3-2.6-8.4-1.4
	c-1.5,0.6-2.7,0.1-3.7-0.7c-2.1-1.7-4-1.4-6.1,0.1c-3.3,2.5-3.4,2.4-7,0c-0.7-0.5-1.6-0.8-2.4-0.8c-2.1,0-4.2-0.4-6.3-0.6
	c-3.7-0.3-5.9,2.4-4.9,6c0.4,1.4,1.1,2.8,1.7,4.1c0.8,1.6,0.2,2.4-1.4,2.6C418.9,543.6,417,545.3,416.9,550.1z M549.3,607
	c-0.7,0.8,0.1,2.6-0.9,2.5c-1.9-0.1-4.3,0-5.6-1.8c-2.8-4-6.8-4.9-11.2-5.2c-2.7-0.2-5.1-1-7.4-2.5c-3.5-2.3-7.6-2.8-11.6-3.1
	c-4.1-0.2-8.1-0.7-12-1.6c-2.5-0.5-4.8-1.7-6.7-3.6c-2.5-2.6-6-3.1-9.3-3.8c-1.9-0.4-3.7-0.9-5.3-2.2c-3.7-3.1-8.2-4-12.7-5.1
	c-2.3-0.6-4.5-1.1-6.8-1.6c-2.5-0.6-4.4-1.5-5.9-4c-1.8-3.1-5.1-4.7-8.1-6.5c-3.3-2-6.6-3.8-9.8-5.8c-2.6-1.6-4.8-3.9-6.1-6.6
	c-2.4-5.1-6.5-5.7-11.7-4.6c0.5-1.7,0.4-3.3,1.2-4.7c0.9-1.4,2-2.3,3.8-2.3c3,0,4.2-2,3-4.8c-0.6-1.5-1.4-2.9-1.5-4.6
	c-0.1-2.1,1.1-3.2,3.1-2.9c1.9,0.3,3.8,0.8,5.8,0.6c1-0.1,1.8,0.5,2.5,1.1c3.2,2.4,4.9,2.5,7.9,0c1.7-1.5,3.2-1.9,5.1-0.4
	c1.4,1.1,3.1,1.1,4.7,0.6c2.7-0.8,5-0.2,7.3,1.2c2.1,1.4,4.3,2.9,6.9,3.1c4.7,0.4,6.5-2.1,4.4-6.5c-1.7-3.6-0.7-6.4,2.7-7.4
	c0.8,3.5,2.1,6.8,3.6,10.1c0.4,1,0.6,2.6,1.9,2.3c2.3-0.4,5,1.2,6.8-1.5c2.6-3.8,2.7-3.8,7.4-2.7c1.6,0.4,3.1-0.1,3.6-1.8
	c1.1-3.8,3.7-4.6,7.2-4.3c3,0.3,3.1,0,3.3,3.2c0.2,2.1,1.6,3.9,4,3.8c5.5-0.3,8.2,4.1,11.9,6.8c0.7,0.5,0.6,0.9,0,1.5
	c-1.4,1.6-0.8,3.1,0.9,3.8c3.7,1.7,7.5,3.6,11.7,1.8c0.1,0,0.2-0.1,0.2-0.1c3.2,2.1,5.9-1.1,9-0.7c2.9,0.4,5.3,1.8,6.2,4.4
	c0.7,1.8,0.1,2.6-1.8,2.6c-0.6,0-1.2-0.3-1.8-0.3c-1.1,0.1-2.3,0.4-1.6,2c1.5,3.4,1,6.8-0.4,10.1c-0.9,2.3-0.5,4.3,1.1,6
	c0.5,0.5,1,1.1,1.1,1.7c0.5,5.1,3.9,8.3,7.5,11.2c1.5,1.2,2.2,2.8,3.4,4.1c0.1,0.2,0.3,0.5,0.3,0.6c-1.3,3.6,0.4,8.3-4.7,10.4
	c-2.4,1-4.5,2.8-5.8,5.2C550,605.6,549.8,606.4,549.3,607z M673,607.4c-1.2-0.3-3.3-0.3-3.1-2.4c0.1-1.2,0.1-3,2.2-2.9
	c2.2-0.1,2.2,1.6,2.4,3C674.6,606.2,674.3,607.7,673,607.4z M699.5,607.3c-0.6,0.8-1.1,0.9-1.9,0.7c-1.6-0.4-3.2-0.8-4.8-1.1
	c-1.2-0.2-2.6-0.5-3.4,0.8c-0.9,1.5,1,1.8,1.6,3.1c-2.3-0.4-4.4-0.8-7.1-1.2c0.9-0.4,1.2-0.6,1.6-0.8c1.7-0.6,2.4-1.7,1.7-3.4
	c-0.8-1.8-2.9-2.7-4.4-2c-0.8,0.4-1.5,0.9-2.3,1.2c-2,0.9-4.4,0.2-5-1.4c-1-2.5-2.5-3.2-4.7-2.4c-1.6,0.6-2.6,3-2.1,4.9
	c0.9,3.2,0.9,3.3-2.5,3.2c-4.6-0.1-8.6,1.1-11.4,5.1c-0.6,0.8-1.4,1.4-2.4,1.7c-10,2.8-19.3,7.1-27.9,12.8
	c-3.9,2.5-7.7,2.9-11.9,0.8c-2.3-1.1-4.6-1.8-7.2-1.5c-1.1,0.1-1.9-0.3-2.7-1.1c-5.1-4.8-11.1-6-17.8-4.6c-1.4,0.3-2.6,0.3-3.5-1.4
	c-0.8-1.5-2.5-2-4.1-1.4c-2.1,0.8-3.9,0.2-5.8-0.5c-5.4-2.1-10.8-3.9-16.2-5.9c-1.9-0.7-4.5-1-4.7-3.6c-0.2-2.7,1.6-4.6,3.5-6.3
	c1.5-1.3,3.3-2.3,4.9-3.5c2.3-1.8,3.9-3.9,2.7-7c-0.1-0.1-0.1-0.3-0.1-0.5c2.1-5.5-2.4-7.6-5.4-10.5c-2.3-2.2-4.7-4.5-5-8
	c-0.1-1-0.6-2-1.5-2.8c-1.4-1.3-1.6-2.9-0.9-4.7c1.2-3.1,2-6.2,0.7-9.5c-0.4-1-0.1-1.4,1.1-1.4c2.5,0.2,4.1-0.7,4.5-3.5
	c0.2-1.4,1.8-0.8,2.7-0.4c1.8,0.7,3.5,1.6,5.3,2.5c1.1,0.5,2.2,0.7,3.4,0.4c3.7-0.9,4.6-4.3,2.2-7.4c-0.5-0.6-1.9-1-0.9-2.2
	c1.2-1.4,2.3-2.9,4.3-2.8c1.2,0.1,1,1.3,1.1,2.3c0.3,2.7,1.3,5,3.7,6.7c1.4,1,2.7,0.9,3.6-0.5c1.3-1.9,3-3.1,4.8-4.4
	c1.5-1.1,3.1-2.6,5.1-0.6c0.6,0.6,1.5,0.3,2.1-0.3c2.1-1.9,4.6-3.1,7.2-4.2c4.1-1.8,6.2-5.5,6-10c0-0.2-0.1-0.5-0.1-0.7
	c-0.1-1,0.1-2.1,1-2.4c0.9-0.3,1.7,0.7,2.2,1.4c1.5,2.4,3.1,4.6,4.9,6.8c4.3,5.3,10.1,7.2,16.6,7.2c1.6,0,2.2,0.2,3.1,1.7
	c1.8,2.9,1.3,5.1-0.6,7.6c-1.1,1.4-1.2,3.4,0,4.8c1.6,2,2.5,4.4,3.8,6.7c1.7,3.1,4.7,3.4,7.6,1.6c4.5-2.7,8.3-6.2,12.1-9.8
	c0.4-0.4,0.8-0.9,1.4-0.5c0.6,0.4,0.3,1,0.3,1.5c0,2.6,0.1,5.1-0.4,7.7c-0.3,1.8,1,2.5,2.2,3.2c1.6,1,3.2,1.9,4.9,2.8
	c1.3,0.8,2.5,1.6,2.9,3.2c0.4,1.5,1.6,1.7,3,1.6c3.8-0.2,7.7-0.7,11.4-0.4c6.2,0.5,12.4,0.6,18.5,0.9c3,0.2,3.2,0.3,2.5,3.3
	c-0.4,1.5-0.6,3-1,4.5s-1.2,2.9-2.7,3.7c-2.4,1.2-3.1,3-2.9,5.5c0.3,3,0.2,6.1-0.6,9c-0.6,2.2,1.3,2.3,2.5,3
	C699.5,605.1,700.8,605.6,699.5,607.3z M800.4,574.7c2.1,0.9,3.9,2.4,6.3,0.8c0.6-0.5,1,0.1,1.4,0.5c3.1,3,6.4,5.8,9.7,8.4
	c0.4,0.3,1.1,0.7,0.9,1.3c-0.9,2.9,1.3,3.6,3.2,4.5c0.6,0.3,1.1,0.6,1.7,0.8c1.7,0.6,2.6,1.2,1.2,3.1c-1,1.4,0.4,2.8,0.8,4.1
	c0.3,1,0.6,1.7-1,1.8c-10.6,0.4-21,1.9-31.4,3.9c-3.3,0.7-6.8,0.9-10.2,1.3c-2.6,0.2-4,2-5.2,3.9c-3,4.4-4.8,9.4-7.6,13.9
	c-2.3,3.6-3.4,7.9-5.9,11.4c-3.1,4.3-6.9,7.5-11.8,9.7c-0.9,0.4-1.2,0.1-1.7-0.4c-2.4-2.3-5-4-8.6-3.3c-1.2,0.2-2.1-0.4-2.3-1.5
	c-0.6-3.8-3.3-6.1-5.8-8.5c-5.2-4.9-10.4-9.6-15.7-14.4c-1.3-1.2-2.8-2-4.4-2.6c-2.3-0.8-3.5,0-3.8,2.4c-0.5-0.2-1.3-0.3-1.3-0.8
	c0.3-3.6-2.8-3.8-4.9-5c-0.3-0.2-0.7-0.3-1.1-0.4c-1.8-0.4-2.6-1-1.2-2.9c1-1.3,0.9-2.7-0.9-3.3c-2-0.8-3.1-1.8-2.4-4.3
	c0.7-2.4,0.3-5.1,0.1-7.6c-0.1-0.9,0-1.8,0.9-2.3c4.9-2.6,5-7.5,5.6-12.1c0.4-2.7,1.8-4.8,4.4-5.5c1.1-0.3,2.2-0.6,3.2-1.3
	c2.5-1.8,1.6-4.4,1.2-6.7c-0.2-1.1-0.3-1.3,0.9-1.6c5.4-1.4,6.9-4.3,5.1-9.8c-0.5-1.4-1.1-2.8-0.8-4.2c0.5-2.8,2.3-4.1,5.4-4
	c3.1,0,4.9,1.3,5.3,4.1c0.3,1.6,0.2,3.3,0.2,4.9c-0.1,5.2-0.1,5.5,4.8,7.4c2.2,0.8,4.4,1.7,6.9,2.1c3.2,0.4,5.9-0.9,7.2-3.8
	c0.4-1,0.9-1.9,1.7-2.8c0.8-0.8,1.1-1.8,0.8-3c-0.5-2.2,0.2-3.9,2.4-4.9c1.2-0.5,2-1.4,2.5-2.8c1-2.9,3.9-2.4,6-2.5
	c3.4-0.1,6.9,0.7,9.6,3.1c2.2,1.9,5.4,2.6,6.9,5.4c0.3,0.6,0.7,1.2,0.9,1.9c0.7,3.8,1.4,4.5,5,4.9c3.4,0.4,3.5,0.5,3.9,3.9
	c0.1,0.5,0.1,1.1,0.5,1.5C792.7,567.1,795.1,572.4,800.4,574.7z M799.1,560.4c-5,0-6.2,0.3-9.1,2.1c-0.5-0.6-0.3-1.3-0.4-2
	c-0.3-2.4-1.7-3.6-4-3.8c-2.8-0.2-4.9-0.8-5-4.4c-0.1-1.8-1.6-3.5-3.3-4.6c-2-1.2-3.9-2.6-5.8-3.8c-4.5-3-9.4-3.1-14.4-1.8
	c-2.7,0.7-2.6,3.9-5.2,5c-2.6,1-2.9,3.8-2.1,6.4c0,0.1,0.1,0.2,0.1,0.2c-1.2,2.1-2.1,4.5-3.7,6.3c-1.3,1.4-3.4,1.7-5.4,0.9
	c-2.5-0.9-5.1-1.6-7.7-2.6c-1.7-0.7-2.1-2.2-1.7-3.9c0.5-2.1,0.3-4.1,0.1-6.2c-0.6-5.6-4.9-6.3-9.6-5.6c-2.8,0.4-5.6,3.8-4.2,8.5
	c0.2,0.6,0.4,1.2,0.6,1.7c2,5.7-1,7.5-5.7,7.8c-0.4,0-0.7-0.1-1-0.4c-5-4.8-10.1-9.5-14.6-14.8c-0.3-0.4-0.8-0.9-0.8-1.4
	c0.2-2.1-1-3.3-2.3-4.7c1.8-0.8,3.5-1.5,5.2-2.2c0.4-0.2,0.9-0.5,1.3-0.1c1.6,1.8,3.1,0.6,4.6-0.1c2.8-1.3,5.4-2.8,7.5-5
	c0.6-0.6,1.4-1.5,0.8-2.2c-1.4-1.9,0.2-1.9,1.2-2.3c3-1.3,6.2-1.2,9.4-1.7c3.7-0.6,7.4-1.2,11.3-0.8c3,0.4,5.3-2.4,7.8-3.9
	c0.3-0.2,0.4-0.5,0.7-0.6c1.8-0.8,2.9-3.9,5.8-1.6c1.7,1.4,4,2,4.3,4.7c0.3,2.5,3.8,2.8,4.2,4.5c0.5,2.4,1.3,3.9,3.5,4.9
	c3.9,1.9,7.4,4.6,12,4.8c0.4,0,0.9,0.2,1.3,0.4c4.8,3.3,9.9,2,15.1,1.1c2.6-0.5,5.2-0.7,7.8-1.1c2.6-0.4,4,1.2,4.3,4.6
	c0.3,4.5,0.7,9,0.9,13.5C803.1,560.4,803,560.4,799.1,560.4z M863.3,532.3c-0.6,0.9-2.2,0.3-3.3,0.5c-10.6,1.8-21.3,2.8-31.9,4.2
	c-7.8,1-15.6,1.5-23.2,3.6c-0.9,0.2-1.4,0.1-1.8-0.8c-1.4-2.8-4-3.3-6.8-2.8c-3.9,0.8-7.9,0.8-11.7,1.7c-2.5,0.6-5.1,0.6-7.5-0.9
	c-1-0.6-2.1-1.1-3.2-1.2c-5-0.4-8.8-3.4-12.9-5.5c-0.9-0.5-1.3-1-1.2-2c0.2-1.6-0.7-2.6-2.1-3.3c-1-0.5-2-1-2.2-2.2
	c-0.4-3.1-2.5-4.7-5.2-5.7c-0.4-0.1-0.7-0.4-1.2-0.7c3.7-1.8,7.2-3.8,11.2-4.4c1.6-0.2,3.1-0.1,4.6,0.5c1,0.4,2,0.4,3,0.3
	c0.7-0.6,1.7-0.5,2.5-0.3c4.8,0.7,8.3-1.4,11.1-5c0.6-0.7,0.9-1.6,2-1.6c0.2-0.1,0.4-0.3,0.6-0.4c2.4-0.8,4.5-2,6.5-3.5
	c2-1.4,3.8-3.1,5.7-4.7c3-2.5,5.6-5.4,8.4-8.1c1.6-1.5,2.4-3.4,2.3-5.7c-0.1-2.5,0.2-5-0.4-7.5c-0.5-1.8,0.4-3.3,1.4-4.5
	c3.7-4.3,3.7-9.2,2.5-14.3c-0.2-0.7-0.3-1.2,0.1-1.8c2.7-3.6,1.4-7.6,1.2-11.5c-0.1-3.1-0.9-6.3,0-9.4c0.1,1.5,0.4,3,1.3,4.2
	c1.4,1.9,4.5,2,5.4,4.6c0.2,0.4,1,0,1.5-0.2c1.9-1,3.2-0.3,4.3,1.3c1.7,2.3,3.8,4.1,5.9,6c9.6,9,18.3,19,27.6,28.3
	c1.8,1.8,1.6,4,1.9,6.1c1,7.9,1.9,15.9,2.1,23.9c0.1,3.2,0.8,6.3,1.4,9.4c0.6,3.4,0.4,6.7,0,10.1C863.1,530,863.8,531.5,863.3,532.3
	z M923.1,417.7c-0.1,1.5-0.9,2.9-2.2,4c-3.5,2.9-5.5,6.7-6.5,11c-0.7,2.8-2.1,5.2-3.9,7.3c-1.6,1.9-2.2,3.9-1.1,6.2
	c0.2,0.4,0.2,0.8,0.4,1.1c1.6,3.2,1.3,6-1.6,8.5c-2.6,2.2-3.3,5.1-2.1,8.5c0.8,2.3,1.8,2.9,4.3,2.2c1-0.3,1.9-0.6,2.9-0.9
	c0.8,2.3-0.1,3.3-2,3.8c-1.8,0.5-3.1,1.8-4.4,3c-1.1,1.1-1.5,2.4-0.7,3.8c0.7,1.3,1.8,1.4,3.2,1.1c2.3-0.5,3.2,0.3,3.1,2.7
	c-0.2,3.2-1.2,6.2-2.2,9.3c-1.1,3.4-1.4,6.8-0.7,10.3c0.8,4.4-0.8,8.4-1.8,12.6c-0.1,0.4-0.3,0.8-0.7,0.8c-0.3,0-0.7-0.4-0.8-0.7
	c-0.3-0.6-0.5-1.3-0.7-1.9c-0.6-1.6-1.2-3.5-2.9-4c-2.2-0.7-2.2-2.1-2.3-3.9c-0.1-3.5-0.7-6.9-2.4-10.1c-0.7-1.3-1.6-2.2-3.1-1.8
	c-1.6,0.4-1.6,1.7-1.5,3c0.1,1.5-0.3,2.6-1.6,3.5c-1.5,1-1.7,2.8-1.6,4.4c0.1,2-0.5,3.2-2.8,3.5c-7.1,0.8-9.6,5.7-10.9,11.8
	c-0.7,3.3-2.1,6.3-3.1,9.5c-0.7,1.9-1.5,2-2.7,0.4c-1.3-1.9-2.9-2.9-5.4-1.7c-0.2-6.9-1.8-13.4-2.1-20.1c-0.2-5.5-0.7-11.2-1.6-16.7
	c-0.4-2.5-0.5-5.2-0.4-7.8c0-0.7,0.8-1.4,1.3-2.1c6.9-10.8,16.1-19.8,23.6-30.2c6.5-9,13.2-17.8,19-27.2c1.9-3.1,2.2-6,1.7-9.4
	c-0.6-4.1-0.9-8.2-1.4-12.4c3.2,0.1,6,1.4,8.9,0.1c3.3-1.5,5.1-3.7,4.5-6.4c1.6-0.2,2.6,0.6,2.6,2c-0.1,4.6,2.1,8.7,2.2,13.3
	C923.6,411.3,923.2,414.5,923.1,417.7z"/>
<path class="st0" d="M124.5,135c-0.8,0-1.5,0-2.3,0c-3.3,0.4-3.1,3.4-4,5.5c-1.2,2.7-1,5.8,0.2,8.5c0.5,1.3,1.3,3,3.5,2.8
	c2.1-0.2,2.6-1.7,3.1-3.2c0.6-2,0.8-4.1,2.5-5.6c0-1.2,0-2.5,0.1-3.7C126.8,137.7,126.6,135.7,124.5,135z M124.2,143.2
	c-1,1.3-1,3.1-1.5,4.6c-0.2,0.5-0.1,1.2-0.7,1.3c-0.7,0.1-1-0.6-1.3-1.2c-0.5-1.3-0.9-2.6-0.9-3.5c0.1-2.4,0.9-4.1,1.6-5.8
	c0.4-0.9,1.2-1.2,2.1-1.1c0.9,0.1,1,0.9,1.2,1.5C125.1,140.5,125.3,141.9,124.2,143.2z"/>
<path class="st0" d="M97.9,134.3c-0.9-2.5-2-4.9-2.4-7.5c-0.4-2.7-2.3-4.3-4.5-5.7c-1.6-1-3-0.5-3.5,1.4c-0.6,2.1,0.3,4,1.6,5.3
	c2.7,2.6,4.6,5.5,5.3,9.2c0.2,1.1,1,2,2.4,1.6c1.2-0.3,1.6-1.1,1.4-2.4C98.3,135.6,98.1,135,97.9,134.3z M90.5,126.5
	c-0.7-0.4-1.2-1.2-1.2-2.2c0-0.4,0-1.1,0.2-1.3c0.4-0.4,0.9,0.1,1.2,0.3c2,1.4,3,3.2,3.2,6.2C92.7,128.3,91.7,127.3,90.5,126.5z"/>
<path class="st0" d="M929.7,424.6c-1.4-0.3-2.6,0-3.5,1.4c-1.2,2.1-2.3,4.2-2.8,6.5c-0.2,1.1-0.8,2.8,0.6,3.4
	c1.2,0.6,2.7,0.2,3.9-0.8c2.4-1.9,3.2-4.6,3.4-7.5C931.2,426.3,931.2,425,929.7,424.6z M925.6,433.9c0.4-2.8,1.4-5.1,2.9-7.1
	C929,429.6,928.7,432.2,925.6,433.9z"/>
<path class="st0" d="M181.4,321.6c0.6,0.9,1.2,1.9,2.5,1.3c1.2-0.6,2.2-1.2,1.6-3c-0.4-1.2-0.7-2.5-1.3-3.7
	c-0.6-1.3-1.4-2.1-2.9-1.7c-1.6,0.4-0.8,1.8-1.1,2.6C180.2,318.8,180.5,320.3,181.4,321.6z M183.9,320.5c-1.4-1-1.4-1-1.7-3.8
	C183.3,318,183.7,319.1,183.9,320.5z"/>
<path class="st0" d="M147.6,250.8c-2.1-0.4-4.4,1.3-4.7,3.7c-0.1,1.1-0.6,2.6,1.4,2.8c0.1,0,0.2,0,0.2,0c2.7,0,3.3-2,4-4
	C148.9,252.1,149.2,251.1,147.6,250.8z M145.7,255c-0.2,0-0.5-0.2-0.5-0.3c0-1.1,0.8-1.4,1.8-1.9C146.8,253.8,146.9,254.8,145.7,255
	z"/>
<path class="st0" d="M156.5,290.2c-0.2,1.5,1.6,3.6,2.8,3.7c1.4,0,2.1-0.8,2.2-1.8c0-1.8-1.8-3.7-3.2-3.7
	C157,288.2,156.6,289.3,156.5,290.2z M159,290.1c0.3,0.5,0.6,0.7,0.8,1c0.1,0.3-0.1,0.5-0.4,0.3c-0.2-0.1-0.4-0.4-0.6-0.7
	C158.7,290.7,158.9,290.5,159,290.1z"/>
<path class="st0" d="M126.6,229.5c0.1,0.1,0.1,0.2,0.2,0.3c0.3,0.4,0.6,0.7,1.1,0.9c0.1,0,0.1,0,0.2,0c0.7-0.3,1.5-0.5,1.7-1.2
	c0-0.1,0-0.2,0.1-0.3c0-0.3-0.1-0.6-0.1-1c-0.2-0.8-0.3-1.7-0.6-2.4c-0.4-0.8-0.6-1.8-1.9-1.8s-1.3,1.1-1.6,1.9
	c-0.2,0.4-0.1,0.9-0.2,1.4C125.4,228.2,126.5,228.7,126.6,229.5z M127.3,225.7c1,0.8,1,1.8,0.8,3C127,227.9,126.4,227.1,127.3,225.7
	z"/>
<path class="st0" d="M129.8,229.2c0,0.1,0,0.2-0.1,0.3c0-0.1,0-0.1,0.1-0.2C129.8,229.3,129.8,229.3,129.8,229.2z"/>
<path class="st0" d="M127.8,230.7c-0.5-0.2-0.8-0.5-1.1-0.9c-0.1-0.1-0.1-0.2-0.2-0.3c0,0.2,0,0.5-0.2,0.8c0.3,0.3,0.6,0.6,0.9,0.9
	c0.2-0.1,0.5-0.3,0.8-0.4C128,230.7,127.9,230.7,127.8,230.7z"/>
<path class="st0" d="M167.7,307.9c-1.1,0-1.5,0.5-1.5,1.5c0,1.2,0.6,2.1,1.8,2.2s1.7-0.8,1.9-2.1
	C169.6,308.6,169.1,307.9,167.7,307.9z"/>
<path class="st0" d="M790,510.7c1,1,0.4,2-0.5,2.8c-0.6,0.5-1.4,0.7-2.2,0.6c-2.5-0.1-4.1,1.1-5.3,3.2c-0.9,1.5-2,2.1-3.7,1.1
	c-1.3-0.8-2.3-0.2-3.3,0.7c-1.1,1-2.1,2.5-4,1.4c-1.7-1-2.2-2.9-1.4-5.2c0.1-0.3,0.3-0.6,0.2-0.9c-0.1,0.4-0.2,0.7-0.4,1
	c-0.9,1.6-0.6,3,0.4,4.4c1.5,2.1,2.4,2.3,4.2,0.5c1.5-1.4,2.9-2.4,4.9-1c1,0.7,2,0.3,2.6-0.6c1.6-2.7,3.7-4.3,7.1-4.5
	c2.4-0.1,2.7-2.3,1.5-4.4c-1.2-2-2.6-3-5-2.8c-0.4,0-1.2,0-0.8-0.9c-0.2,0.1-0.4,0.3-0.6,0.4c0.4,0.3,0.7,0.7,1.2,0.7
	C787.5,506.9,788.5,509.2,790,510.7z"/>
<path class="st0" d="M785.1,507c2.4-0.2,3.7,0.8,5,2.8c1.3,2,0.9,4.2-1.5,4.4c-3.4,0.2-5.5,1.8-7.1,4.5c-0.6,1-1.6,1.4-2.6,0.6
	c-2-1.4-3.4-0.5-4.9,1c-1.8,1.8-2.7,1.6-4.2-0.5c-1-1.4-1.3-2.8-0.4-4.4c0.2-0.3,0.4-0.6,0.4-1c0-0.1-0.1-0.2-0.2-0.3
	c-0.1,0.1-0.1,0.3-0.2,0.4c-1.8,2.7-1.4,5.1,1.1,7.2c2.4,1.9,3.3-0.5,4.7-1.7c0.1,0,0.1-0.1,0.2-0.2c0.8-1,1.7-1.1,2.8-0.3
	c1.9,1.4,3,1.2,4.2-0.9c1.4-2.4,3-4,6.1-3.7c1.5,0.1,2.6-0.9,3.2-2.3c0.6-1.5-0.1-2.5-1.4-3.4c-0.4-0.3-1.1-0.4-0.8-1.2
	c0.4-1.4-0.5-1.5-1.5-1.6c-1.2-0.1-2.5,0.5-3.6-0.4C783.9,506.9,784.7,507,785.1,507z"/>
<path class="st0" d="M784.2,507.8c2.1-0.4,3.2,1,4.4,2.3c0.5,0.6,1.8,0.7,1.5,1.8c-0.3,1.2-1.4,1.7-2.6,1.6c-3.1-0.2-5,1.3-6.3,3.9
	c-0.6,1.1-1.2,1.7-2.5,0.6c-1.4-1.2-2.9-0.8-4.1,0.5c-0.4,0.5-0.9,0.9-1.3,1.3c-0.9,1-1.6,1-2.5-0.1c-1.2-1.5-1.8-2.9-0.4-4.6
	c0.2-0.3,0.8-0.9,0.2-1.4c-0.3-0.3-0.6,0.1-0.8,0.3c0,0.1,0,0.3,0,0.4c0.1,0.3-0.1,0.6-0.2,0.9c-0.8,2.2-0.3,4.1,1.4,5.2
	c1.9,1.2,2.9-0.3,4-1.4c1-0.9,2-1.5,3.3-0.7c1.7,1,2.8,0.4,3.7-1.1c1.2-2,2.9-3.3,5.3-3.2c0.8,0,1.6-0.1,2.2-0.6
	c1-0.8,1.5-1.8,0.5-2.8c-1.5-1.5-2.5-3.7-5.2-3.5c-0.5,0.1-0.8-0.4-1.2-0.7C783.7,507,783.5,507.9,784.2,507.8z"/>
<path class="st0" d="M769.8,513.9c-0.1,0-0.1,0.1-0.2,0.1c0.1,0.1,0.2,0.2,0.2,0.3C769.8,514.2,769.8,514.1,769.8,513.9z"/>
<path class="st0" d="M914.3,392.2c0.9,0.5,1.4,0.1,2-0.3C915.7,391.7,915.1,391.6,914.3,392.2z"/>
<path class="st0" d="M574,420.8c-2.1-1-3.7-2.4-4.5-4.6c0,0,0,0-0.1-0.1c-1.9-0.1-2.4-2.1-4.3-2.9c0.8,4.4,1.6,8.6,4.4,12.1
	c0.7,0.8,1.5,1.7,2.8,1.1c1.3-0.6,1.7-1.7,1.8-3c0-0.8-0.4-1.7,0-2.5C574,420.9,574,420.9,574,420.8z M571.8,425.7
	c-0.8,0.3-1.2-0.5-1.6-1c-2-2.4-2.7-5.3-3.5-8.1c0.2-0.2,0.4-0.4,0.7-0.5c1.6,1.8,3.2,3.6,4.8,5.4c0.6,0.6,0.9,1.4,0.9,2.1
	C573.2,424.3,572.7,425.3,571.8,425.7z"/>
<path class="st0" d="M574.1,423.4c0,1.4-0.5,2.5-1.8,3c-1.3,0.6-2.1-0.3-2.8-1.1c-2.8-3.5-3.6-7.6-4.4-12.1c1.9,0.8,2.4,2.8,4.3,2.9
	c-1-1-2.1-2-3.1-3c-0.5-0.4-0.8-1.4-1.7-0.9c-0.5,0.4-0.3,1.2-0.2,1.8c0.6,2.3,1.2,4.6,1.9,6.9c0.6,1.9,1.6,3.7,3,5.2
	c1.7,1.7,3.3,1.5,4.6-0.5c1.1-1.6,0.7-3.2,0-4.8C573.6,421.8,574.1,422.6,574.1,423.4z"/>
<path class="st0" d="M574,420.8c-1.5-1.5-3-3.1-4.5-4.6C570.3,418.4,571.9,419.9,574,420.8z"/>
</svg>
