<?xml version="1.0" encoding="utf-8"?>
<!-- Generator: Adobe Illustrator 25.2.3, SVG Export Plug-In . SVG Version: 6.00 Build 0)  -->
<svg version="1.1" id="Capa_1" xmlns="http://www.w3.org/2000/svg" xmlns:xlink="http://www.w3.org/1999/xlink" x="0px" y="0px"
	 viewBox="0 0 677 413.6" style="enable-background:new 0 0 677 413.6;" xml:space="preserve">
<style type="text/css">
	.st0{fill:#FFFFFF;}
</style>
<g>
	<path class="st0" d="M40.6,223.9c0,17.9,3.5,32.5,11.8,45.8c6.4,10.3,14.7,18.5,25.8,23.5c14,6.3,27.9,5.8,41.6-0.9
		c0.6-0.3,1.2-0.6,1.8-0.9c0.4-0.2,0.9-0.5,1.2,0.1c0.4,0.6,0.2,1.1-0.4,1.4c-0.9,0.5-1.8,1-2.8,1.5c-7.5,3.6-15.4,5.6-23.5,6.7
		c-12.5,1.7-24.8,0.7-37-3.1C44.3,293.3,33.3,284,25.2,271c-7.5-12.2-11.3-25.5-12.1-39.8c-0.8-15.7,2-30.7,9.3-44.8
		c8.4-16.2,21.1-27.5,38.9-32.6c8.5-2.4,17.2-3.4,26-3.1c5.8,0.2,11.5,1.2,17.2,2.6c0.4,0.1,0.7,0.2,1.1,0.3
		c0.5,0.2,0.8,0.5,0.7,1.1c0,0.6-0.5,0.7-1,0.7c-0.6,0-1.1-0.1-1.7-0.1c-13.3-1.6-25.1,2.1-35.6,10.1c-10.5,7.9-17.5,18.4-22.2,30.6
		C42.2,205.7,40.6,215.8,40.6,223.9z"/>
	<path class="st0" d="M183,342.9c-0.2-1.7,0.6-1.9,1.9-1.8c4.7,0.3,9.3,0.3,14,0.2c6.4-0.1,12.7-0.9,19-2.4
		c10.4-2.6,18.9-8.4,26.1-16.2c9-9.7,14.5-21.4,17.4-34.3c4.5-20.1,2.2-39.4-7.1-57.8c-6.1-12-15.1-21.4-27.3-27.6
		c-5.6-2.8-11.7-4-17.8-4.9c-3.2-0.5-6.5-0.6-9.8-1c2.5-1.2,4.8-2.6,7.7-2.5c8.5,0,17,0.1,25.4,0.7c3.2,0.2,6.4,1,9.5,2
		c16.6,5.2,28.1,16.3,36.2,31.3c6.5,12.2,10.3,25.2,10.6,39.1c0.3,11.8-2.3,23-6.8,33.9c-4.3,10.5-10.3,19.8-18.7,27.4
		c-9.7,8.7-21,13.6-34.1,14.3c-13.2,0.8-26.5,0.9-39.7,0C187.3,343.4,185.1,343.1,183,342.9z"/>
	<path class="st0" d="M226.7,305.2c0,1-0.9,1.4-1.5,2c-8.8,8.5-19.1,13.3-31.5,13.5c-8.2,0.1-16.4,0.2-24.5-1.2
		c-2.3-0.4-4.7-0.9-7-1.5c-1-0.3-1.5-0.7-1.4-1.8c0-0.7,0-1.3,0-2c0-29.8,0-59.7,0-89.5c0-0.6,0.1-1.2,0-1.7c-0.2-1.4,0.5-2,1.8-2.4
		c4.2-1.1,8.4-1.8,12.7-2.2c7.6-0.7,15.2-0.9,22.8-0.1c11.4,1.2,20.8,6.4,28.5,14.7c0.1,0.1,0.1,0.3,0.2,0.7
		c-3.1-0.5-5.9-1.4-8.9-1.9c-9.2-1.5-18.2-1-27.2,1.3c-2.5,0.6-2.5,0.7-2.5,3.2c0,13,0,25.9,0,38.9c0,8.8,0,17.5,0,26.3
		c0,3.7-0.5,3.2,3.2,4.1c10.8,2.7,21.7,2.6,32.5-0.1C224.9,305.4,225.7,305,226.7,305.2L226.7,305.2z"/>
	<path class="st0" d="M173.5,167c-4.8,3.3-9.8,5.2-15.3,5.5c-9.2,0.6-17-2.8-23.6-9c-7.5-7-12.1-15.7-14.5-25.5
		c-4.2-17-2.9-33.5,5.4-49.1c3.5-6.6,8.3-12.2,14.7-16.1c10.2-6.2,20.7-6.4,31.2-0.6c0.5,0.3,1,0.6,1.4,0.9c0.1,0.1,0.2,0.3,0.3,0.4
		c0.1,0.2,0,0.3-0.2,0.4c-10.5,3.4-17.5,10.8-21.9,20.5c-8.1,17.8-7.8,35.7,0.8,53.2c3.4,6.9,8.4,12.5,15.2,16.3
		C169.1,165.3,171.3,165.9,173.5,167z"/>
	<path class="st0" d="M242.7,96.3c-0.8,0.4-1.7,0.3-2.5,0.3c-7.3,0-14.7,0-22,0c-2.6,0-2.6,0-3.5-2.6c-3.7-11.3-9.5-21.4-18-29.7
		c-7-6.9-15.2-11.7-24.8-14c-11.5-2.7-22.5-1-33,4.4c-1,0.5-2,1.2-3,1.6c-0.6,0.3-1.4,1.6-2.1,0.3c-0.6-1.1,0.7-1.4,1.3-1.8
		c5.5-3.5,11.7-5.5,18-7.1c16.9-4.4,33.6-3.7,50,2.2c14,5,24.1,14.5,31.7,27.1c3.3,5.4,5.7,11.2,7.6,17.2c0.2,0.5,0.3,1.1,0.4,1.7
		C242.8,95.9,242.7,96.1,242.7,96.3z"/>
	<path class="st0" d="M242.7,144.7c0,0.6,0.1,0.9,0,1.2c-4.5,15.1-12.3,28-25,37.7c-7.7,5.9-16.7,9.1-26.1,11.1
		c-9.7,2-19.5,2.4-29.3,0.8c-0.4-0.1-0.8-0.1-1.1-0.2c-0.7-0.1-0.9-0.6-0.9-1.2c0-0.6,0.4-0.8,0.9-0.8c0.3,0,0.6,0,0.9,0
		c12.6-0.3,23.2-5.4,32.4-13.8c9.7-8.8,16-19.8,20.1-32.1c1.1-3.3,0.7-2.7,3.7-2.7c7.6,0,15.2,0,22.9,0
		C241.6,144.6,242.1,144.6,242.7,144.7z"/>
	<path class="st0" d="M137.2,202.3c-2.6,0-4.7,0-6.8,0c-6,0-12-0.1-18,0.1c-2.4,0.1-3.7-0.6-4.8-2.8c-3.4-7.1-8.4-12.9-15.3-16.9
		c-2-1.1-4.2-1.9-6.4-2.7c0.2-0.9,1-1.2,1.6-1.5c10.9-6.1,21.7-5.9,32.1,0.9C128.1,184.7,133.3,192.6,137.2,202.3z"/>
	<path class="st0" d="M85.9,272.9c0.4-0.3,0.5-0.5,0.7-0.5c10.2-3.4,16.7-10.6,21.3-19.9c0.9-1.7,1.8-2.3,3.7-2.3
		c7.5,0.1,15,0,22.6,0.1c0.8,0,1.7-0.2,2.5,0.2c0,0.3,0.1,0.6,0,0.8c-4.1,9.8-9.9,18.3-19.6,23.4c-10.2,5.4-20.3,4.9-30.2-1
		C86.7,273.6,86.4,273.3,85.9,272.9z"/>
	<path class="st0" d="M316.1,315.7c0-5.5,0-11,0-16.6c0-2.1,0.1-2.1,2-2.1c4.5,0,8.9-0.2,13.4,0.2c10.2,0.8,16.6,7.1,17.4,17.4
		c0.8,9-5.3,17-14.4,19.4c-2.1,0.5-4.1,0.6-6.2,0.6c-3.4,0-6.9-0.1-10.3,0c-1.5,0-2-0.5-2-2C316.1,326.9,316.1,321.3,316.1,315.7z
		 M321.3,315.8c0,3.1,0,6.3,0,9.4c0,5.3-0.6,4.4,4.5,4.5c3.7,0.1,7.4-0.3,10.8-2.1c5-2.7,7.6-8,6.7-13.9
		c-0.9-5.9-4.6-10.1-10.1-11.3c-3.3-0.8-6.6-0.3-9.9-0.5c-1.5-0.1-2,0.5-2,2C321.3,307.8,321.3,311.8,321.3,315.8z"/>
	<path class="st0" d="M316.1,162.5c0-5.5,0-11,0-16.6c0-2,0.1-2.1,2.1-2.1c4.2,0,8.4-0.1,12.6,0c10.6,0.3,17.8,7.4,18.2,18.1
		c0.4,9.7-6.9,18-16.8,19.1c-4.8,0.6-9.7,0.2-14.6,0.3c-1.6,0-1.6-0.9-1.6-2C316.1,173.8,316.1,168.2,316.1,162.5z M321.3,162.7
		c0,4,0,8,0,12c0,1,0,1.9,1.4,1.9c3.4,0,6.9,0.2,10.2-0.7c6.8-1.7,10.8-7.1,10.5-14c-0.3-7.1-4.7-11.9-11.7-12.9
		c-2.6-0.4-5.1-0.3-7.7-0.3c-2.7,0-2.7,0-2.7,2.6C321.2,155.1,321.3,158.9,321.3,162.7z"/>
	<path class="st0" d="M389.3,260.7c6.2-4.3,10.8-4.3,15.6,1c2.4-3.1,5.6-4.4,9.5-4c3.7,0.4,6.1,2.4,7.2,5.9c0.4,1.2,0.6,2.4,0.6,3.6
		c0.1,4.8,0,9.5,0.1,14.3c0,1.3-0.4,2-1.8,1.9c-0.5,0-1,0-1.4,0c-1.4,0.1-1.8-0.5-1.8-1.8c0.1-3.7,0-7.4,0-11.1c0-1.1,0-2.3-0.1-3.4
		c-0.3-2.8-1.8-4.4-4.1-4.7c-3.1-0.4-5.5,0.8-6.6,3.4c-0.6,1.4-0.8,2.9-0.8,4.5c0,3.7,0,7.4,0,11.1c0,0.7,0.3,1.7-0.6,2
		c-1.3,0.3-2.7,0.5-3.9-0.1c-0.6-0.3-0.4-1.2-0.4-1.9c0-3.2,0-6.5,0-9.7c0-1.4,0-2.9-0.2-4.3c-0.3-2.9-1.4-4.4-3.6-4.9
		c-2.4-0.6-5.1,0.5-6.5,2.6c-1.1,1.7-1.4,3.5-1.4,5.5c0,3.5,0,7,0,10.6c0,0.8,0.4,2-0.6,2.3c-1.3,0.4-2.7,0.5-3.9-0.1
		c-0.7-0.3-0.4-1.4-0.4-2.1c0-5.7,0-11.4,0-17.1c0-1.3,0-2.7,0-4c0-1.2,0.5-1.6,1.7-1.7C388.6,258.2,388.6,258.2,389.3,260.7z"/>
	<path class="st0" d="M314.6,264.9c0.4-8.3,3.5-14.8,11.2-18.2c6.3-2.7,12.7-2.5,18.6,1.3c3.3,2.2,3.2,2.9,0.1,5.1
		c-1.1,0.8-1.7,0.7-2.7-0.2c-2.7-2.6-6.1-3.4-9.8-2.9c-5.9,0.9-9.5,4.5-11.2,10.1c-1.1,3.7-1,7.5,0.5,11.2c3.7,9.2,16,10.7,21.2,4.5
		c1.1-1.2,1.8-0.9,2.8-0.1c3,2.2,3.1,2.6,0,4.8c-6.2,4.6-13,5.3-20,2C318.3,279,314.9,272.8,314.6,264.9z"/>
	<path class="st0" d="M343.4,223.7c1,0.1,1.4,0.5,1.9,0.8c3.2,2.4,3.3,2.7-0.1,5.1c-5.9,4.3-12.4,4.9-19,2.1
		c-6.8-2.9-10.7-8.4-11.5-15.9c-0.6-6.5,1.1-12.3,5.9-16.9c6-5.8,16.5-6.8,23.3-2.3c3.6,2.3,3.6,3.8-0.1,5.8c-0.6,0.3-1,0.3-1.5-0.2
		c-0.8-0.8-1.7-1.5-2.7-2.1c-5.5-2.9-12.4-1.3-16.4,3.8c-3.9,5.1-4.1,13.2-0.6,18.6c4.1,6.5,14.8,8.2,20.1,2
		C343.1,224.3,343.3,223.9,343.4,223.7z"/>
	<path class="st0" d="M369.9,221.9c0.1,2.6,1.5,4.3,3.5,5.5c3.3,2.1,7.2,1.7,10.3-1c0.5-0.4,0.9-1.5,1.8-1c1.1,0.6,2.1,1.3,2.9,2.3
		c0.1,0.1-0.1,0.5-0.2,0.8c-0.1,0.2-0.4,0.5-0.6,0.6c-4.1,3.9-9,4.8-14.3,3.3c-5.1-1.5-7.8-5.3-8.6-10.4
		c-1.4-9.4,5.7-16.5,15.1-15.2c5.4,0.7,9.2,4.8,9.9,10.6c0.5,4.2,0.5,4.3-3.8,4.3c-4.4,0-8.8,0-13.1,0
		C371.8,221.7,370.9,221.5,369.9,221.9z M384.4,217.6c0.5-3.8-2.6-6.9-6.6-7c-4.3-0.1-7.5,2.7-7.8,7
		C374.7,217.6,379.4,217.6,384.4,217.6z"/>
	<path class="st0" d="M412,330.1c-3.7,4.6-9.6,6.3-15.4,4.5c-4.9-1.6-8.2-5.9-8.5-11.3c-0.4-6,2.4-11.1,7.4-13.3
		c7.8-3.4,17.7,0.2,17.8,12c0,1.6-0.5,2-2,1.9c-4.6-0.1-9.1,0-13.7,0c-0.8,0-1.5,0-2.3,0c-2,0.1-2.3,0.7-1.5,2.5
		c1.6,3.9,8.2,6.4,12.4,3c2.6-2.1,2.6-2,5,0C411.5,329.5,411.7,329.7,412,330.1z M400.5,320C400.5,320,400.5,320,400.5,320
		c1.9,0,3.8,0,5.7,0c1.9,0,2.1-0.4,1.6-2.2c-0.9-3.4-3.5-5.2-7.3-5c-3.4,0.1-6.6,2.8-7.2,5.9c-0.2,1,0.2,1.4,1.2,1.4
		C396.5,320,398.5,320,400.5,320z"/>
	<path class="st0" d="M473.8,321.8c0.1,7.5-5.9,13.3-13.4,13.3c-7.4,0-13.3-5.7-13.4-13.1c-0.1-7.4,5.9-13.4,13.4-13.4
		C467.8,308.7,473.8,314.6,473.8,321.8z M460.5,330.6c4.9,0,8.2-3.6,8.1-8.7c0-5-3.5-8.6-8.3-8.6c-4.8,0-8.2,3.7-8.2,8.7
		C452.2,327.2,455.6,330.6,460.5,330.6z"/>
	<path class="st0" d="M477.4,168.7c0,7.5-5.9,13.4-13.4,13.4c-7.4-0.1-13.3-6-13.3-13.3c0-7.2,6-13.2,13.4-13.2
		C471.4,155.5,477.3,161.3,477.4,168.7z M472.2,168.8c0-3.9-1.9-7-5-8.2c-4-1.5-8.4,0.1-10.3,3.7c-2.1,4-0.9,9.5,2.6,11.8
		c0.7,0.5,1.5,0.8,2.3,1C467.6,178.6,472.2,174.9,472.2,168.8z"/>
	<path class="st0" d="M602.8,284.1c-7.4,0-13.3-5.8-13.3-13.1c0-7.4,5.9-13.3,13.5-13.2c7.5,0,13.4,5.9,13.3,13.4
		C616.2,278.5,610.3,284.1,602.8,284.1z M603,279.5c4.8,0,8.2-3.7,8.1-8.7c-0.1-5.1-3.4-8.6-8.3-8.5c-4.8,0-8.2,3.7-8.1,8.7
		C594.7,276.1,598.1,279.6,603,279.5z"/>
	<path class="st0" d="M365.1,284.1c-7.5,0-13.3-5.7-13.4-13.1c-0.1-7.4,5.8-13.2,13.2-13.3c7.6,0,13.5,5.7,13.5,13.2
		C378.4,278.4,372.6,284.1,365.1,284.1z M373.2,270.5c0-0.3,0-0.9-0.1-1.6c-0.6-3.7-3.4-6.3-7.1-6.6c-4.1-0.3-7.3,1.6-8.5,5.2
		c-0.8,2.3-0.7,4.7,0.1,7c0.8,2.2,2.3,3.7,4.5,4.5C367.9,281.2,373.2,277.3,373.2,270.5z"/>
	<path class="st0" d="M526.6,261.4c3.1-4,12.1-4.9,16.4-2.2c2.4,1.5,3.7,3.6,3.8,6.3c0.2,5.5,0.1,11,0.2,16.6c0,1-0.4,1.3-1.3,1.4
		c-2.5,0.2-2.8,0-3.5-2.8c-0.9,0.7-1.7,1.5-2.7,2c-3.5,1.8-7.2,2-10.7,0.2c-4.3-2.1-5.1-8.2-1.7-11.7c2.1-2.1,4.7-2.9,7.5-3.2
		c2-0.2,4-0.2,6-0.3c1.5-0.1,1.8-0.5,1.6-2c-0.3-2-2.1-3.7-4.3-4c-2.4-0.4-4.7,0.1-6.8,1.4c-1.9,1.2-1.9,1.2-3.4-0.4
		C527.2,262.4,526.7,262.1,526.6,261.4z M538.8,271.5c-2.5,0-5,0.2-7.1,1.6c-2.3,1.5-2.4,4.8-0.2,6.2c3.5,2.3,9.1,0.4,10.4-3.6
		C543.1,272,542.6,271.4,538.8,271.5z"/>
	<path class="st0" d="M462.5,210.3c4.6-3.7,9.5-4.6,14.7-3c3.9,1.2,5.7,3.8,5.8,7.9c0.1,5.2,0,10.5,0.1,15.7c0,1.1-0.2,1.5-1.4,1.6
		c-2.5,0.1-2.6,0.1-3.3-2.6c-0.8-0.1-1.1,0.6-1.6,1c-3.2,2.5-8.3,3-11.9,1.1c-4.8-2.6-5.1-9.4-0.6-12.6c1.9-1.3,4.1-1.9,6.4-2.2
		c2-0.3,4-0.4,6-0.3c1.8,0.1,1.9-0.7,1.5-2.1c-0.5-2-1.8-3.3-3.9-3.8c-2.5-0.6-4.9-0.1-7.1,1.2c-2,1.2-2,1.2-3.7-0.5
		C463.3,211.3,463,210.9,462.5,210.3z M471.4,229.2c4.2,0,7.2-3.1,7-7.2c0-0.9-0.2-1.5-1.2-1.5c-2.4,0-4.7-0.2-7,0.5
		c-3,0.9-4.4,2.4-4.1,4.6C466.4,228,468.2,229.2,471.4,229.2z"/>
	<path class="st0" d="M489,159.1c1.9-1.7,3.5-2.9,5.6-3.3c6.4-1.4,11.3,2.2,11.6,8.7c0.2,5,0,10.1,0.1,15.1c0,1.2-0.4,1.8-1.6,1.7
		c-0.3,0-0.6,0-0.9,0c-2.4,0-2.4,0-2.4-2.3c0-3.5,0-7,0-10.6c0-1,0-1.9,0-2.9c-0.2-2.9-1.8-4.8-4.3-5.3c-2.9-0.6-5.5,0.5-6.9,2.8
		c-1,1.7-1.3,3.6-1.3,5.5c0,3.5,0,7,0,10.6c0,0.7,0.3,1.6-0.6,2.1c-0.5,0.3-3.6,0.1-3.9-0.2c-0.4-0.4-0.4-0.9-0.4-1.3
		c0-7.3,0-14.7,0-22c0-1.3,0.6-1.7,1.7-1.6c0.2,0,0.4,0,0.6,0C488.5,156.1,488.5,156.1,489,159.1z"/>
	<path class="st0" d="M400.2,209.9c2.7-2.6,5.7-3.6,9.1-3.2c4.6,0.5,7.6,3.4,7.8,8c0.2,5.4,0.1,10.9,0.1,16.3c0,1.1-0.5,1.6-1.5,1.5
		c-0.4,0-0.8,0-1.1,0c-2.2,0-2.3,0-2.3-2.2c0-3.6,0-7.2,0-10.9c0-0.9,0-1.7,0-2.6c-0.2-3-1.6-4.9-4.1-5.5c-3.1-0.7-5.9,0.6-7.3,3.2
		c-0.8,1.6-1,3.3-1,5c0,3.6,0,7.2,0,10.9c0,0.7,0.3,1.7-0.7,1.9c-1.3,0.2-2.7,0.5-3.9-0.2c-0.4-0.2-0.3-0.9-0.3-1.3
		c0-7.3,0-14.7,0-22c0-1,0.3-1.6,1.4-1.6c0.4,0,0.8,0,1.1,0C399.6,207.3,399.6,207.3,400.2,209.9z"/>
	<path class="st0" d="M463.9,261c0.9-0.2,1.3-1,2-1.5c5.5-3.9,13.3-1.4,14.8,4.7c0.2,0.9,0.4,1.9,0.4,2.8c0,4.9,0,9.7,0,14.6
		c0,1.5-0.5,2.1-2,1.9c-0.4,0-0.8,0-1.1,0c-1.6,0.2-1.9-0.7-1.9-2.1c0.1-3,0-6.1,0-9.1c0-1.4,0.1-2.9,0-4.3
		c-0.2-3.1-1.7-5.1-4.3-5.6c-3-0.6-5.9,0.7-7.2,3.4c-0.8,1.6-1,3.2-1,5c0,3.4,0,6.9,0,10.3c0,2.5,0,2.5-2.6,2.4c-0.2,0-0.4,0-0.6,0
		c-1.2,0.1-1.7-0.3-1.7-1.6c0.1-2.1,0-4.2,0-6.3c0-4.9,0-9.9,0-14.8c0-2.3,0-2.3,1.7-2.4c2.8-0.2,2.8-0.2,3.2,2.1
		C463.6,260.6,463.8,260.8,463.9,261z"/>
	<path class="st0" d="M446.3,280.9c-2.4,2.3-4.9,3.3-8,3.2c-5-0.1-8.5-2.9-8.8-7.9c-0.4-5.5-0.1-11-0.2-16.6c0-1,0.5-1.3,1.4-1.3
		c0.1,0,0.2,0,0.3,0c3.2-0.2,3.2-0.1,3.2,3c0,3.4,0,6.9,0,10.3c0,0.8,0,1.5,0.1,2.3c0.2,3.2,1.7,5.1,4.4,5.6c3,0.6,5.8-0.8,7.1-3.5
		c0.9-1.8,1-3.7,1-5.6c0-3.4,0-6.9,0-10.3c0-0.6-0.2-1.4,0.7-1.7c0.7-0.2,3.6,0,3.9,0.3c0.3,0.4,0.3,0.9,0.3,1.4
		c0,7.2,0,14.5,0,21.7c0,1.5-0.7,1.7-1.9,1.7C447.2,283.5,447.2,283.6,446.3,280.9z"/>
	<path class="st0" d="M627.3,261.3c2.6-2.8,5.6-3.8,9-3.5c4.3,0.3,7.7,3.2,7.9,7.6c0.3,5.6,0.1,11.2,0.2,16.9c0,1-0.5,1.4-1.4,1.3
		c-0.1,0-0.2,0-0.3,0c-3.2,0.2-3.2,0.2-3.2-3c0-3.5,0-7.1,0-10.6c0-0.8,0-1.5-0.1-2.3c-0.3-2.9-1.7-4.7-4.1-5.2
		c-2.8-0.6-5.6,0.5-7,2.7c-1,1.6-1.3,3.4-1.3,5.2c0,3.5,0,7.1,0,10.6c0,2.6,0,2.6-2.7,2.6c-0.2,0-0.4,0-0.6,0
		c-1.3,0.1-1.6-0.5-1.6-1.7c0-3.5,0-7.1,0-10.6c0-3.4,0-6.9,0-10.3c0-2.6,0-2.6,2.7-2.6C626.8,258.4,626.8,258.4,627.3,261.3z"/>
	<path class="st0" d="M424.1,311.9c0.9-0.1,1.2-0.9,1.8-1.3c3.4-2.2,7-2.6,10.6-0.9c3.4,1.6,4.6,4.7,4.7,8.2c0.1,4.9,0,9.7,0,14.6
		c0,1.5-0.5,2.1-2,1.9c-0.6-0.1-1.1,0-1.7,0c-1,0-1.3-0.5-1.3-1.4c0-0.7,0-1.3,0-2c0-3.9,0-7.8,0-11.7c-0.1-3.5-1.7-5.4-4.6-5.9
		c-3.1-0.5-5.9,1.1-7.1,4c-0.6,1.5-0.7,3.1-0.7,4.8c0,3.3,0,6.7,0,10c0,2.3,0,2.3-2.2,2.3c-2.7,0-2.7,0-2.7-2.6c0-6.7,0-13.3,0-20
		c0-2.4,0-2.4,1.6-2.5c2.8-0.2,2.8-0.2,3.3,2.1C423.9,311.6,424,311.7,424.1,311.9z"/>
	<path class="st0" d="M418.6,155.5c2.8,0.2,5.6,0.7,7.7,3c0.7,0.8,0.8,1.5-0.1,2.1c-0.5,0.3-1,0.6-1.4,1c-0.8,0.8-1.5,0.8-2.4,0
		c-1.8-1.6-3.9-1.9-6.2-1.1c-0.9,0.3-1.7,0.8-1.9,1.9c-0.2,1.2,0.4,2,1.3,2.7c1,0.7,2,1,3.2,1.2c1.6,0.4,3.2,0.7,4.7,1.3
		c5,2,6,8.4,2,11.9c-3.9,3.5-12.4,3.2-16.2-0.4c-1.4-1.4-1.4-1.6,0-2.9c2-1.7,2-1.8,4.2-0.2c2,1.4,4.3,1.6,6.5,0.9
		c1.3-0.3,2.3-1.1,2.4-2.5c0.1-1.4-0.8-2.3-2-2.8c-1-0.4-2.2-0.7-3.3-1c-1.3-0.4-2.6-0.7-3.8-1.1c-2.4-0.9-4.1-2.4-4.4-5.1
		c-0.3-2.9,0.5-5.3,2.9-7C414,156.1,416.2,155.7,418.6,155.5z"/>
	<path class="st0" d="M497.2,233.1c-3.1-0.1-6.2-0.8-8.5-3.4c-0.7-0.8-0.9-1.4,0.1-2.1c0.2-0.2,0.5-0.4,0.7-0.5
		c2.1-1.7,1.9-1.7,3.8-0.2c2,1.6,4.3,2,6.7,1.1c1.3-0.4,2.5-1.2,2.5-2.7c0-1.4-1-2.2-2.2-2.7c-1-0.4-2.2-0.7-3.3-1
		c-1.4-0.4-2.8-0.7-4.1-1.2c-4.4-1.9-5.5-7.1-2.4-10.7c3.4-4.1,11.9-4.2,15.5-0.3c0.8,0.9,1.1,1.5-0.1,2.3c-0.5,0.3-0.9,0.7-1.4,1
		c-0.9,0.8-1.5,0.7-2.4-0.1c-1.8-1.6-4-1.8-6.2-1c-2.2,0.8-2.5,3-0.7,4.4c0.8,0.7,1.8,1,2.9,1.2c1.6,0.4,3.2,0.7,4.7,1.2
		c2.8,1,4.7,2.9,4.8,6c0.2,3.4-1.3,6-4.3,7.4C501.4,232.8,499.5,233.1,497.2,233.1z"/>
	<path class="st0" d="M373.6,335.2c-3.3,0-6.4-0.7-8.8-3.3c-0.7-0.8-0.8-1.4,0.1-2.1c0.4-0.3,0.8-0.6,1.1-0.9c0.9-1,1.8-1.2,2.9-0.1
		c1.7,1.6,3.8,2.1,6.1,1.7c0.6-0.1,1.1-0.2,1.6-0.5c1.1-0.5,1.9-1.2,1.9-2.6c0-1.2-0.7-1.9-1.7-2.4c-0.9-0.5-1.9-0.7-3-1
		c-1.7-0.4-3.3-0.8-4.9-1.4c-5.1-2-5-8.5-1.7-11.4c3.5-3.2,10.8-3.3,14.3-0.2c1.7,1.5,1.7,1.9-0.1,3.2c-1.7,1.4-1.7,1.4-3.8,0.1
		c-1.9-1.2-3.9-1.4-6-0.4c-1.9,0.9-2.1,2.8-0.5,4.2c1,0.9,2.3,1.3,3.7,1.5c1.6,0.3,3.2,0.7,4.7,1.3c2.5,1,4.1,2.8,4.3,5.6
		c0.2,2.9-0.8,5.2-3.2,6.9C378.6,334.8,376.1,335.1,373.6,335.2z"/>
	<path class="st0" d="M445.6,210.7c-0.3,0.9-1.1,1.3-1.7,1.9c-1,1.2-1.9,1.3-3.3,0.2c-5.1-3.5-11-1-12.1,5.1
		c-1,5.2,1.6,9.5,6.3,10.4c2.3,0.4,4.4,0,6.1-1.5c1.1-1,1.8-0.9,2.8,0.1c2.2,2.2,2.2,2.5-0.3,4.1c-6.2,4-15.5,1.8-18.9-4.6
		c-3.7-7-0.8-15.9,6.1-18.9C435.9,205.5,442.1,206.7,445.6,210.7z"/>
	<path class="st0" d="M364.4,156.4c5.2-0.6,5.2-0.6,6.9,4c1.4,3.6,2.8,7.3,4.3,10.9c0.4,0.9,0.5,2,1.5,2.7c0.9-0.4,1-1.3,1.3-2.1
		c1.7-4.6,3.5-9.3,5.2-13.9c0.3-0.7,0.3-1.6,1.2-1.8c1.3-0.2,2.7-0.3,4,0.1c0.4,0.1,0.4,0.6,0.3,1c-0.1,0.4-0.3,0.7-0.4,1.1
		c-2.7,7-5.5,14-8.2,21c-0.3,0.7-0.4,1.8-1.5,1.9c-1.5,0.1-3,0.4-4.5-0.2c-0.3-0.1-0.6-0.7-0.7-1.2c-3.1-7.6-6.2-15.2-9.2-22.8
		C364.4,157,364.4,156.8,364.4,156.4z"/>
	<path class="st0" d="M564.6,284.1c-6,0-10.6-3-12.4-8.3c-2-5.7-0.3-12,3.9-15.3c4.4-3.4,11.3-3.7,15.9-0.7c0.4,0.3,0.8,0.6,1.1,0.9
		c0.8,0.6,1.1,1.3,0.1,2.1c-0.5,0.4-1,0.9-1.5,1.4c-0.8,0.9-1.4,0.7-2.4,0.1c-4-2.9-8.7-2.3-11.1,1.2c-2.8,4-2,10,1.6,12.7
		c2.7,2,6.4,2,9.3,0c0.6-0.4,1-1.5,1.9-0.8c1,0.8,2.1,1.6,2.7,2.9c0.2,0.5-0.4,0.8-0.7,1.1C570.6,283.4,567.7,284.1,564.6,284.1z"/>
	<path class="st0" d="M512.4,284.1c-5.1-0.2-9.3-2.1-11.5-7c-2.3-5-2-10.1,1.4-14.6c3.3-4.4,8.1-5.4,13.3-4.5
		c2.2,0.4,4.2,1.3,5.9,2.8c0.7,0.6,0.9,1.2,0.1,1.8c-0.4,0.3-0.8,0.6-1.1,0.9c-1,1.2-1.9,1.3-3.3,0.3c-4.9-3.4-10.4-1.2-12,4.6
		c-1.6,6.1,2.3,11.4,8.2,11.1c1.6-0.1,3.1-0.5,4.2-1.6c1.2-1.1,1.9-0.8,2.8,0.3c0.2,0.3,0.5,0.6,0.8,0.8c1.1,0.9,1,1.6-0.1,2.5
		C518.5,283.5,515.6,284.2,512.4,284.1z"/>
	<path class="st0" d="M534.8,230.6c-4.8,3.1-9,3-12.1-0.4c-2.8-3.1-3-8.3-0.4-11.6c2.8-3.7,7.3-4.1,12.8-1.1c0-2.3,0-4.4,0-6.6
		c0-1.3,0-2.7,0-4c0-1.1,0.6-1.2,1.5-1.2c0.8,0,1.3,0.2,1.3,1.1c0,0.2,0,0.4,0,0.6c0,7.8,0,15.6,0,23.4c0,0.7,0.1,1.6-1,1.7
		c-1.1,0.1-1.9-0.1-1.9-1.4C535.1,230.9,534.9,230.7,534.8,230.6z M535.1,224.1c0-3.6-2.4-6-5.9-6c-3.3,0.1-5.6,2.4-5.6,5.9
		c0,3.5,2.5,6.2,5.7,6.2C532.7,230.2,535.1,227.6,535.1,224.1z"/>
	<path class="st0" d="M545.4,225.3c1,4.3,4.7,6,8.3,4c0.5-0.3,0.9-0.7,1.4-1c1-0.8,1.6-0.1,2.2,0.5c0.7,0.7,0,1.2-0.4,1.7
		c-3.1,3.3-10,3.1-12.8-0.6c-2.4-3.1-2.7-6.6-0.9-10.2c1.6-3.1,4.8-4.7,8.6-4.3c4.9,0.5,6.9,4.9,6.8,8.4c0,1.1-0.7,1.2-1.5,1.2
		c-2.8,0-5.5,0-8.3,0C547.6,225.1,546.6,225,545.4,225.3z M550,222.5C550,222.5,550,222.5,550,222.5c1.2,0,2.5,0.1,3.7,0
		c1.5-0.1,1.8-0.7,1.2-2c-0.8-1.7-2.6-2.6-5-2.4c-2.1,0.2-3.9,1.5-4.3,3.2c-0.2,0.7,0,1.1,0.8,1.1
		C547.5,222.5,548.7,222.5,550,222.5z"/>
	<path class="st0" d="M665.3,278.6c1.5-3.1,2.5-6.3,3.8-9.5c0.9-2.2,0.9-2.2,3.6-1.9c0.3,0.7-0.1,1.3-0.4,1.8
		c-2.4,6.1-4.8,12.2-7.2,18.3c-0.3,0.8-0.7,1.6-1.1,2.3c-1.2,1.9-3.6,2.8-5.7,2.3c-0.7-0.2-1.2-0.5-1.2-1.3c0.1-0.9,0.4-1.5,1.4-1.3
		c1.4,0.2,2.8-0.2,3.3-1.6c0.7-1.8,2-3.4,1-5.6c-1.8-4-3.4-8.1-5-12.1c-0.3-0.8-0.8-1.5-0.8-2.4c2.6-0.9,2.8-0.8,3.8,1.5
		c1.3,3.2,2.6,6.5,3.9,9.7C664.8,278.6,665,278.6,665.3,278.6z"/>
	<path class="st0" d="M589.5,231c-2,1.8-4.4,2.3-7.1,1.6c-2.4-0.6-3.8-2.2-3.9-4.3c-0.2-2.5,0.8-4.2,3.2-5.2c1.9-0.8,3.9-0.9,5.9-1
		c0.8-0.1,1.9,0.3,2.1-0.9c0.2-1.1-0.5-2.1-1.5-2.5c-2-0.9-3.9-0.6-5.8,0.3c-0.6,0.3-1,0.8-1.8,0.4c-1-0.5-1.2-1.5-0.4-2.2
		c2.2-2,7.9-2.3,10.3-0.6c1.6,1.2,2.2,2.9,2.3,4.7c0.1,3.2,0.1,6.5,0.1,9.7c0,0.5,0.2,1.2-0.6,1.4c-0.7,0.1-1.5,0.4-2.1-0.5
		C590,231.6,590.1,231.1,589.5,231z M587.4,224.5c-2.1,0-3.6,0.3-4.4,0.8c-1,0.6-1.5,1.4-1.4,2.6c0.1,1,0.7,1.7,1.6,2.1
		c2.4,1.1,5.2,0,6.2-2.4C590.5,225.2,590.1,224.5,587.4,224.5z"/>
	<path class="st0" d="M441.7,168.8c0,3.5,0,7,0,10.5c0,2-0.1,2-2.1,2c-0.5,0-0.9,0-1.4,0c-1.1,0.1-1.5-0.5-1.5-1.5
		c0-7.3,0-14.6,0-21.9c0-1.4,0.5-1.9,1.8-1.8c0.5,0,1,0,1.4,0c1.4-0.1,1.8,0.6,1.8,1.9C441.6,161.6,441.7,165.2,441.7,168.8z"/>
	<path class="st0" d="M394.9,168.7c0-3.5,0.1-7.1,0-10.6c0-1.5,0.6-2.1,2-1.9c0.6,0.1,1.1,0,1.7,0c0.8,0,1.2,0.4,1.3,1.2
		c0,0.4,0,0.8,0,1.1c0,6.9,0,13.7,0,20.6c0,0.8,0.4,1.9-0.7,2.2c-1.3,0.3-2.7,0.4-3.9-0.2c-0.5-0.3-0.3-1-0.3-1.6
		C394.9,175.9,394.9,172.3,394.9,168.7z"/>
	<path class="st0" d="M353.7,168.6c0-3.5,0.1-7,0-10.6c0-1.5,0.6-1.9,2-2c2.9,0,2.9-0.1,2.9,2.7c0,6.8,0,13.7,0,20.5
		c0,0.7,0.3,1.7-0.7,1.9c-1.3,0.2-2.7,0.5-3.9-0.2c-0.5-0.3-0.3-1-0.3-1.6C353.7,175.9,353.7,172.3,353.7,168.6z"/>
	<path class="st0" d="M450,219.7c0-3.4,0-6.9,0-10.3c0-2.2,0.1-2.2,2.3-2.2c0.5,0,1,0,1.4,0c1,0,1.3,0.5,1.3,1.4c0,0.2,0,0.4,0,0.6
		c0,7,0,14.1,0,21.1c0,2-0.1,2-2.1,2.1c-2.8,0.1-2.9,0.1-2.9-2.7C450,226.4,450,223.1,450,219.7z"/>
	<path class="st0" d="M358.7,220c0,3.4,0,6.8,0,10.3c0,2.2,0,2.2-2.2,2.3c-2.7,0-2.7,0-2.7-2.6c0-6.8,0-13.5,0-20.3
		c0-2.4,0-2.4,2.3-2.4c2.6,0,2.6,0,2.6,2.7C358.7,213.3,358.7,216.6,358.7,220z"/>
	<path class="st0" d="M358.7,321.9c0,3.5,0,7,0,10.6c0,2-0.1,2-2.1,2.1c-0.5,0-1,0-1.4,0c-1.1,0.1-1.5-0.5-1.4-1.6c0-2.7,0-5.3,0-8
		c0-4.5,0-8.9,0-13.4c0-2.2,0-2.2,2.2-2.3c2.7-0.1,2.7-0.1,2.7,2.6C358.7,315.2,358.7,318.6,358.7,321.9z"/>
	<path class="st0" d="M488.5,270.6c0-3.5,0-7,0-10.5c0-0.7-0.1-1.7,1-1.7c1.2,0,2.5-0.4,3.6,0.3c0.4,0.3,0.3,0.9,0.3,1.3
		c0,7.2,0,14.4,0,21.7c0,1.4-0.5,1.9-1.8,1.8c-0.2,0-0.4,0-0.6,0c-2.4,0-2.4,0-2.4-2.3c0-2.3,0-4.6,0-6.8
		C488.5,273.1,488.5,271.9,488.5,270.6C488.5,270.6,488.5,270.6,488.5,270.6z"/>
	<path class="st0" d="M583.2,271c0,3.4,0,6.9,0,10.3c0,2.1-0.1,2.1-2,2.2c-2.7,0.1-2.7,0.1-2.7-2.6c0-6.9,0-13.7,0-20.6
		c0-0.7-0.3-1.7,0.7-1.9c1.2-0.2,2.5-0.4,3.6,0.2c0.6,0.3,0.4,1,0.4,1.6C583.2,263.8,583.2,267.4,583.2,271z"/>
	<path class="st0" d="M571.3,219c0-3.8,0-7.6,0-11.4c0-1,0-1.9,1.5-1.9c1.3,0,1.6,0.7,1.6,1.8c0,7.7,0,15.4,0,23.1
		c0,1-0.1,1.9-1.5,1.9c-1.6,0-1.6-1-1.6-2.1C571.3,226.6,571.3,222.8,571.3,219z"/>
	<path class="st0" d="M438.7,298.4c-0.6,4.7-3.2,6.4-7.5,5c-1.1-0.3-2.1-0.8-3.2-1.2c-1.6-0.6-3-0.7-3.9,1c-0.3,0.6-0.7,0.8-1.4,0.9
		c-1.3,0.1-1.7-0.3-1.3-1.6c1-3.1,3.7-4.6,6.9-3.7c1.3,0.4,2.5,0.9,3.7,1.4c1.5,0.6,2.8,0.6,3.7-0.9
		C436.6,298,437.6,298.2,438.7,298.4z"/>
	<path class="st0" d="M460.5,151.5c1.8-2.5,3.3-4.5,4.8-6.6c0.5-0.8,1.2-1.1,2.2-1.1c1.6,0,3.2,0,4.7,0c-2.3,2.5-4.5,5.2-6.9,7.4
		C464.3,152.1,462.5,151.5,460.5,151.5z"/>
	<path class="st0" d="M599.4,253.5c1.8-2.5,3.3-4.6,4.9-6.8c0.3-0.5,0.8-0.9,1.4-0.9c1.8,0,3.7,0,5.8,0c-2.5,2.6-4.8,5-7.1,7.3
		C603.6,254,603.2,253.9,599.4,253.5z"/>
	<path class="st0" d="M491,253c-1.9,0.1-3.6-1.6-3.6-3.6c0-1.9,1.5-3.4,3.3-3.6c1.9-0.1,3.7,1.5,3.7,3.4
		C494.5,251.2,492.9,252.9,491,253z"/>
	<path class="st0" d="M356.1,304c-1.9-0.1-3.4-1.7-3.4-3.5c0-2,1.7-3.7,3.7-3.6c2,0.1,3.6,1.9,3.4,3.8
		C359.6,302.6,357.9,304.1,356.1,304z"/>
	<path class="st0" d="M439.2,143.8c1.9,0,3.5,1.5,3.5,3.4c0.1,2-1.6,3.7-3.6,3.6c-1.9,0-3.5-1.5-3.5-3.4
		C435.5,145.5,437.2,143.8,439.2,143.8z"/>
	<path class="st0" d="M356.2,143.8c1.9,0,3.5,1.4,3.6,3.3c0.1,2-1.5,3.7-3.5,3.7c-1.9,0-3.5-1.5-3.6-3.3
		C352.5,145.5,354.1,143.8,356.2,143.8z"/>
	<path class="st0" d="M577.4,249.5c0-2,1.6-3.7,3.6-3.6c1.9,0,3.4,1.6,3.5,3.5c0,2-1.6,3.7-3.6,3.6
		C578.9,252.9,577.4,251.4,577.4,249.5z"/>
	<path class="st0" d="M397.3,150.8c-1.9,0-3.5-1.5-3.5-3.4c-0.1-2,1.5-3.6,3.5-3.6c1.9,0,3.4,1.4,3.5,3.3
		C400.9,149.2,399.4,150.8,397.3,150.8z"/>
	<path class="st0" d="M456.1,198.2c0.1,1.9-1.4,3.5-3.3,3.6c-2,0.1-3.7-1.4-3.8-3.4c-0.1-2,1.5-3.6,3.6-3.6
		C454.5,194.9,456,196.4,456.1,198.2z"/>
	<path class="st0" d="M356.1,201.9c-1.9,0-3.4-1.6-3.4-3.5c0-2,1.6-3.6,3.7-3.5c1.9,0.1,3.4,1.6,3.5,3.5
		C359.8,200.3,358.1,201.9,356.1,201.9z"/>
	<path class="st0" d="M226.7,305.3c0-0.2,0-0.3,0.2-0.3c0,0,0,0.1,0,0.1C226.8,305.2,226.8,305.2,226.7,305.3
		C226.7,305.2,226.7,305.3,226.7,305.3z"/>
</g>
</svg>
