<?xml version="1.0" encoding="utf-8"?>
<!-- Generator: Adobe Illustrator 25.2.3, SVG Export Plug-In . SVG Version: 6.00 Build 0)  -->
<svg version="1.1" id="Capa_1" xmlns="http://www.w3.org/2000/svg" xmlns:xlink="http://www.w3.org/1999/xlink" x="0px" y="0px"
	 viewBox="0 0 612.6 605" style="enable-background:new 0 0 612.6 605;" xml:space="preserve">
<g id="Capa_1_1_">
	<path d="M610.7,13.9c0-0.6-0.1-1.2-0.1-1.8c0-0.2,0-0.4-0.1-0.6c0-0.1,0-0.3,0-0.4v-0.2c-0.1-1.2-0.8-2.3-1.9-2.9
		c-0.3-0.2-0.6-0.4-0.8-0.6c-0.6-0.6-1.4-0.9-2.2-0.9L590,5.9c-67.6-2.1-137.5-4.3-206-3.2h-0.2c-22.6-1-96.6-2-97.3-2h-5.4h-0.9
		l-10-0.1c-7.2-0.1-14.4-0.2-21.7-0.2c-14.5-0.1-29-0.2-43.4-0.3C192,0.1,176.6,0,161.6,0c-15.8,0-30,0-43.5,0.1
		c-15.6,0.1-29.8,0.2-43.5,0.4C59.3,0.8,45.1,1.1,31.3,1.5c-6.4,0.2-13.1,0.4-20.2,0.6c-0.8,0-1.5,0.3-2,0.9C8.6,3.5,8.4,4.3,8.5,5
		c-9.7,92.7-8.8,188-7.9,280.2v0.2c0.1,8,0.2,16,0.2,24c0.5,49.9,0.9,99.8,1.4,149.6l1.1,115.3c0,1.2,0,2.4,0,3.6
		c-0.1,7.2-0.1,13.3,4,19.7c0.8,1.3,2.5,1.9,3.9,1.4c0.4-0.1,0.8-0.2,1.2-0.2c100.9,6,205,4.5,296.9,3.2
		c38.9-0.5,77.1,0.4,114.1,1.3h0.1c11.9,0.3,24.3,0.6,36.4,0.8c0.3,0,0.6,0.1,0.9,0.1l1.2,0.4c0.5,0.1,0.9,0.2,1.4,0.2l0,0l26.2-0.2
		c26.5,0.3,48.9,0.1,70.4-0.7c12.5-0.4,24.8-1,36.6-1.8l3.1-0.2c1.1-0.1,2.1-0.6,2.8-1.4c0.7-0.9,1-2.1,0.8-3.2
		c-0.1-0.3-0.2-0.7-0.3-1c0-0.2-0.1-0.4-0.1-0.6c-0.1-0.4-0.2-0.9-0.1-1.3c6-100.8,4.5-204.9,3.2-296.7
		c-0.6-41.9,1.4-82.2,3.3-121.1c0.7-13.1,1.3-26.7,1.9-40.1C612.6,101.1,613.7,58.8,610.7,13.9z M598.3,297.9c1,64,0,129-0.9,191.9
		c-0.5,33.3-1,67.7-1.2,101.6c0,1.8-1.4,3.2-3.2,3.3c-56.6,2.8-111.8,1.8-165.3,0.7c-28.3-0.6-57.6-1.1-87.3-1.1
		c-11,0-21.1,0.1-31.1,0.2c-64.1,1-129.1,0-192.1-0.9H117c-33.6-0.5-68.3-1-102.5-1.2c-1.4,0-2.6-0.9-3.1-2.2
		c-2.7-7.7-2.1-18.9-1.7-27.9c0.2-3.5,0.3-6.8,0.3-9.7l-0.4-38.2c-0.2-23.2-0.4-47.1-0.7-70.9c-0.5-51.4-1-102.9-1.5-146.5
		C7,252,6.7,203.7,7.7,155.8c0.5-26.9,1.8-54.3,3-80.8c1-20.9,2-42.6,2.6-63.9c0.1-1.9,1.6-3.3,3.5-3.3c0,0,0,0,0,0
		c12.5,0.3,25.3,0.6,39,0.8C70.2,8.8,84.8,8.9,99.2,9c13.7,0,28,0,43.5,0c15.3-0.1,30.6-0.2,43.5-0.3c14.5-0.2,29-0.3,43.5-0.5
		L245.6,8l27.6-0.3l10.1-0.1h1h1.2l9.9,0.2c17.9,0.4,51.3,1.2,73.2,1.5c73.7,3.9,149,3.9,221.9,3.8h9.1c1.8,0,3.2,1.4,3.3,3.2
		c2.8,54.4,0.5,106.2-1.8,156.4C599.5,212.8,597.6,254.4,598.3,297.9L598.3,297.9z"/>
</g>
<g id="Capa_3">
	<path d="M574.1,46.8l-0.1-1.4c0-0.1,0-0.3,0-0.4l0-0.5c-0.1-1.1-0.9-2-2-2.3c-0.5-0.6-1.3-1-2.1-1l-13.2-0.4
		c-59.7-1.6-121.4-3.3-181.9-2.5c-19.8-0.7-85.1-1.5-85.8-1.6h-4.8h-9.5l-19.1-0.1c-12.7-0.1-25.5-0.2-38.3-0.2
		c-14.9-0.1-27.1-0.1-38.3-0.1c-12.7,0-25.6,0-38.3,0.1c-13.9,0.1-26.5,0.2-38.3,0.3c-13.1,0.2-26,0.4-38.2,0.7
		c-5.5,0.1-11.3,0.3-17.8,0.5c-0.6,0-1.2,0.3-1.7,0.7c-0.4,0.4-0.6,0.8-0.6,1.4c-8.6,71.2-7.8,144.5-7,215.3
		c0.1,6.3,0.1,12.5,0.2,18.8c0.4,38.3,0.8,76.7,1.2,115.1l1,88.7c0,0.9,0,1.9,0,2.7c0,5.3-0.1,10.2,3.5,15.2
		c0.9,1.1,2.4,1.5,3.7,0.8c89.1,4.6,181,3.5,262.1,2.5c34.3-0.4,68,0.3,100.6,1c10.6,0.2,21.7,0.5,32.5,0.6l2.1,0.5l23.7-0.2
		c23.4,0.2,43.1,0,62-0.5c11.2-0.3,21.8-0.8,32.2-1.4l2.7-0.2c0.9,0,1.8-0.5,2.4-1.2c0.5-0.6,0.7-1.5,0.6-2.3c0-0.3-0.1-0.5-0.3-0.8
		c-0.1-0.3-0.1-0.5-0.3-0.8c5.3-77.8,4-158,2.8-228.8c-0.5-32.3,1.2-63.3,2.9-93.2c0.6-10.1,1.2-20.5,1.7-30.8
		C575.8,113.9,576.8,81.4,574.1,46.8z M563.7,265.2c0.9,49.2,0,99.2-0.8,147.5c-0.4,25.5-0.9,52-1.1,78c0,1.4-1.2,2.6-2.6,2.6h-1.7
		c-110.1-0.6-198.4-0.6-248.7,0.1c-56.4,0.8-113.6,0-169-0.7c-30.4-0.4-61.8-0.8-92.7-1c-3.3-5.9-2.7-15.5-2.3-23.3
		c0.2-2.7,0.3-5.2,0.3-7.4l-0.3-28.8c-0.2-16.3-0.4-35.6-0.6-55.1c-0.4-37.6-0.8-75.1-1.3-112.7c-0.4-34.7-0.7-71.8,0.2-108.5
		c0.5-20.7,1.6-41.8,2.7-62.2c0.9-17,1.8-34.5,2.4-51.8c12.3,0.3,24.9,0.5,37.5,0.7c12.9,0.2,25.8,0.3,38.3,0.3
		c11.7,0,24.2,0,38.3,0c11.1,0,22.9-0.1,38.3-0.2c12.8-0.1,25.5-0.2,38.3-0.4L264,42l13.7-0.2c3.1,0,6.1-0.1,9.2-0.1
		c0.2,0,4.6,0.1,10.6,0.2c15.6,0.3,44.7,0.9,63.6,1.2c65,3,131.5,3,195.8,2.9h10.7c2.7,42.8,0.6,83.4-1.4,122.8
		C564.7,199.7,563.1,231.7,563.7,265.2z"/>
</g>
<g>
	<defs>
		<path id="SVGID_1_" d="M566.3,168.8c-1.6,31-3.2,63-2.6,96.4c0.9,49.2,0,99.2-0.8,147.5c-0.4,25.6-0.9,52-1.1,78
			c0,1.4-1.2,2.6-2.6,2.6h-1.7c-110.1-0.6-198.4-0.6-248.7,0.1c-56.4,0.8-113.6,0-169-0.7c-30.4-0.4-61.8-0.8-92.7-1
			c-3.3-5.9-2.7-15.5-2.3-23.3c0.1-2.7,0.3-5.2,0.3-7.4l-0.3-28.8c-0.2-16.3-0.4-35.6-0.6-55.1c-0.4-37.5-0.9-75.1-1.3-112.7
			c-0.4-34.7-0.6-71.8,0.2-108.5c0.5-20.7,1.6-41.8,2.7-62.2c0.9-17,1.8-34.5,2.4-51.8c12.3,0.3,24.9,0.5,37.5,0.7
			c12.9,0.2,25.8,0.3,38.3,0.3h38.3c11.1,0,22.9-0.1,38.3-0.2c12.8-0.1,25.5-0.2,38.3-0.4L264,42l13.7-0.2c3.1,0,6.2-0.1,9.2-0.1
			c0.2,0,4.6,0.1,10.6,0.2c15.6,0.3,44.7,0.9,63.7,1.1c65,3,131.5,3,195.8,2.9h10.7C570.4,88.7,568.3,129.4,566.3,168.8z"/>
	</defs>
	<clipPath id="SVGID_2_">
		<use xlink:href="#SVGID_1_"  style="overflow:visible;"/>
	</clipPath>
	<g style="clip-path:url(#SVGID_2_);">
		
			<image style="overflow:visible;" width="1560" height="1170" xlink:href="../../../../Downloads/Fotos para polaroids-ITZEL-20220319T002327Z-001/Fotos para polaroids-ITZEL/Conclusión/CONC_2_nosotras.jpg"  transform="matrix(0.5089 0 0 0.5089 -91.1631 -29.9447)">
		</image>
	</g>
</g>
</svg>
