<?xml version="1.0" encoding="utf-8"?>
<!-- Generator: Adobe Illustrator 25.2.3, SVG Export Plug-In . SVG Version: 6.00 Build 0)  -->
<svg version="1.1" id="Capa_1" xmlns="http://www.w3.org/2000/svg" xmlns:xlink="http://www.w3.org/1999/xlink" x="0px" y="0px"
	 viewBox="0 0 677 413.6" style="enable-background:new 0 0 677 413.6;" xml:space="preserve">
<style type="text/css">
	.st0{fill:#FFFFFF;}
</style>
<g>
	<g>
		<path class="st0" d="M356.3,18.8c0,10.4-8.4,18.8-18.8,18.8c-10.4,0-18.8-8.4-18.8-18.8c0-10.4,8.4-18.8,18.8-18.8
			C347.9,0,356.3,8.4,356.3,18.8z"/>
		<path class="st0" d="M394.6,32.2c-3.8,9.7-14.6,14.5-24.3,10.7c-9.7-3.7-14.5-14.6-10.7-24.3c3.8-9.7,14.6-14.5,24.3-10.7
			C393.6,11.6,398.4,22.5,394.6,32.2z"/>
		<path class="st0" d="M425.5,58.5c-7,7.7-18.9,8.2-26.6,1.2c-7.7-7-8.2-18.9-1.2-26.6c7-7.7,18.9-8.2,26.6-1.2
			C431.9,38.9,432.5,50.8,425.5,58.5z"/>
		<path class="st0" d="M444.8,94.2c-9.3,4.6-20.6,0.9-25.2-8.4c-4.6-9.3-0.9-20.6,8.4-25.2c9.3-4.6,20.6-0.9,25.2,8.4
			C457.9,78.3,454.1,89.6,444.8,94.2z"/>
		<path class="st0" d="M449.9,134.5c-10.3,1-19.5-6.6-20.5-17c-1-10.3,6.6-19.5,17-20.5c10.3-1,19.5,6.6,20.5,17
			C467.8,124.3,460.2,133.5,449.9,134.5z"/>
		<path class="st0" d="M440.1,173.8c-10-2.8-15.8-13.2-13-23.2c2.8-10,13.2-15.8,23.2-13c10,2.8,15.8,13.2,13,23.2
			C460.5,170.9,450.1,176.7,440.1,173.8z"/>
		<path class="st0" d="M416.8,207c-8.3-6.3-10-18-3.7-26.4c6.2-8.3,18-10,26.3-3.7c8.3,6.2,10,18,3.7,26.3
			C436.9,211.6,425.1,213.3,416.8,207z"/>
		<path class="st0" d="M383.1,229.6c-5.5-8.8-2.8-20.4,6-25.9c8.8-5.5,20.4-2.8,25.9,6c5.5,8.8,2.8,20.4-6,25.9
			C400.2,241.1,388.6,238.4,383.1,229.6z"/>
		<path class="st0" d="M343.5,238.4c-1.9-10.2,4.8-20.1,15-22c10.2-1.9,20.1,4.8,22,15c1.9,10.2-4.8,20-15,22
			C355.3,255.3,345.4,248.6,343.5,238.4z"/>
		<path class="st0" d="M303.4,232.4c1.9-10.2,11.7-17,21.9-15.1c10.2,1.9,17,11.7,15.1,21.9c-1.9,10.2-11.7,17-21.9,15.1
			C308.2,252.4,301.5,242.6,303.4,232.4z"/>
		<path class="st0" d="M268.1,212.3c5.4-8.8,17-11.6,25.9-6.2c8.8,5.5,11.6,17,6.2,25.9c-5.4,8.8-17,11.6-25.9,6.2
			C265.4,232.7,262.7,221.1,268.1,212.3z"/>
		<path class="st0" d="M242.5,180.8c8.3-6.3,20.1-4.7,26.4,3.6c6.3,8.3,4.7,20.1-3.6,26.4c-8.3,6.3-20.1,4.7-26.4-3.6
			C232.7,198.9,234.3,187.1,242.5,180.8z"/>
		<path class="st0" d="M230,142.2c10-2.9,20.4,2.9,23.3,12.9c2.9,10-2.9,20.4-12.9,23.3c-10,2.9-20.4-2.9-23.3-12.9
			C214.3,155.5,220,145.1,230,142.2z"/>
		<path class="st0" d="M232.3,101.7c10.3,0.9,18,10.1,17.1,20.4c-0.9,10.3-10.1,18-20.4,17.1c-10.3-0.9-18-10-17.1-20.4
			C212.8,108.4,222,100.8,232.3,101.7z"/>
		<path class="st0" d="M249,64.7c9.3,4.6,13.1,15.9,8.6,25.2c-4.6,9.3-15.9,13.2-25.2,8.6c-9.3-4.6-13.1-15.9-8.5-25.2
			C228.4,64,239.7,60.1,249,64.7z"/>
		<path class="st0" d="M278,36.3c7,7.6,6.5,19.5-1.1,26.6c-7.7,7-19.6,6.5-26.6-1.1c-7-7.6-6.5-19.5,1.1-26.6
			C259.1,28.2,271,28.6,278,36.3z"/>
		<path class="st0" d="M315.3,20.2c3.8,9.7-1,20.6-10.6,24.4c-9.7,3.8-20.6-1-24.4-10.6c-3.8-9.7,1-20.6,10.6-24.4
			C300.5,5.8,311.5,10.6,315.3,20.2z"/>
		<path class="st0" d="M334.5,53c3,7.7-0.8,16.4-8.5,19.4c-7.7,3-16.4-0.8-19.4-8.5c-3-7.7,0.8-16.4,8.5-19.4
			C322.8,41.5,331.5,45.3,334.5,53z"/>
		<path class="st0" d="M367.4,58.1c-0.6,8.2-7.7,14.5-16,13.9c-8.2-0.6-14.5-7.7-13.9-16c0.6-8.2,7.7-14.4,16-13.9
			C361.7,42.7,368,49.8,367.4,58.1z"/>
		<path class="st0" d="M394.9,76.8c-4,7.2-13.2,9.7-20.4,5.7c-7.2-4.1-9.7-13.2-5.7-20.4c4.1-7.2,13.2-9.7,20.4-5.7
			C396.4,60.5,398.9,69.6,394.9,76.8z"/>
		<path class="st0" d="M411.6,105.6c-6.8,4.8-16.1,3.1-20.8-3.6c-4.7-6.8-3.1-16.1,3.6-20.8c6.8-4.8,16.1-3.1,20.8,3.6
			C420,91.5,418.4,100.8,411.6,105.6z"/>
		<path class="st0" d="M414.4,138.7c-8.1,1.4-15.9-4.1-17.3-12.2c-1.4-8.1,4.1-15.9,12.2-17.3c8.1-1.4,15.9,4.1,17.3,12.2
			C428.1,129.6,422.6,137.3,414.4,138.7z"/>
		<path class="st0" d="M402.7,169.9c-8-2.2-12.6-10.5-10.3-18.5c2.2-8,10.5-12.6,18.5-10.3c8,2.2,12.6,10.5,10.3,18.5
			C418.9,167.5,410.7,172.1,402.7,169.9z"/>
		<path class="st0" d="M378.8,193c-6.2-5.4-6.8-14.9-1.4-21.1c5.4-6.2,14.9-6.8,21.1-1.4c6.2,5.4,6.8,14.9,1.4,21.1
			C394.4,197.8,385,198.4,378.8,193z"/>
		<path class="st0" d="M347.2,203.5c-3.3-7.6,0.2-16.4,7.8-19.6c7.6-3.3,16.4,0.2,19.7,7.8c3.3,7.6-0.2,16.4-7.8,19.7
			C359.3,214.6,350.5,211.1,347.2,203.5z"/>
		<path class="st0" d="M314.2,199.5c0.3-8.3,7.2-14.7,15.5-14.4c8.3,0.3,14.7,7.2,14.4,15.5c-0.3,8.3-7.2,14.7-15.5,14.4
			C320.3,214.7,313.9,207.8,314.2,199.5z"/>
		<path class="st0" d="M286.1,181.7c3.8-7.3,12.8-10.2,20.2-6.3c7.3,3.8,10.2,12.8,6.4,20.2c-3.8,7.3-12.8,10.2-20.2,6.3
			C285.1,198,282.3,189,286.1,181.7z"/>
		<path class="st0" d="M268.4,153.5c6.6-5,16-3.7,20.9,2.9c5,6.6,3.7,16-2.9,20.9c-6.6,5-16,3.7-20.9-2.9
			C260.4,167.9,261.8,158.5,268.4,153.5z"/>
		<path class="st0" d="M263.8,119.2c8.1-1.7,16,3.5,17.6,11.6c1.7,8.1-3.5,16-11.6,17.7c-8.1,1.7-16-3.6-17.6-11.7
			C250.5,128.7,255.7,120.8,263.8,119.2z"/>
		<path class="st0" d="M276.1,86.7c8,2,12.9,10.1,10.9,18.1c-2,8-10.1,12.9-18.1,10.9c-8-2-12.9-10.1-10.9-18.1
			C260,89.6,268.1,84.7,276.1,86.7z"/>
		<path class="st0" d="M300.9,62.8c6.4,5.2,7.3,14.7,2.1,21c-5.2,6.4-14.6,7.3-21,2.1c-6.4-5.2-7.3-14.6-2.1-21
			C285.1,58.5,294.5,57.6,300.9,62.8z"/>
		<path class="st0" d="M328.3,85.7c1.9,5.4-1.1,11.3-6.5,13.1c-5.4,1.8-11.3-1.1-13.1-6.5c-1.8-5.4,1.1-11.3,6.5-13.2
			C320.6,77.4,326.5,80.3,328.3,85.7z"/>
		<path class="st0" d="M352.8,86.1c-1.4,5.6-7,9-12.5,7.6c-5.6-1.4-9-7-7.6-12.5c1.4-5.6,7-9,12.5-7.6
			C350.8,74.9,354.2,80.6,352.8,86.1z"/>
		<path class="st0" d="M373.2,99.7c-4.1,4-10.7,3.8-14.7-0.4c-4-4.1-3.8-10.7,0.3-14.6c4.1-4,10.7-3.8,14.7,0.3
			C377.5,89.1,377.4,95.7,373.2,99.7z"/>
		<path class="st0" d="M383.1,122.1c-5.6,1.1-11.1-2.5-12.2-8.2c-1.1-5.6,2.5-11.1,8.2-12.2c5.6-1.1,11.1,2.5,12.2,8.2
			C392.4,115.5,388.8,121,383.1,122.1z"/>
		<path class="st0" d="M379.5,146.3c-5.3-2.1-8-8.1-5.9-13.4c2.1-5.3,8.1-8,13.4-5.9c5.3,2.1,8,8.1,5.9,13.4
			C390.8,145.8,384.8,148.4,379.5,146.3z"/>
		<path class="st0" d="M363.4,164.7c-3.4-4.6-2.4-11.1,2.3-14.5c4.6-3.4,11.1-2.4,14.5,2.3c3.4,4.6,2.4,11.1-2.3,14.5
			C373.2,170.4,366.7,169.4,363.4,164.7z"/>
		<path class="st0" d="M339.8,171.6c-0.4-5.7,4-10.6,9.7-11c5.7-0.4,10.6,4,11,9.7c0.4,5.7-4,10.6-9.7,11
			C345.1,181.7,340.2,177.3,339.8,171.6z"/>
		<path class="st0" d="M316.3,164.8c2.8-5,9.1-6.8,14.1-4c5,2.8,6.8,9.1,4,14.1c-2.8,5-9.1,6.8-14.1,4.1
			C315.4,176.1,313.6,169.8,316.3,164.8z"/>
		<path class="st0" d="M300.2,146.3c5-2.7,11.3-0.9,14,4.2c2.7,5,0.9,11.3-4.2,14.1c-5,2.7-11.3,0.9-14.1-4.2
			C293.3,155.4,295.1,149.1,300.2,146.3z"/>
		<path class="st0" d="M296.5,122.1c5.7,0.4,10,5.4,9.6,11.1c-0.4,5.7-5.4,10-11.1,9.6c-5.7-0.4-10-5.4-9.6-11.1
			C285.8,126,290.8,121.7,296.5,122.1z"/>
		<path class="st0" d="M306.4,99.7c4.6,3.4,5.6,9.9,2.1,14.5c-3.4,4.6-9.9,5.6-14.5,2.2c-4.6-3.4-5.6-9.9-2.1-14.5
			C295.3,97.3,301.8,96.3,306.4,99.7z"/>
		<path class="st0" d="M331.8,106.8c3.7,3,4.2,8.5,1.2,12.2c-3,3.7-8.5,4.2-12.2,1.2c-3.7-3-4.2-8.5-1.2-12.2
			C322.6,104.3,328.1,103.8,331.8,106.8z"/>
		<path class="st0" d="M354.3,110.4c-0.8,4.7-5.2,7.9-9.9,7.1c-4.7-0.8-7.9-5.2-7.1-9.9c0.8-4.7,5.2-7.9,9.9-7.1
			C351.9,101.3,355.1,105.7,354.3,110.4z"/>
		<path class="st0" d="M362.3,131.7c-4.5,1.7-9.5-0.6-11.1-5.1c-1.7-4.5,0.6-9.5,5-11.1c4.5-1.7,9.4,0.6,11.1,5.1
			C369.1,125.1,366.8,130.1,362.3,131.7z"/>
		<path class="st0" d="M347.9,149.4c-3.7-3-4.2-8.5-1.2-12.2c3-3.7,8.5-4.2,12.2-1.2c3.7,3,4.2,8.5,1.2,12.2
			C357,151.9,351.6,152.4,347.9,149.4z"/>
		<path class="st0" d="M325.4,145.6c0.8-4.7,5.3-7.9,10-7.1c4.7,0.8,7.9,5.2,7.1,10c-0.8,4.7-5.2,7.9-10,7.1
			C327.8,154.8,324.6,150.4,325.4,145.6z"/>
		<path class="st0" d="M317.4,124.3c4.5-1.7,9.5,0.6,11.1,5.1c1.7,4.5-0.6,9.5-5.1,11.1c-4.5,1.7-9.4-0.6-11.1-5.1
			C310.7,131,313,126,317.4,124.3z"/>
		<path class="st0" d="M344.6,122.4c3.2,2.6,3.6,7.2,1,10.4c-2.6,3.2-7.2,3.6-10.4,1c-3.2-2.6-3.6-7.2-1-10.4
			C336.7,120.2,341.4,119.8,344.6,122.4z"/>
	</g>
	<path class="st0" d="M156.6,339.5c-1.1,4.1-2.2,8.3-3.1,12.5c-3.7,0.7-7,1.2-10,1.5c-3,0.3-5.6,0.4-7.7,0.4
		c-4.7,0-9.2-0.7-13.3-2.2c-4.1-1.5-7.8-3.8-10.9-7c-3.1-3.2-5.2-7-6.2-11.5c-1.1-4.5-1.3-9.4-0.7-14.8c0.6-5.8,2.2-11.2,4.6-16.1
		c2.4-4.9,5.5-9.1,9.4-12.5c3.8-3.4,8.3-5.9,13.2-7.6c4.9-1.7,10-2.5,15.2-2.5c5.1,0,10.6,0.6,16.5,1.9c-0.2,3.1-0.4,5.3-0.4,6.6
		l-0.3,5.6c-3.5-1-6.3-1.8-8.7-2.2c-2.3-0.4-4.6-0.6-6.7-0.6c-3.4,0-6.7,0.6-9.9,1.7c-3.2,1.1-6.2,3-8.8,5.4c-2.6,2.5-4.8,5.5-6.5,9
		c-1.7,3.5-2.7,7.2-3.1,11c-0.5,4.6-0.2,8.6,1,12.2c1.2,3.6,3.4,6.5,6.6,8.8c3.2,2.2,7.4,3.3,12.6,3.3
		C144,342.7,149.8,341.6,156.6,339.5L156.6,339.5z M209.9,279.7c4.7,0,9.1,0.7,13.3,2.2c4.2,1.4,7.7,3.8,10.7,7
		c3,3.2,5.1,7,6.3,11.3c1.2,4.3,1.5,9.3,0.9,15.1c-0.6,5.4-2,10.5-4.1,15.5c-2.2,4.9-5.1,9.2-8.9,12.7c-3.8,3.5-8.2,6.2-13.2,7.9
		c-5,1.7-10.2,2.6-15.5,2.6c-5.1,0-9.8-0.8-14.3-2.4c-4.5-1.6-8.2-4-11.2-7.4c-3-3.4-5-7.2-5.9-11.6c-1-4.4-1.2-9.1-0.6-14.2
		c0.6-5.6,2.1-10.9,4.4-16c2.4-5.1,5.5-9.3,9.4-12.6c3.9-3.3,8.3-5.9,13.2-7.6C199.3,280.5,204.4,279.7,209.9,279.7L209.9,279.7z
		 M207.9,290.8c-4.8,0-9,1.2-12.8,3.7c-3.8,2.4-6.8,5.8-9.1,10c-2.2,4.2-3.6,8.8-4.2,13.7c-0.5,4.6-0.1,8.8,1.2,12.6
		c1.3,3.8,3.6,6.8,6.9,8.8c3.3,2,7.1,3,11.2,3c3.1,0,6.2-0.6,9.1-1.8c3-1.2,5.6-3,7.9-5.4c2.3-2.4,4.2-5.4,5.6-8.8
		c1.4-3.4,2.3-7,2.7-10.7c0.4-3.5,0.3-6.8-0.3-10c-0.6-3.2-1.7-5.9-3.4-8.2c-1.7-2.3-3.9-4-6.5-5.1
		C213.8,291.4,210.9,290.8,207.9,290.8L207.9,290.8z M246,352.7c1.3-6.3,2.5-13.3,3.7-21.1l3.9-25.7c1.4-9.3,2.5-17.6,3.3-24.9
		c3.7,0.1,6.8,0.1,9.3,0.1c1.9,0,4.7,0,8.3-0.1c2.8,6.9,6.7,15.9,11.8,27c5.1,11.1,9.1,20.3,12.2,27.6l7.1-48.8
		c0.2-1.1,0.4-3.1,0.7-5.8c3,0.1,5.2,0.1,6.7,0.1c0.6,0,2.8,0,6.6-0.1l-3.3,19.3l-5.1,33l-2.7,19.5c-3.3-0.1-6.1-0.1-8.4-0.1
		c-1.8,0-4.8,0-8.9,0.1c-1.2-3.1-2.2-5.4-2.8-6.9c-1-2.3-3.3-7.1-6.7-14.3c-2.2-4.7-5-10.9-8.4-18.3c-2.5-5.5-4.5-10.2-6.3-14.3
		c-0.9,5.7-2.4,16.2-4.6,31.6c-0.9,6.3-1.9,13.7-2.9,22.2c-3-0.1-5.1-0.1-6.4-0.1C252,352.5,249.6,352.6,246,352.7L246,352.7z
		 M313.6,352.7c4-0.1,6.7-0.1,8.2-0.1l7.7,0.1c4.4-8.6,9-17.1,13.6-25.5H368c0.8,3.3,1.7,7.6,2.7,12.9c1,5.3,1.8,9.5,2.2,12.6
		c3.9-0.1,6.6-0.1,8.3-0.1l7.1,0.1l-1.4-5.8l-9.9-44.5l-4.4-21.5c-2.9,0.1-5.8,0.1-8.8,0.1c-1.7,0-4.6,0-8.7-0.1
		c-3.2,6-7.2,13.1-12,21.3l-15.3,26.5C322.3,338.2,317.6,346.2,313.6,352.7L313.6,352.7z M348.5,316.2l8.5-15.4l4.8-8.8l4.8,24.3
		H348.5L348.5,316.2z M449.4,339.5c-1.1,4.1-2.2,8.3-3.2,12.5c-3.7,0.7-7,1.2-10,1.5c-3,0.3-5.6,0.4-7.7,0.4
		c-4.7,0-9.2-0.7-13.3-2.2c-4.1-1.5-7.8-3.8-10.9-7c-3.1-3.2-5.2-7-6.2-11.5c-1.1-4.5-1.3-9.4-0.7-14.8c0.6-5.8,2.2-11.2,4.6-16.1
		c2.4-4.9,5.5-9.1,9.4-12.5c3.8-3.4,8.3-5.9,13.2-7.6c4.9-1.7,10-2.5,15.2-2.5c5.1,0,10.6,0.6,16.5,1.9c-0.2,3.1-0.4,5.3-0.4,6.6
		l-0.3,5.6c-3.4-1-6.3-1.8-8.7-2.2c-2.3-0.4-4.5-0.6-6.7-0.6c-3.4,0-6.7,0.6-9.9,1.7c-3.2,1.1-6.2,3-8.8,5.4c-2.6,2.5-4.8,5.5-6.5,9
		c-1.7,3.5-2.7,7.2-3.1,11c-0.5,4.6-0.1,8.6,1,12.2c1.2,3.6,3.4,6.5,6.6,8.8c3.2,2.2,7.4,3.3,12.6,3.3
		C436.7,342.7,442.5,341.6,449.4,339.5L449.4,339.5z M471.1,352.7c0.8-3.9,1.8-9,2.8-15.3c1.1-6.3,1.9-11.3,2.3-15l-16.7-41.5
		c3.6,0.1,6.3,0.1,8.3,0.1c1.9,0,4.4,0,7.6-0.1c1,3.6,2.6,8.3,4.7,13.9c2.1,5.6,3.9,10.7,5.3,15.4l16.8-25.2c0.6-0.9,1.4-2.2,2.5-4
		c3.1,0.1,5.8,0.1,8.1,0.1c1.2,0,3.8,0,7.6-0.1L490,323.5l-2,13.3c-0.6,3.9-1.3,9.2-2.2,15.8c-3.4-0.1-5.8-0.1-7.4-0.1
		C476.9,352.5,474.5,352.6,471.1,352.7L471.1,352.7z M528.5,352.7c4.4-0.1,6.9-0.1,7.7-0.1l7.2,0.1c0.3-2.8,0.6-5.4,0.9-8l0.8-6.2
		l5.4-36.9l1.6-9.6h3.6c5.2,0,10.7,0.2,16.4,0.5c0.3-2.7,0.8-6.5,1.7-11.5l-9.1,0.1l-17,0.1c-9.9,0-19.4,0-28.5-0.1
		c-0.3,2.6-0.9,6.5-1.7,11.5l11-0.4l3-0.1l3.1,0h3.3l-3.1,22.5l-3.5,22.9L528.5,352.7z"/>
	<g>
		<path class="st0" d="M2.8,386.3c1-1.5,2.3-2.9,3.9-4.2c1.6-1.3,3.3-2.3,5.1-2.9c1.9-0.7,3.8-1,5.9-1c0.1,0,0.2,0,0.4,0
			c0.1,0,0.2,0,0.4,0c0.1,0,0.2,0,0.4,0c0.1,0,0.2,0,0.4,0c0.2,0,0.5,0,0.8,0.1c0.3,0,0.5,0,0.8,0.1c0.5,0,1,0.1,1.5,0.2
			c0.5,0.1,1,0.2,1.4,0.3c0.5,0.1,0.9,0.3,1.3,0.5c0.4,0.2,0.8,0.4,1.1,0.6l-1.7,2.8h-0.3c-0.3-0.4-0.7-0.8-1.1-1.1
			c-0.4-0.3-0.8-0.6-1.2-0.9c-0.4-0.2-0.9-0.4-1.3-0.6c-0.4-0.2-0.9-0.3-1.4-0.4c-0.1,0-0.3,0-0.4-0.1c-0.1,0-0.3,0-0.4-0.1
			c-0.1,0-0.1,0-0.2,0c-0.1,0-0.1,0-0.2,0c-0.1,0-0.1,0-0.2,0c-0.1,0-0.1,0-0.2,0c-1.3,0-2.6,0.2-3.9,0.7c-1.3,0.5-2.6,1.2-3.8,2.2
			c-1.3,1-2.3,2.2-3.2,3.5c-0.9,1.4-1.5,2.9-2,4.7c0,0.1,0,0.1-0.1,0.1c0,0,0,0.1,0,0.1c0,0,0,0,0,0.1c0,0,0,0,0,0.1c0,0,0,0,0,0.1
			c0,0,0,0,0,0.1c-0.5,2.1-0.7,3.9-0.6,5.4c0.1,1.5,0.6,2.7,1.4,3.5c0.8,0.9,1.7,1.5,2.7,2c1,0.4,2.2,0.6,3.4,0.6c0,0,0.1,0,0.1,0
			c0,0,0.1,0,0.1,0c0,0,0.1,0,0.2,0c0.1,0,0.1,0,0.2,0c0.7,0,1.4-0.1,2.1-0.3c0.7-0.1,1.4-0.3,2.1-0.6c0.7-0.2,1.4-0.5,2.1-0.9
			c0.7-0.3,1.3-0.7,1.9-1.1l-0.9,2.3c-0.1,0.1-0.3,0.2-0.4,0.3c-0.1,0.1-0.3,0.1-0.4,0.2c-0.3,0.1-0.5,0.2-0.8,0.4
			c-0.3,0.1-0.5,0.2-0.8,0.3c-0.3,0.1-0.6,0.2-0.9,0.3c-0.3,0.1-0.6,0.2-0.8,0.3c-0.1,0-0.2,0.1-0.3,0.1c-0.1,0-0.2,0-0.3,0.1
			c-0.4,0.1-0.8,0.1-1.1,0.2c-0.4,0.1-0.7,0.1-1.1,0.2c-0.3,0-0.7,0.1-1,0.1c-0.3,0-0.7,0-1,0c-1.8,0-3.4-0.3-4.8-0.8
			c-1.4-0.6-2.6-1.5-3.6-2.7c-1-1.2-1.6-2.6-1.8-4.3c-0.2-1.6,0-3.5,0.5-5.6v-0.1C1.1,389.5,1.8,387.8,2.8,386.3z"/>
		<path class="st0" d="M25.3,391.7c0.7-1.2,1.7-2.2,2.8-3.1c1.1-0.9,2.3-1.6,3.6-2.1c1.3-0.5,2.7-0.7,4.1-0.7c1.1,0,2,0.1,2.8,0.4
			c0.8,0.3,1.4,0.7,1.9,1.2c0.5,0.5,0.8,1.1,1.1,1.6c0.3,0.6,0.5,1.2,0.6,1.8c0,0.4,0.1,0.8,0.1,1.2c0,0.4,0,0.8,0,1.2
			c0,0.4-0.1,0.7-0.1,1.1c0,0.3-0.1,0.6-0.2,0.8c-0.1,0.2-0.1,0.5-0.2,0.7c-0.1,0.2-0.2,0.5-0.3,0.7c-0.1,0.2-0.2,0.5-0.3,0.7
			c-0.1,0.2-0.2,0.5-0.4,0.7c-0.5,0.8-1,1.5-1.7,2.2c-0.7,0.7-1.4,1.4-2.3,2c-0.9,0.6-1.8,1.1-2.9,1.4c-1.1,0.3-2.2,0.5-3.4,0.5
			c0,0-0.1,0-0.1,0c0,0-0.1,0-0.1,0c0,0-0.1,0-0.1,0c0,0-0.1,0-0.1,0c0,0,0,0-0.1,0c-1.4,0-2.6-0.2-3.5-0.6c-1-0.4-1.7-1-2.3-1.8
			c-0.5-0.8-0.9-1.7-1-2.7c-0.1-1,0-2.1,0.3-3.2v-0.1C24,394.2,24.5,392.9,25.3,391.7z M26.9,396.5c0,0.2-0.1,0.5-0.1,0.8
			c0,0.3,0,0.6-0.1,0.9c0,0.3,0,0.6,0.1,1c0,0.4,0.2,0.9,0.3,1.3c0.2,0.4,0.4,0.8,0.7,1.2c0.3,0.4,0.7,0.7,1.1,0.9
			c0.5,0.2,1.1,0.3,1.8,0.4c0.8,0,1.6-0.2,2.3-0.5c0.8-0.3,1.5-0.8,2.2-1.5c0.7-0.6,1.3-1.5,1.9-2.4c0.6-1,1.1-2.1,1.5-3.4
			c0.3-1.2,0.5-2.2,0.5-3.2c0-0.9-0.1-1.8-0.3-2.5c-0.2-0.7-0.7-1.3-1.3-1.6c-0.6-0.4-1.4-0.6-2.3-0.6c-0.9,0-1.8,0.2-2.6,0.6
			c-0.8,0.4-1.6,1-2.3,1.8c-0.7,0.8-1.3,1.6-1.8,2.4c-0.5,0.9-0.9,1.7-1.2,2.7c0,0,0,0.1-0.1,0.1c0,0.1,0,0.1,0,0.1
			c0,0,0,0.1-0.1,0.1c0,0,0,0.1,0,0.1c0,0,0,0.1,0,0.1c0,0,0,0.1,0,0.1c0,0,0,0.1-0.1,0.1c0,0,0,0.1,0,0.1c0,0.1,0,0.1-0.1,0.2
			c0,0.1,0,0.1,0,0.2l0-0.1C27,396.1,26.9,396.3,26.9,396.5z"/>
		<path class="st0" d="M49,385.7c0.1,0,0.2,0.1,0.3,0.1c0.1,0,0.2,0.1,0.3,0.1c0,0,0.1,0,0.1,0c0,0,0.1,0,0.2,0c0,0,0.1,0,0.1,0
			c0,0,0.1,0,0.1,0c0,0,0,0,0.1,0c0,0,0,0,0.1,0c0,0,0,0,0.1,0c0,0,0,0,0.1,0c0,0,0.1,0,0.1,0c0,0,0.1,0,0.1,0c0.1,0,0.2,0,0.3,0
			c0.1,0,0.2,0,0.3,0c0.1,0,0.3-0.1,0.4-0.1c0.1,0,0.3-0.1,0.4-0.1l-0.9,3.1c0.1,0,0.2-0.1,0.3-0.2c0.1-0.1,0.2-0.2,0.4-0.4
			c0.1-0.1,0.3-0.2,0.4-0.4c0.1-0.1,0.3-0.3,0.5-0.4c0.3-0.2,0.7-0.5,1-0.7c0.4-0.2,0.8-0.4,1.3-0.7c0.5-0.2,1-0.4,1.5-0.5
			c0.5-0.1,1.1-0.2,1.7-0.2h0c0,0,0,0,0.1,0c0.7,0,1.4,0.2,1.9,0.5c0.6,0.3,1.1,0.7,1.5,1.3c0.4,0.6,0.7,1.3,0.7,2.3
			c0,1-0.1,2.1-0.5,3.5l-2.8,10.7c0,0-0.1,0-0.1,0c0,0-0.1,0-0.1,0c-0.1,0-0.1,0-0.2,0c0,0-0.1,0-0.1,0c0,0-0.1,0-0.2,0
			c-0.1,0-0.2,0-0.2,0c0,0-0.1,0-0.1,0c0,0-0.1,0-0.1,0c-0.1,0-0.3,0-0.4,0c-0.1,0-0.3,0-0.5,0.1c-0.1,0-0.3,0-0.5,0.1
			c-0.2,0-0.3,0-0.5,0l2.8-10.8c0.2-0.8,0.3-1.6,0.3-2.2c0-0.7-0.2-1.2-0.5-1.6c-0.3-0.4-0.7-0.8-1.1-1c-0.4-0.2-0.9-0.3-1.4-0.3
			c0,0,0,0-0.1,0c0,0,0,0-0.1,0c0,0,0,0-0.1,0c0,0,0,0-0.1,0c-0.6,0-1.1,0.2-1.7,0.4c-0.6,0.3-1.2,0.7-1.7,1.1
			c-0.6,0.5-1.1,1.1-1.5,1.8c-0.4,0.7-0.7,1.5-1,2.5l-2.7,10.1c-0.1,0-0.3,0-0.4,0c-0.1,0-0.3,0-0.4-0.1c-0.1,0-0.1,0-0.2,0
			c-0.1,0-0.1,0-0.2,0c-0.1,0-0.1,0-0.2,0c-0.1,0-0.1,0-0.2,0c-0.1,0-0.3,0-0.4,0c-0.1,0-0.3,0-0.4,0.1c-0.1,0-0.1,0-0.2,0
			c-0.1,0-0.1,0-0.2,0c-0.1,0-0.1,0-0.2,0c-0.1,0-0.1,0-0.2,0L49,385.7z"/>
		<path class="st0" d="M68.1,388.7c0.5-0.7,1.2-1.3,1.9-1.7c0.4-0.2,0.8-0.4,1.2-0.6c0.4-0.2,0.8-0.3,1.2-0.4
			c0.4-0.1,0.8-0.2,1.2-0.3c0.4-0.1,0.8-0.1,1.2-0.1c0.2,0,0.5,0,0.7,0c0.2,0,0.5,0.1,0.7,0.1c0.1,0,0.2,0,0.4,0.1
			c0.1,0,0.2,0,0.4,0.1c0.3,0.1,0.7,0.2,1,0.3c0.3,0.1,0.6,0.3,0.8,0.4l-1.7,2.8h-0.6c0-0.3-0.1-0.7-0.2-0.9
			c-0.1-0.3-0.3-0.5-0.6-0.7c-0.2-0.2-0.5-0.3-0.8-0.4c-0.3-0.1-0.6-0.2-0.9-0.2c0,0-0.1,0-0.1,0c0,0,0,0-0.1,0
			c-0.4,0-0.7,0-1.1,0.1c-0.4,0.1-0.7,0.2-1.1,0.4c-0.4,0.2-0.7,0.4-1,0.7c-0.3,0.3-0.5,0.6-0.7,1c0,0,0,0.1-0.1,0.1c0,0,0,0,0,0.1
			c0,0,0,0,0,0.1c0,0,0,0.1,0,0.1c0,0-0.1,0.1-0.1,0.1c0,0,0,0.1,0,0.1c0,0,0,0,0,0.1c0,0,0,0,0,0.1c-0.1,0.4-0.1,0.8,0,1.2
			c0.1,0.3,0.3,0.6,0.6,0.9c0.3,0.2,0.7,0.4,1,0.6c0.4,0.2,0.8,0.4,1.2,0.5c0,0,0.1,0,0.1,0.1c0,0,0.1,0,0.1,0c0,0,0.1,0,0.1,0.1
			c0,0,0.1,0,0.1,0.1c0.1,0,0.2,0.1,0.2,0.1c0.1,0,0.2,0,0.3,0.1c0,0,0.1,0,0.1,0.1c0,0,0.1,0.1,0.1,0.1c0,0,0.1,0,0.1,0.1
			c0,0,0.1,0,0.1,0c0.6,0.2,1.1,0.5,1.5,0.8c0.4,0.3,0.7,0.7,0.9,1.1c0.2,0.4,0.3,0.8,0.4,1.2c0,0.4,0,0.8-0.1,1.3v0
			c0,0,0,0.1,0,0.1c0,0,0,0,0,0.1s0,0,0,0.1c-0.2,0.7-0.6,1.4-1.1,2c-0.5,0.6-1.2,1.2-1.9,1.8c-0.8,0.6-1.6,1-2.5,1.3
			c-0.9,0.3-1.7,0.4-2.7,0.4c-0.5,0-1,0-1.5-0.1c-0.5-0.1-0.9-0.1-1.4-0.2c-0.5,0-0.9-0.2-1.2-0.4c-0.3-0.2-0.6-0.4-0.8-0.7l1.6-2.7
			h0.6c0.1,0.4,0.2,0.7,0.4,1c0.1,0.3,0.3,0.5,0.5,0.7c0.2,0.2,0.4,0.4,0.6,0.5c0.2,0.1,0.4,0.3,0.6,0.3c0.1,0,0.2,0.1,0.3,0.1
			c0.1,0,0.2,0.1,0.3,0.1c0.1,0,0.2,0,0.3,0c0.1,0,0.2,0,0.3,0c0.2,0,0.4,0,0.7,0c0.2,0,0.5-0.1,0.7-0.1c0.2-0.1,0.4-0.2,0.7-0.3
			c0.2-0.1,0.5-0.3,0.7-0.4c0.4-0.3,0.8-0.7,1.1-1c0.3-0.3,0.5-0.7,0.7-1.1c0,0,0,0,0-0.1c0,0,0-0.1,0-0.1c0,0,0,0,0-0.1
			c0,0,0,0,0-0.1c0.1-0.6,0.1-1,0-1.4c-0.1-0.4-0.4-0.7-0.7-0.9c-0.3-0.2-0.7-0.4-1.1-0.5c-0.4-0.2-0.8-0.3-1.2-0.5c0,0-0.1,0-0.1,0
			c0,0,0,0-0.1,0c0,0,0,0-0.1,0c0,0,0,0,0,0c0,0,0,0-0.1,0s0,0-0.1,0c-0.1,0-0.1,0-0.1-0.1c0,0-0.1,0-0.1-0.1c0,0-0.1,0-0.1,0
			c0,0-0.1,0-0.1-0.1c0,0-0.1,0-0.1-0.1c0,0-0.1,0-0.1-0.1c0,0-0.1,0-0.1-0.1c0,0-0.1,0-0.1-0.1c-0.4-0.1-0.7-0.3-1.1-0.6
			c-0.3-0.2-0.6-0.5-0.8-0.9c-0.2-0.3-0.4-0.8-0.4-1.2c0-0.5,0-1.1,0.2-1.7v-0.1C67.2,390.3,67.6,389.4,68.1,388.7z"/>
		<path class="st0" d="M81.2,391.4c0.7-1.2,1.6-2.2,2.7-3c1.1-0.8,2.1-1.4,3.3-1.8c1.1-0.4,2.2-0.6,3.4-0.6c1,0,1.9,0.1,2.7,0.4
			c0.7,0.3,1.3,0.6,1.7,1.1c0.4,0.5,0.8,1.1,1,1.6c0.2,0.6,0.4,1.1,0.4,1.8c0,0.2,0,0.5,0,0.8c0,0.3,0,0.5-0.1,0.8
			c0,0.1,0,0.2,0,0.2c0,0.1,0,0.2-0.1,0.2c0,0.2,0,0.3-0.1,0.5c0,0.1,0,0.3-0.1,0.4c0,0.1-0.1,0.2-0.1,0.4c0,0.1-0.1,0.2-0.1,0.3
			c0,0.1-0.1,0.2-0.1,0.3c0,0.1-0.1,0.2-0.1,0.3L83.2,395c-0.3,1.1-0.4,2.1-0.5,3c0,0.9,0.1,1.7,0.4,2.3c0.3,0.7,0.8,1.2,1.6,1.5
			c0.8,0.3,1.8,0.5,3,0.5c0.5,0,1,0,1.5-0.1c0.5-0.1,1-0.3,1.6-0.5c0.5-0.2,1-0.4,1.5-0.7c0.5-0.3,0.9-0.6,1.3-1l-0.3,2
			c0,0,0,0,0,0.1c0,0,0,0,0,0.1c0,0,0,0-0.1,0h0l0,0c0,0-0.1,0-0.1,0.1c0,0-0.1,0.1-0.1,0.1c0,0-0.1,0-0.1,0.1c0,0-0.1,0-0.1,0.1
			c-0.5,0.2-0.9,0.5-1.4,0.7c-0.5,0.2-0.9,0.4-1.4,0.6c-0.5,0.2-1.1,0.3-1.7,0.4c-0.6,0.1-1.3,0.1-2.1,0.1c-1.5-0.1-2.7-0.3-3.7-0.8
			c-1-0.5-1.7-1.1-2.1-2c-0.4-0.9-0.7-1.8-0.8-2.8c-0.1-1,0-2,0.2-3.1v-0.1C79.9,394,80.5,392.6,81.2,391.4z M93.2,393.4
			c0-0.1,0-0.1,0.1-0.2c0,0,0-0.1,0-0.1c0,0,0-0.1,0-0.1c0,0,0-0.1,0-0.1c0,0,0-0.1,0-0.1c0.1-0.7,0.2-1.3,0.2-1.9
			c0-0.6-0.1-1.2-0.3-1.7c-0.2-0.6-0.5-1-1-1.3c-0.5-0.3-1.2-0.4-2.1-0.4c-0.6,0-1.3,0.1-1.8,0.4c-0.6,0.2-1.1,0.6-1.6,1
			c-0.5,0.5-1,0.9-1.4,1.4c-0.4,0.5-0.7,1-1,1.6c-0.1,0.1-0.2,0.3-0.3,0.4c-0.1,0.1-0.1,0.3-0.2,0.4c0,0.1-0.1,0.3-0.1,0.4
			c0,0.1-0.1,0.3-0.1,0.4l9.6-0.1C93.2,393.5,93.2,393.5,93.2,393.4z"/>
		<path class="st0" d="M103.3,386c0.1,0.1,0.2,0.1,0.3,0.2c0.1,0,0.2,0.1,0.4,0.1c0.1,0,0.2,0,0.3,0c0.1,0,0.2,0,0.4,0
			c0.1,0,0.3,0,0.4,0c0.1,0,0.3,0,0.4,0c0.1,0,0.2-0.1,0.4-0.1c0.1,0,0.2-0.1,0.4-0.1l-5.5,20.3c-0.2,1-0.6,1.8-1.1,2.7
			c-0.5,0.8-1.1,1.6-1.9,2.2c-0.7,0.6-1.5,1.1-2.2,1.5c-0.7,0.3-1.4,0.5-2.1,0.5c0,0-0.1,0-0.1,0s-0.1,0-0.1,0c0,0-0.1,0-0.1,0
			c0,0-0.1,0-0.1,0c0,0-0.1,0-0.1,0c0,0-0.1,0-0.1,0c0,0-0.1,0-0.1-0.1c0,0-0.1,0-0.1,0l0.3-1.2c0,0,0.1,0.1,0.2,0.1
			c0.1,0,0.1,0,0.2,0.1c0,0,0.1,0,0.1,0c0,0,0.1,0,0.1,0c0,0,0.1,0,0.1,0c0,0,0.1,0,0.1,0c0.4,0,0.8-0.1,1.1-0.4
			c0.4-0.3,0.8-0.7,1.3-1.3c0.4-0.5,0.9-1.3,1.3-2.1c0.4-0.9,0.8-1.9,1.1-3.1L103.3,386z M105,378.6c0.2-0.2,0.4-0.4,0.6-0.6
			c0.2-0.1,0.5-0.3,0.7-0.4c0.2-0.1,0.5-0.1,0.7-0.1h0c0,0,0,0,0.1,0c0.2,0,0.4,0.1,0.6,0.2c0.2,0.1,0.3,0.2,0.5,0.4
			c0.1,0.2,0.2,0.4,0.3,0.6c0,0.2,0,0.5,0,0.9c-0.1,0.3-0.3,0.6-0.5,0.9c-0.2,0.3-0.4,0.5-0.6,0.6c-0.2,0.2-0.5,0.3-0.7,0.4
			c-0.2,0.1-0.5,0.1-0.7,0.1c-0.2,0-0.5-0.1-0.7-0.1c-0.2-0.1-0.4-0.2-0.5-0.4c-0.2-0.2-0.3-0.4-0.3-0.7c0-0.3,0-0.6,0.1-0.9l0-0.1
			C104.7,379,104.8,378.8,105,378.6z"/>
		<path class="st0" d="M109.7,391.7c0.7-1.2,1.7-2.2,2.8-3.1c1.1-0.9,2.3-1.6,3.6-2.1c1.3-0.5,2.7-0.7,4.1-0.7c1.1,0,2,0.1,2.8,0.4
			c0.8,0.3,1.4,0.7,1.9,1.2c0.5,0.5,0.8,1.1,1.1,1.6c0.3,0.6,0.5,1.2,0.6,1.8c0,0.4,0.1,0.8,0.1,1.2c0,0.4,0,0.8,0,1.2
			c0,0.4-0.1,0.7-0.1,1.1c0,0.3-0.1,0.6-0.2,0.8c0,0.2-0.1,0.5-0.2,0.7c-0.1,0.2-0.2,0.5-0.3,0.7c-0.1,0.2-0.2,0.5-0.3,0.7
			c-0.1,0.2-0.2,0.5-0.4,0.7c-0.5,0.8-1,1.5-1.7,2.2c-0.7,0.7-1.4,1.4-2.3,2c-0.9,0.6-1.8,1.1-2.9,1.4c-1.1,0.3-2.2,0.5-3.4,0.5
			c0,0-0.1,0-0.1,0c0,0-0.1,0-0.1,0c0,0-0.1,0-0.1,0c0,0-0.1,0-0.1,0c0,0,0,0-0.1,0c-1.4,0-2.6-0.2-3.5-0.6c-1-0.4-1.7-1-2.3-1.8
			c-0.5-0.8-0.9-1.7-1-2.7c-0.1-1,0-2.1,0.3-3.2v-0.1C108.4,394.2,109,392.9,109.7,391.7z M111.3,396.5c0,0.2-0.1,0.5-0.1,0.8
			c0,0.3,0,0.6-0.1,0.9c0,0.3,0,0.6,0.1,1c0,0.4,0.2,0.9,0.3,1.3c0.2,0.4,0.4,0.8,0.7,1.2c0.3,0.4,0.7,0.7,1.1,0.9
			c0.5,0.2,1.1,0.3,1.8,0.4c0.8,0,1.6-0.2,2.3-0.5c0.8-0.3,1.5-0.8,2.2-1.5c0.7-0.6,1.3-1.5,1.9-2.4c0.6-1,1.1-2.1,1.5-3.4
			c0.3-1.2,0.5-2.2,0.5-3.2c0-0.9-0.1-1.8-0.3-2.5c-0.2-0.7-0.7-1.3-1.3-1.6c-0.6-0.4-1.4-0.6-2.3-0.6c-0.9,0-1.8,0.2-2.6,0.6
			c-0.8,0.4-1.6,1-2.3,1.8c-0.7,0.8-1.3,1.6-1.8,2.4c-0.5,0.9-0.9,1.7-1.2,2.7c0,0,0,0.1-0.1,0.1c0,0.1,0,0.1,0,0.1
			c0,0,0,0.1-0.1,0.1c0,0,0,0.1,0,0.1c0,0,0,0.1,0,0.1c0,0,0,0.1,0,0.1c0,0,0,0.1-0.1,0.1c0,0,0,0.1,0,0.1c0,0.1,0,0.1-0.1,0.2
			c0,0.1,0,0.1,0,0.2l0-0.1C111.4,396.1,111.4,396.3,111.3,396.5z"/>
		<path class="st0" d="M146.2,378.1h1.8l12.5,19.5l5.2-19.5c0,0.1,0.1,0.1,0.2,0.2c0.1,0,0.2,0.1,0.3,0.1c0.1,0,0.2,0,0.3,0
			c0.1,0,0.2,0,0.3,0c0,0,0.1,0,0.1,0c0,0,0.1,0,0.1,0c0.1,0,0.1,0,0.2,0c0.1,0,0.1,0,0.2,0c0.1,0,0.2-0.1,0.3-0.1
			c0.1,0,0.2-0.1,0.3-0.1l-6.8,25.5h-1.4l-12.7-20.1l-5.4,20.1c-0.1,0-0.1,0-0.2,0c-0.1,0-0.2,0-0.3-0.1c-0.1,0-0.2,0-0.2-0.1
			c-0.1,0-0.2,0-0.3,0c0,0-0.1,0-0.1,0c0,0-0.1,0-0.1,0c-0.1,0-0.1,0-0.2,0c-0.1,0-0.1,0-0.2,0c-0.1,0-0.2,0-0.3,0.1
			c-0.1,0-0.2,0-0.4,0L146.2,378.1z"/>
		<path class="st0" d="M168.2,398.1c0.3-0.5,0.7-0.9,1.1-1.4c0.5-0.4,1-0.8,1.7-1.1c0.7-0.3,1.5-0.6,2.4-0.8l4.9-1
			c0.3,0,0.6-0.1,0.8-0.2c0.2-0.1,0.4-0.3,0.6-0.4c0.2-0.2,0.3-0.4,0.4-0.6c0.1-0.2,0.2-0.5,0.3-0.7c0,0,0,0,0-0.1c0,0,0-0.1,0-0.1
			c0-0.1,0-0.1,0-0.2c0-0.1,0-0.1,0.1-0.2c0-0.1,0-0.2,0-0.3c0-0.1,0-0.2,0-0.3c0-0.4-0.1-0.8-0.2-1.1c-0.1-0.4-0.3-0.7-0.6-1
			c-0.2-0.3-0.6-0.6-1-0.8c-0.4-0.2-0.9-0.3-1.4-0.3c0,0,0,0-0.1,0c0,0,0,0-0.1,0c0,0,0,0-0.1,0c0,0,0,0-0.1,0c-0.2,0-0.4,0-0.6,0
			c-0.2,0-0.4,0.1-0.6,0.1c0,0-0.1,0-0.2,0c-0.1,0-0.1,0-0.2,0.1c-0.2,0.1-0.5,0.2-0.7,0.3c-0.2,0.1-0.5,0.3-0.8,0.4
			c-0.2,0.1-0.3,0.2-0.5,0.3c-0.2,0.1-0.3,0.2-0.4,0.4c-0.2,0.1-0.3,0.3-0.5,0.4c-0.2,0.1-0.3,0.3-0.5,0.4l-0.5-0.1l0.5-2
			c0.1,0,0.1,0,0.2-0.1c0.1,0,0.2-0.1,0.3-0.1c0.1,0,0.2-0.1,0.2-0.1c0.1,0,0.2-0.1,0.3-0.1c0.4-0.2,0.8-0.4,1.2-0.5
			c0.4-0.2,0.9-0.3,1.3-0.5c0.5-0.1,1-0.3,1.5-0.4c0.5-0.1,1-0.1,1.6-0.1c1.1,0,2,0.1,2.8,0.4c0.8,0.2,1.3,0.6,1.7,1.1
			c0.4,0.5,0.6,1.1,0.6,1.9c0,0.8-0.1,1.7-0.4,2.8l-2.5,9.2c0,0.2-0.1,0.4-0.1,0.6c0,0.1,0,0.2,0.1,0.3c0.1,0.1,0.2,0.1,0.3,0.2
			c0.1,0,0.3,0.1,0.4,0.1c0.1,0,0.1,0,0.2,0s0.2,0,0.3,0c0.1,0,0.2,0,0.3,0c0.1,0,0.2,0,0.3-0.1l-0.2,0.8c-0.1,0.1-0.2,0.2-0.2,0.2
			c-0.1,0-0.2,0.1-0.2,0.1c-0.1,0.1-0.2,0.1-0.2,0.1c-0.1,0-0.2,0.1-0.2,0.1c-0.1,0-0.2,0-0.2,0c-0.1,0-0.2,0-0.2,0
			c-0.1,0-0.2,0-0.2,0.1c-0.1,0-0.2,0-0.2,0c0,0,0,0-0.1,0c0,0,0,0-0.1,0c0,0,0,0-0.1,0c0,0,0,0-0.1,0c0,0,0,0-0.1,0c0,0,0,0-0.1,0
			c0,0,0,0-0.1,0c-0.4,0-0.7,0-1-0.1c-0.3-0.1-0.6-0.2-0.9-0.4c-0.2-0.2-0.4-0.4-0.5-0.7c-0.1-0.3-0.1-0.6-0.1-0.9
			c-0.1,0.1-0.2,0.1-0.3,0.2c-0.1,0-0.1,0.1-0.2,0.1c-0.1,0-0.2,0.1-0.3,0.1c-0.1,0.1-0.1,0.1-0.2,0.1c-0.5,0.3-1.1,0.6-1.5,0.9
			c-0.5,0.2-0.9,0.4-1.4,0.6c-0.5,0.1-0.9,0.3-1.3,0.3c-0.4,0.1-0.8,0.1-1.2,0.1c-0.7,0-1.4-0.1-1.9-0.3c-0.5-0.2-1-0.5-1.4-0.9
			c-0.4-0.4-0.6-0.9-0.7-1.5c-0.1-0.6,0-1.2,0.1-1.8v-0.1C167.7,399.1,167.9,398.6,168.2,398.1z M179.6,395
			c-1.4,0.2-2.6,0.4-3.7,0.6c-1,0.2-1.9,0.5-2.6,0.8c-0.7,0.3-1.3,0.7-1.7,1.2c-0.4,0.5-0.7,1-0.9,1.7c0,0,0,0.1,0,0.1
			c0,0,0,0.1,0,0.1c0,0,0,0.1-0.1,0.2c0,0.1,0,0.1,0,0.2c0,0,0,0.1,0,0.1c0,0.1,0,0.1,0,0.1c0,0,0,0.1,0,0.1c0,0,0,0.1,0,0.1
			c0,0,0,0.1,0,0.1c0,0,0,0.1,0,0.1c0,0,0,0.1,0,0.1c0,0,0,0,0,0.1c0,0,0,0,0,0.1c0,0.2,0.1,0.4,0.3,0.6c0.1,0.2,0.3,0.4,0.6,0.6
			c0.2,0.2,0.5,0.3,0.8,0.4c0.3,0.1,0.7,0.1,1.1,0.1c0.2,0,0.4,0,0.6,0c0.2,0,0.4-0.1,0.6-0.1c0.1,0,0.3-0.1,0.5-0.1
			c0.2-0.1,0.3-0.1,0.5-0.2c0,0,0.1-0.1,0.2-0.1c0.1,0,0.1-0.1,0.2-0.1c0.2-0.1,0.4-0.2,0.6-0.3c0.2-0.1,0.4-0.3,0.6-0.4
			c0.2-0.1,0.4-0.3,0.6-0.5c0.2-0.2,0.4-0.4,0.6-0.6V400L179.6,395z"/>
		<path class="st0" d="M188.7,391.6c0.7-1.1,1.6-2.1,2.6-2.9c1-0.9,2.2-1.5,3.6-1.9c1.4-0.4,2.9-0.6,4.6-0.6c0.4,0,0.8,0,1.2,0.1
			c0.4,0,0.7,0.1,1,0.2c0.3,0.1,0.5,0.1,0.8,0.2c0.3,0.1,0.5,0.2,0.8,0.3c0.1,0.1,0.2,0.1,0.3,0.2c0.1,0.1,0.2,0.1,0.3,0.2
			c0.1,0.1,0.2,0.1,0.3,0.2c0.1,0.1,0.2,0.1,0.4,0.2l-1.3,2.6h-0.6c-0.2-0.4-0.4-0.8-0.6-1.1c-0.3-0.3-0.5-0.6-0.9-0.8
			c-0.3-0.2-0.8-0.4-1.2-0.5c-0.5-0.1-1-0.2-1.6-0.2c-0.9,0-1.8,0.2-2.6,0.6c-0.8,0.4-1.6,1-2.3,1.8c-0.7,0.8-1.3,1.6-1.8,2.5
			c-0.5,0.9-0.8,1.8-1.1,2.7c-0.2,1-0.4,1.9-0.4,2.8c0,0.9,0.2,1.7,0.5,2.5c0.3,0.8,0.8,1.4,1.5,1.8c0.7,0.4,1.6,0.6,2.7,0.6
			c0.6,0,1.1,0,1.6-0.1c0.5-0.1,0.9-0.2,1.4-0.4c0.4-0.2,0.8-0.4,1.3-0.7c0.4-0.3,0.9-0.6,1.4-0.9c0,0,0,0,0-0.1c0,0,0,0,0.1,0l0,0
			c0,0,0,0,0.1,0c0,0,0,0,0.1-0.1l0.3,0.2l-0.8,1.8c-0.5,0.3-1,0.6-1.5,0.9c-0.5,0.2-1,0.4-1.6,0.6c-0.5,0.1-1.1,0.2-1.6,0.3
			c-0.6,0.1-1.1,0.1-1.6,0.1c0,0,0,0-0.1,0c0,0,0,0-0.1,0s0,0-0.1,0s0,0-0.1,0c-1.1,0-2.2-0.2-3.1-0.6c-0.9-0.4-1.8-0.9-2.6-1.6
			c-0.8-0.7-1.2-1.6-1.4-2.6c-0.2-1-0.1-2.3,0.3-3.6c0,0,0,0,0-0.1c0,0,0-0.1,0-0.1v0c0,0,0,0,0-0.1c0,0,0,0,0-0.1c0,0,0,0,0-0.1
			l0-0.1C187.4,393.9,187.9,392.7,188.7,391.6z"/>
		<path class="st0" d="M210,385.7c0,0,0.1,0.1,0.1,0.1c0,0,0.1,0,0.1,0c0,0,0.1,0,0.1,0c0,0,0.1,0,0.1,0c0,0,0.1,0,0.1,0.1
			c0,0,0.1,0,0.1,0c0,0,0.1,0,0.1,0c0,0,0.1,0,0.1,0c0.1,0,0.2,0,0.3,0c0.1,0,0.2,0,0.3,0c0.1,0,0.3,0,0.4,0c0.1,0,0.3,0,0.4,0
			c0.1,0,0.3-0.1,0.4-0.1c0.1,0,0.3-0.1,0.4-0.1l-4.8,18c-0.1,0-0.2,0-0.3,0c-0.1,0-0.2,0-0.4-0.1c-0.1,0-0.2,0-0.4-0.1
			c-0.1,0-0.3,0-0.4,0c0,0-0.1,0-0.1,0s-0.1,0-0.1,0c-0.1,0-0.2,0-0.3,0c-0.1,0-0.2,0-0.3,0c-0.1,0-0.3,0-0.4,0.1
			c-0.1,0-0.3,0-0.4,0L210,385.7z M211.8,378.4c0.2-0.2,0.4-0.5,0.6-0.6c0.2-0.2,0.5-0.3,0.7-0.4c0.2-0.1,0.5-0.1,0.7-0.1
			c0.3,0,0.5,0,0.8,0.1c0.2,0.1,0.4,0.2,0.6,0.4c0.2,0.2,0.3,0.4,0.3,0.6c0,0.3,0,0.6-0.1,0.9c-0.1,0.3-0.3,0.6-0.5,0.9
			c-0.2,0.3-0.4,0.5-0.7,0.6c-0.1,0.1-0.2,0.1-0.4,0.2c-0.1,0.1-0.2,0.1-0.4,0.1c-0.1,0-0.2,0.1-0.4,0.1c-0.1,0-0.2,0-0.4,0
			c-0.2,0-0.5,0-0.7-0.1c-0.2-0.1-0.4-0.2-0.5-0.4c-0.2-0.2-0.3-0.4-0.3-0.7c0-0.3,0-0.5,0.1-0.9l0-0.1
			C211.5,379,211.7,378.7,211.8,378.4z"/>
		<path class="st0" d="M216.9,391.7c0.7-1.2,1.7-2.2,2.8-3.1c1.1-0.9,2.3-1.6,3.6-2.1c1.3-0.5,2.7-0.7,4.1-0.7c1.1,0,2,0.1,2.8,0.4
			c0.8,0.3,1.4,0.7,1.9,1.2c0.5,0.5,0.8,1.1,1.1,1.6c0.3,0.6,0.5,1.2,0.6,1.8c0,0.4,0.1,0.8,0.1,1.2c0,0.4,0,0.8,0,1.2
			c0,0.4-0.1,0.7-0.1,1.1c0,0.3-0.1,0.6-0.2,0.8c-0.1,0.2-0.1,0.5-0.2,0.7c-0.1,0.2-0.2,0.5-0.3,0.7c-0.1,0.2-0.2,0.5-0.3,0.7
			c-0.1,0.2-0.2,0.5-0.4,0.7c-0.5,0.8-1,1.5-1.7,2.2c-0.7,0.7-1.4,1.4-2.3,2c-0.9,0.6-1.8,1.1-2.9,1.4c-1.1,0.3-2.2,0.5-3.4,0.5
			c0,0-0.1,0-0.1,0c0,0-0.1,0-0.1,0c0,0-0.1,0-0.1,0c0,0-0.1,0-0.1,0c0,0,0,0-0.1,0c-1.4,0-2.6-0.2-3.5-0.6c-1-0.4-1.7-1-2.3-1.8
			c-0.5-0.8-0.9-1.7-1-2.7c-0.1-1,0-2.1,0.3-3.2v-0.1C215.6,394.2,216.2,392.9,216.9,391.7z M218.5,396.5c0,0.2-0.1,0.5-0.1,0.8
			c0,0.3,0,0.6-0.1,0.9c0,0.3,0,0.6,0.1,1c0,0.4,0.2,0.9,0.3,1.3c0.2,0.4,0.4,0.8,0.7,1.2c0.3,0.4,0.7,0.7,1.1,0.9
			c0.5,0.2,1.1,0.3,1.8,0.4c0.8,0,1.6-0.2,2.3-0.5c0.8-0.3,1.5-0.8,2.2-1.5c0.7-0.6,1.3-1.5,1.9-2.4c0.6-1,1.1-2.1,1.5-3.4
			c0.3-1.2,0.5-2.2,0.5-3.2c0-0.9-0.1-1.8-0.3-2.5c-0.2-0.7-0.7-1.3-1.3-1.6c-0.6-0.4-1.4-0.6-2.3-0.6c-0.9,0-1.8,0.2-2.6,0.6
			c-0.8,0.4-1.6,1-2.3,1.8c-0.7,0.8-1.3,1.6-1.8,2.4c-0.5,0.9-0.9,1.7-1.2,2.7c0,0,0,0.1-0.1,0.1c0,0.1,0,0.1,0,0.1
			c0,0,0,0.1-0.1,0.1c0,0,0,0.1,0,0.1c0,0,0,0.1,0,0.1c0,0,0,0.1,0,0.1c0,0,0,0.1-0.1,0.1c0,0,0,0.1,0,0.1c0,0.1,0,0.1-0.1,0.2
			c0,0.1,0,0.1,0,0.2l0-0.1C218.6,396.1,218.6,396.3,218.5,396.5z"/>
		<path class="st0" d="M240.6,385.7c0.1,0,0.2,0.1,0.3,0.1c0.1,0,0.2,0.1,0.3,0.1c0,0,0.1,0,0.1,0c0,0,0.1,0,0.2,0c0,0,0.1,0,0.1,0
			s0.1,0,0.1,0c0,0,0,0,0.1,0c0,0,0,0,0.1,0c0,0,0,0,0.1,0c0,0,0,0,0.1,0c0,0,0.1,0,0.1,0c0,0,0.1,0,0.1,0c0.1,0,0.2,0,0.3,0
			s0.2,0,0.3,0c0.1,0,0.3-0.1,0.4-0.1c0.1,0,0.3-0.1,0.4-0.1l-0.9,3.1c0.1,0,0.2-0.1,0.3-0.2c0.1-0.1,0.2-0.2,0.4-0.4
			c0.1-0.1,0.3-0.2,0.4-0.4c0.1-0.1,0.3-0.3,0.5-0.4c0.3-0.2,0.7-0.5,1-0.7c0.4-0.2,0.8-0.4,1.3-0.7c0.5-0.2,1-0.4,1.5-0.5
			c0.5-0.1,1.1-0.2,1.7-0.2h0c0,0,0,0,0.1,0c0.7,0,1.4,0.2,1.9,0.5c0.6,0.3,1.1,0.7,1.5,1.3c0.4,0.6,0.7,1.3,0.7,2.3
			c0,1-0.1,2.1-0.5,3.5l-2.8,10.7c0,0-0.1,0-0.1,0c0,0-0.1,0-0.1,0c-0.1,0-0.1,0-0.2,0c0,0-0.1,0-0.1,0c0,0-0.1,0-0.2,0
			c-0.1,0-0.2,0-0.2,0c0,0-0.1,0-0.1,0c0,0-0.1,0-0.1,0c-0.1,0-0.3,0-0.4,0c-0.1,0-0.3,0-0.5,0.1c-0.1,0-0.3,0-0.5,0.1
			c-0.2,0-0.3,0-0.5,0l2.8-10.8c0.2-0.8,0.3-1.6,0.3-2.2c0-0.7-0.2-1.2-0.5-1.6c-0.3-0.4-0.7-0.8-1.1-1c-0.4-0.2-0.9-0.3-1.4-0.3
			c0,0,0,0-0.1,0c0,0,0,0-0.1,0c0,0,0,0-0.1,0c0,0,0,0-0.1,0c-0.6,0-1.1,0.2-1.7,0.4c-0.6,0.3-1.2,0.7-1.7,1.1
			c-0.6,0.5-1.1,1.1-1.5,1.8c-0.4,0.7-0.7,1.5-1,2.5l-2.7,10.1c-0.1,0-0.3,0-0.4,0c-0.1,0-0.3,0-0.4-0.1c-0.1,0-0.1,0-0.2,0
			c-0.1,0-0.1,0-0.2,0c-0.1,0-0.1,0-0.2,0c-0.1,0-0.1,0-0.2,0c-0.1,0-0.3,0-0.4,0c-0.1,0-0.3,0-0.4,0.1c-0.1,0-0.1,0-0.2,0
			c-0.1,0-0.1,0-0.2,0c-0.1,0-0.1,0-0.2,0s-0.1,0-0.2,0L240.6,385.7z"/>
		<path class="st0" d="M257,398.1c0.3-0.5,0.7-0.9,1.1-1.4c0.5-0.4,1-0.8,1.7-1.1c0.7-0.3,1.5-0.6,2.4-0.8l4.9-1
			c0.3,0,0.6-0.1,0.8-0.2c0.2-0.1,0.4-0.3,0.6-0.4c0.2-0.2,0.3-0.4,0.4-0.6c0.1-0.2,0.2-0.5,0.3-0.7c0,0,0,0,0-0.1c0,0,0-0.1,0-0.1
			c0-0.1,0-0.1,0-0.2c0-0.1,0-0.1,0.1-0.2c0-0.1,0-0.2,0-0.3c0-0.1,0-0.2,0-0.3c0-0.4-0.1-0.8-0.2-1.1c-0.1-0.4-0.3-0.7-0.6-1
			c-0.2-0.3-0.6-0.6-1-0.8c-0.4-0.2-0.9-0.3-1.4-0.3c0,0,0,0-0.1,0c0,0,0,0-0.1,0c0,0,0,0-0.1,0c0,0,0,0-0.1,0c-0.2,0-0.4,0-0.6,0
			c-0.2,0-0.4,0.1-0.6,0.1c0,0-0.1,0-0.2,0c-0.1,0-0.1,0-0.2,0.1c-0.2,0.1-0.5,0.2-0.7,0.3c-0.2,0.1-0.5,0.3-0.8,0.4
			c-0.2,0.1-0.3,0.2-0.5,0.3c-0.2,0.1-0.3,0.2-0.4,0.4c-0.2,0.1-0.3,0.3-0.5,0.4c-0.2,0.1-0.3,0.3-0.5,0.4l-0.5-0.1l0.5-2
			c0.1,0,0.1,0,0.2-0.1c0.1,0,0.2-0.1,0.3-0.1c0.1,0,0.2-0.1,0.2-0.1c0.1,0,0.2-0.1,0.3-0.1c0.4-0.2,0.8-0.4,1.2-0.5
			c0.4-0.2,0.9-0.3,1.3-0.5c0.5-0.1,1-0.3,1.5-0.4c0.5-0.1,1-0.1,1.6-0.1c1.1,0,2,0.1,2.8,0.4c0.8,0.2,1.3,0.6,1.7,1.1
			c0.4,0.5,0.6,1.1,0.6,1.9c0,0.8-0.1,1.7-0.4,2.8l-2.5,9.2c0,0.2-0.1,0.4-0.1,0.6c0,0.1,0,0.2,0.1,0.3c0.1,0.1,0.2,0.1,0.3,0.2
			c0.1,0,0.3,0.1,0.4,0.1c0.1,0,0.1,0,0.2,0c0.1,0,0.2,0,0.3,0c0.1,0,0.2,0,0.3,0c0.1,0,0.2,0,0.3-0.1l-0.2,0.8
			c-0.1,0.1-0.2,0.2-0.2,0.2c-0.1,0-0.2,0.1-0.2,0.1c-0.1,0.1-0.2,0.1-0.2,0.1c-0.1,0-0.2,0.1-0.2,0.1c-0.1,0-0.2,0-0.2,0
			c-0.1,0-0.2,0-0.2,0c-0.1,0-0.2,0-0.2,0.1c-0.1,0-0.2,0-0.2,0c0,0,0,0-0.1,0c0,0,0,0-0.1,0c0,0,0,0-0.1,0c0,0,0,0-0.1,0s0,0-0.1,0
			c0,0,0,0-0.1,0c0,0,0,0-0.1,0c-0.4,0-0.7,0-1-0.1c-0.3-0.1-0.6-0.2-0.9-0.4c-0.2-0.2-0.4-0.4-0.5-0.7c-0.1-0.3-0.1-0.6-0.1-0.9
			c-0.1,0.1-0.2,0.1-0.3,0.2c-0.1,0-0.1,0.1-0.2,0.1c-0.1,0-0.2,0.1-0.3,0.1c-0.1,0.1-0.1,0.1-0.2,0.1c-0.5,0.3-1.1,0.6-1.5,0.9
			c-0.5,0.2-0.9,0.4-1.4,0.6c-0.5,0.1-0.9,0.3-1.3,0.3c-0.4,0.1-0.8,0.1-1.2,0.1c-0.7,0-1.4-0.1-1.9-0.3c-0.5-0.2-1-0.5-1.4-0.9
			c-0.4-0.4-0.6-0.9-0.7-1.5c-0.1-0.6,0-1.2,0.1-1.8v-0.1C256.5,399.1,256.7,398.6,257,398.1z M268.4,395c-1.4,0.2-2.6,0.4-3.7,0.6
			c-1,0.2-1.9,0.5-2.6,0.8c-0.7,0.3-1.3,0.7-1.7,1.2c-0.4,0.5-0.7,1-0.9,1.7c0,0,0,0.1,0,0.1c0,0,0,0.1,0,0.1c0,0,0,0.1-0.1,0.2
			c0,0.1,0,0.1,0,0.2c0,0,0,0.1,0,0.1c0,0.1,0,0.1,0,0.1c0,0,0,0.1,0,0.1c0,0,0,0.1,0,0.1c0,0,0,0.1,0,0.1c0,0,0,0.1,0,0.1
			c0,0,0,0.1,0,0.1c0,0,0,0,0,0.1c0,0,0,0,0,0.1c0,0.2,0.1,0.4,0.3,0.6c0.1,0.2,0.3,0.4,0.6,0.6c0.2,0.2,0.5,0.3,0.8,0.4
			c0.3,0.1,0.7,0.1,1.1,0.1c0.2,0,0.4,0,0.6,0c0.2,0,0.4-0.1,0.6-0.1c0.1,0,0.3-0.1,0.5-0.1c0.2-0.1,0.3-0.1,0.5-0.2
			c0,0,0.1-0.1,0.2-0.1c0.1,0,0.1-0.1,0.2-0.1c0.2-0.1,0.4-0.2,0.6-0.3c0.2-0.1,0.4-0.3,0.6-0.4c0.2-0.1,0.4-0.3,0.6-0.5
			c0.2-0.2,0.4-0.4,0.6-0.6V400L268.4,395z"/>
		<path class="st0" d="M283.3,375.2c0.1,0,0.2,0.1,0.3,0.1c0.1,0,0.2,0.1,0.2,0.1c0,0,0.1,0,0.1,0c0,0,0.1,0,0.1,0
			c0.1,0,0.2,0,0.4,0c0.1,0,0.2,0,0.4,0c0.1,0,0.3,0,0.4,0c0.1,0,0.3,0,0.4,0c0.1,0,0.2,0,0.3-0.1c0.1,0,0.2,0,0.3-0.1
			c0,0,0.1,0,0.1-0.1c0,0,0.1,0,0.1,0l-7.6,28.5c0,0-0.1,0-0.2,0c-0.1,0-0.1,0-0.2,0c-0.1,0-0.1,0-0.2,0c-0.1,0-0.1,0-0.2,0
			c-0.1,0-0.2,0-0.4-0.1c-0.1,0-0.3,0-0.4,0c0,0-0.1,0-0.1,0c0,0-0.1,0-0.1,0c-0.1,0-0.2,0-0.3,0c-0.1,0-0.2,0-0.3,0
			c-0.1,0-0.3,0-0.4,0.1c-0.1,0-0.3,0-0.4,0L283.3,375.2z"/>
		<path class="st0" d="M297.5,391.6c0.7-1.2,1.5-2.3,2.4-3.2c0.9-0.9,2-1.6,3.1-2c1.1-0.5,2.4-0.7,3.7-0.7c0,0,0,0,0.1,0
			c0,0,0.1,0,0.1,0c0,0,0.1,0,0.1,0c0,0,0.1,0,0.1,0c0,0,0.1,0,0.2,0c0.1,0,0.1,0,0.2,0c0.5,0.1,1,0.2,1.4,0.3
			c0.4,0.1,0.8,0.3,1.2,0.6c0.4,0.2,0.7,0.5,0.9,0.8c0.2,0.3,0.4,0.5,0.5,0.8c0,0,0,0.1,0,0.2c0,0.1,0,0.1,0,0.2c0,0,0,0.1,0,0.1
			c0,0.1,0,0.1,0,0.1l3.5-13.2c0,0.1,0.1,0.1,0.2,0.1c0.1,0,0.1,0.1,0.2,0.1c0,0,0.1,0,0.2,0c0.1,0,0.1,0,0.2,0c0.1,0,0.3,0,0.4,0
			c0.1,0,0.3,0,0.4,0c0.1,0,0.3,0,0.4,0c0.1,0,0.3,0,0.4,0c0.1,0,0.3-0.1,0.4-0.1c0.1,0,0.3-0.1,0.5-0.1l-7.5,27.9
			c-0.1,0-0.2,0-0.3,0c-0.1,0-0.2,0-0.4-0.1c-0.1,0-0.2,0-0.4-0.1c-0.1,0-0.3,0-0.4,0c0,0-0.1,0-0.1,0c0,0-0.1,0-0.1,0
			c-0.1,0-0.2,0-0.3,0c-0.1,0-0.2,0-0.3,0c-0.1,0-0.3,0-0.4,0.1c-0.1,0-0.3,0-0.4,0l0.9-3.2c-0.5,0.6-1.1,1-1.6,1.4
			c-0.5,0.4-1,0.7-1.5,1c-0.5,0.3-1,0.5-1.5,0.6c-0.5,0.2-0.9,0.3-1.4,0.4c0,0-0.1,0-0.1,0c0,0-0.1,0-0.1,0c-0.1,0-0.1,0-0.1,0
			c0,0-0.1,0-0.1,0c0,0-0.1,0-0.1,0c0,0-0.1,0-0.1,0c0,0,0,0-0.1,0s0,0-0.1,0c-0.1,0-0.1,0-0.1,0c0,0-0.1,0-0.1,0
			c-1,0-1.9-0.2-2.7-0.5c-0.8-0.4-1.5-0.9-2-1.7c-0.6-0.8-0.9-1.6-1.1-2.6c-0.1-0.9-0.1-1.9,0.2-3c0,0,0,0,0-0.1c0,0,0,0,0-0.1
			c0,0,0,0,0-0.1c0,0,0,0,0-0.1c0,0,0,0,0-0.1l0-0.1C296.3,394.3,296.8,392.9,297.5,391.6z M299,397.8c-0.1,0.7,0,1.3,0.1,1.8
			c0.1,0.5,0.3,0.9,0.6,1.3c0.2,0.4,0.5,0.6,0.7,0.8c0.1,0.1,0.3,0.2,0.4,0.3c0.1,0.1,0.3,0.2,0.5,0.2c0.2,0,0.4,0.1,0.5,0.1
			c0.1,0,0.3,0,0.4,0c0,0,0,0,0.1,0c0,0,0,0,0.1,0c0,0,0.1,0,0.1,0c0,0,0,0,0,0c0,0,0,0,0.1,0c0,0,0,0,0.1,0c0,0,0,0,0.1,0
			c0.7,0,1.4-0.2,2.1-0.5c0.7-0.3,1.4-0.8,2.1-1.4c0.7-0.6,1.3-1.4,1.8-2.3c0.5-0.9,0.9-1.9,1.2-3.1c0-0.2,0.1-0.4,0.2-0.7
			c0.1-0.2,0.1-0.5,0.2-0.7c0-0.3,0.1-0.5,0.1-0.8c0-0.3,0.1-0.6,0.1-0.9c0-0.6,0-1.1-0.1-1.6c-0.1-0.5-0.3-1-0.5-1.5
			c-0.2-0.5-0.5-0.8-1-1.1c-0.5-0.2-1.1-0.4-1.8-0.4c0,0,0,0-0.1,0c0,0,0,0-0.1,0c0,0-0.1,0-0.1,0c0,0-0.1,0-0.1,0c0,0,0,0-0.1,0
			c0,0,0,0-0.1,0c-0.8,0-1.5,0.2-2.1,0.5c-0.6,0.3-1.2,0.6-1.7,1.1c-0.5,0.5-0.9,1-1.2,1.5c-0.4,0.5-0.7,1.1-0.9,1.6
			c-0.1,0.3-0.3,0.6-0.4,0.9c-0.1,0.3-0.2,0.5-0.3,0.8c0,0.2-0.1,0.3-0.1,0.5c0,0.2-0.1,0.3-0.1,0.5c0,0.1,0,0.1-0.1,0.2
			c0,0.1,0,0.1-0.1,0.2l0-0.1C299.3,396.3,299.1,397.1,299,397.8z"/>
		<path class="st0" d="M318.3,391.4c0.7-1.2,1.6-2.2,2.7-3c1.1-0.8,2.1-1.4,3.3-1.8c1.1-0.4,2.2-0.6,3.4-0.6c1,0,1.9,0.1,2.7,0.4
			c0.7,0.3,1.3,0.6,1.7,1.1c0.4,0.5,0.8,1.1,1,1.6c0.2,0.6,0.4,1.1,0.4,1.8c0,0.2,0,0.5,0,0.8c0,0.3,0,0.5-0.1,0.8
			c0,0.1,0,0.2,0,0.2c0,0.1,0,0.2-0.1,0.2c0,0.2,0,0.3-0.1,0.5c0,0.1,0,0.3-0.1,0.4c0,0.1-0.1,0.2-0.1,0.4c0,0.1-0.1,0.2-0.1,0.3
			c0,0.1-0.1,0.2-0.1,0.3c0,0.1-0.1,0.2-0.1,0.3l-12.5-0.1c-0.3,1.1-0.4,2.1-0.5,3c0,0.9,0.1,1.7,0.4,2.3c0.3,0.7,0.8,1.2,1.6,1.5
			c0.8,0.3,1.8,0.5,3,0.5c0.5,0,1,0,1.5-0.1c0.5-0.1,1-0.3,1.6-0.5c0.5-0.2,1-0.4,1.5-0.7c0.5-0.3,0.9-0.6,1.3-1l-0.3,2
			c0,0,0,0,0,0.1c0,0,0,0,0,0.1c0,0,0,0-0.1,0h0l0,0c0,0-0.1,0-0.1,0.1c0,0-0.1,0.1-0.1,0.1c0,0-0.1,0-0.1,0.1c0,0-0.1,0-0.1,0.1
			c-0.5,0.2-0.9,0.5-1.4,0.7c-0.5,0.2-0.9,0.4-1.4,0.6c-0.5,0.2-1.1,0.3-1.7,0.4c-0.6,0.1-1.3,0.1-2.1,0.1c-1.5-0.1-2.7-0.3-3.7-0.8
			c-1-0.5-1.7-1.1-2.1-2c-0.4-0.9-0.7-1.8-0.8-2.8c-0.1-1,0-2,0.2-3.1v-0.1C317,394,317.6,392.6,318.3,391.4z M330.3,393.4
			c0-0.1,0-0.1,0.1-0.2c0,0,0-0.1,0-0.1c0,0,0-0.1,0-0.1c0,0,0-0.1,0-0.1c0,0,0-0.1,0-0.1c0.1-0.7,0.2-1.3,0.2-1.9
			c0-0.6-0.1-1.2-0.3-1.7c-0.2-0.6-0.5-1-1-1.3c-0.5-0.3-1.2-0.4-2.1-0.4c-0.6,0-1.3,0.1-1.8,0.4c-0.6,0.2-1.1,0.6-1.6,1
			c-0.5,0.5-1,0.9-1.4,1.4c-0.4,0.5-0.7,1-1,1.6c-0.1,0.1-0.2,0.3-0.3,0.4c-0.1,0.1-0.1,0.3-0.2,0.4c0,0.1-0.1,0.3-0.1,0.4
			c0,0.1-0.1,0.3-0.1,0.4l9.6-0.1C330.3,393.5,330.3,393.5,330.3,393.4z"/>
		<path class="st0" d="M349.1,386.3c1-1.5,2.3-2.9,3.9-4.2c1.6-1.3,3.3-2.3,5.1-2.9c1.9-0.7,3.8-1,5.9-1c0.1,0,0.2,0,0.4,0
			c0.1,0,0.2,0,0.4,0c0.1,0,0.2,0,0.4,0c0.1,0,0.2,0,0.4,0c0.2,0,0.5,0,0.8,0.1c0.3,0,0.5,0,0.8,0.1c0.5,0,1,0.1,1.5,0.2
			c0.5,0.1,1,0.2,1.4,0.3c0.5,0.1,0.9,0.3,1.3,0.5c0.4,0.2,0.8,0.4,1.1,0.6l-1.7,2.8h-0.3c-0.3-0.4-0.7-0.8-1.1-1.1
			c-0.4-0.3-0.8-0.6-1.2-0.9c-0.4-0.2-0.9-0.4-1.3-0.6c-0.4-0.2-0.9-0.3-1.4-0.4c-0.1,0-0.3,0-0.4-0.1c-0.1,0-0.3,0-0.4-0.1
			c-0.1,0-0.1,0-0.2,0c-0.1,0-0.1,0-0.2,0c-0.1,0-0.1,0-0.2,0c-0.1,0-0.1,0-0.2,0c-1.3,0-2.6,0.2-3.9,0.7c-1.3,0.5-2.6,1.2-3.8,2.2
			c-1.3,1-2.3,2.2-3.2,3.5c-0.9,1.4-1.5,2.9-2,4.7c0,0.1,0,0.1-0.1,0.1c0,0,0,0.1,0,0.1c0,0,0,0,0,0.1c0,0,0,0,0,0.1c0,0,0,0,0,0.1
			c0,0,0,0,0,0.1c-0.5,2.1-0.7,3.9-0.6,5.4c0.1,1.5,0.6,2.7,1.4,3.5c0.8,0.9,1.7,1.5,2.7,2c1,0.4,2.2,0.6,3.4,0.6c0.1,0,0.1,0,0.1,0
			c0,0,0.1,0,0.1,0c0.1,0,0.1,0,0.2,0c0.1,0,0.1,0,0.2,0c0.7,0,1.4-0.1,2.1-0.3c0.7-0.1,1.4-0.3,2.1-0.6c0.7-0.2,1.4-0.5,2.1-0.9
			c0.7-0.3,1.3-0.7,1.9-1.1l-0.9,2.3c-0.1,0.1-0.3,0.2-0.4,0.3c-0.1,0.1-0.3,0.1-0.4,0.2c-0.3,0.1-0.5,0.2-0.8,0.4
			c-0.3,0.1-0.5,0.2-0.8,0.3c-0.3,0.1-0.6,0.2-0.9,0.3c-0.3,0.1-0.6,0.2-0.8,0.3c-0.1,0-0.2,0.1-0.3,0.1c-0.1,0-0.2,0-0.3,0.1
			c-0.4,0.1-0.8,0.1-1.1,0.2c-0.4,0.1-0.7,0.1-1.1,0.2c-0.3,0-0.7,0.1-1,0.1c-0.3,0-0.7,0-1,0c-1.8,0-3.4-0.3-4.8-0.8
			c-1.4-0.6-2.6-1.5-3.6-2.7c-1-1.2-1.6-2.6-1.8-4.3c-0.2-1.6,0-3.5,0.5-5.6v-0.1C347.4,389.5,348.1,387.8,349.1,386.3z"/>
		<path class="st0" d="M374.9,385.7c0,0,0.1,0.1,0.1,0.1c0,0,0.1,0,0.1,0c0,0,0.1,0,0.1,0c0,0,0.1,0,0.1,0c0.1,0,0.1,0,0.1,0.1
			c0,0,0.1,0,0.1,0c0,0,0.1,0,0.1,0s0.1,0,0.1,0c0.1,0,0.2,0,0.3,0s0.2,0,0.3,0c0.1,0,0.3,0,0.4,0c0.1,0,0.3,0,0.4,0
			c0.1,0,0.3-0.1,0.4-0.1c0.1,0,0.3-0.1,0.4-0.1l-4.8,18c-0.1,0-0.2,0-0.3,0c-0.1,0-0.2,0-0.4-0.1c-0.1,0-0.2,0-0.4-0.1
			c-0.1,0-0.3,0-0.4,0c0,0-0.1,0-0.1,0c0,0-0.1,0-0.1,0c-0.1,0-0.2,0-0.3,0c-0.1,0-0.2,0-0.3,0c-0.1,0-0.3,0-0.4,0.1
			c-0.1,0-0.3,0-0.4,0L374.9,385.7z M376.7,378.4c0.2-0.2,0.4-0.5,0.6-0.6c0.2-0.2,0.5-0.3,0.7-0.4c0.2-0.1,0.5-0.1,0.7-0.1
			c0.3,0,0.5,0,0.8,0.1c0.2,0.1,0.4,0.2,0.6,0.4c0.2,0.2,0.3,0.4,0.3,0.6c0,0.3,0,0.6-0.1,0.9c-0.1,0.3-0.3,0.6-0.5,0.9
			c-0.2,0.3-0.4,0.5-0.7,0.6c-0.1,0.1-0.2,0.1-0.4,0.2c-0.1,0.1-0.2,0.1-0.4,0.1c-0.1,0-0.2,0.1-0.4,0.1c-0.1,0-0.2,0-0.4,0
			c-0.2,0-0.5,0-0.7-0.1c-0.2-0.1-0.4-0.2-0.5-0.4c-0.2-0.2-0.3-0.4-0.3-0.7c0-0.3,0-0.5,0.1-0.9l0-0.1
			C376.4,379,376.5,378.7,376.7,378.4z"/>
		<path class="st0" d="M382.1,391.4c0.7-1.2,1.6-2.2,2.7-3c1.1-0.8,2.1-1.4,3.3-1.8c1.1-0.4,2.2-0.6,3.4-0.6c1,0,1.9,0.1,2.7,0.4
			c0.7,0.3,1.3,0.6,1.7,1.1c0.4,0.5,0.8,1.1,1,1.6c0.2,0.6,0.4,1.1,0.4,1.8c0,0.2,0,0.5,0,0.8c0,0.3,0,0.5-0.1,0.8
			c0,0.1,0,0.2,0,0.2c0,0.1,0,0.2-0.1,0.2c0,0.2,0,0.3-0.1,0.5c0,0.1,0,0.3-0.1,0.4c0,0.1-0.1,0.2-0.1,0.4c0,0.1-0.1,0.2-0.1,0.3
			c0,0.1-0.1,0.2-0.1,0.3c0,0.1-0.1,0.2-0.1,0.3L384,395c-0.3,1.1-0.4,2.1-0.5,3c0,0.9,0.1,1.7,0.4,2.3c0.3,0.7,0.8,1.2,1.6,1.5
			c0.8,0.3,1.8,0.5,3,0.5c0.5,0,1,0,1.5-0.1c0.5-0.1,1-0.3,1.6-0.5c0.5-0.2,1-0.4,1.5-0.7c0.5-0.3,0.9-0.6,1.3-1l-0.3,2
			c0,0,0,0,0,0.1c0,0,0,0,0,0.1c0,0,0,0-0.1,0h0l0,0c0,0-0.1,0-0.1,0.1c0,0-0.1,0.1-0.1,0.1c0,0-0.1,0-0.1,0.1c0,0-0.1,0-0.1,0.1
			c-0.5,0.2-0.9,0.5-1.4,0.7c-0.5,0.2-0.9,0.4-1.4,0.6c-0.5,0.2-1.1,0.3-1.7,0.4c-0.6,0.1-1.3,0.1-2.1,0.1c-1.5-0.1-2.7-0.3-3.7-0.8
			c-1-0.5-1.7-1.1-2.1-2c-0.4-0.9-0.7-1.8-0.8-2.8c-0.1-1,0-2,0.2-3.1v-0.1C380.8,394,381.3,392.6,382.1,391.4z M394.1,393.4
			c0-0.1,0-0.1,0.1-0.2c0,0,0-0.1,0-0.1c0,0,0-0.1,0-0.1c0,0,0-0.1,0-0.1c0,0,0-0.1,0-0.1c0.1-0.7,0.2-1.3,0.2-1.9
			c0-0.6-0.1-1.2-0.3-1.7c-0.2-0.6-0.5-1-1-1.3c-0.5-0.3-1.2-0.4-2.1-0.4c-0.6,0-1.3,0.1-1.8,0.4c-0.6,0.2-1.1,0.6-1.6,1
			c-0.5,0.5-1,0.9-1.4,1.4c-0.4,0.5-0.7,1-1,1.6c-0.1,0.1-0.2,0.3-0.3,0.4c-0.1,0.1-0.1,0.3-0.2,0.4c0,0.1-0.1,0.3-0.1,0.4
			c0,0.1-0.1,0.3-0.1,0.4l9.6-0.1C394,393.5,394.1,393.5,394.1,393.4z"/>
		<path class="st0" d="M403.4,385.7c0.1,0,0.2,0.1,0.3,0.1c0.1,0,0.2,0.1,0.3,0.1c0.1,0,0.1,0,0.1,0c0,0,0.1,0,0.2,0
			c0,0,0.1,0,0.1,0c0,0,0.1,0,0.1,0c0,0,0,0,0.1,0c0,0,0.1,0,0.1,0c0,0,0,0,0.1,0c0,0,0,0,0.1,0c0.1,0,0.1,0,0.1,0c0,0,0.1,0,0.1,0
			c0.1,0,0.2,0,0.3,0c0.1,0,0.2,0,0.3,0c0.1,0,0.3-0.1,0.4-0.1c0.1,0,0.3-0.1,0.4-0.1l-0.9,3.1c0.1,0,0.2-0.1,0.3-0.2
			c0.1-0.1,0.2-0.2,0.4-0.4c0.1-0.1,0.3-0.2,0.4-0.4c0.1-0.1,0.3-0.3,0.5-0.4c0.3-0.2,0.7-0.5,1-0.7c0.4-0.2,0.8-0.4,1.3-0.7
			c0.5-0.2,1-0.4,1.5-0.5c0.5-0.1,1.1-0.2,1.7-0.2h0c0,0,0,0,0.1,0c0.7,0,1.4,0.2,1.9,0.5c0.6,0.3,1.1,0.7,1.5,1.3
			c0.4,0.6,0.7,1.3,0.7,2.3c0,1-0.1,2.1-0.5,3.5l-2.8,10.7c0,0-0.1,0-0.1,0c0,0-0.1,0-0.1,0c-0.1,0-0.1,0-0.2,0c-0.1,0-0.1,0-0.1,0
			c0,0-0.1,0-0.2,0c-0.1,0-0.2,0-0.2,0c0,0-0.1,0-0.1,0c0,0-0.1,0-0.1,0c-0.1,0-0.3,0-0.4,0c-0.1,0-0.3,0-0.5,0.1
			c-0.1,0-0.3,0-0.5,0.1c-0.2,0-0.3,0-0.5,0l2.8-10.8c0.2-0.8,0.3-1.6,0.3-2.2c0-0.7-0.2-1.2-0.5-1.6c-0.3-0.4-0.7-0.8-1.1-1
			c-0.4-0.2-0.9-0.3-1.4-0.3c0,0,0,0-0.1,0c0,0,0,0-0.1,0c0,0,0,0-0.1,0s0,0-0.1,0c-0.6,0-1.1,0.2-1.7,0.4c-0.6,0.3-1.2,0.7-1.7,1.1
			c-0.6,0.5-1.1,1.1-1.5,1.8c-0.4,0.7-0.7,1.5-1,2.5l-2.7,10.1c-0.1,0-0.3,0-0.4,0c-0.1,0-0.3,0-0.4-0.1c-0.1,0-0.1,0-0.2,0
			c-0.1,0-0.1,0-0.2,0c-0.1,0-0.1,0-0.2,0c-0.1,0-0.1,0-0.2,0c-0.1,0-0.3,0-0.4,0c-0.1,0-0.3,0-0.4,0.1c-0.1,0-0.1,0-0.2,0
			c-0.1,0-0.1,0-0.2,0c-0.1,0-0.1,0-0.2,0s-0.1,0-0.2,0L403.4,385.7z"/>
		<path class="st0" d="M421.6,391.6c0.7-1.1,1.6-2.1,2.6-2.9c1-0.9,2.2-1.5,3.6-1.9c1.4-0.4,2.9-0.6,4.6-0.6c0.4,0,0.9,0,1.2,0.1
			c0.4,0,0.7,0.1,1,0.2c0.3,0.1,0.5,0.1,0.8,0.2c0.3,0.1,0.5,0.2,0.8,0.3c0.1,0.1,0.2,0.1,0.3,0.2c0.1,0.1,0.2,0.1,0.3,0.2
			c0.1,0.1,0.2,0.1,0.3,0.2c0.1,0.1,0.2,0.1,0.4,0.2l-1.3,2.6h-0.6c-0.2-0.4-0.4-0.8-0.6-1.1c-0.3-0.3-0.5-0.6-0.9-0.8
			c-0.3-0.2-0.8-0.4-1.2-0.5c-0.5-0.1-1-0.2-1.6-0.2c-0.9,0-1.8,0.2-2.6,0.6c-0.8,0.4-1.6,1-2.3,1.8c-0.7,0.8-1.3,1.6-1.8,2.5
			c-0.5,0.9-0.8,1.8-1.1,2.7c-0.2,1-0.4,1.9-0.4,2.8c0,0.9,0.2,1.7,0.5,2.5c0.3,0.8,0.8,1.4,1.5,1.8c0.7,0.4,1.6,0.6,2.7,0.6
			c0.6,0,1.1,0,1.6-0.1c0.5-0.1,0.9-0.2,1.4-0.4c0.4-0.2,0.9-0.4,1.3-0.7c0.4-0.3,0.9-0.6,1.4-0.9c0,0,0,0,0-0.1c0,0,0,0,0.1,0l0,0
			c0,0,0,0,0.1,0c0,0,0,0,0.1-0.1l0.3,0.2l-0.8,1.8c-0.5,0.3-1,0.6-1.5,0.9c-0.5,0.2-1,0.4-1.6,0.6c-0.5,0.1-1.1,0.2-1.6,0.3
			c-0.6,0.1-1.1,0.1-1.6,0.1c0,0,0,0-0.1,0c0,0,0,0-0.1,0c0,0,0,0-0.1,0c0,0,0,0-0.1,0c-1.1,0-2.2-0.2-3.1-0.6
			c-0.9-0.4-1.8-0.9-2.6-1.6c-0.8-0.7-1.2-1.6-1.4-2.6c-0.2-1-0.1-2.3,0.3-3.6c0,0,0,0,0-0.1c0,0,0-0.1,0-0.1v0c0,0,0,0,0-0.1
			c0,0,0,0,0-0.1c0,0,0,0,0-0.1l0-0.1C420.4,393.9,420.9,392.7,421.6,391.6z"/>
		<path class="st0" d="M443,385.7c0,0,0.1,0.1,0.1,0.1c0,0,0.1,0,0.1,0c0,0,0.1,0,0.1,0c0,0,0.1,0,0.1,0c0,0,0.1,0,0.1,0.1
			c0,0,0.1,0,0.1,0c0.1,0,0.1,0,0.1,0c0,0,0.1,0,0.1,0c0.1,0,0.2,0,0.3,0c0.1,0,0.2,0,0.3,0c0.1,0,0.3,0,0.4,0c0.1,0,0.3,0,0.4,0
			c0.1,0,0.3-0.1,0.4-0.1c0.1,0,0.3-0.1,0.4-0.1l-4.8,18c-0.1,0-0.2,0-0.3,0c-0.1,0-0.2,0-0.4-0.1c-0.1,0-0.2,0-0.4-0.1
			c-0.1,0-0.3,0-0.4,0c0,0-0.1,0-0.1,0c-0.1,0-0.1,0-0.1,0c-0.1,0-0.2,0-0.3,0c-0.1,0-0.2,0-0.3,0c-0.1,0-0.3,0-0.4,0.1
			c-0.1,0-0.3,0-0.4,0L443,385.7z M444.8,378.4c0.2-0.2,0.4-0.5,0.6-0.6c0.2-0.2,0.5-0.3,0.7-0.4c0.2-0.1,0.5-0.1,0.7-0.1
			c0.3,0,0.5,0,0.8,0.1c0.2,0.1,0.4,0.2,0.6,0.4c0.2,0.2,0.3,0.4,0.3,0.6c0,0.3,0,0.6-0.1,0.9c-0.1,0.3-0.3,0.6-0.5,0.9
			c-0.2,0.3-0.4,0.5-0.7,0.6c-0.1,0.1-0.2,0.1-0.4,0.2c-0.1,0.1-0.2,0.1-0.4,0.1c-0.1,0-0.2,0.1-0.4,0.1c-0.1,0-0.2,0-0.4,0
			c-0.2,0-0.5,0-0.7-0.1c-0.2-0.1-0.4-0.2-0.5-0.4c-0.2-0.2-0.3-0.4-0.3-0.7c0-0.3,0-0.5,0.1-0.9l0-0.1
			C444.5,379,444.7,378.7,444.8,378.4z"/>
		<path class="st0" d="M448.7,398.1c0.3-0.5,0.7-0.9,1.1-1.4c0.5-0.4,1-0.8,1.7-1.1c0.7-0.3,1.5-0.6,2.4-0.8l4.9-1
			c0.3,0,0.6-0.1,0.8-0.2c0.2-0.1,0.4-0.3,0.6-0.4c0.2-0.2,0.3-0.4,0.4-0.6c0.1-0.2,0.2-0.5,0.3-0.7c0,0,0,0,0-0.1c0,0,0-0.1,0-0.1
			c0-0.1,0-0.1,0-0.2c0-0.1,0-0.1,0.1-0.2c0-0.1,0-0.2,0-0.3c0-0.1,0-0.2,0-0.3c0-0.4-0.1-0.8-0.2-1.1c-0.1-0.4-0.3-0.7-0.6-1
			c-0.2-0.3-0.6-0.6-1-0.8c-0.4-0.2-0.9-0.3-1.4-0.3c0,0,0,0-0.1,0s0,0-0.1,0c0,0,0,0-0.1,0c0,0,0,0-0.1,0c-0.2,0-0.4,0-0.6,0
			c-0.2,0-0.4,0.1-0.6,0.1c0,0-0.1,0-0.2,0c-0.1,0-0.1,0-0.2,0.1c-0.2,0.1-0.5,0.2-0.7,0.3c-0.2,0.1-0.5,0.3-0.8,0.4
			c-0.2,0.1-0.3,0.2-0.5,0.3c-0.2,0.1-0.3,0.2-0.4,0.4c-0.2,0.1-0.3,0.3-0.5,0.4c-0.2,0.1-0.3,0.3-0.5,0.4l-0.5-0.1l0.5-2
			c0.1,0,0.1,0,0.2-0.1c0.1,0,0.2-0.1,0.3-0.1c0.1,0,0.2-0.1,0.2-0.1c0.1,0,0.2-0.1,0.3-0.1c0.4-0.2,0.8-0.4,1.2-0.5
			c0.4-0.2,0.9-0.3,1.3-0.5c0.5-0.1,1-0.3,1.5-0.4c0.5-0.1,1-0.1,1.6-0.1c1.1,0,2,0.1,2.8,0.4c0.8,0.2,1.3,0.6,1.7,1.1
			c0.4,0.5,0.6,1.1,0.6,1.9c0,0.8-0.1,1.7-0.4,2.8l-2.5,9.2c0,0.2-0.1,0.4-0.1,0.6c0,0.1,0,0.2,0.1,0.3c0.1,0.1,0.2,0.1,0.3,0.2
			c0.1,0,0.3,0.1,0.4,0.1c0.1,0,0.1,0,0.2,0c0.1,0,0.2,0,0.3,0c0.1,0,0.2,0,0.3,0c0.1,0,0.2,0,0.3-0.1l-0.2,0.8
			c-0.1,0.1-0.2,0.2-0.2,0.2c-0.1,0-0.2,0.1-0.2,0.1c-0.1,0.1-0.2,0.1-0.2,0.1c-0.1,0-0.2,0.1-0.2,0.1c-0.1,0-0.2,0-0.2,0
			c-0.1,0-0.2,0-0.2,0c-0.1,0-0.2,0-0.2,0.1c-0.1,0-0.2,0-0.2,0c0,0,0,0-0.1,0c0,0,0,0-0.1,0c0,0,0,0-0.1,0s0,0-0.1,0c0,0,0,0-0.1,0
			s0,0-0.1,0c0,0,0,0-0.1,0c-0.4,0-0.7,0-1-0.1c-0.3-0.1-0.6-0.2-0.9-0.4c-0.2-0.2-0.4-0.4-0.5-0.7c-0.1-0.3-0.1-0.6-0.1-0.9
			c-0.1,0.1-0.2,0.1-0.3,0.2c-0.1,0-0.1,0.1-0.2,0.1c-0.1,0-0.2,0.1-0.3,0.1c-0.1,0.1-0.1,0.1-0.2,0.1c-0.5,0.3-1.1,0.6-1.5,0.9
			c-0.5,0.2-0.9,0.4-1.4,0.6c-0.5,0.1-0.9,0.3-1.4,0.3c-0.4,0.1-0.8,0.1-1.2,0.1c-0.7,0-1.4-0.1-1.9-0.3c-0.5-0.2-1-0.5-1.4-0.9
			c-0.4-0.4-0.6-0.9-0.7-1.5c-0.1-0.6,0-1.2,0.1-1.8v-0.1C448.2,399.1,448.4,398.6,448.7,398.1z M460.1,395
			c-1.4,0.2-2.6,0.4-3.7,0.6c-1,0.2-1.9,0.5-2.6,0.8c-0.7,0.3-1.3,0.7-1.7,1.2c-0.4,0.5-0.7,1-0.9,1.7c0,0,0,0.1,0,0.1
			c0,0,0,0.1,0,0.1c0,0,0,0.1-0.1,0.2s0,0.1,0,0.2c0,0,0,0.1,0,0.1c0,0.1,0,0.1,0,0.1c0,0,0,0.1,0,0.1c0,0,0,0.1,0,0.1
			c0,0,0,0.1,0,0.1c0,0,0,0.1,0,0.1c0,0,0,0.1,0,0.1c0,0,0,0,0,0.1c0,0,0,0,0,0.1c0,0.2,0.1,0.4,0.3,0.6c0.1,0.2,0.3,0.4,0.6,0.6
			c0.2,0.2,0.5,0.3,0.8,0.4c0.3,0.1,0.7,0.1,1.1,0.1c0.2,0,0.4,0,0.6,0c0.2,0,0.4-0.1,0.6-0.1c0.1,0,0.3-0.1,0.5-0.1
			c0.2-0.1,0.3-0.1,0.5-0.2c0,0,0.1-0.1,0.2-0.1c0.1,0,0.1-0.1,0.2-0.1c0.2-0.1,0.4-0.2,0.6-0.3c0.2-0.1,0.4-0.3,0.6-0.4
			c0.2-0.1,0.4-0.3,0.6-0.5c0.2-0.2,0.4-0.4,0.6-0.6V400L460.1,395z"/>
		<path class="st0" d="M479.8,386.1c0.2,0,0.3,0.1,0.5,0.1c0.2,0,0.3,0,0.5,0c0.2,0,0.3,0,0.5,0c0.1,0,0.2,0,0.2,0
			c0.1,0,0.2,0,0.2,0c0.1,0,0.2,0,0.2,0c0.1,0,0.2,0,0.2,0c0.1,0,0.3-0.1,0.4-0.1c0.1,0,0.3-0.1,0.4-0.1c0,0.3,0,0.8,0.1,1.3
			c0,0.6,0.1,1.2,0.2,2c0.1,0.8,0.2,1.6,0.3,2.4c0.1,0.8,0.2,1.7,0.4,2.5c0,0,0,0.1,0,0.2c0,0.1,0,0.1,0,0.2c0,0,0,0.1,0,0.2
			c0,0.1,0,0.1,0,0.2c0,0.1,0,0.2,0.1,0.3c0,0.1,0,0.2,0.1,0.4c0,0.2,0.1,0.4,0.1,0.5c0,0.2,0.1,0.4,0.1,0.6c0,0.2,0.1,0.4,0.1,0.5
			c0,0.2,0.1,0.4,0.1,0.5c0,0.3,0.1,0.7,0.2,1c0.1,0.3,0.1,0.6,0.2,0.9c0.2-0.3,0.4-0.6,0.7-0.9c0.2-0.3,0.5-0.7,0.8-1
			c0.2-0.3,0.5-0.7,0.8-1.1c0.3-0.4,0.5-0.8,0.8-1.2c0.1-0.1,0.2-0.3,0.3-0.4c0.1-0.1,0.2-0.3,0.3-0.4c0.1-0.1,0.2-0.3,0.3-0.4
			c0.1-0.1,0.2-0.3,0.3-0.4c0.6-0.9,1.1-1.7,1.7-2.5c0.5-0.8,1-1.6,1.5-2.3c0.5-0.7,0.9-1.4,1.2-1.9c0.3-0.5,0.5-0.9,0.6-1.2
			c0.1,0,0.2,0.1,0.3,0.1c0.1,0,0.2,0.1,0.3,0.1c0.1,0,0.2,0,0.3,0c0.1,0,0.2,0,0.3,0c0.1,0,0.2,0,0.4,0c0.1,0,0.2,0,0.4,0
			c0.1,0,0.2-0.1,0.4-0.1c0.1,0,0.2-0.1,0.4-0.1l-19.6,27.3c0,0,0,0-0.1,0c0,0,0,0-0.1-0.1c-0.1,0-0.1,0-0.1-0.1c0,0-0.1,0-0.2-0.1
			c-0.1,0-0.2,0-0.3,0s-0.2,0-0.3,0c-0.1,0-0.2,0-0.4,0c-0.1,0-0.3,0-0.4,0c-0.1,0-0.3,0.1-0.4,0.1c-0.1,0-0.3,0.1-0.4,0.1l7.6-9.9
			l-2.9-17.4C479.5,386.1,479.7,386.1,479.8,386.1z"/>
		<path class="st0" d="M518,379.8c-0.2,0-0.5,0.1-0.8,0.1c-0.3,0-0.6,0-1,0.1c-0.2,0-0.4,0-0.6,0.1c-0.2,0-0.4,0-0.6,0.1
			c-0.2,0-0.4,0-0.6,0.1c-0.2,0-0.4,0-0.6,0.1c-0.1,0-0.3,0-0.4,0.1c-0.1,0-0.3,0-0.4,0.1c-0.1,0-0.3,0-0.4,0.1c-0.1,0-0.3,0-0.4,0
			c-0.2,0-0.4,0-0.6,0.1c-0.2,0-0.4,0.1-0.5,0.1c-0.1,0-0.1,0-0.2,0.1c-0.1,0-0.1,0-0.2,0c-0.2,0-0.5,0-0.6,0.1
			c-0.2,0-0.3,0-0.5,0.1c0,0,0.1-0.1,0.1-0.2c0-0.1,0.1-0.1,0.1-0.2c0,0,0.1-0.1,0.1-0.1c0-0.1,0.1-0.1,0.1-0.2c0,0,0-0.1,0-0.1
			c0,0,0-0.1,0.1-0.1c0,0,0-0.1,0.1-0.2c0-0.1,0-0.1,0.1-0.2c0-0.1,0-0.1,0.1-0.2c0-0.1,0-0.1,0-0.2c0-0.1,0-0.1,0-0.1
			c0,0,0-0.1,0-0.1c0-0.1,0-0.2,0-0.4c0-0.1,0-0.2,0-0.3l19.5-0.1c0,0.1-0.1,0.2-0.1,0.2c0,0.1-0.1,0.1-0.1,0.2c0,0-0.1,0.1-0.1,0.1
			c0,0,0,0.1-0.1,0.1c0,0.1-0.1,0.1-0.1,0.2c0,0-0.1,0.1-0.1,0.1c0,0.1,0,0.1-0.1,0.2c0,0.1,0,0.1,0,0.2c0,0.1-0.1,0.2-0.1,0.3
			c0,0.1-0.1,0.2-0.1,0.4c0,0.1,0,0.1,0,0.2s0,0.1,0,0.2c0,0,0,0.1,0,0.1c0,0,0,0.1,0,0.1c-0.8-0.1-1.6-0.3-2.4-0.4
			c-0.8-0.1-1.5-0.2-2.2-0.3c-0.7-0.1-1.3-0.1-1.9-0.2c-0.6,0-1-0.1-1.3-0.1l-6.4,23.8c-0.1,0-0.1,0-0.2,0c-0.1,0-0.1,0-0.2,0
			c-0.1,0-0.1,0-0.2,0c-0.1,0-0.1,0-0.2,0c-0.1,0-0.2,0-0.4-0.1c-0.1,0-0.3,0-0.4,0c0,0-0.1,0-0.1,0c0,0-0.1,0-0.1,0
			c-0.1,0-0.2,0-0.3,0c-0.1,0-0.2,0-0.3,0c-0.1,0-0.3,0-0.4,0.1c-0.1,0-0.3,0-0.4,0L518,379.8z"/>
		<path class="st0" d="M524.5,391.4c0.7-1.2,1.6-2.2,2.7-3c1.1-0.8,2.1-1.4,3.3-1.8c1.1-0.4,2.2-0.6,3.4-0.6c1,0,1.9,0.1,2.7,0.4
			c0.7,0.3,1.3,0.6,1.7,1.1c0.4,0.5,0.8,1.1,1,1.6c0.2,0.6,0.4,1.1,0.4,1.8c0,0.2,0,0.5,0,0.8c0,0.3,0,0.5-0.1,0.8
			c0,0.1,0,0.2,0,0.2c0,0.1,0,0.2-0.1,0.2c0,0.2,0,0.3-0.1,0.5c0,0.1,0,0.3-0.1,0.4c0,0.1-0.1,0.2-0.1,0.4c0,0.1-0.1,0.2-0.1,0.3
			c0,0.1-0.1,0.2-0.1,0.3c0,0.1-0.1,0.2-0.1,0.3l-12.5-0.1c-0.3,1.1-0.4,2.1-0.5,3c0,0.9,0.1,1.7,0.4,2.3c0.3,0.7,0.8,1.2,1.6,1.5
			c0.8,0.3,1.8,0.5,3,0.5c0.5,0,1,0,1.5-0.1c0.5-0.1,1-0.3,1.6-0.5c0.5-0.2,1-0.4,1.5-0.7c0.5-0.3,0.9-0.6,1.3-1l-0.3,2
			c0,0,0,0,0,0.1c0,0,0,0,0,0.1c0,0,0,0-0.1,0h0l0,0c0,0-0.1,0-0.1,0.1c0,0-0.1,0.1-0.1,0.1c0,0-0.1,0-0.1,0.1c0,0-0.1,0-0.1,0.1
			c-0.5,0.2-0.9,0.5-1.4,0.7c-0.5,0.2-0.9,0.4-1.4,0.6c-0.5,0.2-1.1,0.3-1.7,0.4c-0.6,0.1-1.3,0.1-2.1,0.1c-1.5-0.1-2.7-0.3-3.7-0.8
			c-1-0.5-1.7-1.1-2.1-2c-0.4-0.9-0.7-1.8-0.8-2.8c-0.1-1,0-2,0.2-3.1v-0.1C523.2,394,523.8,392.6,524.5,391.4z M536.5,393.4
			c0-0.1,0-0.1,0.1-0.2c0,0,0-0.1,0-0.1c0,0,0-0.1,0-0.1c0,0,0-0.1,0-0.1c0,0,0-0.1,0-0.1c0.1-0.7,0.2-1.3,0.2-1.9
			c0-0.6-0.1-1.2-0.3-1.7c-0.2-0.6-0.5-1-1-1.3c-0.5-0.3-1.2-0.4-2.1-0.4c-0.6,0-1.3,0.1-1.8,0.4c-0.6,0.2-1.1,0.6-1.6,1
			c-0.5,0.5-1,0.9-1.4,1.4c-0.4,0.5-0.7,1-1,1.6c-0.1,0.1-0.2,0.3-0.3,0.4c-0.1,0.1-0.1,0.3-0.2,0.4c0,0.1-0.1,0.3-0.1,0.4
			c0,0.1-0.1,0.3-0.1,0.4l9.6-0.1C536.5,393.5,536.5,393.5,536.5,393.4z"/>
		<path class="st0" d="M543.4,391.6c0.7-1.1,1.6-2.1,2.6-2.9c1-0.9,2.2-1.5,3.6-1.9c1.4-0.4,2.9-0.6,4.6-0.6c0.4,0,0.9,0,1.2,0.1
			c0.4,0,0.7,0.1,1,0.2c0.3,0.1,0.5,0.1,0.8,0.2c0.3,0.1,0.5,0.2,0.8,0.3c0.1,0.1,0.2,0.1,0.3,0.2c0.1,0.1,0.2,0.1,0.3,0.2
			c0.1,0.1,0.2,0.1,0.3,0.2c0.1,0.1,0.2,0.1,0.4,0.2l-1.3,2.6h-0.6c-0.2-0.4-0.4-0.8-0.6-1.1c-0.3-0.3-0.5-0.6-0.9-0.8
			c-0.3-0.2-0.8-0.4-1.2-0.5c-0.5-0.1-1-0.2-1.6-0.2c-0.9,0-1.8,0.2-2.6,0.6c-0.8,0.4-1.6,1-2.3,1.8c-0.7,0.8-1.3,1.6-1.8,2.5
			c-0.5,0.9-0.8,1.8-1.1,2.7c-0.2,1-0.4,1.9-0.4,2.8c0,0.9,0.2,1.7,0.5,2.5c0.3,0.8,0.8,1.4,1.5,1.8c0.7,0.4,1.6,0.6,2.7,0.6
			c0.6,0,1.1,0,1.6-0.1c0.5-0.1,0.9-0.2,1.4-0.4c0.4-0.2,0.9-0.4,1.3-0.7c0.4-0.3,0.9-0.6,1.4-0.9c0,0,0,0,0-0.1c0,0,0,0,0.1,0l0,0
			c0,0,0,0,0.1,0c0,0,0,0,0.1-0.1l0.3,0.2l-0.8,1.8c-0.5,0.3-1,0.6-1.5,0.9c-0.5,0.2-1,0.4-1.6,0.6c-0.5,0.1-1.1,0.2-1.6,0.3
			c-0.6,0.1-1.1,0.1-1.6,0.1c0,0,0,0-0.1,0c0,0,0,0-0.1,0s0,0-0.1,0c0,0,0,0-0.1,0c-1.1,0-2.2-0.2-3.1-0.6c-0.9-0.4-1.8-0.9-2.6-1.6
			c-0.8-0.7-1.2-1.6-1.4-2.6c-0.2-1-0.1-2.3,0.3-3.6c0,0,0,0,0-0.1c0,0,0-0.1,0-0.1v0c0,0,0,0,0-0.1c0,0,0,0,0-0.1c0,0,0,0,0-0.1
			l0-0.1C542.2,393.9,542.7,392.7,543.4,391.6z"/>
		<path class="st0" d="M564.5,385.7c0.1,0,0.2,0.1,0.3,0.1c0.1,0,0.2,0.1,0.3,0.1c0.1,0,0.1,0,0.1,0c0,0,0.1,0,0.2,0
			c0,0,0.1,0,0.1,0c0,0,0.1,0,0.1,0c0,0,0,0,0.1,0c0,0,0.1,0,0.1,0c0,0,0,0,0.1,0c0,0,0,0,0.1,0c0.1,0,0.1,0,0.1,0c0,0,0.1,0,0.1,0
			c0.1,0,0.2,0,0.3,0c0.1,0,0.2,0,0.3,0c0.1,0,0.3-0.1,0.4-0.1c0.1,0,0.3-0.1,0.4-0.1l-0.9,3.1c0.1,0,0.2-0.1,0.3-0.2
			c0.1-0.1,0.2-0.2,0.4-0.4c0.1-0.1,0.3-0.2,0.4-0.4c0.1-0.1,0.3-0.3,0.5-0.4c0.3-0.2,0.7-0.5,1-0.7c0.4-0.2,0.8-0.4,1.3-0.7
			c0.5-0.2,1-0.4,1.5-0.5c0.5-0.1,1.1-0.2,1.7-0.2h0c0,0,0,0,0.1,0c0.7,0,1.4,0.2,1.9,0.5c0.6,0.3,1.1,0.7,1.5,1.3
			c0.4,0.6,0.7,1.3,0.7,2.3c0,1-0.1,2.1-0.5,3.5l-2.8,10.7c0,0-0.1,0-0.1,0c0,0-0.1,0-0.1,0c-0.1,0-0.1,0-0.2,0c-0.1,0-0.1,0-0.1,0
			c0,0-0.1,0-0.2,0c-0.1,0-0.2,0-0.2,0c0,0-0.1,0-0.1,0c0,0-0.1,0-0.1,0c-0.1,0-0.3,0-0.4,0c-0.1,0-0.3,0-0.5,0.1
			c-0.1,0-0.3,0-0.5,0.1c-0.2,0-0.3,0-0.5,0l2.8-10.8c0.2-0.8,0.3-1.6,0.3-2.2c0-0.7-0.2-1.2-0.5-1.6c-0.3-0.4-0.7-0.8-1.1-1
			c-0.4-0.2-0.9-0.3-1.4-0.3c0,0,0,0-0.1,0s0,0-0.1,0c0,0,0,0-0.1,0c0,0,0,0-0.1,0c-0.6,0-1.1,0.2-1.7,0.4c-0.6,0.3-1.2,0.7-1.7,1.1
			c-0.6,0.5-1.1,1.1-1.5,1.8c-0.4,0.7-0.7,1.5-1,2.5l-2.7,10.1c-0.1,0-0.3,0-0.4,0c-0.1,0-0.3,0-0.4-0.1c-0.1,0-0.1,0-0.2,0
			c-0.1,0-0.1,0-0.2,0c-0.1,0-0.1,0-0.2,0c-0.1,0-0.1,0-0.2,0c-0.1,0-0.3,0-0.4,0c-0.1,0-0.3,0-0.4,0.1c-0.1,0-0.1,0-0.2,0
			c-0.1,0-0.1,0-0.2,0c-0.1,0-0.1,0-0.2,0c-0.1,0-0.1,0-0.2,0L564.5,385.7z"/>
		<path class="st0" d="M582.2,391.7c0.7-1.2,1.7-2.2,2.8-3.1c1.1-0.9,2.3-1.6,3.6-2.1c1.3-0.5,2.7-0.7,4.1-0.7c1.1,0,2,0.1,2.8,0.4
			c0.8,0.3,1.4,0.7,1.9,1.2c0.5,0.5,0.9,1.1,1.1,1.6c0.3,0.6,0.5,1.2,0.6,1.8c0,0.4,0.1,0.8,0.1,1.2c0,0.4,0,0.8,0,1.2
			c0,0.4-0.1,0.7-0.1,1.1c0,0.3-0.1,0.6-0.2,0.8c0,0.2-0.1,0.5-0.2,0.7c-0.1,0.2-0.2,0.5-0.3,0.7c-0.1,0.2-0.2,0.5-0.3,0.7
			c-0.1,0.2-0.2,0.5-0.4,0.7c-0.5,0.8-1,1.5-1.7,2.2c-0.7,0.7-1.4,1.4-2.3,2c-0.9,0.6-1.8,1.1-2.9,1.4c-1.1,0.3-2.2,0.5-3.4,0.5
			c0,0-0.1,0-0.1,0s-0.1,0-0.1,0c0,0-0.1,0-0.1,0c0,0,0,0-0.1,0c0,0-0.1,0-0.1,0c-1.4,0-2.6-0.2-3.5-0.6c-1-0.4-1.7-1-2.3-1.8
			c-0.5-0.8-0.9-1.7-1-2.7c-0.1-1,0-2.1,0.3-3.2v-0.1C580.9,394.2,581.4,392.9,582.2,391.7z M583.8,396.5c-0.1,0.2-0.1,0.5-0.1,0.8
			c0,0.3,0,0.6-0.1,0.9c0,0.3,0,0.6,0.1,1c0.1,0.4,0.2,0.9,0.3,1.3c0.2,0.4,0.4,0.8,0.7,1.2c0.3,0.4,0.7,0.7,1.1,0.9
			c0.5,0.2,1.1,0.3,1.8,0.4c0.8,0,1.6-0.2,2.3-0.5c0.8-0.3,1.5-0.8,2.2-1.5c0.7-0.6,1.3-1.5,1.9-2.4c0.6-1,1.1-2.1,1.5-3.4
			c0.3-1.2,0.5-2.2,0.5-3.2c0-0.9-0.1-1.8-0.3-2.5c-0.2-0.7-0.7-1.3-1.3-1.6c-0.6-0.4-1.4-0.6-2.3-0.6c-0.9,0-1.8,0.2-2.6,0.6
			c-0.8,0.4-1.6,1-2.3,1.8c-0.7,0.8-1.3,1.6-1.8,2.4c-0.5,0.9-0.9,1.7-1.2,2.7c0,0,0,0.1-0.1,0.1c0,0.1,0,0.1,0,0.1
			c0,0,0,0.1-0.1,0.1c0,0,0,0.1,0,0.1c0,0,0,0.1,0,0.1c0,0,0,0.1,0,0.1c0,0,0,0.1-0.1,0.1c0,0,0,0.1,0,0.1c0,0.1,0,0.1-0.1,0.2
			c0,0.1,0,0.1,0,0.2l0-0.1C583.9,396.1,583.8,396.3,583.8,396.5z"/>
		<path class="st0" d="M609.2,375.2c0.1,0,0.2,0.1,0.3,0.1c0.1,0,0.2,0.1,0.2,0.1c0,0,0.1,0,0.1,0c0,0,0.1,0,0.1,0
			c0.1,0,0.2,0,0.4,0c0.1,0,0.2,0,0.4,0c0.1,0,0.3,0,0.4,0c0.1,0,0.3,0,0.4,0c0.1,0,0.2,0,0.3-0.1c0.1,0,0.2,0,0.3-0.1
			c0,0,0.1,0,0.1-0.1c0,0,0.1,0,0.1,0l-7.6,28.5c-0.1,0-0.1,0-0.2,0c-0.1,0-0.1,0-0.2,0c-0.1,0-0.1,0-0.2,0c-0.1,0-0.1,0-0.2,0
			c-0.1,0-0.2,0-0.4-0.1c-0.1,0-0.3,0-0.4,0c0,0-0.1,0-0.1,0c0,0-0.1,0-0.1,0c-0.1,0-0.2,0-0.3,0s-0.2,0-0.3,0c-0.1,0-0.3,0-0.4,0.1
			c-0.1,0-0.3,0-0.4,0L609.2,375.2z"/>
		<path class="st0" d="M613,391.7c0.7-1.2,1.7-2.2,2.8-3.1c1.1-0.9,2.3-1.6,3.6-2.1c1.3-0.5,2.7-0.7,4.1-0.7c1.1,0,2,0.1,2.8,0.4
			c0.8,0.3,1.4,0.7,1.9,1.2c0.5,0.5,0.9,1.1,1.1,1.6c0.3,0.6,0.5,1.2,0.6,1.8c0,0.4,0.1,0.8,0.1,1.2c0,0.4,0,0.8,0,1.2
			c0,0.4-0.1,0.7-0.1,1.1c0,0.3-0.1,0.6-0.2,0.8c0,0.2-0.1,0.5-0.2,0.7c-0.1,0.2-0.2,0.5-0.3,0.7c-0.1,0.2-0.2,0.5-0.3,0.7
			c-0.1,0.2-0.2,0.5-0.4,0.7c-0.5,0.8-1,1.5-1.7,2.2c-0.7,0.7-1.4,1.4-2.3,2c-0.9,0.6-1.8,1.1-2.9,1.4c-1.1,0.3-2.2,0.5-3.4,0.5
			c0,0-0.1,0-0.1,0c0,0-0.1,0-0.1,0c0,0-0.1,0-0.1,0c0,0,0,0-0.1,0c0,0-0.1,0-0.1,0c-1.4,0-2.6-0.2-3.5-0.6c-1-0.4-1.7-1-2.3-1.8
			c-0.5-0.8-0.9-1.7-1-2.7c-0.1-1,0-2.1,0.3-3.2v-0.1C611.7,394.2,612.3,392.9,613,391.7z M614.6,396.5c-0.1,0.2-0.1,0.5-0.1,0.8
			c0,0.3,0,0.6-0.1,0.9c0,0.3,0,0.6,0.1,1c0.1,0.4,0.2,0.9,0.3,1.3c0.2,0.4,0.4,0.8,0.7,1.2c0.3,0.4,0.7,0.7,1.1,0.9
			c0.5,0.2,1.1,0.3,1.8,0.4c0.8,0,1.6-0.2,2.3-0.5c0.8-0.3,1.5-0.8,2.2-1.5c0.7-0.6,1.3-1.5,1.9-2.4c0.6-1,1.1-2.1,1.5-3.4
			c0.3-1.2,0.5-2.2,0.5-3.2c0-0.9-0.1-1.8-0.3-2.5c-0.2-0.7-0.7-1.3-1.3-1.6c-0.6-0.4-1.4-0.6-2.3-0.6c-0.9,0-1.8,0.2-2.6,0.6
			c-0.8,0.4-1.6,1-2.3,1.8c-0.7,0.8-1.3,1.6-1.8,2.4c-0.5,0.9-0.9,1.7-1.2,2.7c0,0,0,0.1-0.1,0.1c0,0.1,0,0.1,0,0.1
			c0,0,0,0.1-0.1,0.1c0,0,0,0.1,0,0.1c0,0,0,0.1,0,0.1c0,0,0,0.1,0,0.1c0,0,0,0.1-0.1,0.1c0,0,0,0.1,0,0.1c0,0.1,0,0.1-0.1,0.2
			c0,0.1,0,0.1,0,0.2l0-0.1C614.7,396.1,614.7,396.3,614.6,396.5z"/>
		<path class="st0" d="M635.4,388.8c0.5-0.6,1.1-1.1,1.7-1.4c0.7-0.4,1.3-0.7,2-0.9c0.7-0.2,1.3-0.4,2-0.4c0.1,0,0.1,0,0.1,0
			c0,0,0.1,0,0.1,0c0,0,0.1,0,0.1,0c0,0,0.1,0,0.1,0c0,0,0.1,0,0.1,0c0,0,0.1,0,0.1,0c0,0,0.1,0,0.1,0c0,0,0.1,0,0.1,0
			c0.6,0,1,0,1.4,0c0.4,0,0.7,0,0.9,0.1c0.2,0,0.4,0,0.6,0.1c0.2,0,0.3,0,0.4,0.1c0,0,0,0,0,0c0,0,0,0,0.1,0c0.1,0,0.2,0,0.3,0.1
			s0.2,0,0.4,0.1c0.1,0,0.3,0,0.6,0c0.2,0,0.5,0,0.9,0c0.2,0,0.4,0,0.6,0c0.2,0,0.5,0,0.8,0c0.3,0,0.6,0,0.9,0c0.3,0,0.7,0,1.1-0.1
			l-0.4,1.4l-4.3-0.3c0.3,0.3,0.5,0.6,0.8,0.9c0.2,0.3,0.4,0.8,0.5,1.2c0.1,0.5,0.2,0.9,0.2,1.4s-0.1,1-0.2,1.5
			c-0.4,1-0.8,1.8-1.3,2.5c-0.5,0.7-1,1.2-1.7,1.5c-0.6,0.4-1.2,0.7-1.8,0.9c-0.6,0.2-1.2,0.4-1.8,0.4c-0.2,0-0.5,0.1-0.7,0.1
			c-0.2,0-0.4,0-0.7,0c-0.1,0-0.2,0-0.3,0c-0.1,0-0.2,0-0.4,0c-0.1,0-0.2,0-0.3,0c-0.1,0-0.2,0-0.3,0c-0.3,0-0.6,0-0.9,0
			c-0.3,0-0.6,0-0.8,0.1c-0.3,0-0.5,0.1-0.7,0.2c-0.2,0.1-0.3,0.2-0.4,0.3c-0.1,0.1-0.1,0.2-0.2,0.3c-0.1,0.1-0.1,0.2-0.1,0.2
			c0,0.1-0.1,0.2-0.1,0.3c0,0.1,0,0.1-0.1,0.2c-0.1,0.4-0.1,0.7,0.1,0.9c0.1,0.2,0.4,0.4,0.9,0.6c0.4,0.1,0.9,0.2,1.3,0.3
			c0.5,0.1,0.9,0.1,1.4,0.1c0,0,0.1,0,0.1,0c0,0,0.1,0,0.1,0c0,0,0.1,0,0.1,0c0,0,0.1,0,0.1,0c0.1,0,0.1,0,0.2,0c0.1,0,0.1,0,0.2,0
			c0.1,0,0.2,0,0.3,0c0.1,0,0.2,0,0.3,0c0.1,0,0.2,0,0.2,0c0.1,0,0.2,0,0.3,0c0.1,0,0.2,0,0.3,0c0.1,0,0.2,0,0.3,0
			c0.1,0,0.2,0,0.3,0c0.1,0,0.2,0,0.3,0c0.2,0,0.3,0,0.4,0c0.1,0,0.2,0,0.3,0.1c0.7,0.1,1.3,0.3,1.8,0.6c0.5,0.2,0.9,0.5,1.1,0.9
			c0.3,0.3,0.5,0.8,0.5,1.3c0.1,0.6,0.1,1.2-0.1,2.1c0,0,0,0,0,0.1c0,0,0,0.1,0,0.1c0,0,0,0,0,0c0,0,0,0.1,0,0.1c0,0,0,0,0,0.1
			c0,0,0,0,0,0.1c0,0.1-0.1,0.2-0.1,0.4c-0.1,0.1-0.1,0.2-0.1,0.3c0,0.1,0,0.1-0.1,0.2c0,0.1-0.1,0.1-0.1,0.2c0,0-0.1,0.1-0.1,0.2
			c0,0.1,0,0.1-0.1,0.2c-0.4,0.7-0.9,1.3-1.6,2c-0.7,0.6-1.5,1.2-2.4,1.8c-0.9,0.6-1.9,1-3,1.3c-1.1,0.3-2.3,0.4-3.5,0.4
			c-1.1,0-2-0.1-2.9-0.4c-0.8-0.3-1.5-0.6-2-1.2c-0.5-0.5-0.9-1.1-1-1.7c-0.1-0.6-0.1-1.3,0.1-2c0.1-0.7,0.4-1.4,0.7-1.9
			c0.3-0.6,0.7-1,1.1-1.4c0.4-0.4,0.9-0.7,1.4-1c0.5-0.2,1.2-0.4,1.8-0.6c-0.3-0.1-0.6-0.3-0.9-0.5s-0.4-0.4-0.6-0.6
			c-0.1-0.2-0.2-0.5-0.2-0.8c0-0.3,0-0.6,0.1-1c0.1-0.3,0.2-0.6,0.3-0.8c0.1-0.2,0.2-0.5,0.4-0.6c0.1-0.2,0.3-0.4,0.5-0.5
			c0.2-0.2,0.4-0.3,0.6-0.5c0.1-0.1,0.3-0.1,0.4-0.2c0.1-0.1,0.3-0.1,0.4-0.2c0.1-0.1,0.3-0.2,0.4-0.3c0.2-0.1,0.3-0.2,0.5-0.3
			c-0.8-0.2-1.3-0.5-1.7-0.9c-0.4-0.3-0.6-0.8-0.7-1.2c0-0.5-0.1-0.9,0-1.4c0-0.5,0.1-1,0.2-1.5c0,0,0-0.1,0.1-0.2
			c0-0.1,0-0.1,0-0.2c0-0.1,0-0.1,0.1-0.1c0,0,0-0.1,0-0.1c0,0,0-0.1,0.1-0.1c0,0,0-0.1,0-0.1c0,0,0,0,0-0.1c0,0,0,0,0-0.1
			c0,0,0-0.1,0-0.1v-0.1C634.5,390.1,634.9,389.4,635.4,388.8z M631.3,408.1c0,0.1,0,0.2,0,0.4c0,0.1,0,0.2,0,0.4
			c0,0.1,0,0.2,0.1,0.4c0.1,0.3,0.2,0.7,0.4,1c0.2,0.3,0.5,0.7,0.8,1c0.3,0.3,0.8,0.5,1.3,0.7c0.5,0.2,1.2,0.2,2,0.2
			c0.1,0,0.3,0,0.5,0c0.2,0,0.3,0,0.5-0.1c0.1,0,0.3,0,0.5-0.1c0.2,0,0.4,0,0.6-0.1c0.5-0.1,1-0.3,1.6-0.5c0.5-0.2,1-0.5,1.5-0.8
			c0.5-0.3,0.9-0.7,1.2-1.1c0.3-0.4,0.6-0.9,0.7-1.4c0-0.1,0-0.1,0.1-0.2c0-0.1,0-0.1,0.1-0.2c0,0,0-0.1,0-0.2c0-0.1,0-0.1,0.1-0.2
			c0.1-0.5,0.1-0.9,0-1.3c-0.1-0.4-0.2-0.8-0.4-1.2c-0.2-0.4-0.6-0.7-1.3-0.9c-0.7-0.2-1.5-0.3-2.6-0.3c-0.8,0-1.6,0.1-2.3,0.2
			c-0.7,0.1-1.4,0.3-2.1,0.6c-0.6,0.2-1.2,0.6-1.7,1.2c-0.5,0.6-0.9,1.3-1.2,2.1C631.3,407.9,631.3,408,631.3,408.1z M636.5,394.2
			c0,0.5,0.2,1,0.4,1.4c0.3,0.4,0.6,0.7,1,0.9c0.4,0.2,0.9,0.3,1.4,0.3c0.1,0,0.1,0,0.1,0c0,0,0.1,0,0.1,0c0,0,0.1,0,0.1,0
			c0,0,0.1,0,0.1,0c0,0,0,0,0.1,0c0,0,0,0,0.1,0c0,0,0,0,0.1,0c0.4,0,0.9-0.2,1.4-0.4c0.5-0.2,1-0.5,1.5-0.9
			c0.5-0.4,0.9-0.9,1.3-1.5c0.4-0.6,0.6-1.2,0.8-1.9c0.2-0.8,0.3-1.5,0.2-2.1c0-0.6-0.2-1.1-0.5-1.6c-0.3-0.4-0.6-0.7-1-1
			s-0.9-0.3-1.5-0.3c-0.6,0.1-1.2,0.2-1.6,0.4c-0.5,0.2-0.9,0.4-1.2,0.8c-0.4,0.3-0.7,0.7-1,1c-0.3,0.3-0.5,0.7-0.8,1.1
			c-0.1,0.2-0.2,0.4-0.3,0.5c-0.1,0.2-0.2,0.4-0.3,0.6c0,0.1,0,0.2-0.1,0.3c0,0.1,0,0.2-0.1,0.2c0,0.1-0.1,0.1-0.1,0.2
			c0,0.1,0,0.1-0.1,0.2l0-0.1C636.5,393.1,636.4,393.7,636.5,394.2z"/>
		<path class="st0" d="M655.9,386.1c0,0,0.1,0,0.1,0.1c0,0,0.1,0,0.1,0.1c0,0,0.1,0,0.1,0c0.1,0,0.2,0,0.2,0c0.1,0,0.2,0,0.3,0
			c0,0,0.1,0,0.1,0c0,0,0.1,0,0.1,0c0,0,0.1,0,0.1,0c0,0,0,0,0.1,0c0,0,0.1,0,0.1,0c0.1,0,0.3,0,0.4,0c0.1,0,0.3,0,0.4,0
			c0.1,0,0.2-0.1,0.4-0.1c0.1,0,0.2-0.1,0.4-0.1l-4.7,17.7c-0.1,0-0.2,0-0.3,0c-0.1,0-0.2,0-0.3-0.1c-0.1,0-0.2,0-0.3-0.1
			c-0.1,0-0.2,0-0.4,0c0,0,0,0-0.1,0c0,0,0,0-0.1,0c0,0,0,0-0.1,0s0,0-0.1,0c0,0-0.1,0-0.1,0c0,0-0.1,0-0.2,0c-0.1,0-0.1,0-0.2,0
			c-0.1,0-0.1,0-0.2,0.1c-0.1,0-0.1,0-0.2,0c-0.1,0-0.2,0-0.3,0c-0.1,0-0.2,0-0.3,0l4.7-17.7C655.9,386,655.9,386.1,655.9,386.1z
			 M663,378.7c0.1-0.1,0.2-0.1,0.4-0.2c0.1-0.1,0.2-0.1,0.4-0.2c0.1-0.1,0.3-0.1,0.4-0.2c0.1,0,0.3-0.1,0.4-0.1c0.1,0,0.1,0,0.1-0.1
			c0,0,0.1,0,0.1,0c0,0,0.1,0,0.1,0c0,0,0.1,0,0.1,0c0,0,0,0,0.1,0c0,0,0,0,0.1,0c0.2,0,0.4,0,0.5,0.1c0.2,0,0.3,0.1,0.4,0.2
			c0.1,0.1,0.2,0.2,0.3,0.3c0,0.1,0,0.3,0,0.4c0,0.1-0.1,0.2-0.2,0.4c-0.1,0.1-0.2,0.3-0.3,0.4c-0.1,0.1-0.2,0.1-0.2,0.2
			c-0.1,0.1-0.2,0.1-0.3,0.2c-0.1,0.1-0.2,0.1-0.4,0.2c-0.1,0.1-0.2,0.1-0.4,0.2l-6.4,3.4h-1.5L663,378.7z"/>
		<path class="st0" d="M661.3,398.1c0.3-0.5,0.7-0.9,1.1-1.4c0.5-0.4,1-0.8,1.7-1.1c0.7-0.3,1.5-0.6,2.4-0.8l4.9-1
			c0.3,0,0.6-0.1,0.8-0.2c0.2-0.1,0.4-0.3,0.6-0.4c0.2-0.2,0.3-0.4,0.4-0.6c0.1-0.2,0.2-0.5,0.3-0.7c0,0,0,0,0-0.1c0,0,0-0.1,0-0.1
			c0-0.1,0-0.1,0-0.2c0-0.1,0-0.1,0.1-0.2c0-0.1,0-0.2,0-0.3c0-0.1,0-0.2,0-0.3c0-0.4-0.1-0.8-0.2-1.1c-0.1-0.4-0.3-0.7-0.6-1
			c-0.2-0.3-0.6-0.6-1-0.8c-0.4-0.2-0.9-0.3-1.4-0.3c0,0,0,0-0.1,0c0,0,0,0-0.1,0c0,0,0,0-0.1,0c0,0,0,0-0.1,0c-0.2,0-0.4,0-0.6,0
			c-0.2,0-0.4,0.1-0.6,0.1c0,0-0.1,0-0.2,0c-0.1,0-0.1,0-0.2,0.1c-0.2,0.1-0.5,0.2-0.7,0.3c-0.2,0.1-0.5,0.3-0.8,0.4
			c-0.2,0.1-0.3,0.2-0.5,0.3c-0.2,0.1-0.3,0.2-0.4,0.4c-0.2,0.1-0.3,0.3-0.5,0.4c-0.2,0.1-0.3,0.3-0.5,0.4l-0.5-0.1l0.5-2
			c0.1,0,0.1,0,0.2-0.1c0.1,0,0.2-0.1,0.3-0.1c0.1,0,0.2-0.1,0.2-0.1c0.1,0,0.2-0.1,0.3-0.1c0.4-0.2,0.8-0.4,1.2-0.5
			c0.4-0.2,0.9-0.3,1.3-0.5c0.5-0.1,1-0.3,1.5-0.4c0.5-0.1,1-0.1,1.6-0.1c1.1,0,2,0.1,2.8,0.4c0.8,0.2,1.3,0.6,1.7,1.1
			c0.4,0.5,0.6,1.1,0.6,1.9c0,0.8-0.1,1.7-0.4,2.8l-2.5,9.2c0,0.2-0.1,0.4-0.1,0.6c0,0.1,0,0.2,0.1,0.3c0.1,0.1,0.2,0.1,0.3,0.2
			c0.1,0,0.3,0.1,0.4,0.1c0.1,0,0.1,0,0.2,0c0.1,0,0.2,0,0.3,0c0.1,0,0.2,0,0.3,0c0.1,0,0.2,0,0.3-0.1l-0.2,0.8
			c-0.1,0.1-0.2,0.2-0.2,0.2c-0.1,0-0.2,0.1-0.2,0.1c-0.1,0.1-0.2,0.1-0.2,0.1c-0.1,0-0.2,0.1-0.2,0.1c-0.1,0-0.2,0-0.2,0
			c-0.1,0-0.2,0-0.2,0c-0.1,0-0.2,0-0.2,0.1c-0.1,0-0.2,0-0.2,0c0,0,0,0-0.1,0c0,0,0,0-0.1,0c0,0,0,0-0.1,0c0,0,0,0-0.1,0
			c0,0,0,0-0.1,0c0,0,0,0-0.1,0c0,0,0,0-0.1,0c-0.4,0-0.7,0-1-0.1c-0.3-0.1-0.6-0.2-0.9-0.4c-0.2-0.2-0.4-0.4-0.5-0.7
			c-0.1-0.3-0.1-0.6-0.1-0.9c-0.1,0.1-0.2,0.1-0.3,0.2c-0.1,0-0.1,0.1-0.2,0.1c-0.1,0-0.2,0.1-0.3,0.1c-0.1,0.1-0.1,0.1-0.2,0.1
			c-0.5,0.3-1.1,0.6-1.5,0.9c-0.5,0.2-0.9,0.4-1.4,0.6c-0.5,0.1-0.9,0.3-1.4,0.3c-0.4,0.1-0.8,0.1-1.2,0.1c-0.7,0-1.4-0.1-1.9-0.3
			c-0.5-0.2-1-0.5-1.4-0.9c-0.4-0.4-0.6-0.9-0.7-1.5c-0.1-0.6,0-1.2,0.1-1.8v-0.1C660.8,399.1,661,398.6,661.3,398.1z M672.7,395
			c-1.4,0.2-2.6,0.4-3.7,0.6c-1,0.2-1.9,0.5-2.6,0.8c-0.7,0.3-1.3,0.7-1.7,1.2c-0.4,0.5-0.7,1-0.9,1.7c0,0,0,0.1,0,0.1
			c0,0,0,0.1,0,0.1c0,0,0,0.1-0.1,0.2c0,0.1,0,0.1,0,0.2c0,0,0,0.1,0,0.1c0,0.1,0,0.1,0,0.1c0,0,0,0.1,0,0.1c0,0,0,0.1,0,0.1
			c0,0,0,0.1,0,0.1c0,0,0,0.1,0,0.1c0,0,0,0.1,0,0.1c0,0,0,0,0,0.1c0,0,0,0,0,0.1c0,0.2,0.1,0.4,0.3,0.6c0.1,0.2,0.3,0.4,0.6,0.6
			c0.2,0.2,0.5,0.3,0.8,0.4c0.3,0.1,0.7,0.1,1.1,0.1c0.2,0,0.4,0,0.6,0c0.2,0,0.4-0.1,0.6-0.1c0.1,0,0.3-0.1,0.5-0.1
			c0.2-0.1,0.3-0.1,0.5-0.2c0,0,0.1-0.1,0.2-0.1c0.1,0,0.1-0.1,0.2-0.1c0.2-0.1,0.4-0.2,0.6-0.3c0.2-0.1,0.4-0.3,0.6-0.4
			c0.2-0.1,0.4-0.3,0.6-0.5c0.2-0.2,0.4-0.4,0.6-0.6V400L672.7,395z"/>
	</g>
</g>
</svg>
