<?xml version="1.0" encoding="utf-8"?>
<!-- Generator: Adobe Illustrator 25.2.3, SVG Export Plug-In . SVG Version: 6.00 Build 0)  -->
<svg version="1.1" id="Capa_1" xmlns="http://www.w3.org/2000/svg" xmlns:xlink="http://www.w3.org/1999/xlink" x="0px" y="0px"
	 viewBox="0 0 677 413.6" style="enable-background:new 0 0 677 413.6;" xml:space="preserve">
<style type="text/css">
	.st0{fill:#FFFFFF;}
</style>
<g>
	<g>
		<path class="st0" d="M164.6,134.6c-1-17-2.1-34-3-51c-0.1-2.8-0.9-3.8-3.8-3.7c-9.8,0.2-19.5,0.1-29.3,0c-2.3,0-3.4,0.7-4.1,2.8
			C112.7,117.3,99.7,151.4,91,187c-0.4,1.7-0.2,3.8-2.2,5.3C81,155.2,68.2,119.9,56.9,84.2c-1-3.1-2.2-4.4-5.7-4.3
			c-9.2,0.3-18.4,0.3-27.6,0c-4-0.2-4.9,1.4-5.1,4.9c-0.6,11.6-1.4,23.2-2.2,34.9c-2.4,36.1-4.9,72.3-7.4,108.4
			c-0.2,2.6,0.7,3.2,3.1,3.1c6.6-0.1,13.1-0.1,19.7,0c2.4,0.1,3.3-0.7,3.4-3.2c1.4-26.9,2.9-53.7,4.2-80.6c0.6-13,1-26.1,1.5-39.2
			c0.8,0.6,1.1,1.3,1.2,2c8.4,39.5,21.8,77.5,33.5,116c0.7,2.3,1.8,3.2,4.3,3.1c5-0.2,9.9-0.2,14.9,0c2.4,0.1,3.6-0.6,4.4-3
			c9.9-29.8,19.9-59.5,29.8-89.4c3.3-9.9,6-19.9,9-29.8c0.3,18.1,1.1,36.1,1.9,54c1,21.9,2.1,43.9,2.9,65.8c0.1,3.5,1.3,4.4,4.6,4.2
			c4.8-0.3,9.6-0.1,14.4-0.1c8.8,0,8.6,0,8.1-8.9C168,193,166.4,163.8,164.6,134.6z"/>
		<path class="st0" d="M410,80.8c-22.7-3.4-45.3-1.9-68,0.6c-3.4,0.4-4.3,1.5-4.2,4.8c0.1,23.3,0.1,46.6,0.1,69.9
			c0,21.1,0,42.2,0,63.3c0,3.6-1.5,8.1,0.7,10.5c2.1,2.3,6.6,1.3,10.1,1.6c20.7,1.6,41.3,2.2,61.8-2.1c18.7-4,35.3-11.8,46.8-27.9
			c9.9-13.8,13.8-29.6,14.3-46.3c0.4-14.4-1.6-28.5-8.9-41.2C451,93.6,432.3,84.1,410,80.8z M429.1,181.9
			c-8,15.9-21.9,22.2-38.6,23.7c-4.6,0.4-9.3,0-14,0.1c-3.5,0.1-4.3-1.4-4.2-4.7c0.2-15,0.1-30,0.1-45c0-15.3,0-30.6,0-45.9
			c0-2-0.1-3.7,2.6-4c11.6-1.4,23-1.5,34,2.9c17.6,6.9,24.8,21.1,26,38.9C435.8,159.6,434.5,171.1,429.1,181.9z"/>
		<path class="st0" d="M270.2,83.2c-0.8-2.6-2.2-3.3-4.7-3.2c-9.3,0.1-18.7,0.2-28,0c-2.8,0-4,0.8-4.9,3.6
			c-4.8,15.5-9.9,31-14.9,46.5c-10.4,32.4-20.8,64.7-31.3,97.1c-1.1,3.3-0.7,4.3,3,4.1c7-0.3,14-0.3,21,0c3,0.1,4-1.1,4.7-3.7
			c3.5-12,7.3-23.9,10.8-35.9c0.7-2.5,1.7-3.5,4.5-3.4c13.6,0.2,27.1,0.2,40.7,0c2.8,0,4,0.8,4.8,3.5c3.7,12.1,7.6,24.1,11.5,36.1
			c0.5,1.5,0.6,3.3,3.2,3.3c9-0.1,18.1-0.1,27.3-0.1c-0.2-1-0.2-1.8-0.4-2.4C301.7,180.2,285.9,131.7,270.2,83.2z M234.2,167.3
			c-2.8,0-2.1-1.4-1.6-3.1c3.4-10.7,6.8-21.3,10-32c2.7-9.4,5.1-18.9,8-28.4c5.3,21.4,12.8,42.1,19.4,63.5
			C257.7,167.3,245.9,167.2,234.2,167.3z"/>
		<path class="st0" d="M624.8,106.8c12.2-1.9,24.1-0.6,35.7,3.7c2.8,1,3.4,0.3,4-2.1c1.6-6.6,3-13.3,5.1-19.8c1.1-3.6,0.3-5-3.2-6.2
			c-14.3-4.6-28.9-5.8-43.6-4.2c-29.9,3.2-53.4,16.7-65.4,45.2c-9.4,22.2-9.2,45.1-0.3,67.6c4.8,12.2,12.8,22.3,24.1,29.2
			c27,16.5,55.8,15.9,85.1,7.7c2.2-0.6,2.5-1.7,2-3.8c-1.6-7.8-3.1-15.7-4.7-24c-5.1,1.7-10.1,3-15.1,3.8c-5,0.8-10.1,1.2-15.2,1.1
			c-21.3-0.4-37.2-11.1-43.5-29.6c-3.4-10.1-3.8-20.5-2.1-31C590.8,124.1,604.7,110.1,624.8,106.8z"/>
		<path class="st0" d="M524.7,79.9c-9,0.1-18.1,0.2-27.1,0c-3.2-0.1-3.8,1-3.7,3.9c0.1,23.9,0.1,47.8,0.1,71.6c0,24,0,48-0.1,72.1
			c0,2.8,0.6,3.7,3.5,3.6c9.3-0.2,18.7-0.2,28,0c2.3,0,2.9-0.7,2.9-2.9c-0.1-48.3-0.1-96.7,0-145C528.3,80.3,527.2,79.9,524.7,79.9z
			"/>
	</g>
	<g>
		<path class="st0" d="M8.8,273.1l8.8,0l8.2,22.5H26l8.2-22.5l8.9,0L43,304.8l-5.6,0l0-25.5l-0.1,0l-9.7,25.5l-3.9,0l-9.4-25.5h-0.1
			l0,25.5l-5.4,0L8.8,273.1z"/>
		<path class="st0" d="M63,302.1h-0.1c-1.1,1.9-3.6,3.3-6.7,3.3c-3.4,0-8.1-1.7-8-6.7c0-6.4,8.1-7.3,14.8-7.3v-0.5
			c0-2.6-2.2-3.9-4.9-4c-2.3,0-4.5,1.1-5.9,2.5l-2.8-3.3c2.4-2.2,5.8-3.4,9.1-3.4c7.7,0,9.6,4.8,9.6,9.1l0,13.1l-5,0L63,302.1z
			 M62.9,295.1l-1.2,0c-3.4,0-8.2,0.4-8.2,3.6c0,2.1,1.9,2.7,3.8,2.7c3.7,0,5.6-2.1,5.7-5.5L62.9,295.1z"/>
		<path class="st0" d="M94.8,295.9l-16.3,0c0.2,3,3,5.3,6.1,5.3c2.7,0,4.5-1.1,5.7-2.8l3.6,2.9c-2.1,2.9-5.2,4.3-9.2,4.3
			c-6.6,0-11.5-4.3-11.5-11.3c0-6.9,4.9-11.5,11.4-11.5c6,0,10.4,3.9,10.4,11.7C94.8,294.9,94.8,295.4,94.8,295.9z M89.5,292
			c0-2.8-1.6-5.2-5-5.2c-3.2,0-5.7,2.2-6,5.2L89.5,292z"/>
		<path class="st0" d="M111.8,289.2c-0.9-1.3-2.7-2.3-4.7-2.3c-1.7,0-3.4,0.6-3.5,2.3c0,1.7,1.7,2.1,4.7,2.8
			c3.2,0.8,6.9,2.2,6.9,6.4c0,5.2-4.3,7.2-9,7.1c-3.3,0-6.8-1.3-8.8-3.6l3.5-3.3c1.2,1.5,3.2,2.7,5.5,2.7c1.6,0,3.4-0.6,3.5-2.5
			c0-1.8-1.7-2.3-4.9-3.1c-3.2-0.8-6.4-2.1-6.3-6.1c0-4.8,4.3-6.8,8.6-6.8c3.1,0,6.3,1.1,8.1,3.3L111.8,289.2z"/>
		<path class="st0" d="M116.8,287.8l0-4.3l3.8,0l0-6.2l5.3,0l0,6.2l5.4,0l0,4.3l-5.4,0l0,10c0,1.9,0.4,3.3,2.8,3.3
			c0.7,0,1.7-0.1,2.3-0.4l0.2,4.2c-0.9,0.4-2.4,0.6-3.6,0.6c-5.7,0-7-3.5-7-7.6l0-10L116.8,287.8z"/>
		<path class="st0" d="M135.2,283.5l5.1,0l0,3.6h0.1c1.2-2.5,3.5-4.2,6.3-4.2c0.4,0,0.9,0,1.3,0.1l0,4.9c-0.7-0.2-1.2-0.2-1.7-0.2
			c-4.8,0-5.8,4.2-5.8,5.8l0,11.5l-5.4,0L135.2,283.5z"/>
		<path class="st0" d="M151.5,283.5l5.4,0l0,21.5l-5.4,0L151.5,283.5z M156,273.3l6.1,0l-6.3,6.4l-4.2,0L156,273.3z"/>
		<path class="st0" d="M176.8,302.3h-0.1c-1.1,1.9-3.6,3.3-6.7,3.3c-3.4,0-8.1-1.7-8-6.7c0-6.4,8.1-7.3,14.8-7.3v-0.5
			c0-2.6-2.2-3.9-4.9-4c-2.3,0-4.5,1.1-5.9,2.5l-2.8-3.3c2.4-2.2,5.8-3.4,9.1-3.4c7.7,0,9.6,4.8,9.6,9.1l0,13.1l-5,0L176.8,302.3z
			 M176.7,295.3l-1.2,0c-3.4,0-8.2,0.4-8.2,3.6c0,2.1,1.9,2.7,3.8,2.7c3.7,0,5.6-2.1,5.7-5.5L176.7,295.3z"/>
		<path class="st0" d="M219.7,296.1l-16.3,0c0.2,3,3,5.3,6.1,5.3c2.7,0,4.5-1.1,5.7-2.8l3.6,2.9c-2.1,2.9-5.2,4.3-9.2,4.3
			c-6.6,0-11.5-4.3-11.5-11.3c0-6.9,4.9-11.5,11.4-11.5c6,0,10.4,3.9,10.4,11.7C219.8,295.2,219.8,295.6,219.7,296.1z M214.4,292.2
			c0-2.8-1.6-5.2-5-5.2c-3.2,0-5.7,2.2-6,5.2L214.4,292.2z"/>
		<path class="st0" d="M225,283.7l5.1,0l0,3.4h0.1c0.9-2.1,3.5-4.1,6.7-4.1c5.6,0,7.9,4.3,7.9,8.7l0,13.4l-5.4,0l0-11.9
			c0-2.6-0.6-5.7-4-5.7c-3.4,0-5,2.9-5,5.8l0,11.8l-5.4,0L225,283.7z"/>
		<path class="st0" d="M262.5,273.5l11.2,0c8.3,0,17.5,4,17.5,15.9c0,11.1-9.3,15.8-17.5,15.8l-11.2,0L262.5,273.5z M272.8,300.3
			c5.8,0,12.4-2.4,12.4-10.9c0-9.1-6.5-11-12.3-11l-4.7,0l0,21.9L272.8,300.3z"/>
		<path class="st0" d="M299.2,273.3c2,0,3.5,1.4,3.5,3.2s-1.5,3.2-3.5,3.2c-2,0-3.4-1.5-3.4-3.2
			C295.8,274.8,297.2,273.3,299.2,273.3z M296.6,283.8l5.4,0l0,21.5l-5.4,0L296.6,283.8z"/>
		<path class="st0" d="M320.2,289.6c-0.9-1.3-2.7-2.3-4.7-2.3c-1.7,0-3.4,0.6-3.5,2.3c0,1.7,1.7,2.1,4.7,2.8
			c3.2,0.8,6.9,2.2,6.9,6.4c0,5.2-4.3,7.2-9,7.1c-3.3,0-6.8-1.3-8.8-3.6l3.5-3.3c1.2,1.5,3.2,2.7,5.5,2.7c1.6,0,3.4-0.6,3.5-2.5
			c0-1.8-1.7-2.3-4.9-3.1c-3.2-0.8-6.4-2.1-6.3-6.1c0-4.8,4.3-6.8,8.6-6.8c3.1,0,6.3,1.1,8.1,3.3L320.2,289.6z"/>
		<path class="st0" d="M348.8,296.4l-16.3,0c0.2,3,3,5.3,6.1,5.3c2.7,0,4.5-1.1,5.7-2.8l3.6,2.9c-2.1,2.9-5.2,4.3-9.2,4.3
			c-6.6,0-11.5-4.3-11.5-11.3c0-6.9,4.9-11.5,11.4-11.5c6,0,10.4,3.9,10.4,11.7C348.8,295.4,348.8,295.9,348.8,296.4z M343.5,292.5
			c0-2.8-1.6-5.2-5-5.2c-3.2,0-5.7,2.2-6,5.2L343.5,292.5z"/>
		<path class="st0" d="M354.1,283.9l5.1,0l0,3.4l0.1,0c0.9-2.1,3.5-4.1,6.7-4.1c5.6,0,7.9,4.3,7.9,8.7l0,13.4l-5.4,0l0-11.9
			c0-2.6-0.6-5.7-4-5.7c-3.4,0-5,2.9-5,5.8l0,11.8l-5.4,0L354.1,283.9z M355.7,280c0.5-2.9,1.7-5.7,5-5.7c1.2,0,2.5,0.4,3.5,0.8
			c1.2,0.5,2.2,0.9,2.9,0.9c1.2,0,1.7-0.9,2.1-1.9l3,0c-0.5,2.9-1.7,5.7-5,5.7c-1.3,0-2.6-0.4-3.7-0.9c-1.1-0.5-2.1-0.8-2.8-0.8
			c-1.2,0-1.7,0.9-2.1,1.9L355.7,280z"/>
		<path class="st0" d="M390.5,283.4c6.5,0,11.7,4.5,11.7,11.3s-5.2,11.5-11.7,11.4c-6.5,0-11.7-4.7-11.7-11.5
			S384.1,283.3,390.5,283.4z M390.5,301.6c4.3,0,6.2-3.6,6.2-7c0-3.4-2-6.9-6.2-6.9c-4.3,0-6.2,3.5-6.2,6.9
			C384.3,298,386.3,301.6,390.5,301.6z"/>
		<path class="st0" d="M407.9,299.3l5.2,0l-3.8,11.8l-4.5,0L407.9,299.3z"/>
		<path class="st0" d="M428.7,273.8l5.6,0l-0.1,31.7l-5.6,0L428.7,273.8z"/>
		<path class="st0" d="M441,284.1l5.1,0l0,3.4h0.1c0.9-2.1,3.5-4.1,6.7-4.1c5.6,0,7.9,4.3,7.9,8.7l0,13.4l-5.4,0l0-11.9
			c0-2.6-0.6-5.7-4-5.7c-3.4,0-5,2.9-5,5.8l0,11.8l-5.4,0L441,284.1z"/>
		<path class="st0" d="M467.9,288.4l-4.1,0l0-4.3l4.1,0l0-3.2c0-5.1,2-9.7,8.7-9.7c1.2,0,1.9,0.1,2.7,0.3l-0.4,4.6
			c-0.6-0.2-1.3-0.3-2.1-0.3c-3.1,0-3.6,2.7-3.6,4.8l0,3.5l5,0l0,4.3l-5,0l0,17.2l-5.4,0L467.9,288.4z"/>
		<path class="st0" d="M492,283.5c6.5,0,11.7,4.5,11.7,11.3s-5.2,11.5-11.7,11.4c-6.5,0-11.7-4.7-11.7-11.5S485.5,283.5,492,283.5z
			 M492,301.8c4.3,0,6.2-3.6,6.2-7c0-3.4-2-6.9-6.2-6.9c-4.3,0-6.2,3.5-6.2,6.9C485.8,298.2,487.7,301.8,492,301.8z"/>
		<path class="st0" d="M508.9,284.2l5.1,0l0,3.6h0.1c1.2-2.5,3.5-4.2,6.3-4.2c0.4,0,0.9,0,1.3,0.1l0,4.9c-0.7-0.2-1.2-0.2-1.7-0.2
			c-4.8,0-5.8,4.2-5.8,5.8l0,11.5l-5.4,0L508.9,284.2z"/>
		<path class="st0" d="M558.8,292.4l0,13.4l-5.4,0l0-11.9c0-2.6-0.6-5.7-4-5.7c-3.4,0-4.8,3.1-4.8,5.9l0,11.7l-5.4,0l0-13
			c0-2.6-1.2-4.7-4-4.7c-3.2,0-4.7,2.9-4.7,5.8l0,11.8l-5.4,0l0-21.5l5.1,0l0,3.4h0.1c0.9-2.1,3.2-4.1,6.7-4.1
			c3.3,0,5.5,1.7,6.7,4.1c1.4-2.6,3.9-4.1,7.1-4.1C556.5,283.7,558.8,288,558.8,292.4z"/>
		<path class="st0" d="M578.4,303.1h-0.1c-1.1,1.9-3.6,3.3-6.7,3.3c-3.4,0-8.1-1.7-8-6.7c0-6.4,8.1-7.3,14.8-7.3v-0.5
			c0-2.6-2.2-3.9-4.9-4c-2.3,0-4.5,1.1-5.9,2.5l-2.8-3.3c2.4-2.2,5.8-3.4,9.1-3.4c7.7,0,9.6,4.8,9.6,9.1l0,13.1l-5,0L578.4,303.1z
			 M578.3,296l-1.2,0c-3.4,0-8.2,0.4-8.2,3.6c0,2.1,1.9,2.7,3.8,2.7c3.7,0,5.6-2.1,5.7-5.5L578.3,296z"/>
		<path class="st0" d="M604.4,290.3c-0.8-1.2-2.7-2.1-4.4-2.1c-3.9,0-5.9,3.5-5.9,6.9c0,3.4,2,6.9,6.1,6.9c1.7,0,3.5-0.7,4.5-1.9
			l3.4,3.4c-1.8,1.9-4.8,3-7.9,3c-6.4,0-11.6-4.2-11.6-11.4c0-7,5.2-11.4,11.5-11.4c3.1,0,6.4,1.3,8.1,3.4L604.4,290.3z"/>
		<path class="st0" d="M614.3,273.9c2,0,3.5,1.4,3.5,3.2s-1.5,3.2-3.5,3.2c-2,0-3.4-1.5-3.4-3.2
			C610.9,275.4,612.3,273.9,614.3,273.9z M611.6,284.4l5.4,0l0,21.5l-5.4,0L611.6,284.4z"/>
		<path class="st0" d="M634,283.8c6.5,0,11.7,4.5,11.7,11.3c0,6.8-5.2,11.5-11.7,11.4c-6.5,0-11.7-4.7-11.7-11.5
			C622.3,288.3,627.5,283.8,634,283.8z M633.9,302.1c4.3,0,6.2-3.6,6.2-7c0-3.4-2-6.9-6.2-6.9c-4.3,0-6.2,3.5-6.2,6.9
			C627.7,298.4,629.7,302.1,633.9,302.1z M635.2,274.2l6.1,0l-6.3,6.4l-4.2,0L635.2,274.2z"/>
		<path class="st0" d="M650.9,284.5l5.1,0l0,3.4l0.1,0c0.9-2.1,3.5-4.1,6.7-4.1c5.6,0,7.9,4.3,7.9,8.7l0,13.4l-5.4,0l0-11.9
			c0-2.6-0.6-5.7-4-5.7c-3.4,0-5,2.9-5,5.8l0,11.8l-5.4,0L650.9,284.5z"/>
		<path class="st0" d="M5.2,337l6,0l6,15.6h0.1l5.4-15.6l5.6,0l-10.2,26.1c-1.5,3.9-3.4,6.1-8.2,6.1c-0.9,0-1.8-0.1-2.8-0.3l0.5-4.7
			c0.7,0.2,1.4,0.3,2,0.3c2.3,0,2.9-1.1,3.8-3.4l1.1-2.7L5.2,337z"/>
		<path class="st0" d="M65.7,334.3c-1.7-2.3-4.6-3.3-7.2-3.3c-6.5,0-11,5-11,11.6c0,6.9,4.2,11.7,10.7,11.7c3.4,0,6.1-1.5,7.7-3.7
			l4.5,3.2c-2.8,3.5-6.9,5.5-12.3,5.5c-9.9,0-16.9-6.9-16.9-16.8c0-10.2,7.5-16.6,17.2-16.5c4.1,0,9,1.5,11.5,4.9L65.7,334.3z"/>
		<path class="st0" d="M83.6,336.5c6.5,0,11.7,4.5,11.7,11.3s-5.2,11.5-11.7,11.4c-6.5,0-11.7-4.7-11.7-11.5S77.2,336.5,83.6,336.5z
			 M83.6,354.8c4.3,0,6.2-3.6,6.2-7c0-3.4-2-6.9-6.2-6.9c-4.3,0-6.2,3.5-6.2,6.9C77.4,351.1,79.4,354.8,83.6,354.8z"/>
		<path class="st0" d="M134.1,345.3l0,13.4l-5.4,0l0-11.9c0-2.6-0.6-5.7-4-5.7c-3.4,0-4.8,3.1-4.8,5.9l0,11.7l-5.4,0l0-13
			c0-2.6-1.2-4.7-4-4.7c-3.2,0-4.7,2.9-4.7,5.8l0,11.8l-5.4,0l0-21.5l5.1,0l0,3.4l0.1,0c0.9-2.1,3.2-4.1,6.7-4.1
			c3.3,0,5.5,1.7,6.7,4.1c1.4-2.6,3.9-4.1,7.1-4.1C131.8,336.6,134.1,340.9,134.1,345.3z"/>
		<path class="st0" d="M160,358.8l-5.1,0l0-3.4h-0.1c-0.9,2.1-3.5,4.1-6.7,4.1c-5.6,0-7.9-4.3-7.9-8.7l0-13.4l5.4,0l0,11.9
			c0,2.6,0.6,5.7,4,5.7c3.4,0,5-2.9,5-5.8l0-11.8l5.4,0L160,358.8z"/>
		<path class="st0" d="M166.5,337.3l5.1,0l0,3.4h0.1c0.9-2.1,3.5-4.1,6.7-4.1c5.6,0,7.9,4.3,7.9,8.7l0,13.4l-5.4,0l0-11.9
			c0-2.6-0.6-5.7-4-5.7c-3.4,0-5,2.9-5,5.8l0,11.8l-5.4,0L166.5,337.3z"/>
		<path class="st0" d="M195.3,326.8c2,0,3.5,1.4,3.5,3.2c0,1.8-1.5,3.2-3.5,3.2c-2,0-3.4-1.5-3.4-3.2
			C191.9,328.3,193.3,326.8,195.3,326.8z M192.6,337.3l5.4,0l0,21.5l-5.4,0L192.6,337.3z"/>
		<path class="st0" d="M219.2,343.4c-0.8-1.2-2.7-2.1-4.4-2.1c-3.9,0-5.9,3.5-5.9,6.9c0,3.4,2,6.9,6.1,6.9c1.7,0,3.5-0.7,4.5-1.9
			l3.4,3.4c-1.8,1.9-4.8,3-7.9,3c-6.4,0-11.6-4.2-11.6-11.4c0-7,5.2-11.4,11.5-11.4c3.1,0,6.4,1.3,8.1,3.4L219.2,343.4z"/>
		<path class="st0" d="M239.7,356.2h-0.1c-1.1,1.9-3.6,3.3-6.7,3.3c-3.4,0-8.1-1.7-8-6.7c0-6.4,8.1-7.3,14.8-7.3l0-0.5
			c0-2.6-2.2-3.9-4.9-3.9c-2.3,0-4.5,1.1-5.9,2.5l-2.8-3.3c2.4-2.2,5.8-3.4,9.1-3.4c7.7,0,9.6,4.8,9.6,9.1l0,13.1l-5,0L239.7,356.2z
			 M239.6,349.1l-1.2,0c-3.4,0-8.2,0.4-8.2,3.6c0,2.1,1.9,2.7,3.8,2.7c3.7,0,5.6-2.1,5.7-5.5L239.6,349.1z"/>
		<path class="st0" d="M265.7,343.4c-0.8-1.2-2.7-2.1-4.4-2.1c-3.9,0-5.9,3.5-5.9,6.9c0,3.4,2,6.9,6.1,6.9c1.7,0,3.5-0.7,4.5-1.9
			l3.4,3.4c-1.8,1.9-4.8,3-7.9,3c-6.4,0-11.6-4.2-11.6-11.4c0-7,5.2-11.4,11.5-11.4c3.1,0,6.4,1.3,8.1,3.4L265.7,343.4z"/>
		<path class="st0" d="M275.6,327c2,0,3.5,1.4,3.5,3.2c0,1.8-1.5,3.2-3.5,3.2c-2,0-3.4-1.5-3.4-3.2C272.2,328.5,273.6,327,275.6,327
			z M272.9,337.5l5.4,0l0,21.5l-5.4,0L272.9,337.5z"/>
		<path class="st0" d="M295.3,336.9c6.5,0,11.7,4.5,11.7,11.3s-5.2,11.5-11.7,11.4c-6.5,0-11.7-4.7-11.7-11.5
			S288.8,336.9,295.3,336.9z M295.3,355.2c4.3,0,6.2-3.6,6.2-7c0-3.4-2-6.9-6.2-6.9c-4.3,0-6.2,3.5-6.2,6.9
			C289,351.5,291,355.2,295.3,355.2z M296.5,327.3l6.1,0l-6.3,6.4l-4.2,0L296.5,327.3z"/>
		<path class="st0" d="M312.2,337.6l5.1,0l0,3.4h0.1c0.9-2.1,3.5-4.1,6.7-4.1c5.6,0,7.9,4.3,7.9,8.7l0,13.4l-5.4,0l0-11.9
			c0-2.6-0.6-5.7-4-5.7c-3.4,0-5,2.9-5,5.8l0,11.8l-5.4,0L312.2,337.6z"/>
	</g>
</g>
</svg>
