<?xml version="1.0" encoding="utf-8"?>
<!-- Generator: Adobe Illustrator 25.2.3, SVG Export Plug-In . SVG Version: 6.00 Build 0)  -->
<svg version="1.1" id="Capa_1" xmlns="http://www.w3.org/2000/svg" xmlns:xlink="http://www.w3.org/1999/xlink" x="0px" y="0px"
	 viewBox="0 0 511 295" style="enable-background:new 0 0 511 295;" xml:space="preserve">
<style type="text/css">
	.st0{fill:none;}
	.st1{fill:#FFFFFF;}
	.st2{fill:none;stroke:#FFFFFF;stroke-width:0;stroke-linecap:round;stroke-linejoin:round;}
	.st3{fill:#0A080B;}
</style>
<g>
	<path class="st0" d="M315.1,247.5C315,247.5,315,247.5,315.1,247.5C315,247.5,315,247.6,315.1,247.5c0,0.1,0,0.1,0,0.1
		C315.1,247.5,315.1,247.5,315.1,247.5z"/>
	<path class="st0" d="M325.2,253.3c0.1-0.2,0.1,0,0.2-0.2l-0.1-0.1C325.2,253.1,325.1,253.3,325.2,253.3z"/>
	<path class="st0" d="M315.1,247.6c0.1,0.1,0.2,0.2,0.2,0.2l-0.1-0.5L315.1,247.6z"/>
	<path class="st0" d="M244.3,20.7c2.6,0,4-2,4-5.3c0-3-1.2-5.4-3.7-5.4c-2.4,0-4,1.9-4,5.1C240.5,18.1,241.7,20.7,244.3,20.7z"/>
	<path class="st0" d="M216.8,20.7c2.6,0,4-2,4-5.3c0-3-1.2-5.4-3.7-5.4c-2.4,0-4,1.9-4,5.1C213.1,18.1,214.2,20.7,216.8,20.7z"/>
	<path class="st0" d="M330.3,277.4c-2,0-3.4,1.3-3.7,4.2h6.8C333.4,279.2,332.8,277.4,330.3,277.4z"/>
	<path class="st0" d="M181.4,18.1c0,1.5,0.7,2.5,2.6,2.5c1.6,0,3-0.8,3.4-1.2v-4.2c-0.9,0-2.9,0.1-4,0.6
		C182.1,16.2,181.4,16.9,181.4,18.1z"/>
	<path class="st0" d="M363.7,285.5c0,1.4,0.7,2.5,2.6,2.5c1.6,0,3-0.8,3.4-1.2v-4.2c-0.9,0-2.9,0.1-4,0.6
		C364.4,283.7,363.7,284.4,363.7,285.5z"/>
	<path class="st0" d="M491.3,19.2c2.6,0,4-2,4-5.3c0-3-1.2-5.4-3.7-5.4c-2.4,0-4,1.9-4,5.1C487.6,16.6,488.8,19.2,491.3,19.2z"/>
	<path class="st0" d="M422.5,16.6c0,1.5,0.7,2.5,2.6,2.5c1.6,0,3-0.8,3.4-1.2v-4.2c-0.9,0-2.9,0.1-4,0.6
		C423.2,14.7,422.5,15.4,422.5,16.6z"/>
	<path class="st0" d="M456.5,16.6c-0.1,1.5,0.7,2.5,2.6,2.5c1.6,0,3-0.8,3.4-1.2v-4.2c-0.9,0-2.9,0.1-4,0.6
		C457.2,14.7,456.5,15.4,456.5,16.6z"/>
	<path class="st0" d="M294.9,277.4c-2,0-3.4,1.3-3.7,4.2h6.8C298.1,279.2,297.4,277.4,294.9,277.4z"/>
	<path class="st0" d="M190.4,47.9c-0.1-0.1-0.2-0.2-0.2-0.2l0.1,0.5L190.4,47.9z"/>
	<path class="st0" d="M180.1,42.7c-0.1,0.2-0.1,0-0.2,0.2l0.1,0.1C180.1,43,180.2,42.7,180.1,42.7z"/>
	<path class="st0" d="M151.1,13c0-5.1-2.2-7.2-6.6-7.2c-1,0-2.1,0.1-2.8,0.1v14.5c0.8,0.1,2.2,0.2,3.3,0.2
		C148.6,20.6,151.1,18.1,151.1,13z"/>
	<path class="st0" d="M107.6,277.1c-2.4,0-4,1.9-4,5.1c0,2.9,1.2,5.5,3.7,5.5c2.6,0,4-2,4-5.3C111.3,279.5,110.1,277.1,107.6,277.1z
		"/>
	<path class="st0" d="M190.4,48C190.4,48,190.4,48,190.4,48C190.4,47.9,190.4,47.9,190.4,48c0-0.1,0-0.1,0-0.1
		C190.4,47.9,190.4,48,190.4,48z"/>
	<path class="st0" d="M68,253.3c0.1-0.2,0.1,0,0.2-0.2l-0.1-0.1C68,253.1,67.9,253.3,68,253.3z"/>
	<path class="st0" d="M72.5,285.2c-0.1,1.5,0.7,2.5,2.6,2.5c1.6,0,3-0.8,3.4-1.2v-4.2c-0.9,0-2.9,0.1-4,0.6
		C73.2,283.3,72.5,284,72.5,285.2z"/>
	<path class="st0" d="M63.3,277.1c-2,0-3.4,1.3-3.7,4.2h6.8C66.5,279,65.8,277.1,63.3,277.1z"/>
	<path class="st0" d="M398.9,277.4c-2.4,0-4,1.9-4,5.1c0,2.9,1.2,5.5,3.7,5.5c2.4,0,4-2,4-5.3C402.6,279.7,401.4,277.4,398.9,277.4z
		"/>
	<path class="st0" d="M14.4,272.8c-0.9,0-2,0.1-2.8,0.2v8.4c0.8,0,2.1,0,2.8,0c2.7,0,4.7-1.2,4.7-4.4
		C19.1,274,17.6,272.7,14.4,272.8z"/>
	<path class="st0" d="M274.5,277.5c-1.5,0-2.8,0.8-3.4,1.3v8.5c0.5,0.4,1.3,0.7,2.7,0.7c2.4,0,4.3-2,4.4-5.5
		C278.3,279.1,276.9,277.5,274.5,277.5z"/>
	<path class="st0" d="M32,285.2c-0.1,1.5,0.7,2.5,2.6,2.5c1.6,0,3-0.8,3.4-1.2v-4.2c-0.9,0-2.9,0.1-4,0.6
		C32.7,283.3,32,284,32,285.2z"/>
	<path class="st0" d="M161,10c-2,0-3.4,1.3-3.7,4.2h6.8C164.2,11.9,163.5,10,161,10z"/>
	<path class="st0" d="M446.8,48c-0.1-0.1-0.2-0.2-0.2-0.2l0.1,0.5L446.8,48z"/>
	<path class="st0" d="M446.8,48.1C446.9,48.1,446.9,48.1,446.8,48.1C446.9,48,446.9,48,446.8,48.1c0-0.1,0-0.1,0-0.1
		C446.8,48,446.8,48.1,446.8,48.1z"/>
	<path class="st0" d="M436.7,42.4c-0.1,0.2-0.1,0-0.2,0.2l0.1,0.1C436.7,42.6,436.8,42.4,436.7,42.4z"/>
	<path class="st1" d="M173.1,112.1c0,0-0.1,0-0.1,0C173,112.1,173.1,112.1,173.1,112.1z"/>
	<path class="st1" d="M170.7,104.4c0,0-0.1,0.1-0.1,0.1C170.6,104.5,170.7,104.5,170.7,104.4L170.7,104.4z"/>
	<polygon class="st1" points="176.4,105.5 176.4,105.5 176.4,105.5 	"/>
	<path class="st1" d="M165.1,108c-0.1,0-0.1-0.1-0.2-0.1c0,0,0,0.1,0.1,0.2C165,108.1,165,108.1,165.1,108z"/>
	<path class="st1" d="M182.3,108.8C182.3,108.8,182.3,108.7,182.3,108.8c-0.2,0.1-0.2,0.1-0.3,0.2c0,0.1,0,0.2-0.1,0.2
		c0,0,0-0.1,0.1-0.1C182.1,109,182.2,108.9,182.3,108.8z"/>
	<path class="st1" d="M175.6,114.7c0.6-0.2,1-0.5,1.6-0.7c2-0.7,3-2.3,4.3-4c0.1-0.1,0.2-0.2,0.2-0.4c0,0.1-0.1,0.2-0.2,0.3
		l-0.5,0.6c-1,1.4-2.2,2.8-4.1,3.5c-0.4,0.1-0.6,0.2-0.8,0.4c-0.2,0.1-0.5,0.2-0.7,0.3c-0.2,0.1-0.3,0.1-0.5,0.1c0,0,0,0,0,0
		C175.2,114.8,175.3,114.8,175.6,114.7z"/>
	<path class="st1" d="M171,113.9c-0.3-0.1-0.6-0.1-0.9-0.2c-0.4-0.1-0.8-0.2-1.2-0.3c0.7,0.4,1.7,0.5,2.5,0.7L171,113.9z"/>
	<path class="st1" d="M133.2,133.5c1.2,0,2.2,0,3.1,0h0.5c1.5,0.1,3-0.2,4.7-0.5l0.7-0.1c0.3-0.1,0.8-0.1,1.3,0l0.2,0.1
		c0.2,0.1,0.3,0.1,0.6,0.1c0.1,0,0.3,0,0.5,0c0.2,0,0.6,0,0.8,0c1.2-0.1,2.2,0.1,3.4,0.4c0.3,0.1,0.8,0.1,1.2,0.2
		c0.1,0,0.2,0,0.3,0.1h0.1c1.6-0.1,3.3,0.5,4.7,0.9l0.7,0.2c0.5,0.2,1.3,0.1,2-0.1c0.7-0.2,1.4-0.7,2.1-1.1c0.6-0.4,1-0.6,1.6-0.8
		c0.8-0.4,1.6-0.7,2.6-1.1c0.6-0.2,1.2-0.5,1.6-0.7h0.1h0.1c0.5,0,1,0,1.5,0.1c0.5,0,0.8,0.1,1.3,0.1c0.3,0,0.6-0.1,0.6-0.1
		c0-0.1,0.1-0.2-0.1-0.7c-0.1-0.4-0.2-0.8-0.1-1.3c0.1-0.9,0.1-2,0.2-2.9c0.1-1.1,0.1-2,0.2-3c0.1-1.3,0.2-2.6,0.2-4
		c0-0.5,0-0.9-0.2-1.3c0-0.1-0.1-0.2-0.2-0.2c-0.3-0.5-0.9-1.3-0.2-2.2c-0.1-0.1-0.3-0.4-0.5-0.5c-3.1-0.6-5-2.8-5-6
		c0-0.1,0-0.2,0-0.2c0-0.2-0.1-0.6,0-0.9c0.1-0.4,0.6-0.7,0.8-0.7c0.2-0.1,0.5-0.1,0.7,0c0.7,0.5,1.3,0.9,1.2,1.5
		c-0.2,1.3,0.6,2.1,1.5,3c0.1,0.1,0.4,0.4,0.5,0.5c0.3,0.4,1.2,0.6,1.9,0.7c0.1,0,0.2,0,0.3,0.1c-0.1-0.2-0.3-0.6-0.5-0.8
		c-0.2-0.5-0.6-1.1-0.8-1.5c-0.9-2-0.9-4-0.2-5.8c0.2-0.6,0.7-1.1,1.2-1.2c0.1,0,0.5-0.1,1,0.5c0.2,0.2,0.6,0.6,0.5,0.9
		c-0.6,2.1,0.1,4.2,0.8,5.8c0.1,0.1,0.2,0.3,0.4,0.5c0.2-0.1,0.5-0.2,0.5-0.4c0.1-0.6,0.5-1.1,0.7-1.5c0.5-0.8,0.8-1.6,0.7-2.6
		c-0.1-0.7,0.3-1.3,0.7-1.8c0.3-0.5,1-0.5,1.4-0.3c0.5,0.1,0.8,0.7,0.8,1.2v0.2c0,1.9,0,3.9-1,5.7c-0.3,0.6-0.7,1.3-1,2
		c0,0,0,0,0.1,0c0.3-0.1,0.6-0.2,0.9-0.5c1.5-0.6,2.6-1.9,3.6-3.2l0.5-0.6c0-0.1,0.1-0.2,0.1-0.4c0.1-0.2,0.1-0.4,0.3-0.6
		c0.2-0.2,0.3-0.5,0.6-0.6c0.1-0.1,0.1-0.1,0.2-0.2l0.5-0.5l0.3,0.6c0.2,0.3,0.5,0.6,0.6,0.9c0.1,0.3,0.1,0.6,0,0.9
		c0,1.7-1.2,2.9-2.1,3.7l-0.5,0.5c-0.8,0.7-1.7,1.4-2.8,1.9c-0.8,0.4-1.7,0.6-2.7,0.8c-0.4,0-0.6,0.1-0.9,0.2
		c-1.2,0.2-1.3,1.1-1.3,1.3c-0.1,0.8-0.1,1.8-0.1,2.6c0,0.7,0,1.4-0.1,2.1c0,0.5-0.1,0.9-0.2,1.4c-0.1,0.5-0.2,0.9-0.2,1.3
		c0.1,0.7,0.3,1.4,0.3,2.1c0,0.1,0,0.2,0,0.3c0,0,0,0,0,0c0,0.9,0,1.9-0.1,2.8c0.6,0.2,1.2,0.6,1.7,0.8c0.2,0.1,0.5,0.2,0.7,0.2
		c0.2,0,0.3,0.1,0.5,0.1c0.1,0,0.1,0,0.2,0.1c0.1,0,0.2,0,0.2,0.1c0.5,0.1,1,0.3,1.5,0.5c0.6,0.2,1.2,0.3,1.8,0.5
		c0.3,0.1,0.6,0.1,0.9,0.2c0.6,0.1,1.2,0.3,1.8,0.4c0.7,0.1,1.4,0.3,2.1,0.3c2,0.1,4.1,0.1,6.5,0c1.2-0.1,2.4-0.3,3.7-0.5
		c0.3-0.1,0.7-0.1,1.2-0.2c0.7-0.1,1.3-0.2,1.9-0.3c0.9-0.2,1.9-0.4,2.9-0.5c0.5,0,0.9-0.1,1.4-0.2c1.4-0.2,3-0.5,4.4-0.2
		c0.2,0,0.4,0.1,0.6,0.2c0.2,0.1,0.3,0.1,0.5,0.1c0.5,0.1,1.1,0.3,1.6,0.3c0.8,0.1,1.6,0.4,2.4,0.6c1,0.4,2.7,0.6,4.2-0.2
		c0.6-0.4,1.2-0.4,1.7-0.5c0.3-0.1,0.7-0.1,0.9-0.2c0.3-0.1,0.8-0.2,1.2-0.5c0.7-0.3,1.5-0.6,2.3-0.7c0.9-0.1,1.9-0.1,2.8,0h0.2
		c0.6,0,1.2,0,1.6,0c0.2,0,0.5,0,0.8,0c0.5,0,0.8-0.1,1.3,0c0.1,0,0.2,0,0.3,0c0.2,0,0.4,0,0.6,0c2.2,0.2,4.4,0.5,6.6,0.7
		c0.9,0.1,1.9,0,2.9,0.2c0.8,0.1,1.6,0.3,2.3,0.7c1.2,0,2.3,0.1,3.4,0.4c0.7,0.2,1.4,0.4,2,0.6h0.2c-6.1-26.2-29.1-45.8-56.9-46.6
		c-0.6,0.3-1.4,0.1-2,0c-28.2,0.2-51.8,19.8-58.1,46.1c1-0.1,1.8-0.1,2.8-0.1H133.2z"/>
	<path class="st1" d="M248.2,144.2C248.2,144.2,248.2,144.2,248.2,144.2c0-0.2,0-0.5,0-0.7C248.1,143.8,248.1,144,248.2,144.2z"/>
	<path class="st1" d="M248.2,146.8c-0.3,0-0.6-0.1-0.9-0.2c-0.5-0.1-0.9-0.2-1.5-0.2c-1.4-0.1-2.8-0.2-4.2-0.3
		c-2.7-0.2-5.5-0.5-8.2-0.4c-0.6,0-1.3,0-2.1,0s-1.7-0.1-2.6-0.1c-1.7-0.1-3.6-0.2-5.4-0.2c-0.8,0-1.5-0.1-2.2-0.2
		c-0.5-0.1-0.9-0.2-1.4-0.2c-0.8-0.1-1.6,0-2.6,0c-0.8,0-1.7,0-2.6,0c-1.9-0.1-3.6-0.3-5.5-0.5c-1-0.1-2.2-0.2-3.3-0.4
		c-0.1,0-0.2,0-0.3,0c-0.2,0-0.5,0.1-0.7,0.1c-0.6,0-1,0-1.6-0.1c-0.8,0-1.5-0.1-2.3-0.1c-0.5,0-0.9,0-1.4,0.1
		c-0.5,0-0.9,0.1-1.4,0.1c-0.7,0-1.5,0-2.2,0c-1,0-2.2,0-3.3,0c-1,0-2.1,0.2-3.1,0.4c-0.7,0.1-1.4,0.1-2.1,0.2c-0.3,0-0.6,0-0.8-0.1
		c-0.2,0-0.3-0.1-0.5,0c-2.1,0.2-4.1,0.4-6.2,0.6l-3.1,0.4c-0.5,0-0.9,0.1-1.3,0.1c-0.6,0-1.2,0.1-1.7,0.1c-0.6,0-1,0.1-1.5,0.2
		c-0.5,0.1-1,0.1-1.5,0.2c-0.5,0-1,0.1-1.6,0c-1.9-0.3-3.7-0.2-5.6,0.5c-0.1,0-0.3,0-0.3,0c-0.8,0-1.7,0.1-2.6,0.1
		c-1.5,0.1-3,0.2-4.5,0.2c-1.9,0.1-3.7,0.1-5.6,0.2h-0.8c-0.5,0-0.9,0-1.5,0c-0.5,0-0.8,0-1.3,0c-2.9,0.1-5.9,0.1-8.8,0.2l-3,0.1
		c-2,0-4,0.1-5.9,0.1c-0.6,0-0.6,0-0.7,0c-0.1,0-0.2,0-0.3-0.1c0,0.1,0,0.1,0,0.2c0,33.3,26.9,60.3,60.1,60.3
		c33.2,0,60.1-27,60.1-60.3C248.2,147.5,248.2,147.1,248.2,146.8z"/>
	<path class="st1" d="M376.4,154.5c0-0.1,0-0.2,0-0.3c0,0.1,0,0.3,0,0.4C376.4,154.6,376.4,154.6,376.4,154.5z"/>
	<path class="st1" d="M256.8,147.7c0-2.2,0.1-4.5,0.4-6.6c-0.1,0-0.1,0-0.2,0c0,0.2-0.1,0.4-0.1,0.7c-0.1,0.3-0.1,0.7-0.1,1.1
		c0,0.2,0,0.5,0,0.7c-0.1,0.2-0.1,0.6-0.1,0.9c0,0.3,0,0.8,0,1.2c0,0.1,0,0.2,0,0.4c0,0.5,0,1.1,0,1.5c0,0.4,0,0.7,0,1h0.1
		C256.8,148.3,256.8,148,256.8,147.7z"/>
	<path class="st1" d="M375.6,157.2c-0.2,0-0.4,0-0.6-0.1c-0.5-0.1-1.1,0-1.6,0c-0.4,0-0.8,0.1-1.3,0.1c-0.7,0-1.6,0-2.3-0.1
		c-0.2,0-0.4-0.1-0.6-0.2c-0.6-0.2-1.1-0.2-1.6-0.1c-0.2,0-0.5,0.1-0.7,0.1c-1,0.1-2.1,0.2-3.2,0.1c-2.7-0.2-5.6-0.1-8.3,0
		c-1.5,0.1-3.1,0.1-4.6,0.1l-5-0.4c-1.5-0.1-3.1-0.2-4.6-0.5l0,0c-0.7-0.1-0.8-0.1-0.8-0.1c0,0-0.1,0.1-0.2,0.8
		c-0.2,1.8,0,3.7,0.2,5.5c0.1,0.6-0.1,1.3-0.2,1.9c-0.1,0.3-0.1,0.5-0.2,0.8c-0.2,1.1,0.4,1.6,1.3,2.4c0.3,0.3,0.6,0.7,0.8,1.1
		c0.2,0.2,0.4,0.4,0.6,0.7c0.2,0.3,0.5,0.5,0.7,0.7c0.7,0.8,1.4,1.7,2,2.5c0.3,0.5,0.1,1.5-0.4,1.8c-0.2,0.1-0.4,0.1-0.7,0.1
		c-0.3,0-0.7-0.1-1-0.3l-0.3-0.2c-1-0.6-1.9-1.2-3.1-1.4c-0.6-0.1-1-0.5-1.5-1c-0.2-0.1-0.3-0.3-0.5-0.4c-0.8-0.8-0.9-0.8-1.8-0.2
		c-0.2,0.2-0.5,0.3-0.9,0.2c-0.4-0.1-0.7-0.2-0.8-0.5c-1-1.3-0.9-2.8-0.7-4.2c0-0.3,0.1-0.6,0.1-0.9c0.1-1,0.3-2,0.5-3
		c0.1-0.6,0.3-1.3,0.3-1.9c0.2-1.2,0.4-2.4,0.5-3.5c0.1-0.6,0.1-1.2,0.2-1.9l0-0.1c0,0,0-0.1-0.1-0.1l-5.6-0.7
		c-0.7-0.1-1.4-0.2-2.1-0.4c-1.2-0.2-2.4-0.5-3.5-0.5c-0.8,0-1.6-0.2-2.3-0.4c-1.1-0.3-2.1-0.5-3.3-0.2c-1,0.3-2.1,0-3.1-0.2
		c-0.5-0.1-1.1-0.2-1.7-0.3c-0.1,0.4-0.1,0.7-0.2,1.1c-0.1,0.3-0.1,0.6-0.2,1c-0.6,2.2-0.3,4.4-0.1,6.8c0.1,1,0.2,2.1,0.5,3.1
		c0.1,0.4,0.3,0.8,0.6,1c0.7,1,1,2.7,0.7,4c-0.2,0.8-0.5,1.4-1,1.7c-1,0.6-1.8,0.5-2.4-0.3c-0.5-0.7-0.9-1.5-1.1-2
		c-0.2-0.4-0.5-0.6-0.7-0.6c0,0-0.2,0-0.3,0.2c-1,1.1-2.2,1-3.1,0.8c-0.5-0.1-0.9-0.1-1.3-0.1c-1.3,0.2-2.6,0.1-3.9,0.2
		c-0.4,0-0.7,0.1-1.1,0.1H299c-0.3,0.1-0.7,0.1-1.1,0.1c-0.4,0-0.7,0.1-1.1,0.1c-0.8,0.1-1.7,0.2-2.5,0.2c-0.5,0-1-0.3-1-0.7
		c0-0.3,0-0.6,0.2-0.9c0.6-1.1,1.6-1.5,2.6-1.8c0.3-0.1,0.5-0.2,0.8-0.3c1.1-0.4,2.1-0.8,3.2-1.2c1-0.4,2.1-0.8,3.1-1.2
		c0.6-0.2,1.2-0.5,1.8-0.6c1-0.3,1.7-1.2,1.7-2.3c0-0.9,0.1-1.8,0.1-2.6c0.1-0.8,0.1-1.6,0.1-2.4c0-1.1,0-2.4-0.2-3.5
		c-0.1-0.4-0.5-0.6-1.3-0.6h-4.3c-0.9,0-1.9,0-2.8,0c-1.8,0-3.7,0-5.6-0.3c-1.1-0.2-2.3-0.1-3.5,0c-0.7,0.1-1.5,0.1-2.2,0.1
		c-2.6,0-5.3-0.2-7.9-0.4c-3.5-0.3-7.2-0.6-10.8-0.3c-0.7,0-1.4,0.1-2,0.2c-1.3,0.1-2.5,0.2-3.7,0.2c-1.1,0-2.3-0.1-3.4-0.3
		c-0.7-0.1-1.5-0.2-2.2-0.2l-0.3,0c1.9,31.7,28,56.7,60,56.7c29.7,0,54.6-21.8,59.2-50.4c-0.1,0-0.2,0-0.4-0.1
		C375.6,157.2,375.6,157.2,375.6,157.2z"/>
	<path class="st1" d="M376.8,149.8c0-0.2,0-0.5,0-0.7c0-0.1,0-0.1,0-0.2c0-0.4,0-0.7,0-1.1c0,1.3-0.1,2.5-0.1,3.7
		C376.7,151,376.7,150.4,376.8,149.8z"/>
	<path class="st1" d="M258.7,139.2c0.6,0,1,0,1.6,0.1c0.3,0.1,0.7,0.1,1.2,0.2l0.5,0.1c1.7,0.4,3.6,0.4,5.5,0.2c0.6,0,1,0,1.6,0
		c1.5,0,3.1,0,4.7-0.2c0.5,0,0.8-0.1,1.3-0.1c0.6-0.1,1.3-0.1,1.9-0.2c0.8,0,1.7,0,2.6,0c0.9,0,1.9,0,2.8,0.1h1.3
		c0.6,0,1.2,0.1,1.7,0.2c0.3,0.1,0.7,0.1,1.2,0.2c1.2,0.1,2.2,0.2,3.4,0.5c0.2,0,0.6,0.1,0.9,0.2c0.4,0.1,0.6,0.1,0.9,0.1
		c0.7,0,1.5,0.1,2.2,0.1c1.2,0,2.4,0,3.6,0.2c1.2,0.1,2.3-0.2,3.5-0.6c0.5-0.1,0.9-0.3,1.5-0.5c0.7-0.2,1.5,0,2.2,0h0.3
		c0.5,0.1,1,0.2,1.5,0.2c0.6,0.1,1.2,0.2,1.9,0.4c1.2,0.1,2.3,0.1,3.5,0.2c0.5,0,1,0,1.5,0l0.2-0.1l0.2,0.1c0.5,0,1-0.1,1.5-0.1
		s0.9,0,1.4,0c0.2,0,0.3,0,0.6,0.1l0.8,0.1c0.1,0,0.2,0,0.3,0.1c0.1,0,0.2,0.1,0.5,0.1h0.2c0.2,0,0.5,0.1,0.7,0.1
		c-0.2-1.2,0-2.3,0.2-3.4c0.1-0.5,0.2-0.9,0.2-1.4c0.1-0.6,0-1.3-0.1-2c0-0.5-0.1-1.1-0.1-1.6c0-1.2,0.1-2.3,0.1-3.5
		c0-0.9,0.1-1.8,0.1-2.7c0-1.2-0.1-1.3-1.3-1.3c-0.6,0-1.3-0.2-1.6-0.7c-1.3-1.2-2.8-2.6-4.1-4.1c-0.6-0.6-0.9-1.5-1.3-2.7
		c-0.1-0.5,0.2-0.9,0.7-1.3c0.1-0.1,0.2-0.2,0.3-0.4l0.5-0.6l0.6,0.8c0.2,0.2,0.3,0.5,0.5,0.7c0.1,0.2,0.4,0.6,0.5,0.9
		c0.2,0.5,0.5,0.9,0.7,1.3c0.9,1.4,1.7,2.3,3,2.7c-1.5-1.3-1.7-3.2-1.6-4.9c0-0.6,0-1.3,0.2-1.9c0.1-0.3,0.6-0.6,0.8-0.8
		c0.1,0,0.2-0.1,0.2-0.1l0.6-0.4l0.2,0.7c0,0.1,0.1,0.1,0.1,0.2c0.1,0.2,0.3,0.7,0.2,1.1c-0.2,1.2-0.2,2,0.3,2.7
		c0.2,0.3,0.2,0.7,0.3,1.1c0,0.1,0,0.2,0,0.4c0.2,1.2,0.6,1.2,0.8,1.2c0.3,0,1-0.6,1.3-1.1c0.7-1.2,1.3-2.2,1.2-3.5
		c0-0.3,0.2-0.7,0.3-0.8l0.1-0.1l0.5-0.6l0.5,0.6c0.1,0.1,0.1,0.1,0.2,0.2c0.2,0.2,0.7,0.6,0.6,1.1c-0.1,0.7-0.2,1.5-0.3,2.2
		c-0.1,0.4-0.1,0.6-0.2,0.9c-0.1,0.9-0.6,1.5-1.2,2.1c1.5-0.9,2.8-2.2,4-3.7c0.3-0.5,1-1.4,2.2-0.6c0.3,0.2,0.6,0.6,0.7,0.9
		c0.1,0.6-0.3,1.1-0.6,1.4l-0.3,0.5c-1.5,1.8-3,3.6-5.5,4.6c-1,0.4-1.5,1.2-1.5,2.5c0,2,0.1,4.1,0.1,6.1l0.1,3.5c0,0,0,0.1,0.1,0.2
		c0,0.1,0.1,0.2,0.1,0.3c0,0.2,0,0.4,0,0.5c0,0.1,0,0.1,0,0.2c0,0,0,0.1,0.1,0.2c0.1,0.1,0.1,0.2,0.1,0.4c0.1,0.2,0.1,0.3,0.1,0.6
		c0,0.7,0.1,1.2,0.2,1.8l0.1,0.6c0,0,0,0,0,0.1c0.4,0,0.6,0.1,0.9,0.1l0.6,0.1c1.6,0.2,3.3,0.5,4.9,0.8c1.2,0.2,2.2,0.7,3.1,1.2
		l0.8,0.4c0.4,0.1,0.6,0.4,0.9,0.5c0.2,0.1,0.5,0.2,0.7,0.3c1.4,0.6,2.9,1.2,4.3,1.6c0.1,0,0.1,0,0.2,0c0.2,0,0.6,0.1,0.8,0.2
		c0.9,0.8,2,0.6,3.1,0.3c0.3-0.1,0.8-0.1,1.2-0.2c2.3-0.4,4.7-0.4,6.8-0.5c1.2,0,2.3,0,3.5-0.1c0.9,0,2-0.1,2.9-0.1
		c2.2,0,4.4-0.1,6.6-0.4c0.5,0,1-0.1,1.5,0c0.2,0,0.6,0.1,0.8,0.1c0.2,0,0.6,0.1,0.8,0.1c0.6,0,1.2,0,1.9,0c1.3-0.1,2.6-0.5,3.7-0.7
		c0.7-0.1,1.3-0.3,1.7-0.6l0.7-0.3c-1.2-32.3-27.6-58.1-60.1-58.1c-30.4,0-55.6,22.6-59.6,52h0.6H258.7z"/>
	<path class="st1" d="M60.1,208.1c32.6,0,59.2-26.1,60-58.6c-0.1,0.1-0.3,0.1-0.6,0l0,0l-0.4,0c0,0.1-0.1,0.2-0.1,0.3
		c0.1,0.2,0,0.4-0.1,0.5c-0.2,0.2-0.3,0.3-3.5,0.1c-0.2,0-0.3,0-0.4,0c-1,0-1.9-0.1-2.9-0.1c-2-0.1-4-0.2-6.1-0.2
		c-1.2,0-2.5,0.1-3.7,0.2c-0.6,0.1-1.3,0.1-1.9,0.1c0,0-0.1,0-0.2,0c-0.2,0.1-0.6,0.2-0.9,0c-1.5-0.9-3.1-0.9-4.7-0.8
		c-1.2,0.1-2.3-0.2-3.4-0.4c-0.8-0.2-1.6-0.4-2.4-0.4c-2.8-0.2-5.7-0.3-8.5-0.5c-0.1,0.1-0.2,0.3-0.2,0.4c0.1,0.7,0.1,1.4,0.2,2.1
		c0.1,0.7,0.2,1.5,0.2,2.2c0.1,0.9,0.1,1.9,0.2,2.8c0.2,2.6,0.4,5.3,0.4,8c0,1.1,0.3,1.8,1,2.7c0.5,0.6,0.8,1.4,1.1,2.2
		c0.1,0.3,0.2,0.7,0.4,1c0.1,0.2,0.2,0.4,0.4,0.6c0.2,0.2,0.3,0.5,0.4,0.7c0.3,0.5,0.2,1.1,0,1.6c-0.3,0.4-0.7,0.7-1.2,0.7
		c-0.6,0-1.1-0.1-1.6-0.1c-0.5-0.1-1-0.1-1.5-0.1c-0.4,0.1-1,0.3-1.6,0.5c-1.2,0.5-3.5,0.3-4.5-0.7c-0.2-0.2-0.4-0.7-0.4-0.9
		c0,0,0-0.1,0-0.1c0.3-1.1,0.7-2.4,1.3-3.8c0.3-0.6,0.8-1,1.2-1.3l0.2-0.1c1.2-0.7,1.5-1.3,1.4-2.8l0-0.3c-0.2-2.7-0.4-5.3-0.4-7.9
		c0-2.5-0.2-4.6-0.9-6.6c-0.1-0.4-0.3-0.6-0.4-0.7c-0.2-0.1-0.4,0-0.6,0c-0.5,0.2-1,0.1-1.5,0.1c-0.4,0-0.7,0-1,0
		c-0.8,0.1-1.5,0.2-2.2,0.3c-0.7,0.1-1.5,0.2-2.2,0.3l-0.1,0c-0.1,0-0.3,0.1-0.5,0.1c-0.5-0.1-0.9-0.1-1.3-0.1
		c-0.4,0-0.9-0.1-1.3-0.1c-1.3-0.2-2.6-0.3-3.9-0.4l-0.3,0c-0.6-0.1-1.3,0-1.9,0c-0.7,0-1.3,0-2,0.1c-0.7,0-1.4,0.1-2.2,0
		c-0.4-0.1-1-0.1-1.3,0.3c-0.3,0.3-0.3,0.8-0.2,1.4c0.1,0.3,0.2,0.7,0.2,1.2c0,1.3,0.1,2.7,0.7,4.1c0.1,0.5,0.1,0.8,0.1,1.2
		c0,0.1,0,0.3,0,0.4c0.1,0.6,0.1,1.2,0.2,1.9c0.1,0.6,0.2,1.3,0.2,1.9c0,0.3-0.1,0.6-0.1,0.9c-0.1,0.2-0.1,0.4-0.1,0.6
		c0,0.5,0.1,1.1,0.2,1.6c0.1,0.8,0.3,1.6,0.3,2.5c0.1,1.8,0.7,3.3,1.3,4.9l0.1,0.3c0.2,0.4,0.1,0.8-0.1,1.2c-0.1,0.4-0.1,0.7-0.2,1
		c-0.1,0.4-0.2,0.8-0.2,1.1c-0.1,1.1-0.3,1.7-0.7,2.1c-0.6,0.5-1.4,0.5-2.2,0.5c-1.3-0.1-2.7,0-4.2,0.1c-0.2,0-0.3,0-0.4,0
		c-0.5,0-1-0.2-1.5-0.7c-0.7-0.5-0.6-1.2-0.3-1.8c0.4-0.9,0.6-1.8,0.9-2.7c0.2-0.5,0.3-1.1,0.5-1.6c0.6-2.3,2.1-2.6,3.6-2.7
		c0.6-0.1,0.8-0.2,0.8-0.2c0.1-0.1,0.1-0.4,0-0.9c-0.2-1.2-0.4-2.5-0.5-3.8c0-0.9-0.1-1.7-0.1-2.6c0-1.2,0-2.5-0.2-3.7
		c-0.1-0.7-0.2-1.5-0.4-2.2c-0.2-0.8-0.4-1.6-0.4-2.3c-0.1-0.7-0.1-1.5-0.1-2.3c0-0.6,0-1.2,0-1.7c-0.1-1-0.6-2-1.5-2.7
		c-1.2-0.9-2.1-2.3-2.5-4.1l-0.1-0.2c-0.1-0.4-0.2-0.9-0.4-1.1c-0.9-1.1-1.9-2-2.9-2.9c-0.8-0.8-3-0.8-3.8-0.2
		c-1.1,0.7-2.3,1.3-3.4,1.9c-0.5,0.3-1,0.6-1.6,0.9c-0.9,0.5-1.9,1-2.7,1.5c-0.9,0.6-1.7,1.4-2.4,2.2c-0.3,0.3-0.5,0.5-0.8,0.8
		c-0.2,0.2-0.4,0.3-0.5,0.4c-0.3,0.2-0.6,0.4-0.7,0.6c-0.5,0.7-0.9,1.4-1.3,2c-0.4,0.7-0.8,1.4-1.3,2c-0.6,0.9-1.3,1.8-2.2,2.4
		c-0.4,0.4-1.1,0.5-1.8,0.2c-1-0.3-1.8-1.3-2-2.2c0-0.2,0-0.3,0-0.3c0,0,0,0,0,0c-0.1-0.2-0.2-0.4-0.3-0.5c0-0.1-0.1-0.1-0.1-0.2
		c-0.3,0.2-0.5,0.3-0.7,0.5c-0.2,0.2-0.4,0.5-0.6,0.8c-0.2,0.3-0.4,0.7-0.7,1c-0.6,0.7-1.4,0.9-2.3,0.4c-1.1-0.7-1.8-1.4-1.9-2.3
		c-0.1-0.7,0.3-1.5,1.1-2.4c0.4-0.4,0.7-0.8,1-1.2c-0.2,0.1-0.3,0.2-0.4,0.3c0,0-0.1,0.1-0.1,0.1c-0.4,0.2-0.6,0.5-0.9,0.8
		c-0.1,0.1-0.2,0.2-0.4,0.4c-0.9,0.9-1.7,1.2-2.9,1.1c-0.7-0.1-1.1-0.3-1.3-0.8c-0.2-0.4-0.1-0.9,0.2-1.4l0.2-0.3
		c0.7-1.3,1.5-2.6,2.8-3.5c-1,0.4-2.1,0.5-3.2,0.6c-0.4,0-0.7,0.1-1.1,0.1c-0.4,0.1-0.9,0.1-1.4,0c-0.5-0.1-0.9-0.4-1.2-0.7
		c-0.1-0.1-0.2-0.2-0.3-0.3c-0.1-0.1-0.2-0.2-0.2-0.4c0-0.1,0-0.3,0.1-0.4c0.1-0.1,0.2-0.2,0.3-0.4c0.2-0.3,0.5-0.6,0.8-0.8
		c1-0.5,1.9-1,2.8-1.4c0.9-0.5,1.8-0.9,2.8-1.4c0.2-0.1,0.4-0.2,0.7-0.3c0.2-0.1,0.4-0.2,0.5-0.2l1.4-1c0.2-0.2,0.4-0.3,0.6-0.5
		c0.2-0.2,0.4-0.4,0.7-0.5c0.2-0.2,0.5-0.3,0.7-0.5c0.2-0.1,0.4-0.3,0.7-0.4c0.9-0.8,1.8-1.6,2.7-2.4s1.8-1.6,2.7-2.5
		c0.4-0.3,0.7-0.6,1-1.1c0.1-0.1,0.2-0.3,0.3-0.4c1.5-1.7,3.3-2.8,5-3.9c1.5-0.8,2.9-1.7,4.3-2.7c1.8-1.3,3.7-2.1,5.7-3l0.6-0.2
		c2-0.9,3.8-1.2,5.8-1.1c0,0,0,0,0,0c0.9,0,2,0.3,2.7,0.8c1.2,0.7,1.2,0.7,2.1-0.4c0.2-0.3,0.4-0.6,0.6-0.9c0.3-0.5,0.7-1,1-1.5
		c0.7-0.9,0.8-1.9,0.9-3.1l0-0.4l0-0.1c-0.1-0.1-0.4-0.1-0.6-0.1c0.1,0.3,0.2,0.7,0,1.1c-0.1,0.4-0.4,0.9-0.9,1.1
		c-0.4,0.2-0.9,0.3-1.5,0.1c-1-0.3-1.3-1-1-2.1c0.4-2.1,2-2.7,3.4-3.1c0,0,0.1,0,0.1,0c2,0,3.3,0.1,3.7,2c0.6,2.7,0.1,4.6-1.4,6.2
		c-1.1,1.2-2.3,2.5-3.2,3.9c-0.3,0.5-0.5,1.2-0.4,1.7c0.5,2.8-0.8,5-2.1,7.2c-0.2,0.3-0.4,0.6-0.6,1c-0.2,0.3-0.3,0.5-0.5,0.7
		c-0.2,0.3-0.4,0.5-0.5,0.7c-0.1,0.2-0.1,0.6,0,0.8c0.7,2.7,2.6,4.4,5.5,5.3c1.1,0.3,2.5,0.2,3.5,0c0.8-0.2,4.6-0.2,6.3-0.2
		c1.4-0.2,2.7-0.4,4-0.4c1.1,0,2.2,0.1,3.2,0.2c0.5,0,1,0.1,1.5,0.1l0.3,0c1.3,0.1,2.6,0.2,3.8,0.2c1.3,0,2.3-0.2,3.4-0.8
		c1.1-0.5,2.4-0.7,3.6-0.9c0.5-0.1,1-0.2,1.5-0.3c0.7-0.1,1.4-0.2,2-0.2c0.6-0.1,1.3-0.1,1.9-0.2c0.3-0.1,0.5-0.2,0.5-0.3
		c0-0.1,0-0.2-0.1-0.4c-0.2-0.2-0.1-0.5-0.1-0.8c0-0.1,0-0.1,0-0.2v-2.2c0.1-0.5,0.1-0.9,0.1-1.4c0-0.4,0.1-0.9,0.1-1.4
		c0.1-0.6,0.1-1.1,0.1-1.7c0-0.6,0.1-1.2,0.1-1.8c0-0.2,0-0.4,0.1-0.6c0-0.2,0.1-0.5,0-0.6c-0.1-0.3-0.2-0.5-0.4-0.7
		c-0.3-0.2-0.8-0.3-1.3-0.1c-1.9,0.5-3.3,0-4.4-1.5c-0.1-0.2-0.2-0.4-0.2-0.6c0-0.1,0-0.2-0.1-0.3c-0.1-0.2-0.1-0.3,0-0.5
		c0.1-0.2,0.4-0.2,0.7-0.3c0.3,0,0.6-0.1,0.9,0c0.3,0.1,0.6,0.2,0.9,0.3c0.4,0.2,0.8,0.3,1.3,0.5c0,0,0.1-0.1,0.2-0.1c0,0,0,0,0,0
		c0-0.1-0.1-0.2-0.1-0.2c-1.3-0.6-1.7-1.8-2-2.9l-0.1-0.4c0,0,0-0.1,0-0.1c0-0.4,0.5-1.2,0.9-1.4c0,0,0.1,0,0.1,0
		c0.3-0.1,0.8-0.2,1.2,0.1c0.3,0.2,0.4,0.5,0.5,0.9c0,0.4,0.1,0.7,0.3,1.1l0.1,0.2c0.1,0.1,0.3,0.2,0.4,0.3c0.1,0.1,0.3,0.2,0.4,0.3
		c0.2,0.1,0.5,0.1,0.7,0c0.2-0.1,0.4-0.4,0.4-0.7c0.1-1.1,0.3-2,0.7-3c0.2-0.5,1.1-1,1.5-0.9c0.4,0.1,1.1,0.5,0.8,1.6
		c-0.4,1.3-0.6,2.4-0.6,3.4c0,0.4,0.3,0.9,0.8,1.4c0.1,0.1,0.4,0.2,0.9,0c1.7-0.6,2.8-1.7,3.9-2.9c0,0,0.1-0.1,0.1-0.1
		c0.1-0.1,0.3-0.2,0.4-0.3c0.2-0.2,0.3-0.3,0.5-0.5c0.3-0.2,0.7-0.3,0.9-0.3c0.1,0,0.2,0,0.3-0.1c0.2-0.1,0.3,0,0.5,0.1
		c0.1,0.1,0.2,0.2,0.2,0.4c0,0.1,0,0.3,0,0.4c0.1,0.4,0.1,0.9-0.2,1.2c-1.3,1.4-2.7,2.8-4.1,4.1c-0.3,0.3-0.8,0.4-1.1,0.4
		c-0.2,0-0.4,0.1-0.6,0.1c0,0,0,0,0,0.1c0,0,0.1,0,0.1,0c1.5,0.1,2.8-0.7,4-1.5c0.7-0.4,1.3-0.8,1.8-1.3c0.4-0.5,1-0.6,1.4-0.4
		c0.3,0.1,0.6,0.4,0.8,0.6c0.1,0.1,0.1,0.1,0.2,0.2c0.4,0.4-0.1,1.2-0.2,1.4c-2.3,1.6-4.6,3.2-7.4,3.5c-0.2,0-0.3,0-0.5,0
		c-0.3,0-0.6,0.1-0.9-0.1c-0.5-0.1-1-0.1-1.2,0.1c-0.3,0.3-0.4,1-0.3,1.4c0.1,1,0,2,0,2.9c0,0.6-0.1,1.3-0.1,1.9c0,0.2,0,0.5,0,0.7
		c0,0.9,0,1.6,0.2,2.4c0.1,0.3,1,0.6,1.3,0.7c1.5,0.5,3,0.9,4.6,1.2c1.3,0.2,2.6,0.2,4.4-0.1c0.6-0.1,1.2-0.2,1.7-0.4
		c1.4-0.3,2.8-0.6,4.4-0.5c1.4-0.3,2.3-0.6,3.1-0.8c1.9-0.6,2.8-0.8,7.5-1.1l0.1,0c0.6,0,0.6,0.7,0.6,1c0,0.1,0,0.1,0,0.2
		c0,0.1-0.1,0.2-0.1,0.3c0.2,0.1,0.2,0.3,0.2,0.5c0,0.1-0.1,0.2-0.2,0.3c0,0,0,0.1,0,0.1c0.7,2.2,1.1,4.5,1.3,6.7
		c-2.5-31-28.3-55.3-59.9-55.3c-33.2,0-60.1,27-60.1,60.3c0,32.9,26.3,59.6,58.9,60.2C59.3,208,59.7,208,60.1,208.1z"/>
	<path class="st1" d="M120.1,144.7C120.1,144.7,120.1,144.7,120.1,144.7C120.1,144.7,120.1,144.7,120.1,144.7z"/>
	<path class="st1" d="M119.5,141.7c0.3,1.4,0.6,2.7,0.7,3.9c0-0.3,0-0.6,0-0.8c0,0,0,0,0,0c0-0.6-0.1-1.2-0.1-1.8
		c-0.2-2.3-0.6-4.5-1.3-6.7C118.9,137.9,119.2,139.7,119.5,141.7z"/>
	<path class="st1" d="M385.3,148.1c0,0.5,0,0.9,0,1.4c0,0.1,0,0.1,0,0.2c0,0.5,0,0.8,0,1.3c0.1,1.1,0.1,2,0.2,3
		c0.1,0.1,0.1,0.2,0.1,0.3c-0.2-2.2-0.3-4.4-0.3-6.7C385.3,147.8,385.3,147.9,385.3,148.1z"/>
	<path class="st1" d="M385.6,154.5c0,0.1,0,0.1,0,0.2c0,0.1,0,0.1,0,0.2c0,0,0,0,0,0C385.6,154.7,385.6,154.6,385.6,154.5z"/>
	<path class="st1" d="M446.1,87.7c-0.4,0.1-0.8,0.1-1.2,0c-30.8,0.2-55.9,23.4-59.4,53.4c0.1-0.1,0.2-0.1,0.3-0.1
		c2.2-0.8,4.6-0.8,7.5-0.1c2.1,0.5,4.2,0.9,6.3,1.2l0.4,0.1c2.3,0.3,4.9,0.6,7.4,0.7c0.7,0.1,1.4,0,2.2,0c0.5,0,1-0.1,1.5-0.1
		c0.3,0,0.7,0.2,1,0.3c0.1,0.1,0.2,0.1,0.4,0.2c1.9,0.5,3.7,0.8,5.4,1.2c2.9,0.5,6.1,0.9,9.2,1.3c0.9,0.1,1.8,0.1,2.8,0.2
		c1.8,0.1,3.8,0.2,5.6,0.5c1.1,0.2,2.1,0.2,3.2,0.3c2,0.1,4.1,0.2,6.1,1c0.6,0.3,1.3,0.3,2.1,0.3c0.4,0,0.8,0,1.2,0
		c0.4,0.1,0.7,0.2,1,0.3c0.3,0.1,0.6,0.2,0.8,0.2c0,0,0.1,0,0.1,0c0.2,0.1,0.4,0.2,0.5,0.2h0.8c0.5,0,1.1,0,1.6,0.1
		c0.2,0,0.3,0.1,0.4,0.1c0.1,0,0.1,0,0.1,0h0.4c0.3-0.1,0.5,0,0.7,0c0.1,0,0.3,0,0.4,0l0.2,0.1c0.3,0.1,0.6,0.2,0.9,0.2
		c0.4,0,0.8,0.1,1.2,0.3c0.2,0.1,0.4,0.1,0.5,0.2c0.2,0.1,0.4,0.1,0.6,0.2c0.7,0.2,1.6,0.3,2.4,0.5c0.4,0.1,0.8,0.1,1.2,0.2l4.5,0.7
		c0.1,0,0.3,0,0.5,0.1c0.1,0,0.3,0,0.5,0.1c1.5,0.3,3,0.6,4.7,0.8c0.4,0.1,0.8,0.1,1.2,0.2c0.4,0.1,0.8,0.1,1.2,0.2
		c0.4,0.1,0.7,0.1,1,0.1c0.6,0,0.8,0,0.8-0.1c0,0,0.1,0,0.1,0c0.9-0.2,1.5-0.8,2.2-1.5c2.5-2.9,2.2-7.9-0.7-10.5
		c-1.3-1.2-3-1.7-4.6-1.5c-1.2,0.2-2.5,1-3,2.2c0.6-0.2,1.3-0.2,2-0.1c0.2,0,0.4,0.2,0.4,0.5c0.1,0.7-0.3,1.4-1,1.9
		c-0.7,0.5-1.7,0.5-2.3,0.1c-1.2-0.7-1.7-2.3-1.2-3.8c0.4-1.1,1.4-2,2.8-2.6c4.2-1.8,9.7,0.4,11.7,4.7c1.9,4.1,0.4,9.7-3.3,12.4
		c0,0-0.1,0.1-0.3,0.2c-0.1,0.1-0.3,0.3-0.4,0.4c0,0,0,0.1,0,0.1c-0.2,0.3-0.1,0.6,0.2,1.1l0.1,0.3c1.8,3.9,2.7,8.3,2.7,12.7
		c0,0.5,0,1,0.2,1.3c0.2,0.3,0.5,0.4,1,0.5c0,0,0.1,0,0.1,0c0.1,0,0.2,0.1,0.3,0.1c0.2,0,0.3,0.1,0.5,0.1c2.2,0.9,2.9,3.8,2.5,6.2
		c0,0.2-0.1,0.2-0.1,0.3c-0.1,0.3-0.2,0.7-0.5,1.1c-0.6,0.4-1.3,0.5-1.8,0.5c-0.8,0.1-1.6,0.1-2.5,0.1c-0.8,0-1.7,0.1-2.5,0.1
		c0,0-0.1,0-0.1,0c-0.5,0-1.2,0-1.6-0.3c-0.9-0.5-1.1-1.6-0.8-3c0.2-1.1,0.6-2.3,0.9-3.4c0.6-1.9,1.1-3.7,1.1-5.5
		c0-1.7-0.8-3.5-2-4.6c-0.6-0.5-1.5-1.1-2.8-1c-0.4,0.1-1.3,0.2-1.6,0.9c-0.3,0.6-0.1,1.3,0.2,2.1c0.5,1.9,1.1,3.8,1.6,5.8
		c0.5,1.9,1,3.7,1.5,5.6c0.1,0.5,0.3,1.2-0.2,1.8c-0.4,0.4-0.9,0.4-1.2,0.4h-3.6c-1.6,0-3.3-0.2-4.3-1.5c-0.7-1.3-0.4-3,0.8-4.6
		c0.2-0.3,0.5-0.5,0.7-0.8c0.7-0.8,1.5-1.5,1.8-2.5c0.5-1.3,0-2.7-0.6-4.3c-0.5-1.3-1-2.7-0.6-4c-27.4-1.8-55.2-3-82.6-3.5
		c0,0,0,0,0,0.1c4.3,29,29.2,51.3,59.4,51.3c33.2,0,60.1-27,60.1-60.3C505.3,114.9,478.9,88,446.1,87.7z"/>
	<path class="st1" d="M385.4,143.2h-0.1c0,0.2,0,0.4,0,0.7c0,0.3,0,0.6,0,0.8c0,0.2,0,0.3,0,0.5c0,0.4,0,0.7,0,1.1
		c0,0.4,0,0.9,0,1.4C385.3,146.1,385.4,144.7,385.4,143.2C385.4,143.2,385.4,143.2,385.4,143.2z"/>
	<path class="st1" d="M15.1,271.4c-1.5,0-3,0.1-4.3,0.1H9.9v17.4h1.9v-6.1c0.5,0,1.5,0.1,2.8,0.1c4.1-0.1,6.5-2.2,6.5-6
		C21.1,272.9,18.7,271.4,15.1,271.4z M14.4,281.5c-0.7,0-2,0-2.8,0V273c0.8-0.1,1.9-0.2,2.8-0.2c3.1-0.1,4.7,1.2,4.7,4.2
		C19.1,280.3,17.1,281.5,14.4,281.5z"/>
	<rect x="24.4" y="269.9" class="st1" width="1.9" height="18.9"/>
	<path class="st1" d="M35.3,275.6c-2.1,0-4.3,0.9-4.8,1.3l0.5,1.3c0.7-0.5,2.6-1.1,3.8-1.1c2,0,3,0.4,3,2.5v1.5
		c-1.3,0-3.5,0.2-5,0.8c-1.7,0.6-2.8,1.9-2.9,3.4c0,2.2,1.6,3.6,4,3.6c1.7,0,3.3-0.8,4-1.4v0.5c0,0.9,0.3,0.9,1,0.9h0.8v-9.3
		C39.7,276.3,38,275.6,35.3,275.6z M38,286.5c-0.3,0.4-1.7,1.2-3.4,1.2c-1.9,0-2.7-0.9-2.6-2.5c0-1.2,0.7-1.9,2-2.3
		c1-0.5,3-0.6,4-0.6V286.5z"/>
	<path class="st1" d="M50.5,275.7c-1.9,0-3.8,1.2-4.8,1.9V276H44V289h1.9v-10c1-0.8,2.6-1.6,3.8-1.6c2.2-0.1,2.8,0.9,2.8,3.5v8.1
		h1.9v-8.1C54.4,277,53.3,275.7,50.5,275.7z"/>
	<path class="st1" d="M63.5,275.7c-3.7,0-5.8,2.8-5.9,6.7c0,4.2,2.1,6.7,5.7,6.7c1.6,0,3.6-0.5,4.4-1.2l-0.3-1.1
		c-0.7,0.3-2.3,0.8-3.5,0.8c-2.4,0-4.2-1.2-4.3-4.6c0-0.1,0-0.4,0-0.5H68c0.1-0.6,0.1-1.2,0.1-2C68,277.6,66.2,275.7,63.5,275.7z
		 M66.4,281.3h-6.8c0.3-2.9,1.7-4.2,3.7-4.2C65.8,277.1,66.5,279,66.4,281.3z"/>
	<path class="st1" d="M75.8,275.6c-2.1,0-4.3,0.9-4.8,1.3l0.5,1.3c0.7-0.5,2.6-1.1,3.8-1.1c2,0,3,0.4,3,2.5v1.5
		c-1.3,0-3.5,0.2-5,0.8c-1.9,0.6-2.8,1.9-2.9,3.4c0,2.2,1.6,3.6,4,3.6c1.7,0,3.3-0.8,4-1.4v0.5c0,0.9,0.3,0.9,1,0.9h0.8v-9.3
		C80.2,276.3,78.5,275.6,75.8,275.6z M78.5,286.5c-0.3,0.4-1.7,1.2-3.4,1.2c-1.9,0-2.7-0.9-2.6-2.5c0-1.2,0.7-1.9,2-2.3
		c1-0.5,3-0.6,4-0.6V286.5z"/>
	<path class="st1" d="M89.4,287.6c-2.2,0-4.2-1.8-4.1-5.4c0.1-3.4,2.1-5,4.2-5c1.2,0,2.3,0.2,2.9,0.7l0.3-1.5
		c-0.5-0.3-1.6-0.7-3.1-0.7c-4,0-6.2,2.9-6.2,6.8c0,3.7,2,6.5,5.6,6.5c1.6,0,3.1-0.6,4-1.3l-0.3-1.1
		C92.1,287.1,90.9,287.6,89.4,287.6z"/>
	<path class="st1" d="M97.3,270.4c-0.7,0-1.4,0.6-1.4,1.4c0,0.8,0.6,1.3,1.2,1.4c0.7,0,1.4-0.6,1.4-1.5
		C98.5,270.9,98.1,270.4,97.3,270.4z"/>
	<rect x="96.2" y="276" class="st1" width="1.9" height="13"/>
	<path class="st1" d="M107.2,273.9c0.9-0.6,3.4-2.9,4.2-4.1l-1.4-1.2c-1.2,1.6-2.4,3-3.8,4.6L107.2,273.9z"/>
	<path class="st1" d="M107.6,275.7c-3.3,0-5.8,2.3-5.9,6.5c0,3.6,1.6,6.9,5.7,6.9c3.3,0,5.8-2.5,5.8-6.5
		C113.3,278.9,111.7,275.7,107.6,275.7z M107.3,287.8c-2.6,0-3.7-2.6-3.7-5.5c0-3.3,1.5-5.1,4-5.1c2.6,0,3.7,2.3,3.7,5.4
		C111.3,285.8,109.9,287.8,107.3,287.8z"/>
	<path class="st1" d="M123.2,275.7c-1.9,0-3.8,1.2-4.8,1.9V276h-1.7V289h1.9v-10c1-0.8,2.6-1.6,3.8-1.6c2.2-0.1,2.8,0.9,2.8,3.5v8.1
		h1.9v-8.1C127,277,126,275.7,123.2,275.7z"/>
	<rect x="240.2" y="271.9" class="st1" width="2" height="17.4"/>
	<line class="st2" x1="247.1" y1="276.2" x2="246.9" y2="276.2"/>
	<path class="st1" d="M261.4,276c-1.7,0-3.7,1.1-4.7,1.8c-0.6-1.3-1.6-1.8-3.3-1.8c-1.9,0-3.8,1.1-4.8,1.9v-1.6h-1.6v13h1.9v-10
		c1-0.8,2.7-1.5,3.8-1.5c2.1-0.1,2.6,1.1,2.6,3.6v7.9h1.9v-8.1c0-0.8,0-1.5-0.1-2.1c0.9-0.7,2.3-1.4,3.6-1.4
		c2.3-0.1,2.7,1.2,2.7,3.6v7.9h1.9v-8.1C265.2,277.2,264.2,276,261.4,276z"/>
	<path class="st1" d="M275.1,276c-2.2,0-3.5,1.2-4.1,1.8v-1.5h-1.7V295h1.9v-4.2v-1.9c0.6,0.2,1.5,0.5,2.6,0.5c4,0,6.5-2.9,6.5-7.1
		C280.2,277.8,277.8,276,275.1,276z M273.8,288c-1.4,0-2.2-0.3-2.7-0.7v-8.5c0.6-0.5,1.9-1.3,3.4-1.3c2.3,0,3.7,1.6,3.7,5
		C278.1,286,276.3,288,273.8,288z"/>
	<rect x="283.9" y="270.2" class="st1" width="1.9" height="18.9"/>
	<path class="st1" d="M295.1,276c-3.7,0.1-5.8,2.9-5.9,6.7c0,4.2,2.1,6.7,5.7,6.7c1.6,0,3.6-0.5,4.4-1.2l-0.3-1.1
		c-0.7,0.4-2.3,0.8-3.5,0.8c-2.4,0-4.2-1.2-4.3-4.6c0-0.1,0-0.4,0-0.5h8.5c0.1-0.6,0.1-1.2,0.1-2C299.7,277.8,297.9,276,295.1,276z
		 M297.9,281.6h-6.8c0.3-2.9,1.7-4.2,3.7-4.2C297.4,277.4,298.1,279.2,297.9,281.6z"/>
	<line class="st2" x1="303.3" y1="276.2" x2="303.2" y2="276.2"/>
	<path class="st1" d="M317.6,276c-1.7,0-3.7,1.1-4.7,1.8c-0.6-1.3-1.6-1.8-3.3-1.8c-1.9,0-3.8,1.1-4.8,1.9v-1.6h-1.6v13h1.9v-10
		c1-0.8,2.7-1.5,3.8-1.5c2.1-0.1,2.6,1.1,2.6,3.6v7.9h1.9v-8.1c0-0.8,0-1.5-0.1-2.1c0.9-0.7,2.3-1.4,3.6-1.4
		c2.3-0.1,2.7,1.2,2.7,3.6v7.9h1.9v-8.1C321.5,277.2,320.4,276,317.6,276z"/>
	<path class="st1" d="M330.4,276c-3.7,0.1-5.8,2.9-5.9,6.7c0,4.2,2.1,6.7,5.7,6.7c1.6,0,3.6-0.5,4.4-1.2l-0.3-1.1
		c-0.7,0.4-2.3,0.8-3.5,0.8c-2.4,0-4.2-1.2-4.3-4.6c0-0.1,0-0.4,0-0.5h8.5c0.1-0.6,0.1-1.2,0.1-2C335,277.8,333.2,276,330.4,276z
		 M333.3,281.6h-6.8c0.3-2.9,1.7-4.2,3.7-4.2C332.8,277.4,333.4,279.2,333.3,281.6z"/>
	<path class="st1" d="M345,276c-1.9,0-3.8,1.2-4.8,1.9v-1.6h-1.7v13.1h1.9v-10c1-0.8,2.6-1.6,3.8-1.6c2.2-0.1,2.8,0.9,2.8,3.5v8.1
		h1.9v-8.1C348.8,277.2,347.8,276,345,276z"/>
	<path class="st1" d="M357.2,287.6c-1.3,0-1.7-0.2-1.7-2.8v-7.4h4.1v-1.4h-4.1v-2.9h-1.2c-0.2,0.8-0.5,2.2-0.6,2.6
		c-0.2,0.6-1.2,0.6-2,0.8v1.1h1.9h0.1v8.2c0,2.8,1.3,3.3,2.9,3.3c1.2,0,2.7-0.5,3.4-1.1l-0.3-1.1C359.2,287.3,358,287.6,357.2,287.6
		z"/>
	<path class="st1" d="M367.1,275.8c-2.1,0-4.3,0.9-4.8,1.3l0.5,1.3c0.7-0.5,2.6-1.1,3.8-1.1c2,0,3,0.4,3,2.5v1.5
		c-1.3,0-3.5,0.2-5,0.8c-1.9,0.7-2.8,1.9-2.9,3.4c0,2.2,1.6,3.6,4,3.6c1.7,0,3.3-0.8,4-1.4v0.5c0,0.9,0.3,0.9,1,0.9h0.8v-9.3
		C371.5,276.5,369.8,275.8,367.1,275.8z M369.7,286.8c-0.3,0.3-1.7,1.2-3.4,1.2c-1.9,0-2.6-1.1-2.6-2.5c0-1.2,0.7-1.9,2-2.3
		c1-0.5,3-0.6,4-0.6V286.8z"/>
	<path class="st1" d="M380.7,287.9c-2.2,0-4.2-1.8-4.1-5.4c0.1-3.4,2.1-5,4.2-5c1.2,0,2.3,0.2,2.9,0.7l0.3-1.5
		c-0.5-0.4-1.6-0.7-3.1-0.7c-4,0-6.2,3-6.2,6.8s2,6.5,5.6,6.5c1.6,0,3.1-0.6,4-1.3l-0.3-1.1C383.4,287.3,382.2,287.9,380.7,287.9z"
		/>
	<path class="st1" d="M388.5,270.7c-0.7,0-1.4,0.6-1.4,1.4c0,0.8,0.6,1.3,1.2,1.4c0.7,0,1.4-0.6,1.4-1.5
		C389.7,271.3,389.3,270.7,388.5,270.7z"/>
	<rect x="387.5" y="276.2" class="st1" width="1.9" height="13"/>
	<path class="st1" d="M402.7,270l-1.4-1.2c-1.2,1.6-2.4,3-3.8,4.6l1,0.7C399.5,273.5,401.9,271.2,402.7,270z"/>
	<path class="st1" d="M398.9,276c-3.4,0-5.8,2.3-5.9,6.5c0,3.6,1.6,6.9,5.7,6.9c3.3,0,5.8-2.5,5.8-6.5
		C404.6,279.1,403,276,398.9,276z M398.6,288c-2.6,0-3.7-2.6-3.7-5.5c0-3.3,1.5-5.1,4-5.1c2.6,0,3.7,2.3,3.7,5.4
		C402.6,286,401.1,288,398.6,288z"/>
	<path class="st1" d="M414.4,276c-1.9,0-3.8,1.2-4.8,1.9v-1.6h-1.7v13.1h1.9v-10c1-0.8,2.6-1.6,3.8-1.6c2.2-0.1,2.8,0.9,2.8,3.5v8.1
		h1.9v-8.1C418.2,277.2,417.2,276,414.4,276z"/>
	<polygon class="st1" points="406,18.8 397.4,18.8 397.4,12.1 403.1,12.1 403.1,10.6 397.4,10.6 397.4,4.4 405.2,4.4 405.2,2.9 
		395.4,2.9 395.4,20.3 406,20.3 	"/>
	<polygon class="st1" points="413.9,20.6 418.9,7.4 416.9,7.4 414.1,15.4 413.2,18.6 412.2,15.4 409.2,7.4 407.1,7.4 412.3,20.6 	
		"/>
	<path class="st1" d="M423.4,13.3c-1.9,0.7-2.8,1.9-2.8,3.4c0,2.2,1.6,3.6,4,3.6c1.7,0,3.3-0.8,4-1.4v0.5c0,0.9,0.3,0.9,1,0.9h0.7
		V11c0-3.3-1.7-4-4.4-4c-2.1,0-4.3,0.9-4.8,1.3l0.5,1.3c0.7-0.5,2.6-1.1,3.8-1.1c2,0,3,0.4,3,2.5v1.5
		C427.2,12.5,425,12.7,423.4,13.3z M428.5,17.9c-0.3,0.4-1.7,1.2-3.4,1.2c-1.9,0-2.6-0.9-2.6-2.5c0-1.2,0.7-1.9,2-2.3
		c1-0.5,3-0.6,4-0.6V17.9z"/>
	<rect x="434.9" y="1.3" class="st1" width="1.9" height="18.9"/>
	<path class="st1" d="M445,20.4c1.5,0,3.4-0.7,4.5-1.5v0.7c0,0.7,0.4,0.8,0.9,0.8h0.7V7.4h-1.9v10.4c-0.8,0.5-2.3,1.2-3.6,1.2
		c-2,0-2.7-0.6-2.7-3.9V7.4h-1.9v7.5C441.1,18.2,441.6,20.4,445,20.4z"/>
	<path class="st1" d="M457.3,13.3c-1.7,0.7-2.8,1.9-2.9,3.4c0,2.2,1.6,3.6,4,3.6c1.7,0,3.3-0.8,4-1.4v0.5c0,0.9,0.4,0.9,1,0.9h0.8
		V11c0-3.3-1.7-4-4.4-4c-2.1,0-4.3,0.9-4.8,1.3l0.5,1.3c0.7-0.5,2.6-1.1,3.8-1.1c2,0,3,0.4,3,2.5v1.5
		C461.1,12.5,458.8,12.7,457.3,13.3z M462.5,13.7v4.2c-0.3,0.4-1.7,1.2-3.4,1.2c-1.9,0-2.7-0.9-2.6-2.5c0-1.2,0.7-1.9,2-2.3
		C459.5,13.8,461.5,13.7,462.5,13.7z"/>
	<path class="st1" d="M473.2,20.4c1.6,0,3.1-0.6,4-1.3l-0.3-1.1c-0.6,0.4-1.7,0.9-3.3,0.9c-2.2,0-4.2-1.8-4.1-5.4
		c0.1-3.4,2.1-5,4.2-5c1.2,0,2.3,0.2,2.9,0.7l0.2-1.5c-0.5-0.4-1.6-0.7-3.1-0.7c-4,0-6.1,2.9-6.1,6.8
		C467.6,17.6,469.6,20.4,473.2,20.4z"/>
	<rect x="480.3" y="7.4" class="st1" width="1.9" height="13"/>
	<path class="st1" d="M481.1,4.6c0.7,0,1.4-0.6,1.4-1.5c0-0.7-0.3-1.3-1.2-1.3c-0.7,0-1.4,0.6-1.4,1.4S480.5,4.4,481.1,4.6z"/>
	<path class="st1" d="M495.4,1.2L494,0c-1.2,1.6-2.4,3-3.8,4.6l1,0.7C492.1,4.7,494.6,2.3,495.4,1.2z"/>
	<path class="st1" d="M491.3,20.6c3.3,0,5.8-2.5,5.8-6.5c0.1-3.7-1.5-6.9-5.6-6.9c-3.3,0-5.8,2.3-5.9,6.5
		C485.6,17.3,487.2,20.6,491.3,20.6z M491.6,8.5c2.6,0,3.7,2.3,3.7,5.4c0,3.3-1.4,5.3-4,5.3c-2.6,0-3.7-2.6-3.7-5.5
		C487.6,10.4,489.1,8.5,491.6,8.5z"/>
	<path class="st1" d="M507.2,7.1c-1.9,0-3.8,1.2-4.8,1.9V7.4h-1.7v13.1h1.9v-10c1-0.8,2.6-1.6,3.8-1.6c2.2-0.1,2.8,0.9,2.8,3.5v8.1
		h1.9v-8.1C511,8.4,510,7.1,507.2,7.1z"/>
	<path class="st1" d="M144.6,22c5.5,0.1,8.5-3.6,8.5-9.3c0-5.3-2.7-8.3-8.1-8.3c-1.4,0-2.8,0.1-3.8,0.1c-0.2,0-1.3,0-1.4,0h-0.1
		v17.4c0.1,0,1,0,1.3,0C142,21.8,143.7,22,144.6,22z M141.7,5.8c0.7,0,1.7-0.1,2.8-0.1c4.4,0,6.6,2.1,6.6,7.2c0,5.1-2.6,7.6-6.2,7.6
		c-1,0-2.4-0.1-3.3-0.2V5.8z"/>
	<path class="st1" d="M160.9,22c1.6,0,3.6-0.5,4.4-1.2l-0.3-1.1c-0.7,0.4-2.3,0.8-3.5,0.8c-2.4,0-4.2-1.2-4.3-4.6c0-0.1,0-0.4,0-0.5
		h8.5c0.1-0.6,0.1-1.2,0.1-2c-0.1-3-1.9-4.9-4.7-4.9c-3.7,0-5.7,2.8-5.9,6.7C155.2,19.5,157.3,22,160.9,22z M161,10
		c2.4,0,3.1,1.9,3,4.2h-6.8C157.6,11.3,159,10,161,10z"/>
	<path class="st1" d="M172.4,20.6c-1.5,0-3.3-0.6-3.7-0.9l-0.3,1.5c0.7,0.5,2.4,0.9,4.1,0.9c2.8,0,4.5-1.3,4.5-3.6
		c0-2.2-2.2-3.3-4-4c-1.6-0.7-2.8-1.3-2.8-2.7c0-1.1,0.9-1.8,2.8-1.8c1.3,0,2.4,0.4,2.9,0.7l0.3-1.4c-0.5-0.2-1.9-0.7-3.4-0.7
		c-2.4,0-4.5,1.1-4.5,3.3c0,2.1,1.7,3.3,3.7,4.1c1.6,0.6,3.1,1.2,3.1,2.6C175.2,19.9,174.1,20.6,172.4,20.6z"/>
	<path class="st1" d="M182.2,14.8c-1.7,0.6-2.8,1.9-2.9,3.4c0,2.2,1.6,3.6,4,3.6c1.7,0,3.3-0.8,4-1.4v0.5c0,0.9,0.3,0.9,1,0.9h0.8
		v-9.3c0-3.3-1.7-4-4.4-4c-2.1,0-4.3,0.9-4.8,1.3l0.5,1.3c0.7-0.5,2.6-1.1,3.8-1.1c2,0,3,0.4,3,2.5V14
		C185.9,14,183.7,14.2,182.2,14.8z M187.3,15.2v4.2c-0.4,0.4-1.7,1.2-3.4,1.2c-1.9,0-2.6-0.9-2.6-2.5c0-1.2,0.7-1.9,2-2.3
		C184.4,15.3,186.4,15.2,187.3,15.2z"/>
	<line class="st2" x1="193.4" y1="8.9" x2="193.6" y2="8.9"/>
	<path class="st1" d="M195.5,21.8v-10c0.6-0.7,1.9-1.5,3.4-1.5c0.9,0,1.3,0.1,1.5,0.2V8.8c-0.2-0.1-0.7-0.1-1.3-0.1
		c-1.7,0-3.5,1.3-4,2L195,8.9h-1.4v13H195.5z"/>
	<line class="st2" x1="202.7" y1="8.9" x2="202.9" y2="8.9"/>
	<path class="st1" d="M204.8,21.8v-10c0.6-0.7,1.9-1.5,3.4-1.5c0.9,0,1.3,0.1,1.5,0.2V8.8c-0.2-0.1-0.7-0.1-1.3-0.1
		c-1.7,0-3.5,1.3-4,2l-0.1-1.8h-1.4v13H204.8z"/>
	<path class="st1" d="M216.9,22.1c3.3,0,5.8-2.5,5.8-6.5c0.1-3.7-1.5-6.9-5.6-6.9c-3.4,0-5.8,2.3-5.9,6.5
		C211.2,18.8,212.8,22.1,216.9,22.1z M217,10c2.6,0,3.7,2.3,3.7,5.4c0,3.3-1.4,5.3-4,5.3c-2.6,0-3.7-2.6-3.7-5.5
		C213.1,11.9,214.6,10,217,10z"/>
	<rect x="226.3" y="2.8" class="st1" width="1.9" height="18.9"/>
	<rect x="233.1" y="2.8" class="st1" width="1.9" height="18.9"/>
	<path class="st1" d="M244.3,22.1c3.3,0,5.8-2.5,5.8-6.5c0.1-3.7-1.5-6.9-5.6-6.9c-3.3,0-5.8,2.3-5.9,6.5
		C238.6,18.8,240.2,22.1,244.3,22.1z M244.5,10c2.6,0,3.7,2.3,3.7,5.4c0,3.3-1.4,5.3-4,5.3c-2.6,0-3.7-2.6-3.7-5.5
		C240.5,11.9,242.1,10,244.5,10z"/>
	<path class="st1" d="M479.7,176.5c0,0.4,0,0.4,0.5,0.4l0.2,0c0.9-0.1,1.9-0.2,2.9-0.2l0.1,0c0.1,0,0.3-0.1,0.4-0.1c0,0,0-0.1,0-0.2
		c0-0.3,0.1-0.4,0.1-0.6c0.1-0.4,0.1-0.8,0.3-1.2c0.2-0.7-0.1-1.1-0.6-1.6c-0.6-0.5-1-0.5-1.5-0.1c-0.3,0.3-0.7,0.6-1.1,0.8
		c-0.2,0.1-0.4,0.2-0.6,0.4C479.8,174.6,479.6,175.4,479.7,176.5z"/>
	<path class="st1" d="M416.7,155.8c7.2,0.4,14.5,0.7,21.7,1c7.1,0.3,14.3,0.6,21.4,1l1.4,0.1c3.6,0.2,7.4,0.4,10.9,1.3l0.4,0.1
		c1.1,0.3,2.3,0.6,3.5,0.4c0.7-0.2,1.3-0.7,1.6-1.2c0.1-0.3,0.3-0.7,0.1-1.1c-0.2-0.5-0.5-0.9-1.2-1.3c-2.4-1.5-5.3-2.1-8.1-2.6
		c-0.4-0.1-0.8-0.1-1.3-0.2c-0.4-0.1-0.9-0.2-1.3-0.2c-1.2-0.2-2.4-0.5-3.6-0.7c-1.2-0.2-2.4-0.5-3.6-0.7c-0.6-0.1-1.2-0.2-1.8-0.4
		c-0.6-0.1-1.2-0.2-1.8-0.4c-0.3-0.1-0.6-0.1-0.9-0.2c-0.9-0.2-1.7-0.4-2.5-0.4h-0.3c-1.2-0.2-2.4-0.4-3.5-0.7l-0.3,0l-0.5,0
		c-1.2,0.2-2.5,0.1-3.7-0.1c-0.2,0-0.4-0.1-0.7-0.1c0,0-0.1,0-0.1,0c-0.2-0.1-0.5-0.2-0.6-0.2h-0.5c-0.1,0-0.3-0.1-0.4-0.1
		c0,0-0.1,0-0.1,0h-0.7c-0.2,0-0.4,0-0.6-0.1c-0.4-0.1-0.7-0.1-1-0.1c-0.1,0-0.2,0-0.4,0c-0.4-0.1-0.7-0.1-1-0.1
		c-0.3,0-0.7-0.1-1-0.1c-0.7-0.1-1.4-0.1-2.2-0.2c-0.8-0.1-1.7-0.2-2.6-0.2c-1-0.1-2-0.1-3.1-0.1c-1,0-2.1-0.1-3.1-0.1c0,0,0,0,0,0
		c-1.4,0-2.6-0.2-3.6-0.6c-0.6-0.3-1.3-0.3-1.9-0.4c-0.4,0-0.9-0.1-1.3-0.2c-0.6-0.1-1.2-0.3-1.8-0.4c-0.6-0.1-1.2-0.3-1.7-0.4
		l-0.5-0.1c-0.7-0.2-1.4-0.4-2.1-0.5c-1.3-0.2-2.7-0.4-4.1-0.5c-0.7-0.1-1.4-0.1-2-0.2c-0.4-0.1-0.9,0-1.3,0c-0.5,0-1,0.1-1.5,0
		c-0.8-0.1-1.5-0.1-2.3-0.2c-0.8-0.1-1.7-0.2-2.6-0.2c-0.8-0.2-1.5-0.3-2.2-0.5c-2.1-0.5-4.1-0.9-6.1-1.1c-1.2-0.1-2.6,0.2-3.9,0.5
		l-0.6,0.2c0,0,0,0,0,0c-0.1,1.5-0.2,2.9-0.2,4.4c0,2.3,0.1,4.5,0.3,6.7c0,0.1,0,0.1,0,0.2c0,0.1,0,0.2,0,0.4
		C395.5,154.8,405.5,155.3,416.7,155.8z"/>
	<path class="st1" d="M472.2,173.4c-0.3-0.4-0.7-0.5-1-0.5c-0.6,0-1.1,0.2-1.6,0.7c-0.1,0.3-0.1,0.6-0.2,0.9
		c-0.1,0.3-0.2,0.6-0.2,0.9c0,0.1,0,0.1,0,0.1c0,0,0,0,0,0c0,0,0.1,0,0.2,0c0.5-0.1,1.1-0.1,1.7-0.1c0.5,0,1.1-0.1,1.6-0.1
		c0-0.1,0-0.1,0-0.2C472.5,174.5,472.5,173.8,472.2,173.4z"/>
	<path class="st1" d="M129,145c0.2,0,0.5,0,0.7,0h0.1c0.5,0,1,0,1.5,0c0.6,0,1.2-0.1,1.9-0.2c0.5-0.1,1-0.1,1.5-0.2
		c0.3,0,0.7,0,1.2,0.1c0.2,0,0.6,0.1,0.7,0.1c1,0,2.2-0.1,3.3-0.2h0.2c0.1,0,0.2,0,0.3-0.1c0.2-0.1,0.5-0.1,0.8-0.1
		c0.7,0,1.4,0,2.1,0c1.3,0,2.7-0.1,4,0.2c0.7,0.1,1.5,0.1,2.4,0c0.5-0.1,1-0.1,1.5-0.1c0.3,0,0.8,0,1.2,0.1c0.3,0.1,0.8,0.1,1,0.1
		c0.9-0.1,2-0.1,2.9-0.2c2.2-0.1,4.5-0.2,6.8-0.9c0.2-0.1,0.6-0.1,0.8,0c0.5,0,0.8,0,1.3,0c0.8,0,1.5,0,2.3,0c3-0.2,6.2-0.5,9.7-0.7
		c1-0.1,2-0.2,3-0.2c0.6,0,1.2-0.1,1.7-0.1c1.5-0.1,2.9-0.2,4.4-0.3c1.7-0.1,3.4-0.4,5.1-0.5c0.8-0.1,1.6,0,2.6-0.1
		c0.8,0,1.5,0,2.3-0.1c1.5-0.1,2.9-0.1,4.4-0.1c3,0,5.4,0.1,7.5,0.2c1.5,0.1,2.9,0.3,4.3,0.6c0.8,0.1,1.6,0.2,2.4,0.3
		c0.2,0,0.5,0,0.8,0c0.2,0,0.5,0,0.7,0c2.2,0.1,4.5,0.4,6.8,0.5l0.9,0.1c0.8,0.1,1.6,0.1,2.3,0.1h0.6c2.2,0.1,4.4,0.1,6.6,0.2
		c0.5,0,1,0,1.6-0.1c0.6,0,1.3-0.1,2-0.1c1,0,2,0.1,2.9,0.2c0.7,0.1,1.3,0.1,2,0.2c0.5,0,0.9,0,1.4,0c0.3,0,0.8,0,1.2,0
		s0.6,0.1,0.9,0.1c0.1,0,0.2,0,0.5,0.1c0.5,0.1,0.8,0.1,1.3,0.2c0.2,0.1,0.4,0.1,0.6,0.1c0-0.2,0-0.5,0-0.7c0-0.3,0-0.6,0.1-0.9
		c0-0.3-0.1-0.6-0.1-0.9c0-0.1,0-0.4,0-0.5c0-0.5-0.1-0.8-0.1-1.3c-0.1-0.5-0.1-0.8-0.2-1.3c0-0.2-0.1-0.3-0.1-0.6
		c-0.1-0.6-0.2-1.3-0.3-1.9c-0.1-0.6-0.2-1.2-0.3-1.8c0,0.2,0.1,0.5,0.1,0.6l0.1,0.8l-1.9-0.3c-2.4-0.4-4.9-0.7-7.9-1.1
		c-1.3-0.2-2.4-0.5-3.7-0.6c-0.9-0.1-2-0.2-2.9-0.5c-1.3-0.2-2.4-0.4-3.4-0.4c-0.9,0-1.9,0.1-2.8,0.2l-0.6,0.1
		c-0.9,0.1-1.6,0.2-2.2,0.3c-1,0.2-2,0.7-3,1.1c-0.5,0.2-0.9,0.4-1.4,0.6c-0.1,0-0.2,0.1-0.3,0.1c-0.1,0-0.1,0-0.2,0l-1,0.2
		c-1.2,0.2-2.2,0.3-3.4,0.5c-1.9,0-3.5-0.5-5.1-1.1c-0.7-0.2-1.3-0.5-2-0.6c-1.5-0.4-2.7-0.6-4.1-0.1c-1.3,0.5-2.7,0.7-4.1,0.9
		c-0.9,0.1-1.9,0.4-2.7,0.6c-2.3,0.6-4.7,0.6-7,0.6c-0.8,0-1.7,0-2.6,0.1c-1.5,0.1-3-0.3-4.3-0.7c-0.5-0.1-0.8-0.2-1.3-0.3
		c-0.9-0.2-1.9-0.4-2.8-0.6c-0.5-0.1-0.9-0.2-1.5-0.2c-0.6-0.1-0.9-0.4-1.3-0.6c-0.1-0.1-0.4-0.1-0.5-0.2c-0.2-0.1-0.5-0.1-0.8-0.2
		h-0.2c-0.2,0-0.6-0.1-0.8-0.1c-0.3,0.1-0.7,0.2-1,0.2l-1.3,0.1c-1.3,0.1-2.7,0.2-4.1,0.3c-0.8,0.1-1.6,0.6-2.4,0.9l-0.1,0.1
		c-0.6,0.2-1,0.7-1.5,1.2c-1.2,1.2-2.3,1.6-3.5,1.6c0,0-0.2,0-0.3,0.1c-0.2,0.1-0.6,0.1-0.8,0.1c-0.1,0-0.2,0-0.4,0.1
		c-0.1-0.4-0.5-0.4-0.7-0.4c-0.5,0-0.9-0.2-1.3-1.1c-0.1-0.1-0.7-0.4-1-0.4l-0.3-0.1c-1.9-0.6-3.8-1.2-6.1-1.8c-0.1,0-0.3,0-0.6,0
		c-0.2,0-0.5,0-0.7,0c-0.1,0-0.1,0-0.2,0c-0.5,0-0.9,0-1.3-0.1c-0.5,0-1-0.1-1.5,0c-0.3,0-0.7,0.1-1,0.1c-0.6,0-1.2,0.1-1.7,0.2
		c-0.1,0-0.2,0-0.3,0c-0.1,0-0.2,0-0.3,0.1c-1.6,0.2-3.1,0.2-4.8,0.2h-1.2c-1,0-2.1,0.1-3.3,0.3l-0.2,0c0,0.1,0,0.1,0,0.2
		c-0.1,0-0.1,0.1-0.1,0.2c-0.1,0.5-0.1,0.8-0.2,1.2c0,0.4-0.1,0.7-0.1,1.1c-0.1,0.5-0.2,0.8-0.2,1.3c-0.2,1.5-0.3,3-0.5,4.6
		c0,0,0,0.1,0,0.1c0,0.2,0,0.4,0,0.7c0.2-0.1,0.3-0.1,0.5-0.1C128.7,145,128.8,145,129,145z"/>
	<path class="st1" d="M57.7,208.3c-0.1,0.2-0.1,0.5-0.1,0.8C57.7,208.8,57.9,208.6,57.7,208.3z"/>
	<line class="st2" x1="61.5" y1="260.7" x2="61.5" y2="260.5"/>
	<path class="st2" d="M57.6,217.5c0,0,0,0,0-0.1"/>
	<path class="st2" d="M57.7,209.7C57.7,209.7,57.7,209.7,57.7,209.7c0-0.1,0-0.1,0-0.2"/>
	<path class="st1" d="M59.3,263.1c0.1,0,0.2,0.1,0.2,0.1c0.1,0.1,0-0.1,0.1,0c0-0.1,0-0.1,0-0.1s0.1-0.1,0.1,0
		c0-0.1,0.1-0.1,0.1-0.2c0.1,0,0,0,0.1-0.1l0.2-0.3l0.5-0.6c0.3-0.3,0.5-0.6,0.8-0.9c0-0.1,0-0.3,0-0.4c0-0.3,0-0.6,0-0.9
		c0,0.1-0.1,0.2-0.1,0c0-0.5,0-0.8,0.1-1.2l-0.1-0.3c0-1.6-0.1-8.3-0.1-9.9c0-2.6,0-7.7-0.1-10.3c0.1-0.4,0.1-0.9,0.1-1.4
		c0,0.2-0.1,0.1-0.1,0c0-1.3-0.1-0.1-0.1-1.4c-0.1-1.5,0-7.2,0.1-8.6c-0.1-0.7,0-1.6-0.1-2.3c0-0.9,0.1-5,0-5.8v0.1
		c-0.1-0.8,0.1-0.7,0.1-1.3c-0.1,0.1-0.2-0.6-0.2-0.8c0-0.4-0.1-1.3-0.1-1.9h0.1c-0.1-0.5,0-1.5,0-1.9c0-0.8,0.1-2.2,0.1-3.3
		l0.2-0.7v-0.1c0,0-0.5-0.2-1.2-0.4c-0.4-0.1-0.8-0.1-1.2,0c-0.4,0.1-0.7,0.3-0.9,0.7h-0.1v0.4c0,0.4-0.1,0.1-0.1,0
		c0,0.1,0,0.2,0,0.4c0,0.2,0.1,0.5,0.1,0.7c0,0.3-0.1,0-0.1,0.5c-0.1,2.2-0.1,4.4-0.1,6.8c0,0.6,0,1.2,0,1.9c0,0.1-0.1,0.2-0.1,0.2
		c0-0.2,0,3.3-0.1,3.4h0.1c0,0.7-0.1,0.2-0.1,0.8c0.2,0.2,0,1.1,0.1,1.3c0,0,0,0.4-0.1,0.2c0.1,0.1,0,0.3,0,0.5s0,0,0.1-0.1v0.5
		c0,0.1-0.1,0.2-0.1,0c0,1.2-0.1,6.8-0.1,7.9c0.1-0.1,0-0.6,0.1-0.7c0.1,0.4,0,0.5,0,0.6c-0.2,0.1,0,0.7-0.2,0.9l0.1,0.1l-0.1,0.1
		c0.1,1.4,0,0.3,0,1.6c0,0.7,0.1,1.1,0.1,1.5c0-0.1,0.1-0.2,0.1,0c-0.1,0,0.1,0.5,0,0.6c0,0.2,0,0.8,0.1,0.6
		c-0.1,0.1-0.1,0.7-0.1,0.4c0,0.1,0,0.2,0,0.2c0,0.6-0.1,0.9,0,1.4c0,0.3,0,0.5-0.1,0.6c0,0.4,0,0.7,0.1,1.2v-0.2
		c0.1,0.7,0.2,4.1,0.3,4.7h0.5l0.1,0.5c0-0.1-0.2-0.2-0.2-0.2c0,1.3,0.1,6.8,0,7.8c0,0.5-0.1,0.1-0.1,0.1c0,0.5,0.1,0.2,0.1,0.7
		c0,0.1-0.1,0-0.1-0.1c0,0.2,0,0.3,0,0.3c0-0.2,0.1-0.1,0.2-0.2v0.6h-0.1c0,0.1,0.2,0.3,0.1,0.8c0,0.9,0,1.9,0,2.8
		c0,0-0.1-0.2-0.1-0.3c0,0.1,0,0.3,0,0.5c0.1-0.2,0,0.3,0.1,0.2c0.1,0.3,0.1,0.7,0.1,1c0.1,0.1,0.2,0.2,0.2,0.3
		C58.8,262.6,59,262.9,59.3,263.1z"/>
	<path class="st1" d="M58.1,247.8c0,0,0-0.1,0-0.1C58.1,247.7,58.1,247.8,58.1,247.8z"/>
	<path class="st1" d="M57.3,242C57.3,242,57.3,242,57.3,242c0-0.1,0-0.2,0-0.4V242z"/>
	<path class="st1" d="M376.9,146.7c0,0.1-0.1,0.1-0.2,0.1c-2.2,0.7-4.4,1.1-6.6,1.4c-1.3,0.1-2.6-0.4-3.8-0.2
		c-1.2,0.1-2.2,0.1-3.3,0.1c-0.6,0-1-0.1-1.6-0.1c-0.3,0-0.6-0.1-0.9-0.1c-2,0.2-4.1,0.4-6.2,0.6c-2.3,0.2-4.7,0.6-7,0.8
		c-0.5,0-0.9,0.1-1.4,0.2c-0.7,0.2-1.4,0.2-2.1,0.1c-1.2-0.2-2.2-0.8-3.4-1.3c-2.8-1.2-5.6-2.5-8.4-3.4c-1.4-0.5-2.9-0.8-4.3-1.2
		c-1.3-0.4-2.7-0.8-4-0.9c-2.3-0.2-4.8-0.5-7.2-0.7c-0.7,0-1.5-0.1-2.2-0.2c-0.8-0.1-1.6,0.1-2.4,0.1c-0.7,0-1.5,0-2.2-0.1
		c-2.2-0.2-4.7,0.2-7,0.4c-0.1,0-0.2,0-0.5-0.1c-2,0.1-4-0.1-5.9,0.3c-1,0.4-2.3-0.3-3.6-0.5c-0.9-0.1-1.7-0.2-2.7-0.3
		c-0.7-0.1-1.3-0.4-2-0.5c-1.9-0.4-3.8-0.7-5.7-0.6c-0.3,0-0.8,0-1.3,0.1c-1.3,0.2-2.7,0.4-4,0.5c-1.4,0.1-2.7,0.2-4.1,0.2
		c-0.6,0-1.3-0.1-1.9-0.1c-1.6-0.1-3.3-0.1-4.9-0.1c-2.9,0-5.9-0.6-8.8-0.7c0,0.2-0.1,0.4-0.1,0.6c-0.3,2.1-0.4,4.4-0.4,6.6
		c0,0.3,0,0.5,0,0.8h0.4l0.1,0.1c0.1,0.1,0.3,0.1,0.5,0.1c0.5,0.1,0.8,0.1,1.2,0.1c0.4,0,0.8,0.1,1.2,0.1c2,0.1,4.1,0.2,6,0.2
		c0.5,0,0.9,0,1.4,0c1,0,2-0.1,2.9,0c1,0.1,2.1,0.2,3.1,0.2h0.8c0.2,0,0.4,0,0.6-0.1c0.2,0,0.4-0.1,0.7-0.1c0.3-0.1,0.6-0.1,0.8-0.1
		c0.9-0.1,1.7-0.1,2.7-0.1h3.6c0.6,0,1.2,0.1,1.8,0.2c0.2,0.1,0.3,0.1,0.5,0.1c0.2,0,0.3,0.1,0.5,0.1c0.4,0.1,0.9,0.1,1.5,0.1h1.9
		c0.2,0,0.4,0,0.6,0.1c0.1,0,0.2,0,0.4,0h0.2c0.2,0,0.3,0,0.5,0.1c0.1,0,0.2,0,0.2,0h0.1l0.1,0.1c0.1,0.1,0.4,0.1,0.6,0.1h0.5
		c0.5,0,1,0,1.5-0.1c0.5,0,1.1-0.1,1.6-0.1h4.2c0.4,0,0.7,0,1.1,0.1c0.7,0.1,1.4,0.1,2.2,0.1c0.4,0,0.7,0.1,1.1,0.1
		c1.2,0.1,2.5,0.2,3.7,0.2h1.3c0.4,0,0.8,0,1.3,0.1c0.4,0,0.8,0.1,1.2,0.1c0.5,0.1,0.9,0.1,1.3,0.1c0.4,0,0.8,0.1,1.3,0.1
		c0.4,0,0.9,0,1.4,0.1c0.2,0.1,0.3,0.1,0.4,0.1c0.2,0,0.4,0.1,0.6,0.1c0.1,0,0.3,0.1,0.4,0.1c0.2,0,0.3,0.1,0.5,0.1l0.3,0
		c0.3,0.1,0.7,0,1.2,0c1-0.2,2.1,0,3.1,0.1c0.3,0.1,0.7,0.1,1,0.1l4.2,0.7c1.7,0.3,3.2,0.6,5.1,0.8l6.3,1.1c0.7,0.1,1.3,0.2,2,0.2
		c0.8,0,1.6,0.1,2.3,0.2c0.8,0.1,1.5,0.2,2.3,0.2h1.2c0.5,0,0.8,0.1,1.2,0.2l0.2,0.1c0.3,0,0.7,0,1.1,0c0.6,0,1.3,0,1.9,0.2
		c1,0.3,1.9,0.2,3,0.1c0.5-0.1,0.8-0.1,1.3-0.1c0.5-0.1,1.3-0.1,1.9-0.1h4.5c0.7,0.1,1.4,0.1,2.1,0.1c0.7,0,1.4,0.1,2.1,0.1l2.1,0
		c0.3-0.1,0.6-0.1,0.8-0.1h0.5c0.5,0,1,0.1,1.5,0.2l0.3,0.1c1,0.2,2.1,0.1,3.2,0c0.3,0,0.5,0,0.8-0.1c0.3,0,0.6-0.1,0.8-0.1
		c0,0,0.1,0,0.1,0c0.2-0.1,0.6-0.1,0.9,0c0-0.2,0-0.4,0.1-0.6c0-0.1,0-0.3,0-0.4c0.1-0.9,0.1-1.8,0.2-2.6c0.1-1.2,0.1-2.5,0.1-3.7
		c0-0.1,0-0.1,0-0.2C376.8,147.4,376.8,147.1,376.9,146.7z"/>
	<path class="st1" d="M338.1,167.5c0,0.2,0.1,0.6,0.3,1.1c0.7,0.7,1.4,1.4,2.1,2.1c0.2,0.2,0.6,0.2,0.8,0.4c0-0.2,0.1-0.6-0.1-0.9
		c-0.7-1.1-1.5-2.1-2.3-3C338.8,166.9,338.2,167.2,338.1,167.5z"/>
	<path class="st1" d="M337.2,155.8c-0.2,1.2-0.3,2.5-0.5,3.6c0,0.5-0.1,0.9-0.1,1.4c0.1,1.8-0.2,3.3-0.7,4.9c-0.1,0.4-0.1,0.7,0,1.1
		c0,0.2,0.6,0.5,0.6,0.5c0.8-0.8,2.4-1.1,1.9-2.9c0.2-0.8,0.5-1.6,0.5-2.5c0-0.1,0-0.2,0-0.2c0-2,0-3.9,0-6c0-0.2,0.1-0.5,0-0.6
		C338.3,154.9,337.3,155.2,337.2,155.8z"/>
	<path class="st1" d="M301,168.2c0.9-0.2,1.9-0.6,2.9-0.5c0.1,0,0.3,0,0.4,0.1c1.5,0.4,2.9,0.1,4.2-0.6c1.7-0.9,2.2-0.9,3.5,1.3
		c0.2,0.4,0.5,0.7,0.8,1.1c0.1,0.1,0.3,0.2,0.5,0.1c0.1-0.1,0.2-0.4,0.1-0.5c-0.3-1.1-0.3-2.1-1.3-2.9c-0.3-0.4-0.6-1.1-0.7-1.6
		c-0.2-1.4-0.2-2.8-0.5-4.3c0.1-1.2,0.2-2.5,0.2-3.6c0.1-1.3-0.1-2.6,0.7-3.9c0.1-0.2,0.2-0.4,0.3-0.6c0.1-0.5-0.2-0.8-1.1-0.6
		c-0.1,0.1-0.4-0.1-0.6-0.1c-0.6,0.1-1.3,0.1-1.7,0.5c-0.2,0.1-0.3,1.1-0.1,1.4c0.7,1.3,0.7,2.5,0.6,3.9c-0.1,1.8,0,3.5,0,5.3
		c0,1.5-0.5,2.1-1.9,2.6c-2.3,0.7-4.8,1.4-7.1,2.2c-0.1,0-0.2,0.1-0.2,0.1c-0.2,0.2-0.4,0.4-0.6,0.6c0.3,0.1,0.7,0.2,1,0.4
		C300.6,168.4,300.7,168.2,301,168.2z"/>
	<path class="st1" d="M315.1,208.3C315,208.4,315.1,208.4,315.1,208.3C315,208.4,315.1,208.4,315.1,208.3
		C315.1,208.4,315.1,208.3,315.1,208.3z"/>
	<line class="st2" x1="318.4" y1="260.3" x2="318.4" y2="260.4"/>
	<path class="st2" d="M314.7,209.4C314.7,209.4,314.7,209.4,314.7,209.4c0-0.1,0-0.1,0-0.2"/>
	<path class="st2" d="M314.6,217.2c0,0,0,0,0-0.1"/>
	<path class="st1" d="M314.6,242C314.6,242,314.6,242,314.6,242c0-0.1,0-0.2,0-0.4V242z"/>
	<path class="st1" d="M316.5,263.1c0.1,0,0.2,0.1,0.2,0.1c0.1,0.1,0-0.1,0.1,0c0-0.1,0-0.1,0-0.1s0.1-0.1,0.1,0
		c0-0.1,0.1-0.1,0.1-0.2c0.1,0,0,0,0.1-0.1l0.2-0.3l0.5-0.6c0.2-0.2,0.4-0.4,0.6-0.7c0-0.3-0.1-0.5,0-0.9c0-0.3,0-0.6,0-0.9
		c0,0.1-0.1,0.2-0.1,0c0-0.5,0-0.8,0.1-1.2l-0.1-0.4c0-1.6-0.1-8.3-0.1-9.9c0-2.6,0-7.7-0.1-10.3c0.1-0.4,0.1-0.9,0.1-1.4
		c0,0.2-0.1,0.1-0.1,0c0-1.3-0.1-0.1-0.1-1.4c-0.1-1.5,0-7.2,0.1-8.6c-0.1-0.7,0-1.6-0.1-2.3c0-0.9,0.1-5,0-5.8v0.1
		c-0.1-0.8,0.1-0.7,0.1-1.3c-0.1,0.1-0.2-0.6-0.2-0.8c0-0.3-0.1-1.3-0.1-1.9h0.1c-0.1-0.5,0-1.5,0-1.9c0-0.8,0.1-2.2,0.1-3.3
		l0.2-0.7v-0.1c0,0-2.4-1-3.1,0.1c0,0,0,0,0,0c0,0.1-0.1,0.1-0.1,0.2h-0.1v0.4c0,0.4-0.1,0.1-0.1,0c0,0.1,0,0.2,0,0.4
		c0,0.2,0.1,0.5,0.1,0.7c0,0.4-0.1,0-0.1,0.5c-0.1,2.2-0.1,4.4-0.1,6.8c0,0.6,0,1.2,0,1.9c0,0.1-0.1,0.2-0.1,0.2
		c0.2,0,0.2,3.5,0.2,3.6h0.1c0,0.7-0.1,0.2-0.1,0.8c0.2,0.2,0,1.1,0.1,1.3c0,0,0,0.3-0.1,0.2c0.1,0.1,0,0.4,0,0.5c0,0.1,0,0,0.1-0.1
		v0.5c0,0.1-0.1,0.2-0.1,0c0,1.2-0.1,6.8-0.1,7.9c0.1-0.1,0-0.6,0.1-0.7c0.1,0.4,0,0.5,0,0.6c-0.2,0.1,0,0.7-0.2,0.9l0.1,0.1
		l-0.1,0.1c0.1,1.4,0,0.4,0,1.6c0,0.7,0.1,1.1,0.1,1.5c0-0.1,0.1-0.2,0.1,0c-0.1,0,0.1,0.5,0,0.6c0,0.2,0,0.8,0.1,0.6
		c-0.1,0.1-0.1,0.7-0.1,0.4c0,0.1,0,0.2,0,0.2c0,0.6-0.1,0.9,0,1.4c0,0.3,0,0.5-0.1,0.6c0,0.4,0,0.7,0.1,1.2v-0.2
		c0.1,0.7,0.2,3.9,0.3,4.6c0,0,0,0,0-0.1c0,0,0,0.1,0,0.1c0,0,0,0,0,0c0,0,0,0,0,0l0,0c0,1.4,0.1,6.8,0,7.8c0,0.5-0.1,0.1-0.1,0.1
		c0,0.5,0.1,0.2,0.1,0.7c0,0.1-0.1,0-0.1-0.1c0,0.2,0,0.4,0,0.4c0-0.2,0.1-0.1,0.2-0.2v0.6h-0.1c0,0.1,0.2,0.4,0.1,0.8
		c0,0.9,0,1.9,0,2.8c0,0-0.1-0.2-0.1-0.4c0,0.1,0,0.4,0,0.5c0.1-0.2,0,0.4,0.1,0.2c0.1,0.3,0.1,0.7,0.1,1c0.2,0.2,0.3,0.3,0.5,0.5
		C316,262.6,316.2,262.9,316.5,263.1z M315.1,247.6l0.1-0.2l0.1,0.5C315.3,247.7,315.1,247.7,315.1,247.6z"/>
	<path class="st1" d="M315.1,247.6C315,247.6,315,247.5,315.1,247.6C315,247.5,315,247.6,315.1,247.6z"/>
	<path class="st1" d="M446.8,87.4c0-0.1,0.1-0.2,0.1-0.3c0,0,0,0.1-0.1,0.1C446.9,87.2,446.8,87.3,446.8,87.4z"/>
	<path class="st2" d="M447.3,78.4c0,0,0,0,0,0.1"/>
	<path class="st2" d="M447.2,86.1C447.2,86.1,447.2,86.2,447.2,86.1c0,0.1,0,0.1,0,0.2"/>
	<line class="st2" x1="443.5" y1="35.3" x2="443.5" y2="35.2"/>
	<path class="st1" d="M446.9,48C446.9,48,446.9,48,446.9,48C446.9,48,446.9,48,446.9,48z"/>
	<path class="st1" d="M447.3,53.6C447.3,53.6,447.3,53.6,447.3,53.6c0,0.1,0,0.2,0,0.4V53.6z"/>
	<path class="st1" d="M446.1,87.7c0.3-0.1,0.6-0.2,0.8-0.5c0,0,0-0.1,0.1-0.1c0,0,0,0,0-0.1h0.1v-0.4c0-0.4,0.1-0.1,0.1,0
		c0-0.1,0-0.2,0-0.4c0-0.2-0.1-0.5-0.1-0.7c0-0.4,0.1,0,0.1-0.5c0.1-2.2,0.1-4.4,0.1-6.8c0-0.6,0-1.2,0-1.9c0-0.1,0.1-0.2,0.1-0.2
		c-0.2,0-0.2-3.5-0.2-3.6h-0.1c0-0.7,0.1-0.2,0.1-0.8c-0.2-0.2,0-1.1-0.1-1.3c0,0,0-0.4,0.1-0.2c-0.1-0.1,0-0.4,0-0.5
		c0-0.1,0,0-0.1,0.1v-0.5c0-0.1,0.1-0.2,0.1,0c0-1.2,0.1-6.8,0.1-7.9c-0.1,0.1,0,0.6-0.1,0.7c-0.1-0.4,0-0.5,0-0.6
		c0.2-0.1,0-0.7,0.2-0.9l-0.1-0.1l0.1-0.1c-0.1-1.4,0-0.4,0-1.6c0-0.7-0.1-1.1-0.1-1.5c0,0.1-0.1,0.2-0.1,0c0.1,0-0.1-0.5,0-0.6
		c0-0.2,0-0.8-0.1-0.6c0.1-0.1,0.1-0.7,0.1-0.4c0-0.1,0-0.2,0-0.2c0-0.6,0.1-0.9,0-1.4c0-0.3,0-0.5,0.1-0.6c0-0.4,0-0.7-0.1-1.2v0.2
		c-0.1-0.7-0.2-3.9-0.3-4.6c0,0,0,0,0,0.1c0,0,0-0.1,0-0.1c0,0,0,0,0,0c0,0,0,0,0,0l0,0c0-1.4-0.1-6.8,0-7.8c0-0.5,0.1-0.1,0.1-0.1
		c0-0.5-0.1-0.2-0.1-0.7c0-0.1,0.1,0,0.1,0.1c0-0.2,0-0.4,0-0.4c0,0.2-0.1,0.1-0.2,0.2v-0.6h0.1c0-0.1-0.2-0.4-0.1-0.8
		c0-0.9,0-1.9,0-2.8c0,0,0.1,0.2,0.1,0.4c0-0.1,0-0.4,0-0.5c-0.1,0.2,0-0.4-0.1-0.2c-0.1-0.3-0.1-0.6-0.1-0.9
		c-0.2-0.2-0.3-0.3-0.5-0.5c-0.2-0.4-0.5-0.6-0.7-0.8c-0.1,0-0.2-0.1-0.2-0.1c-0.1-0.1,0,0.1-0.1,0c0,0.1,0,0.1,0,0.1
		s-0.1,0.1-0.1,0c0,0.1-0.1,0.1-0.1,0.2c-0.1,0,0,0-0.1,0.1l-0.2,0.4l-0.5,0.6c-0.2,0.2-0.4,0.4-0.6,0.6c0,0.2,0,0.5,0,0.8
		c0,0.3,0,0.6,0,0.9c0-0.1,0.1-0.2,0.1,0c0,0.5,0,0.8-0.1,1.2l0.1,0.4c0,1.6,0.1,8.3,0.1,9.9c0,2.6,0,7.7,0.1,10.3
		c-0.1,0.4-0.1,0.9-0.1,1.4c0-0.2,0.1-0.1,0.1,0c0,1.3,0.1,0.1,0.1,1.4c0.1,1.5,0,7.2-0.1,8.6c0.1,0.7,0,1.6,0.1,2.3
		c0,0.9-0.1,5,0,5.8v-0.1c0.1,0.8-0.1,0.7-0.1,1.3c0.1-0.1,0.2,0.6,0.2,0.8c0,0.4,0.1,1.3,0.1,1.9h-0.1c0.1,0.5,0,1.5,0,1.9
		c0,0.8-0.1,2.2-0.1,3.3l-0.2,0.7v0.1c0,0,0.5,0.2,1.2,0.4C445.3,87.8,445.7,87.8,446.1,87.7z M446.8,48l-0.1,0.2l-0.1-0.5
		C446.6,47.8,446.8,47.9,446.8,48z"/>
	<path class="st1" d="M190.4,87.4c0.1-0.1,0.1-0.3,0.1-0.4c0,0.1-0.1,0.1-0.1,0.2C190.4,87.2,190.4,87.3,190.4,87.4z"/>
	<path class="st2" d="M190.7,86C190.7,86,190.7,86,190.7,86c0,0.1,0,0.1,0,0.2"/>
	<path class="st2" d="M190.8,78.2c0,0,0,0,0,0.1"/>
	<line class="st2" x1="187" y1="35" x2="187" y2="35.2"/>
	<path class="st1" d="M190.4,47.9C190.4,47.9,190.4,47.9,190.4,47.9C190.4,47.9,190.4,47.9,190.4,47.9z"/>
	<path class="st1" d="M190.8,53.5C190.8,53.5,190.8,53.5,190.8,53.5c0,0.1,0,0.2,0,0.4V53.5z"/>
	<path class="st1" d="M189.9,87.5c0.2-0.1,0.3-0.2,0.5-0.4c0-0.1,0.1-0.1,0.1-0.2c0,0,0,0,0,0h0.1v-0.4c0-0.4,0.1-0.1,0.1,0
		c0-0.1,0-0.2,0-0.4c0-0.2-0.1-0.5-0.1-0.7c0-0.4,0.1,0,0.1-0.5c0.1-2.2,0.1-4.4,0.1-6.8c0-0.6,0-1.2,0-1.9c0-0.2,0.1-0.2,0.1-0.2
		c-0.2,0.1-0.2-3.5-0.2-3.5h-0.1c0-0.7,0.1-0.2,0.1-0.8c-0.2-0.2,0-1.1-0.1-1.3c0,0,0-0.4,0.1-0.2c-0.1-0.1,0-0.4,0-0.5s0,0-0.1,0.1
		v-0.5c0-0.1,0.1-0.2,0.1,0c0-1.2,0.1-6.8,0.1-8.1c-0.1,0.1,0,0.6-0.1,0.7c-0.1-0.4,0-0.5,0-0.6c0.2-0.1,0-0.7,0.2-0.9l-0.1-0.1
		l0.1-0.1c-0.1-1.5,0-0.4,0-1.6c0-0.7-0.1-1.1-0.1-1.5c0,0.1-0.1,0.2-0.1,0c0.1,0-0.1-0.5,0-0.6c0-0.2,0-0.8-0.1-0.6
		c0.1-0.1,0.1-0.7,0.1-0.4c0-0.1,0-0.2,0-0.2c0-0.6,0.1-0.9,0-1.4c0-0.3,0-0.5,0.1-0.6c0-0.4,0-0.8-0.1-1.2v0.2
		c-0.1-0.7-0.2-3.9-0.3-4.6c0,0,0,0,0,0.1c0,0,0-0.1,0-0.1c0,0,0,0,0,0c0,0,0,0,0,0l0,0c0-1.4-0.1-6.8,0-7.8c0-0.5,0.1-0.1,0.1-0.1
		c0-0.5-0.1-0.2-0.1-0.7c0-0.1,0.1,0,0.1,0.1c0-0.2,0-0.4,0-0.4c0,0.2-0.1,0.1-0.2,0.2v-0.6h0.1c0-0.1-0.2-0.4-0.1-0.8
		c0-0.9,0-1.9,0-2.8c0,0,0.1,0.2,0.1,0.4c0-0.1,0-0.4,0-0.5c-0.1,0.2,0-0.4-0.1-0.2c0-0.1,0-0.2,0-0.2c-0.2-0.2-0.4-0.5-0.7-0.7
		c-0.2-0.4-0.5-0.6-0.7-0.8c-0.1,0-0.2-0.1-0.2-0.1c-0.1-0.1,0,0.1-0.1,0c0,0.1,0,0.1,0,0.1s-0.1,0.1-0.1,0c0,0.1-0.1,0.1-0.1,0.2
		c-0.1,0,0,0-0.1,0.1l-0.2,0.4l-0.5,0.6c-0.1,0.2-0.3,0.3-0.4,0.5c0,0.1,0,0.3,0,0.4c0,0.3,0,0.6,0,0.9c0-0.1,0.1-0.2,0.1,0
		c0,0.5,0,0.8-0.1,1.2l0.1,0.4c0,1.6,0.1,8.3,0.1,9.9c0,2.6,0,7.7,0.1,10.3c-0.1,0.4-0.1,0.9-0.1,1.4c0-0.2,0.1-0.1,0.1,0
		c0,1.3,0.1,0.1,0.1,1.4c0.1,1.5,0,7.4-0.1,8.6c0.1,0.7,0,1.6,0.1,2.3c0,0.9-0.1,5,0,5.8v-0.1c0.1,0.8-0.1,0.7-0.1,1.3
		c0.1-0.1,0.2,0.6,0.2,0.8c0,0.4,0.1,1.3,0.1,1.9h-0.1c0.1,0.5,0,1.5,0,1.9c0,0.8-0.1,2.2-0.1,3.3l-0.2,0.7v0.1c0,0,0.3,0.1,0.7,0.2
		C188.5,87.6,189.3,87.8,189.9,87.5z M190.4,47.9l-0.1,0.2l-0.1-0.5C190.1,47.7,190.3,47.8,190.4,47.9z"/>
	<path class="st3" d="M229.7,132.1c-0.1-0.1-0.2-0.1-0.2,0C229.5,132.1,229.6,132.1,229.7,132.1
		C229.6,132.1,229.7,132.1,229.7,132.1z"/>
	<path class="st1" d="M200.3,40.9c0-0.1-0.1-0.2-0.2-0.4C200,40.6,200.1,40.8,200.3,40.9z"/>
	<path class="st2" d="M179.8,43.7C179.8,43.7,179.8,43.7,179.8,43.7"/>
	<path class="st1" d="M179.8,43.7C179.8,43.7,179.8,43.7,179.8,43.7C179.8,43.7,179.8,43.7,179.8,43.7z"/>
	<path class="st1" d="M179.8,43.6C179.8,43.6,179.8,43.6,179.8,43.6L179.8,43.6z"/>
	<path class="st1" d="M178.7,39.6C178.7,39.6,178.7,39.6,178.7,39.6c0,0,0.1-0.1,0.1-0.1L178.7,39.6z"/>
	<path class="st1" d="M178.7,39.6C178.7,39.7,178.7,39.7,178.7,39.6C178.7,39.7,178.7,39.6,178.7,39.6z"/>
	<path class="st1" d="M178.7,39.7C178.7,39.7,178.7,39.7,178.7,39.7C178.7,39.7,178.7,39.8,178.7,39.7z"/>
	<path class="st1" d="M180.1,37.8L180.1,37.8C180.1,37.8,180.1,37.8,180.1,37.8C180.1,37.8,180.1,37.8,180.1,37.8z"/>
	<path class="st1" d="M180,37.8c0.1-0.1,0.1-0.1,0.1,0v-0.1C180,37.8,180,37.8,180,37.8z"/>
	<path class="st1" d="M187.9,33.6l0.2-0.4c0.1-0.1,0-0.1,0.1-0.1c0-0.1,0.1-0.1,0.1-0.2c0,0.1,0.1,0,0.1,0s0,0,0-0.1
		c0.1,0.1,0-0.1,0.1,0c0,0,0.1,0.1,0.2,0.1c0.2,0.2,0.5,0.5,0.7,0.8c0.2,0.2,0.5,0.5,0.7,0.7c0.4,0.4,0.7,0.8,0.9,1.1
		c0.3,0.2,0.6,0.6,0.9,0.8c0.3,0.2,1.9,2,2.2,2.3v-0.1c0.3,0.2,0.2,0.4,0.3,0.6c0.1-0.1,0.4,0.1,0.5,0.1c0.1,0.1,0.6,0.4,0.8,0.6
		h-0.1c0.2,0.1,0.6,0.6,0.7,0.7c0.3,0.4,0.7,0.9,1.2,1.4l0.1,0.5c0,0,2.3-1.4,2.2-2.3h0.1l-0.1-0.1c-0.1-0.1-0.2-0.1-0.1-0.2
		l0.2,0.2c-0.1-0.1,0-0.1,0.1-0.1c0-0.1-0.1-0.1-0.1-0.2c0,0,0,0,0,0.1c-0.1,0-0.2-0.1-0.3-0.2c-0.1-0.1,0.1-0.1-0.1-0.2
		c-0.8-0.9-1.6-1.9-2.4-2.7c0,0,0,0,0.1,0c-0.2-0.2-0.5-0.5-0.8-0.7c0-0.1,0-0.1,0-0.2c0,0-0.3-0.2-0.7-0.6
		c-0.1-0.1-0.4-0.4-0.5-0.5c-0.2,0.4-0.4,0.2-0.4,0.2l-0.1,0.1c-0.2-0.2,0-0.2-0.2-0.5c-0.2,0-0.3-0.5-0.6-0.5c0,0-0.1-0.1,0-0.1
		c-0.1,0-0.1-0.1-0.2-0.1c0,0,0,0,0,0.1l-0.2-0.1c0-0.1,0-0.1,0.1-0.1c-0.2-0.2-0.8-0.9-1.4-1.6c-0.3-0.4-0.7-0.7-0.9-1.1
		c-0.6-0.6-0.9-1.1-1.2-1.3c0.1,0.2,0.3,0.5,0.5,0.7c-0.2-0.2-0.3-0.4-0.5-0.5c0-0.4-0.5-0.6-0.7-1.1h-0.1l-0.1-0.2
		c-0.9-0.8-0.5-0.4-0.9-0.9c-0.1,0.1-0.1,0.1-0.2,0.4c-0.6,0.6-0.7,1.1-1,1.4c0,0,0.2-0.1,0,0.1c-0.1-0.1-0.3,0.5-0.5,0.5
		c-0.1,0.1-0.6,0.6-0.4,0.6c-0.1,0-0.5,0.5-0.3,0.1c-0.1,0.1-0.2,0.2-0.3,0.4l0.2-0.1c-0.5,0.6-0.6,0.5-0.6,0.8l0.1-0.1
		c-0.1,0.1-0.2,0.4-0.3,0.2l0.1-0.2c-0.2,0.2-0.3,0.5-0.5,0.7l0.1-0.1c-0.1,0.4-1.3,1.9-1.4,2.2h0.1l-0.1,0.2l-0.1-0.4
		c-0.3,0.5-2.4,2.9-2.8,3.3c-0.2,0.1-0.1-0.1-0.1-0.1c-0.1,0.2,0,0.1-0.1,0.3c0,0,0.1,0.1,0.1,0.1l-0.2,0.2v-0.1c0,0,0,0.2-0.2,0.5
		c-0.3,0.4-0.7,0.8-1,1.2c-0.1,0.4-0.6,0.7-0.7,0.9c0.1,0.1,1.7,2.5,1.9,2.6c-0.1,0.1-0.1,0.1-0.1,0.1s0.2-0.1,0.2-0.2l-0.1-0.1
		c0.1-0.2,0.1,0,0.2-0.2c0.1,0,0,0.2-0.1,0.4c0.1-0.1,0.2-0.2,0.2-0.4c0.1-0.1,0.1,0.1,0.2,0c0.1-0.1,0.1-0.4,0.2-0.4
		c0.3-0.2,0.2-0.6,0.6-0.7c0.1-0.1,0.2-0.4,0.5-0.5c0,0-0.1,0-0.1-0.1c0.2-0.1,0.2-0.4,0.5-0.5v-0.2c0.6-0.7,2.9-3.5,3.5-4.1
		c0.4-0.5,0.9-1,1.4-1.6c0.1-0.2,0.3-0.3,0.4-0.5L187.9,33.6z"/>
	<path class="st1" d="M456.7,40.5c0-0.1-0.1-0.2-0.2-0.4C456.6,40.3,456.6,40.4,456.7,40.5z"/>
	<path class="st1" d="M436.6,37.5c0.1-0.1,0.1-0.1,0.1,0v-0.1C436.6,37.5,436.6,37.5,436.6,37.5z"/>
	<path class="st1" d="M436.7,37.5L436.7,37.5C436.7,37.5,436.7,37.5,436.7,37.5C436.7,37.5,436.7,37.5,436.7,37.5z"/>
	<path class="st1" d="M435.3,39.2C435.3,39.2,435.3,39.3,435.3,39.2c0,0,0.1-0.1,0.1-0.1L435.3,39.2z"/>
	<path class="st1" d="M435.3,39.4C435.3,39.4,435.3,39.3,435.3,39.4C435.3,39.4,435.3,39.4,435.3,39.4z"/>
	<path class="st1" d="M435.3,39.3C435.3,39.3,435.3,39.3,435.3,39.3C435.3,39.3,435.3,39.3,435.3,39.3z"/>
	<path class="st1" d="M444.5,33.3l0.2-0.4c0.1-0.1,0-0.1,0.1-0.1c0-0.1,0.1-0.1,0.1-0.2c0,0.1,0.1,0,0.1,0s0,0,0-0.1
		c0.1,0.1,0-0.1,0.1,0c0,0,0.1,0.1,0.2,0.1c0.2,0.2,0.5,0.5,0.7,0.8c0.2,0.2,0.3,0.3,0.5,0.5c0.5,0.5,0.9,1,1,1.2
		c0.3,0.2,0.6,0.6,0.9,0.8c0.3,0.2,1.9,2,2.2,2.3v-0.1c0.3,0.2,0.2,0.4,0.3,0.6c0.1-0.1,0.4,0.1,0.5,0.1c0.1,0.1,0.6,0.4,0.8,0.6
		h-0.1c0.2,0.1,0.6,0.6,0.7,0.7c0.3,0.4,0.7,0.9,1.2,1.4l0.1,0.5c0,0,2.3-1.4,2.2-2.3h0.1l-0.1-0.1c-0.1-0.1-0.2-0.1-0.1-0.2
		l0.2,0.2c-0.1-0.1,0-0.1,0.1-0.1c0-0.1-0.1-0.1-0.1-0.2c0,0,0,0,0,0.1c-0.1,0-0.2-0.1-0.3-0.2c-0.1-0.1,0.1-0.1-0.1-0.2
		c-0.8-0.9-1.6-1.9-2.4-2.7c0,0,0,0,0.1,0c-0.2-0.2-0.5-0.5-0.8-0.7c0-0.1,0-0.1,0-0.2c0,0-0.3-0.2-0.7-0.6
		c-0.1-0.1-0.4-0.4-0.5-0.5c-0.2,0.4-0.3,0.2-0.3,0.2l-0.1,0.1c-0.2-0.2,0-0.2-0.2-0.5c-0.2,0-0.3-0.5-0.6-0.5c0,0-0.1-0.1,0-0.1
		c-0.1,0-0.1-0.1-0.2-0.1c0,0,0,0,0,0.1l-0.2-0.1c0-0.1,0-0.1,0.1-0.1c-0.2-0.2-0.8-0.9-1.4-1.6c-0.3-0.4-0.7-0.7-0.9-1.1
		c-0.6-0.6-0.9-1.1-1.2-1.3c0.1,0.2,0.3,0.5,0.5,0.7c-0.2-0.2-0.3-0.4-0.5-0.5c0-0.4-0.5-0.6-0.7-1.1h-0.1l-0.1-0.2
		c-0.9-0.8-0.5-0.4-0.9-0.9c-0.1,0.1-0.1,0.1-0.2,0.4c-0.6,0.6-0.7,1.1-1,1.4c0,0,0.2-0.1,0,0.1c-0.1-0.1-0.3,0.5-0.5,0.5
		c-0.1,0.1-0.6,0.6-0.3,0.6c-0.1,0-0.5,0.5-0.3,0.1c-0.1,0.1-0.2,0.2-0.3,0.4l0.2-0.1c-0.5,0.6-0.6,0.5-0.6,0.8l0.1-0.1
		c-0.1,0.1-0.2,0.4-0.3,0.2l0.1-0.2c-0.2,0.2-0.3,0.5-0.5,0.7l0.1-0.1c-0.1,0.4-1.3,1.9-1.4,2.2h0.1l-0.1,0.2l-0.1-0.4
		c-0.3,0.5-2.4,2.9-2.8,3.3c-0.2,0.1-0.1-0.1-0.1-0.1c-0.1,0.2,0,0.1-0.1,0.3c0,0,0.1,0.1,0.1,0.1l-0.2,0.2v-0.1c0,0,0,0.2-0.2,0.5
		c-0.3,0.4-0.7,0.8-1,1.2c-0.1,0.4-0.6,0.7-0.7,0.9c0.1,0.1,1.7,2.5,1.9,2.6c-0.1,0.1-0.1,0.1-0.1,0.1s0.2-0.1,0.2-0.2l-0.1-0.1
		c0.1-0.2,0.1,0,0.2-0.2c0.1,0,0,0.2-0.1,0.4c0.1-0.1,0.2-0.2,0.2-0.4c0.1-0.1,0.1,0.1,0.2,0c0.1-0.1,0.1-0.4,0.2-0.4
		c0.3-0.2,0.2-0.6,0.6-0.7c0.1-0.1,0.2-0.4,0.5-0.5c0,0-0.1,0-0.1-0.1c0.2-0.1,0.2-0.4,0.5-0.5v-0.2c0.6-0.7,2.9-3.5,3.5-4.1
		c0.3-0.4,0.8-0.9,1.3-1.5c0.2-0.2,0.4-0.4,0.6-0.6L444.5,33.3z"/>
	<path class="st1" d="M48,255.2c0,0.1,0.1,0.2,0.2,0.4C48.1,255.4,48.1,255.3,48,255.2z"/>
	<path class="st1" d="M68.2,252.8c0.1-0.1,0.1-0.1,0.1-0.1s-0.2,0.1-0.2,0.2l0.1,0.1c-0.1,0.2-0.1,0-0.2,0.2c-0.1,0,0-0.2,0.1-0.4
		c-0.1,0.1-0.2,0.2-0.2,0.4c-0.1,0.1-0.1-0.1-0.2,0c-0.1,0.1-0.1,0.4-0.2,0.4c-0.3,0.2-0.2,0.6-0.6,0.7c-0.1,0.1-0.2,0.2-0.5,0.5
		c0,0,0.1,0,0.1,0.1c-0.2,0.1-0.2,0.3-0.5,0.5v0.2c-0.6,0.7-2.9,3.4-3.5,4.1c-0.3,0.4-0.7,0.8-1.1,1.2c-0.3,0.3-0.5,0.6-0.8,0.9
		l-0.5,0.6l-0.2,0.3c-0.1,0.1,0,0.1-0.1,0.1c0,0.1-0.1,0.1-0.1,0.2c0-0.1-0.1,0-0.1,0s0,0,0,0.1c-0.1-0.1,0,0.1-0.1,0
		c0,0-0.1-0.1-0.2-0.1c-0.2-0.2-0.5-0.5-0.7-0.8c-0.1-0.1-0.2-0.2-0.2-0.3c-0.6-0.6-1.1-1.2-1.3-1.5c-0.3-0.2-0.6-0.6-0.9-0.8
		c-0.3-0.2-1.9-2-2.2-2.3v0.1c-0.3-0.2-0.2-0.4-0.3-0.6c-0.1,0.1-0.3-0.1-0.5-0.1c-0.1-0.1-0.6-0.3-0.8-0.6h0.1
		c-0.2-0.1-0.6-0.6-0.7-0.7c-0.3-0.4-0.7-0.9-1.2-1.3l-0.1-0.5c0,0-2.3,1.4-2.2,2.3h-0.1l0.1,0.1c0.1,0.1,0.2,0.1,0.1,0.2l-0.2-0.2
		c0.1,0.1,0,0.1-0.1,0.1c0,0.1,0.1,0.1,0.1,0.2c0,0,0,0,0-0.1c0.1,0,0.2,0.1,0.3,0.2c0.1,0.1-0.1,0.1,0.1,0.2
		c0.8,0.9,1.6,1.9,2.4,2.7c0,0,0,0-0.1,0c0.2,0.2,0.5,0.5,0.8,0.7c0,0.1,0,0.1,0,0.2c0,0,0.3,0.2,0.7,0.6c0.1,0.1,0.3,0.4,0.5,0.5
		c0.2-0.6,0.3-0.5,0.3-0.5l0.1-0.1c0.2,0.2,0,0.2,0.2,0.5c0.2,0,0.3,0.5,0.6,0.5c0,0,0.1,0.1,0,0.1c0.1,0,0.1,0.1,0.2,0.1
		c0,0,0,0,0-0.1l0.2,0.1c0,0.1,0,0.1-0.1,0.1c0.2,0.2,0.8,0.9,1.4,1.6c0.3,0.3,0.7,0.7,0.9,1.1c0.6,0.6,0.9,1.1,1.2,1.3
		c-0.1-0.2-0.3-0.5-0.5-0.7c0.2,0.2,0.3,0.3,0.5,0.5c0,0.2,0.5,0.6,0.7,1.1h0.1l0.1,0.2c0.9,0.8,0.5,0.4,0.9,0.9
		c0.1-0.1,0.1-0.1,0.2-0.3c0.6-0.6,0.7-1.1,1-1.3c0,0-0.2,0.1,0-0.1c0.1,0.1,0.3-0.5,0.5-0.5c0.1-0.1,0.6-0.6,0.3-0.6
		c0.1,0,0.5-0.5,0.3-0.1c0.1-0.1,0.2-0.2,0.3-0.4l-0.2,0.1c0.5-0.6,0.6-0.5,0.6-0.8c0.1-0.1,0.2-0.1,0.2-0.1l-0.1,0.2
		c0.2-0.2,0.3-0.5,0.5-0.7l-0.1,0.1c0.1-0.4,1.3-1.9,1.4-2.2h-0.1l0.1-0.2l0.1,0.4c0.3-0.5,2.4-2.9,2.8-3.3c0.2-0.1,0.1,0.1,0.1,0.1
		c0.1-0.2,0-0.1,0.1-0.3c0,0-0.1-0.1-0.1-0.1l0.2-0.2v0.1c0,0,0-0.2,0.2-0.5c0.3-0.4,0.7-0.8,1-1.2c0.1-0.3,0.6-0.7,0.7-0.9
		C70,255.3,68.3,253,68.2,252.8z"/>
	<path class="st1" d="M68.1,258.2c-0.1,0.1-0.1,0.1-0.1,0v0.1C68.1,258.2,68.1,258.2,68.1,258.2z"/>
	<path class="st1" d="M69.4,256.4C69.4,256.4,69.4,256.4,69.4,256.4C69.4,256.4,69.4,256.4,69.4,256.4z"/>
	<path class="st1" d="M69.4,256.3C69.4,256.3,69.4,256.4,69.4,256.3C69.4,256.3,69.5,256.3,69.4,256.3z"/>
	<path class="st1" d="M69.4,256.5C69.4,256.5,69.4,256.4,69.4,256.5c0,0-0.1,0.1-0.1,0.1L69.4,256.5z"/>
	<path class="st1" d="M68,258.2C68,258.2,68,258.2,68,258.2C68,258.2,68,258.2,68,258.2L68,258.2z"/>
	<path class="st1" d="M305.2,255.2c0,0.1,0.1,0.2,0.2,0.4C305.3,255.4,305.3,255.3,305.2,255.2z"/>
	<path class="st2" d="M325.6,252.3C325.6,252.3,325.6,252.3,325.6,252.3"/>
	<path class="st1" d="M326.6,256.3C326.6,256.3,326.6,256.4,326.6,256.3C326.6,256.3,326.6,256.3,326.6,256.3z"/>
	<path class="st1" d="M325.1,258.6c0.1-0.2,0-0.1,0.1-0.3c0,0-0.1-0.1-0.1-0.1l0.2-0.2v0.1c0,0,0-0.2,0.2-0.5c0.3-0.4,0.7-0.8,1-1.2
		c0.1-0.3,0.6-0.7,0.7-0.9c-0.1-0.1-1.7-2.5-1.9-2.6c0.1-0.1,0.1-0.1,0.1-0.1s-0.2,0.1-0.2,0.2l0.1,0.1c-0.1,0.2-0.1,0-0.2,0.2
		c-0.1,0,0-0.2,0.1-0.4c-0.1,0.1-0.2,0.2-0.2,0.4c-0.1,0.1-0.1-0.1-0.2,0c-0.1,0.1-0.1,0.4-0.2,0.4c-0.4,0.2-0.2,0.6-0.6,0.7
		c-0.1,0.1-0.2,0.2-0.5,0.5c0,0,0.1,0,0.1,0.1c-0.2,0.1-0.2,0.3-0.5,0.5v0.2c-0.6,0.7-2.9,3.4-3.5,4.1c-0.3,0.4-0.8,0.9-1.3,1.4
		c-0.2,0.2-0.4,0.4-0.6,0.7l-0.5,0.6l-0.2,0.3c-0.1,0.1,0,0.1-0.1,0.1c0,0.1-0.1,0.1-0.1,0.2c0-0.1-0.1,0-0.1,0s0,0,0,0.1
		c-0.1-0.1,0,0.1-0.1,0c0,0-0.1-0.1-0.2-0.1c-0.2-0.2-0.5-0.5-0.7-0.8c-0.2-0.2-0.3-0.3-0.5-0.5c-0.5-0.5-0.9-1-1-1.3
		c-0.4-0.2-0.6-0.6-0.9-0.8c-0.3-0.2-1.9-2-2.2-2.3v0.1c-0.3-0.2-0.2-0.4-0.3-0.6c-0.1,0.1-0.3-0.1-0.5-0.1
		c-0.1-0.1-0.6-0.3-0.8-0.6h0.1c-0.2-0.1-0.6-0.6-0.7-0.7c-0.3-0.4-0.7-0.9-1.2-1.3l-0.1-0.5c0,0-2.3,1.4-2.2,2.3h-0.1l0.1,0.1
		c0.1,0.1,0.2,0.1,0.1,0.2l-0.2-0.2c0.1,0.1,0,0.1-0.1,0.1c0,0.1,0.1,0.1,0.1,0.2c0,0,0,0,0-0.1c0.1,0,0.2,0.1,0.3,0.2
		c0.1,0.1-0.1,0.1,0.1,0.2c0.8,0.9,1.6,1.9,2.4,2.7c0,0,0,0-0.1,0c0.2,0.2,0.5,0.5,0.8,0.7c0,0.1,0,0.1,0,0.2c0,0,0.3,0.2,0.7,0.6
		c0.1,0.1,0.3,0.4,0.5,0.5c0.2-0.6,0.3-0.5,0.3-0.5l0.1-0.1c0.2,0.2,0,0.2,0.2,0.5c0.2,0,0.3,0.5,0.6,0.5c0,0,0.1,0.1,0,0.1
		c0.1,0,0.1,0.1,0.2,0.1c0,0,0,0,0-0.1l0.2,0.1c0,0.1,0,0.1-0.1,0.1c0.2,0.2,0.8,0.9,1.4,1.6c0.4,0.3,0.7,0.7,0.9,1.1
		c0.6,0.6,0.9,1.1,1.2,1.3c-0.1-0.2-0.3-0.5-0.5-0.7c0.2,0.2,0.4,0.3,0.5,0.5c0,0.2,0.5,0.6,0.7,1.1h0.1l0.1,0.2
		c0.9,0.8,0.5,0.4,0.9,0.9c0.1-0.1,0.1-0.1,0.2-0.3c0.6-0.6,0.7-1.1,1-1.3c0,0-0.2,0.1,0-0.1c0.1,0.1,0.3-0.5,0.5-0.5
		c0.1-0.1,0.6-0.6,0.3-0.6c0.1,0,0.5-0.5,0.3-0.1c0.1-0.1,0.2-0.2,0.3-0.4l-0.2,0.1c0.5-0.6,0.6-0.5,0.6-0.8
		c0.1-0.1,0.2-0.1,0.2-0.1l-0.1,0.2c0.2-0.2,0.3-0.5,0.5-0.7l-0.1,0.1c0.1-0.4,1.3-1.9,1.4-2.2h-0.1l0.1-0.2l0.1,0.4
		c0.3-0.5,2.4-2.9,2.8-3.3C325.2,258.3,325.1,258.6,325.1,258.6z"/>
	<path class="st1" d="M325.3,258.2c-0.1,0.1-0.1,0.1-0.1,0v0.1C325.3,258.2,325.3,258.2,325.3,258.2z"/>
	<path class="st1" d="M325.2,258.2L325.2,258.2C325.2,258.2,325.2,258.2,325.2,258.2C325.2,258.2,325.2,258.2,325.2,258.2z"/>
	<path class="st1" d="M326.6,256.5C326.6,256.5,326.6,256.4,326.6,256.5c0,0-0.1,0.1-0.1,0.1L326.6,256.5z"/>
	<path class="st1" d="M326.6,256.4C326.6,256.4,326.6,256.4,326.6,256.4C326.6,256.4,326.6,256.4,326.6,256.4z"/>
	<path class="st1" d="M80.3,168c0,0-0.3,0-0.4,0c-1,0.8-1.5,1.8-1.8,3.2c0,0,0.1,0,0.1,0c0.7-0.3,1.5-0.4,2.4-0.5c0.2,0,0.4,0,0.6,0
		c0.1-0.1,0.2-0.1,0.3-0.2c0.1-0.1,0.3-0.1,0.3-0.2c0,0,0,0,0,0c0.1-0.2,0-0.6-0.3-1.2C81.2,168.5,80.6,168,80.3,168z"/>
	<polygon class="st1" points="81.8,170.2 81.8,170.2 81.8,170.2 	"/>
	<path class="st1" d="M53.7,172.1c-0.2-0.7-0.5-1.1-0.9-1.2c-0.4-0.1-1,0.1-1.5,0.6c0,0.4,0,0.8-0.1,1.2c0,0.5-0.1,0.9-0.1,1.4
		c0,0.2,0.1,0.5,0.3,0.6c0.2,0.2,0.4,0.2,0.7,0.2c0.8-0.1,1.3-0.4,1.5-0.9C53.9,173.6,53.9,173,53.7,172.1
		C53.7,172.2,53.7,172.2,53.7,172.1z"/>
	<path class="st1" d="M24.1,147c0.7-1.8,1.4-3.7,3.1-5.1c0.5-0.4,0.9-0.7,1.3-1.1c0.4-0.4,0.9-0.8,1.4-1.1c2.3-1.8,4.3-3,6.4-3.8
		c0.4-0.2,0.9-0.4,1.3-0.6c0.7-0.4,1.4-0.7,2.3-0.9c1-0.3,1.9-0.2,2.8-0.1c0.7,0.1,1.3,0.1,1.9,0c0,0,0,0,0,0
		c-0.5-0.4-0.7-0.8-0.7-1.3c0-0.4,0.2-0.8,0.5-1.1c0.1-0.3,0.3-0.5,0.5-0.8c0.1-0.2,0.2-0.3,0.3-0.5c0.2-0.4,0.5-0.8,0.7-1.2
		c0.6-1,1.2-2,1.7-3.1l0.2-0.4c0.7-1.4,1.3-2.7,0-4.1l-0.3-0.4c-0.9-1.1-1.7-2.1-3-2c-1.7,0.2-3.4,0.6-5.1,1c-0.8,0.1-1.4,0.5-2.1,1
		c-1.1,0.7-2.1,1.6-3.1,2.3c-0.7,0.6-1.4,1.1-2.1,1.6c-0.2,0.1-0.4,0.2-0.6,0.3c-0.2,0.1-0.3,0.2-0.5,0.3c-0.3,0.2-0.5,0.3-0.8,0.4
		c-0.7,0.3-1.3,0.6-1.7,1c-0.8,0.7-1.6,1.5-2.3,2.3c-0.4,0.4-0.8,0.8-1.1,1.2c-0.6,0.7-1.3,1.3-2,1.9c-0.2,0.2-0.5,0.4-0.8,0.7
		c-0.2,0.2-0.5,0.4-0.7,0.6c-0.8,0.8-1.7,1.8-2.5,2.8c-0.4,0.5-0.9,1-1.3,1.4c-1.1,1.2-2.3,1.6-3.8,1.7c-0.9,0.1-1.9,0.4-2.9,0.8
		c-0.4,0.1-0.7,0.3-1.1,0.4c0,0,0,0,0,0c0.4-0.1,0.9-0.2,1.4-0.3c0.5-0.1,1-0.2,1.4-0.3c1.1-0.4,2.2,0,2.9,1
		c0.1,0.2,0.3,0.6-0.7,2.2c-0.1,0.4-0.5,0.5-0.7,0.7c-0.1,0.1-0.2,0.1-0.2,0.2l-0.2,0.2c0.8-0.6,1.7-1.2,2.6-1.8
		c0.5-0.3,1.2-0.4,1.8-0.3c0.5,0.2,0.7,0.5,0.8,0.8c0.2,0.5-0.2,1.1-0.4,1.4c-0.2,0.4-0.4,0.7-0.6,1.1c-0.1,0.2-0.3,0.4-0.4,0.6
		c-0.6,0.8-1.2,1.6-1.6,2.5c0,0.1,0,0.3,0,0.4c0.1-0.1,0.2-0.2,0.3-0.2l0.3-0.5c0.6-1,1.3-2.1,1.9-3.4c0.6-1.4,1.7-2.3,3-2.4
		c0,0,0.4-0.1,0.8-0.1c0.3,0,0.6,0.1,0.8,0.2c0.1,0.1,0.1,0.1,0.1,0.2c0.2,0.7,0.2,1.2,0.2,1.6c0,0.3-0.2,0.8-0.5,1.2
		c-0.8,0.8-1,1.7-0.6,2.9c0.2,0.5,0.3,0.5,0.3,0.5c0,0,0.2,0,0.5-0.3c0.1-0.1,0.3-0.5,0.4-0.8C23.8,147.8,24,147.4,24.1,147z
		 M29,129.2c0.2-0.8,0.9-1.3,1.5-1.9c1.5-1.6,3.3-1.5,5.1-1.2c1,0.2,1.6,2,1.2,3.4c-0.5,1.5-1.6,2.3-3,2.9c-0.7,0.3-1.4,0.6-2.2,0.7
		c-0.3,0-0.9-0.1-1.3-0.4C29.3,131.9,28.6,130.6,29,129.2z"/>
	<path class="st1" d="M33.2,130.7c0.5-0.1,1-0.7,1.3-1.2c0.3-0.7-0.2-1.4-0.8-1.5c-0.9-0.4-1.9-0.2-2.2,1.1
		c-0.1,0.5-0.2,0.8-0.2,1.3C31.9,130.4,32.6,130.8,33.2,130.7z"/>
	<path class="st1" d="M119.5,141.7c-0.2-2-0.5-3.8-0.8-5.5c0,0,0-0.1,0-0.1c-0.1,0.1-0.2,0.1-0.3,0.1c-0.1,0-0.3,0-0.7,0.1
		c-1.5,0.3-4.6,0.6-6.4,0.8c-0.6,0.1-1.1,0.1-1.4,0.2l-0.3,0c-0.3,0.1-1.6,0.3-3,0.5c-1.4,0.2-2.9,0.5-4,0.7c-0.5,0.1-1,0.2-1.6,0.3
		c-1.5,0.3-3.1,0.7-4.9,0.4c-0.4-0.1-0.7-0.2-1.1-0.2c-1.1-0.2-2.3-0.5-3.4-1c-1.9-0.9-3.7-0.6-5.7-0.2c-0.3,0.1-0.6,0.1-0.9,0.1
		c-0.3,0-0.5,0-0.7,0.1c-0.3,0-0.5,0.1-0.8,0.1c-2,0.3-3.6,0.8-5,1.7c-0.5,0.3-2.4,1.4-3.6,0.9c-0.9-0.4-1.7-0.4-2.5-0.4
		c-0.4,0-0.8,0-1.2,0c-1.2-0.1-2.5-0.2-3.8-0.1c-0.6,0.1-1.2-0.1-1.7-0.2c-0.4-0.1-0.8-0.2-1.1-0.2c-0.5,0.1-1,0.1-1.6,0.2
		c-0.6,0.1-1.1,0.2-1.6,0.2c-1,0.2-4.4,0.4-6.9,0.5c-1,0.1-1.9,0.1-2.3,0.2c0,0,0,0,0,0c-0.3,0-1-0.1-1.3-0.5c0,0-0.1,0-0.1-0.1
		c0,0.1-0.1,0.2-0.1,0.3c-0.3,1.4,0.1,2.3,1.3,3c0.5,0.2,0.9,0.5,1.1,0.9c0,0,0.1,0.1,0.1,0.1c0.5,0.9,0.9,1.4,2.1,1.3
		c1.2-0.2,2.5,0,3.7,0.2c0.6,0.1,1.2,0.2,1.7,0.2c0.3,0,0.6,0,1,0c0.6,0,1.2-0.1,1.8,0.2c0.9,0.4,1.9,0.4,2.9,0.3c0.3,0,0.6,0,0.9,0
		c1.3-0.1,2.7-0.2,4-0.3c1.4-0.1,2.7-0.2,4.1-0.3c1.2-0.1,2.5,0,3.7,0c0.8,0,1.6,0.1,2.4,0.1c0.1,0,0.2,0,0.4-0.1
		c0.2-0.1,0.4-0.1,0.7-0.1l8.4,0.7c0.6,0.1,1.2,0.1,1.7,0.1c0.6,0,1.2,0.1,1.8,0.1c2.5,0.4,4.8,0.7,7.1,1.1l0.6,0.1
		c0.9,0.2,1.8,0.4,2.6,0.5c1.5,0.2,3.1,0.1,4.7,0.1c1.6,0,3.2-0.1,4.8,0.1c0.4,0,2.6-0.1,4.1-0.2c0.1-0.1,0.3-0.2,0.4-0.1
		c0.3,0.1,0.5,0.1,0.6,0.1l0.5,0c0.1,0,0.2,0,0.2,0.1c0-0.9,0-1.9-0.1-3C120,144.4,119.8,143.1,119.5,141.7z"/>
	<path class="st3" d="M119.1,149.5C119.1,149.5,119.1,149.6,119.1,149.5l0.4,0l0,0c0,0-0.1,0-0.1,0H119.1z"/>
</g>
</svg>
