<?xml version="1.0" encoding="utf-8"?>
<!-- Generator: Adobe Illustrator 25.2.3, SVG Export Plug-In . SVG Version: 6.00 Build 0)  -->
<svg version="1.1" id="Capa_1" xmlns="http://www.w3.org/2000/svg" xmlns:xlink="http://www.w3.org/1999/xlink" x="0px" y="0px"
	 viewBox="0 0 411 428" style="enable-background:new 0 0 411 428;" xml:space="preserve">
<style type="text/css">
	.st0{fill:none;}
	.st1{fill:#FFFFFF;}
	.st2{fill:none;stroke:#FFFFFF;stroke-width:0;stroke-linecap:round;stroke-linejoin:round;}
</style>
<g>
	<path class="st0" d="M7.5,274.4c0.3,1.4,1.5,1.7,3.3,1.2c1.5-0.3,2.9-1.2,2.7-2.6c-0.3-1.2-1.5-1.5-3.4-1.2
		C8.6,272.2,7.2,273,7.5,274.4z"/>
	<path class="st0" d="M406,251l-5,0.9c-0.3,0.5-0.3,1-0.2,1.7c0.2,1.2,1.5,1.9,3.6,1.5c2.2-0.3,2.6-1.2,2.4-2.4
		C406.7,252,406.4,251.3,406,251z"/>
	<path class="st0" d="M23,296.4c0.3,0.2,0.9,0.3,1.4,0c0.7-0.7,0.7-1.4,0.2-1.9c-0.3-0.5-1-0.9-1.4-0.9l-1.7,1.5
		C21.8,295.8,22.6,296.3,23,296.4z"/>
	<path class="st0" d="M378.3,212.2c-1-0.7-2.4-0.2-3.4,1.7c-1,1.9-0.7,2.7,0.2,3.2c0.7,0.5,1.5,0.7,1.9,0.5l2.6-4.4
		C379.3,212.9,378.8,212.5,378.3,212.2z"/>
	<path class="st0" d="M31.2,213.1c-0.9,0.5-1,1.4-0.2,2.9l2.6-1.9C32.9,212.9,32.1,212.4,31.2,213.1z"/>
	<path class="st0" d="M387.9,219.2c-0.7-0.7-1.5-0.7-2.9,0.5l2.6,2C388.5,220.7,388.7,219.9,387.9,219.2z"/>
	<path class="st0" d="M401.7,288.6c0.3-0.9,0.2-1.7-1.2-2.6l-1.4,2.9C400.4,289.6,401.2,289.6,401.7,288.6z"/>
	<path class="st0" d="M159.2,395.4c1.4-0.7,2.6-1.9,1.9-3.1c-0.7-1.2-1.9-1.2-3.4-0.3c-1.5,0.9-2.6,1.9-1.9,3.2
		C156.3,396.2,157.5,396.2,159.2,395.4z"/>
	<path class="st0" d="M405.5,262.4v3.2c1.4,0.2,2.2-0.2,2.2-1.4C407.7,263.3,407.2,262.6,405.5,262.4z"/>
	<path class="st0" d="M395.9,231.5l1.9,2.7c1.2-0.7,1.7-1.4,1-2.4C398.3,231,397.5,230.8,395.9,231.5z"/>
	<path class="st0" d="M336.8,208.4l3.3-0.7c-0.2-1.4-0.7-2.1-1.9-1.9C337.3,206.1,336.6,206.7,336.8,208.4z"/>
	<path class="st0" d="M54.2,214.4c1.4-0.3,2.2-0.9,2.1-1.9c-0.2-0.9-0.5-1.4-2.4-0.9l-1.4,0.3c-0.2,0-0.3,0-0.5,0.2
		c-0.2,0.2-0.2,0.5-0.2,1C52.1,213.9,52.8,214.8,54.2,214.4z"/>
	<path class="st0" d="M361.5,206.1c-1.4-0.3-2.2,0.7-2.6,2.4c-0.3,1.7-0.2,3.2,1.2,3.6c1.4,0.2,2.1-0.7,2.6-2.6
		C363,207.9,362.8,206.4,361.5,206.1z"/>
	<path class="st0" d="M371.8,155.7c0,0.9,0.7,1.7,1.9,1.7c1.2,0,2.2-0.5,2.4-0.9v-3.1c-0.7,0-2.1,0.2-2.9,0.5
		C372.1,154.3,371.8,154.8,371.8,155.7z"/>
	<path class="st0" d="M51.9,203.8c-1,0.2-1.7,0.7-1.4,1.9c0.2,0.9,0.9,1.4,1.9,1.2c0.9-0.3,1.5-0.7,1.4-1.9
		C53.6,204,53,203.7,51.9,203.8z"/>
	<path class="st0" d="M335.1,149.7c-1.4,0-2.6,0.9-2.7,3.1h5C337.5,151,336.8,149.7,335.1,149.7z"/>
	<path class="st0" d="M48.2,162.8c0,1,0.5,1.7,1.9,1.7c1.2,0,2.2-0.5,2.4-0.9v-3.1c-0.7,0-2.1,0.2-2.9,0.5
		C48.5,161.5,48.2,162,48.2,162.8z"/>
	<path class="st0" d="M314.7,223.5c0.3,0,0.9-0.5,1.4-0.9c1.5-1.4,1.7-3.2-0.2-5.6c-2.1-2.6-3.8-2.7-5.7-1.2c-0.3,0.3-0.9,0.7-1,1
		L314.7,223.5z"/>
	<path class="st0" d="M314.5,54.7c-1.5,0-2.6,1.2-2.6,3.2c0,1.9,0.9,3.2,2.6,3.2c1.7,0,2.6-1.4,2.6-3.2
		C317.1,55.9,316,54.7,314.5,54.7z"/>
	<path class="st0" d="M346.4,320.9c1,0,1.7-0.5,1.9-2.1l-3.3-0.2C344.8,320,345.2,320.9,346.4,320.9z"/>
	<path class="st0" d="M240.5,407.8c-0.7,0.7-0.9,1.4,0,2.9l2.6-2C242.2,407.5,241.3,407.2,240.5,407.8z"/>
	<path class="st0" d="M254.9,397.2c0,0.3,0,0.9,0.5,1.2c0.7,0.5,1.2,0.2,1.7-0.3c0.3-0.5,0.3-1.2,0.3-1.5l-1.9-1.2
		C255.2,395.9,254.9,396.7,254.9,397.2z"/>
	<path class="st0" d="M262.4,351.5l-2.2,0.7c0.2,0.7,0.5,1.5,0.9,1.9c0.2,0.3,0.7,0.7,1.4,0.5c0.9-0.5,1-1.2,0.9-1.9
		C263.1,352.1,262.6,351.5,262.4,351.5z"/>
	<path class="st0" d="M295.1,272.2c-1.5,0.3-2.9,1.2-2.7,2.6c0.3,1.4,1.4,1.7,3.3,1.4c1.5-0.3,2.9-1.2,2.7-2.6
		C298.2,272,297,271.7,295.1,272.2z"/>
	<path class="st0" d="M306.5,296.3c0.3,0.2,0.9,0.3,1.4,0c0.9-0.5,0.9-1.2,0.3-1.9c-0.3-0.5-1-0.9-1.4-0.9l-1.9,1.4
		C305.3,295.4,305.9,296.1,306.5,296.3z"/>
	<path class="st0" d="M157.2,382.9c-0.3-0.9-1-1.4-2.6-1.2l0.9,3.2C156.8,384.6,157.5,384.1,157.2,382.9z"/>
	<path class="st0" d="M177.4,416.6c-0.5,0.7-0.2,1.2,0.3,1.7c0.5,0.3,1.2,0.3,1.5,0.3l1.2-1.9c-0.5-0.3-1.4-0.7-1.9-0.7
		C178.2,416,177.7,416,177.4,416.6z"/>
	<path class="st0" d="M83,315.7c1.4-0.5,1.5-1.7,0.9-3.4c-0.5-1.5-1.5-2.7-2.9-2.4c-1,0.3-1.2,1.7-0.7,3.4
		C80.7,314.9,81.8,316.1,83,315.7z"/>
	<path class="st0" d="M165.1,400.7c-0.7,0.5-0.9,1.4-0.2,2.2c0.5,0.7,1.2,1,2.2,0.3c0.9-0.7,0.9-1.4,0.2-2.2
		C166.6,400.3,165.9,399.8,165.1,400.7z"/>
	<path class="st0" d="M384.3,381.2c-0.2,0.9,0.5,1.7,1.9,1.7c1.2,0,2.2-0.5,2.4-0.9V379c-0.7,0-2.1,0.2-2.9,0.5
		C384.6,379.8,384.3,380.3,384.3,381.2z"/>
	<path class="st0" d="M160.4,405.3c-0.2-0.2-0.2-0.3-0.3-0.3c-0.3,0-0.5,0-1,0.3c-0.7,0.5-1,1.5,0,2.7c0.9,1,1.9,1.5,2.6,0.9
		c0.7-0.5,0.9-1-0.3-2.6L160.4,405.3z"/>
	<path class="st0" d="M357.4,314.5c-0.7,0-1.4,0.3-1.7,0.7l0.7,5.1c0.3,0.2,0.9,0.2,1.5,0c1.2-0.2,2.1-1.4,1.7-3.4
		C359.2,314.9,358.4,314.4,357.4,314.5z"/>
	<path class="st0" d="M374,311.5c0.3-0.3,0.5-0.7,0.3-1.4c-0.5-0.9-1.2-1-1.9-0.7c-0.5,0.2-1,0.9-1,1.2l1,2.1
		C373,312.3,373.8,311.8,374,311.5z"/>
	<path class="st0" d="M21.8,382.4c0,1,0.5,1.7,1.9,1.7c1.2,0,2.2-0.5,2.4-0.9v-3.1c-0.7,0-2.1,0.2-2.9,0.5
		C22.1,381,21.8,381.5,21.8,382.4z"/>
	<path class="st0" d="M363.9,381.2c0,0.9,0.5,1.7,1.9,1.7c1.2,0,2.2-0.5,2.4-0.9V379c-0.7,0-2.1,0.2-2.9,0.5
		C364.2,379.8,363.9,380.3,363.9,381.2z"/>
	<path class="st0" d="M69.1,373.2c-0.7,0-1.4,0-2.1,0.2v6.2c0.7,0,1.5,0,2.1,0c1.9,0,3.4-0.9,3.4-3.2
		C72.5,374,71.3,373.2,69.1,373.2z"/>
	<path class="st0" d="M67,162.8c-0.2,1,0.5,1.7,1.9,1.7c1.2,0,2.2-0.5,2.4-0.9v-3.1c-0.7,0-2.1,0.2-2.9,0.5
		C67.4,161.5,67,162,67,162.8z"/>
	<path class="st0" d="M95.3,384.3c1.9-0.2,2.9-1.5,2.9-3.9c0-2.2-0.9-3.9-2.7-3.9c-1.7,0-2.9,1.4-2.9,3.8
		C92.6,382.4,93.4,384.1,95.3,384.3z"/>
	<path class="st0" d="M345.9,381.2c0,0.9,0.5,1.7,1.9,1.7c1.2,0,2.2-0.5,2.4-0.9V379c-0.7,0-2.1,0.2-2.9,0.5
		C346.2,379.8,345.9,380.3,345.9,381.2z"/>
	<path class="st0" d="M318.6,381.2c0,0.9,0.5,1.7,1.9,1.7c1.2,0,2.2-0.5,2.4-0.9V379c-0.7,0-2.1,0.2-2.9,0.5
		C319,379.8,318.6,380.3,318.6,381.2z"/>
	<path class="st0" d="M41,207.8c-1.2,0.5-1.4,1.7-0.7,3.4c0.7,1.5,1.7,2.7,3.1,2.2c1.2-0.7,1.2-1.9,0.5-3.6
		C43.2,208.3,42.2,207.3,41,207.8z"/>
	<path class="st0" d="M98.4,219.9c-0.5,0.7-0.5,1.4,0.2,1.9c0.5,0.3,1.2,0.7,1.4,0.5l1.5-1.7c-0.5-0.3-1.2-0.9-1.7-1
		C99.4,219.4,98.9,219.4,98.4,219.9z"/>
	<path class="st0" d="M155.3,213.2l-0.3,0.1C154.9,213.4,155,213.4,155.3,213.2z"/>
	<path class="st0" d="M81.4,162.8c0,1,0.5,1.7,1.9,1.7c1.2,0,2.2-0.5,2.4-0.9v-3.1c-0.7,0-2.1,0.2-2.9,0.5
		C81.8,161.5,81.4,162,81.4,162.8z"/>
	<path class="st0" d="M157.3,213.3C157.3,213.3,157.3,213.3,157.3,213.3C157.3,213.3,157.3,213.3,157.3,213.3
		C157.3,213.3,157.3,213.3,157.3,213.3z"/>
	<path class="st0" d="M204,132.4l-0.2,0.5c0,0,0,0.1,0,0.1c0.1,0.1,0.3,0.3,0.3,0.4L204,132.4z"/>
	<path class="st0" d="M94.4,54.7c-1.7,0-2.9,1.4-2.9,3.8c0,2.2,0.9,3.9,2.7,4.1c1.9-0.2,2.9-1.7,2.9-3.9
		C97.2,56.4,96.3,54.7,94.4,54.7z"/>
	<path class="st0" d="M216.6,2.7c-1-0.2-1.7,0.2-2.2,1.9l3.3,0.5C218,3.8,217.8,2.9,216.6,2.7z"/>
	<path class="st0" d="M255.7,207.6l0.2,0.2c0,0.2,0.1,0.5,0.1,0.8c0,0,0.1,0,0.1,0c0-0.9,0-1.7-0.2-2.6c0-0.1,0-0.1,0-0.2
		c-0.2-0.7-0.3-1.1-0.3-1.1C255.9,207.1,255.5,205.2,255.7,207.6z"/>
	<path class="st0" d="M250.8,218.9L250.8,218.9C250.7,218.9,250.7,218.9,250.8,218.9z"/>
	<path class="st0" d="M200.9,424.6c0,0.9,0.5,1.2,1.2,1.4c0.5,0,1.4-0.2,1.5-0.3l0.2-2.2c-0.7,0-1.5,0-2.1,0.2
		C201.4,423.7,200.9,423.9,200.9,424.6z"/>
	<path class="st0" d="M227.3,5.6c-1.4-0.5-2.2,0.3-2.9,2.1c-0.5,1.5-0.7,3.2,0.7,3.6c1.2,0.7,2.2-0.2,2.9-2.1
		C228.5,7.7,228.6,6.2,227.3,5.6z"/>
	<path class="st0" d="M154.7,213.4l-0.2,0.1c0,0-0.1,0.1-0.1,0.1C154.5,213.6,154.6,213.5,154.7,213.4z"/>
	<path class="st0" d="M72.7,206.7c-0.7,0-1.5,0-2.1,0c-0.3,0.2-0.9,0.3-1,1c0,1,0.5,1.5,1.2,1.5c0.5,0,1.4-0.2,1.5-0.3L72.7,206.7z"
		/>
	<path class="st0" d="M119.6,54.7c-1.4,0-2.6,0.9-2.7,3.1h5C122,56,121.3,54.7,119.6,54.7z"/>
	<path class="st1" d="M311.2,382.7c-1.2,0-2.4-0.5-3.1-0.9l-0.5,1.4c0.5,0.2,1.9,0.7,3.6,0.7c2.4,0,4.1-1,4.1-3.2
		c0-2-1.9-2.9-3.6-3.8c-1.7-0.9-2.7-1.5-2.7-2.9c0-1.4,1.4-1.9,2.7-1.9c1.4,0,2.1,0.3,2.7,0.7l0.3-1c-0.3-0.3-1.4-0.7-2.9-0.7
		c-1.9,0-4.1,0.7-4.1,3.1c0,1.9,1.5,3.1,3.3,3.8c1.9,0.7,3.1,1.4,3.1,2.7S313,382.7,311.2,382.7z"/>
	<path class="st1" d="M323.9,384.1h0.5v-6.8c0-2.4-1.4-2.9-3.3-2.9c-1.5,0-3.1,0.9-3.4,1l0.3,0.9c0.5-0.3,1.7-0.9,2.7-0.9
		c1.4,0,2.2,0.2,2.2,1.7v1c-1,0-2.6,0.2-3.8,0.5c-1.4,0.5-2.1,1.4-1.9,2.9c0,1.5,1.2,2.6,2.9,2.6c1.4,0,2.4-0.5,2.9-1v0.3
		C323.2,384.1,323.4,384.1,323.9,384.1z M322.9,382c-0.2,0.3-1.2,0.9-2.4,0.9c-1.4,0-1.9-0.9-1.9-1.7c0-0.9,0.3-1.4,1.4-1.7
		c0.9-0.3,2.2-0.5,2.9-0.5V382z"/>
	<path class="st1" d="M334.9,383.7v-5.8c0-2.7-0.9-3.8-2.9-3.8c-1.4,0-2.7,0.9-3.4,1.4v-1.2h-1.2v9.6h1.4v-7.3
		c0.7-0.7,1.9-1.2,2.7-1.2c1.7-0.2,2.1,0.7,2.1,2.6v5.8H334.9z"/>
	<path class="st1" d="M340.2,384.1c0.9,0,2.1-0.5,2.6-0.9l-0.2-0.9c-0.2,0.2-1.2,0.5-1.7,0.5c-0.9,0-1.2-0.2-1.2-2.1v-5.5h2.9v-1
		h-2.9v-2.2h-0.9c-0.2,0.5-0.2,1.5-0.3,1.9c0,0.5-0.7,0.5-1.4,0.7v0.7h0.9v6.3C338,383.7,339,384.1,340.2,384.1z"/>
	<path class="st1" d="M351.2,384.1h0.5v-6.8c0-2.4-1.4-2.9-3.3-2.9c-1.5,0-3.1,0.9-3.4,1l0.3,0.9c0.5-0.3,1.7-0.9,2.7-0.9
		c1.4,0,2.2,0.2,2.2,1.7v1c-1,0-2.6,0.2-3.8,0.5c-1.4,0.5-2.1,1.4-1.9,2.9c0,1.5,1.2,2.6,2.9,2.6c1.4,0,2.4-0.5,2.9-1v0.3
		C350.5,384.1,350.7,384.1,351.2,384.1z M350.2,382c-0.2,0.3-1.2,0.9-2.4,0.9c-1.4,0-1.9-0.9-1.9-1.7c0-0.9,0.3-1.4,1.4-1.7
		c0.9-0.3,2.2-0.5,2.9-0.5V382z"/>
	<path class="st1" d="M358.6,375.2c0.9,0,1.5,0.2,2.1,0.5l0.2-1c-0.3-0.2-1-0.5-2.2-0.5c-2.9,0-4.5,2.1-4.5,4.8
		c0,2.7,1.5,4.8,4.1,4.8c1.2,0,2.4-0.3,2.9-0.9l-0.3-0.9c-0.3,0.3-1.4,0.7-2.4,0.7c-1.5,0-2.9-1.4-2.9-3.9
		C355.6,376.4,357,375.2,358.6,375.2z"/>
	<path class="st1" d="M369.2,384.1h0.5v-6.8c0-2.4-1.4-2.9-3.3-2.9c-1.5,0-3.1,0.9-3.4,1l0.3,0.9c0.5-0.3,1.7-0.9,2.7-0.9
		c1.4,0,2.2,0.2,2.2,1.7v1c-1,0-2.6,0.2-3.8,0.5c-1.4,0.5-2.1,1.4-1.9,2.9c0,1.5,1.2,2.6,2.9,2.6c1.4,0,2.4-0.5,2.9-1v0.3
		C368.5,384.1,368.7,384.1,369.2,384.1z M368.2,382c-0.2,0.3-1.2,0.9-2.4,0.9c-1.4,0-1.9-0.9-1.9-1.7c0-0.9,0.3-1.4,1.4-1.7
		c0.9-0.3,2.2-0.5,2.9-0.5V382z"/>
	<path class="st1" d="M380.3,383.7v-5.8c0-2.7-0.9-3.8-2.9-3.8c-1.4,0-2.7,0.9-3.4,1.4v-1.2h-1.2v9.6h1.4v-7.3
		c0.7-0.7,1.9-1.2,2.7-1.2c1.7-0.2,2.1,0.7,2.1,2.6v5.8H380.3z"/>
	<path class="st1" d="M389.4,384.1h0.5v-6.8c0-2.4-1.4-2.9-3.3-2.9c-1.5,0-3.1,0.9-3.4,1l0.3,0.9c0.5-0.3,1.7-0.9,2.7-0.9
		c1.4,0,2.2,0.2,2.2,1.7v1c-1,0-2.6,0.2-3.8,0.5c-1.2,0.5-2.1,1.4-1.9,2.9c0,1.5,1.2,2.6,2.9,2.6c1.4,0,2.4-0.5,2.9-1v0.3
		C388.7,384.1,388.9,384.1,389.4,384.1z M388.5,382c-0.2,0.3-1.2,0.9-2.4,0.9c-1.4,0-2.1-0.9-1.9-1.7c0-0.9,0.3-1.4,1.4-1.7
		c0.9-0.3,2.2-0.5,2.9-0.5V382z"/>
	<polygon class="st1" points="318.8,145.6 318.8,158.2 320.2,158.2 320.2,150.2 320,147.5 321.4,149.7 327,158.2 328.4,158.2 
		328.4,145.6 327,145.6 327,153.8 327.2,156.3 326,154.3 320.2,145.6 	"/>
	<path class="st1" d="M335.1,148.6c-2.7,0-4.1,2.1-4.1,5c0,3.1,1.4,4.8,4.1,4.8c1.2,0,2.6-0.3,3.3-0.9l-0.3-0.9
		c-0.5,0.3-1.7,0.7-2.6,0.7c-1.7,0-3.1-1-3.1-3.4c0-0.2,0-0.2,0-0.3h6.2c0-0.3,0-0.7,0-1.4C338.5,150,337.1,148.6,335.1,148.6z
		 M337.3,152.7h-5c0.2-2.2,1.4-3.1,2.7-3.1C336.8,149.7,337.5,151,337.3,152.7z"/>
	<polygon class="st1" points="349.5,155.3 349.1,156.8 348.8,155.3 346.9,148.8 345.5,148.8 343.6,155.3 343.3,156.8 343,155.3 
		341.1,148.8 339.7,148.8 342.8,158.4 344.2,158.4 346,151.4 346.4,150.2 346.6,151.4 348.6,158.4 349.8,158.4 352.7,148.8 
		351.4,148.8 	"/>
	<path class="st1" d="M354.6,148.8v9.4h1.4v-7.3c0.7-0.7,1.9-1.2,2.7-1.2c1.5-0.2,1.9,0.7,1.9,2.6v5.8h1.4v-5.8c0-0.5-0.2-1-0.2-1.5
		c0.9-0.5,1.9-1,2.7-1c1.5,0,1.9,1,1.9,2.7v5.8h1.4v-5.8c0-2.7-0.7-3.8-2.7-3.8c-1.4,0-2.7,0.7-3.4,1.2c-0.5-0.9-1.2-1.2-2.4-1.2
		s-2.7,0.9-3.4,1.4v-1.2H354.6z"/>
	<path class="st1" d="M372.4,153.1c-1.4,0.5-2.1,1.4-1.9,2.9c0,1.5,1.2,2.6,2.9,2.6c1.4,0,2.4-0.5,2.9-1v0.3c0,0.7,0.2,0.7,0.7,0.7
		h0.5v-6.8c0-2.4-1.4-2.9-3.3-2.9c-1.5,0-3.1,0.9-3.4,1l0.3,0.9c0.5-0.3,1.7-0.9,2.7-0.9c1.4,0,2.2,0.2,2.2,1.7v1
		C375.2,152.6,373.6,152.7,372.4,153.1z M376,156.5c-0.2,0.3-1.2,0.9-2.4,0.9c-1.2,0-1.9-0.9-1.9-1.7s0.3-1.4,1.4-1.7
		c0.9-0.3,2.2-0.5,2.9-0.5V156.5z"/>
	<path class="st1" d="M380.7,148.8v9.6h1.4V151c0.7-0.7,1.9-1.2,2.7-1.2c1.7-0.2,2.1,0.7,2.1,2.6v5.8h1.4v-5.8
		c0-2.7-0.9-3.8-2.9-3.8c-1.4,0-2.7,0.9-3.4,1.4v-1.2H380.7z"/>
	<polygon class="st1" points="4.8,384.9 6.2,384.9 6.9,377.1 7,373.3 8.2,377.1 11,385.1 11.8,385.1 14.6,377.1 15.6,373.3 
		15.9,377.1 16.8,384.9 18.3,384.9 16.6,372.3 14.7,372.3 12.2,380.5 11.5,382.9 10.8,380.5 8.1,372.3 6,372.3 	"/>
	<path class="st1" d="M27.1,385.3h0.5v-6.8c0-2.4-1.4-2.9-3.3-2.9c-1.5,0-3.1,0.9-3.4,1l0.3,0.9c0.5-0.3,1.7-0.9,2.7-0.9
		c1.4,0,2.2,0.2,2.2,1.7v1c-1,0-2.6,0.2-3.8,0.5c-1.4,0.5-2.1,1.4-1.9,2.9c0,1.5,1.2,2.6,2.9,2.6c1.4,0,2.4-0.5,2.9-1v0.3
		C26.4,385.3,26.6,385.3,27.1,385.3z M26.1,383.2c-0.2,0.3-1.2,0.9-2.4,0.9c-1.4,0-1.9-0.7-1.9-1.7c0-0.9,0.3-1.4,1.4-1.7
		c0.9-0.3,2.2-0.5,2.9-0.5V383.2z"/>
	<path class="st1" d="M31.7,377.8c0.5-0.3,1.5-1,2.6-1c0.7,0,1,0.2,1.2,0.2v-1.4c-0.2-0.2-0.3-0.2-0.9-0.2c-1.2,0-2.6,0.9-2.9,1.4
		v-1.2h-1.2h-0.2v9.6h1.4V377.8z"/>
	<path class="st1" d="M39.6,385.3c0.9,0,2.1-0.5,2.6-0.9l-0.2-0.9c-0.2,0.2-1.2,0.5-1.7,0.5c-0.9,0-1.2-0.2-1.2-2v-5.5H42v-1h-2.9
		v-2.2h-0.9c-0.2,0.5-0.2,1.5-0.3,1.9c0,0.5-0.7,0.5-1.4,0.7v0.7h0.9v6.3C37.4,384.9,38.4,385.3,39.6,385.3z"/>
	<rect x="44.7" y="375.5" class="st1" width="1.4" height="9.4"/>
	<path class="st1" d="M48.2,371.1l-1-0.9c-0.9,1.2-1.7,2.2-2.7,3.2l0.7,0.7C45.8,373.7,47.6,372,48.2,371.1z"/>
	<path class="st1" d="M57.1,384.9v-5.8c0-2.7-0.9-3.8-2.9-3.8c-1.4,0-2.7,0.9-3.4,1.4v-1.2h-1.2v9.6h1.4v-7.3
		c0.7-0.7,1.9-1.2,2.7-1.2c1.7-0.2,2.1,0.7,2.1,2.6v5.8H57.1z"/>
	<path class="st1" d="M69.6,372.1c-1,0-2.2,0.2-3.1,0.2h-0.7v12.6h1.4v-4.4c0.3,0,1.2,0,2.1,0c2.9,0,4.8-1.5,4.8-4.3
		C74,373.3,72.3,372.1,69.6,372.1z M69.1,379.5c-0.5,0-1.4,0-2.1,0v-6.2c0.7-0.2,1.4-0.2,2.1-0.2c2.2,0,3.4,0.9,3.4,3.1
		C72.5,378.6,71,379.5,69.1,379.5z"/>
	<path class="st1" d="M78.2,372.3c0-0.5-0.3-0.9-0.9-0.9c-0.5,0-1,0.3-1,1c0,0.7,0.3,1,0.9,0.9C77.6,373.3,78.2,373,78.2,372.3z"/>
	<rect x="76.4" y="375.5" class="st1" width="1.4" height="9.4"/>
	<path class="st1" d="M88.8,384.9v-5.8c0-2.7-0.9-3.8-2.9-3.8c-1.4,0-2.7,0.9-3.4,1.4v-1.2h-1.2v9.6h1.4v-7.3
		c0.7-0.7,1.9-1.2,2.7-1.2c1.7-0.2,2.1,0.7,2.1,2.6v5.8H88.8z"/>
	<path class="st1" d="M88.3,371.6c-0.3,0.3-0.7,0.9-1.5,0.9c-1,0-1.2-1.2-2.6-1.2c-1,0-1.9,0.9-2.2,1.5l0.5,0.3
		c0.3-0.3,0.9-0.9,1.5-0.9c1,0,1,1.2,2.6,1.2c1,0,1.9-0.7,2.2-1.4L88.3,371.6z"/>
	<path class="st1" d="M95.3,385.1c2.4,0,4.3-1.7,4.3-4.8c0-2.6-1.2-5-4.1-5c-2.4,0-4.3,1.7-4.3,4.8
		C91.2,382.7,92.2,385.1,95.3,385.1z M95.5,376.4c1.9,0,2.7,1.7,2.7,3.9c0,2.4-1,3.8-2.9,3.9c-1.9-0.2-2.7-1.9-2.7-4.1
		C92.6,377.8,93.8,376.4,95.5,376.4z"/>
	<rect x="102.3" y="371.1" class="st1" width="1.4" height="13.8"/>
	<path class="st1" d="M287.3,61c-1,0-2.1-0.2-3.1-0.9l-0.2,1.2c0.7,0.3,1.9,0.9,3.4,0.7c2.2,0,3.8-1.4,3.8-3.2
		c0-2.1-1.7-2.9-3.3-3.6c-1.5-0.7-2.2-1.2-2.2-2.2c0-0.9,0.9-1.7,2.2-1.7c0.9,0,1.9,0.3,2.6,0.9l0.2-1.2c-0.7-0.5-1.7-0.7-2.7-0.7
		c-2.1,0-3.6,1-3.6,3.1c0,1.5,1,2.4,2.4,3.1c1.7,0.9,2.9,1.4,2.9,2.6C289.7,60.3,288.6,61,287.3,61z"/>
	<polygon class="st1" points="293.1,62.2 294.5,62.2 294.5,53.8 293.1,54 	"/>
	<path class="st1" d="M294.8,51.1c0-0.5-0.5-0.9-1-0.9c-0.7,0-1,0.3-1,0.9c0,0.5,0.5,0.9,1,0.9C294.3,51.9,294.8,51.6,294.8,51.1z"
		/>
	<path class="st1" d="M297,54v8.2h1.4v-6c0.5-0.5,1.4-1.2,2.4-1.2c1.2,0,1.5,1,1.5,1.9v5.3h1.4v-6c0.5-0.5,1.4-1.2,2.4-1.2
		c1.4,0,1.5,1,1.5,1.9v5.3h1.4v-5.5c0-1.9-0.7-2.9-2.6-2.9c-1,0-2.1,0.5-2.9,1.4c-0.3-0.7-1-1.4-2.4-1.4c-1,0-2.1,0.5-2.7,1.2v-1.2
		L297,54z"/>
	<path class="st1" d="M314.5,53.6c-2.4,0-3.8,1.9-3.8,4.3c0,2.6,1.5,4.3,3.8,4.3c2.2,0,3.8-1.7,3.8-4.3
		C318.3,55.5,316.9,53.6,314.5,53.6z M314.5,61.2c-1.7,0-2.6-1.4-2.6-3.2c0-2.1,1-3.2,2.6-3.2c1.5,0,2.6,1.2,2.6,3.2
		C317.1,59.8,316.2,61.2,314.5,61.2z"/>
	<path class="st1" d="M320.5,54v8.2h1.4v-6c0.5-0.7,1.4-1.2,2.4-1.2c1.2,0,1.7,0.7,1.7,1.7V62h1.4v-5.5c0-1.7-1-2.7-2.7-2.7
		c-1,0-2.1,0.5-2.7,1.2v-1.2L320.5,54z"/>
	<polygon class="st1" points="81.9,63.2 83.3,63.2 83.3,57.2 87.6,57.2 87.6,56.2 83.3,56.2 83.3,51.6 89,51.6 89,50.6 81.9,50.6 	
		"/>
	<path class="st1" d="M94.4,53.6c-2.4,0-4.3,1.5-4.3,4.8c0,2.6,1,5,4.1,5c2.4,0,4.3-1.7,4.3-4.8C98.6,56,97.4,53.6,94.4,53.6z
		 M94.3,62.5c-1.9-0.2-2.7-1.9-2.7-4.1c0-2.4,1.2-3.8,2.9-3.8c1.9,0,2.7,1.7,2.7,3.9C97.2,60.8,96.2,62.4,94.3,62.5z"/>
	<path class="st1" d="M103.3,62.2c-1.2,0-2.4-0.5-2.7-0.7l-0.3,1c0.7,0.3,1.9,0.7,3.1,0.7c1.9,0,3.3-0.9,3.3-2.6
		c0-1.7-1.7-2.4-2.9-2.9c-1.2-0.3-2.1-0.9-2.1-1.9c0-0.9,0.7-1.4,2.1-1.4c1,0,1.9,0.3,2.2,0.5l0.2-1c-0.3-0.2-1.4-0.5-2.4-0.5
		c-1.7,0-3.3,0.7-3.3,2.4c0,1.5,1.4,2.4,2.7,2.9c1,0.5,2.2,0.9,2.2,1.9C105.4,61.7,104.5,62.2,103.3,62.2z"/>
	<path class="st1" d="M110,51.6c-0.2,0.5-0.2,1.5-0.3,1.9c0,0.5-0.7,0.5-1.4,0.7v0.7h0.9v6.3c0,2.1,1,2.4,2.2,2.4
		c0.9,0,2.1-0.5,2.6-0.9l-0.2-0.9c-0.2,0.2-1.2,0.5-1.7,0.5c-0.9,0-1.2-0.2-1.2-2.1v-5.5h2.9v-1h-2.9v-2.2H110z"/>
	<path class="st1" d="M123.2,58.6c0-0.3,0-0.7,0-1.4c0-2.2-1.4-3.6-3.4-3.6c-2.7,0-4.3,2.1-4.1,5c0,3.1,1.4,4.8,4.1,4.8
		c1.2,0,2.6-0.3,3.3-0.9l-0.3-0.9c-0.5,0.3-1.7,0.7-2.6,0.7c-1.7,0-3.1-1-3.1-3.4c0-0.2,0-0.2,0-0.3H123.2z M116.9,57.8
		c0.2-2.2,1.4-3.1,2.7-3.1c1.7,0,2.4,1.4,2.2,3.1H116.9z"/>
	<path class="st1" d="M125.6,53.6h-0.2v9.6h1.4v-7.3c0.5-0.3,1.5-1,2.6-1c0.7,0,1,0.2,1.2,0.2v-1.4c-0.2-0.2-0.3-0.2-0.9-0.2
		c-1.2,0-2.6,0.9-2.9,1.4v-1.2H125.6z"/>
	<polygon class="st1" points="35.8,164.9 36.2,165.4 44.7,165.4 44.7,164.4 37.7,164.4 38.4,163.3 45.1,153.3 44.7,152.7 
		36.5,152.7 36.5,153.9 43.2,153.9 42.5,154.8 	"/>
	<path class="st1" d="M48.8,160.3c-1.4,0.5-2.1,1.4-1.9,2.9c0,1.5,1.2,2.6,2.9,2.6c1.4,0,2.4-0.5,2.9-1v0.3c0,0.7,0.2,0.7,0.7,0.7
		H54v-6.8c0-2.4-1.4-2.9-3.3-2.9c-1.5,0-3.1,0.9-3.4,1l0.3,0.9c0.5-0.3,1.7-0.9,2.7-0.9c1.4,0,2.2,0.2,2.2,1.7v1
		C51.6,159.8,50,159.9,48.8,160.3z M52.4,163.7c-0.2,0.3-1.2,0.9-2.4,0.9c-1.4,0-1.9-0.7-1.9-1.7c0-0.9,0.3-1.4,1.4-1.7
		c0.9-0.3,2.2-0.5,2.9-0.5V163.7z"/>
	<polygon class="st1" points="60.8,161.8 60.2,164 59.5,161.8 57.2,156 55.7,156 59.6,165.6 60.8,165.6 64.4,156 62.9,156 	"/>
	<path class="st1" d="M67.5,160.3c-1.2,0.5-2.1,1.4-1.9,2.9c0,1.5,1.2,2.6,2.9,2.6c1.4,0,2.4-0.5,2.9-1v0.3c0,0.7,0.2,0.7,0.7,0.7
		h0.5v-6.8c0-2.4-1.4-2.9-3.3-2.9c-1.5,0-3.1,0.9-3.4,1l0.3,0.9c0.5-0.3,1.7-0.9,2.7-0.9c1.4,0,2.2,0.2,2.2,1.7v1
		C70.3,159.8,68.7,159.9,67.5,160.3z M71.3,163.7c-0.2,0.3-1.2,0.9-2.4,0.9c-1.4,0-2.1-0.7-1.9-1.7c0-0.9,0.3-1.4,1.4-1.7
		c0.9-0.3,2.2-0.5,2.9-0.5V163.7z"/>
	<rect x="75.9" y="151.6" class="st1" width="1.4" height="13.8"/>
	<path class="st1" d="M82.1,160.3c-1.4,0.5-2.1,1.4-1.9,2.9c0,1.5,1.2,2.6,2.9,2.6c1.4,0,2.4-0.5,2.9-1v0.3c0,0.7,0.2,0.7,0.7,0.7
		h0.5v-6.8c0-2.4-1.4-2.9-3.3-2.9c-1.5,0-3.1,0.9-3.4,1l0.3,0.9c0.5-0.3,1.7-0.9,2.7-0.9c1.4,0,2.2,0.2,2.2,1.7v1
		C84.8,159.8,83.3,159.9,82.1,160.3z M85.7,163.7c-0.2,0.3-1.2,0.9-2.4,0.9c-1.4,0-1.9-0.7-1.9-1.7c0-0.9,0.3-1.4,1.4-1.7
		c0.9-0.3,2.2-0.5,2.9-0.5V163.7z"/>
	<path class="st1" d="M250.2,216.1c0.2-1,0.3-2.2,0.3-3.8C250.4,213.2,250.4,214.8,250.2,216.1z"/>
	<path class="st1" d="M256,210c0-0.3,0-0.6,0-1C256,209.4,256,209.8,256,210z"/>
	<path class="st1" d="M208.6,162.7c0.2,0.9,0,0.2,0,1h0.2C208.8,163.1,208.7,162.7,208.6,162.7z"/>
	<path class="st1" d="M246.1,190.5c-0.1-0.2-0.2-0.4-0.3-0.5C245.9,190.2,246,190.3,246.1,190.5z"/>
	<path class="st1" d="M250.9,188.8c0,0,0,0.1,0.1,0.1c0,0.1,0.1,0.1,0.1,0.2L250.9,188.8z"/>
	<path class="st1" d="M256,209c0,0.3,0,0.7,0,1c0,0.5,0,0.9,0,1c0.2-0.3,0-1.4,0-2.4c0,0,0,0-0.1,0C256,208.7,256,208.9,256,209z"/>
	<path class="st1" d="M208.8,162.7c0.1,0.1,0.1,0.6,0,1.1c0.1,0.4,0,1,0,1.1c0-0.2,0-0.5,0-0.9c-0.3,0-4.5-2.2-4.6-2.4
		c0-0.2,0-0.3,0-0.5c-1.1,0.1-2.2,0-3.2,0.2c-1,0.2-2.1,0.3-3.1,0.5c-0.5,0-0.9,0.2-1.4,0.2c-0.3,0.2-0.9,0.2-1.2,0.3
		c-0.7,0.2-1.4,0.3-1.9,0.5l0.3-0.2c-3.4,0.9-7.5,2.4-11.8,4.8c-4.3,2.4-8.4,5.8-12,9.7c-3.6,3.9-6.7,8.5-8.6,13
		c-1.9,4.4-3.3,8.9-3.6,12.5c-0.2,1-0.5,2.4-0.5,3.8s-0.2,2.7-0.2,3.8c0.2-1.4,0.2-0.9,0.2,0.2c0.1,1.4,0.1,2.3,0.1,2.8
		c0.1-0.1,0.3-0.1,0.4-0.1c-0.1,0.1-0.3,0.2-0.4,0.2c0,0,0,0,0,0c1.4,0.9,1.2,3.7,1.2,3.7l-0.2,0.2l-0.6,0.1c0,0.2,0.1,0.3,0.1,0.5
		c0.2,1,0.3,2.4,0.9,3.9c0.3,1.5,0.9,3.4,1.7,5.5c0.7,2,1.7,4.1,2.7,6.2c0.5,1,1.2,2,1.9,3.1c0.5,1,1.4,2,2.1,3.1
		c0.9,3.1,2.6,4.8,4.1,6.5c1.7,1.5,3.3,3.2,5,4.4c0.9,0.7,1.5,1.2,2.4,1.7s1.5,0.9,2.2,1.4c0.7,0.3,1.2,0.9,1.9,1.2
		c0.5,0.3,1,0.5,1.5,0.7c3.6,1.7,8.2,3.2,12,4.1h-0.3c0.5,0.2,1.4,0.2,2.4,0.3c1,0.2,2.2,0.3,3.8,0.5c1.4,0,2.9,0.2,4.6,0.2
		s3.4-0.2,5.1-0.2c1.7-0.3,3.4-0.5,5.1-0.9c1.5-0.3,3.3-0.9,4.6-1.2c1.4-0.5,2.6-1,3.6-1.4c1-0.3,1.9-0.9,2.4-1l-0.5,0.2
		c3.8-1.9,3.3-1.5,6.2-3.1c-0.2,0,0.3-0.5,1.2-1c0.9-0.7,1.7-1.4,2.2-1.9c0.3-0.3,1-0.7,1.5-1.2c0.5-0.5,1.2-1.2,1.9-1.7
		c1.4-1.2,2.6-2.7,3.8-4.1v0.2c1-1,2.1-2.7,3.3-4.3c1-1.5,2.1-3.2,2.6-4.1c1-2,2.6-4.6,3.4-7.5c0.7-1.4,1-3.1,1.4-4.6
		c0.4-1.3,0.6-2.5,0.8-3.8c-0.3-0.2-0.6-0.3-0.9-0.4c0.1,0,0.1,0.1,0,0.1c-0.2,0-0.5-0.2-0.7-0.3c0.3,0,0.7,0.2,0.2-0.2l0.9,0.3
		c0-0.2-0.3-0.2-0.9-0.5l-0.5-0.2h0.2c-2.2-1.9,1.5-4.4,1.5-4.4h0.2l1,0.9v-0.5c0,0-0.9-1.7-1.9-2.2c-1-0.5-2.2-0.2-2.9,3.6
		l-0.2-0.2c0,0.5,0,1-0.2,1.5c-0.3,1.7-0.2,0.5-0.2-0.2c-0.2,0.7-0.2,1.4-0.3,2c0,0.3,0-0.2,0.2-0.5c-0.2,0.9-0.2,2.2-0.5,3.4
		c-0.5,1.7-0.2,0-0.7,2.1c-3.1,10.6-9.9,19.6-19.5,25.6c-0.2,0.2,0,0,0.3-0.2c-0.7,0.5-1.4,0.9-2.1,1.4c-0.7,0.3-1.4,0.7-2.1,1
		c-0.7,0.3-1.4,0.7-2.1,1c-0.7,0.3-1.4,0.5-2.1,0.9c-0.9,0.2-1,0.3-1.4,0.3c0,0-0.2,0-0.5,0.2c-0.3,0.2-1,0.3-1.7,0.5
		c-0.7,0.2-1.7,0.5-2.6,0.7c-1,0.2-2.1,0.3-3.1,0.5c-1,0.2-2.2,0.2-3.3,0.3c-1,0-2.1,0.2-2.7,0.2c-2.6-0.7-3.8-0.7-3.9-0.9l-0.2,0.2
		c-1.7,0-1.9-0.3-2.1-0.3c-0.2,0-0.3-0.2-1.9-0.3c-0.3,0-0.9,0-1.4,0c-0.5-0.2-1.2-0.3-1.7-0.5c-1.2-0.3-2.4-0.7-2.9-0.7
		c0,0-1.4-0.5-1.2-0.5c-0.5,0-1.5-0.5-2.4-0.9c-0.3,0,0.2,0.2,0.5,0.3c-0.7-0.2-1.4-0.5-2.1-0.9c-0.7-0.3-0.9-0.5,0-0.2
		c-0.7-0.3-1.5-0.7-2.7-1.4c-1-0.7-2.4-1.4-3.8-2.4c-2.7-2.1-5.8-4.8-8.6-7.9c-2.6-3.2-4.8-6.7-6.2-9.9c-1.4-3.1-2.2-5.8-2.6-7.3
		c0,0.9,0.5,2.6,0.7,3.2c-0.3-0.7-0.5-1.4-0.7-1.7c-0.2-0.5-0.2-0.9-0.3-1.2c0-0.3-0.2-1.2-0.3-2c-0.2-1-0.3-2-0.2-2.6l-0.2-0.5
		v-0.9c-0.3-3.4-0.3-3.9-0.3-4.3c0-0.3,0-0.5,0.2-3.6c0-1.9,0.2-3.1,0.3-4.3c0.1-1,0.2-1.8,0.4-2.6c-0.1,0.1-0.1,0.1,0-0.3
		c0.2-0.2,0.5-2.4,0.9-2.9c0.2-0.9,1.4-3.8,0.9-2.7c0.2-0.5,1.2-2.9,0.7-1.4c0.3-0.9,0.9-1.5,1-2.2c0.4-0.9,0.8-1.6,1.2-2.4
		c0.5-0.9,1-1.7,1.5-2.6l-0.7,0.9c0.9-1.5,1.9-2.7,2.4-3.2l-1,1.5c0.9-1.2,1.5-2.2,2.2-3.1c0.7-0.9,1.4-1.7,2.2-2.7l-0.7,0.7
		c0.3-0.3,0.7-0.9,1.2-1.4c0.5-0.5,1.2-1.2,2.1-1.9c0.3-0.3,0.7-0.7,1.2-1.2c0.5-0.3,0.9-0.7,1.4-1c1-0.7,1.9-1.5,3.1-2.2
		c1-0.7,2.1-1.4,3.1-1.9c1-0.5,2.1-1,3.1-1.5c1.9-0.9,3.4-1.4,4.1-1.7l-1.4,0.3c0.8-0.3,1.4-0.6,2.2-0.8c-0.4,0.2-0.9,0.7-1.2,0.8
		c0.7-0.3,1.7-0.5,2.9-0.9c0.7-0.2,1.4-0.3,2.1-0.5c0.9-0.2,1.5-0.2,2.4-0.3c1.7-0.3,3.8-0.3,5.8-0.5c1,0,2.1,0,3.1,0.2
		c1,0,2.1,0,3.1,0.3c1,0.2,2.1,0.3,3.1,0.5c1,0.3,2.1,0.5,3.1,0.7c0.5,0.2,1,0.2,1.4,0.3c0.5,0.2,0.9,0.3,1.4,0.5
		c0.9,0.3,1.7,0.7,2.6,1c1.5,0.7,2.9,1.4,4.1,2c1,0.7,1.9,1.2,2.6,1.5c1.7,1.2,0.2,0.3,0.2,0.3c2.1,1.4,1,0.5,2.7,1.7
		c0.5,0.3-0.2,0-0.5-0.2c0.7,0.5,1.4,1,1.5,1c-0.9-0.7-0.3-0.5-0.7-1c0.7,0.5,1.5,1,2.1,1.7h-0.2c0.3,0.5,1.4,0.7,3.3,2.7
		c3.3,3.2,6,7.3,8.1,11.4c-0.1,0-0.4-0.5-0.7-1.2c0.2,0.5,0.4,1,0.6,1.4c-0.3-1,0.9,1.7,0.5,0.9c0.5,0.7,0.9,1.5,1.2,2.4
		c0.3,0.9,0.7,1.7,1,2.6c0.5,1.9,1,3.6,1.4,5c0.2,0.2,1.4,1.5,2.7,2.9c1.1,1.4,2.2,2.8,2.5,3c0-0.3-0.1-0.6-0.1-0.8l-0.2-0.2
		c-0.2-2.4,0.2-0.5-0.2-2.9c0,0,0.2,0.5,0.3,1.1c0-0.6-0.2-1.2-0.3-1.5c-0.2-1.7,0.2,0.2,0-1.9c-0.2-1.4-0.9-3.1-1.2-4.8
		c-0.3-1.9-1-3.2-1.5-4.6c-0.5-1.3-1.2-2.5-1.8-4.1c-0.3-0.5-0.6-1.4-1.1-2.2c-0.4-0.7-1-1.5-1.4-2.4c0,0.1-0.1,0-0.5-0.5
		c-0.7-1.2-1.4-2.1-1.9-2.9c-0.7-0.9-1.2-1.5-1.7-2.4l-1.4-1.4c-0.3-0.3-0.9-0.9-1.4-1.5c-0.5-0.5-1.2-1-1.9-1.7
		c-0.7-0.7-1.4-1.4-2.2-2.1c-0.9-0.7-1.7-1.4-2.7-2.1c-3.9-2.7-9.1-5.3-14.6-6.8c-3.8-1.2-7.7-1.7-11.4-1.9c0,0.3,0.1,0.6,0.1,0.8
		C208.9,162.7,208.8,162.1,208.8,162.7z M253.7,218.4c-0.5-0.3-1-0.5-1.2-0.9C253,217.7,253.3,218,253.7,218.4z M250.8,218.9
		C250.7,218.9,250.7,218.9,250.8,218.9L250.8,218.9z"/>
	<path class="st1" d="M248.5,184.4c0-0.1-0.1-0.3-0.3-0.5C248.3,184,248.4,184.2,248.5,184.4z"/>
	<path class="st1" d="M163.4,201.9c0.1-0.1,0.1-0.3,0.1-0.5C163.5,201.6,163.4,201.8,163.4,201.9z"/>
	<path class="st1" d="M256.1,208.6c0-0.9,0-2-0.2-2.7c0,0,0,0,0,0c0,0.1,0,0.1,0,0.2C256.1,206.9,256.1,207.8,256.1,208.6z"/>
	<polygon class="st1" points="184.9,212.5 184.2,216.8 183.2,212.5 180.6,202.3 174.8,202.3 172.8,221.9 176.5,221.9 177.4,211.4 
		177.9,205.4 179.4,211.4 182.5,222.1 185.8,222.1 188.5,211.4 189.9,205.4 190.2,211.4 191.3,221.9 195.4,221.9 193,202.3 
		187.3,202.3 	"/>
	<rect x="198.5" y="207.3" class="st1" width="4.1" height="14.7"/>
	<path class="st1" d="M200.7,200.6c-1.4,0-2.6,1-2.6,2.4c0,1.2,1,2.2,2.4,2.2c1.4,0,2.6-1,2.6-2.4
		C203.1,201.4,202.1,200.6,200.7,200.6z"/>
	<path class="st1" d="M206.7,202.3v11.3c0,5.3,2.1,8.7,7.9,8.7c5.3,0,8.1-3.1,8.1-8.5v-11.4h-4.1v10.9c0,4.4-1.2,5.6-3.8,5.6
		s-3.9-1-3.9-5.6v-10.9H206.7z"/>
	<polygon class="st1" points="229.2,221.9 232.2,216.5 233.3,214.8 234.3,216.5 237.4,221.9 242,221.9 236,212.2 241.8,202.3 
		237.6,202.3 234.6,207.4 233.6,209.1 232.6,207.4 229.5,202.3 225,202.3 230.9,211.9 224.9,221.9 	"/>
	<path class="st1" d="M253.7,218.4c-0.3-0.3-0.7-0.7-1.2-0.9C252.6,217.8,253.1,218,253.7,218.4z"/>
	<path class="st1" d="M303.2,243.3c-0.1,0-0.1-0.1-0.2-0.1C303.1,243.2,303.1,243.3,303.2,243.3z"/>
	<path class="st1" d="M309.7,246.2C309.7,246.2,309.7,246.2,309.7,246.2c-0.2-0.1-0.4-0.2-0.7-0.3L309.7,246.2z"/>
	<path class="st1" d="M255,213.4c0,0-3.8,2.6-1.5,4.4h-0.2l0.5,0.2c0.5,0.3,0.9,0.3,0.9,0.5l-0.9-0.3c0.5,0.3,0.2,0.2-0.2,0.2
		c0.2,0.2,0.5,0.3,0.7,0.3c0.1,0,0.1-0.1,0-0.1c0.3,0.1,0.6,0.2,0.9,0.4c0,0,0.1,0,0.1,0.1c0.7,0.3,0,0.2,0.7,0.5
		c3.8,2,7.4,3.9,11.3,5.8c0,0.2,0,0-0.2,0c1.2,0.5,2.2,1,3.3,1.5c0.3,0.2,0.3,0.3,0.3,0.3c0-0.2,6,2.9,6.2,2.9
		c1.4,0.3,0.3,0.2,1.5,0.7c0.5,0,1.7,0.9,2.2,1c0,0,0.5,0.3,0.3,0.3c0.2,0,0.5,0.2,0.9,0.3c0.2,0,0,0-0.2-0.2l0.9,0.3
		c0.3,0.2,0.3,0.3,0,0.2c1.9,1,11.3,5.8,13.4,6.8c-0.2-0.2-0.9-0.5-1-0.9c0.7,0.2,0.9,0.5,1,0.5c0.2,0.3,1.2,0.7,1.5,1.2h0.2
		l0.2,0.2c2.6,1,0.5,0.2,2.7,1.4c1.1,0.6,1.8,0.7,2.4,1.1c-0.1-0.1,0-0.2,0.2-0.1c0,0.2,0.9,0.3,1,0.5c0.3,0.2,1.4,0.7,1,0.3
		c0.2,0.2,1,0.7,0.5,0.5c0.3,0.2,0.5,0.3,0.8,0.3c0.8,0.4,1.3,0.7,2.1,0.9l-0.3-0.3c0.7,0.3,1.2,0.5,1.4,0.9
		c0.3,0.2,0.6,0.3,0.9,0.4c0.6-1.7,1.4-3.4,2.3-5c-3.1-1.5-6.2-3-8.3-4c-0.7-0.5-1.5-0.9-2.2-1.4c0.3,0.2,0.2,0.3-0.2,0.2
		c-2.2-1-0.2,0-2.4-1c-2.6-1.2-12.3-6.2-14.6-7.3c-1.4-0.5-2.7-1.4-3.9-1.7h0.2c-1.4-0.5-8.4-4.3-9.9-5l0.2,0.2
		c-1.4-0.5-1-0.7-2.1-1.2c0,0.2-1.2-0.2-1.5-0.3c-0.7-0.3-2.2-0.9-3.3-1.4h0.2c-0.9-0.3-2.6-1.2-3.3-1.5c-1.4-0.7-3.6-2.1-5.5-2.9
		l-1-0.9H255z"/>
	<line class="st2" x1="208.8" y1="157" x2="208.8" y2="157.2"/>
	<path class="st1" d="M203.8,133C203.8,133,203.8,132.9,203.8,133C203.7,132.9,203.7,133,203.8,133z"/>
	<path class="st1" d="M204.1,100.1c-0.3,0-0.6,0-1-0.1c0,2.9-0.1,5.8-0.1,6.9c0.2-0.3,0-1,0.2-1.4c0.2,0.7,0,0.9,0,1.2
		c-0.3,0.2,0,1.4-0.3,1.9l0.2,0.2l-0.2,0.3c0.2,2.7,0,0.7,0,3.1c0,1.4,0.2,2.1,0.2,2.9c0-0.2,0.2-0.3,0.2,0c-0.2,0,0.2,1,0,1.2
		c0,0.3,0,1.5,0.2,1.2c-0.2,0.2-0.2,1.2-0.2,0.7c0,0.1,0,0.2,0,0.3c0,1.2-0.2,1.9,0,2.5c0,0.5,0,0.9-0.2,1c0,0.8,0,1.4,0.2,2.2V124
		c0.2,1.2,0.3,7.7,0.5,8.9l0.2-0.5l0.2,1c0-0.1-0.3-0.3-0.3-0.4c0,2.2,0.2,12.9,0,14.8c0,0.9-0.2,0.2-0.2,0.2c0,1,0.2,0.3,0.2,1.2
		c0,0.2-0.2,0-0.2-0.2c0,0.3,0,0.7,0,0.7c0-0.5,0.2-0.2,0.3-0.5v1h-0.2c0,0.2,0.3,0.5,0.2,1.5c0,1.7,0,3.6,0,5.3
		c0,0-0.2-0.3-0.2-0.7c0,0.2,0,0.5,0,0.9c0.2-0.3,0,0.7,0.2,0.3c0.3,1,0.1,2.5,0.1,3.6c0,0.2,0,0.3,0,0.5c0.2,0.2,4.3,2.4,4.6,2.4
		c0,0.3,0,0.7,0,0.9c0-0.2,0.1-0.8,0-1.1c0-0.5,0.1-1,0-1.1c0-0.5,0.2,0,0.2-0.7c0-0.3,0-0.5-0.1-0.8c0-0.3-0.1-0.6-0.1-0.9
		c0.2-1.4-0.2-2.1,0-3.2c0-0.5,0-1.3,0-1.9c0,0.2-0.2,0.3-0.2,0c0-0.9,0-1.5,0.2-2.2l-0.2-0.7c0-3.1-0.2-15.5-0.2-18.6v0.2
		c0-4.8,0-14.7-0.2-19.5c0.2-0.7,0.2-1.9,0.2-2.6c0,0.5-0.2,0.3-0.2,0c0-2.4-0.2-0.2-0.2-2.6c-0.1-1.6-0.1-5.4,0-9
		C206.7,100.3,205.3,100.3,204.1,100.1z M208.6,163.7c0-0.9,0.2-0.2,0-1c0.1,0,0.2,0.5,0.2,1H208.6z"/>
	<path class="st1" d="M203.1,122.2C203.1,122.2,203.1,122.2,203.1,122.2c0-0.2,0-0.4,0-0.7V122.2z"/>
	<path class="st1" d="M203.6,261.9c0-0.3,0.2-0.7,0.2-1.4C203.6,260.9,203.6,261.4,203.6,261.9z"/>
	<path class="st2" d="M203.1,278.2c0,0,0-0.1,0-0.2"/>
	<path class="st2" d="M203.3,263.5C203.3,263.5,203.3,263.5,203.3,263.5c0-0.1,0-0.2,0-0.2"/>
	<path class="st1" d="M203.1,323.8v0.1c0,0,0,0,0,0C203.1,323.9,203.1,323.8,203.1,323.8z"/>
	<path class="st1" d="M208.4,323.7c0-2.7-0.1-5.3-0.1-7.1c0.2-0.7,0.2-1.9,0.2-2.6c0,0.5-0.2,0.3-0.2,0c0-2.4-0.2-0.2-0.2-2.6
		c-0.2-2.9,0-13.7,0.2-16.2c-0.2-1.4,0-3.1-0.2-4.4c0-1.7,0.2-9.3,0-10.9v0.2c-0.2-1.4,0.2-1.2,0.2-2.4c-0.2,0.2-0.3-1-0.3-1.5
		c0-0.7-0.2-2.4-0.2-3.4h0.2c-0.2-1,0-2.7,0-3.6c0-1.5,0.2-4.1,0.2-6.2l0.3-1.4v-0.2c0,0-3.9-2.2-4.8,0.7h-0.2v0.5
		c0,0.7-0.2,0.2-0.2,0c0,0.3,0,0.4,0,0.7c0,0.3,0.2,0.9,0.2,1.4c0,0.7-0.2,0-0.2,0.9c-0.2,4.3-0.2,8.4-0.2,12.6c0,0,0,0.1,0,0.1
		c0,1.2,0,2.2,0,3.3c0,0.3-0.2,0.3-0.2,0.5c0.3-0.7,0.3,6,0.3,6h0.2c0,1.2-0.2,0.3-0.2,1.5c0.3,0.5,0,1.9,0.2,2.4c0,0,0,0.5-0.2,0.5
		c0.2,0.2,0,0.5,0,1c0,0.2,0-0.2,0.2-0.2v0.9c0,0.3-0.2,0.3-0.2,0c0,2.2-0.2,12.6-0.2,15c0.2-0.3,0-1,0.2-1.4c0.2,0.7,0,0.9,0,1.2
		c-0.3,0.2,0,1.4-0.3,1.9l0.2,0.2l-0.2,0.3c0.2,2.7,0,0.7,0,3.1c0,1.4,0.2,2,0.2,2.9c0-0.2,0.2-0.3,0.2,0c-0.2,0,0.2,1,0,1.2
		c0,0.3,0,1.5,0.2,1.2c-0.2,0.2-0.2,1.2-0.2,0.7c0,0.1,0,0.2,0,0.3c0,1.2-0.2,1.9,0,2.5c0,0.2,0,0.3,0,0.5
		C204.9,323.7,206.6,323.7,208.4,323.7z"/>
	<path class="st1" d="M157.3,213.3c0.1-0.1,0.2-0.1,0.4-0.2c-0.1,0-0.2,0-0.4,0.1c0,0-0.1,0-0.2,0.1
		C157.2,213.2,157.2,213.3,157.3,213.3C157.3,213.3,157.3,213.3,157.3,213.3z"/>
	<path class="st1" d="M154.4,213.6C154.4,213.6,154.4,213.6,154.4,213.6c0.1,0,0.1,0,0.2-0.1L154.4,213.6z"/>
	<path class="st1" d="M158.5,217c0,0,0.2-2.8-1.2-3.7c0,0,0,0,0,0c0,0-0.1-0.1-0.1-0.1c-0.4-0.2-0.8-0.2-1.4-0.2v-0.2l-0.5,0.3
		c-0.3,0.1-0.3,0.2-0.3,0.1l0.3-0.1c-0.1,0-0.2,0.1-0.3,0.1c0.1-0.1,0.2-0.2,0.3-0.3c-0.3,0.2-0.5,0.2-0.7,0.3c-0.2,0.2,0.2,0,0.2,0
		c-0.1,0-0.1,0.1-0.2,0.1l0.2-0.1c-0.2,0.1-0.3,0.2-0.3,0.2c-0.2,0.2-0.5,0.4-0.9,0.5c-0.7,0.3-0.2-0.2-0.9,0.2
		c-3.9,1.9-7.7,3.6-11.5,5.5c-0.2,0,0,0,0.2-0.2c-1.2,0.7-2.2,1.2-3.3,1.7c-0.3,0.2-0.5,0-0.5,0c1.2,0.5-4.8,3.6-5,3.6v0.2
		c-1.2,0.5-0.5,0-1.5,0.5c-0.3,0.5-1.7,0.9-2.1,1.2l-0.5,0.2c-0.2,0.2-0.5,0.3-0.9,0.5c-0.2,0.2,0.2,0,0.2,0l-0.7,0.3
		c-0.3,0.2-0.5,0-0.2-0.2c-2.1,0.9-11.5,5.5-13.5,6.5c0.3,0,0.9-0.3,1.2-0.3c-0.5,0.3-0.9,0.3-1,0.5c-0.3-0.2-1.2,0.5-1.9,0.5
		l-0.2,0.2h-0.3c-2.4,1.4-0.5,0.3-2.7,1.4c-1.2,0.7-1.7,1.2-2.6,1.4c0.2,0,0.3-0.2,0.2,0.2c-0.2-0.2-0.9,0.5-1,0.5
		c-0.3,0.2-1.4,0.7-0.9,0.7c-0.2,0-1.2,0.3-0.7,0c-0.3,0.2-0.7,0.3-0.9,0.3l0.3-0.2c-0.6,0.3-1.1,0.5-1.5,0.7
		c0.1,0.2,0.2,0.4,0.3,0.6c0.5,1,1.2,2.2,1.7,3.8c0,0.1,0.1,0.2,0.1,0.3c2.1-1.1,4.1-2.1,5.6-2.9c0.7-0.2,1.7-0.7,2.4-1
		c-0.3,0.2-0.3,0,0-0.2c2.2-1,0.2-0.2,2.2-1.4c2.6-1.4,12.3-6,14.6-7c1.2-0.7,2.7-1.4,3.8-2l-0.2,0.2c1.2-0.7,8.6-4.1,9.9-5h-0.2
		c1.2-0.7,1.2-0.5,2.2-0.9c-0.2-0.2,0.9-0.9,1.2-1c0.7-0.3,2.1-1.2,3.1-1.7v0.2c0.9-0.5,2.6-1.4,3.1-1.7c1.5-0.7,3.8-1.5,5.7-2.7
		l0.8-0.2l0.6-0.1L158.5,217z"/>
	<path class="st1" d="M385.8,261.6c0,0,0-0.1,0-0.1c0-0.8,0-1.6,0-2.9C385.6,259.2,385.8,260.4,385.8,261.6z"/>
	<path class="st1" d="M390.9,255.6l0.1,0.5C390.9,255.9,390.9,255.8,390.9,255.6z"/>
	<path class="st1" d="M390.9,255.6l-0.1-0.5C390.8,255.3,390.8,255.4,390.9,255.6z"/>
	<path class="st1" d="M309.9,248.9c-1.2,3.9-1.7,7.7-1.9,10.8c-0.3,1.9,0,4.4,0,6.5c0-1,0.2-0.7,0.2,0.2c0.5,2.9,0.5,3.1,0.5,3.1
		c0.2,0.2,0,0.2,0.9,3.1c0.9,3.2,3.9,11.3,9.8,17.3c5.5,6.3,13.2,9.7,16.1,10.8c3.1,1,7.2,1.9,10.5,2.2h-0.3
		c0.9,0.2,2.7,0.2,5.1,0.2c1.2,0,2.6-0.2,3.9-0.2c1.4-0.2,2.7-0.5,4.3-0.7c1.4-0.3,2.9-0.7,4.1-1.2c1.4-0.5,2.6-1,3.8-1.4
		c2.2-1,3.9-2.1,4.8-2.6l-0.5,0.3c2.9-1.9,2.6-1.5,4.8-3.2c-0.2,0,0.3-0.5,0.9-1c0.5-0.7,1.4-1.4,1.7-1.7c0.3-0.3,0.7-0.7,1.2-1.2
		c0.3-0.5,0.9-1,1.4-1.7c1-1.2,1.9-2.6,2.7-3.8v0.2c0.7-1,1.4-2.6,2.2-3.9c0.7-1.4,1.4-2.9,1.7-3.6c0.7-1.9,1.7-4.1,2.2-6.7
		c0.3-1.2,0.5-2.6,0.7-3.9c0.2-1.4,0.2-2.7,0.2-3.9c0-0.5,0.2-1.2,0.2-1.7v-1.7v-0.5c0,0-1-1.4-2.2-1.5c-0.2-0.1-0.4-0.1-0.6-0.1
		c-0.9,0-1.7,0.8-1.9,3.3l-0.2-0.2c0,0.3,0.2,0.9,0,1.2c-0.2,1.5-0.2,0.5-0.2-0.2c0,0.1,0,0.1,0,0.1c0,0.6,0,1.1-0.2,1.6
		c0,0.3,0-0.2,0.2-0.5c0,0.2,0,0.5,0,0.7l0.1-0.8c0,0.7,0,1-0.1,1.1c0,0.6,0.1,1.3,0,1.9c-0.2,1.5-0.2,0-0.5,1.7
		c-1.5,9.1-6.3,17.1-13.5,22.7c-0.2,0.2,0,0,0.2-0.2c-0.5,0.5-1,0.9-1.5,1.2c-0.5,0.3-1,0.7-1.5,1c-0.5,0.3-1,0.7-1.5,1
		c-0.5,0.3-1,0.5-1.7,0.9c-0.7,0.3-0.9,0.3-1,0.3c0.2,0-0.7,0.3-1.9,0.9c-0.5,0.2-1.4,0.5-2.1,0.9c-0.9,0.2-1.7,0.5-2.6,0.7
		c-0.9,0.3-1.7,0.3-2.6,0.5c-0.9,0.2-1.5,0.3-2.2,0.3c-1.5,0.3-2.4,0.5-2.6,0.5l-0.2,0.2c-2.7,0.2-0.9-0.2-3.3-0.2c-0.2,0-0.7,0-1,0
		c-0.5,0-1-0.2-1.5-0.2c-1-0.2-2.1-0.3-2.4-0.3c0,0-1.2-0.3-1-0.3c-0.3,0-1.2-0.3-2.1-0.3c-0.1,0-0.1,0-0.1,0
		c-0.4-0.1-0.9-0.2-1.3-0.4c-0.7-0.3-0.9-0.3,0-0.2c-0.5-0.2-1.4-0.5-2.4-0.9c-1-0.5-2.2-1-3.4-1.7c-2.4-1.4-5.3-3.4-7.7-5.6
		c-2.4-2.4-4.6-5-6-7.5c-1.5-2.4-2.4-4.6-2.7-5.8c0.2,0.7,0.7,2,0.9,2.6c-0.7-1.2-0.7-1.9-1-2.4c0-0.3-0.2-1-0.5-1.7
		c-0.2-0.7-0.3-1.5-0.3-2l-0.2-0.3v-0.7c-0.7-2.9-0.7-3.2-0.7-3.4c0-0.2-0.2-0.3-0.2-2.9c-0.2-1.5-0.2-2.6-0.2-3.6
		c0-0.8,0-1.6,0.1-2.3c-0.1,0.2-0.1,0.4-0.1-0.1c0.2-0.2,0.2-2.1,0.3-2.4c0.2-0.7,0.7-3.1,0.3-2.4c0.2-0.3,0.9-2.6,0.5-1.2
		c0.2-0.7,0.5-1.4,0.7-1.9l-0.3,0.9c0.3-1.2,0.7-2,1-2.9c0.3-0.9,0.7-1.5,1-2.2l-0.5,0.9c0.5-1.4,1.2-2.6,1.7-2.9l-0.7,1.4
		c0.7-1,1.2-1.9,1.5-2.7c0.5-0.9,1-1.5,1.5-2.4l-0.5,0.7c0.7-1.2,3.3-4.4,6.3-7.2c0.9-0.7,1.5-1.4,2.4-1.9s1.5-1,2.4-1.5
		c1.5-0.9,2.7-1.5,3.3-1.9l-1,0.3c0.7-0.3,1.2-0.7,1.9-1c-0.1,0.1-0.6,0.6-0.8,0.8c0.5-0.3,1.3-0.5,2.2-0.9c0.5-0.2,1-0.5,1.7-0.7
		c0.7-0.2,1.4-0.3,2.1-0.5c1.4-0.5,3.1-0.7,4.6-0.9c0.9-0.2,1.7-0.2,2.6-0.2s1.7-0.2,2.6,0c3.6,0,7,0.7,9.8,1.4
		c1.4,0.5,2.6,0.9,3.6,1.2c1,0.5,1.7,0.9,2.2,1c1.5,0.9,0.2,0.3,0.2,0.3c1.9,0.9,0.9,0.3,2.4,1.2c0.3,0.3-0.2,0-0.3,0
		c0.7,0.3,1.2,0.7,1.4,0.7c-0.9-0.5-0.3-0.5-0.7-0.9c0.7,0.3,1.4,0.7,1.9,1.2h-0.2c0.3,0.3,1.2,0.5,2.9,1.9c2.9,2.4,5.7,5.5,7.7,8.7
		c-0.2,0-0.5-0.7-1-1.4c0.3,0.5,0.7,1,0.9,1.5c-0.3-0.9,0.9,1.4,0.5,0.7c0.9,1,1.5,2.6,2.2,3.9c0.5,1.4,1,2.7,1.5,3.9
		c0.1,0,0.9,0.6,1.9,1.3c0.3,0.2,0.7,0.5,1,0.7c1.4,1,2.6,2.4,2.7,2.2c0.2,0.9,0.3,1.7,0.3,1.9c0-0.2-0.2-1.9-0.3-2.7l-0.2-0.2
		c-0.3-2.1,0-0.5-0.5-2.4c0,0,0.2,0.3,0.3,1c0.2,0.7,0.3,1.5,0.5,2.2c-0.2-0.7-0.2-1.5-0.3-2c-0.2-0.7-0.3-1-0.5-1.4
		c-0.3-1.4,0.2,0.2-0.2-1.5c-0.3-1.2-1-2.6-1.4-3.9c-0.5-1.5-1.2-2.7-1.7-3.8c-0.5-1-1.2-2-2.1-3.4l0.2,0.2
		c-0.3-0.5-0.7-1.2-1.2-1.9c-0.5-0.7-1.2-1.5-1.7-2.2c0.3,0.5,0.5,0.9-0.2,0c-0.7-0.9-1.4-1.5-1.9-2.2c-0.7-0.7-1-1.2-1.7-1.7
		l-1.2-0.9c-0.3-0.3-0.9-0.7-1.4-1.2c-0.5-0.3-1.2-0.9-1.7-1.2c-1.2-1-2.9-1.9-4.6-2.9c-3.6-1.9-8.2-3.6-12.9-4.3
		c-4.8-0.9-9.6-0.7-13.5,0c-1,0.2-1.9,0.3-2.9,0.5c-0.9,0.2-1.7,0.5-2.4,0.7c-1.5,0.3-2.7,1-3.6,1.4l0.3-0.2c-2.7,1-6,2.7-9.4,5.1
		c-3.4,2.4-6.5,5.6-9.3,9.4c-1,1.4-2,2.9-2.8,4.5c-0.9,1.6-1.7,3.3-2.3,5C310.3,247.4,310.1,248.2,309.9,248.9z"/>
	<path class="st1" d="M313.4,257.9c0-0.1,0-0.2,0-0.2C313.5,257.7,313.5,257.8,313.4,257.9z"/>
	<path class="st1" d="M385.8,263.6c0-0.1,0-0.2,0-0.3L385.8,263.6C385.8,263.6,385.8,263.6,385.8,263.6z"/>
	<path class="st1" d="M334.4,228.2c-0.1,0-0.1,0.1-0.2,0.1C334.3,228.3,334.3,228.2,334.4,228.2z"/>
	<path class="st1" d="M307,216.1l-1,0.9l8.1,9.9l1-0.9c0.5-0.5,1.4-1,2.2-1.7c3.1-2.6,3.4-6,0.7-9.4c-2.4-3.1-5.5-3.6-8.7-0.9
		C308.2,214.9,307.5,215.6,307,216.1z M310.2,215.8c1.9-1.5,3.6-1.4,5.7,1.2c1.9,2.4,1.7,4.3,0.2,5.6c-0.5,0.3-1,0.9-1.4,0.9
		l-5.5-6.7C309.4,216.5,309.9,216.1,310.2,215.8z"/>
	<polygon class="st1" points="319.1,211.4 323.8,219.7 326,218.5 321.4,210.2 	"/>
	<path class="st1" d="M317.6,209c0.3,0.7,1.2,0.9,2.1,0.5c0.9-0.5,1-1.5,0.7-2.2c-0.5-0.7-1.2-1-2.1-0.5
		C317.6,207.3,317.2,208.3,317.6,209z"/>
	<path class="st1" d="M328.7,208.4c0.7-0.3,1.7-0.3,2.2-0.2l-0.5-1.9c-0.5,0-1.5,0-2.7,0.5c-2.1,0.9-3.3,2.2-2.6,3.9
		c0.5,1.4,1.4,2,3.3,1.9c1.4-0.2,2.2,0,2.4,0.5c0.3,0.7,0,1-1,1.4c-1,0.5-2.4,0.5-2.7,0.3l0.5,1.7c0.7,0.2,2.1,0,3.4-0.5
		c2.1-0.9,3.1-2.2,2.4-4.1c-0.5-1.4-1.5-1.9-3.6-1.7c-1.5,0.2-2.1,0-2.2-0.5C327.4,209.3,327.7,208.8,328.7,208.4z"/>
	<path class="st1" d="M337.8,204c-2.9,0.7-3.9,2.9-3.6,5.6c0.7,3.1,2.6,4.4,5.5,3.9c1.4-0.3,2.7-1,3.3-1.7l-0.7-1.4
		c-0.3,0.3-1.5,0.9-2.2,1c-1.4,0.3-2.4-0.2-2.9-1.7l5.5-1.2c-0.2-0.3-0.2-1-0.3-1.7C341.8,204.2,339.7,203.7,337.8,204z M340,207.8
		l-3.3,0.7c-0.2-1.7,0.5-2.4,1.4-2.6C339.4,205.7,339.9,206.4,340,207.8z"/>
	<path class="st1" d="M352.7,198.5c-0.3,0.3-0.9,0.9-1.4,0.9c-0.9,0-1-1-2.4-1c-1.4,0-2.2,0.9-2.6,1.9l0.9,0.9
		c0.3-0.3,0.9-0.9,1.4-0.9c1,0,1.2,1,2.6,1c1.4,0,2.2-0.9,2.6-1.9L352.7,198.5z"/>
	<path class="st1" d="M353.6,212.5v-6c0-2.9-0.9-3.8-2.9-3.8c-1.2,0-2.4,0.7-3.1,1.2v-1h-2.4v9.6h2.6v-6.8c0.5-0.5,1.4-0.7,1.9-0.7
		c1,0,1.4,0.5,1.4,2.1v5.5H353.6z"/>
	<path class="st1" d="M361.8,204.2c-2.6-0.5-5,0.7-5.7,3.6c-0.5,2.7,0.2,5.3,3.4,6c2.7,0.5,5-0.7,5.7-3.6
		C365.8,207.4,365.1,204.9,361.8,204.2z M362.7,209.5c-0.5,1.9-1.2,2.7-2.6,2.6c-1.4-0.3-1.5-1.9-1.2-3.6c0.3-1.7,1.2-2.7,2.6-2.4
		C362.8,206.4,363,207.9,362.7,209.5z"/>
	<path class="st1" d="M379.1,210.7c-2.4-1.4-5.1-0.5-6.7,2.2c-1.5,2.6-0.7,4.8,1,5.8c1.2,0.7,2.4,0.5,2.9,0.3l-0.3,0.5
		c-0.2,0.3,0,0.5,0.3,0.7l1.5,0.9l6.9-12.1l-2.2-1.2l-1.9,3.2l-0.3,0.7C380.1,211.4,379.6,211,379.1,210.7z M376.9,217.7
		c-0.3,0.2-1.2,0-1.9-0.5c-0.9-0.5-1.2-1.4-0.2-3.2c1-1.9,2.4-2.4,3.4-1.7c0.5,0.3,1,0.7,1.2,1L376.9,217.7z"/>
	<path class="st1" d="M388.4,224.3c0.3-0.3,0.7-0.9,1.2-1.4c1.9-2,1.2-4.1-0.3-5.3c-2.2-1.9-4.8-1.4-6.7,0.7
		c-2.1,2.4-2.1,4.8,0.2,6.7c1,0.9,2.4,1.5,3.3,1.5l0.7-1.4c-0.7,0-1.7-0.7-2.2-1.2c-1-1-1.4-2-0.3-3.4L388.4,224.3z M387.9,219.2
		c0.9,0.7,0.7,1.5-0.3,2.6l-2.6-2C386.3,218.5,387.2,218.5,387.9,219.2z"/>
	<path class="st1" d="M393.7,229.8c-2.6,1.7-3.3,4.1-1.7,6.5c0.9,1.2,2.1,2.2,2.7,2.4l1-1.2c-0.5-0.3-1.4-1.4-1.7-1.9
		c-0.7-1.2-0.7-2.4,0.7-3.4l3.1,4.8c0.3-0.2,0.9-0.5,1.5-0.9c2.4-1.4,2.2-3.4,1.2-5.1C398.8,228.4,396.3,228.3,393.7,229.8z
		 M397.8,234.2l-1.9-2.7c1.5-0.7,2.4-0.5,2.9,0.3C399.5,232.9,399,233.6,397.8,234.2z"/>
	<polygon class="st1" points="404.5,239 403.5,236.3 400.4,241.1 394.5,239.9 395.6,242.6 398.7,243.1 399.2,243.1 398.8,243.5 
		396.9,246 398,248.8 401.2,243.8 406.9,245.2 405.9,242.4 402.9,241.9 402.4,241.9 402.8,241.4 	"/>
	<path class="st1" d="M407.7,248.1l-13.5,2.4l0.5,2.6l3.1-0.5h1.2c-0.2,0.3-0.2,0.9,0,1.5c0.5,2.7,2.9,4.3,6,3.8
		c3.1-0.7,4.1-2.6,3.8-4.6c-0.2-1.5-1-2.2-1.5-2.6l1-0.2L407.7,248.1z M404.5,255.1c-2.1,0.3-3.4-0.3-3.6-1.5
		c-0.2-0.7-0.2-1.2,0.2-1.7l5-0.9c0.3,0.3,0.7,1,0.9,1.7C407.1,253.9,406.7,254.8,404.5,255.1z"/>
	<path class="st1" d="M405,259.5c-3.1,0-5,1.5-5,4.4c0,1.5,0.3,2.9,0.9,3.6l1.5-0.3c-0.3-0.5-0.5-1.7-0.5-2.4c0-1.5,0.9-2.6,2.4-2.6
		l-0.2,5.6c0.3,0.2,1,0.2,1.7,0.2c2.7,0,3.8-1.7,3.8-3.8C409.6,261.4,407.7,259.7,405,259.5z M405.5,265.7v-3.2
		c1.7,0.2,2.2,0.9,2.2,1.9C407.7,265.5,406.9,265.9,405.5,265.7z"/>
	<path class="st1" d="M408.9,271.3l-9.4-1.9L399,272l6.3,1.2c0.3,0.5,0.7,1.2,0.5,2.2c-0.2,0.7-0.3,0.9-0.5,1l2.4,0.5
		c0-0.2,0.2-0.3,0.2-0.7c0.3-1.2-0.2-2.4-0.9-2.9l1.4,0.2L408.9,271.3z"/>
	<polygon class="st1" points="407.1,279.7 398,276.8 397.1,279.4 406.2,282.3 	"/>
	<path class="st1" d="M409.8,280.4c-0.7-0.2-1.5,0.2-1.9,1c-0.2,0.9,0.2,1.7,1,2c0.9,0.2,1.5-0.2,1.9-1
		C411,281.6,410.7,280.7,409.8,280.4z"/>
	<path class="st1" d="M398.5,291.1c2.4,1.2,4.1,0,5-1.7c1.2-2.7,0.2-5.1-2.6-6.5c-2.7-1.4-5.1-0.7-6.3,1.9c-0.7,1.4-0.9,2.7-0.7,3.6
		l1.5,0.3c0-0.5,0.3-1.7,0.7-2.4c0.7-1.2,1.7-1.9,3.3-1.2l-2.4,5.1C397.3,290.5,397.8,290.8,398.5,291.1z M400.5,286
		c1.4,0.9,1.5,1.7,1.2,2.6c-0.5,1-1.4,1-2.6,0.3L400.5,286z"/>
	<path class="st1" d="M395.9,296.4c0.2,0.7-0.2,1.5-0.5,1.9c-0.7,0.9-1.4,0.9-2.6-0.2l-4.3-3.2l-1.5,2l4.8,3.6
		c2.2,1.7,3.6,1.5,4.8-0.2c0.7-1,1-2.4,1-3.2l0.9,0.5l1.4-1.9l-7.7-5.5l-1.5,2.1L395.9,296.4z"/>
	<path class="st1" d="M389.2,301.2c-1.9-1.9-4.3-2.6-6.5-0.5c-0.9,0.9-1.5,1.9-1.5,2.7l1.4,0.9c0-0.5,0.5-1.2,1.2-1.7
		c1-0.9,2.4-0.9,3.8,0.7c1.2,1.5,0.7,2.9-0.2,3.6c-0.7,0.7-1.2,0.9-1.7,1l1,1.7c0.5-0.2,1.4-0.5,2.2-1.4
		C391.3,306,390.9,303.4,389.2,301.2z"/>
	<path class="st1" d="M383.6,315.6c0.5,0.7,1.4,0.9,2.1,0.3c0.7-0.5,1-1.5,0.5-2.2c-0.3-0.7-1.2-0.9-2.1-0.3
		C383.4,313.9,383.1,314.9,383.6,315.6z"/>
	<polygon class="st1" points="384.4,311.5 379.1,303.6 376.9,305.2 382.2,313 	"/>
	<path class="st1" d="M375.7,316.9c1.4-0.7,2.7-2,3.1-2.6l-1.2-1.2c-0.5,0.7-1.5,1.5-2.1,1.7c-1.4,0.7-1.7,0.5-2.2-0.3L373,314
		c1.2-0.5,2.6-1.4,3.3-2.2c0.7-0.9,1-1.9,0.3-2.7c-0.7-1.5-2.4-2.2-4.1-1.4c-1,0.5-1.7,1.2-1.9,1.9c-0.3-0.7-0.7-0.7-1.2-0.3
		l-1.4,0.7l2.7,5.6C371.9,318,373.3,318.1,375.7,316.9z M372.4,309.4c0.7-0.3,1.4-0.2,1.9,0.7c0.2,0.7,0,1-0.3,1.4
		c-0.2,0.3-1,0.9-1.5,1.2l-1-2.1C371.4,310.3,371.9,309.6,372.4,309.4z"/>
	<path class="st1" d="M362.3,316.3c-0.5-3.1-2.4-4.3-4.5-3.9c-1.5,0.2-2.2,1-2.6,1.5l-0.2-0.7c0-0.3-0.3-0.3-0.7-0.3l-1.7,0.3
		l2.1,13.8l2.6-0.3l-0.5-3.6l-0.2-0.9c0.3,0,0.9,0.2,1.5,0C361.1,321.7,362.8,319.5,362.3,316.3z M357.9,320.4
		c-0.7,0.2-1.2,0.2-1.5,0l-0.7-5.1c0.3-0.3,1-0.7,1.7-0.7c1-0.2,1.9,0.3,2.2,2.4C359.9,319,359.1,320.2,357.9,320.4z"/>
	<path class="st1" d="M346,322.8c2.9,0.2,4.8-1.9,5-4.6c0.2-3.1-1.4-5-4.3-5.1c-1.5,0-2.9,0.3-3.6,0.9l0.3,1.5
		c0.5-0.2,1.7-0.3,2.4-0.3c1.4,0,2.4,0.7,2.4,2.4l-5.7-0.3c0,0.3-0.2,1-0.2,1.7C342.3,321.6,344,322.8,346,322.8z M345,318.7
		l3.3,0.2c-0.2,1.5-0.9,2.1-1.9,2.1C345.2,320.9,344.8,320,345,318.7z"/>
	<path class="st1" d="M333.2,310.5c-0.9-0.3-2.1-0.3-2.9-0.2l0.2-0.3c0-0.3-0.2-0.5-0.5-0.7l-1.5-0.5l-3.3,9.1l2.4,0.9l2.4-6.7
		c0.3-0.2,1.2-0.2,1.7,0c1,0.3,1.4,0.9,0.7,2.6l-1.9,5.1l2.4,0.9l1.9-5.1C335.6,313,335.8,311.3,333.2,310.5z"/>
	<path class="st1" d="M326.2,308.7c-0.2-0.7-1.2-1.7-2.4-2.4c-1.9-1.2-3.6-1.2-4.6,0.5c-0.7,1.2-0.5,2.2,0.9,3.8
		c0.9,1,1.2,1.5,0.9,2.1c-0.2,0.5-0.7,0.3-1.7-0.2c-0.7-0.5-1.4-1.2-1.5-1.7l-1.2,1.5c0.2,0.3,0.9,1.2,2.1,1.9
		c1.9,1.2,3.8,1.2,4.6-0.3c0.7-1.2,0.7-2.4-0.5-3.8c-0.9-1-1.4-1.7-1-2.2c0.3-0.5,0.9-0.5,1.7,0c1,0.7,1.7,1.7,1.9,2.1L326.2,308.7z
		"/>
	<path class="st1" d="M317.1,301.4c-0.7-0.7-1.9-1-2.7-1.2l0.3-0.3c0.2-0.3,0.2-0.5-0.2-0.9l-1.4-1.2l-6.3,7.2l1.9,1.7l4.8-5.3
		c0.3,0,1,0.3,1.5,0.7c0.7,0.7,0.9,1.2-0.3,2.6l-3.6,4.1l1.9,1.7l3.8-3.9C318.3,304.6,319.1,303.3,317.1,301.4z"/>
	<path class="st1" d="M303.4,296.1l0.5-0.3c0.7,1,1.7,2.2,2.7,2.7c1,0.7,2.1,0.7,2.9,0c1.4-1,1.7-2.7,0.5-4.3
		c-0.7-0.9-1.5-1.2-2.2-1.4c0.7-0.5,0.5-0.9,0.2-1.4l-0.9-1.2L302,294c-2.2,1.5-2.1,3.1-0.5,5.1c0.9,1.2,2.4,2,3.1,2.4l1-1.5
		c-0.7-0.5-1.7-1.4-2.1-1.7C302.5,297.1,302.5,296.8,303.4,296.1z M306.8,293.5c0.3,0,1,0.3,1.4,0.9c0.5,0.7,0.5,1.4-0.3,1.9
		c-0.5,0.3-1,0.2-1.4,0c-0.5-0.2-1.2-0.9-1.5-1.4L306.8,293.5z"/>
	<path class="st1" d="M297.5,292.9l8.4-4.3l-1.2-2.2l-5.7,2.9c-0.5-0.2-1.2-0.7-1.7-1.5c-0.3-0.7-0.3-1-0.3-1.2l-2.2,1.2
		c0,0.2,0,0.3,0.2,0.7c0.5,1,1.7,1.7,2.6,1.7l-1,0.7L297.5,292.9z"/>
	<polygon class="st1" points="292.9,282.6 293.8,285 302.7,281.6 301.8,279.2 	"/>
	<path class="st1" d="M289.1,285.2c0.3,0.9,1.2,1.4,2.1,1c0.9-0.3,1-1.2,0.9-1.9c-0.3-0.9-1.2-1.4-2.1-1
		C289.1,283.6,288.8,284.3,289.1,285.2z"/>
	<path class="st1" d="M294.8,269.4c-2.7,0.5-4.8,2.2-4.1,5.5c0.5,2.6,2.4,4.3,5.5,3.6c2.7-0.5,4.8-2.2,4.1-5.5
		C299.8,270.5,297.9,268.9,294.8,269.4z M295.7,276.1c-1.9,0.3-2.9,0-3.3-1.4c-0.2-1.4,1.2-2.2,2.7-2.6c1.9-0.5,3.1-0.2,3.3,1.4
		C298.6,274.9,297.2,275.8,295.7,276.1z"/>
	<path class="st1" d="M367.6,281.9c0.1,0.2,0.2,0.4,0.2,0.5c0.1,0.1,0.2,0.2,0.4,0.4C368.1,282.6,367.8,282.2,367.6,281.9z"/>
	<path class="st1" d="M364.9,239.9c0.2-0.2,0.3-0.3,0.3-0.5C365.1,239.5,364.9,239.7,364.9,239.9z"/>
	<line class="st2" x1="329.4" y1="278" x2="329.4" y2="277"/>
	<path class="st1" d="M367.3,281.4h0.2l-0.5-0.7c-0.1-0.2-0.2-0.3-0.3-0.4c0,0,0.2,0.2,0.4,0.4c-0.2-0.3-0.5-0.7-0.7-0.9
		c-0.2-0.2,0,0.2,0.2,0.3c0,0,0,0,0,0c-0.2-0.3-0.4-0.4-0.5-0.5c-0.3-0.3-0.5-0.6-0.7-0.9c-0.7-0.9,0-0.2-0.7-1
		c-3.8-4.8-7.5-9.4-11.5-14.2c0,0,0,0,0,0c-0.6-0.7-1.1-1.3-1.6-1.9c0.6-0.7,1-1.2,1.3-1.5c0.7-0.9,0.2,0,0.2,0c0.9-1,0.3-0.5,1-1.4
		c0.2-0.2,0,0.2,0,0.2c0.3-0.3,0.7-0.7,0.7-0.9c-0.5,0.5-0.3,0.2-0.5,0.3l1-1.2v0.2c0.2-0.3,0.3-0.9,1.4-1.9
		c1.4-1.7,2.9-3.5,4.3-5.3c-0.1,0.1-0.1,0.1-0.2,0.2c0.2-0.3,0.5-0.7,0.7-0.9c-0.5,0.3,0.7-0.9,0.3-0.5c1-1.5,2.6-3.2,3.6-4.6
		c0-0.2,0-4.4-0.2-4.6c0.3-0.3,0.7-0.7,0.7-0.9c-0.2,0-0.7,0.9-1,1.2v0.2c-0.7,1-0.2,0.2-1,1c-0.5,0.7,0-0.2-0.7,0.5
		c-0.3,0.5-0.9,1.4-1.5,1.9c-1.4,1.4-1.7,2.4-2.9,3.8l0.2-0.2c-0.5,0.5-1.2,1.4-1.9,2.2c0.2-0.2,0.5-0.3,0,0.2
		c-0.9,1-1.4,1.7-2.1,2.4l-0.5,0.7c-0.9,1.1-2.7,3.4-4.9,6.1c-0.5-0.6-1.5-1.9-2.6-3.3c-1.9-1.7-3.4-3.6-3.6-3.6h-0.2
		c-1.2-1.4-0.2-0.5-1.4-1.9c-0.5-0.3-1.7-2.2-2.2-2.6c0,0-0.5-0.7-0.3-0.7c-0.2-0.2-0.5-0.7-0.9-1c-0.2-0.2,0,0.2,0.2,0.3l-0.9-0.9
		c-0.3-0.3-0.3-0.5,0-0.2c-0.7-0.9-2.1-2.4-3.6-4.4c-0.5-0.5-0.9-0.9-1.4-0.9c-0.5-0.2-0.7-0.2-1-0.2c-0.5,0-1.2,0.3-1.5,0.7
		c-0.3,0.2-0.5,0.5-0.7,1c-0.3,0.5-0.3,1.4-0.3,2.2v2.6c0,0.9,0,1.7,0,2.6c0,3.4,0,6.3,0,7.7c0-0.5,0-1.5,0.2-1.9c0,0.9,0,1.4,0,1.7
		c-0.2,0.3,0,1.9-0.2,2.6l0.2,0.2v0.5c0.2,3.9,0,0.9,0,4.4c0,2,0.2,2.9,0.2,4.1c0-0.2,0-0.7,0.2-0.2c-0.2,0.2,0,1.4,0,1.7
		c0,0.5,0,2.2,0.2,1.5c0,0.3-0.2,1.7-0.2,0.9c0,0.2,0,0.5,0,0.7c0,0.3,0,0.5,0,0.7c0,1,0,1.7,0,2.4c0,1,0,1.9-0.2,2.2
		c0,0.5,0,1,0,1.5c0,0.5,0,1.2,0,1.7c0,0.4,0,0.9,0.1,1.3c0-0.1-0.1-0.3-0.1-0.4c0,0.2,0.1,0.5,0.1,0.7c0,0,0,0.1,0,0.1c0,0,0,0,0,0
		c0.1,0.2,0.1,0.4,0.2,0.6c0.2,0.2,0.2,0.3,0.3,0.5c0.2,0.2,0.3,0.3,0.7,0.5c0.3,0.2,0.9,0.3,1.2,0.2c0.3,0,0.5-0.2,0.9-0.3
		c0.3-0.2,0.7-0.3,1-0.9c0.3-0.5,0.7-1,1.2-1.4c1-1.4,2.1-2.6,2.9-3.6c0.7-0.9,1.2-1.5,1.4-1.9l-0.5,0.5l0.9-1.2
		c-0.2,0.2-0.2,0.7-0.3,0.9c1.3-1.7,6.5-8.1,10.1-12.5c0.4,0.6,0.5,0.8,1.2,1.7c0-0.2,1.2,1,1.5,1.5c0.7,0.9,2.2,2.6,3.3,3.8h-0.2
		c1,1,2.6,3.1,3.3,3.9c1.4,1.9,3.6,4.6,5.7,7l1,1.7l0.2,0.2c0,0,3.3,0.7,2.4-1.7c-0.1-0.2-0.1-0.3-0.2-0.5
		C367.5,281.7,367.4,281.6,367.3,281.4z M337.6,273.7l0.2-0.2c-1,1.4-2.4,3.1-3.9,5c-0.2,0.2-0.2,0.3-0.3,0.5c0,0.2-0.2,0-0.2,0
		v-0.3c0-4.8,0-9.4-0.2-12.6c0-0.9,0-2.3,0.1-3.4c-0.1,0.1-0.1-0.1-0.1-0.4c0-3.4,0-0.2-0.2-3.8c0-1.7,0-5.1,0-9.1
		c0-1.4,0-2.7,0-4.1c0-0.2,0-0.5,0.2-0.5c0.2,0.2,0.2,0.3,0.3,0.3c0.2,0.2,0.2,0.3,0.3,0.3c0.3,0.5,0.7,0.9,0.9,1
		c1.4,1.4,2.7,3.4,4.1,4.8l-0.2-0.2c1.1,1.2,5.9,7.2,8.6,10.6C343.4,266.5,339.2,271.7,337.6,273.7z"/>
	<path class="st1" d="M333.3,262.6c0,0,0-0.2,0-0.4C333.3,262.4,333.3,262.5,333.3,262.6z"/>
	<path class="st1" d="M361.5,249.6c-0.2,0.2-0.3,0.4-0.5,0.7C361.2,250,361.5,249.6,361.5,249.6z"/>
	<path class="st1" d="M353.2,263.6c0.1,0.1,0.1,0.1,0.2,0.2C353.3,263.7,353.2,263.5,353.2,263.6z"/>
	<path class="st1" d="M363.9,241.4c0-0.3,0.7-0.9,1.2-1.5C364.4,240.6,363.7,241.4,363.9,241.4z"/>
	<path class="st1" d="M343.8,245.5c0.2,0.3,0,0.2,0,0.5c0.2,0.2,0.2,0.7,0.2,0.7v0.2c0.2,0,0,0.2,0.2,0.3l0.2,0.2c0,0.2,0,0.2-0.2,0
		c0.2,0.3,0.5,1.2,1.2,2c0.7,0.7,1.7,1.2,2.1,1.4c0-0.2-0.3-0.2-0.3-0.3c0.2,0,0.3,0.2,0.3,0.2c0,0.2,0.3,0.2,0.5,0.3v-0.2h0.2
		c1,0,0.2,0,1,0c0.5,0,0.7-0.2,1-0.3l0.3-0.2c0.2,0,0.5-0.2,0.3-0.3c0.2,0,0.3-0.2,0.2,0c0.2,0,0.2-0.2,0.3-0.2h-0.2
		c0.3-0.2,0.5-0.2,0.7-0.5h-0.2c0.2-0.2,0.3-0.3,0.5-0.2l-0.2,0.2c0.3-0.2,0.5-0.3,0.5-0.7c0.2-0.2,0.5-0.7,0.7-1.2
		c0.2-0.5,0.3-1,0.3-1.2l-0.2,0.2V246c0,0,0.1,0.1,0.2,0.1c0-0.2,0.2-0.5,0.2-0.8c0-0.3,0-0.9,0-1.2c0-0.7,0-1.4,0-1.5
		c0-0.2,0.2,0,0.2,0c0-0.2-0.2,0-0.2-0.2v-0.2c0,0-0.2-0.2-0.2-0.3c0-0.3,0-0.7,0-1.2c-0.2-0.3,0-0.7-0.2-0.9
		c-0.1,0-2.3-0.4-2.9-0.5c0,0.1,0,0,0,0.1c-0.1,0-0.1-0.1-0.2-0.2c0,0,0,0,0,0c0,0,0,0.1,0,0.2c0,0.2-0.2,0-0.2,0.2s0.2,0.2,0,0.3
		c-0.2,0.3,0.2,0.5,0,0.7c0,0.2,0,0.3,0,0.5c0,0,0-0.2,0.2,0c0,0.2,0,0.3,0,0.5v0.2c0,0.3,0,1.2,0,2.1c0,0.3,0,0.9,0,1s0,0.3,0,0.5
		c0,0.3-0.2,0.7-0.5,1c-0.3,0.3-0.5,0.5-0.9,0.5h-0.2v0.2c-0.2,0,0,0-0.3,0c-0.2,0-0.5-0.2-0.9-0.3c-0.3-0.3-0.5-0.7-0.5-0.9
		c-0.2-0.2-0.2-0.3-0.2-0.5c0-0.2,0-0.3,0-0.9c0-0.5,0-1,0-1.2c0-0.3,0-0.3,0.2-0.5c-0.2,0-0.2-0.2-0.2-0.3c0-0.2-0.2-0.5-0.2-0.7
		c0-0.2,0-0.5,0-0.7c0-0.3,0.2-0.9,0-1.4l0.2-0.3c0,0-2.6-0.5-3.3,0.2v0.2c0,0.2,0,0-0.2,0v0.2c0,0,0.2,0.2,0,0.3
		c0,0.2-0.2,0-0.2,0.2c0,0.9-0.2,1.7-0.2,2.7c0,0.3,0,0.3,0,0.7c0,0,0,0.2-0.2,0.2C343.8,244,343.8,245.4,343.8,245.5z"/>
	<path class="st1" d="M353.6,246.1C353.6,246.2,353.6,246.2,353.6,246.1C353.6,246.2,353.6,246.2,353.6,246.1z"/>
	<path class="st1" d="M353.8,240.7c0,0.2,0-0.2-0.2,0c0,0,0,0,0.2,0.2V240.7z"/>
	<path class="st1" d="M353.9,242.3c0,0.2-0.2,0-0.2,0.2c0,0,0,0,0.2,0V242.3z"/>
	<path class="st1" d="M350.3,239.2v0.2h0C350.3,239.3,350.3,239.3,350.3,239.2z"/>
	<path class="st1" d="M350.5,239.4C350.5,239.4,350.5,239.4,350.5,239.4l-0.2,0c0,0,0,0,0,0C350.4,239.4,350.4,239.4,350.5,239.4z"
		/>
	<path class="st1" d="M243,365.6c0,0,0-0.1,0-0.1c0-0.8,0-1.8,0-2.9C242.9,363.2,243,364.4,243,365.6z"/>
	<path class="st1" d="M248.1,359.7l-0.1-0.5C248,359.3,248,359.5,248.1,359.7z"/>
	<path class="st1" d="M248.1,359.7l0.1,0.5C248.2,360,248.1,359.8,248.1,359.7z"/>
	<path class="st1" d="M207.9,407c1.2,0,2.6-0.2,3.9-0.2c1.4-0.2,2.7-0.5,4.3-0.7c1.4-0.3,2.9-0.7,4.1-1.2c1.4-0.5,2.6-1,3.8-1.4
		c2.2-1,3.9-2,4.8-2.6l-0.5,0.3c2.9-1.9,2.6-1.5,4.8-3.2c-0.2,0,0.3-0.5,0.9-1c0.5-0.7,1.4-1.4,1.7-1.7c0.3-0.3,0.7-0.7,1.2-1.2
		c0.3-0.5,0.9-1,1.4-1.7c1-1.2,1.9-2.6,2.7-3.8v0.2c0.7-1,1.4-2.6,2.2-3.9c0.7-1.4,1.4-2.9,1.7-3.6c0.7-1.9,1.7-4.1,2.2-6.7
		c0.3-1.2,0.5-2.6,0.7-3.9c0.2-1.4,0.2-2.7,0.2-3.9c0-0.5,0.2-1.2,0.2-1.7v-1.7v-0.5c0,0-1-1.4-2.2-1.5c-0.2-0.1-0.4-0.1-0.6-0.1
		c-0.9,0-1.7,0.8-1.9,3.3l-0.2-0.2c0,0.3,0.2,0.9,0,1.2c-0.2,1.5-0.2,0.5-0.2-0.2c0,0.1,0,0.1,0,0.1c0,0.6,0,1.1-0.2,1.6
		c0,0.3,0-0.2,0.2-0.5c0,0.2,0,0.5,0,0.7l0.1-0.8c0,0.7,0,1-0.1,1.1c0,0.6,0.1,1.3,0,1.9c-0.2,1.5-0.2,0-0.5,1.7
		c-1.5,9.1-6.3,17.1-13.5,22.7c-0.2,0.2,0,0,0.2-0.2c-0.5,0.5-1,0.9-1.5,1.2c-0.5,0.3-1,0.7-1.5,1c-0.5,0.3-1,0.7-1.5,1
		c-0.5,0.3-1,0.5-1.7,0.9c-0.7,0.3-0.9,0.3-1,0.3c0.2,0-0.7,0.3-1.9,0.9c-0.5,0.2-1.4,0.5-2.1,0.9c-0.9,0.2-1.7,0.5-2.6,0.7
		c-0.9,0.3-1.7,0.3-2.6,0.5c-0.9,0.2-1.5,0.3-2.2,0.3c-1.5,0.3-2.4,0.5-2.6,0.5l-0.2,0.2c-2.7,0.2-0.9-0.2-3.3-0.2c-0.2,0-0.7,0-1,0
		c-0.5,0-1-0.2-1.5-0.2c-1-0.2-2.1-0.3-2.4-0.3c0,0-1.2-0.3-1-0.3c-0.3,0-1.2-0.3-2.1-0.3c-0.1,0-0.1,0-0.1,0
		c-0.4-0.1-0.9-0.2-1.3-0.4c-0.7-0.3-0.9-0.3,0-0.2c-0.5-0.2-1.4-0.5-2.4-0.9c-1-0.5-2.2-1-3.4-1.7c-2.4-1.4-5.3-3.4-7.7-5.6
		c-2.4-2.4-4.6-5-6-7.5c-1.5-2.4-2.4-4.6-2.7-5.8c0.2,0.7,0.7,2,0.9,2.6c-0.7-1.2-0.7-1.9-1-2.4c0-0.3-0.2-1-0.5-1.7
		c-0.2-0.7-0.3-1.5-0.3-2.1l-0.2-0.3v-0.7c-0.7-2.9-0.7-3.2-0.7-3.4c0-0.2-0.2-0.3-0.2-2.9c-0.2-1.5-0.2-2.6-0.2-3.6
		c0-0.8,0-1.6,0.1-2.3c-0.1,0.2-0.1,0.4-0.1-0.1c0.2-0.2,0.2-2,0.3-2.4c0.2-0.7,0.7-3.1,0.3-2.4c0.2-0.3,0.9-2.6,0.5-1.2
		c0.2-0.7,0.5-1.4,0.7-1.9l-0.3,0.9c0.3-1.2,0.7-2.1,1-2.9c0.3-0.9,0.7-1.5,1-2.2l-0.5,0.9c0.5-1.4,1.2-2.6,1.7-2.9l-0.7,1.4
		c0.7-1,1.2-1.9,1.5-2.7c0.5-0.9,1-1.5,1.5-2.4l-0.5,0.7c0.7-1.2,3.3-4.4,6.3-7.2c0.9-0.7,1.5-1.4,2.4-1.9c0.9-0.5,1.5-1,2.4-1.5
		c1.5-0.9,2.7-1.5,3.3-1.9l-1,0.3c0.7-0.3,1.2-0.7,1.9-1c-0.1,0.1-0.6,0.6-0.8,0.8c0.5-0.3,1.3-0.5,2.2-0.9c0.5-0.2,1-0.5,1.7-0.7
		c0.7-0.2,1.4-0.3,2.1-0.5c1.4-0.5,3.1-0.7,4.6-0.9c0.9-0.2,1.7-0.2,2.6-0.2s1.7-0.2,2.6,0c3.6,0,7,0.7,9.8,1.4
		c1.4,0.5,2.6,0.9,3.6,1.2c1,0.5,1.7,0.9,2.2,1c1.5,0.9,0.2,0.3,0.2,0.3c1.9,0.9,0.9,0.3,2.4,1.2c0.3,0.3-0.2,0-0.3,0
		c0.7,0.3,1.2,0.7,1.4,0.7c-0.9-0.5-0.3-0.5-0.7-0.9c0.7,0.3,1.4,0.7,1.9,1.2h-0.2c0.3,0.3,1.2,0.5,2.9,1.9c2.9,2.4,5.7,5.5,7.7,8.7
		c-0.2,0-0.5-0.7-1-1.4c0.3,0.5,0.7,1,0.9,1.5c-0.3-0.9,0.9,1.4,0.5,0.7c0.9,1,1.5,2.6,2.2,3.9c0.5,1.4,1,2.7,1.5,3.9
		c0.1,0,0.9,0.6,1.9,1.3c0.3,0.2,0.7,0.5,1,0.7c1.4,1,2.6,2.4,2.7,2.2c0.2,0.9,0.3,1.7,0.3,1.9c0-0.2-0.2-1.9-0.3-2.7l-0.2-0.2
		c-0.3-2,0-0.5-0.5-2.4c0,0,0.2,0.3,0.3,1c0.2,0.7,0.3,1.5,0.5,2.2c-0.2-0.7-0.2-1.5-0.3-2.1c-0.2-0.7-0.3-1-0.5-1.4
		c-0.3-1.4,0.2,0.2-0.2-1.5c-0.3-1.2-1-2.6-1.4-3.9c-0.5-1.5-1.2-2.7-1.7-3.8c-0.5-1-1.2-2-2.1-3.4l0.2,0.2
		c-0.3-0.5-0.7-1.2-1.2-1.9c-0.5-0.7-1.2-1.5-1.7-2.2c0.3,0.5,0.5,0.9-0.2,0c-0.7-0.9-1.4-1.5-1.9-2.2c-0.7-0.7-1-1.2-1.7-1.7
		l-1.2-0.9c-0.3-0.3-0.9-0.7-1.4-1.2c-0.5-0.3-1.2-0.9-1.7-1.2c-1.2-1-2.9-1.9-4.6-2.9c-3.6-1.9-8.2-3.6-12.9-4.3
		c-1.8-0.3-3.6-0.5-5.4-0.6c-1.8-0.1-3.5,0-5.1,0.2c-0.1,0-0.1,0-0.1,0c0,0,0,0,0,0c-1,0.1-2,0.2-2.9,0.4c-1,0.2-1.9,0.3-2.9,0.5
		c-0.9,0.2-1.7,0.5-2.4,0.7c-1.5,0.3-2.7,1-3.6,1.4l0.3-0.2c-2.7,1-6,2.7-9.4,5.1c-3.4,2.4-6.5,5.6-9.3,9.4
		c-2.6,3.6-4.8,7.7-5.8,11.8c-1.2,3.9-1.7,7.7-1.9,10.8c-0.3,1.9,0,4.4,0,6.5c0-1,0.2-0.7,0.2,0.2c0.5,2.9,0.5,3.1,0.5,3.1
		c0.2,0.2,0,0.2,0.9,3.1c0.9,3.2,3.9,11.3,9.8,17.3c5.5,6.3,13.2,9.7,16.1,10.8c3.1,1,7.2,1.9,10.5,2.2h-0.3
		C203.6,407,205.5,407,207.9,407z"/>
	<path class="st1" d="M170.7,361.9c0-0.1,0-0.2,0-0.2C170.7,361.8,170.7,361.9,170.7,361.9z"/>
	<path class="st1" d="M191.6,332.2c-0.1,0-0.1,0.1-0.2,0.1C191.5,332.3,191.6,332.3,191.6,332.2z"/>
	<path class="st1" d="M243.1,367.7c0-0.1,0-0.2,0-0.3L243.1,367.7C243.1,367.7,243.1,367.7,243.1,367.7z"/>
	<polygon class="st1" points="149.3,352.1 148.4,354.5 160.9,357.4 162.1,354 156.3,350.3 153.9,348.9 156.8,349.2 163.7,349.9 
		164.9,346.5 153.2,340.7 152.4,343.1 158.5,346 162.1,347.5 158.2,347 151,346.5 150.3,348.6 156.3,352.7 159.7,354.9 156,353.8 	
		"/>
	<path class="st1" d="M147.4,365.1l-0.2,1.7l9.6,0.9l0.2-2.6l-7-0.7c-0.2-0.3-0.3-1-0.3-1.7c0-0.9,0.3-1.4,2.2-1.2l5.5,0.5l0.2-2.6
		l-5.7-0.5c-2.4-0.2-4.1,0-4.3,2.7c0,1,0.2,2.2,0.7,2.9h-0.3C147.6,364.4,147.4,364.8,147.4,365.1z"/>
	<path class="st1" d="M147.2,374c0.2,2.2,1.4,3.6,3.3,3.4c1.4-0.2,2.1-0.9,2.6-2.9c0.3-1.5,0.7-2,1.2-2c0.5,0,0.7,0.3,0.9,1.5
		c0.2,0.9,0,1.9-0.3,2.2h2.1c0.2-0.3,0.5-1.4,0.3-2.7c-0.2-2.2-1.4-3.8-3.1-3.6c-1.4,0.2-2.4,1-2.7,2.7c-0.3,1.4-0.7,2.2-1.2,2.2
		c-0.5,0.2-0.7-0.3-0.9-1.4c0-1.2,0.3-2.4,0.5-2.7l-2.2-0.2C147.4,371.1,147.1,372.6,147.2,374z"/>
	<path class="st1" d="M153.2,381.9l1.5,5.5c0.3,0,1-0.2,1.7-0.3c2.7-0.7,3.1-2.7,2.6-4.6c-0.9-2.7-3.3-3.8-6-3.1
		c-2.9,0.9-4.3,2.9-3.4,5.6c0.3,1.4,1.2,2.6,1.9,3.1l1.4-0.9c-0.5-0.3-1-1.5-1.2-2.2C151.3,383.6,151.7,382.4,153.2,381.9z
		 M157.2,382.9c0.3,1.2-0.3,1.7-1.7,2.1l-0.9-3.2C156.1,381.5,156.8,382,157.2,382.9z"/>
	<path class="st1" d="M160.4,397.8c2.4-1.2,3.9-3.4,2.4-6.3c-1.4-2.4-3.6-3.4-6.3-2c-2.4,1.2-3.9,3.4-2.4,6.3
		C155.3,398.1,157.7,399.1,160.4,397.8z M157.7,391.9c1.5-0.9,2.7-0.9,3.4,0.3c0.7,1.2-0.5,2.4-1.9,3.1c-1.7,0.9-2.9,0.9-3.4-0.2
		C155.1,393.8,156.1,392.8,157.7,391.9z"/>
	<path class="st1" d="M169.9,402.5c0-0.9-0.5-1.9-1.4-2.7c-1.7-1.9-3.4-2.6-5.1-1.2c-1,0.9-1.2,2.1-0.9,3.2c-1-0.7-1.9-0.3-2.4,0
		c-0.5,0.3-0.9,0.9-0.7,1.5c-0.9-0.3-1.7-0.3-2.2,0.2c-1.5,1.2-1.2,3.1,0.7,5.3c1.5,2,4.1,3.1,5.8,1.7c1-0.9,1.9-2.2-0.2-4.6l-1-1.2
		c-0.5-0.7-0.5-1-0.2-1.4c0.3-0.2,0.5-0.2,0.9-0.2c0.2,0.2,0.3,0.5,0.5,0.7c1.7,2,3.6,2.6,5.1,1.2c0.3-0.3,0.5-0.5,0.7-0.9l1,1.2
		l1.4-1.2l-0.7-0.9C170.9,402.9,170.2,402.5,169.9,402.5z M161.6,408.9c-0.7,0.7-1.7,0.2-2.6-0.9c-1-1.2-0.7-2.2,0-2.7
		c0.5-0.3,0.7-0.3,1-0.3c0.2,0,0.2,0.2,0.3,0.3l0.9,1C162.5,407.8,162.3,408.4,161.6,408.9z M167.1,403.2c-1,0.7-1.7,0.3-2.2-0.3
		c-0.7-0.9-0.5-1.7,0.2-2.2c0.9-0.9,1.5-0.3,2.2,0.3C168,401.9,168,402.5,167.1,403.2z"/>
	<path class="st1" d="M172.9,404.9l-6,7.3l2.1,1.7l4.1-5c0.5,0,1.4,0,2.2,0.7c0.5,0.3,0.7,0.7,0.7,0.9l1.5-1.9
		c0-0.2-0.3-0.3-0.5-0.5c-1-0.9-2.4-1-3.1-0.7l0.7-1L172.9,404.9z"/>
	<path class="st1" d="M181.2,415.2c-1-0.5-2.4-1.2-3.6-1.4c-1-0.2-2.1,0.2-2.7,1.2c-0.9,1.5-0.3,3.4,1.2,4.3
		c0.9,0.7,1.9,0.7,2.6,0.5c-0.5,0.7-0.2,0.9,0.3,1.2l1.4,0.7l3.3-5.5c1.4-2.4,0.7-3.6-1.5-5c-1.2-0.7-3.1-1-3.8-1l-0.3,1.7
		c0.9,0,2.1,0.3,2.6,0.7c1.4,0.9,1.5,1.2,1,2L181.2,415.2z M179.3,418.6c-0.3,0-1,0-1.5-0.3c-0.5-0.5-0.9-1-0.3-1.7
		c0.3-0.5,0.9-0.5,1.2-0.5c0.5,0,1.4,0.3,1.9,0.7L179.3,418.6z"/>
	<path class="st1" d="M187.2,424.1l2.7-7.2l2.1,0.9l0.7-1.7l-2.1-0.9l0.3-0.9c0.5-1.2,1.2-1.5,1.9-1.2c0.7,0.3,1,0.5,1.2,0.7
		l0.7-1.7c-0.2,0-0.9-0.5-1.5-0.7c-1.5-0.5-3.6-0.3-4.6,2.2l-0.3,0.9l-1.4-0.2l-0.5,1.4l1.2,0.5l-2.7,7L187.2,424.1z"/>
	<polygon class="st1" points="192,425.8 194.5,426.5 196.8,417.2 194.2,416.6 	"/>
	<path class="st1" d="M199.8,413.8l-1.4-1.9c-1.2,1.2-2.4,2.1-3.6,2.7l0.9,1.5C196.6,416,199.2,414.8,199.8,413.8z"/>
	<path class="st1" d="M206.4,421.8c0.2-2.7-1-3.6-3.6-3.8c-1.5-0.2-3.3,0.3-3.9,0.7l0.5,1.7c0.9-0.3,2.2-0.5,2.7-0.5
		c1.5,0.2,1.7,0.3,1.7,1.4v0.5c-1.2-0.2-2.7-0.2-3.8,0.2c-1,0.3-1.7,1-2.1,2.4c0,1.7,1,3.1,2.9,3.2c1.2,0.2,2.1-0.3,2.6-0.7
		c-0.2,0.9,0.2,1,0.9,1h1.6L206.4,421.8z M203.6,425.6c-0.2,0.2-1,0.3-1.5,0.3c-0.7-0.2-1.2-0.5-1.2-1.4c0-0.7,0.5-0.9,0.9-1
		c0.5-0.2,1.4-0.2,2.1-0.2L203.6,425.6z"/>
	<polygon class="st1" points="219,426.6 217.3,417.2 214.8,417.7 216.5,427.1 	"/>
	<path class="st1" d="M217,414.3c-0.2-0.9-0.9-1.4-1.7-1.2c-0.9,0.2-1.5,1-1.4,1.9c0.2,0.7,1,1.2,1.7,1.2
		C216.5,416,217.2,415.2,217,414.3z"/>
	<path class="st1" d="M225,417.2c1-0.3,1.5,0,2.1,1.5l1.7,5.1l2.4-0.9l-2.1-5.6c-1-2.7-2.2-3.2-4.1-2.6c-1.2,0.3-2.1,1.4-2.6,2
		l-0.3-1l-2.2,0.9l3.4,9.1l2.4-0.9l-2.2-6.3C223.8,417.9,224.5,417.4,225,417.2z"/>
	<path class="st1" d="M233.6,418.3c1,1.7,2.1,2.2,3.8,1.2c1.2-0.7,1.9-1.7,2.1-2.2l-1-1c-0.2,0.3-0.7,0.9-1,1
		c-0.9,0.5-1,0.5-2.1-1.2l-1.9-3.2l2.2-1.4l-0.9-1.5l-2.2,1.4l-1-1.9l-1.4,0.9c0.2,0.7,0.3,1.4,0.3,1.7c0.2,0.5-0.2,0.9-0.9,1.5
		l0.7,1.2l1-0.5L233.6,418.3z"/>
	<path class="st1" d="M245.6,414c1-0.9,1.9-2.1,2.1-2.9l-1.2-0.9c-0.2,0.5-1,1.4-1.5,1.9c-1,0.9-2.2,1-3.4-0.2l4.3-3.6
		c-0.2-0.3-0.5-0.9-1-1.4c-1.9-2.2-3.8-1.7-5.3-0.5c-2.2,1.9-2.2,4.4-0.5,6.7C241,415.4,243.4,415.9,245.6,414z M240.5,407.8
		c0.9-0.7,1.7-0.3,2.6,0.9l-2.6,2C239.6,409.2,239.8,408.5,240.5,407.8z"/>
	<path class="st1" d="M252.6,407l-4.8-4.3c0-0.7,0-1.4,0.7-2.2c0.3-0.5,0.7-0.7,0.9-0.7l-1.9-1.7c-0.2,0.2-0.3,0.3-0.5,0.5
		c-0.9,1-1,2.4-0.7,3.1l-1-0.7l-1.5,1.7l7.2,6.3L252.6,407z"/>
	<path class="st1" d="M259.8,396.7l0.9-1.4l-5.5-3.2c-2.4-1.4-3.6-0.7-5,1.5c-0.7,1.2-1,3.1-1,3.8l1.7,0.3c0-0.9,0.3-2,0.7-2.6
		c0.9-1.4,1.2-1.5,2.1-1l0.5,0.3c-0.7,1-1.4,2.4-1.5,3.6c-0.2,1.2,0.2,2,1.2,2.6c1.5,1,3.3,0.5,4.3-1c0.7-0.9,0.7-1.9,0.5-2.6
		C259.3,397.6,259.5,397.2,259.8,396.7z M257.1,398.1c-0.5,0.5-1,0.9-1.7,0.3c-0.5-0.3-0.5-0.9-0.5-1.2c0-0.5,0.3-1.4,0.7-1.9
		l1.9,1.2C257.4,396.9,257.4,397.6,257.1,398.1z"/>
	<path class="st1" d="M263.6,388.2c0.5-1.2,0.5-2.4,0.2-3.1l-1.5-0.2c0,0.3,0,1.2-0.3,2c-0.5,1.4-1.7,1.9-3.6,1.2
		c-1.7-0.9-1.9-2.2-1.5-3.2c0.3-0.9,0.7-1.4,1-1.7l-1.7-1c-0.3,0.3-1,1-1.4,2.2c-1.2,2.9,0.3,5.1,2.9,6.3
		C260.2,391.6,262.6,390.9,263.6,388.2z"/>
	<path class="st1" d="M266.2,379c0.2-1.2,0-2.4-0.3-2.9h-1.5c0.2,0.3,0.3,1,0.2,1.5c-0.2,0.9-0.3,1-2.2,0.7l-3.8-0.7l0.5-2.6
		l-1.7-0.3l-0.5,2.6l-2.1-0.3l-0.3,1.5c0.5,0.3,1.2,0.7,1.5,0.9c0.3,0.3,0.5,0.9,0.5,1.7l1.4,0.3l0.2-1.2l4.8,0.9
		C264.8,381.4,265.8,380.8,266.2,379z"/>
	<polygon class="st1" points="266.9,370.9 257.4,370.2 257.3,372.8 266.7,373.5 	"/>
	<path class="st1" d="M253,371.3c-0.2,0.9,0.5,1.7,1.4,1.7s1.5-0.7,1.5-1.4c0.2-0.9-0.5-1.7-1.4-1.7
		C253.7,369.7,253,370.4,253,371.3z"/>
	<polygon class="st1" points="266.9,362.2 256.9,359.3 257.1,362 261.9,363.1 264.3,363.4 262.1,364.3 257.4,366.1 257.6,368.9 
		267,364.6 	"/>
	<path class="st1" d="M264.3,349.9l-0.3-1.5l-6.2,1.7c-2.6,0.7-2.9,2-2.2,4.6c0.5,1.4,1.5,2.9,2.1,3.4l1.4-1
		c-0.5-0.7-1.2-1.9-1.4-2.4c-0.3-1.7-0.3-1.9,0.7-2.2l0.5-0.2c0.3,1.2,0.9,2.7,1.5,3.6c0.7,0.9,1.5,1.2,2.7,1
		c1.9-0.3,2.7-1.9,2.2-3.8c-0.3-1-1-1.7-1.5-2C264.5,350.9,264.5,350.6,264.3,349.9z M262.4,354.5c-0.7,0.2-1.2-0.2-1.4-0.5
		c-0.3-0.3-0.7-1.2-0.9-1.9l2.2-0.7c0.2,0,0.7,0.7,0.9,1.2C263.4,353.3,263.3,354,262.4,354.5z"/>
	<path class="st1" d="M205,22.2L205,22.2c-0.6,0-1.3,0-2,0C203.4,22.3,204.1,22.3,205,22.2z"/>
	<path class="st1" d="M200,17.2l0.5-0.1C200.4,17.1,200.2,17.1,200,17.2z"/>
	<path class="st1" d="M200,17.2l-0.5,0.1C199.7,17.3,199.8,17.2,200,17.2z"/>
	<path class="st1" d="M207.2,17.6c-0.5,0-1.2-0.2-1.7-0.2h-1.7h-0.5c0,0-1.4,1-1.5,2.2c0,0.1,0,0.2-0.1,0.3c-0.2,1.1,0.5,2,3.3,2.3
		l0,0l-0.1,0.1c0.3,0,0.9-0.2,1.2,0c1.5,0.2,0.5,0.2-0.2,0.2c0.7,0,1.2,0,1.7,0.2c0.3,0-0.2,0-0.5-0.2c0.2,0,0.5,0,0.7,0l-0.8-0.1
		c0.7,0,1,0,1.1,0.1c0.6,0,1.3-0.1,1.9,0c1.5,0.2,0,0.2,1.7,0.5c9.1,1.5,17.1,6.3,22.8,13.5c0,0-0.1-0.1-0.2-0.2
		c0.5,0.5,0.9,1,1.2,1.5c0.3,0.5,0.7,1,1,1.5c0.3,0.5,0.7,1,1,1.5c0.3,0.5,0.5,1,0.9,1.7c0.3,0.7,0.3,0.9,0.3,1
		c0-0.2,0.3,0.7,0.9,1.9c0.2,0.5,0.5,1.4,0.9,2.1c0.2,0.9,0.5,1.7,0.7,2.6c0.3,0.9,0.3,1.7,0.5,2.6c0.2,0.9,0.3,1.5,0.3,2.2
		c0.3,1.2,0.5,2.1,0.5,2.2l0.2,0.2c0.2,2.7-0.2,0.9-0.2,3.2c0,0.2,0,0.7,0,1c0,0.5-0.2,1-0.2,1.5c-0.2,1-0.3,2.1-0.3,2.4
		c0,0-0.3,1.2-0.3,1c0,0.3-0.3,1.2-0.3,2.1c0,0.1,0,0.1,0,0.1c-0.1,0.4-0.2,0.9-0.4,1.3c-0.3,0.7-0.3,0.9-0.2,0
		c-0.2,0.5-0.5,1.4-0.9,2.4c-0.5,1-1,2.2-1.7,3.4c-1.4,2.4-3.4,5.3-5.7,7.7c-2.4,2.4-5,4.6-7.5,6c-2.4,1.5-4.6,2.4-5.8,2.7
		c0.7-0.2,2.1-0.7,2.6-0.9c-1.2,0.7-1.9,0.7-2.4,1c-0.3,0-1,0.2-1.7,0.5c-0.7,0.2-1.5,0.3-2.1,0.3l-0.3,0.2h-0.7
		c-2.9,0.7-3.3,0.7-3.4,0.7c-0.2,0-0.3,0.2-2.9,0.2c-1.5,0.2-2.6,0.2-3.6,0.2c-0.8,0-1.6,0-2.3-0.1c0.2,0.1,0.4,0.1-0.1,0.1
		c-0.2-0.2-2.1-0.2-2.4-0.3c-0.7-0.2-3.1-0.7-2.4-0.3c-0.3-0.2-2.6-0.9-1.2-0.5c-0.7-0.2-1.4-0.5-1.9-0.7l0.9,0.3
		c-1.2-0.3-2.1-0.7-2.9-1c-0.9-0.3-1.5-0.7-2.2-1l0.9,0.5c-1.4-0.5-2.6-1.2-2.9-1.7l1.4,0.7c-1-0.7-1.9-1.2-2.7-1.5
		c-0.9-0.5-1.5-1-2.4-1.5l0.7,0.5c-1.2-0.7-4.5-3.2-7.2-6.3c-0.7-0.9-1.4-1.5-1.9-2.4c-0.5-0.9-1-1.5-1.5-2.4
		c-0.9-1.5-1.5-2.7-1.9-3.2l0.3,1c-0.3-0.7-0.7-1.2-1-1.9c0.1,0.1,0.6,0.6,0.8,0.8c-0.3-0.5-0.5-1.3-0.9-2.2c-0.2-0.5-0.5-1-0.7-1.7
		c-0.2-0.7-0.3-1.4-0.5-2.1c-0.3-0.9-0.5-2.6-0.7-4.3c-0.2-0.9-0.2-1.7-0.2-2.6c0-0.9-0.2-1.7,0-2.6c0-3.6,0.7-7,1.4-9.7
		c0.5-1.4,0.9-2.6,1.2-3.6c0.5-1,0.9-1.7,1-2.2c0.9-1.5,0.3-0.2,0.3-0.2c0.9-1.9,0.3-0.9,1.2-2.4c0.3-0.3,0,0.2,0,0.3
		c0.3-0.7,0.7-1.2,0.7-1.4c-0.5,0.9-0.5,0.3-0.9,0.7c0.3-0.7,0.7-1.4,1.2-1.9v0.2c0.3-0.3,0.5-1.2,1.9-2.9c2.4-2.9,5.5-5.6,8.7-7.7
		c0,0.2-0.7,0.5-1.4,1c0.5-0.3,1-0.7,1.5-0.9c-0.9,0.3,1.4-0.9,0.7-0.5c1-0.9,2.6-1.5,3.9-2.2c1.4-0.5,2.7-1,3.9-1.5
		c0-0.1,0.8-1.2,1.7-2.4c0.1-0.2,0.3-0.3,0.4-0.5c1-1.4,2.4-2.6,2.2-2.7c0.9-0.2,1.7-0.3,1.9-0.3c-0.2,0-1.9,0.2-2.7,0.3l-0.2,0.2
		c-2.1,0.3-0.5,0-2.4,0.5c0,0,0.3-0.2,1-0.3c0.7-0.2,1.5-0.3,2.2-0.5c-0.7,0.2-1.5,0.2-2.1,0.3c-0.7,0.2-1,0.3-1.4,0.5
		c-1.4,0.3,0.2-0.2-1.5,0.2c-1.2,0.3-2.6,1-3.9,1.4c-1.5,0.5-2.7,1.2-3.8,1.7c-1,0.5-2.1,1.2-3.4,2.1l0.2-0.2
		c-0.5,0.3-1.2,0.7-1.9,1.2c-0.7,0.5-1.5,1.2-2.2,1.7c0.5-0.3,0.9-0.5,0,0.2c-0.9,0.7-1.5,1.4-2.2,1.9c-0.7,0.7-1.2,1-1.7,1.7
		l-0.9,1.2c-0.3,0.3-0.7,0.9-1.2,1.4c-0.3,0.5-0.9,1.2-1.2,1.7c-1,1.2-1.9,2.9-2.9,4.6c-1.9,3.6-3.6,8.2-4.3,12.8
		c-0.3,1.8-0.5,3.5-0.6,5.3c0.2,0.1,0.4,0.4,0.4,0.7c0,0.3-0.2,0.5-0.4,0.7c0,2.4,0.2,4.8,0.6,6.8c0.2,1,0.3,1.9,0.5,2.9
		c0.2,0.9,0.5,1.7,0.7,2.4c0.3,1.5,1,2.7,1.4,3.6l-0.2-0.3c1,2.7,2.7,6,5.1,9.4c2.4,3.4,5.7,6.5,9.3,9.2c3.6,2.6,7.7,4.8,11.8,5.8
		c3.5,1.1,7,1.6,9.8,1.8c0.3,0,0.6,0,1,0.1c1.1,0.2,2.5,0.2,3.9,0.1c0.9,0,1.8-0.1,2.6-0.1c-1,0-0.7-0.2,0.2-0.2
		c2.9-0.5,3.1-0.5,3.1-0.5c0.2-0.2,0.2,0,3.1-0.9c3.3-0.9,11.3-3.9,17.3-9.7c6.3-5.5,9.8-13.2,10.8-16.1c1-3.1,1.9-7.2,2.2-10.4v0.3
		c0.2-0.9,0.2-2.7,0.2-5.1c0-0.1,0-0.2,0-0.3c-0.5,0-0.8-0.3-0.8-0.9c0-0.5,0.3-0.8,0.8-0.8c0-0.6-0.1-1.3-0.1-1.9
		c-0.2-1.4-0.5-2.7-0.7-4.3c-0.3-1.4-0.7-2.9-1.2-4.1c-0.5-1.4-1-2.6-1.4-3.8c-1-2.2-2.1-3.9-2.6-4.8l0.3,0.5
		c-1.9-2.9-1.5-2.6-3.3-4.8c0,0.2-0.5-0.3-1-0.9c-0.7-0.5-1.4-1.4-1.7-1.7c-0.3-0.3-0.7-0.7-1.2-1.2c-0.5-0.3-1-0.9-1.7-1.4
		c-1.2-1-2.6-1.9-3.8-2.7h0.2c-1-0.7-2.6-1.4-3.9-2.2c-1.4-0.7-2.9-1.4-3.6-1.7c-1.9-0.7-4.1-1.7-6.7-2.2c-1.2-0.3-2.6-0.5-3.9-0.7
		C209.8,17.6,208.4,17.6,207.2,17.6z"/>
	<path class="st1" d="M172.5,73.4c0,0.1,0.1,0.1,0.1,0.2C172.6,73.6,172.6,73.5,172.5,73.4z"/>
	<path class="st1" d="M208,22.5c-0.1,0-0.2,0-0.3,0L208,22.5C208.1,22.5,208.1,22.5,208,22.5z"/>
	<path class="st1" d="M202.3,94.3c-0.1,0-0.2,0-0.2,0C202.2,94.3,202.2,94.3,202.3,94.3z"/>
	<polygon class="st1" points="177.6,3.9 174.1,5.5 178.4,17.4 180.6,16.4 178.2,10.1 176.9,6.5 179.4,9.6 184.2,15 186.1,14.2 
		184.8,7.2 183.9,3.2 185.8,6.7 189.2,12.6 191.6,11.4 184.8,0.5 181.5,2.1 183,8.7 183.7,11.4 182,9.2 	"/>
	<path class="st1" d="M194.5,7l-1-5.5l-2.6,0.5l1.2,5.5c0.3,2.4,1,3.9,3.8,3.4c0.9-0.2,2.1-0.7,2.6-1.4v0.3c0,0.3,0.3,0.3,0.7,0.3
		l1.7-0.3l-1.7-9.4L196.6,1l1.4,7c-0.3,0.3-0.9,0.7-1.5,0.9C195.4,9.1,194.9,8.9,194.5,7z"/>
	<path class="st1" d="M202.9,2.7c0,1.4,0.7,2.4,2.4,2.9c1.4,0.3,2.1,0.9,2.1,1.4c0,0.7-0.5,0.9-1.5,0.9c-1.2,0-2.4-0.5-2.7-0.7
		l-0.2,1.9c0.5,0.3,1.9,0.7,3.3,0.7c2.4,0,3.8-1,3.8-2.9c0-1.4-0.9-2.2-2.7-2.9c-1.4-0.5-1.9-0.9-1.9-1.4s0.3-0.7,1.5-0.7
		c0.9,0,1.9,0.3,2.2,0.7l0.3-2.1c-0.3-0.2-1.4-0.5-2.7-0.5C204.6,0,202.9,0.9,202.9,2.7z"/>
	<path class="st1" d="M219.7,6.8c0.2-0.3,0.2-1,0.3-1.7c0.5-2.7-1.2-3.9-3.1-4.3c-2.9-0.3-4.8,1.4-5.3,3.9c-0.5,3.1,0.7,5.1,3.6,5.6
		c1.4,0.2,2.9,0,3.6-0.3l-0.2-1.5c-0.7,0.2-1.9,0.2-2.6,0c-1.4-0.3-2.2-1.2-2.1-2.7L219.7,6.8z M216.6,2.7c1.2,0.2,1.4,1,1,2.4
		l-3.3-0.5C214.9,2.9,215.6,2.6,216.6,2.7z"/>
	<path class="st1" d="M228,3.9c-2.6-0.9-5,0-6.2,2.7c-1,2.4-0.7,5.1,2.4,6.3c2.6,0.9,5,0.2,6.2-2.7C231.4,7.9,231,5.1,228,3.9z
		 M228,9.2c-0.7,1.9-1.7,2.7-2.9,2.1c-1.4-0.3-1.2-2.1-0.7-3.6c0.7-1.7,1.5-2.6,2.9-2.1C228.6,6.2,228.5,7.7,228,9.2z"/>
	<path class="st1" d="M233.3,15.4c-1-0.7-1.7-1.7-1.9-2.1l-1.2,1.4c0.2,0.5,1.2,1.7,2.4,2.4c2.1,1.2,3.8,1.2,4.8-0.5
		c0.7-1,0.5-2.2-0.9-3.8c-0.9-1-1.2-1.5-0.9-2.1c0.2-0.5,0.7-0.3,1.7,0.2c0.7,0.5,1.4,1.2,1.5,1.7l1.4-1.5c-0.2-0.3-0.9-1.2-2.1-1.9
		c-1.9-1.2-3.8-1.2-4.8,0.3c-0.7,1.2-0.7,2.4,0.5,3.8c1,1,1.4,1.7,1,2.2C234.6,16.1,234.1,15.9,233.3,15.4z"/>
	<path class="st1" d="M100.8,257c-0.2,0.7,0,1.8,0,3c0-0.1,0-0.2,0-0.3c0,0.1,0,0.2,0,0.3C100.9,259,100.9,258.2,100.8,257z"/>
	<path class="st1" d="M105.7,253.4c0,0.2,0,0.3,0.1,0.5L105.7,253.4z"/>
	<path class="st1" d="M105.8,253.9l0.1,0.5C105.9,254.2,105.9,254.1,105.8,253.9z"/>
	<path class="st1" d="M101.8,240.6c-0.1-0.2-0.2-0.4-0.3-0.6c-0.5-0.8-1-1.7-1.7-2.8l0.2,0.2c-0.3-0.5-0.7-1.2-1.2-1.9
		c-0.5-0.7-1.2-1.5-1.7-2.2c0.3,0.5,0.5,0.9-0.2,0c-0.7-0.9-1.4-1.5-1.9-2.2c-0.7-0.7-1-1.2-1.7-1.7l-1.2-0.9
		c-0.3-0.3-0.9-0.7-1.4-1.2c-0.5-0.3-1.2-0.9-1.7-1.2c-1.2-1-2.9-1.9-4.6-2.9c-3.6-1.9-8.2-3.6-12.9-4.3c-4.8-0.9-9.6-0.7-13.5,0
		c-1,0.2-1.9,0.3-2.9,0.5c-0.9,0.2-1.7,0.5-2.4,0.7c-1.5,0.3-2.7,1-3.6,1.4l0.3-0.2c-2.7,1-6,2.7-9.4,5.1c-3.4,2.4-6.5,5.6-9.3,9.2
		c-2.6,3.6-4.8,7.7-5.8,11.8c-1.2,3.9-1.7,7.7-1.9,10.8c-0.3,1.9,0,4.4,0,6.3c0-1,0.2-0.7,0.2,0.2c0.5,2.9,0.5,3.1,0.5,3.1
		c0.2,0.2,0,0.2,0.9,3.1c0.9,3.2,3.9,11.3,9.8,17.3c5.5,6.3,13.2,9.7,16.1,10.8c3.1,1,7.2,1.9,10.5,2.2h-0.3
		c0.9,0.2,2.7,0.2,5.1,0.2c1.2,0,2.6-0.2,3.9-0.2c1.4-0.2,2.7-0.5,4.3-0.7c1.4-0.3,2.9-0.7,4.1-1.2c1.4-0.5,2.6-1,3.8-1.4
		c2.2-1,3.9-2,4.8-2.6l-0.5,0.3c2.9-1.9,2.6-1.5,4.8-3.2c-0.2,0,0.3-0.5,0.9-1c0.5-0.7,1.4-1.4,1.7-1.7c0.3-0.3,0.7-0.7,1.2-1.2
		c0.3-0.5,0.9-1,1.4-1.7c1-1.2,1.9-2.6,2.7-3.8v0.2c0.7-1,1.4-2.6,2.2-3.9c0.7-1.4,1.4-2.9,1.7-3.6c0.7-1.9,1.7-4.1,2.2-6.7
		c0.3-1.2,0.5-2.6,0.7-3.9s0.2-2.7,0.2-3.9c0-0.5,0.2-1.2,0.2-1.7v-1.7v-0.5c0,0-1-1.4-2.2-1.5c-0.2,0-0.3-0.1-0.5-0.1
		c-1-0.1-1.8,0.7-2.1,3.3l-0.2-0.2c0,0.3,0.2,0.9,0,1.2c-0.1,1.3-0.2,0.8-0.2,0.2c0-0.1,0-0.2,0-0.3c0,0.1,0,0.2,0,0.3
		c0,0.5,0,1-0.2,1.4c0,0.3,0-0.2,0.2-0.5c0,0.2,0,0.5,0,0.7l0.1-0.8c0,0.7,0,1-0.1,1.1c0,0.6,0.1,1.2,0,1.7c-0.2,1.5-0.2,0-0.5,1.7
		c-1.5,9.1-6.3,17.1-13.5,22.7c0,0,0.1-0.1,0.2-0.2c-0.5,0.5-1,0.9-1.5,1.2c-0.5,0.3-1,0.7-1.5,1c-0.5,0.3-1,0.7-1.5,1
		c-0.5,0.3-1,0.5-1.7,0.9c-0.7,0.3-0.9,0.3-1,0.3c0.2,0-0.7,0.3-1.9,0.9c-0.5,0.2-1.4,0.5-2.1,0.9c-0.9,0.2-1.7,0.5-2.6,0.7
		c-0.9,0.3-1.7,0.3-2.6,0.5c-0.9,0.2-1.5,0.3-2.2,0.3c-1.4,0.5-2.4,0.7-2.4,0.7l-0.2,0.2c-2.7,0-0.9-0.2-3.3-0.2c-0.2,0-0.7,0-1,0
		c-0.5,0-1-0.2-1.5-0.2c-1-0.2-2.1-0.3-2.4-0.3c0,0-1.2-0.3-1-0.3c-0.3,0-1.2-0.3-2.1-0.3c-0.1,0-0.1,0-0.1,0
		c-0.4-0.1-0.9-0.2-1.3-0.4c-0.7-0.3-0.9-0.3,0-0.2c-0.5-0.2-1.4-0.5-2.4-0.9c-1-0.5-2.2-0.9-3.4-1.7c-2.4-1.4-5.3-3.2-7.7-5.6
		c-2.4-2.4-4.6-5-6-7.5c-1.5-2.4-2.4-4.6-2.9-5.8c0.2,0.7,0.7,2,0.9,2.6c-0.7-1.2-0.7-1.9-1-2.2c0-0.3-0.2-1-0.5-1.7
		c-0.2-0.7-0.3-1.5-0.3-2.1l-0.2-0.3v-0.7c-0.7-2.9-0.7-3.2-0.7-3.4c0-0.2-0.2-0.3-0.2-2.9c-0.2-1.5-0.2-2.6-0.2-3.6
		c0-0.8,0-1.6,0.1-2.3c-0.1,0.2-0.1,0.4-0.1-0.1c0.2-0.2,0.2-2,0.3-2.4c0.2-0.7,0.7-3.1,0.3-2.4c0.2-0.3,0.9-2.6,0.5-1.2
		c0.2-0.7,0.5-1.4,0.7-1.9l-0.3,0.9c0.3-1.2,0.7-2,1-2.9c0.3-0.9,0.7-1.5,1-2.2l-0.5,0.9c0.5-1.4,1.2-2.4,1.7-2.9l-0.7,1.4
		c0.7-1,1.2-1.9,1.5-2.7c0.5-0.9,1-1.5,1.5-2.4L35,239c0.7-1.2,3.3-4.4,6.3-7c0.9-0.7,1.5-1.4,2.4-1.9s1.5-1,2.4-1.5
		c1.5-0.9,2.7-1.5,3.3-1.9l-1,0.3c0.7-0.3,1.2-0.7,1.9-1c-0.1,0.1-0.6,0.6-0.8,0.8c0.5-0.3,1.3-0.5,2.2-0.9c0.5-0.2,1-0.5,1.7-0.7
		c0.7-0.2,1.4-0.3,2.1-0.5c1.4-0.5,3.1-0.7,4.6-0.9c0.9-0.2,1.7-0.2,2.6-0.2c0.9,0,1.7-0.2,2.6,0c3.6,0,7,0.7,9.8,1.4
		c1.4,0.5,2.6,0.9,3.6,1.2c1,0.5,1.7,0.9,2.2,1c1.5,0.9,0.2,0.3,0.2,0.3c1.9,0.9,0.9,0.3,2.4,1.2c0.3,0.3-0.2,0-0.3,0
		c0.7,0.3,1.2,0.7,1.4,0.7c-0.9-0.5-0.3-0.5-0.7-0.9c0.7,0.3,1.4,0.7,1.9,1.2h-0.2c0.3,0.3,1.2,0.5,2.9,1.9c2.9,2.4,5.7,5.5,7.7,8.7
		c-0.2,0-0.5-0.7-1-1.4c0.3,0.5,0.7,1,0.9,1.5c-0.3-0.9,0.9,1.4,0.5,0.7c0.9,1,1.5,2.6,2.2,3.9c0.5,1.4,1,2.7,1.5,3.9
		c0.1,0,1.1,0.7,2.2,1.5c0.2,0.2,0.5,0.3,0.7,0.5c1.4,1,2.6,2.4,2.7,2.2c0.2,0.9,0.3,1.7,0.3,1.9c0-0.2-0.2-1.9-0.3-2.7l-0.2-0.2
		c-0.3-2.1,0-0.5-0.5-2.4c0,0,0.2,0.3,0.3,1c0.2,0.7,0.3,1.5,0.5,2.2c-0.2-0.7-0.2-1.5-0.3-2c-0.2-0.7-0.3-1-0.5-1.4
		c-0.3-1.4,0.2,0.2-0.2-1.5c-0.3-1.1-0.9-2.4-1.3-3.6c0-0.1-0.1-0.2-0.1-0.3C103,242.8,102.3,241.6,101.8,240.6z"/>
	<path class="st1" d="M100.8,261.9c0-0.1,0-0.2,0-0.3L100.8,261.9C100.8,261.9,100.8,261.9,100.8,261.9z"/>
	<path class="st1" d="M28.4,256.4c0-0.1,0-0.2,0-0.2C28.4,256.2,28.4,256.3,28.4,256.4z"/>
	<path class="st1" d="M49.4,226.8c-0.1,0-0.1,0.1-0.2,0.1C49.2,226.9,49.3,226.9,49.4,226.8z"/>
	<path class="st1" d="M93.8,314.2c-1.5,0.9-2.4,0.9-2.9,0.9l0.9,2.2c0.9-0.3,1.7-0.5,3.3-1.4c3.1-1.7,4.3-5.1,2.1-8.5
		c-1.9-3.4-5.3-4.4-8.7-2.4c-1.4,0.9-1.9,1.5-2.4,2.2l1.2,1.9c0.2-0.5,1-1.7,2.1-2.2c2.1-1.4,4.3-0.3,5.7,1.9
		C96.2,311,95.5,313.2,93.8,314.2z"/>
	<path class="st1" d="M83.6,317.5c2.6-0.9,3.9-3.1,2.9-6.2c-0.9-2.6-2.7-4.3-6-3.2c-2.6,0.9-3.9,3.1-2.9,6
		C78.5,316.8,80.4,318.5,83.6,317.5z M80.9,309.9c1.4-0.3,2.4,0.9,2.9,2.4c0.7,1.7,0.5,2.9-0.9,3.4c-1.2,0.3-2.2-0.9-2.7-2.4
		C79.7,311.6,79.9,310.3,80.9,309.9z"/>
	<path class="st1" d="M74.6,310.6l-2.6,0.2l0.5,6.7c-0.5,0.5-1.4,0.9-1.9,0.9c-1.2,0-1.4-0.5-1.5-2l-0.3-5.5l-2.6,0.2l0.3,5.8
		c0.2,0.3,0.2,0.5,0.2,0.9c-0.5,0.3-1.2,0.9-1.9,0.9c-1.2,0.2-1.4-0.3-1.5-1.9l-0.3-5.5l-2.6,0.2l0.3,6c0.3,2.7,1.5,3.6,3.4,3.4
		c1.4-0.2,2.6-0.9,3.1-1.4c0.5,0.9,1.4,1.2,2.6,1c1.2-0.2,2.4-0.9,3.1-1.4l0.2,1l2.4-0.2L74.6,310.6z"/>
	<path class="st1" d="M55.5,310.1c-0.9-0.2-2.1,0-2.9,0.3v-0.3c0.2-0.3-0.2-0.5-0.5-0.5l-1.7-0.3l-1.9,9.4l2.6,0.5l1.4-7
		c0.3-0.2,1.2-0.3,1.7-0.2c1,0.2,1.4,0.5,1,2.4l-1,5.5l2.6,0.5l1-5.6C58.3,312.3,58.3,310.6,55.5,310.1z"/>
	<path class="st1" d="M46.1,307.5l-2.6,6.2c-0.9,0.3-1.5,0.2-2.1,0c-1-0.3-1.2-1-0.5-2.4l2.1-5l-2.4-1l-2.4,5.5
		c-1.2,2.6-0.7,3.9,1.2,4.6c1,0.5,2.4,0.3,3.3,0.2l-0.3,1l2.2,0.9l3.9-8.9L46.1,307.5z"/>
	<polygon class="st1" points="36.3,302.8 31.2,310.8 33.4,312.2 38.6,304.1 	"/>
	<path class="st1" d="M29.8,315.2c0.7,0.3,1.7,0.2,2.2-0.5c0.5-0.7,0.2-1.5-0.5-2.1c-0.7-0.3-1.7-0.2-2.2,0.5
		C28.8,313.9,29,314.7,29.8,315.2z"/>
	<path class="st1" d="M31.7,305.7c1.7-2,1.9-4.6-0.3-6.5c-1-0.9-2.1-1.2-2.9-1.2l-0.7,1.4c0.5,0.2,1.2,0.5,1.9,1
		c1,0.9,1.2,2.2-0.2,3.8c-1.2,1.4-2.6,1-3.4,0.3c-0.7-0.7-1-1-1.2-1.5l-1.5,1.4c0,0.3,0.7,1.2,1.5,1.9
		C27.4,308.2,30,307.5,31.7,305.7z"/>
	<path class="st1" d="M22.3,300.2c-0.9-0.3-1.9-1.2-2.2-1.5c-1-1.2-1.2-1.5-0.3-2.2l0.5-0.3c0.9,0.9,1.9,2.1,2.9,2.6
		c1,0.5,2.1,0.5,3.1,0c1.4-1.2,1.5-3.1,0.3-4.4c-0.9-1-1.7-1.2-2.4-1.4c0.7-0.5,0.3-0.9,0-1.4l-1-1.2l-4.8,4.1
		c-2.1,1.7-1.9,3.1-0.2,5.1c1,1,2.6,2,3.3,2.2L22.3,300.2z M23.1,293.7c0.3,0,1,0.3,1.4,0.9c0.5,0.5,0.5,1.2-0.2,1.9
		c-0.5,0.3-1,0.2-1.4,0c-0.3-0.2-1.2-0.7-1.5-1.2L23.1,293.7z"/>
	<path class="st1" d="M18.2,291.5c2.4-1.4,3.4-3.6,1.9-6.2c-0.5-1-1.4-1.9-2.2-2.1l-1.2,1c0.3,0.2,0.9,0.9,1.4,1.5
		c0.7,1.2,0.5,2.6-1.4,3.6c-1.7,0.9-2.9,0.2-3.4-0.9c-0.5-0.9-0.7-1.4-0.7-1.9l-1.9,0.7c0,0.3,0.3,1.4,0.9,2.4
		C13.2,292.5,15.8,292.9,18.2,291.5z"/>
	<polygon class="st1" points="17,278.8 8.2,282.4 9.3,284.8 18,281.2 	"/>
	<path class="st1" d="M4.6,285.2c0.3,0.7,1.2,1.2,2.1,0.9c0.7-0.3,1-1.2,0.7-1.9c-0.3-0.7-1.2-1.2-2.1-0.9
		C4.6,283.6,4.3,284.3,4.6,285.2z"/>
	<path class="st1" d="M5,275.1c-0.5-0.7-2.7-2.4-3.9-2.6l-1,2c1.5,0.5,3.1,1.2,4.1,1.9L5,275.1z"/>
	<path class="st1" d="M9.6,269.3c-2.7,0.7-4.8,2.4-3.9,5.6c0.7,2.6,2.7,4.1,5.7,3.4c2.7-0.7,4.8-2.4,3.9-5.6
		C14.6,270.1,12.5,268.6,9.6,269.3z M13.5,273c0.2,1.4-1.2,2.2-2.7,2.6c-1.7,0.5-2.9,0.2-3.3-1.2c-0.3-1.4,1-2.2,2.6-2.6
		C12,271.5,13.2,271.8,13.5,273z"/>
	<path class="st1" d="M4.3,266.7l9.4-0.2V264L7,264.1c-0.7-0.5-0.9-1.4-0.9-1.9c0-1.2,0.5-1.5,2.1-1.5l5.5-0.2V258l-6,0.2
		c-2.7,0-3.8,1-3.6,3.1c0,1.2,0.7,2.4,1.2,3.1h-1V266.7z"/>
	<path class="st1" d="M5.3,247.6l8.7,3.1l0.9-2.4L8.6,246c-0.2-0.7-0.2-1.5,0-2.1c0.3-1,0.9-1,2.4-0.5l5.1,1.9L17,243l-5.5-2.1
		c-0.3,0-0.5-0.2-0.9-0.2c-0.2-0.7-0.2-1.4,0-2.1c0.3-1.2,0.9-1.2,2.4-0.7l5.1,1.9l0.9-2.4l-5.7-2c-2.6-0.9-3.8-0.2-4.5,1.7
		c-0.5,1.4-0.2,2.7,0,3.4c-0.9,0.2-1.5,0.7-1.9,1.9c-0.3,1,0,2.6,0.2,3.2l-1-0.3L5.3,247.6z"/>
	<path class="st1" d="M18.7,231.2l-4.6-3.1l-1.5,2.2l4.8,2.7c2.1,1.5,3.6,2.1,5.1-0.2c0.5-0.7,0.9-1.9,0.9-2.7l0.3,0.2
		c0.3,0.3,0.5,0.2,0.7-0.2l1-1.4l-7.9-5.5l-1.5,2.2l5.8,4.1c0,0.3-0.2,1-0.5,1.5C20.7,232,20.2,232.2,18.7,231.2z"/>
	<path class="st1" d="M25.7,218.4l-1.2-1.7c-0.3,0.2-1.2,0.5-2.2,1.5c-1.5,1.5-2.1,3.2-0.9,4.6c1,0.9,2.1,1.2,3.8,0.3
		c1.2-0.7,2.1-0.9,2.4-0.5c0.3,0.3,0.2,0.9-0.5,1.5c-0.9,0.9-2.1,1.4-2.4,1.4l1.2,1.9c0.7-0.2,1.9-0.9,2.9-1.9
		c1.5-1.5,1.9-3.2,0.5-4.6c-1-1-2.1-1-3.9-0.2c-1.2,0.7-1.9,0.9-2.2,0.3c-0.3-0.5-0.2-0.9,0.7-1.7C24.3,218.9,25.2,218.4,25.7,218.4
		z"/>
	<path class="st1" d="M30.2,211.5c-2.4,1.5-2.6,4.3-0.9,6.5c1.7,2.6,4.1,3.2,6.5,1.5c1.2-0.9,2.2-1.9,2.4-2.7l-1.2-1
		c-0.2,0.5-1.2,1.5-1.7,1.9c-1.2,0.9-2.4,0.7-3.4-0.5l4.6-3.2c-0.3-0.3-0.7-1-1-1.5C33.8,210.2,31.7,210.3,30.2,211.5z M31,216
		c-0.9-1.5-0.7-2.4,0.2-2.9c0.9-0.7,1.7-0.2,2.4,1L31,216z"/>
	<path class="st1" d="M40.1,205.9c-2.4,1.2-3.6,3.4-2.4,6.2c1,2.6,3.1,4.3,6.2,2.9c2.4-1,3.6-3.4,2.4-6.2
		C45.2,206.2,43.2,204.5,40.1,205.9z M43.9,209.8c0.7,1.7,0.7,2.9-0.5,3.6c-1.4,0.5-2.4-0.7-3.1-2.2c-0.7-1.7-0.5-2.9,0.7-3.4
		C42.2,207.3,43.2,208.3,43.9,209.8z"/>
	<path class="st1" d="M54.5,202.3c-0.9-0.3-1.9-0.3-3.1,0c-2.6,0.5-3.9,1.7-3.4,3.9c0.2,1.2,1,1.9,2.4,2.2c-1,0.7-1.2,1.5-1,2.2
		c0,0.5,0.3,1,1,1.2c-0.7,0.5-1.2,1.4-1.2,2.4c0.3,1.7,2.2,2.2,5,1.7c2.6-0.5,4.8-2.2,4.3-4.4c-0.2-1.4-1-2.7-4.1-2l-1.5,0.3
		c-0.7,0.2-1,0.2-1.2-0.3c0-0.3,0-0.7,0.2-0.9c0.3,0,0.5-0.2,0.9-0.2c2.6-0.5,3.8-1.9,3.4-3.9c0-0.3-0.2-0.7-0.3-1l1.5-0.3l-0.3-1.9
		l-1,0.2C55.2,201.6,54.7,202,54.5,202.3z M51.9,212.2c0.2-0.2,0.3-0.2,0.5-0.2l1.4-0.3c1.9-0.5,2.2,0,2.4,0.9
		c0.2,1-0.7,1.5-2.1,1.9c-1.4,0.3-2.1-0.5-2.4-1.2C51.8,212.7,51.8,212.4,51.9,212.2z M52.4,206.9c-1,0.2-1.7-0.3-1.9-1.2
		c-0.3-1.2,0.3-1.7,1.4-1.9c1-0.2,1.7,0.2,1.9,1.2C54,206.2,53.3,206.6,52.4,206.9z"/>
	<path class="st1" d="M65.3,203.7l-0.2-2.6c-0.2-0.2-0.3-0.2-0.7-0.2c-1.2,0-2.2,0.9-2.6,1.5l-0.2-1.4h-2.2l0.2,9.9l2.6-0.2
		l-0.2-6.5c0.3-0.3,1-0.9,2.1-0.9C64.8,203.5,65.1,203.5,65.3,203.7z"/>
	<path class="st1" d="M71.5,199.4l1,1.4c0.7-0.2,3.1-1.7,3.8-2.7l-1.5-1.7C73.7,197.5,72.5,198.7,71.5,199.4z"/>
	<path class="st1" d="M73.2,211.5l1.5,0.2l0.9-6.3c0.3-2.7-0.9-3.6-3.4-3.9c-1.5-0.2-3.3,0.2-3.9,0.5l0.3,1.7
		c0.9-0.3,2.2-0.3,2.7-0.3c1.5,0.3,1.9,0.5,1.7,1.5v0.5c-1.2-0.2-2.9-0.3-3.9,0c-1.2,0.3-1.9,1-2.1,2.4c-0.2,1.7,0.9,3.2,2.7,3.4
		c1,0,2.1-0.3,2.6-0.7C72.2,211.4,72.5,211.5,73.2,211.5z M70.8,209.3c-0.7,0-1.2-0.5-1.2-1.5c0.2-0.7,0.7-0.9,1-1
		c0.5,0,1.4,0,2.1,0l-0.3,2.2C72.2,209.1,71.3,209.3,70.8,209.3z"/>
	<path class="st1" d="M80,212.9l2.2-7.3l2.1,0.7l0.5-1.7l-2.1-0.7l0.3-0.9c0.3-1,1-1.4,1.7-1.2c0.7,0.2,1,0.3,1.2,0.5l0.5-1.7
		c-0.2-0.2-0.9-0.5-1.5-0.7c-1.5-0.5-3.6-0.3-4.5,2.4l-0.3,0.9l-1.4-0.2l-0.5,1.5l1.2,0.3l-2.1,7.3L80,212.9z"/>
	<path class="st1" d="M88.1,202.8c-0.3,0.9,0,1.5,0.9,2c0.9,0.3,1.9,0,2.2-0.9c0.3-0.7,0-1.5-0.9-1.9
		C89.5,201.6,88.4,202,88.1,202.8z"/>
	<polygon class="st1" points="83.3,214.3 85.7,215.3 89.5,206.6 87.1,205.5 	"/>
	<path class="st1" d="M95.6,212c0.7,0.5,1,0.9,1.4,1.4l1.4-1.5c-0.2-0.3-0.9-1-1.9-1.7c-2.7-1.5-5.3-0.5-6.5,1.7
		c-1.4,2.2-1.2,4.8,1.4,6.3c1,0.5,2.1,0.9,2.9,0.7l0.5-1.5c-0.5,0-1.4-0.2-2.1-0.7c-1.2-0.7-1.7-2-0.5-3.8
		C93.2,211.4,94.8,211.5,95.6,212z"/>
	<path class="st1" d="M102.5,219.4c-0.9-0.7-2.2-1.7-3.3-2.1c-1-0.3-2.1-0.2-3.1,0.3c-1.2,1.4-1,3.2,0.3,4.4
		c0.7,0.7,1.7,0.9,2.4,0.9c-0.5,0.7-0.3,1,0.2,1.4l1.2,1l4.3-4.8c1.9-2,1.5-3.4-0.5-5.1c-1.2-0.9-2.9-1.5-3.6-1.7l-0.7,1.7
		c0.9,0.2,2.1,0.9,2.4,1.2c1.4,1.2,1.4,1.5,0.7,2.2L102.5,219.4z M99.9,222.3c-0.2,0.2-0.9-0.2-1.4-0.5c-0.7-0.5-0.7-1.2-0.2-1.9
		c0.5-0.5,1-0.5,1.4-0.3c0.5,0.2,1.2,0.7,1.7,1L99.9,222.3z"/>
	<path class="st1" d="M86.2,272.3c-0.2,1.2-0.2,2.2-0.2,3.6C86,275.1,86.2,273.7,86.2,272.3z"/>
	<path class="st2" d="M85.4,270.4c0,0,0,0,0,0.1c0,0.2,0,0.3,0,0.5"/>
	<line class="st2" x1="47" y1="252.2" x2="46.8" y2="252.2"/>
	<line class="st2" x1="59.6" y1="258.2" x2="59.6" y2="256.5"/>
	<path class="st2" d="M75.2,274.6c0-0.1,0-0.3,0-0.5"/>
	<line class="st2" x1="85.2" y1="273.4" x2="85.2" y2="273.5"/>
	<path class="st2" d="M45.4,252.4c0,0-0.2,0-0.5,0"/>
	<path class="st2" d="M59.6,263.3c0-0.3,0-0.6,0-0.9"/>
	<path class="st1" d="M44.7,252.2C44.8,252.2,44.8,252.2,44.7,252.2C44.8,252.2,44.8,252.2,44.7,252.2z"/>
	<path class="st1" d="M44.9,252.4c0,0,0-0.1-0.1-0.2c0,0-0.1,0.1-0.1,0.2C44.9,252.4,44.9,252.4,44.9,252.4z"/>
	<path class="st1" d="M44.3,278.9C44.3,278.9,44.4,278.9,44.3,278.9C44.4,278.8,44.4,278.8,44.3,278.9
		C44.4,278.9,44.3,278.9,44.3,278.9z"/>
	<path class="st1" d="M44.3,278.9c0,0-0.1,0.1-0.1,0.1C44.2,279,44.3,278.9,44.3,278.9z"/>
	<path class="st1" d="M85.7,236.5c-1.8,0-3.5,0-5.3,0c-0.1,0-0.2,0-0.3,0c0,0-0.1,0-0.1,0c-1.9,0-3.6,0-5.2,0c0,2.4,0,4.8,0,7.2
		c0,0.9,0,1-0.2,1.2c0-0.2,0,3.8,0,7.9c0.7,4.1,0.7,8.2,0.7,8.4l0.2,0.2c0,3.1-0.2,0.9-0.2,3.8c0.2,1.2,0,4.8,0,5.8v1.4
		c0.2,0.5,0,1.4,0,2.4c0,0.1,0,0.1,0,0.1v0.2v0.2h-0.1h0c0,0-0.1,0-0.3,0c-0.3,0-0.7,0-1,0c-0.7,0-1.4,0-2.2,0c-0.5,0-0.5,0-0.5,0
		c0-8.9,0-22.2,0-26c0,0.7,0,2.6-0.2,3.2c0-1.5,0-2.2,0-2.9c0.2-0.5,0-3.4,0.2-4.4l-0.2-0.5v-0.7c0-3.2,0-4.1,0-4.6
		c0-0.7,0-0.7,0-2.4c-0.7,0-2.1,0-4.3,0c-2.9,0-5,0-6.7,0.2c0,0.9,0,1.5,0,2.2c0,0.3,0,0.6,0,0.9c0,0,0,0.1,0,0.1c0,0.2,0,0.4,0,0.7
		c-0.2,0.2,0,2.4,0,2.7c0,0.9,0,3.8,0.2,2.7c0,0.5-0.2,2.9-0.2,1.5c0,0.4,0,0.8,0,1.2c0,0.4,0,0.8,0,1c0,1.8,0,3,0,4.3
		c0,1.7,0,3.1-0.2,3.8c0,1.6,0,2.9,0,4.3c0,1.9,0.2,8.2,0.2,13.2c-0.2,0-0.5,0-0.7,0c-0.7,0-1.4,0-1.9,0c-1.2,0-2.1,0-2.6,0l1.2,0.2
		h-2.4c0.3,0,1.2-0.3,1.4-0.3c-1.3,0-4.2,0-7.6,0c0.2-0.3,0.4-0.5,0.4-0.7c0.9-1,0,0.2,1-1c0.7-1,1.5-2.2,2.4-3.2
		c0.5-0.7,1-1.2,1.4-1.9c0.5-0.7,1-1.4,1.5-2c0-0.9,0-1.7,0-2.4c0-0.6,0-1.1,0-1.7c0-0.1,0-0.2,0-0.3c0-1.1,0-2.9,0-4.8
		c0,0.5,0,1-0.2-0.2c0-2.6,0-4.1,0-6.2v-2.4h-0.7c-2.2,0-6,0-12.3,0c0,8,0,22,0.2,30.2c1.2,0,2.4,0,3.4,0c0.2-0.3,0.7-0.8,1.1-1.4
		c0,0,0,0,0,0c-0.4,0.5-0.8,1.1-1.1,1.4c4.2,0,6.6,0,8.3,0c0.1,0,0.2,0,0.3,0c2.8,0,6.2,0,10.1,0c0-6.5,0-14.4,0-21.9
		c0-6.3,0-12.3-0.2-16.6c0,0,0,0,0.2,0c0.2,0,0.2,0,0.3,0c0.5,0,1,0,1.7,0c0.5,0,0.9,0,1.4,0h0.2c-0.2,0,0-0.2,0.2-0.2
		c0,0.5,0,0.9,0,1c0,0.3,0,0.5,0,0.5c0,0.2,0,0.2,0,3.2c0,2.6,0,8,0,14c0,6.7,0,13.8,0,19.5c4.6,0,8.4,0,10.5,0c0.2,0,0.5,0,0.9,0
		c0-3.9,0-8.2-0.2-11.8c0-4.1,0-22,0-26.1c0-0.1,0-0.1,0-0.2c0-0.1,0-0.2,0-0.3c0.2,0,0.3,0,0.3,0s0,0,0.2,0c0.2,0,0.3,0,0.5,0
		c0.3,0,0.7,0,1.2,0c-0.2,0,0.3-0.2,1-0.2c0.3,0,0.5,0,0.9,0v0.2c0,0.2,0,0.3,0,0.5c0,0.7,0,1.4,0,2.2c0,1.5,0,3.1,0,4.4
		c0,0.1,0,0.1,0,0.2c0,2.4,0,6.7,0,8.4c0,3.9-0.2,9.9,0,15.2l-0.2,3.4v0.5c0,0,2.6,5.5,3.3-1.5v-1.2c0-1.7,0-0.5,0.2,0.2
		c0-0.5,0-0.9,0-1.4c0-0.9-0.2-2,0-3.2c0-1.7,0.2-0.2,0.2-2C85.5,255.9,85.7,246.4,85.7,236.5z M47,275.4c0,0-0.1,0-0.1,0
		c0.1-0.1,0.3-0.3,0.6-0.7C47.6,274.7,47.4,275,47,275.4z M44.2,252.5c0-0.5,0.2,0,0.2,0c0-0.3,0-0.3,0-0.3s0,0,0.3,0h2.1
		c0.3,0,0.7,0,1.2-0.2c0.3,0,0.7,0,1,0c0.2,0,0.5,0,0.7,0s0.2,0,0.3,0s0.3,0,0.5,0c0,3.4,0,7,0,10.4c0,0,0-1-0.2-1.9
		c0,0.5,0,1.4,0,1.9c0-1,0,1.7,0.2,1c0,0.7,0,1.4,0,1.9c-0.7,0.9-1.4,1.9-2.1,2.7c-0.9,1-1.5,2.1-2.1,2.9c0,0.2-0.5,2.6-0.8,4.4
		c-0.5,0-1,0-1.5,0C44.2,266.5,44.2,255.3,44.2,252.5z"/>
	<path class="st1" d="M191.6,382.9c-0.2,0.9-0.2,1.7-0.2,3.1C191.4,385.3,191.6,384.1,191.6,382.9z"/>
	<path class="st2" d="M191.8,350.9c0,0.1,0,0.2,0,0.3"/>
	<line class="st2" x1="191.3" y1="384.6" x2="191.3" y2="384.8"/>
	<line class="st2" x1="220.8" y1="377.9" x2="220.8" y2="377.6"/>
	<line class="st2" x1="218.2" y1="388.7" x2="218" y2="388.7"/>
	<path class="st2" d="M191.4,381.8c0,0,0,0,0,0.1c0,0.2,0,0.3,0,0.5"/>
	<line class="st2" x1="207.7" y1="350.6" x2="207.7" y2="352.1"/>
	<path class="st2" d="M195.6,366.5c0-0.1,0-0.3,0-0.3"/>
	<path class="st2" d="M220.9,362.7c0-0.7,0-1.5,0-1.7"/>
	<path class="st1" d="M204.2,373.5c0,0.1,0,0.2,0,0.5C204.1,373.8,204.2,373.7,204.2,373.5z"/>
	<path class="st1" d="M224.2,376.4c-0.2-2.7,0-6.2-0.2-8.5c-0.2-0.2-2.9-5.1-3.1-5.1c0,0.1,0,0.1,0,0.2c0,0.2,0,0.4,0,0.5
		c0,1.1,0,2.1,0,2.6c0,1.2-0.2-0.2-0.2,1.4c0,1,0.2,2.4,0,3.6c-0.2,2.9,0.2,4.3,0,7c0,1,0,2.6,0,4.1c0-0.5,0-0.9,0.2,0.2
		c0,1,0,1.7,0,2.6c0,0.2,0,0.3,0,0.5v0.3c-0.9,0-2.4,0-5.3,0c0-8-0.2-23.9-0.2-28.9c0-3.4,0-7.7,0-12.5c-3.6,0-7.4,0-11.3,0
		c0,8.9,0,18.3,0.2,24.3c0,1.4,0,3.4-0.1,4.9c0.1-0.1,0.1,0.1,0.1,0.7c0,5.1,0,0.3,0.2,5.5c0,1.4,0,3.6,0,6.3c-1.7,0-3.6,0-5.5,0
		c0-6.8,0-13.7,0.2-16.2c-0.2-2.9,0-6.5-0.2-9.2c0-2.5,0-9.9,0-16.1c-4.6,0-8.7,0-11,0c0,0.3,0,0.5,0,0.7c0,0.4,0,0.6,0,0.9
		c0,0.9,0,1.5,0,2c0,0.3,0,0.7,0,1c0,0.5,0,1-0.2,2.2c0.2-0.3,0.2,2.2,0.2,3.2c0,1.5,0.2,5,0.2,7.3c0,2.1,0,5.8,0,7.3
		c0,3.4-0.2,8.7,0,13.2l-0.2,2.9v0.5c0,0,2.6,4.8,3.3-1.2v-1c0-0.1,0-0.1,0-0.2c0-1.4,0-0.5,0.2,0.2c0-0.4,0-0.8,0-1.2
		c0-0.7-0.2-1.9,0-2.7c0-1.5,0.2-0.2,0.2-1.9c0-9.1,0-17.8,0.2-26.8c0,0,0-0.1,0-0.1c0-0.8,0-1.6,0-2.3V348h0.3c0.7,0,0.9,0,1,0.2
		c0,0,0.3,0,1.2,0c0.3,0,0.7,0,1,0c0.2,2.2,0.2,6.5,0.2,6.7l0.2,0.2c0,2.7-0.2,0.9-0.2,3.2c0.2,1,0,4.1,0,5v1.2c0.2,0.3,0,1.2,0,2
		c0,0.1,0,0.1,0,0.1v1.3c0,0.7-0.2,0.9-0.2,0.2c0,2.9,0,12.3-0.2,20.8c4.6,0,9.3,0,12.7,0c0-1.1,0-2.2,0-3.1c0-0.2,0-0.3,0-0.5
		c0-0.2,0-0.3,0-0.5c0-0.1,0-0.1,0-0.2c0-0.2,0-0.5,0-0.7c0-0.4,0-0.7,0-1c0.2-0.5,0-2.9,0.2-3.9l-0.2-0.3v-0.7
		c-0.2-5.8,0-1.4,0-6.5c0-2.9-0.2-4.4-0.2-6c0,0.2,0,0.9-0.2,0.2c0.2-0.2,0-2,0-2.4c0-0.7,0-3.2-0.2-2.4c0-0.3,0.2-2.6,0.2-1.4
		c0-0.3,0-0.7,0-1s0-0.7,0-1c0-1.5,0-2.5,0-3.6c0-1.5,0-2.7,0.2-3.2c0-0.6,0-1.1,0-1.5c0-0.5,0-0.9,0-1.4v-0.2v-0.2
		c0-0.1,0-0.1,0-0.2h0.2h0.3c0.3,0,0.7,0,1,0c0.7,0,1.4,0,2.1,0c0.2,0,0.3,0,0.5,0c0-0.2,0,2.7,0.2,4.3c0,1.7,0,3.1,0.2,3.6l0.2-1
		v2.1c0-0.2-0.3-1-0.3-1.2c0,4.6,0,28.2,0,32.5c0,0.2,0,0.4,0,0.5c0,0.5,0,0.9,0,0.9c2.4,0,1-0.2,3.8,0c0.5,0,0,0-0.7,0.2
		c0.5,0,0.9,0,1.2,0c0.3,0,0.5,0,0.5,0c-0.9,0-0.5-0.2-0.9-0.2h2.1c0.2,0,0.5,0,1-0.2c0.3,0,0.5,0,1,0c0.2,0,0.3,0,0.7,0
		c0.3,0,0.7,0,1.2,0c0.7,0,1.5,0,2.2,0c0-3.6,0-7.5,0-11.1c0,0,0,0.9,0.2,1.5c0-0.5,0-1.2,0-1.7
		C224.4,378.1,224.4,375.7,224.2,376.4z M221.1,365.8c-0.2,0.2-0.2-1.1-0.2-2.4l0.2,0.2C221.1,365.3,221.1,363.9,221.1,365.8z"/>
	<path class="st1" d="M221.8,82.7c0-0.7,0.2-1.9,0.2-3.1C221.8,80.5,221.6,81.3,221.8,82.7z"/>
	<path class="st2" d="M222.3,46.1c0,0.1,0,0.2,0,0.3"/>
	<line class="st2" x1="189.7" y1="51.9" x2="189.7" y2="52.1"/>
	<path class="st2" d="M222,77.3c0,0,0,0,0,0.1c0,0.2,0,0.3,0,0.5"/>
	<line class="st2" x1="193.3" y1="66.5" x2="193.3" y2="66.8"/>
	<path class="st2" d="M198.6,40.5c0,0.1,0,0.2,0,0.3"/>
	<line class="st2" x1="221.8" y1="80" x2="221.8" y2="80.1"/>
	<path class="st2" d="M193.2,81.7c0,0.7,0,1.5,0,1.7"/>
	<line class="st2" x1="202.1" y1="65.3" x2="202.1" y2="66.8"/>
	<path class="st2" d="M202.1,61.3c0-0.2,0-0.4,0-0.7"/>
	<path class="st2" d="M208.9,46c0-0.1,0-0.3,0-0.3"/>
	<path class="st1" d="M189.7,46.8c0,1.7-0.2,0.3-0.2,0.3c0,2.1,0.2,0.9,0.2,2.6c0,0.5,0-0.2-0.2-0.3c0,0.7,0,1.5,0,1.5
		c0-1,0.2-0.5,0.2-1v2.1c0,0.5,0.2,1.2,0.2,3.4c0,3.8,0,7.7,0,11.4c0,0,0-0.9-0.2-1.5c0,0.5,0,1.2,0,1.7c0-0.9,0,1.5,0.2,0.9
		c0.2,2.7,0,6.3,0.2,8.7c0.2,0.2,2.9,5.1,3.1,5.1c0-0.1,0-0.1,0-0.2c0-0.2,0-0.4,0-0.5c0-1.1,0-2.1,0-2.6c0-1.2,0.2,0.2,0.2-1.4
		c0-1-0.2-2.4,0-3.6c0.2-2.9-0.2-4.4,0-7c0-1,0-2.6,0-4.1c0,0.5,0,0.9-0.2-0.2c0-1.9,0-3.2,0-4.6v-1.4c0-3.6,0-13.7,0-21.2
		c1.4,0,2.4,0,3.4,0c0.7,0,1.4,0,1.9,0h0.2c0,2.9,0,4.5,0,5.5c0,10.6,0.2,32.1,0.2,43.1c0,0.3,0,0.9,0,1.2c2.2,0,4.6,0,6.7,0
		c-1,0-0.7-0.2,0.2-0.2c2.6,0,2.7,0,2.7,0s0.2,0,0.3,0c0.5,0,1.5,0,3.6,0c0-0.2,0-0.3,0-0.7c0-3.2,0-11.1,0-19
		c0-7.2,0-14.4,0.2-17.1c-0.2-2.9,0-6.5-0.2-9.4c0-0.8,0-2.2,0-3.9c1.9,0,4.1,0,6.2,0c0,2.8,0,5.3,0,6.7c0,3.1,0,2.7-0.2,5.1
		c0.2-0.3,0.2,2.4,0.2,3.4c0,1.5,0.2,5,0.2,7.5c0,2.1,0,5.8,0,7.3c0,3.4-0.2,8.7,0,13.3l-0.2,2.9v0.5c0,0,2.6,4.8,3.3-1.4v-1
		c0-1.4,0-0.5,0.2,0.2c0-0.4,0-0.8,0-1.2c0-0.9-0.2-1.9,0-2.7c0-1.5,0.2-0.2,0.2-1.9c0-9.1,0-17.9,0.2-27.2c0,0,0-0.1,0-0.1
		c0-2.6,0-5,0-7.5c0-0.7,0-0.9,0.2-1c0,0,0-0.3,0-1.2c0-1.4,0-3.1,0-5.1c-4.8,0-11,0-13.2,0c-0.5,1-0.5,1.4-0.5,1.5l0.2,0.5
		c0,1.2,0,1.9,0,2.4c0,0.2,0,0.3,0,0.3c0,0.2,0,0.3,0,1.5c0.2,1,0,4.3,0,5.1v1.2c0.2,0.3,0,1.2,0,2.1c0,0.1,0,0.1,0,0.1v1.3
		c0,0.7-0.2,0.9-0.2,0.2c0,4.6-0.2,27.2-0.2,32.1c0-0.7,0-2.2,0.2-2.7c0,1.4,0,1.9,0,2.6c-0.2,0.2-0.2,1-0.2,1.7v0.3c0,0,0,0-0.2,0
		h-0.2c-0.2,0-0.2,0-0.3,0c-0.5,0-0.9,0-1,0c-0.5,0-0.7,0-0.7,0c-0.2,0-0.5,0-3.1,0c-0.3,0-0.5,0-0.9,0c0,0-0.1,0-0.1,0h-0.1
		c0,0,0,0,0-0.2V81c0-0.2,0-0.5,0-0.7c0,0.2,0,0.9-0.2,0.2c0.2-0.2,0-2.1,0-2.4c0-0.7,0-3.2-0.2-2.4c0-0.3,0.2-2.6,0.2-1.4
		c0-0.3,0-0.7,0-1c0-0.4,0-0.8,0-1c0-1.5,0-2.6,0-3.6c0-1.5,0-2.7,0.2-3.4c0-1.4,0-2.5,0-3.9c-0.2-2.6-0.2-16.4-0.3-19l-0.2,1.2
		v-2.1c0,0.2,0.3,1,0.3,1.2c0-1.7,0-5.8,0-10.8c-3.8,0-8.1,0-12.2,0C189.7,38.6,189.7,44.8,189.7,46.8z M193,78.6
		c0.2-0.1,0.2,1.1,0.2,2.4l-0.2-0.2C193,79.1,193,80.5,193,78.6z"/>
	<path class="st2" d="M224.7,355.6c0,0,0,0,0,0.1c0.1-0.1,0.1-0.1,0.1-0.1"/>
	<path class="st2" d="M224.7,346.2c0,0,0,0,0.2,0"/>
	<path class="st2" d="M224.5,345.3c0,0,0,0,0.2,0"/>
	<path class="st1" d="M225,352.9c0,0,0,0.1,0.1,0.1C225,352.9,225,352.9,225,352.9z"/>
	<path class="st1" d="M225,353c-0.1-0.1-0.1-0.1-0.1-0.1c0-0.1,0-0.2-0.1-0.2c-0.2,0,0,0,0-0.2h0.2c0-0.2,0.2-1.2,0.2-1.5
		c0,0,0,0.2-0.2,0.2v-0.2c0.2,0,0-0.2,0.2-0.2H225c-0.2-0.3,0,0,0-0.3c0-0.2-0.2-0.2-0.2-0.3c0,0,0,0-0.2,0c0.2,0,0-0.2,0-0.2
		s0-0.2-0.2-0.2c0,0,0.2-0.2,0.2,0c0,0,0,0,0-0.2s0-0.2,0-0.2s0-0.2,0.2-0.2c0-0.2,0-0.2,0-0.3c-0.2-0.2-0.2-0.7-0.3-0.9h-0.2v-0.2
		h0.3c0-0.2,0-1.4,0-1.5h0.2c0-0.2-0.2,0-0.2-0.2V346c0,0-0.2,0-0.2-0.2c0-0.2,0-0.3,0-0.5c-0.2-0.2,0-0.3-0.2-0.3
		c-0.2,0-2.9-0.2-3.1-0.2c0,0,0,0,0,0.2h0.2c0,0,0,0,0,0.2c-0.2,0-0.2,0-0.2-0.2v0.2h-0.2c0,0,0.2,0.2,0,0.2c-0.2,0.2,0.2,0.2,0,0.3
		v0.2c0,0,0,0,0.2,0c0,0.2,0,0.2,0,0.2c0,0.3,0.2,1.5,0.2,1.9c0,0.5,0,1.4,0.2,1.9c0,0,0,0.2-0.2,0.3h0.2c0,0.2,0,0,0.2,0.3
		c0,0.3,0,1.4,0,1.5c0.2,0.2,0,0.3,0.2,0.5c0,0.2,0,0.9,0,1s0,0.2-0.2,0.2c0.2,0,0.2,0.2,0.2,0.2s0.2,0.2,0.2,0.3c0,0.2,0,0.3,0,0.3
		c0,0.2-0.2,0.3,0,0.7l-0.2,0.2c0,0,2.6,0.2,3.3,0c0,0,0,0,0.2,0c0,0-0.2-0.2,0-0.2h0.2c0-0.3,0.2-0.9,0.2-1.2c0-0.2,0-0.2,0-0.3
		c0,0,0,0,0.2,0C225,353.7,225,353,225,353z"/>
	<path class="st1" d="M351.7,192c0,0.5,0.3,0.9,0.9,0.9c0.5,0,0.9-0.5,0.9-0.9v-3.4c0-0.5-0.3-0.9-0.9-0.9c-0.5,0-0.9,0.3-0.9,0.9
		V192z"/>
	<path class="st1" d="M352.6,183.3c0.5,0,0.9-0.3,0.9-0.9v-6.2c0-0.5-0.3-0.9-0.9-0.9c-0.5,0-0.9,0.3-0.9,0.9v6.2
		C351.7,183,352,183.3,352.6,183.3z"/>
	<path class="st1" d="M351.7,167.3v3c0,0.5,0.3,0.9,0.9,0.9c0.5,0,0.9-0.3,0.9-0.9v-3c-0.3,0.1-0.6,0.1-0.9,0.1
		S352,167.4,351.7,167.3z"/>
	<path class="st1" d="M349.6,164.5c0,1.3,0.9,2.4,2.1,2.8c0.3,0.1,0.6,0.1,0.9,0.1s0.6-0.1,0.9-0.1c1.2-0.4,2.1-1.5,2.1-2.8
		c0-1.6-1.3-2.9-2.9-2.9C350.9,161.6,349.6,162.9,349.6,164.5z"/>
	<path class="st1" d="M270.6,377.3c-0.5,0-0.9,0.3-0.9,0.9c0,0.5,0.3,0.9,0.9,0.9h3.4c0.5,0,0.9-0.3,0.9-0.9c0-0.5-0.3-0.9-0.9-0.9
		H270.6z"/>
	<path class="st1" d="M280.1,377.3c-0.5,0-0.9,0.3-0.9,0.9c0,0.5,0.3,0.9,0.9,0.9h6.2c0.5,0,0.9-0.3,0.9-0.9c0-0.5-0.3-0.9-0.9-0.9
		H280.1z"/>
	<path class="st1" d="M292.2,379h3.2c-0.1-0.3-0.1-0.6-0.1-0.9c0-0.3,0.1-0.6,0.1-0.9h-3.2c-0.5,0-0.9,0.3-0.9,0.9
		C291.4,378.6,291.7,379,292.2,379z"/>
	<path class="st1" d="M295.5,379c0.4,1.2,1.5,2,2.8,2c1.6,0,2.9-1.3,2.9-2.9c0-1.6-1.3-2.9-2.9-2.9c-1.3,0-2.4,0.9-2.8,2.1
		c-0.1,0.3-0.1,0.6-0.1,0.9C295.3,378.4,295.4,378.7,295.5,379z"/>
	<path class="st1" d="M60.2,195.8v3.4c0,0.5,0.3,0.9,0.9,0.9c0.3,0,0.9-0.5,0.9-0.9v-3.4c0-0.5-0.3-0.9-0.9-0.9
		C60.5,194.9,60.2,195.3,60.2,195.8z"/>
	<path class="st1" d="M61.9,183.5c0-0.5-0.3-0.9-0.9-0.9c-0.5,0-0.9,0.3-0.9,0.9v6.2c0,0.5,0.3,0.9,0.9,0.9c0.3,0,0.9-0.3,0.9-0.9
		V183.5z"/>
	<path class="st1" d="M61.9,174.5c-0.3,0.1-0.6,0.1-0.9,0.1c-0.3,0-0.6-0.1-0.9-0.1v3c0,0.5,0.3,0.9,0.9,0.9c0.3,0,0.9-0.3,0.9-0.9
		V174.5z"/>
	<path class="st1" d="M61.9,174.5c1.2-0.4,2.1-1.5,2.1-2.8c0-1.6-1.3-2.9-2.9-2.9c-1.6,0-2.9,1.3-2.9,2.9c0,1.3,0.9,2.4,2.1,2.8
		c0.3,0.1,0.6,0.1,0.9,0.1C61.3,174.6,61.6,174.6,61.9,174.5z"/>
	<path class="st1" d="M138.3,378.6c-0.5,0-0.9,0.3-0.9,0.9c0,0.5,0.3,0.9,0.9,0.9h3.4c0.5,0,0.9-0.3,0.9-0.9c0-0.5-0.3-0.9-0.9-0.9
		H138.3z"/>
	<path class="st1" d="M126,378.6c-0.5,0-0.9,0.3-0.9,0.9c0,0.5,0.3,0.9,0.9,0.9h6.2c0.5,0,0.9-0.3,0.9-0.9c0-0.5-0.3-0.9-0.9-0.9
		H126z"/>
	<path class="st1" d="M116.9,378.6c0.1,0.3,0.1,0.6,0.1,0.9c0,0.3-0.1,0.6-0.1,0.9h3.1c0.5,0,0.9-0.3,0.9-0.9c0-0.5-0.3-0.9-0.9-0.9
		H116.9z"/>
	<path class="st1" d="M116.9,378.6c-0.4-1.2-1.5-2.1-2.8-2.1c-1.6,0-2.9,1.3-2.9,2.9c0,1.6,1.3,2.9,2.9,2.9c1.3,0,2.4-0.9,2.8-2
		c0.1-0.3,0.1-0.6,0.1-0.9C117.1,379.2,117,378.9,116.9,378.6z"/>
	<path class="st1" d="M246.6,56.4c0,0.5,0.3,0.8,0.8,0.9c0,0,0,0,0,0h3.4c0.5,0,0.9-0.3,0.9-0.9c0-0.5-0.3-0.9-0.9-0.9h-3.4
		c0,0-0.1,0-0.1,0C246.9,55.6,246.6,55.9,246.6,56.4z"/>
	<path class="st1" d="M263.1,57.2c0.5,0,1-0.3,1-0.9c0-0.5-0.3-0.9-0.9-0.9h-6.2c-0.5,0-0.9,0.3-0.9,0.9c0,0.5,0.3,0.9,0.9,0.9
		H263.1z"/>
	<path class="st1" d="M272.3,57.2c-0.1-0.3-0.1-0.6-0.1-0.9c0-0.3,0.1-0.6,0.1-0.9h-3.1c-0.5,0-0.9,0.3-0.9,0.9
		c0,0.5,0.3,0.9,0.9,0.9H272.3z"/>
	<path class="st1" d="M272.3,57.2c0.4,1.2,1.5,2.1,2.8,2.1c1.6,0,2.9-1.3,2.9-2.9c0-1.6-1.3-2.9-2.9-2.9c-1.3,0-2.4,0.9-2.8,2.1
		c-0.1,0.3-0.1,0.6-0.1,0.9C272.2,56.7,272.2,57,272.3,57.2z"/>
	<path class="st1" d="M164.5,57.8c0-0.3-0.1-0.6-0.4-0.7c-0.1-0.1-0.3-0.1-0.5-0.1h-3.4c-0.5,0-0.9,0.3-0.9,0.9
		c0,0.5,0.3,0.9,0.9,0.9h3.4c0.1,0,0.3-0.1,0.5-0.2C164.4,58.3,164.5,58.1,164.5,57.8z"/>
	<path class="st1" d="M154.1,58.6c0.5,0,0.9-0.3,0.9-0.9c0-0.5-0.3-0.9-0.9-0.9h-6.2c-0.5,0-0.9,0.3-0.9,0.9c0,0.5,0.3,0.9,0.9,0.9
		H154.1z"/>
	<path class="st1" d="M138.9,58.6h3.1c0.5,0,0.9-0.3,0.9-0.9c0-0.5-0.3-0.9-0.9-0.9h-3.1c0.1,0.3,0.1,0.6,0.1,0.9
		S138.9,58.3,138.9,58.6z"/>
	<path class="st1" d="M138.9,58.6c0.1-0.3,0.1-0.6,0.1-0.9s-0.1-0.6-0.1-0.9c-0.4-1.2-1.5-2.1-2.8-2.1c-1.6,0-2.9,1.3-2.9,2.9
		c0,1.6,1.3,2.9,2.9,2.9C137.4,60.7,138.5,59.8,138.9,58.6z"/>
</g>
</svg>
