<?xml version="1.0" encoding="utf-8"?>
<!-- Generator: Adobe Illustrator 25.2.3, SVG Export Plug-In . SVG Version: 6.00 Build 0)  -->
<svg version="1.1" id="Capa_1" xmlns="http://www.w3.org/2000/svg" xmlns:xlink="http://www.w3.org/1999/xlink" x="0px" y="0px"
	 viewBox="0 0 392.1 913.8" style="enable-background:new 0 0 392.1 913.8;" xml:space="preserve">
<style type="text/css">
	.st0{fill:#FFFFFF;}
</style>
<path class="st0" d="M4,618.6c4.3,31,12.9,62.6,33,86.6c22.8,27.3,57.5,41.4,91.4,52.4c7.5,2.4,15.5,5.1,19.9,11.7
	c3,4.6,3.7,10.3,3.9,15.7c0.5,27.1-10.3,53.1-29.8,71.8c-6.4,6-14.3,14.5-9.9,22.1c2.6,4.5,8.4,5.8,13.5,6.7
	c15.5,2.6,33.9,4.3,44.3-7.5c6.2-7,7.5-17,8.5-26.3c3-27.1,6-54.3,9-81.4V770c8.8-2.5,13.5,10,13.6,19.2c0.1,22.7-2.5,45.3-7.7,67.4
	c-2.9,12.2-6.6,24.9-3.7,37.1s15.4,23.2,27.4,19.4c11.9-3.9,15.6-18.7,17.1-31.2c4.5-37.1,7.5-74.4,8.8-111.8
	c37.6-9.3,77-19.6,105.2-46.1c25.5-23.9,38.8-58.7,42.4-93.5c4.8-46.8-5.4-93.6-17.8-138.4c-6.6-23.8-13.7-47.4-21.4-70.9
	c-2.4-7.3-19.2-69.5-24.7-69.8c12.8,0.8,20.3-14.2,22.9-26.8c6.1-28.8,4.6-61.6-14.6-83.9c-16.9-19.5-44.8-27.7-59.7-48.9
	c-22.3-31.8-5.2-76-13.4-114C250.8,24.7,189.3-5.9,135.4,1c-35.2,4.5-70.3,23.7-85.2,55.9C26.7,107.7,59.9,169,45,223
	c-7.4,26.9-26.4,50.4-29,78.2c-1.7,18.5,4,36.8,6.1,55.3c3.9,35-5.7,70-12.3,104.6C-0.2,513-3.3,566.3,4,618.6z M115.9,187.2
	c-3,1.4-6.2,2.8-9.6,2.6c-6.7-0.4-11.3-6.8-14.5-12.7c-18.6-34.5-23.4-74.8-13.7-112.8c2.8-10.6,7.1-21.5,15.7-28.4
	c3.3,14,14.3,25,26.5,32.7s25.8,12.7,38.4,19.8C210,117.6,148.3,171.8,115.9,187.2z M190.5,187.9c-2.6,3.1-5.1,6.1-7.7,9.2
	c-5.8,7.2-13.3,12.9-21.8,16.6c-12,5.2-24.2,9.9-36.4,14.8c-1.6,0.6-3.2,1.1-4.9,1.6c-0.2-0.2-0.4-0.4-0.6-0.7
	c6-9.9,8.1-20.9,10.3-32c0.4-1.2,1.2-2.3,2.2-3.1c11-9,22.4-17.6,33.1-27c6.1-5.4,11.3-11.9,17-17.8c1-1,2.6-1.3,3.9-2
	c0.6,1.1,1.2,2.3,1.5,3.5c0.7,4.6,1.3,9.3,1.9,14c0.8,6,1.4,12,2.4,17.9C191.8,185.1,191.8,186.5,190.5,187.9z M210.1,846.3
	c3.5-17.4,4.2-35.2,5.5-52.8c0.5-7.3,1.2-14.7,1.8-22.3c4.2-0.2,8.4-0.4,12.9-0.6c0.1,1.2,0.1,2.4,0,3.7
	c-1.9,16.7-3.9,33.3-5.6,50.1c-0.8,8.3-0.9,16.7-1.3,25.1c-0.1,3-3.2,7-6,7.9c-3.7,1.1-6.5-0.5-7.1-4.3
	C209.8,850.7,209.7,848.5,210.1,846.3L210.1,846.3z M153.6,841.6c0.4-5.5,1.7-10.9,2.6-16.4c2.4-14.2,5.3-28.4,5.3-43
	c0-5.8,0-11.6,0-17.8c3.5,0.7,7.1,1.6,10.7,2.1c2,0.3,2.8,1.1,2.6,3.2c-0.5,6.5-0.9,13.1-1.3,19.6c-1.2,17.2-2.5,34.3-3.5,51.5
	c-0.2,4.1-2.3,6.4-5.6,8c-2.7,1.3-5.8,1.2-7.8-0.8C155,846.4,153.4,843.7,153.6,841.6L153.6,841.6z M58.2,332.1
	c10.4-32.2,24.9-66.2,54.5-82.5c14.3-7.9,30.8-10.9,46.5-15.7c8.4-2.6,16.9-6,24.3-10.7c9.6-6.2,22.4-3.7,28.9,5.7
	c17,24.7,45.1,62.7,48.8,68.9c19.7,33,37.3,67.2,52.6,102.4c30.4,69.8,60.5,150.7,55,228.1c-2.3,31.6-13.3,63.7-36.6,85.3
	c-19.9,18.4-46.7,27.6-73.5,31.9c-47.8,7.8-97.4,1.7-143-14.5c-29.3-10.4-58.5-26.4-74.3-53.2c-11-18.7-14.3-40.8-16.4-62.3
	C16.2,520.1,28.8,423.2,58.2,332.1z"/>
<path class="st0" d="M328.8,558.7c-0.1,7.7,6.1,14,13.9,14.1c7.7,0.1,14-6.1,14.1-13.9c0.1-7.6-6-13.9-13.6-14.1
	C335.3,544.7,328.9,550.9,328.8,558.7C328.8,558.6,328.8,558.6,328.8,558.7z"/>
<path class="st0" d="M304.1,690.7c0,7.5,6.1,13.6,13.6,13.6h0.1c7.9-0.1,13.7-5.9,13.7-13.6c0.1-7.5-6-13.7-13.5-13.7
	c-0.1,0-0.3,0-0.4,0c-7.4,0-13.5,5.9-13.5,13.4C304.1,690.5,304.1,690.6,304.1,690.7z"/>
<path class="st0" d="M109.2,698c0.2,7.5,6.3,13.4,13.8,13.3s13.4-6.3,13.3-13.8c-0.1-7.4-6.3-13.4-13.7-13.3
	c-7.5,0-13.5,6.1-13.4,13.6C109.2,697.9,109.2,698,109.2,698z"/>
<path class="st0" d="M131.9,628.3c-0.1,7.4,5.9,13.6,13.3,13.7c7.4,0.1,13.4-5.9,13.5-13.2c0-0.1,0-0.2,0-0.2
	c-0.1-7.4-6.1-13.4-13.5-13.5C137.8,615,131.9,620.9,131.9,628.3z"/>
<path class="st0" d="M49.9,628.8c0,7.2,5.9,13.1,13.1,13.1c7.3,0.1,13.3-5.8,13.3-13.1c0.1-7.3-5.8-13.3-13.1-13.3
	s-13.3,5.8-13.3,13.1C49.9,628.7,49.9,628.8,49.9,628.8z"/>
<path class="st0" d="M240.7,427.1c0.2,7,6,12.5,13,12.4c6.9-0.2,12.3-5.8,12.4-12.7c0-7-5.6-12.7-12.7-12.7c-7,0-12.7,5.6-12.7,12.7
	C240.7,426.9,240.7,427,240.7,427.1z"/>
<path class="st0" d="M203.8,300.8c0.1,6.9,5.8,12.5,12.7,12.4c6.9-0.1,12.5-5.8,12.4-12.7c0-0.1,0-0.1,0-0.2
	c-0.2-6.9-5.9-12.4-12.9-12.2C209.2,288.4,203.7,294,203.8,300.8z"/>
<path class="st0" d="M92.5,427.4c-0.1,6.2,4.9,11.3,11.1,11.4c0.1,0,0.3,0,0.4,0c6.5-0.2,11.6-5.5,11.5-11.9c0.1-6-4.8-11-10.8-11.1
	c-0.1,0-0.2,0-0.3,0C97.9,415.8,92.6,420.9,92.5,427.4z"/>
<path class="st0" d="M289.5,605.6c0,6,4.9,10.8,10.9,10.8h0.1c6.1,0,10.8-5,10.7-11.5c-0.2-5.8-5.1-10.4-10.9-10.3
	C294.4,594.6,289.5,599.5,289.5,605.6C289.5,605.5,289.5,605.6,289.5,605.6z"/>
<path class="st0" d="M134.4,506.4c0.1,5.3,4.6,9.5,9.9,9.4h0.1c5.2-0.1,9.4-4.4,9.3-9.7c0-0.1,0-0.3,0-0.4
	c-0.3-5.3-4.9-9.4-10.2-9.1C138.4,496.9,134.3,501.3,134.4,506.4z"/>
<path class="st0" d="M82.6,335.8c-0.1,5.2,4.1,9.5,9.4,9.5c5.2,0.1,9.5-4.1,9.5-9.4c0.1-5.1-4-9.4-9.2-9.5c-5.2-0.2-9.6,3.9-9.7,9.1
	C82.7,335.7,82.6,335.8,82.6,335.8z"/>
<path class="st0" d="M222.8,686.8c0.1,5.2,4.4,9.4,9.6,9.3s9.4-4.4,9.3-9.6l0,0c-0.1-5.2-4.3-9.4-9.6-9.4
	C226.9,677.2,222.7,681.5,222.8,686.8C222.8,686.7,222.8,686.8,222.8,686.8z"/>
<path class="st0" d="M243.9,525.8c0,5.1,4.1,9.2,9.2,9.2c5.1,0,9.2-4.1,9.2-9.2c0-5-4-9-9-9C248.2,516.6,244,520.6,243.9,525.8
	C243.9,525.7,243.9,525.7,243.9,525.8z"/>
<path class="st0" d="M305.6,488.8c0,5,4.1,9,9.1,8.9c5,0,9-4.1,8.9-9.1l0,0c-0.1-5-4.2-8.9-9.2-8.9
	C309.5,479.9,305.6,483.9,305.6,488.8z"/>
<path class="st0" d="M164.5,365.1c0.1,4.6,4,8.3,8.6,8.2c4.7-0.1,8.4-3.9,8.3-8.6s-3.9-8.4-8.6-8.3S164.4,360.4,164.5,365.1
	C164.5,365,164.5,365.1,164.5,365.1z"/>
<path class="st0" d="M101,542.3c-0.1,4.5,3.5,8.3,8,8.4c4.5,0.1,8.3-3.5,8.4-8s-3.5-8.3-8-8.4h-0.1
	C104.8,534.2,101.1,537.7,101,542.3C101,542.2,101,542.3,101,542.3z"/>
<path class="st0" d="M63.6,488.9c-0.1,4,3.1,7.3,7.1,7.3c0.1,0,0.2,0,0.3,0c4.1,0,7.4-3.3,7.3-7.4c0-4.1-3.3-7.4-7.4-7.3
	C66.9,481.5,63.6,484.8,63.6,488.9L63.6,488.9z"/>
<path class="st0" d="M182.4,447.5c0.1,3.9,3.4,7.1,7.3,7s7.1-3.4,7-7.3c0-0.1,0-0.1,0-0.2c-0.2-3.9-3.5-7-7.5-6.8
	C185.3,440.3,182.3,443.6,182.4,447.5z"/>
<path class="st0" d="M144.7,288.7c-0.1,3.4,2.5,6.2,5.9,6.3c0.1,0,0.1,0,0.2,0c4,0.1,7.3-3.1,7.3-7.1l0,0c0.1-3.8-2.2-6.4-5.9-6.5
	C148.2,281.4,144.8,284.6,144.7,288.7z"/>
<path class="st0" d="M206.5,617.3c-0.1,3,2.3,5.5,5.3,5.6c0.1,0,0.2,0,0.3,0c3.1-0.1,5.6-2.7,5.6-5.8c0.1-2.9-2.1-5.3-5-5.4
	c-0.2,0-0.3,0-0.5,0C209.2,611.7,206.6,614.1,206.5,617.3L206.5,617.3z"/>
<path class="st0" d="M55.5,562.5c-0.1,3.2,2.4,5.8,5.6,5.9c0.1,0,0.1,0,0.2,0c2.9,0.2,5.4-2,5.6-4.9c0-0.1,0-0.2,0-0.3
	c-0.1-3.2-2.6-5.8-5.8-6.1C58,557.1,55.6,559.5,55.5,562.5z"/>
<path class="st0" d="M186.5,542.7c-0.1,2.4,1.8,4.5,4.2,4.6c0.1,0,0.3,0,0.4,0c2.5,0,4.6-2,4.6-4.5v-0.1c-0.2-2.6-2.4-4.5-4.9-4.3
	C188.5,538.4,186.6,540.4,186.5,542.7z"/>
</svg>
