<?xml version="1.0" encoding="utf-8"?>
<!-- Generator: Adobe Illustrator 25.2.3, SVG Export Plug-In . SVG Version: 6.00 Build 0)  -->
<svg version="1.1" id="Capa_1" xmlns="http://www.w3.org/2000/svg" xmlns:xlink="http://www.w3.org/1999/xlink" x="0px" y="0px"
	 viewBox="0 0 400.2 921.8" style="enable-background:new 0 0 400.2 921.8;" xml:space="preserve">
<style type="text/css">
	.st0{fill:#FFFFFF;}
</style>
<path class="st0" d="M394.1,474.7c-8-62.8-20.9-130.4-50.8-186.7c-3.3-6.3-21.3-43.8-28.4-43.9c13,0.1,26-1.4,38.7-4.5
	c3.9-1,8-2.2,11-5c8.8-8.3,2.5-22.8-4.1-32.8c7.9-1.8,16.1-3.8,22.1-9.2s8.9-15.2,4.1-21.7c-2.1-2.8-5.4-4.8-6-8.2
	c-1.4-7.4,10.1-9.6,15-15.4c5.6-6.5,1.6-16.4-1.8-24.2c-5.7-12.9-9.5-26.5-11.5-40.5c-1.3-9.6-1.8-19.5-5.7-28.3
	c-7-15.8-25.1-12.9-33.3-26.4c-1.2-1.8-2.7-3.3-4.5-4.5c-26.5-18.3-61.5-26.9-93.2-22c-24,3.7-48,14.8-68.5,27.6
	c-17.7,11-22.3,26-29.8,44.5c-3.2,8,2.3,15.6,0.4,22.9c-1.4,5.3-6,6.7-8.7,11.5c-5.3,9.4-6.5,21.4,0.9,30.2
	c2.7,3.2,6.5,6.8,5.2,10.8c-0.8,2.4-3.2,3.9-5.3,5.3c-8.6,5.9-14.8,16.3-13.2,26.6c1.6,10.3,12.6,18.9,22.6,15.9
	c-5.1,7.4-10.2,15.2-11.6,24.1s2.4,19.2,10.7,22.5c-22.6,33.8-42.8,68.9-61.9,104.7c-8.6,16.2-17,32.6-24.3,49.3
	c-6.6,15.2-11.5,31.1-17.6,46.6c-11.5,30.1-21.5,60.7-29.8,91.8C4.1,575-4.3,620.6,2.5,661.3c11,66.1,86.7,107.4,147.9,117
	c1.8,0.3,2.3,1.2,2.5,2.8c1,6,2.2,11.9,3.2,17.8c1.6,9.3,2.6,18.7,4.7,27.9c3.9,16.6,4.1,33.9,0.6,50.6c-1.4,7.2-2.1,14.6-2,21.9
	c0.2,9.2,6.1,15.9,13.8,19.6c7.6,3.6,16,3.7,24.6,1.3c10.3-2.9,14.7-11.6,15-20.7c0.4-9.8-2-19.1-5.2-28.2c-1.9-5.3-4-10.6-4.7-16.1
	c-2.3-17.1-4-34.2-5.8-51.3c-0.8-7.1-1.5-14.2-2.3-21.7c4.2,0,7.8,0.1,11.4-0.1c2.3-0.1,3.1,0.6,3.6,2.9c4.9,27.3,1.3,67.8,14,92.3
	c11,21.1,39.8,26.8,58.5,13.1c6.7-4.9,7.5-13.1,2.4-19.8c-3.8-5-8.8-8.5-14.4-11.2c-2.8-1.4-6.4-2.9-7.7-5.3
	c-3.2-6-6.9-12.4-7.7-18.9c-1.8-18.1-3.3-36.1-4.6-54.3c-0.1-1.5-0.2-3.2,0.8-4.3c0.9-1.2,2.6-1.5,4.1-1.8
	c38.9-7.1,85.2-25.2,113.1-54.4c28.1-29.5,29.4-74.7,31.1-113C401.5,563.2,399.7,518.7,394.1,474.7z M234.9,105.3
	c6.8-7.6,8.8-16.8,7.6-26.6c-0.6-4.9,0.1-8,5-10.4c6.5-3.2,9.7-9.3,11.7-16.2c2.3-7.9,5.1-15.7,7.7-23.5c0.4,0.1,0.7,0.2,1.1,0.3
	c3.1,4.9,6,10,9.5,14.6c2.6,3.3,5.7,6.3,9.1,8.9c2.8,2.2,4.5,4.4,4.5,8.1c0,8.1,3.7,14.1,11.2,17.5c4.2,1.8,8.2,3.9,10.8,7.8
	c0.7,1,1.1,2.3,1,3.6c-1.1,6.3,1,11.3,6.8,14c8.9,4.1,12.2,11.1,12.8,20.6c1.2,21.2-4.6,40.3-15.7,58.1c-3.5,5.9-8.5,10.9-14.5,14.3
	c-9.5,5.2-19.1,4.8-28.4-0.6c-8.5-4.9-17.5-9.3-25.1-15.4c-9.2-7.4-17.8-15.8-23.5-26.5c-0.6-1.2-0.5-2.6,0.1-3.8
	c8.5-11.4,8.1-22.9,0.5-34.5c-0.4-0.7-0.8-1.4-1-1.9C229.2,110.7,232.3,108.2,234.9,105.3z M238.5,195.7c-1.6-3.9-3-7.8-4.3-11.8
	c-0.4-1.2-0.1-2.6-0.1-4.6c5,4.2,9.4,7.8,13.7,11.5c7.6,6.6,16.8,10.6,25.7,14.8c5.4,2.6,9.5,4.8,9.7,12.2
	c0.2,7.2,3.3,14.3,5.1,21.7c-1.1-0.1-2.3-0.1-3.5-0.2c-20.4-2.1-39.1-8.6-55.3-21.4c-0.7-0.6-1.2-1.5-1.2-2.5c0-0.5,1.2-1.2,1.9-1.5
	C238.5,211,241.7,203.7,238.5,195.7z M192.3,880c-1.8,1.9-3.9,3.6-6.1,5c-3,1.7-5.6-0.1-8.2-1.7c-2.3-1.5-3.1-3-2.9-6
	c0.8-14.2,1.8-28.4,0-42.6c-2.1-16.6-3.8-33.2-5.6-49.8c-0.1-1.2-0.1-2.4-0.2-4.1c4.2,0.4,7.9,0.5,11.5,1.1c0.8,0.1,1.7,1.8,1.8,2.8
	c0.9,9.4,1.4,18.8,2.6,28.2c1.4,11.1,3.5,22.1,4.9,33.1c0.8,6.1,0.7,12.3,1.3,18.4c0.4,3.4,1.1,6.7,2,9.9
	C194,876.6,193.9,878.5,192.3,880z M252.1,861.7c0.6,1.1,1.1,2.3,1.9,4c-1.2,1.7-2.5,3.3-3.9,4.8c-3.5,3.3-10.5,4.3-13.9,1.8
	c-1.4-1-2.3-2.4-2.7-4.1c-0.8-7.8-1.8-15.7-1.9-23.6c-0.3-18.6-3.1-37-5.9-55.3c-0.3-1.8-0.3-3.7-0.7-5.5c-0.5-2.2,0.1-3.3,2.5-3.2
	c0.8,0,1.6,0,2.5-0.2c6.9-0.7,6.8-0.7,7.5,6.3c1.6,15.9,2.9,31.8,5,47.7c0.9,6.7,3.1,13.4,5.1,19.9
	C248.5,857,250.6,859.2,252.1,861.7L252.1,861.7z M375,617.1c-1.9,23.8-5.2,48.3-17.3,68.9c-19.9,34-59.5,51.1-97.7,61.2
	c-35,9.3-71.6,14.5-107.3,9S82,733.6,60.3,704.7c-20.6-27.4-27.3-60.8-26.5-95.6c1.1-46.6,15.6-95.5,28.4-135.1
	c24.6-76.3,62.7-148.5,102.2-217.1c1.7-3,3.6-6.1,6.5-7.9c6.2-3.7,14-0.1,21.1,0.5c11.7,1.1,10.6-10.6,17.7-13.7
	c7.8-3.4,22,3.3,29,6.4c11,4.9,22,11,34.1,11.4c16,0.6,24.1-0.3,32.4,15C362.3,374.2,384.3,497.9,375,617.1L375,617.1z"/>
<path class="st0" d="M331,583.8c-1.3,8-4.2,15.7-8.6,22.5c-3.6,5.4-10.2,4.8-13.5-0.8c-2.2-3.7-4.9-7-7.3-10.5
	c-1.5-2.2-2.8-4.5-3.9-6.9c-1-2.3-0.3-4.9,1.7-6.4c1.8-1.6,4.5-1.9,6.6-0.7c2.4,1.2,4.7,2.4,7.2,3.6c1.4-2.2,2.6-4.4,4.1-6.3
	c2.7-3.4,6.2-4.5,9.4-3.3C330,576.3,331.7,579.4,331,583.8z"/>
<path class="st0" d="M223,622.3c-2.7,6.3-5.5,12.6-8.6,18.6c-1.7,3.5-5.8,4.9-9.3,3.3c-0.5-0.3-1.1-0.6-1.5-1
	c-3.9-3.5-7.7-7.3-11.1-11.3c-1-1.3-1.6-2.8-1.9-4.4c-0.7-2.5,0.2-5.3,2.3-6.9c2-1.5,4.7-1.8,7-0.7c1.8,0.9,3.6,1.8,5.3,2.8
	c1.7-2.8,3.2-5.8,5.3-8.2c1.7-1.9,3.8-3.2,6.2-3.9c3.7-0.8,6.9,2.1,7,5.9C224,618.5,223.7,620.5,223,622.3z"/>
<path class="st0" d="M256.2,710.7c-2.1,5.7-4.4,11.2-7,16.7c-1.7,3.7-5.9,5-9.7,3.2c-6-2.7-11.2-7-14.9-12.5
	c-2.5-3.7-2.5-7.6-0.3-10.3c2.3-2.8,6.4-3.7,10.4-2.1c1.8,0.8,3.5,1.7,5.1,2.6c1.5-1.8,2.7-3.5,4.2-5c2.4-2.6,6.2-3.2,9.3-1.6
	C256.3,703.5,257.6,706.9,256.2,710.7z"/>
<path class="st0" d="M138.1,695.8c-1.6,6-2.9,12.2-4.8,18.1c-1.4,4.2-5.6,5.8-9.8,4.3c-6.6-2.2-12-7.1-14.7-13.5
	c-1.3-3-1.5-6.1,0.8-8.7c2.2-2.5,5.1-2.9,8.2-1.8c1.6,0.6,2.5,0.3,3.1-1.3c0.5-1.1,1.1-2.2,1.8-3.2c1.9-3,4.6-4.8,8.3-4.2
	c3.6,0.6,5.5,3,6.3,6.3c0.3,1.3,0.4,2.6,0.6,3.9C137.8,695.6,137.9,695.7,138.1,695.8z"/>
<path class="st0" d="M254,545c-2.1,2.7-5.9,3.5-9,2c-6.3-2.5-11.7-6.9-15.5-12.6c-2-3.1-2-6.5,0-8.9c1.8-2.2,4.9-2.8,8.5-1.4
	c1.7,0.7,3.3,1.6,5.1,2.4c0.8-1.5,1.7-3,2.6-4.4c1-1.4,2.1-2.7,3.5-3.8c4.9-3.5,11.1-1.1,11.5,4.9C261.3,531.2,259.3,538.8,254,545z
	"/>
<path class="st0" d="M169.2,426.6c-0.9,7.2-3.5,14-8.4,19.4c-4.9,5.3-11,5.5-16.2,0.4c-2.6-2.5-4.9-5.2-7-8.1
	c-2.5-3.6-2.2-7.3,0.3-9.8s6.1-2.7,9.9-0.5c1,0.6,2,1.3,3.2,2.1c1.7-2.8,3.5-5.5,5.5-8c3.5-4.1,8.5-4.7,11.1-1.2
	C168.7,422.6,169.3,424.6,169.2,426.6z"/>
<path class="st0" d="M112.5,573.7c-4.2,2.3-8.3,2.5-12.1-0.4c-3.3-2.6-6.4-5.4-9.3-8.4c-2.7-2.8-3-6-1.5-8.4
	c1.6-2.5,4.4-3.4,8.2-2.6c1.2,0.3,2.4,0.6,3.5,1s2.2,1,3.4,1.5c1-2,1.8-4,3-5.8c2.6-4,7.1-4.3,10.4-0.7
	C124.2,556.6,121.3,568.8,112.5,573.7z"/>
<path class="st0" d="M193.3,317.5c-2,2.2-5,3.1-7.9,2.3c-6-1.7-11.4-4.5-15-10c-0.6-0.9-1-1.8-1.3-2.8c-0.9-2.9-1.3-5.9,1-8.4
	c2.2-2.4,5.1-1.9,7.8-1.1c1.7,0.6,3.5,1.3,5.1,2.1c1-1.6,1.8-3.1,2.9-4.4c3.2-4.1,8.5-3.5,10.7,1.2
	C199.5,301.9,197.7,313,193.3,317.5z"/>
<path class="st0" d="M301.6,483.8c-2.4,1.6-5.4,1.7-7.9,0.2c-4.7-2.6-8.6-6.4-11.2-11.1c-1.5-2.6-2-5.4,0.2-8c2.2-2.5,4.9-2.1,7.6-1
	c1.4,0.6,2.8,1.2,4.4,1.9c1-1.7,1.7-3.3,2.7-4.7c1.4-2.4,4.2-3.6,6.9-3c3,0.5,4.5,2.6,5.2,5.4C311,469.1,306.5,480.7,301.6,483.8z"
	/>
<path class="st0" d="M68.3,650.2c-1.5,7.7-5.9,13.6-12.1,18.1c-2.8,2-6.7,1.3-8.6-1.4c-0.1-0.1-0.2-0.3-0.3-0.4
	c-2.2-3.6-3.8-7.6-4.7-11.8c-1-5.9,3.1-8.6,8.6-6.2c0.6,0.3,1.3,0.5,1.9,0.8c1.5-1.7,3.1-3.3,4.7-4.9c2-1.9,5-2.3,7.5-0.9
	C67.8,644.7,69.1,647.5,68.3,650.2z"/>
<path class="st0" d="M339.4,399.5c-3,3.4-7.1,4.2-11,1.2c-3.2-2.7-6.1-5.7-8.6-9c-1.7-2.1-1.8-5-0.1-7.2c1.7-2.4,4.2-2.2,6.7-1.6
	c0.7,0.2,1.4,0.3,2.2,0.5c0.7-1.9,1.6-3.7,2.6-5.5c2.7-4,8-3.6,10.3,0.5C344.5,383.6,343.3,395,339.4,399.5z"/>
<path class="st0" d="M267.5,358.7c-2.5,3-5.8,3.8-9.1,1.9c-3.3-2-6.3-4.4-9-7.1c-1-1-1.5-2.9-1.6-4.5c-0.5-4.6,2.6-6.9,7-5.4
	c1,0.4,2,0.8,3,1.2c1.4-2.2,2.5-4.3,4-6.1c1.8-2.3,4.2-3.4,7-2.6c2.9,0.9,4.2,3.3,4.3,6.1C273.4,348.3,271.4,354.1,267.5,358.7z"/>
<path class="st0" d="M364,649.8c-1.4,5-2.7,10.1-5,14.7c-2.7,5.5-8.6,5.9-12.5,1c-2.2-2.9-4.2-6-5.8-9.3c-1.5-2.7-1.9-5.6,0.5-7.9
	c2.3-2.2,4.9-1.2,7.4,0c0.6,0.3,1.3,0.6,1.9,0.9c1.3-1.5,2.4-3,3.7-4.2c1.9-1.8,4.2-2.7,6.7-1.5C363.4,644.4,364.8,647.2,364,649.8z
	"/>
<path class="st0" d="M72.1,519.3c-3.7,2.7-8,2.2-10.5-1.6c-1.7-2.9-3.1-6-4.1-9.2c-0.8-2.3-1.2-5.1,1.2-6.4c1.6-0.9,4-0.6,6-0.9
	c0.1,0.3,0.3,0.5,0.4,0.8c0.9-1.4,1.5-3.1,2.7-4c1.7-1.2,4.1-2.6,5.8-2.3c1.8,0.3,3.9,2.4,4.6,4.2C80.7,506.1,77.4,515.5,72.1,519.3
	z"/>
<path class="st0" d="M296.2,272.3c-0.8,3-1.9,6-3.1,8.9c-1.6,3.3-4.6,4.3-7.7,2.3c-3.5-2.2-6.8-4.8-9.8-7.7c-2-1.7-2.4-4.6-0.9-6.8
	c1.5-2.5,4-2.8,6.5-2.1c1.8,0.6,3.8,0.3,5.4-0.8C291.3,263.4,295.9,266.5,296.2,272.3z"/>
</svg>
