<?xml version="1.0" encoding="utf-8"?>
<!-- Generator: Adobe Illustrator 25.2.3, SVG Export Plug-In . SVG Version: 6.00 Build 0)  -->
<svg version="1.1" id="Capa_1" xmlns="http://www.w3.org/2000/svg" xmlns:xlink="http://www.w3.org/1999/xlink" x="0px" y="0px"
	 viewBox="0 0 1391.2 924" style="enable-background:new 0 0 1391.2 924;" xml:space="preserve">
<style type="text/css">
	.st0{fill:#FFFFFF;}
</style>
<path class="st0" d="M1003.2,628.7c4.3,31,12.9,62.6,33,86.6c22.8,27.3,57.5,41.4,91.4,52.4c7.5,2.4,15.5,5.1,19.9,11.7
	c3,4.6,3.7,10.3,3.9,15.7c0.5,27.1-10.3,53.1-29.8,71.8c-6.4,6-14.3,14.5-9.9,22.1c2.6,4.5,8.4,5.8,13.5,6.7
	c15.5,2.6,33.9,4.3,44.3-7.5c6.2-7,7.5-17,8.5-26.3c3-27.1,6-54.3,9-81.4l0-0.4c8.8-2.5,13.5,10,13.6,19.2
	c0.1,22.7-2.5,45.3-7.7,67.4c-2.9,12.2-6.6,24.9-3.7,37.1s15.4,23.2,27.4,19.4c11.9-3.9,15.6-18.7,17.1-31.2
	c4.5-37.1,7.5-74.4,8.8-111.8c37.6-9.3,77-19.6,105.2-46.1c25.5-23.9,38.8-58.7,42.4-93.5c4.8-46.8-5.4-93.6-17.8-138.4
	c-6.6-23.8-13.7-47.4-21.4-70.9c-2.4-7.3-19.2-69.5-24.7-69.8c12.8,0.8,20.3-14.2,22.9-26.8c6.1-28.8,4.6-61.6-14.6-83.9
	c-16.9-19.5-44.8-27.7-59.7-48.9c-22.3-31.8-5.2-76-13.4-114c-11.4-53.1-72.9-83.7-126.8-76.8c-35.2,4.5-70.3,23.7-85.2,55.9
	c-23.5,50.8,9.7,112.1-5.2,166.1c-7.4,26.9-26.4,50.4-29,78.2c-1.7,18.5,4,36.8,6.1,55.3c3.9,35-5.7,70-12.3,104.6
	C999,523.1,995.9,576.4,1003.2,628.7z M1115.1,197.3c-3,1.4-6.2,2.8-9.6,2.6c-6.7-0.4-11.3-6.8-14.5-12.7
	c-18.6-34.5-23.4-74.8-13.7-112.8c2.8-10.6,7.1-21.5,15.7-28.4c3.3,14,14.3,25,26.5,32.7c12.2,7.7,25.8,12.7,38.4,19.8
	C1209.2,127.7,1147.5,181.9,1115.1,197.3z M1189.7,198c-2.6,3.1-5.1,6.1-7.7,9.2c-5.8,7.2-13.3,12.9-21.8,16.6
	c-12,5.2-24.2,9.9-36.4,14.8c-1.6,0.6-3.2,1.1-4.9,1.6c-0.2-0.2-0.4-0.4-0.6-0.7c6-9.9,8.1-20.9,10.3-32c0.4-1.2,1.2-2.3,2.2-3.1
	c11-9,22.4-17.6,33.1-27c6.1-5.4,11.3-11.9,17-17.8c1-1,2.6-1.3,3.9-2c0.6,1.1,1.2,2.3,1.5,3.5c0.7,4.6,1.3,9.3,1.9,14
	c0.8,6,1.4,12,2.4,17.9C1191,195.2,1191,196.6,1189.7,198z M1209.3,856.4c3.5-17.4,4.2-35.2,5.5-52.8c0.5-7.3,1.2-14.7,1.8-22.3
	c4.2-0.2,8.4-0.4,12.9-0.6c0.1,1.2,0.1,2.4,0,3.7c-1.9,16.7-3.9,33.3-5.6,50.1c-0.8,8.3-0.9,16.7-1.3,25.1c-0.1,3-3.2,7-6,7.9
	c-3.7,1.1-6.5-0.5-7.1-4.3C1209,860.8,1208.9,858.6,1209.3,856.4L1209.3,856.4z M1152.8,851.7c0.4-5.5,1.7-10.9,2.6-16.4
	c2.4-14.2,5.3-28.4,5.3-43c0-5.8,0-11.6,0-17.8c3.5,0.7,7.1,1.6,10.7,2.1c2,0.3,2.8,1.1,2.6,3.2c-0.5,6.5-0.9,13.1-1.3,19.6
	c-1.2,17.2-2.5,34.3-3.5,51.5c-0.2,4.1-2.3,6.4-5.6,8c-2.7,1.3-5.8,1.2-7.8-0.8C1154.2,856.5,1152.6,853.8,1152.8,851.7
	L1152.8,851.7z M1057.4,342.2c10.4-32.2,24.9-66.2,54.5-82.5c14.3-7.9,30.8-10.9,46.5-15.7c8.4-2.6,16.9-6,24.3-10.7
	c9.6-6.2,22.4-3.7,28.9,5.7c17,24.7,45.1,62.7,48.8,68.9c19.7,33,37.3,67.2,52.6,102.4c30.4,69.8,60.5,150.7,55,228.1
	c-2.3,31.6-13.3,63.7-36.6,85.3c-19.9,18.4-46.7,27.6-73.5,31.9c-47.8,7.8-97.4,1.7-143-14.5c-29.3-10.4-58.5-26.4-74.3-53.2
	c-11-18.7-14.3-40.8-16.4-62.3C1015.4,530.2,1028,433.3,1057.4,342.2z"/>
<path class="st0" d="M1328,568.8c-0.1,7.7,6.1,14,13.9,14.1c7.7,0.1,14-6.1,14.1-13.9c0.1-7.6-6-13.9-13.6-14.1
	C1334.5,554.8,1328.1,561,1328,568.8C1328,568.7,1328,568.7,1328,568.8z"/>
<path class="st0" d="M1303.3,700.8c0,7.5,6.1,13.6,13.6,13.6c0,0,0.1,0,0.1,0c7.9-0.1,13.7-5.9,13.7-13.6c0.1-7.5-6-13.7-13.5-13.7
	c-0.1,0-0.3,0-0.4,0c-7.4,0-13.5,5.9-13.5,13.4C1303.3,700.6,1303.3,700.7,1303.3,700.8z"/>
<path class="st0" d="M1108.4,708.1c0.2,7.5,6.3,13.4,13.8,13.3s13.4-6.3,13.3-13.8c-0.1-7.4-6.3-13.4-13.7-13.3
	c-7.5,0-13.5,6.1-13.4,13.6C1108.4,708,1108.4,708.1,1108.4,708.1z"/>
<path class="st0" d="M1131.1,638.4c-0.1,7.4,5.9,13.6,13.3,13.7c7.4,0.1,13.4-5.9,13.5-13.2c0-0.1,0-0.2,0-0.2
	c-0.1-7.4-6.1-13.4-13.5-13.5C1137,625.1,1131.1,631,1131.1,638.4z"/>
<path class="st0" d="M1049.1,638.9c0,7.2,5.9,13.1,13.1,13.1c7.3,0.1,13.3-5.8,13.3-13.1c0.1-7.3-5.8-13.3-13.1-13.3
	s-13.3,5.8-13.3,13.1C1049.1,638.8,1049.1,638.9,1049.1,638.9z"/>
<path class="st0" d="M1239.9,437.2c0.2,7,6,12.5,13,12.4c6.9-0.2,12.3-5.8,12.4-12.7c0-7-5.6-12.7-12.7-12.7
	c-7,0-12.7,5.6-12.7,12.7C1239.9,437,1239.9,437.1,1239.9,437.2z"/>
<path class="st0" d="M1203,310.9c0.1,6.9,5.8,12.5,12.7,12.4c6.9-0.1,12.5-5.8,12.4-12.7c0-0.1,0-0.1,0-0.2
	c-0.2-6.9-5.9-12.4-12.9-12.2C1208.4,298.5,1202.9,304.1,1203,310.9z"/>
<path class="st0" d="M1091.7,437.5c-0.1,6.2,4.9,11.3,11.1,11.4c0.1,0,0.3,0,0.4,0c6.5-0.2,11.6-5.5,11.5-11.9
	c0.1-6-4.8-11-10.8-11.1c-0.1,0-0.2,0-0.3,0C1097.1,425.9,1091.8,431,1091.7,437.5z"/>
<path class="st0" d="M1288.7,615.7c0,6,4.9,10.8,10.9,10.8c0,0,0.1,0,0.1,0c6.1,0,10.8-5,10.7-11.5c-0.2-5.8-5.1-10.4-10.9-10.3
	C1293.6,604.7,1288.7,609.6,1288.7,615.7C1288.7,615.6,1288.7,615.7,1288.7,615.7z"/>
<path class="st0" d="M1133.6,516.5c0.1,5.3,4.6,9.5,9.9,9.4c0,0,0.1,0,0.1,0c5.2-0.1,9.4-4.4,9.3-9.7c0-0.1,0-0.3,0-0.4
	c-0.3-5.3-4.9-9.4-10.2-9.1C1137.6,507,1133.5,511.4,1133.6,516.5z"/>
<path class="st0" d="M1081.8,345.9c-0.1,5.2,4.1,9.5,9.4,9.5c5.2,0.1,9.5-4.1,9.5-9.4c0.1-5.1-4-9.4-9.2-9.5
	c-5.2-0.2-9.6,3.9-9.7,9.1C1081.9,345.8,1081.8,345.9,1081.8,345.9z"/>
<path class="st0" d="M1222,696.9c0.1,5.2,4.4,9.4,9.6,9.3s9.4-4.4,9.3-9.6c0,0,0,0,0,0c-0.1-5.2-4.3-9.4-9.6-9.4
	C1226.1,687.3,1221.9,691.6,1222,696.9C1222,696.8,1222,696.9,1222,696.9z"/>
<path class="st0" d="M1243.1,535.9c0,5.1,4.1,9.2,9.2,9.2c5.1,0,9.2-4.1,9.2-9.2c0-5-4-9-9-9
	C1247.4,526.7,1243.2,530.7,1243.1,535.9C1243.1,535.8,1243.1,535.8,1243.1,535.9z"/>
<path class="st0" d="M1304.8,498.9c0,5,4.1,9,9.1,8.9c5,0,9-4.1,8.9-9.1l0,0c-0.1-5-4.2-8.9-9.2-8.9
	C1308.7,490,1304.8,494,1304.8,498.9z"/>
<path class="st0" d="M1163.7,375.2c0.1,4.6,4,8.3,8.6,8.2c4.7-0.1,8.4-3.9,8.3-8.6s-3.9-8.4-8.6-8.3S1163.6,370.5,1163.7,375.2
	C1163.7,375.1,1163.7,375.2,1163.7,375.2z"/>
<path class="st0" d="M1100.2,552.4c-0.1,4.5,3.5,8.3,8,8.4c4.5,0.1,8.3-3.5,8.4-8c0.1-4.5-3.5-8.3-8-8.4c0,0-0.1,0-0.1,0
	C1104,544.3,1100.3,547.8,1100.2,552.4C1100.2,552.3,1100.2,552.4,1100.2,552.4z"/>
<path class="st0" d="M1062.8,499c-0.1,4,3.1,7.3,7.1,7.3c0.1,0,0.2,0,0.3,0c4.1,0,7.4-3.3,7.3-7.4c0-4.1-3.3-7.4-7.4-7.3
	C1066.1,491.6,1062.8,494.9,1062.8,499C1062.8,499,1062.8,499,1062.8,499z"/>
<path class="st0" d="M1181.6,457.6c0.1,3.9,3.4,7.1,7.3,7c3.9-0.1,7.1-3.4,7-7.3c0-0.1,0-0.1,0-0.2c-0.2-3.9-3.5-7-7.5-6.8
	C1184.5,450.4,1181.5,453.7,1181.6,457.6z"/>
<path class="st0" d="M1143.9,298.8c-0.1,3.4,2.5,6.2,5.9,6.3c0.1,0,0.1,0,0.2,0c4,0.1,7.3-3.1,7.3-7.1c0,0,0,0,0,0
	c0.1-3.8-2.2-6.4-5.9-6.5C1147.4,291.5,1144,294.7,1143.9,298.8z"/>
<path class="st0" d="M1205.7,627.4c-0.1,3,2.3,5.5,5.3,5.6c0.1,0,0.2,0,0.3,0c3.1-0.1,5.6-2.7,5.6-5.8c0.1-2.9-2.1-5.3-5-5.4
	c-0.2,0-0.3,0-0.5,0C1208.4,621.8,1205.8,624.2,1205.7,627.4C1205.7,627.4,1205.7,627.4,1205.7,627.4z"/>
<path class="st0" d="M1054.7,572.6c-0.1,3.2,2.4,5.8,5.6,5.9c0.1,0,0.1,0,0.2,0c2.9,0.2,5.4-2,5.6-4.9c0-0.1,0-0.2,0-0.3
	c-0.1-3.2-2.6-5.8-5.8-6.1C1057.2,567.2,1054.8,569.6,1054.7,572.6z"/>
<path class="st0" d="M1185.7,552.8c-0.1,2.4,1.8,4.5,4.2,4.6c0.1,0,0.3,0,0.4,0c2.5,0,4.6-2,4.6-4.5c0,0,0-0.1,0-0.1
	c-0.2-2.6-2.4-4.5-4.9-4.3C1187.7,548.5,1185.8,550.5,1185.7,552.8z"/>
<path class="st0" d="M899.1,476.7c-8-62.8-20.9-130.4-50.8-186.7c-3.3-6.3-21.3-43.8-28.4-43.9c13,0.1,26-1.4,38.7-4.5
	c3.9-1,8-2.2,11-5c8.8-8.3,2.5-22.8-4.1-32.8c7.9-1.8,16.1-3.8,22.1-9.2c6-5.4,8.9-15.2,4.1-21.7c-2.1-2.8-5.4-4.8-6-8.2
	c-1.4-7.4,10.1-9.6,15-15.4c5.6-6.5,1.6-16.4-1.8-24.2c-5.7-12.9-9.5-26.5-11.5-40.5c-1.3-9.6-1.8-19.5-5.7-28.3
	c-7-15.8-25.1-12.9-33.3-26.4c-1.2-1.8-2.7-3.3-4.5-4.5C817.4,7.1,782.4-1.5,750.7,3.4c-24,3.7-48,14.8-68.5,27.6
	c-17.7,11-22.3,26-29.8,44.5c-3.2,8,2.3,15.6,0.4,22.9c-1.4,5.3-6,6.7-8.7,11.5c-5.3,9.4-6.5,21.4,0.9,30.2
	c2.7,3.2,6.5,6.8,5.2,10.8c-0.8,2.4-3.2,3.9-5.3,5.3c-8.6,5.9-14.8,16.3-13.2,26.6c1.6,10.3,12.6,18.9,22.6,15.9
	c-5.1,7.4-10.2,15.2-11.6,24.1s2.4,19.2,10.7,22.5c-22.6,33.8-42.8,68.9-61.9,104.7c-8.6,16.2-17,32.6-24.3,49.3
	c-6.6,15.2-11.5,31.1-17.6,46.6c-11.5,30.1-21.5,60.7-29.8,91.8c-10.7,39.3-19.1,84.9-12.3,125.6c11,66.1,86.7,107.4,147.9,117
	c1.8,0.3,2.3,1.2,2.5,2.8c1,6,2.2,11.9,3.2,17.8c1.6,9.3,2.6,18.7,4.7,27.9c3.9,16.6,4.1,33.9,0.6,50.6c-1.4,7.2-2.1,14.6-2,21.9
	c0.2,9.2,6.1,15.9,13.8,19.6c7.6,3.6,16,3.7,24.6,1.3c10.3-2.9,14.7-11.6,15-20.7c0.4-9.8-2-19.1-5.2-28.2c-1.9-5.3-4-10.6-4.7-16.1
	c-2.3-17.1-4-34.2-5.8-51.3c-0.8-7.1-1.5-14.2-2.3-21.7c4.2,0,7.8,0.1,11.4-0.1c2.3-0.1,3.1,0.6,3.6,2.9c4.9,27.3,1.3,67.8,14,92.3
	c11,21.1,39.8,26.8,58.5,13.1c6.7-4.9,7.5-13.1,2.4-19.8c-3.8-5-8.8-8.5-14.4-11.2c-2.8-1.4-6.4-2.9-7.7-5.3
	c-3.2-6-6.9-12.4-7.7-18.9c-1.8-18.1-3.3-36.1-4.6-54.3c-0.1-1.5-0.2-3.2,0.8-4.3c0.9-1.2,2.6-1.5,4.1-1.8
	c38.9-7.1,85.2-25.2,113.1-54.4c28.1-29.5,29.4-74.7,31.1-113C906.5,565.2,904.7,520.7,899.1,476.7z M739.9,107.3
	c6.8-7.6,8.8-16.8,7.6-26.6c-0.6-4.9,0.1-8,5-10.4c6.5-3.2,9.7-9.3,11.7-16.2c2.3-7.9,5.1-15.7,7.7-23.5c0.4,0.1,0.7,0.2,1.1,0.3
	c3.1,4.9,6,10,9.5,14.6c2.6,3.3,5.7,6.3,9.1,8.9c2.8,2.2,4.5,4.4,4.5,8.1c0,8.1,3.7,14.1,11.2,17.5c4.2,1.8,8.2,3.9,10.8,7.8
	c0.7,1,1.1,2.3,1,3.6c-1.1,6.3,1,11.3,6.8,14c8.9,4.1,12.2,11.1,12.8,20.6c1.2,21.2-4.6,40.3-15.7,58.1c-3.5,5.9-8.5,10.9-14.5,14.3
	c-9.5,5.2-19.1,4.8-28.4-0.6c-8.5-4.9-17.5-9.3-25.1-15.4c-9.2-7.4-17.8-15.8-23.5-26.5c-0.6-1.2-0.5-2.6,0.1-3.8
	c8.5-11.4,8.1-22.9,0.5-34.5c-0.4-0.7-0.8-1.4-1-1.9C734.2,112.7,737.3,110.2,739.9,107.3z M743.5,197.7c-1.6-3.9-3-7.8-4.3-11.8
	c-0.4-1.2-0.1-2.6-0.1-4.6c5,4.2,9.4,7.8,13.7,11.5c7.6,6.6,16.8,10.6,25.7,14.8c5.4,2.6,9.5,4.8,9.7,12.2
	c0.2,7.2,3.3,14.3,5.1,21.7c-1.1-0.1-2.3-0.1-3.5-0.2c-20.4-2.1-39.1-8.6-55.3-21.4c-0.7-0.6-1.2-1.5-1.2-2.5c0-0.5,1.2-1.2,1.9-1.5
	C743.5,213,746.7,205.7,743.5,197.7z M697.3,882c-1.8,1.9-3.9,3.6-6.1,5c-3,1.7-5.6-0.1-8.2-1.7c-2.3-1.5-3.1-3-2.9-6
	c0.8-14.2,1.8-28.4,0-42.6c-2.1-16.6-3.8-33.2-5.6-49.8c-0.1-1.2-0.1-2.4-0.2-4.1c4.2,0.4,7.9,0.5,11.5,1.1c0.8,0.1,1.7,1.8,1.8,2.8
	c0.9,9.4,1.4,18.8,2.6,28.2c1.4,11.1,3.5,22.1,4.9,33.1c0.8,6.1,0.7,12.3,1.3,18.4c0.4,3.4,1.1,6.7,2,9.9
	C699,878.6,698.9,880.5,697.3,882z M757.1,863.7c0.6,1.1,1.1,2.3,1.9,4c-1.2,1.7-2.5,3.3-3.9,4.8c-3.5,3.3-10.5,4.3-13.9,1.8
	c-1.4-1-2.3-2.4-2.7-4.1c-0.8-7.8-1.8-15.7-1.9-23.6c-0.3-18.6-3.1-37-5.9-55.3c-0.3-1.8-0.3-3.7-0.7-5.5c-0.5-2.2,0.1-3.3,2.5-3.2
	c0.8,0,1.6,0,2.5-0.2c6.9-0.7,6.8-0.7,7.5,6.3c1.6,15.9,2.9,31.8,5,47.7c0.9,6.7,3.1,13.4,5.1,19.9
	C753.5,859,755.6,861.2,757.1,863.7L757.1,863.7z M880,619.1c-1.9,23.8-5.2,48.3-17.3,68.9c-19.9,34-59.5,51.1-97.7,61.2
	c-35,9.3-71.6,14.5-107.3,9c-35.7-5.5-70.7-22.6-92.4-51.5c-20.6-27.4-27.3-60.8-26.5-95.6c1.1-46.6,15.6-95.5,28.4-135.1
	c24.6-76.3,62.7-148.5,102.2-217.1c1.7-3,3.6-6.1,6.5-7.9c6.2-3.7,14-0.1,21.1,0.5c11.7,1.1,10.6-10.6,17.7-13.7
	c7.8-3.4,22,3.3,29,6.4c11,4.9,22,11,34.1,11.4c16,0.6,24.1-0.3,32.4,15C867.3,376.2,889.3,499.9,880,619.1L880,619.1z"/>
<path class="st0" d="M836,585.8c-1.3,8-4.2,15.7-8.6,22.5c-3.6,5.4-10.2,4.8-13.5-0.8c-2.2-3.7-4.9-7-7.3-10.5
	c-1.5-2.2-2.8-4.5-3.9-6.9c-1-2.3-0.3-4.9,1.7-6.4c1.8-1.6,4.5-1.9,6.6-0.7c2.4,1.2,4.7,2.4,7.2,3.6c1.4-2.2,2.6-4.4,4.1-6.3
	c2.7-3.4,6.2-4.5,9.4-3.3C835,578.3,836.7,581.4,836,585.8z"/>
<path class="st0" d="M728,624.3c-2.7,6.3-5.5,12.6-8.6,18.6c-1.7,3.5-5.8,4.9-9.3,3.3c-0.5-0.3-1.1-0.6-1.5-1
	c-3.9-3.5-7.7-7.3-11.1-11.3c-1-1.3-1.6-2.8-1.9-4.4c-0.7-2.5,0.2-5.3,2.3-6.9c2-1.5,4.7-1.8,7-0.7c1.8,0.9,3.6,1.8,5.3,2.8
	c1.7-2.8,3.2-5.8,5.3-8.2c1.7-1.9,3.8-3.2,6.2-3.9c3.7-0.8,6.9,2.1,7,5.9C729,620.5,728.7,622.5,728,624.3z"/>
<path class="st0" d="M761.2,712.7c-2.1,5.7-4.4,11.2-7,16.7c-1.7,3.7-5.9,5-9.7,3.2c-6-2.7-11.2-7-14.9-12.5
	c-2.5-3.7-2.5-7.6-0.3-10.3c2.3-2.8,6.4-3.7,10.4-2.1c1.8,0.8,3.5,1.7,5.1,2.6c1.5-1.8,2.7-3.5,4.2-5c2.4-2.6,6.2-3.2,9.3-1.6
	C761.3,705.5,762.6,708.9,761.2,712.7z"/>
<path class="st0" d="M643.1,697.8c-1.6,6-2.9,12.2-4.8,18.1c-1.4,4.2-5.6,5.8-9.8,4.3c-6.6-2.2-12-7.1-14.7-13.5
	c-1.3-3-1.5-6.1,0.8-8.7c2.2-2.5,5.1-2.9,8.2-1.8c1.6,0.6,2.5,0.3,3.1-1.3c0.5-1.1,1.1-2.2,1.8-3.2c1.9-3,4.6-4.8,8.3-4.2
	c3.6,0.6,5.5,3,6.3,6.3c0.3,1.3,0.4,2.6,0.6,3.9C642.8,697.6,642.9,697.7,643.1,697.8z"/>
<path class="st0" d="M759,547c-2.1,2.7-5.9,3.5-9,2c-6.3-2.5-11.7-6.9-15.5-12.6c-2-3.1-2-6.5,0-8.9c1.8-2.2,4.9-2.8,8.5-1.4
	c1.7,0.7,3.3,1.6,5.1,2.4c0.8-1.5,1.7-3,2.6-4.4c1-1.4,2.1-2.7,3.5-3.8c4.9-3.5,11.1-1.1,11.5,4.9C766.3,533.2,764.3,540.8,759,547z
	"/>
<path class="st0" d="M674.2,428.6c-0.9,7.2-3.5,14-8.4,19.4c-4.9,5.3-11,5.5-16.2,0.4c-2.6-2.5-4.9-5.2-7-8.1
	c-2.5-3.6-2.2-7.3,0.3-9.8c2.5-2.5,6.1-2.7,9.9-0.5c1,0.6,2,1.3,3.2,2.1c1.7-2.8,3.5-5.5,5.5-8c3.5-4.1,8.5-4.7,11.1-1.2
	C673.7,424.6,674.3,426.6,674.2,428.6z"/>
<path class="st0" d="M617.5,575.7c-4.2,2.3-8.3,2.5-12.1-0.4c-3.3-2.6-6.4-5.4-9.3-8.4c-2.7-2.8-3-6-1.5-8.4
	c1.6-2.5,4.4-3.4,8.2-2.6c1.2,0.3,2.4,0.6,3.5,1c1.1,0.4,2.2,1,3.4,1.5c1-2,1.8-4,3-5.8c2.6-4,7.1-4.3,10.4-0.7
	C629.2,558.6,626.3,570.8,617.5,575.7z"/>
<path class="st0" d="M698.3,319.5c-2,2.2-5,3.1-7.9,2.3c-6-1.7-11.4-4.5-15-10c-0.6-0.9-1-1.8-1.3-2.8c-0.9-2.9-1.3-5.9,1-8.4
	c2.2-2.4,5.1-1.9,7.8-1.1c1.7,0.6,3.5,1.3,5.1,2.1c1-1.6,1.8-3.1,2.9-4.4c3.2-4.1,8.5-3.5,10.7,1.2
	C704.5,303.9,702.7,315,698.3,319.5z"/>
<path class="st0" d="M806.6,485.8c-2.4,1.6-5.4,1.7-7.9,0.2c-4.7-2.6-8.6-6.4-11.2-11.1c-1.5-2.6-2-5.4,0.2-8c2.2-2.5,4.9-2.1,7.6-1
	c1.4,0.6,2.8,1.2,4.4,1.9c1-1.7,1.7-3.3,2.7-4.7c1.4-2.4,4.2-3.6,6.9-3c3,0.5,4.5,2.6,5.2,5.4C816,471.1,811.5,482.7,806.6,485.8z"
	/>
<path class="st0" d="M573.3,652.2c-1.5,7.7-5.9,13.6-12.1,18.1c-2.8,2-6.7,1.3-8.6-1.4c-0.1-0.1-0.2-0.3-0.3-0.4
	c-2.2-3.6-3.8-7.6-4.7-11.8c-1-5.9,3.1-8.6,8.6-6.2c0.6,0.3,1.3,0.5,1.9,0.8c1.5-1.7,3.1-3.3,4.7-4.9c2-1.9,5-2.3,7.5-0.9
	C572.8,646.7,574.1,649.5,573.3,652.2z"/>
<path class="st0" d="M844.4,401.5c-3,3.4-7.1,4.2-11,1.2c-3.2-2.7-6.1-5.7-8.6-9c-1.7-2.1-1.8-5-0.1-7.2c1.7-2.4,4.2-2.2,6.7-1.6
	c0.7,0.2,1.4,0.3,2.2,0.5c0.7-1.9,1.6-3.7,2.6-5.5c2.7-4,8-3.6,10.3,0.5C849.5,385.6,848.3,397,844.4,401.5z"/>
<path class="st0" d="M772.5,360.7c-2.5,3-5.8,3.8-9.1,1.9c-3.3-2-6.3-4.4-9-7.1c-1-1-1.5-2.9-1.6-4.5c-0.5-4.6,2.6-6.9,7-5.4
	c1,0.4,2,0.8,3,1.2c1.4-2.2,2.5-4.3,4-6.1c1.8-2.3,4.2-3.4,7-2.6c2.9,0.9,4.2,3.3,4.3,6.1C778.4,350.3,776.4,356.1,772.5,360.7z"/>
<path class="st0" d="M869,651.8c-1.4,5-2.7,10.1-5,14.7c-2.7,5.5-8.6,5.9-12.5,1c-2.2-2.9-4.2-6-5.8-9.3c-1.5-2.7-1.9-5.6,0.5-7.9
	c2.3-2.2,4.9-1.2,7.4,0c0.6,0.3,1.3,0.6,1.9,0.9c1.3-1.5,2.4-3,3.7-4.2c1.9-1.8,4.2-2.7,6.7-1.5C868.4,646.4,869.8,649.2,869,651.8z
	"/>
<path class="st0" d="M577.1,521.3c-3.7,2.7-8,2.2-10.5-1.6c-1.7-2.9-3.1-6-4.1-9.2c-0.8-2.3-1.2-5.1,1.2-6.4c1.6-0.9,4-0.6,6-0.9
	c0.1,0.3,0.3,0.5,0.4,0.8c0.9-1.4,1.5-3.1,2.7-4c1.7-1.2,4.1-2.6,5.8-2.3c1.8,0.3,3.9,2.4,4.6,4.2
	C585.7,508.1,582.4,517.5,577.1,521.3z"/>
<path class="st0" d="M801.2,274.3c-0.8,3-1.9,6-3.1,8.9c-1.6,3.3-4.6,4.3-7.7,2.3c-3.5-2.2-6.8-4.8-9.8-7.7c-2-1.7-2.4-4.6-0.9-6.8
	c1.5-2.5,4-2.8,6.5-2.1c1.8,0.6,3.8,0.3,5.4-0.8C796.3,265.4,800.9,268.5,801.2,274.3z"/>
<path class="st0" d="M303.7,247.9c12.2,3.7,25.6-2.8,33.5-12.8c7.8-10,11.1-22.8,13.4-35.3c5.2-29.1,6-58.9,2.3-88.2
	c-5.3-42.2-23.6-87.3-62.4-104.7c-42.1-18.9-93.7,3.4-121.8,39.9c-28.1,36.5-37.7,83.8-44,129.5c-1.7,12.5-3.2,25.5,1.2,37.3
	c4.3,11.8,16.4,21.8,28.8,19.4c-53.9,71.5-95.7,151.4-123.7,236.4C5.9,544.9-21.4,637,26,709.3c24.1,36.4,61.7,61.7,104.6,70.3
	c6.9,1.3,14.5,2.6,19.1,7.9c3.5,4,4.5,9.4,5.3,14.6c3.5,23,4.7,46.2,3.3,69.4c-0.8,13.4-2.2,27.8,4.3,39.6
	c6.5,11.8,24.6,18,33.5,7.9c5.8-6.5,5.1-16.3,4.1-25c-4.1-35.5-8.1-71.1-12.2-106.6c5.2-0.4,10.4-0.8,15.5-1.2
	c5.3,29.1,10.7,58.1,16,87.2c1.5,8.2,3.3,17,9.3,22.9c9.4,9.3,24.8,7.4,37.8,4.9c3.7-0.7,7.6-1.5,10.4-4c9.6-8.6-2-23.1-11-32.3
	c-16.9-17.2-25.9-40.6-25-64.7c0.3-6.4,1.3-12.9,4.8-18.2c6-9.2,17.7-12.5,28.2-15.7c36.7-11,73.1-29.6,94.5-61.4
	c18.5-27.6,23.6-61.9,25.6-95.1C401.4,483.8,369.4,355.7,303.7,247.9z M233,135.1c4.6-29.9,25.5-60.5,49.1-74.8
	c6.6-4,14.6-7.4,21.8-4.6c5.1,1.9,8.7,6.5,11.6,11.1c18.3,28.7,23.6,63.9,14.5,96.7c-3.4,11.9-8.9,23.6-18.6,31.3
	c-14.2,11.3-35.5,11.4-51.1,2.1C236.1,182.5,229.3,159,233,135.1z M233.5,189.5c3.9,3.2,7.1,6.2,10.7,8.6
	c7.8,5.1,15.9,9.7,23.7,14.7c1.3,0.9,2.4,2.1,3,3.6c4.3,9.5,8.4,19.1,12.7,29c-22.6-1.7-43.3-8.8-61-23.4
	C226.2,211.2,229.8,200.5,233.5,189.5L233.5,189.5z M170.5,840.6c-2.2-18.5-4.4-36.8-6.7-55.3H177c1.9,18.2,3.7,36.1,5.5,54.2
	C178.6,839.8,174.6,840.2,170.5,840.6z M223.3,831.7c-0.7-9.7-1.5-18.9-2.2-28.2c-0.5-6.5-0.8-13.1-1.3-19.6
	c-0.1-1.7,0.4-2.6,2.2-2.9c3.5-0.5,7-1.4,11.3-2.2c-1.1,16.8,0.4,33.1,3.3,49.5C231.9,829.5,227.7,830.5,223.3,831.7L223.3,831.7z
	 M371.6,610.9c-1.2,27.1-4.3,55.4-18.8,78.3c-12.8,20.1-33.2,34.2-54.5,44.8C245,760.5,184.4,768.5,126,757
	c-30.7-6.2-62-19-80.4-44.4c-17.7-24.4-23-54.9-21.6-87.1c2.1-50.4,20.6-104.5,33.3-144.3c25.7-80.3,62.4-156.7,109.3-226.8
	c10.9-16.4,24.8-28.8,45-18.2c21.9,11.5,37.6,18.4,61.9,22c24.7,3.6,35.5,21.4,44.4,43C357.9,399.3,376.2,505,371.6,610.9z"/>
<path class="st0" d="M333.1,641.4c-0.2,0.9-0.6,1.8-1.3,2.4c-0.4,0.4-1.1,0.4-1.7,0.6c-4.2,1.3-4.1,1.3-3.4,5.7
	c0.5,3,0.9,6.1,1.3,9.1c0.2,1.4,0.2,2.9-0.2,4.3c-0.4,1.2-1.3,2.1-2.4,2.6c-0.7,0.2-2.3-1-2.7-1.9c-1.5-3.8-2.6-7.7-3.9-11.6
	c-0.4-1.4-0.7-2.9-1-4.4c-4.3,0.6-8.3,1.1-12.4,1.6c-0.1-0.3-0.2-0.6-0.3-0.9c1.8-2.8,4.6-4.8,7.8-5.7c3.7-1.2,4-3.1,3.2-6.3
	c-1.2-5.3-2.1-10.6-3-16c-0.4-1.5-0.4-3-0.1-4.5c0.3-1.2,1.6-2.9,2.4-2.9c1.4,0.2,2.6,1,3.3,2.3c1.5,4.8,2.6,9.7,3.8,14.5
	c0.6,2.4,1.2,4.8,1.6,7.2c0.3,1.7,1.1,2.5,2.9,2.2c1.4-0.2,2.9-0.2,4.3,0C332,639.9,333.1,640.8,333.1,641.4z"/>
<path class="st0" d="M129.9,515.9c0,2.3-2,2.7-3.8,2.6c-3.1,0-4.5,1.2-4.1,4.4c0.2,1.3,0.1,2.7-0.4,3.9c-0.6,1.4-1.6,3.3-2.7,3.5
	c-2.2,0.5-2.8-1.7-3.1-3.4c-0.4-2.3-0.5-4.7-0.8-7.3c-2.4,0.1-4.9,0.1-7.3-0.1c-1.3-0.2-2.5-1.2-3.8-1.9c1.1-0.8,2-1.9,3.2-2.4
	c1.8-0.7,3.7-1.1,5.7-1.2c2.2-0.1,2.7-1.2,2.6-3.2c-0.2-7.3-0.3-14.5-0.4-21.8c0-2.7,0.2-5.3,0.6-8c0.2-1,1.2-1.9,1.9-2.8
	c0.9,0.8,2.3,1.6,2.5,2.6c0.5,2.9,0.8,5.9,0.8,8.8c0.4,6.7,0.8,13.5,1,20.2c0.1,2.3,0.7,3.5,3.1,3.2c0.3,0,0.6,0,0.9,0.1
	C127.8,513.6,129.9,513.6,129.9,515.9z"/>
<path class="st0" d="M191.4,259.9c-3.2,6.5-6.6,12.9-10,19.4c-1.8,3.5-3.6,7.1-5.3,10.6c1.6,2.2,5.6,3.4,3.5,6.7
	c-0.7,1-3.9,0.3-6.6,0.5c-1.2,1.9-2.6,3.7-4,5.4c-0.8,0.8-2.2,1.1-3.3,1.6c-0.2-1.2-0.8-2.5-0.6-3.7c0.3-1.7,0.8-3.4,1.5-5
	c0.6-1.4,0.3-2.2-1.1-2.9c-1.8-0.8-3.4-1.9-4.9-3.1c-0.7-0.8-1-1.9-0.8-2.9c0.5-0.9,1.5-1.5,2.6-1.6c2.6,0.4,5.3,1,7.8,1.7
	c2.9-5.2,5.8-10.6,8.8-15.8c2.2-3.7,4.6-7.3,6.9-10.8c0.6-1,1.4-1.8,2.3-2.4c1-0.4,2-0.5,3.1-0.6
	C191.4,257.9,191.8,259.1,191.4,259.9z"/>
<path class="st0" d="M274.6,541.1c-0.1,0.5-1.3,1.1-2,1.3c-1,0.3-2.1,0-3,0.2c-3.9,0.9-4.1,1.3-3.8,5.4c0.2,1.5,0.2,3.1,0,4.6
	c-0.4,1.4-1.4,2.6-2.2,3.9c-1-1-2.4-1.9-2.9-3.1c-0.8-2.2-1.4-4.4-1.9-6.6c-3.8,0.3-7.3,2.8-11.4-0.7c2.8-1.5,5-3.1,7.5-3.9
	c2.9-1,3.1-2.6,2.7-5.3c-1.3-9.2-2.3-18.5-3.3-27.8c-0.2-2.1,0-4.2,0.7-6.2c0.6,0.7,1.5,1.3,1.7,2.1c1.2,4,2.2,8.1,3.2,12.2
	c1.6,7,3.1,13.9,4.6,21c1.9-0.3,3.9-0.5,5.9-0.6c1.2,0,2.4,0.4,3.4,1C274.4,539.2,274.7,540.2,274.6,541.1z"/>
<path class="st0" d="M115.7,391.9c-2.4,6.2-5.2,12.3-7.7,18.4c-1.5,3.6-2.7,7.3-4.2,10.9c-0.6,1.5-0.5,2.2,1,3.3
	c1,1,1.6,2.3,1.5,3.7c-0.1,0.7-2.3,1.6-3.4,1.4c-1.9-0.2-2.5,0.6-3.2,2c-0.9,1.9-2,3.8-3.3,5.5c-0.6,0.8-2,1.1-3,1.6
	c-0.4-1.1-1.2-2.2-1-3.2c0.6-2.5,1.3-4.9,2.1-7.3c-2.3-1-4.5-2-6.6-3.2c-0.8-0.5-1.7-1.9-1.5-2.6c0.5-0.9,1.5-1.6,2.6-1.7
	c1.8-0.2,3.7-0.1,5.5,0.4c2.4,0.6,3.1-0.4,4-2.4c4.4-9.7,8.9-19.3,13.6-28.8c0.5-1.1,2.1-1.6,3.3-2.4
	C115.5,389,116.1,390.7,115.7,391.9z"/>
<path class="st0" d="M179,386.9c-1.1,0.5-2.2,1-3.2,1.5c-0.8,0.5-1.9,1-2.2,1.7c-0.7,1.8-0.9,3.8-1.7,5.5c-0.4,0.9-1.7,1.5-2.5,2.2
	c-0.6-1-1.7-1.9-1.8-2.9c-0.2-2.5-0.2-5-0.1-7.5c-1.9,0.1-3.9,0.1-5.8-0.1c-1.3-0.4-2.5-0.9-3.7-1.5c1.1-0.9,2.1-2.1,3.4-2.6
	c2.1-0.6,4.2-1,6.3-1.2c0.1-1.3,0.2-2.8,0.3-4.2c0.2-9,0.4-18,0.6-27c0-1.4,0.3-2.8,0.8-4.2c0.3-0.7,1.2-1.6,1.8-1.6
	c0.9,0.2,1.6,0.7,2,1.5c0.5,1.4,0.8,3,0.9,4.5c0.2,10,0.3,20.1,0.3,30.1c0,1.9,0.8,2.4,2.2,3.1C177.7,384.7,178.3,386,179,386.9z"/>
<path class="st0" d="M102,693.9c0,0.7-0.9,1.9-1.5,1.9c-5.6,0.5-7.5,3.1-5.8,8.6c0.3,1-1.1,2.5-1.8,3.7c-1.1-0.7-2.1-1.5-3-2.5
	c-0.8-1.3-1.4-2.6-1.9-4c-4.1-0.4-7.7-0.6-11.3-1.2c-0.5-0.1-0.8-1.6-1.2-2.4c3.1-0.8,5.9-1.6,8.6-2.1c2.3-0.5,2.5-1.7,2.3-3.8
	c-0.7-9.4-1.3-18.8-1.9-28.2c-0.1-1.1-0.1-2.3,0.1-3.4c0.4-1,1-2,1.6-2.9c0.7,0.9,2,1.7,2.1,2.6c1,6.5,1.8,13,2.6,19.5
	c0.5,4.1,1,8.3,1.5,12.4c2.8,0,5.2-0.1,7.7,0.1C100.9,692.4,102,693.4,102,693.9z"/>
<path class="st0" d="M235.7,708c0.1,0.7-0.8,1.4-1.2,2.1c-0.1,0.1-0.2,0.1-0.3,0.1c-5.1,0.5-5.9,3.4-4.7,7.7c0.1,0.3,0.1,0.6,0,0.9
	c-0.5,1.5-0.8,4.2-1.6,4.4c-2.6,0.6-2.8-2-3.5-3.8c-0.6-1.7-1-3.5-1.6-5.4c-1.9,0.4-3.6,0.9-5.3,1c-1.3,0.2-2.6,0.1-3.9-0.3
	c-0.9-0.4-1.6-1.1-1.9-2.1c0.2-1,0.8-1.8,1.6-2.2c1.9-0.8,3.8-1.5,5.8-1.9c1.6-0.4,2-1.1,1.7-2.6c-1.8-9.8-3.5-19.5-5.2-29.3
	c-0.2-1.1-0.2-2.2-0.3-3.2c0.2-0.2,0.5-0.3,0.7-0.5c0.8,0.7,2,1.2,2.5,2.1c1.2,2,2.1,4.2,2.8,6.5c1.9,7.4,3.7,14.9,5.3,22.4
	c0.5,2.2,1.3,3.2,3.7,2.5c1.2-0.3,2.4-0.4,3.6-0.2C234.7,706.6,235.4,707.2,235.7,708z"/>
<path class="st0" d="M165.9,670.6c-0.7,0.8-1.2,1.9-2.1,2.2c-2.3,0.8-4.7,1.3-7.1,2c0.5,2.7,0.7,5.5,0.8,8.2c0,1.4-0.9,3.7-1.9,4
	c-2.2,0.7-2.4-1.7-2.8-3.1c-0.7-2.4-1.2-4.9-1.8-7.5c-5.7-0.1-11.1,3.1-17,1.2c4.3-4.1,10.1-4.5,15.6-6.1
	c-1.6-6.9-3.1-13.6-4.6-20.2c-0.6-2.9-1.1-5.8-1.3-8.8c-0.1-1.1,0.8-2.2,1.2-3.4c1.1,0.9,2.7,1.5,3.1,2.6c1,3,1.8,6.1,2.4,9.2
	c1.6,6.5,3.1,12.9,4.7,19.6c2.7-0.2,5.3-0.5,7.9-0.6C164.2,669.9,165.1,670.1,165.9,670.6z"/>
<path class="st0" d="M247.3,390.8c0,1-0.8,2.7-1.5,2.8c-3.9,0.8-5.1,2.9-4.2,6.7c0.2,1-1.1,2.4-1.7,3.6c-1.1-0.8-2.9-1.4-3.1-2.4
	c-0.7-4.2-3.2-4.8-6.8-4.2c-0.5,0.1-1,0-1.5-0.2c-0.7-0.3-1.3-0.7-1.8-1.3c-0.2-0.4,0.5-1.3,1-1.7c0.9-0.7,1.9-1.3,2.9-1.6
	c2.4-0.6,3.1-1.7,2.5-4.4c-2.1-9.3-3.9-18.6-5.5-28c-0.3-1.5,0.7-3.2,1.1-4.8c1.2,1.2,3,2.3,3.4,3.7c2.3,8.4,4.3,16.8,6.4,25.3
	c0.4,1.8,0.8,3.6,1.2,5.4c1.7-0.3,3.4-0.5,5.1-0.5C245.7,389.2,247.2,390.2,247.3,390.8z"/>
<path class="st0" d="M300.4,445.4c-0.3,0.9-0.7,1.7-1.1,2.5c-0.5,0.5-1.1,0.9-1.8,1.1c-1.4,0.5-2.2,2.1-1.7,3.5c0,0,0,0.1,0,0.1
	c0.3,1.8,0.3,3.7,0,5.5c-0.2,0.8-0.8,1.5-1.6,1.8c-0.9-0.1-1.7-0.5-2.1-1.3c-1-1.9-1.8-3.9-2.7-5.9c-2.3,0.5-4.7,1.1-7.1,1.3
	c-0.9,0.1-1.9-0.7-2.9-1.2c0.6-0.8,1-2,1.8-2.4c1.9-1.1,4.1-1.9,6.4-2.9c-2.2-11.5-8.2-22.1-8.3-35.3c1.5,1.2,2.6,1.6,3,2.4
	c1.6,2.8,3,5.8,4.3,8.8c2.6,7.2,5,14.5,7.6,22c1.2-0.5,2.4-0.8,3.6-1C298.7,444.4,299.5,445,300.4,445.4z"/>
<path class="st0" d="M165.3,593.5c-0.3,0.5-0.7,0.8-1.2,0.9c-3.5,1.1-4.4,3.3-3.3,6.7c0.2,1.1,0.2,2.2-0.2,3.3
	c-0.6,2.1-2.6,2.6-3.9,0.9c-1-1.2-1.7-2.5-2.1-4c-0.4-2.6-1.7-2.7-3.9-2.3c-2.6,0.5-5.3,0.7-8,1c-0.1-0.5-0.3-0.9-0.4-1.4
	c2.4-3.3,6.3-4.2,10.2-5.7c-1.5-11.4-4.9-22.6-3.4-35.4c1.3,1.6,2.5,2.5,2.8,3.7c1.3,4.9,2.4,9.9,3.6,14.9
	c1.2,5.1,2.3,10.2,3.6,15.4c1.5-0.5,2.9-0.9,4.5-1.2c0.8-0.1,2.1,0.2,2.3,0.7C166.2,591.7,165.7,592.7,165.3,593.5z"/>
<path class="st0" d="M269.9,314.4c0,1.1-1.8,2.2-2.8,3.4c-0.3,0.2-0.5,0.4-0.8,0.6c0.3,1.4,0.4,2.8,0.4,4.2c-0.2,1.1-1,2.8-1.8,3
	c-0.9,0.2-2.3-0.8-3.1-1.7c-0.8-1.1-1.4-2.4-1.9-3.7c-3.5,0.9-6.9,1.9-10.8,3c0.4-4.1,2.9-5.8,5.4-6.9c3.3-1.5,3.3-3.3,2.5-6.4
	c-2.3-8.2-4.1-16.4-6-24.7c-0.2-1.4-0.2-2.8,0-4.1c0.5-0.2,1-0.3,1.5-0.5c1.3,2.5,2.9,5,3.8,7.6c2.5,7.2,4.8,14.6,7.1,21.9
	c0.4,1.4,0.8,2.5,2.6,2.3C267.7,312,269.9,312.1,269.9,314.4z"/>
<path class="st0" d="M259.2,614.7c-0.7,0.6-1.3,1.4-2,1.6c-4.2,1.2-4.2,1.2-3.3,5.6c0.5,1.5,0.7,3,0.7,4.5c-0.2,1.2-1.1,3.2-1.9,3.3
	c-1.4,0-2.8-0.7-3.7-1.8c-1.1-2-1.5-4.4-2.1-6.7c-0.2-0.6-0.4-1.1-0.6-1.8c-2.3,0-4.6,0.1-6.8,0c-0.6-0.2-1.3-0.4-1.8-0.8
	c0.4-0.7,0.5-1.7,1.1-1.9c2-1,4.1-1.7,6.4-2.5c-1.2-5.1-2.5-10.1-3.6-15.1c-0.7-3-1.2-6-1.5-9.1c-0.1-0.9,0.8-1.9,1.3-2.8
	c1,0.6,2.5,0.9,2.9,1.7c1.3,2.8,2.4,5.6,3.3,8.5c1.6,5.2,2.9,10.4,4.3,15.5c1.6-0.1,3.2-0.1,4.9,0.1
	C257.6,613.2,258.4,614.1,259.2,614.7z"/>
<path class="st0" d="M347.3,523c-0.8,0.9-1.7,1.7-2.7,2.3c-1.5,0.6-3.1,1-4.6,1.4c0.5,3,0.8,6,1,9.1c0,1.2-1.1,2.4-1.7,3.5
	c-0.9-0.9-2-1.7-2.5-2.8c-1.3-2.8-2.3-5.7-3.6-9h-12.5c3-4.4,7.4-3.7,11.1-5.2c-0.9-5.4-1.9-10.8-2.7-16.2c-0.3-1.6-0.4-3.3-0.2-4.9
	c0.2-0.9,0.8-1.8,1.6-2.2c1,0,1.9,0.4,2.5,1.2c1.2,2.5,2.1,5.1,2.8,7.7c1.1,4.3,1.9,8.8,2.9,13.4c1.7-0.3,3.5-0.5,5.3-0.4
	C345.1,521.3,346.2,522.4,347.3,523z"/>
<path class="st0" d="M202.2,478.9c-0.5,0.3-1.1,0.4-1.7,0.6c0.3,3,0.7,6,1,9.1c0.1,1.5,0.1,3.1-0.1,4.6c-0.1,0.8-0.9,1.4-1.3,2.1
	c-0.7-0.5-1.7-0.9-2-1.5c-1.1-3.1-2.1-6.2-3-9.3c-0.3-0.9-0.5-1.8-0.8-2.9c-1.8,0.3-3.6,0.4-5.4,0.4c-1-0.1-2.6-0.9-2.8-1.6
	c0-1.2,0.6-2.2,1.5-2.9c1.7-0.8,3.4-1.5,5.2-2c-0.5-7.3-1-14.2-1.5-21.1c-0.1-0.6-0.1-1.2,0-1.8c0.4-0.8,0.9-1.6,1.5-2.3
	c0.7,0.6,1.9,1.1,2.1,1.9c0.8,2.9,1.4,6,2,9c0.7,3.8,1.5,7.6,2.1,11.5c0.3,1.6,0.9,2.2,2.6,2.3c1.4,0.1,2.8,1,4.1,1.5
	C204.6,477.1,203.4,478.1,202.2,478.9z"/>
<path class="st0" d="M95.7,587.8c-1.1,0.1-2.2,0.2-3.3,0.2c-0.8,0-1.6-0.5-2.4-0.5c-5-0.5-5.4-0.2-5.6,4.7c0.1,1.2,0,2.4-0.3,3.6
	c-0.3,0.8-1.2,1.4-1.8,2.1c-0.7-0.6-1.8-1.2-2-1.9c-0.6-2.2-0.9-4.6-1.3-7.3H68.5c-0.2-0.5-0.4-1-0.6-1.5c2-1.1,4.1-2,6.3-2.9
	c4.5-1.5,4.3-1.5,4.3-6.2c-0.1-5.6,0-11.2,0.4-16.8c0.1-1.3,1.4-2.5,2.2-3.8c0.7,1.3,1.9,2.5,2,3.9c0.6,6.8,0.9,13.6,1.3,20.6
	c2.3,0.3,4.4,0.4,6.3,0.8c1.3,0.2,2.5,0.8,3.5,1.7C95,585.3,95.2,586.7,95.7,587.8z"/>
<path class="st0" d="M325.8,377.3c-0.6,0.8-1.1,2.2-1.9,2.4c-2.8,0.6-3,2.3-2.5,4.5c0.2,0.6,0.3,1.2,0.2,1.8c-0.1,0.7-0.4,1.4-1,1.9
	c-0.7,0.1-1.3-0.2-1.8-0.7c-1.4-4.9-5.1-4.1-8.8-3.8c-1,0.1-2-0.8-3-1.3c0.6-1,1.1-2.3,1.9-2.9c1.7-0.9,3.4-1.7,5.2-2.3
	c-2.2-7-4.4-14-6.5-20.9c-0.3-0.6-0.4-1.2-0.5-1.8c0-1.1,0.1-2.2,0.2-3.4c1.2,0.6,2.9,1,3.4,1.9c2.3,5.1,4.3,10.4,6.4,15.6
	c0.4,1,0.8,2.1,1,3.2c0.5,2.7,1.6,4.4,4.9,3.8C323.8,375.4,324.9,376.7,325.8,377.3z"/>
</svg>
