<?xml version="1.0" encoding="utf-8"?>
<!-- Generator: Adobe Illustrator 25.2.3, SVG Export Plug-In . SVG Version: 6.00 Build 0)  -->
<svg version="1.1" id="Capa_1" xmlns="http://www.w3.org/2000/svg" xmlns:xlink="http://www.w3.org/1999/xlink" x="0px" y="0px"
	 viewBox="0 0 395.1 924" style="enable-background:new 0 0 395.1 924;" xml:space="preserve">
<style type="text/css">
	.st0{fill:#FFFFFF;}
</style>
<g>
	<path class="st0" d="M303.7,247.8c12.2,3.7,25.6-2.8,33.5-12.8c7.8-10,11.1-22.8,13.4-35.3c5.2-29.1,6-58.9,2.3-88.2
		c-5.3-42.2-23.6-87.3-62.4-104.7c-42.1-18.9-93.7,3.4-121.8,39.9s-37.7,83.8-44,129.5c-1.7,12.5-3.2,25.5,1.2,37.3
		c4.3,11.8,16.4,21.8,28.8,19.4C100.8,304.4,59,384.3,31,469.3c-25.1,75.5-52.4,167.6-5,239.9c24.1,36.4,61.7,61.7,104.6,70.3
		c6.9,1.3,14.5,2.6,19.1,7.9c3.5,4,4.5,9.4,5.3,14.6c3.5,23,4.7,46.2,3.3,69.4c-0.8,13.4-2.2,27.8,4.3,39.6s24.6,18,33.5,7.9
		c5.8-6.5,5.1-16.3,4.1-25c-4.1-35.5-8.1-71.1-12.2-106.6c5.2-0.4,10.4-0.8,15.5-1.2c5.3,29.1,10.7,58.1,16,87.2
		c1.5,8.2,3.3,17,9.3,22.9c9.4,9.3,24.8,7.4,37.8,4.9c3.7-0.7,7.6-1.5,10.4-4c9.6-8.6-2-23.1-11-32.3c-16.9-17.2-25.9-40.6-25-64.7
		c0.3-6.4,1.3-12.9,4.8-18.2c6-9.2,17.7-12.5,28.2-15.7c36.7-11,73.1-29.6,94.5-61.4c18.5-27.6,23.6-61.9,25.6-95.1
		C401.4,483.7,369.4,355.6,303.7,247.8z M233,135c4.6-29.9,25.5-60.5,49.1-74.8c6.6-4,14.6-7.4,21.8-4.6c5.1,1.9,8.7,6.5,11.6,11.1
		c18.3,28.7,23.6,63.9,14.5,96.7c-3.4,11.9-8.9,23.6-18.6,31.3c-14.2,11.3-35.5,11.4-51.1,2.1C236.1,182.4,229.3,158.9,233,135z
		 M233.5,189.4c3.9,3.2,7.1,6.2,10.7,8.6c7.8,5.1,15.9,9.7,23.7,14.7c1.3,0.9,2.4,2.1,3,3.6c4.3,9.5,8.4,19.1,12.7,29
		c-22.6-1.7-43.3-8.8-61-23.4C226.2,211.1,229.8,200.4,233.5,189.4L233.5,189.4z M170.5,840.5c-2.2-18.5-4.4-36.8-6.7-55.3H177
		c1.9,18.2,3.7,36.1,5.5,54.2C178.6,839.7,174.6,840.1,170.5,840.5z M223.3,831.6c-0.7-9.7-1.5-18.9-2.2-28.2
		c-0.5-6.5-0.8-13.1-1.3-19.6c-0.1-1.7,0.4-2.6,2.2-2.9c3.5-0.5,7-1.4,11.3-2.2c-1.1,16.8,0.4,33.1,3.3,49.5
		C231.9,829.4,227.7,830.4,223.3,831.6L223.3,831.6z M371.6,610.8c-1.2,27.1-4.3,55.4-18.8,78.3c-12.8,20.1-33.2,34.2-54.5,44.8
		c-53.3,26.5-113.9,34.5-172.3,23c-30.7-6.2-62-19-80.4-44.4c-17.7-24.4-23-54.9-21.6-87.1c2.1-50.4,20.6-104.5,33.3-144.3
		c25.7-80.3,62.4-156.7,109.3-226.8c10.9-16.4,24.8-28.8,45-18.2c21.9,11.5,37.6,18.4,61.9,22c24.7,3.6,35.5,21.4,44.4,43
		C357.9,399.2,376.2,504.9,371.6,610.8z"/>
	<path class="st0" d="M333.1,641.3c-0.2,0.9-0.6,1.8-1.3,2.4c-0.4,0.4-1.1,0.4-1.7,0.6c-4.2,1.3-4.1,1.3-3.4,5.7
		c0.5,3,0.9,6.1,1.3,9.1c0.2,1.4,0.2,2.9-0.2,4.3c-0.4,1.2-1.3,2.1-2.4,2.6c-0.7,0.2-2.3-1-2.7-1.9c-1.5-3.8-2.6-7.7-3.9-11.6
		c-0.4-1.4-0.7-2.9-1-4.4c-4.3,0.6-8.3,1.1-12.4,1.6c-0.1-0.3-0.2-0.6-0.3-0.9c1.8-2.8,4.6-4.8,7.8-5.7c3.7-1.2,4-3.1,3.2-6.3
		c-1.2-5.3-2.1-10.6-3-16c-0.4-1.5-0.4-3-0.1-4.5c0.3-1.2,1.6-2.9,2.4-2.9c1.4,0.2,2.6,1,3.3,2.3c1.5,4.8,2.6,9.7,3.8,14.5
		c0.6,2.4,1.2,4.8,1.6,7.2c0.3,1.7,1.1,2.5,2.9,2.2c1.4-0.2,2.9-0.2,4.3,0C332,639.8,333.1,640.7,333.1,641.3z"/>
	<path class="st0" d="M129.9,515.8c0,2.3-2,2.7-3.8,2.6c-3.1,0-4.5,1.2-4.1,4.4c0.2,1.3,0.1,2.7-0.4,3.9c-0.6,1.4-1.6,3.3-2.7,3.5
		c-2.2,0.5-2.8-1.7-3.1-3.4c-0.4-2.3-0.5-4.7-0.8-7.3c-2.4,0.1-4.9,0.1-7.3-0.1c-1.3-0.2-2.5-1.2-3.8-1.9c1.1-0.8,2-1.9,3.2-2.4
		c1.8-0.7,3.7-1.1,5.7-1.2c2.2-0.1,2.7-1.2,2.6-3.2c-0.2-7.3-0.3-14.5-0.4-21.8c0-2.7,0.2-5.3,0.6-8c0.2-1,1.2-1.9,1.9-2.8
		c0.9,0.8,2.3,1.6,2.5,2.6c0.5,2.9,0.8,5.9,0.8,8.8c0.4,6.7,0.8,13.5,1,20.2c0.1,2.3,0.7,3.5,3.1,3.2c0.3,0,0.6,0,0.9,0.1
		C127.8,513.5,129.9,513.5,129.9,515.8z"/>
	<path class="st0" d="M191.4,259.8c-3.2,6.5-6.6,12.9-10,19.4c-1.8,3.5-3.6,7.1-5.3,10.6c1.6,2.2,5.6,3.4,3.5,6.7
		c-0.7,1-3.9,0.3-6.6,0.5c-1.2,1.9-2.6,3.7-4,5.4c-0.8,0.8-2.2,1.1-3.3,1.6c-0.2-1.2-0.8-2.5-0.6-3.7c0.3-1.7,0.8-3.4,1.5-5
		c0.6-1.4,0.3-2.2-1.1-2.9c-1.8-0.8-3.4-1.9-4.9-3.1c-0.7-0.8-1-1.9-0.8-2.9c0.5-0.9,1.5-1.5,2.6-1.6c2.6,0.4,5.3,1,7.8,1.7
		c2.9-5.2,5.8-10.6,8.8-15.8c2.2-3.7,4.6-7.3,6.9-10.8c0.6-1,1.4-1.8,2.3-2.4c1-0.4,2-0.5,3.1-0.6
		C191.4,257.8,191.8,259,191.4,259.8z"/>
	<path class="st0" d="M274.6,541c-0.1,0.5-1.3,1.1-2,1.3c-1,0.3-2.1,0-3,0.2c-3.9,0.9-4.1,1.3-3.8,5.4c0.2,1.5,0.2,3.1,0,4.6
		c-0.4,1.4-1.4,2.6-2.2,3.9c-1-1-2.4-1.9-2.9-3.1c-0.8-2.2-1.4-4.4-1.9-6.6c-3.8,0.3-7.3,2.8-11.4-0.7c2.8-1.5,5-3.1,7.5-3.9
		c2.9-1,3.1-2.6,2.7-5.3c-1.3-9.2-2.3-18.5-3.3-27.8c-0.2-2.1,0-4.2,0.7-6.2c0.6,0.7,1.5,1.3,1.7,2.1c1.2,4,2.2,8.1,3.2,12.2
		c1.6,7,3.1,13.9,4.6,21c1.9-0.3,3.9-0.5,5.9-0.6c1.2,0,2.4,0.4,3.4,1C274.4,539.1,274.7,540.1,274.6,541z"/>
	<path class="st0" d="M115.7,391.8c-2.4,6.2-5.2,12.3-7.7,18.4c-1.5,3.6-2.7,7.3-4.2,10.9c-0.6,1.5-0.5,2.2,1,3.3
		c1,1,1.6,2.3,1.5,3.7c-0.1,0.7-2.3,1.6-3.4,1.4c-1.9-0.2-2.5,0.6-3.2,2c-0.9,1.9-2,3.8-3.3,5.5c-0.6,0.8-2,1.1-3,1.6
		c-0.4-1.1-1.2-2.2-1-3.2c0.6-2.5,1.3-4.9,2.1-7.3c-2.3-1-4.5-2-6.6-3.2c-0.8-0.5-1.7-1.9-1.5-2.6c0.5-0.9,1.5-1.6,2.6-1.7
		c1.8-0.2,3.7-0.1,5.5,0.4c2.4,0.6,3.1-0.4,4-2.4c4.4-9.7,8.9-19.3,13.6-28.8c0.5-1.1,2.1-1.6,3.3-2.4
		C115.5,388.9,116.1,390.6,115.7,391.8z"/>
	<path class="st0" d="M179,386.8c-1.1,0.5-2.2,1-3.2,1.5c-0.8,0.5-1.9,1-2.2,1.7c-0.7,1.8-0.9,3.8-1.7,5.5c-0.4,0.9-1.7,1.5-2.5,2.2
		c-0.6-1-1.7-1.9-1.8-2.9c-0.2-2.5-0.2-5-0.1-7.5c-1.9,0.1-3.9,0.1-5.8-0.1c-1.3-0.4-2.5-0.9-3.7-1.5c1.1-0.9,2.1-2.1,3.4-2.6
		c2.1-0.6,4.2-1,6.3-1.2c0.1-1.3,0.2-2.8,0.3-4.2c0.2-9,0.4-18,0.6-27c0-1.4,0.3-2.8,0.8-4.2c0.3-0.7,1.2-1.6,1.8-1.6
		c0.9,0.2,1.6,0.7,2,1.5c0.5,1.4,0.8,3,0.9,4.5c0.2,10,0.3,20.1,0.3,30.1c0,1.9,0.8,2.4,2.2,3.1C177.7,384.6,178.3,385.9,179,386.8z
		"/>
	<path class="st0" d="M102,693.8c0,0.7-0.9,1.9-1.5,1.9c-5.6,0.5-7.5,3.1-5.8,8.6c0.3,1-1.1,2.5-1.8,3.7c-1.1-0.7-2.1-1.5-3-2.5
		c-0.8-1.3-1.4-2.6-1.9-4c-4.1-0.4-7.7-0.6-11.3-1.2c-0.5-0.1-0.8-1.6-1.2-2.4c3.1-0.8,5.9-1.6,8.6-2.1c2.3-0.5,2.5-1.7,2.3-3.8
		c-0.7-9.4-1.3-18.8-1.9-28.2c-0.1-1.1-0.1-2.3,0.1-3.4c0.4-1,1-2,1.6-2.9c0.7,0.9,2,1.7,2.1,2.6c1,6.5,1.8,13,2.6,19.5
		c0.5,4.1,1,8.3,1.5,12.4c2.8,0,5.2-0.1,7.7,0.1C100.9,692.3,102,693.3,102,693.8z"/>
	<path class="st0" d="M235.7,707.9c0.1,0.7-0.8,1.4-1.2,2.1c-0.1,0.1-0.2,0.1-0.3,0.1c-5.1,0.5-5.9,3.4-4.7,7.7
		c0.1,0.3,0.1,0.6,0,0.9c-0.5,1.5-0.8,4.2-1.6,4.4c-2.6,0.6-2.8-2-3.5-3.8c-0.6-1.7-1-3.5-1.6-5.4c-1.9,0.4-3.6,0.9-5.3,1
		c-1.3,0.2-2.6,0.1-3.9-0.3c-0.9-0.4-1.6-1.1-1.9-2.1c0.2-1,0.8-1.8,1.6-2.2c1.9-0.8,3.8-1.5,5.8-1.9c1.6-0.4,2-1.1,1.7-2.6
		c-1.8-9.8-3.5-19.5-5.2-29.3c-0.2-1.1-0.2-2.2-0.3-3.2c0.2-0.2,0.5-0.3,0.7-0.5c0.8,0.7,2,1.2,2.5,2.1c1.2,2,2.1,4.2,2.8,6.5
		c1.9,7.4,3.7,14.9,5.3,22.4c0.5,2.2,1.3,3.2,3.7,2.5c1.2-0.3,2.4-0.4,3.6-0.2C234.7,706.5,235.4,707.1,235.7,707.9z"/>
	<path class="st0" d="M165.9,670.5c-0.7,0.8-1.2,1.9-2.1,2.2c-2.3,0.8-4.7,1.3-7.1,2c0.5,2.7,0.7,5.5,0.8,8.2c0,1.4-0.9,3.7-1.9,4
		c-2.2,0.7-2.4-1.7-2.8-3.1c-0.7-2.4-1.2-4.9-1.8-7.5c-5.7-0.1-11.1,3.1-17,1.2c4.3-4.1,10.1-4.5,15.6-6.1
		c-1.6-6.9-3.1-13.6-4.6-20.2c-0.6-2.9-1.1-5.8-1.3-8.8c-0.1-1.1,0.8-2.2,1.2-3.4c1.1,0.9,2.7,1.5,3.1,2.6c1,3,1.8,6.1,2.4,9.2
		c1.6,6.5,3.1,12.9,4.7,19.6c2.7-0.2,5.3-0.5,7.9-0.6C164.2,669.8,165.1,670,165.9,670.5z"/>
	<path class="st0" d="M247.3,390.7c0,1-0.8,2.7-1.5,2.8c-3.9,0.8-5.1,2.9-4.2,6.7c0.2,1-1.1,2.4-1.7,3.6c-1.1-0.8-2.9-1.4-3.1-2.4
		c-0.7-4.2-3.2-4.8-6.8-4.2c-0.5,0.1-1,0-1.5-0.2c-0.7-0.3-1.3-0.7-1.8-1.3c-0.2-0.4,0.5-1.3,1-1.7c0.9-0.7,1.9-1.3,2.9-1.6
		c2.4-0.6,3.1-1.7,2.5-4.4c-2.1-9.3-3.9-18.6-5.5-28c-0.3-1.5,0.7-3.2,1.1-4.8c1.2,1.2,3,2.3,3.4,3.7c2.3,8.4,4.3,16.8,6.4,25.3
		c0.4,1.8,0.8,3.6,1.2,5.4c1.7-0.3,3.4-0.5,5.1-0.5C245.7,389.1,247.2,390.1,247.3,390.7z"/>
	<path class="st0" d="M300.4,445.3c-0.3,0.9-0.7,1.7-1.1,2.5c-0.5,0.5-1.1,0.9-1.8,1.1c-1.4,0.5-2.2,2.1-1.7,3.5v0.1
		c0.3,1.8,0.3,3.7,0,5.5c-0.2,0.8-0.8,1.5-1.6,1.8c-0.9-0.1-1.7-0.5-2.1-1.3c-1-1.9-1.8-3.9-2.7-5.9c-2.3,0.5-4.7,1.1-7.1,1.3
		c-0.9,0.1-1.9-0.7-2.9-1.2c0.6-0.8,1-2,1.8-2.4c1.9-1.1,4.1-1.9,6.4-2.9c-2.2-11.5-8.2-22.1-8.3-35.3c1.5,1.2,2.6,1.6,3,2.4
		c1.6,2.8,3,5.8,4.3,8.8c2.6,7.2,5,14.5,7.6,22c1.2-0.5,2.4-0.8,3.6-1C298.7,444.3,299.5,444.9,300.4,445.3z"/>
	<path class="st0" d="M165.3,593.4c-0.3,0.5-0.7,0.8-1.2,0.9c-3.5,1.1-4.4,3.3-3.3,6.7c0.2,1.1,0.2,2.2-0.2,3.3
		c-0.6,2.1-2.6,2.6-3.9,0.9c-1-1.2-1.7-2.5-2.1-4c-0.4-2.6-1.7-2.7-3.9-2.3c-2.6,0.5-5.3,0.7-8,1c-0.1-0.5-0.3-0.9-0.4-1.4
		c2.4-3.3,6.3-4.2,10.2-5.7c-1.5-11.4-4.9-22.6-3.4-35.4c1.3,1.6,2.5,2.5,2.8,3.7c1.3,4.9,2.4,9.9,3.6,14.9
		c1.2,5.1,2.3,10.2,3.6,15.4c1.5-0.5,2.9-0.9,4.5-1.2c0.8-0.1,2.1,0.2,2.3,0.7C166.2,591.6,165.7,592.6,165.3,593.4z"/>
	<path class="st0" d="M269.9,314.3c0,1.1-1.8,2.2-2.8,3.4c-0.3,0.2-0.5,0.4-0.8,0.6c0.3,1.4,0.4,2.8,0.4,4.2c-0.2,1.1-1,2.8-1.8,3
		c-0.9,0.2-2.3-0.8-3.1-1.7c-0.8-1.1-1.4-2.4-1.9-3.7c-3.5,0.9-6.9,1.9-10.8,3c0.4-4.1,2.9-5.8,5.4-6.9c3.3-1.5,3.3-3.3,2.5-6.4
		c-2.3-8.2-4.1-16.4-6-24.7c-0.2-1.4-0.2-2.8,0-4.1c0.5-0.2,1-0.3,1.5-0.5c1.3,2.5,2.9,5,3.8,7.6c2.5,7.2,4.8,14.6,7.1,21.9
		c0.4,1.4,0.8,2.5,2.6,2.3C267.7,311.9,269.9,312,269.9,314.3z"/>
	<path class="st0" d="M259.2,614.6c-0.7,0.6-1.3,1.4-2,1.6c-4.2,1.2-4.2,1.2-3.3,5.6c0.5,1.5,0.7,3,0.7,4.5
		c-0.2,1.2-1.1,3.2-1.9,3.3c-1.4,0-2.8-0.7-3.7-1.8c-1.1-2-1.5-4.4-2.1-6.7c-0.2-0.6-0.4-1.1-0.6-1.8c-2.3,0-4.6,0.1-6.8,0
		c-0.6-0.2-1.3-0.4-1.8-0.8c0.4-0.7,0.5-1.7,1.1-1.9c2-1,4.1-1.7,6.4-2.5c-1.2-5.1-2.5-10.1-3.6-15.1c-0.7-3-1.2-6-1.5-9.1
		c-0.1-0.9,0.8-1.9,1.3-2.8c1,0.6,2.5,0.9,2.9,1.7c1.3,2.8,2.4,5.6,3.3,8.5c1.6,5.2,2.9,10.4,4.3,15.5c1.6-0.1,3.2-0.1,4.9,0.1
		C257.6,613.1,258.4,614,259.2,614.6z"/>
	<path class="st0" d="M347.3,522.9c-0.8,0.9-1.7,1.7-2.7,2.3c-1.5,0.6-3.1,1-4.6,1.4c0.5,3,0.8,6,1,9.1c0,1.2-1.1,2.4-1.7,3.5
		c-0.9-0.9-2-1.7-2.5-2.8c-1.3-2.8-2.3-5.7-3.6-9h-12.5c3-4.4,7.4-3.7,11.1-5.2c-0.9-5.4-1.9-10.8-2.7-16.2
		c-0.3-1.6-0.4-3.3-0.2-4.9c0.2-0.9,0.8-1.8,1.6-2.2c1,0,1.9,0.4,2.5,1.2c1.2,2.5,2.1,5.1,2.8,7.7c1.1,4.3,1.9,8.8,2.9,13.4
		c1.7-0.3,3.5-0.5,5.3-0.4C345.1,521.2,346.2,522.3,347.3,522.9z"/>
	<path class="st0" d="M202.2,478.8c-0.5,0.3-1.1,0.4-1.7,0.6c0.3,3,0.7,6,1,9.1c0.1,1.5,0.1,3.1-0.1,4.6c-0.1,0.8-0.9,1.4-1.3,2.1
		c-0.7-0.5-1.7-0.9-2-1.5c-1.1-3.1-2.1-6.2-3-9.3c-0.3-0.9-0.5-1.8-0.8-2.9c-1.8,0.3-3.6,0.4-5.4,0.4c-1-0.1-2.6-0.9-2.8-1.6
		c0-1.2,0.6-2.2,1.5-2.9c1.7-0.8,3.4-1.5,5.2-2c-0.5-7.3-1-14.2-1.5-21.1c-0.1-0.6-0.1-1.2,0-1.8c0.4-0.8,0.9-1.6,1.5-2.3
		c0.7,0.6,1.9,1.1,2.1,1.9c0.8,2.9,1.4,6,2,9c0.7,3.8,1.5,7.6,2.1,11.5c0.3,1.6,0.9,2.2,2.6,2.3c1.4,0.1,2.8,1,4.1,1.5
		C204.6,477,203.4,478,202.2,478.8z"/>
	<path class="st0" d="M95.7,587.7c-1.1,0.1-2.2,0.2-3.3,0.2c-0.8,0-1.6-0.5-2.4-0.5c-5-0.5-5.4-0.2-5.6,4.7c0.1,1.2,0,2.4-0.3,3.6
		c-0.3,0.8-1.2,1.4-1.8,2.1c-0.7-0.6-1.8-1.2-2-1.9c-0.6-2.2-0.9-4.6-1.3-7.3H68.5c-0.2-0.5-0.4-1-0.6-1.5c2-1.1,4.1-2,6.3-2.9
		c4.5-1.5,4.3-1.5,4.3-6.2c-0.1-5.6,0-11.2,0.4-16.8c0.1-1.3,1.4-2.5,2.2-3.8c0.7,1.3,1.9,2.5,2,3.9c0.6,6.8,0.9,13.6,1.3,20.6
		c2.3,0.3,4.4,0.4,6.3,0.8c1.3,0.2,2.5,0.8,3.5,1.7C95,585.2,95.2,586.6,95.7,587.7z"/>
	<path class="st0" d="M325.8,377.2c-0.6,0.8-1.1,2.2-1.9,2.4c-2.8,0.6-3,2.3-2.5,4.5c0.2,0.6,0.3,1.2,0.2,1.8
		c-0.1,0.7-0.4,1.4-1,1.9c-0.7,0.1-1.3-0.2-1.8-0.7c-1.4-4.9-5.1-4.1-8.8-3.8c-1,0.1-2-0.8-3-1.3c0.6-1,1.1-2.3,1.9-2.9
		c1.7-0.9,3.4-1.7,5.2-2.3c-2.2-7-4.4-14-6.5-20.9c-0.3-0.6-0.4-1.2-0.5-1.8c0-1.1,0.1-2.2,0.2-3.4c1.2,0.6,2.9,1,3.4,1.9
		c2.3,5.1,4.3,10.4,6.4,15.6c0.4,1,0.8,2.1,1,3.2c0.5,2.7,1.6,4.4,4.9,3.8C323.8,375.3,324.9,376.6,325.8,377.2z"/>
</g>
</svg>
