<svg id="Capa_1" data-name="Capa 1" xmlns="http://www.w3.org/2000/svg" viewBox="0 0 1391.18303 924.01782"><defs><style>.cls-1{fill:#fff;}.cls-2{fill:#2b3488;}</style></defs><path class="cls-1" d="M1003.2186,628.71253c4.33381,31.00757,12.87819,62.61217,32.95279,86.64493,22.82013,27.30784,57.50879,41.41721,91.37265,52.3625,7.45491,2.407,15.52527,5.13411,19.87141,11.65316,3.041,4.55549,3.73054,10.26815,3.866,15.747a97.09156,97.09156,0,0,1-29.81944,71.83369c-6.35906,6.039-14.28184,14.54041-9.87408,22.1245,2.61627,4.50612,8.409,5.81125,13.54924,6.68535,15.45749,2.62244,33.93149,4.25378,44.255-7.5472,6.16827-7.04236,7.46108-16.98423,8.48907-26.28585q4.48767-40.72167,8.98158-81.437l.0369-.35093c8.77222-2.53,13.54916,10.02189,13.57381,19.15737a291.714,291.714,0,0,1-7.71342,67.41376c-2.87478,12.23178-6.556,24.91925-3.65043,37.14495s15.41451,23.23869,27.36931,19.37274c11.94871-3.86587,15.56224-18.73257,17.08891-31.19836q6.8055-55.662,8.75989-111.77346c37.60673-9.34476,76.98013-19.62516,105.24209-46.13269,25.50411-23.91576,38.807-58.71533,42.396-93.49642,4.82624-46.76054-5.43575-93.632-17.82759-138.44106q-9.87113-35.67987-21.40423-70.87956c-2.40084-7.33787-19.20652-69.4637-24.6854-69.80843,12.829.81259,20.27156-14.18944,22.92473-26.7722,6.076-28.79749,4.64161-61.64564-14.64494-83.88091-16.935-19.52048-44.84605-27.68327-59.66345-48.85357-22.27217-31.82008-5.24488-75.99515-13.37069-113.97118-11.36385-53.095-72.89249-83.74546-126.75093-76.83851-35.17507,4.51232-70.31927,23.70039-85.21061,55.88369-23.528,50.84809,9.67111,112.08746-5.18942,166.10588-7.40562,26.92609-26.43359,50.39255-29.04987,78.19278-1.74218,18.49865,4.04435,36.78794,6.08816,55.25577,3.87828,35.03963-5.72506,69.95-12.29956,104.5834C999.04485,523.052,995.91142,576.44862,1003.2186,628.71253Zm111.92127-431.40858c-3.02267,1.44051-6.24838,2.78866-9.58485,2.57934-6.71608-.43092-11.327-6.7777-14.54026-12.68739A155.97788,155.97788,0,0,1,1077.3546,74.43743c2.78866-10.63745,7.09782-21.50271,15.69766-28.35428,3.29349,14.02326,14.33722,25.03625,26.526,32.7127,12.19489,7.67032,25.83032,12.749,38.35766,19.84676C1209.16577,127.66174,1147.48315,181.91409,1115.13987,197.30395Zm74.61.74489c-2.57322,3.05332-5.11562,6.13129-7.66412,9.2031a58.35061,58.35061,0,0,1-21.76749,16.621c-12.01641,5.21411-24.2482,9.948-36.4,14.84818-1.576.634-3.23187,1.0588-4.851,1.582-.1908-.2216-.38159-.44321-.5663-.66481,5.95891-9.88032,8.132-20.924,10.26191-31.99863a6.13912,6.13912,0,0,1,2.22853-3.06565c11.01908-8.99382,22.35219-17.63063,33.06355-26.97535,6.14362-5.35568,11.25309-11.881,16.9535-17.75989.95413-.985,2.55466-1.342,3.85363-1.9884a15.40771,15.40771,0,0,1,1.50817,3.50274c.73869,4.6416,1.29274,9.32011,1.90217,13.98632.78182,5.98357,1.37276,12.0041,2.43164,17.93844C1191.04879,195.21092,1190.95643,196.61449,1189.74989,198.04884Zm19.52048,658.30441c3.45348-17.43977,4.17991-35.1566,5.47881-52.81188.54172-7.33784,1.16348-14.66959,1.76675-22.27217,4.1984-.197,8.35982-.38782,12.946-.59711a35.66758,35.66758,0,0,1-.01849,3.66892c-1.8591,16.68268-3.91517,33.34679-5.57116,50.054-.81871,8.33517-.93571,16.738-1.33579,25.11012-.14774,2.99787-3.17033,7.01156-6.039,7.88573-3.66892,1.12035-6.54986-.51708-7.11014-4.33381A19.96154,19.96154,0,0,1,1209.27037,856.35325Zm-56.51161-4.67851c.35094-5.485,1.69905-10.90831,2.5978-16.36863,2.35161-14.24487,5.30649-28.41587,5.31265-42.95.00617-5.79886.00617-11.60394.00617-17.7907,3.52118.71411,7.104,1.55747,10.73593,2.12385,2.013.30779,2.81331,1.07729,2.64708,3.17025-.51715,6.5192-.88649,13.05065-1.342,19.5821-1.182,17.175-2.487,34.344-3.49045,51.53139-.23386,4.1122-2.33305,6.42068-5.58341,8.03353-2.67782,1.32963-5.7558,1.20655-7.79345-.83111C1154.2178,856.538,1152.62335,853.81091,1152.75876,851.67474ZM1057.42788,342.2272c10.39117-32.16481,24.94992-66.16409,54.5231-82.53888,14.34338-7.94735,30.829-10.86526,46.502-15.69154,8.42137-2.59779,16.91653-5.98356,24.32831-10.72365a21.17756,21.17756,0,0,1,28.91446,5.73119c17.02127,24.71,45.12926,62.74138,48.82283,68.91581A896.405,896.405,0,0,1,1313.115,410.33042c30.355,69.80847,60.54994,150.65447,55.00959,228.05932-2.25926,31.58611-13.34612,63.714-36.55408,85.266-19.859,18.44318-46.74821,27.57242-73.49576,31.93088-47.78244,7.781-97.36861,1.73594-142.96566-14.53425-29.28387-10.44662-58.51845-26.39046-74.27758-53.18731-10.98842-18.671-14.33722-40.777-16.37487-62.34127C1015.4319,530.21741,1028.01476,433.3229,1057.42788,342.2272Z"/><path class="cls-2" d="M1155.84906,858.17538c2.03765,2.03766,5.11563,2.16074,7.79345.83111,3.25036-1.61285,5.34955-3.92133,5.58341-8.03353,1.00349-17.18735,2.30848-34.35637,3.49045-51.53139.45553-6.53145.82487-13.0629,1.342-19.5821.16623-2.093-.63408-2.86246-2.64708-3.17025-3.63195-.56638-7.21475-1.40974-10.73593-2.12385,0,6.18676,0,11.99184-.00617,17.7907-.00616,14.53417-2.961,28.70517-5.31265,42.95-.89875,5.46032-2.24686,10.88367-2.5978,16.36863C1152.62335,853.81091,1154.2178,856.538,1155.84906,858.17538Z"/><path class="cls-2" d="M1209.3873,863.05708c.56028,3.81673,3.44122,5.45416,7.11014,4.33381,2.86869-.87417,5.89128-4.88786,6.039-7.88573.40008-8.37214.51708-16.77495,1.33579-25.11012,1.656-16.70724,3.71206-33.37135,5.57116-50.054a35.66758,35.66758,0,0,0,.01849-3.66892c-4.58615.20929-8.74757.40008-12.946.59711-.60327,7.60258-1.225,14.93433-1.76675,22.27217-1.2989,17.65528-2.02533,35.37211-5.47881,52.81188A19.96154,19.96154,0,0,0,1209.3873,863.05708Z"/><path class="cls-2" d="M1091.01476,187.1959c3.21323,5.90969,7.82418,12.25647,14.54026,12.68739,3.33647.20932,6.56218-1.13883,9.58485-2.57934,32.34328-15.38986,94.0259-69.64221,42.79607-98.66134-12.52734-7.09779-26.16277-12.17644-38.35766-19.84676-12.1888-7.67645-23.23253-18.68944-26.526-32.7127-8.59984,6.85157-12.909,17.71683-15.69766,28.35428A155.97788,155.97788,0,0,0,1091.01476,187.1959Z"/><path class="cls-2" d="M1118.501,239.6384c.18471.2216.3755.44321.5663.66481,1.61909-.52324,3.275-.948,4.851-1.582,12.15183-4.90015,24.38362-9.63407,36.4-14.84818a58.35061,58.35061,0,0,0,21.76749-16.621c2.5485-3.07181,5.0909-6.14978,7.66412-9.2031,1.20654-1.43435,1.2989-2.83792.9542-4.77086-1.05888-5.93434-1.64982-11.95487-2.43164-17.93844-.60943-4.66621-1.16348-9.34472-1.90217-13.98632a15.40771,15.40771,0,0,0-1.50817-3.50274c-1.299.64641-2.8995,1.00343-3.85363,1.9884-5.70041,5.87892-10.80988,12.40421-16.9535,17.75989-10.71136,9.34472-22.04447,17.98153-33.06355,26.97535a6.13912,6.13912,0,0,0-2.22853,3.06565C1126.633,218.71435,1124.4599,229.75808,1118.501,239.6384Z"/><path class="cls-2" d="M1024.45661,625.52379c2.03765,21.5643,5.38645,43.67024,16.37487,62.34127,15.75913,26.79685,44.99371,42.74069,74.27758,53.18731,45.59705,16.27019,95.18322,22.3153,142.96566,14.53425,26.74755-4.35846,53.63675-13.4877,73.49576-31.93088,23.208-21.552,34.29482-53.67989,36.55408-85.266,5.54035-77.40485-24.65459-158.25085-55.00959-228.05932a896.405,896.405,0,0,0-52.59636-102.41029c-3.69357-6.17443-31.80156-44.20584-48.82283-68.91581a21.17756,21.17756,0,0,0-28.91446-5.73119c-7.41178,4.74009-15.90694,8.12586-24.32831,10.72365-15.673,4.82628-32.15865,7.74419-46.502,15.69154-29.57318,16.37479-44.13193,50.37407-54.5231,82.53888C1028.01476,433.3229,1015.4319,530.21741,1024.45661,625.52379Zm298.36014-126.757a9.01268,9.01268,0,0,1-18.02463.16,9.01292,9.01292,0,0,1,18.02463-.16Zm5.15876,69.9869a14.07349,14.07349,0,0,1,14.30641-13.857,13.73456,13.73456,0,0,1,13.62919,13.79542,13.96844,13.96844,0,0,1-27.9356.06162Zm-24.69157,132.082a13.43773,13.43773,0,0,1,13.51227-13.7586,13.6443,13.6443,0,0,1,13.92482,13.74011c.00616,7.71951-5.81734,13.50611-13.67233,13.59847A13.60955,13.60955,0,0,1,1303.28394,700.83568Zm-14.54642-85.15524a10.91547,10.91547,0,0,1,10.90831-10.97609,10.77489,10.77489,0,0,1,10.87135,10.32969c.12309,6.42685-4.5615,11.43779-10.70512,11.45628A10.87064,10.87064,0,0,1,1288.73752,615.68044Zm-36.16618-166.0751a12.69052,12.69052,0,0,1-.02465-25.38095A12.71536,12.71536,0,0,1,1265.271,436.9426,12.574,12.574,0,0,1,1252.57134,449.60534Zm-9.50482,86.251a9.142,9.142,0,0,1,9.36933-8.98157,9.00153,9.00153,0,0,1,8.97534,9.01847,9.17236,9.17236,0,1,1-18.34467-.0369Zm-21.0657,161.021a9.46279,9.46279,0,1,1,9.4556,9.32011A9.38618,9.38618,0,0,1,1222.00082,696.87737Zm-16.30093-69.46366a5.63765,5.63765,0,0,1,5.78052-5.55267,5.17775,5.17775,0,0,1,5.48489,5.3618,5.77694,5.77694,0,0,1-5.60189,5.79269A5.47773,5.47773,0,0,1,1205.69989,627.41371Zm-2.71472-316.47715a12.53559,12.53559,0,1,1,12.60737,12.398A12.4953,12.4953,0,0,1,1202.98517,310.93656ZM1185.71156,552.8221a4.62946,4.62946,0,0,1,9.24624-.10468,4.57746,4.57746,0,0,1-4.617,4.66009A4.37883,4.37883,0,0,1,1185.71156,552.8221Zm-4.14294-95.25709a7.13944,7.13944,0,1,1,7.05469,6.97466A7.03,7.03,0,0,1,1181.56862,457.565Zm-17.87689-82.37886a8.44727,8.44727,0,1,1,8.58759,8.24278A8.39767,8.39767,0,0,1,1163.69173,375.18615ZM1060.241,567.23319a6.33489,6.33489,0,0,1,5.7682,6.06359,5.255,5.255,0,0,1-5.57733,5.22023,5.73059,5.73059,0,0,1-5.73122-5.89737A5.50555,5.50555,0,0,1,1060.241,567.23319Zm82.67437-60.50681a9.6013,9.6013,0,0,1,10.00342,9.08618,9.4872,9.4872,0,0,1-9.26466,10.108,9.65252,9.65252,0,0,1-10.02806-9.394A9.55279,9.55279,0,0,1,1142.91541,506.72638Zm14.448-208.68653a7.2161,7.2161,0,0,1-7.33784,7.10394,6.12355,6.12355,0,0,1-6.1313-6.32829,7.47,7.47,0,0,1,7.61483-7.264C1155.14119,291.65613,1157.44967,294.217,1157.3634,298.03985Zm-12.99512,353.99764a13.51389,13.51389,0,0,1-13.30306-13.66624,13.328,13.328,0,0,1,13.27225-13.32147,13.64649,13.64649,0,0,1,13.49379,13.53075A13.34389,13.34389,0,0,1,1144.36828,652.03749Zm-36.00611,56.11138a13.57183,13.57183,0,1,1,13.71539,13.54924A13.56993,13.56993,0,0,1,1108.36217,708.14887Zm-8.1936-155.75773a8.20674,8.20674,0,1,1,8.27355,8.37831A8.13329,8.13329,0,0,1,1100.16857,552.39114Zm-8.45826-114.89453a11.81433,11.81433,0,0,1,11.86251-11.59166,10.95021,10.95021,0,0,1,11.13,11.04993,11.76666,11.76666,0,0,1-11.48093,11.94871A11.26453,11.26453,0,0,1,1091.71031,437.49661Zm-9.86184-91.56352a9.44713,9.44713,0,1,1,18.89256.24625,9.44711,9.44711,0,0,1-18.89256-.24625ZM1070.2691,506.33855a7.22272,7.22272,0,0,1-7.43012-7.31326,7.56544,7.56544,0,1,1,7.43012,7.31326Zm-21.17023,132.60524a13.19551,13.19551,0,1,1,13.09371,13.11827A13.20557,13.20557,0,0,1,1049.09887,638.94379Z"/><path class="cls-1" d="M1327.97551,568.75369a13.96852,13.96852,0,1,0,14.30641-13.857A14.07349,14.07349,0,0,0,1327.97551,568.75369Z"/><path class="cls-1" d="M1303.28394,700.83568a13.60955,13.60955,0,0,0,13.76476,13.58c7.855-.09236,13.67849-5.879,13.67233-13.59847a13.6443,13.6443,0,0,0-13.92482-13.74011A13.43773,13.43773,0,0,0,1303.28394,700.83568Z"/><path class="cls-1" d="M1108.36217,708.14887a13.57211,13.57211,0,1,0,13.44449-13.84471A13.53486,13.53486,0,0,0,1108.36217,708.14887Z"/><path class="cls-1" d="M1131.06522,638.37125a13.51389,13.51389,0,0,0,13.30306,13.66624,13.34389,13.34389,0,0,0,13.463-13.457,13.64649,13.64649,0,0,0-13.49379-13.53075A13.328,13.328,0,0,0,1131.06522,638.37125Z"/><path class="cls-1" d="M1049.09887,638.94379a13.14387,13.14387,0,0,0,13.09371,13.11827,13.2029,13.2029,0,1,0-13.09371-13.11827Z"/><path class="cls-1" d="M1239.90236,437.24423a12.68641,12.68641,0,0,0,25.36862-.30163,12.68652,12.68652,0,1,0-25.36862.30163Z"/><path class="cls-1" d="M1202.98517,310.93656a12.53559,12.53559,0,1,0,25.067-.43093,12.5358,12.5358,0,0,0-25.067.43093Z"/><path class="cls-1" d="M1091.71031,437.49661a11.26453,11.26453,0,0,0,11.51158,11.407,11.76666,11.76666,0,0,0,11.48093-11.94871,10.95021,10.95021,0,0,0-11.13-11.04993A11.81433,11.81433,0,0,0,1091.71031,437.49661Z"/><path class="cls-1" d="M1288.73752,615.68044a10.87064,10.87064,0,0,0,11.07454,10.80988c6.14362-.01849,10.82821-5.02943,10.70512-11.45628a10.77489,10.77489,0,0,0-10.87135-10.32969A10.91547,10.91547,0,0,0,1288.73752,615.68044Z"/><path class="cls-1" d="M1133.62611,516.5266a9.65252,9.65252,0,0,0,10.02806,9.394,9.4872,9.4872,0,0,0,9.26466-10.108,9.65515,9.65515,0,0,0-19.29272.714Z"/><path class="cls-1" d="M1081.84847,345.93309a9.44713,9.44713,0,1,0,9.73259-9.35088A9.43339,9.43339,0,0,0,1081.84847,345.93309Z"/><path class="cls-1" d="M1222.00082,696.87737a9.46279,9.46279,0,1,0,18.92337-.28938,9.46285,9.46285,0,1,0-18.92337.28938Z"/><path class="cls-1" d="M1243.06652,535.85635a9.17236,9.17236,0,1,0,18.34467.0369,9.00153,9.00153,0,0,0-8.97534-9.01847A9.142,9.142,0,0,0,1243.06652,535.85635Z"/><path class="cls-1" d="M1304.79212,498.92677a9.01268,9.01268,0,0,0,18.02463-.16,9.01292,9.01292,0,0,0-18.02463.16Z"/><path class="cls-1" d="M1163.69173,375.18615a8.465,8.465,0,0,0,8.58759,8.24278,8.44664,8.44664,0,1,0-8.58759-8.24278Z"/><path class="cls-1" d="M1100.16857,552.39114a8.20675,8.20675,0,1,0,8.2982-8.03346A8.12544,8.12544,0,0,0,1100.16857,552.39114Z"/><path class="cls-1" d="M1062.839,499.02529a7.22272,7.22272,0,0,0,7.43012,7.31326,7.39009,7.39009,0,1,0-7.43012-7.31326Z"/><path class="cls-1" d="M1181.56862,457.565a7.13944,7.13944,0,1,0,14.26944-.4925,7.13933,7.13933,0,0,0-14.26944.4925Z"/><path class="cls-1" d="M1143.89426,298.8155a6.12355,6.12355,0,0,0,6.1313,6.32829,7.2161,7.2161,0,0,0,7.33784-7.10394c.08627-3.82286-2.22221-6.38372-5.85431-6.48839A7.47,7.47,0,0,0,1143.89426,298.8155Z"/><path class="cls-1" d="M1205.69989,627.41371a5.47773,5.47773,0,0,0,5.66352,5.60182,5.77694,5.77694,0,0,0,5.60189-5.79269,5.17775,5.17775,0,0,0-5.48489-5.3618A5.63765,5.63765,0,0,0,1205.69989,627.41371Z"/><path class="cls-1" d="M1054.70069,572.61964a5.73059,5.73059,0,0,0,5.73122,5.89737,5.255,5.255,0,0,0,5.57733-5.22023,6.33489,6.33489,0,0,0-5.7682-6.06359A5.50555,5.50555,0,0,0,1054.70069,572.61964Z"/><path class="cls-1" d="M1185.71156,552.8221a4.37883,4.37883,0,0,0,4.62928,4.55541,4.57746,4.57746,0,0,0,4.617-4.66009,4.62946,4.62946,0,0,0-9.24624.10468Z"/><path class="cls-1" d="M899.14516,476.67219c-7.95343-62.75374-20.86859-130.43836-50.84193-186.73449-3.33655-6.26674-21.26874-43.82417-28.36656-43.898a154.15594,154.15594,0,0,0,38.67161-4.51848c3.946-.97877,8.02121-2.2038,10.98835-4.99246,8.77222-8.25511,2.53632-22.777-4.08132-32.84195,7.86724-1.83446,16.09157-3.84747,22.13059-9.20931,6.0451-5.3618,8.93228-15.20519,4.07523-21.65661-2.07455-2.75785-5.4111-4.83856-6.03286-8.2305-1.36043-7.44867,10.065-9.58481,14.97739-15.35292,5.55268-6.51917,1.64983-16.35019-1.79749-24.1867a153.26209,153.26209,0,0,1-11.4931-40.49382c-1.32978-9.57865-1.80988-19.48971-5.7497-28.32351-7.04237-15.79614-25.11629-12.8659-33.27292-26.43976a15.65035,15.65035,0,0,0-4.543-4.49387C817.43115,7.13357,782.41621-1.47242,750.67,3.37846c-24.00819,3.669-47.99172,14.842-68.50954,27.60328C664.49289,41.97008,659.88826,56.966,652.3349,75.52c-3.24419,7.972,2.31464,15.64841.437,22.93706-1.37276,5.32487-6.00821,6.70383-8.70452,11.51779-5.251,9.39394-6.46374,21.41035.91115,30.18874,2.70239,3.21338,6.51288,6.79,5.23871,10.78523-.77565,2.43773-3.21346,3.87207-5.3373,5.30642-8.6429,5.86043-14.78652,16.27632-13.19831,26.59981,1.5944,10.32353,12.59507,18.94186,22.59845,15.94391-5.054,7.41791-10.24347,15.17439-11.58546,24.05129s2.39467,19.21268,10.74833,22.50613c-22.56159,33.77767-42.77769,68.87888-61.90422,104.69416-8.63681,16.17164-16.95966,32.55877-24.29137,49.346-6.63,15.19287-11.51779,31.13062-17.55677,46.60051a912.86782,912.86782,0,0,0-29.81323,91.80977c-10.736,39.34267-19.07111,84.9274-12.30573,125.569,11.013,66.11486,86.70034,107.42124,147.87817,116.99985,1.79132.27706,2.27766,1.21278,2.54849,2.83179.99726,5.95892,2.18539,11.88709,3.20722,17.84608,1.58212,9.2893,2.57938,18.72018,4.74629,27.868a118.0494,118.0494,0,0,1,.59711,50.61416,104.26714,104.26714,0,0,0-2.00685,21.9398c.197,9.22775,6.05743,15.88845,13.82014,19.582,7.621,3.62586,16.01162,3.73054,24.6053,1.34819,10.31737-2.86253,14.65118-11.64091,15.02044-20.70861.39407-9.77564-1.976-19.07727-5.21406-28.23115-1.87143-5.28178-3.99521-10.63133-4.72773-16.12246-2.27767-17.05194-3.95214-34.184-5.82966-51.2913-.78182-7.11015-1.47752-14.22638-2.25926-21.73052,4.24762,0,7.84267.14165,11.41307-.05538,2.30848-.12925,3.13343.57862,3.552,2.93023,4.88785,27.34466,1.2928,67.75237,14.02942,92.27147,10.95145,21.08411,39.792,26.75988,58.48148,13.14909,6.71615-4.89394,7.46716-13.14909,2.4254-19.82211-3.79817-5.0356-8.77838-8.47059-14.38636-11.2346-2.801-1.37893-6.35914-2.85028-7.68877-5.30034-3.238-5.97739-6.85781-12.36727-7.67036-18.9172-1.80373-18.07385-3.29342-36.14153-4.62312-54.2646-.11084-1.50209-.17847-3.15808.75108-4.34613.92955-1.19422,2.56082-1.539,4.05059-1.80981,38.89329-7.14712,85.186-25.15942,113.08467-54.44322,28.06494-29.45,29.35775-74.74551,31.11217-112.95543A774.00943,774.00943,0,0,0,899.14516,476.67219ZM739.934,107.27236c6.78379-7.60874,8.80912-16.83653,7.58409-26.64911-.62176-4.94937.13541-8.0335,4.9863-10.4343,6.50071-3.21958,9.73875-9.2524,11.73943-16.16552,2.29-7.91653,5.14012-15.673,7.74415-23.50339.36318.08616.7326.16619,1.0957.25238,3.12727,4.90014,5.96515,10.02189,9.48025,14.62653a49.12728,49.12728,0,0,0,9.10459,8.8707c2.83172,2.17923,4.45074,4.36458,4.4569,8.10741.02464,8.08276,3.65667,14.134,11.22235,17.49518,4.15526,1.84679,8.15663,3.93366,10.80364,7.79957a5.42487,5.42487,0,0,1,.99109,3.56432c-1.065,6.33445.96037,11.32075,6.76538,14.02322,8.87683,4.13682,12.23186,11.10531,12.78591,20.57316,1.24968,21.18263-4.59847,40.31532-15.66685,58.05059a39.71323,39.71323,0,0,1-14.52809,14.30025c-9.52323,5.171-19.10191,4.78931-28.39114-.62176-8.48291-4.93708-17.45216-9.32627-25.0609-15.396-9.23392-7.36249-17.75989-15.81463-23.51576-26.45824a4.30189,4.30189,0,0,1,.07395-3.77976c8.47674-11.43159,8.05811-22.90628.54781-34.541-.437-.67717-.78182-1.4097-1.028-1.85294C734.18432,112.69574,737.31159,110.20872,739.934,107.27236Zm3.60114,90.4062c-1.55131-3.87208-2.98555-7.79341-4.266-11.75784-.37551-1.16965-.06155-2.56706-.06155-4.61084,4.96166,4.15527,9.40623,7.75652,13.71539,11.50547,7.60882,6.6238,16.76879,10.55746,25.70107,14.82352,5.38645,2.57935,9.46176,4.80163,9.68945,12.23186.22168,7.17786,3.26268,14.26948,5.14028,21.69971-1.12043-.06771-2.30848-.10464-3.48429-.22161-20.407-2.07455-39.07792-8.64293-55.32347-21.435a3.43665,3.43665,0,0,1-1.20038-2.48083c.02465-.54172,1.15724-1.23119,1.91449-1.502C743.46753,213.00071,746.7363,205.6628,743.53517,197.67856ZM697.261,881.998a33.10018,33.10018,0,0,1-6.08208,5.04168c-3.01027,1.74218-5.62038-.06154-8.19969-1.71137-2.2839-1.465-3.06565-3.041-2.89334-5.96508.84953-14.19564,1.77292-28.39121,0-42.61759-2.06222-16.56567-3.77976-33.1744-5.6327-49.7708-.12925-1.18813-.13541-2.39467-.22769-4.06291,4.186.35086,7.8734.50475,11.49926,1.08345.75717.11693,1.71753,1.76052,1.82214,2.77634.94187,9.38165,1.43438,18.80637,2.604,28.15112,1.39125,11.07454,3.50886,22.05673,4.9494,33.13127.788,6.06975.67714,12.2565,1.26816,18.36932a57.576,57.576,0,0,0,2.01917,9.905C699.0154,878.55065,698.86151,880.45905,697.261,881.998Zm59.8111-18.30162c.64641,1.08346,1.10194,2.28384,1.92689,4.01985a44.08253,44.08253,0,0,1-3.89676,4.82008c-3.53967,3.3119-10.54506,4.27835-13.88169,1.80373a6.77426,6.77426,0,0,1-2.70239-4.06915c-.84952-7.84267-1.76683-15.71614-1.87143-23.58955-.2585-18.64022-3.08413-36.97256-5.922-55.31115-.28322-1.8283-.314-3.69973-.72027-5.49113-.51092-2.24077.09852-3.33655,2.49935-3.238A16.41152,16.41152,0,0,0,734.96,782.481c6.92543-.70795,6.83308-.69563,7.52254,6.34065,1.56364,15.90694,2.9364,31.83853,5.00479,47.68393.88033,6.747,3.06572,13.36461,5.134,19.88982C753.45862,859.03017,755.60088,861.24021,757.07208,863.69642Zm122.9097-244.6311c-1.85295,23.82347-5.23872,48.29336-17.31675,68.90968-19.939,34.04234-59.528,51.14349-97.664,61.23933-34.95964,9.25233-71.58135,14.50337-107.329,9.04921-35.74138-5.45416-70.67637-22.55539-92.413-51.45143-20.57932-27.36315-27.30164-60.83918-26.51366-95.60795,1.05881-46.58206,15.59915-95.47869,28.36044-135.08609,24.56836-76.27826,62.74139-148.506,102.2133-217.12631,1.71746-2.99179,3.57041-6.10669,6.52529-7.88577,6.18059-3.712,13.96172-.14774,21.14573.50479,11.65316,1.065,10.60052-10.60052,17.71675-13.71542,7.775-3.40426,22.026,3.25032,28.98216,6.35294,11.00691,4.91859,22.026,10.95141,34.07322,11.37,16.03627.56021,24.12511-.32625,32.40483,14.9651C867.33128,376.15787,889.25875,499.85543,879.98178,619.06532Z"/><path class="cls-2" d="M758.999,867.71627a44.08253,44.08253,0,0,1-3.89676,4.82008c-3.53967,3.3119-10.54506,4.27835-13.88169,1.80373a6.77426,6.77426,0,0,1-2.70239-4.06915c-.84952-7.84267-1.76683-15.71614-1.87143-23.58955-.2585-18.64022-3.08413-36.97256-5.922-55.31115-.28322-1.8283-.314-3.69973-.72027-5.49113-.51092-2.24077.09852-3.33655,2.49935-3.238A16.41152,16.41152,0,0,0,734.96,782.481c6.92543-.70795,6.83308-.69563,7.52254,6.34065,1.56364,15.90694,2.9364,31.83853,5.00479,47.68393.88033,6.747,3.06572,13.36461,5.134,19.88982.83727,2.63476,2.97953,4.8448,4.45073,7.301C757.71849,864.77988,758.174,865.98026,758.999,867.71627Z"/><path class="cls-2" d="M697.261,881.998a33.10018,33.10018,0,0,1-6.08208,5.04168c-3.01027,1.74218-5.62038-.06154-8.19969-1.71137-2.2839-1.465-3.06565-3.041-2.89334-5.96508.84953-14.19564,1.77292-28.39121,0-42.61759-2.06222-16.56567-3.77976-33.1744-5.6327-49.7708-.12925-1.18813-.13541-2.39467-.22769-4.06291,4.186.35086,7.8734.50475,11.49926,1.08345.75717.11693,1.71753,1.76052,1.82214,2.77634.94187,9.38165,1.43438,18.80637,2.604,28.15112,1.39125,11.07454,3.50886,22.05673,4.9494,33.13127.788,6.06975.67714,12.2565,1.26816,18.36932a57.576,57.576,0,0,0,2.01917,9.905C699.0154,878.55065,698.86151,880.45905,697.261,881.998Z"/><path class="cls-2" d="M823.027,183.8831a39.71323,39.71323,0,0,1-14.52809,14.30025c-9.52323,5.171-19.10191,4.78931-28.39114-.62176-8.48291-4.93708-17.45216-9.32627-25.0609-15.396-9.23392-7.36249-17.75989-15.81463-23.51576-26.45824a4.30189,4.30189,0,0,1,.07395-3.77976c8.47674-11.43159,8.05811-22.90628.54781-34.541-.437-.67717-.78182-1.4097-1.028-1.85294,3.05949-2.83789,6.18676-5.32491,8.8092-8.26127,6.78379-7.60874,8.80912-16.83653,7.58409-26.64911-.62176-4.94937.13541-8.0335,4.9863-10.4343,6.50071-3.21958,9.73875-9.2524,11.73943-16.16552,2.29-7.91653,5.14012-15.673,7.74415-23.50339.36318.08616.7326.16619,1.0957.25238,3.12727,4.90014,5.96515,10.02189,9.48025,14.62653a49.12728,49.12728,0,0,0,9.10459,8.8707c2.83172,2.17923,4.45074,4.36458,4.4569,8.10741.02464,8.08276,3.65667,14.134,11.22235,17.49518,4.15526,1.84679,8.15663,3.93366,10.80364,7.79957a5.42487,5.42487,0,0,1,.99109,3.56432c-1.065,6.33445.96037,11.32075,6.76538,14.02322,8.87683,4.13682,12.23186,11.10531,12.78591,20.57316C839.94349,147.01514,834.09534,166.14783,823.027,183.8831Z"/><path class="cls-2" d="M793.45378,241.57044c-1.12043-.06771-2.30848-.10464-3.48429-.22161-20.407-2.07455-39.07792-8.64293-55.32347-21.435a3.43665,3.43665,0,0,1-1.20038-2.48083c.02465-.54172,1.15724-1.23119,1.91449-1.502,8.1074-2.93024,11.37617-10.26815,8.175-18.25239-1.55131-3.87208-2.98555-7.79341-4.266-11.75784-.37551-1.16965-.06155-2.56706-.06155-4.61084,4.96166,4.15527,9.40623,7.75652,13.71539,11.50547,7.60882,6.6238,16.76879,10.55746,25.70107,14.82352,5.38645,2.57935,9.46176,4.80163,9.68945,12.23186C788.53518,227.04859,791.57618,234.14021,793.45378,241.57044Z"/><path class="cls-2" d="M810.16711,270.58341c-8.27972-15.29135-16.36856-14.40489-32.40483-14.9651-12.04723-.4186-23.06631-6.45142-34.07322-11.37-6.95617-3.10262-21.2072-9.7572-28.98216-6.35294-7.11623,3.1149-6.06359,14.78043-17.71675,13.71542-7.184-.65253-14.96514-4.2168-21.14573-.50479-2.95488,1.77908-4.80783,4.894-6.52529,7.88577-39.47191,68.62033-77.64494,140.84805-102.2133,217.12631-12.76129,39.6074-27.30163,88.504-28.36044,135.08609-.788,34.76877,5.93434,68.2448,26.51366,95.60795,21.73664,28.896,56.67163,45.99727,92.413,51.45143,35.74761,5.45416,72.36932.20312,107.329-9.04921,38.136-10.09584,77.725-27.197,97.664-61.23933,12.078-20.61632,15.4638-45.08621,17.31675-68.90968C889.25875,499.85543,867.33128,376.15787,810.16711,270.58341Zm-236.81918,381.644c-1.49589,7.70725-5.87275,13.64768-12.14566,18.11074a6.19205,6.19205,0,0,1-8.92-1.88368,38.19186,38.19186,0,0,1-4.68467-11.78865c-1.04651-5.8912,3.06565-8.58135,8.56291-6.22981.64636.27706,1.29889.54789,1.92681.80639a62.46381,62.46381,0,0,1,4.71548-4.88162,6.41734,6.41734,0,0,1,7.46712-.91107A5.90929,5.90929,0,0,1,573.34793,652.22739Zm3.749-130.90619c-3.712,2.65934-7.97195,2.24078-10.4651-1.60053a44.84807,44.84807,0,0,1-4.106-9.16621c-.81875-2.26542-1.15116-5.05408,1.20042-6.42068,1.62514-.948,3.989-.63408,6.02665-.88026.13542.26466.277.53556.4186.8003.8803-1.36667,1.47128-3.13959,2.70247-4.00136,1.71134-1.20045,4.06291-2.61012,5.82966-2.27158,1.77908.33853,3.909,2.41315,4.6108,4.223C585.67215,508.0736,582.37873,517.52912,577.09692,521.3212Zm28.29274,53.93839a87.36164,87.36164,0,0,1-9.3386-8.38439c-2.67166-2.77018-3.02255-6.03278-1.50817-8.41521,1.5882-2.50543,4.44457-3.44731,8.18123-2.63476a28.36516,28.36516,0,0,1,3.54583,1.0035c1.13268.40624,2.21613.96029,3.38577,1.4712,1.02187-1.99452,1.84679-3.97671,2.998-5.75572,2.61627-4.026,7.13472-4.29691,10.36046-.73875,6.1744,6.79611,3.32419,18.96642-5.53422,23.89734C613.31236,578.0236,609.18787,578.20831,605.38966,575.25959ZM638.22545,715.806c-1.39738,4.223-5.6019,5.8235-9.83719,4.266a24.70122,24.70122,0,0,1-14.73733-13.53076c-1.33583-3.01027-1.48973-6.06975.751-8.686,2.17923-2.54241,5.12792-2.881,8.16279-1.80989,1.60057.56638,2.46854.25242,3.09646-1.32346a18.86215,18.86215,0,0,1,1.77292-3.21955c1.9391-2.97953,4.59231-4.75853,8.26126-4.17375,3.552.56014,5.47881,2.99794,6.34062,6.32833.32628,1.28041.40631,2.62244.60331,3.93358.14157.0493.28315.10468.42472.16006C641.482,703.77727,640.183,709.9024,638.22545,715.806Zm36.00611-287.19948c-.948,7.21475-3.45963,13.95551-8.42752,19.422-4.86314,5.34336-11.03757,5.46649-16.19626.44938a60.02681,60.02681,0,0,1-7.01159-8.08889c-2.54857-3.5766-2.24693-7.3071.28315-9.81874,2.524-2.51163,6.14975-2.6963,9.89877-.46785,1.04648.62175,2.04382,1.342,3.16417,2.093a88.15077,88.15077,0,0,1,5.485-8.03966c3.515-4.13065,8.49516-4.67238,11.09919-1.182A8.61256,8.61256,0,0,1,674.23156,428.60653ZM690.42782,321.807c-6.03895-1.69288-11.41924-4.54309-14.9589-10.02806a11.06629,11.06629,0,0,1-1.342-2.75169c-.90491-2.93023-1.31115-5.8974,1.04655-8.37823,2.23461-2.35157,5.07866-1.85911,7.78113-1.13271a44.56155,44.56155,0,0,1,5.11562,2.07455c1.00951-1.56359,1.84679-3.09642,2.91175-4.43841,3.21339-4.063,8.45826-3.4658,10.74826,1.15728,2.77017,5.58345.98493,16.71957-3.41658,21.158A7.822,7.822,0,0,1,690.42782,321.807Zm18.22782,323.38415a129.55474,129.55474,0,0,1-11.12384-11.31471,10.20627,10.20627,0,0,1-1.88368-4.43841,6.385,6.385,0,0,1,2.32073-6.87,6.55826,6.55826,0,0,1,6.97473-.66489,58.29027,58.29027,0,0,1,5.33107,2.844c1.74211-2.75169,3.17649-5.78044,5.31875-8.16895a12.82767,12.82767,0,0,1,6.24206-3.86588c3.69973-.83727,6.88854,2.07448,7.01787,5.885a13.67128,13.67128,0,0,1-.80647,5.70657c-2.69014,6.2852-5.46032,12.55815-8.61216,18.62174A6.94067,6.94067,0,0,1,708.65564,645.19119Zm52.53481,67.46906c-2.10536,5.65736-4.43841,11.24693-6.987,16.71957-1.71137,3.68132-5.89128,4.99246-9.73875,3.21962a35.83874,35.83874,0,0,1-14.8912-12.48427c-2.5424-3.73054-2.53008-7.60881-.30163-10.29888,2.28383-2.75786,6.43909-3.65668,10.42813-2.07463a57.13781,57.13781,0,0,1,5.14028,2.64709c1.465-1.75443,2.727-3.49654,4.22905-5.01095a7.79623,7.79623,0,0,1,9.30787-1.61286C761.27664,705.464,762.60018,708.88673,761.19045,712.66025Zm-2.173-165.66871a7.37526,7.37526,0,0,1-8.96926,2.03758,33.4488,33.4488,0,0,1-15.476-12.61353c-2.03758-3.13951-1.95146-6.5068-.01232-8.89538,1.816-2.22838,4.857-2.77018,8.47058-1.35428,1.68672.66489,3.28109,1.5698,5.07866,2.44389a48.914,48.914,0,0,1,2.63476-4.40144,16.67342,16.67342,0,0,1,3.50277-3.80441c4.8693-3.47812,11.09911-1.05271,11.51159,4.86322C766.31832,533.22678,764.3238,540.76165,759.01746,546.99154ZM772.49892,360.7003c-2.487,2.96717-5.81118,3.83514-9.09851,1.9391a49.89737,49.89737,0,0,1-9.03688-7.067c-1.04648-.98494-1.459-2.93024-1.63751-4.49384-.51091-4.55541,2.59787-6.88234,6.987-5.40493,1.04039.35089,2.05.78181,3.02259,1.15119,1.422-2.21616,2.54857-4.28455,3.97679-6.119,1.75435-2.26542,4.19216-3.42887,7.04853-2.55473,2.87477.88029,4.20448,3.25032,4.33381,6.10052A23.3597,23.3597,0,0,1,772.49892,360.7003Zm7.11014-89.70445c1.539-2.45622,3.95823-2.84405,6.48839-2.14842a6.47346,6.47346,0,0,0,5.42951-.751c4.734-2.6963,9.3755.44937,9.65872,6.15595a75.01219,75.01219,0,0,1-3.10262,8.883c-1.61293,3.30574-4.58615,4.25374-7.71342,2.29a66.75145,66.75145,0,0,1-9.82486-7.67644A5.10442,5.10442,0,0,1,779.60906,270.99585Zm7.87964,203.928c-1.50209-2.61011-2.05-5.43575.197-8.00889,2.2038-2.5116,4.90627-2.09912,7.62723-1.02183,1.422.56013,2.801,1.2127,4.43841,1.92674.98493-1.72979,1.72985-3.31183,2.71472-4.72157a6.53612,6.53612,0,0,1,6.88245-3.03491c2.99171.54789,4.5,2.6286,5.20174,5.4111,1.42815,5.65119-3.07181,17.26122-7.9535,20.35151a7.24319,7.24319,0,0,1-7.87341.17855A29.64557,29.64557,0,0,1,787.4887,474.92385Zm48.52113,110.91777a57.1476,57.1476,0,0,1-8.63681,22.45079c-3.57657,5.43568-10.20653,4.75237-13.53076-.81871-2.17922-3.66283-4.9125-6.98706-7.25788-10.54521a37.57829,37.57829,0,0,1-3.872-6.88231,5.46639,5.46639,0,0,1,1.66824-6.42061,5.66369,5.66369,0,0,1,6.58683-.708c2.3701,1.16356,4.7278,2.35778,7.19627,3.59513,1.43438-2.24694,2.604-4.41384,4.09379-6.32833,2.65933-3.42891,6.20516-4.54926,9.41239-3.25036C834.951,578.2637,836.7301,581.41554,836.00983,585.84162ZM833.39355,402.6592a54.87363,54.87363,0,0,1-8.55678-9.03076,5.71045,5.71045,0,0,1-.13541-7.17169c1.69289-2.37,4.15526-2.24073,6.66686-1.59437.67714.17851,1.36052.33857,2.22229.54789a41.64229,41.64229,0,0,1,2.61628-5.49113c2.65324-3.95211,7.9904-3.60737,10.34818.54173,2.92407,5.14639,1.72985,16.53489-2.20388,21.01024C841.39628,404.83843,837.20412,405.63253,833.39355,402.6592Zm35.58132,249.1373c-1.35428,4.99239-2.727,10.08337-4.99239,14.69417-2.69638,5.50345-8.63681,5.86663-12.48427,1.04039a66.78924,66.78924,0,0,1-5.842-9.30779c-1.47752-2.65941-1.89608-5.62038.52317-7.94118,2.2839-2.2038,4.93091-1.20654,7.40562.01849.62175.30779,1.262.57253,1.90224.85568,1.28657-1.48976,2.37618-2.97337,3.69356-4.22913,1.88985-1.80372,4.16759-2.684,6.71609-1.49593A5.23476,5.23476,0,0,1,868.97487,651.7965Z"/><path class="cls-1" d="M836.00983,585.84162a57.1476,57.1476,0,0,1-8.63681,22.45079c-3.57657,5.43568-10.20653,4.75237-13.53076-.81871-2.17922-3.66283-4.9125-6.98706-7.25788-10.54521a37.57829,37.57829,0,0,1-3.872-6.88231,5.46639,5.46639,0,0,1,1.66824-6.42061,5.66369,5.66369,0,0,1,6.58683-.708c2.3701,1.16356,4.7278,2.35778,7.19627,3.59513,1.43438-2.24694,2.604-4.41384,4.09379-6.32833,2.65933-3.42891,6.20516-4.54926,9.41239-3.25036C834.951,578.2637,836.7301,581.41554,836.00983,585.84162Z"/><path class="cls-1" d="M728.04686,624.304c-2.69014,6.2852-5.46032,12.55815-8.61216,18.62174a6.94067,6.94067,0,0,1-10.77906,2.26542,129.55474,129.55474,0,0,1-11.12384-11.31471,10.20627,10.20627,0,0,1-1.88368-4.43841,6.385,6.385,0,0,1,2.32073-6.87,6.55826,6.55826,0,0,1,6.97473-.66489,58.29027,58.29027,0,0,1,5.33107,2.844c1.74211-2.75169,3.17649-5.78044,5.31875-8.16895a12.82767,12.82767,0,0,1,6.24206-3.86588c3.69973-.83727,6.88854,2.07448,7.01787,5.885A13.67128,13.67128,0,0,1,728.04686,624.304Z"/><path class="cls-1" d="M761.19045,712.66025c-2.10536,5.65736-4.43841,11.24693-6.987,16.71957-1.71137,3.68132-5.89128,4.99246-9.73875,3.21962a35.83874,35.83874,0,0,1-14.8912-12.48427c-2.5424-3.73054-2.53008-7.60881-.30163-10.29888,2.28383-2.75786,6.43909-3.65668,10.42813-2.07463a57.13781,57.13781,0,0,1,5.14028,2.64709c1.465-1.75443,2.727-3.49654,4.22905-5.01095a7.79623,7.79623,0,0,1,9.30787-1.61286C761.27664,705.464,762.60018,708.88673,761.19045,712.66025Z"/><path class="cls-1" d="M643.064,697.75057c-1.582,6.0267-2.881,12.15183-4.83856,18.05544-1.39738,4.223-5.6019,5.8235-9.83719,4.266a24.70122,24.70122,0,0,1-14.73733-13.53076c-1.33583-3.01027-1.48973-6.06975.751-8.686,2.17923-2.54241,5.12792-2.881,8.16279-1.80989,1.60057.56638,2.46854.25242,3.09646-1.32346a18.86215,18.86215,0,0,1,1.77292-3.21955c1.9391-2.97953,4.59231-4.75853,8.26126-4.17375,3.552.56014,5.47881,2.99794,6.34062,6.32833.32628,1.28041.40631,2.62244.60331,3.93358C642.78086,697.63981,642.92244,697.69519,643.064,697.75057Z"/><path class="cls-1" d="M759.01746,546.99154a7.37526,7.37526,0,0,1-8.96926,2.03758,33.4488,33.4488,0,0,1-15.476-12.61353c-2.03758-3.13951-1.95146-6.5068-.01232-8.89538,1.816-2.22838,4.857-2.77018,8.47058-1.35428,1.68672.66489,3.28109,1.5698,5.07866,2.44389a48.914,48.914,0,0,1,2.63476-4.40144,16.67342,16.67342,0,0,1,3.50277-3.80441c4.8693-3.47812,11.09911-1.05271,11.51159,4.86322C766.31832,533.22678,764.3238,540.76165,759.01746,546.99154Z"/><path class="cls-1" d="M674.23156,428.60653c-.948,7.21475-3.45963,13.95551-8.42752,19.422-4.86314,5.34336-11.03757,5.46649-16.19626.44938a60.02681,60.02681,0,0,1-7.01159-8.08889c-2.54857-3.5766-2.24693-7.3071.28315-9.81874,2.524-2.51163,6.14975-2.6963,9.89877-.46785,1.04648.62175,2.04382,1.342,3.16417,2.093a88.15077,88.15077,0,0,1,5.485-8.03966c3.515-4.13065,8.49516-4.67238,11.09919-1.182A8.61256,8.61256,0,0,1,674.23156,428.60653Z"/><path class="cls-1" d="M617.47991,575.7028c-4.16755,2.3208-8.292,2.50551-12.09025-.44321a87.36164,87.36164,0,0,1-9.3386-8.38439c-2.67166-2.77018-3.02255-6.03278-1.50817-8.41521,1.5882-2.50543,4.44457-3.44731,8.18123-2.63476a28.36516,28.36516,0,0,1,3.54583,1.0035c1.13268.40624,2.21613.96029,3.38577,1.4712,1.02187-1.99452,1.84679-3.97671,2.998-5.75572,2.61627-4.026,7.13472-4.29691,10.36046-.73875C629.18853,558.60157,626.33832,570.77188,617.47991,575.7028Z"/><path class="cls-1" d="M698.31362,319.46779a7.822,7.822,0,0,1-7.8858,2.33925c-6.03895-1.69288-11.41924-4.54309-14.9589-10.02806a11.06629,11.06629,0,0,1-1.342-2.75169c-.90491-2.93023-1.31115-5.8974,1.04655-8.37823,2.23461-2.35157,5.07866-1.85911,7.78113-1.13271a44.56155,44.56155,0,0,1,5.11562,2.07455c1.00951-1.56359,1.84679-3.09642,2.91175-4.43841,3.21339-4.063,8.45826-3.4658,10.74826,1.15728C704.50037,303.89322,702.71513,315.02934,698.31362,319.46779Z"/><path class="cls-1" d="M806.59671,485.826a7.24319,7.24319,0,0,1-7.87341.17855,29.64557,29.64557,0,0,1-11.2346-11.0807c-1.50209-2.61011-2.05-5.43575.197-8.00889,2.2038-2.5116,4.90627-2.09912,7.62723-1.02183,1.422.56013,2.801,1.2127,4.43841,1.92674.98493-1.72979,1.72985-3.31183,2.71472-4.72157a6.53612,6.53612,0,0,1,6.88245-3.03491c2.99171.54789,4.5,2.6286,5.20174,5.4111C815.97836,471.12568,811.4784,482.73571,806.59671,485.826Z"/><path class="cls-1" d="M573.34793,652.22739c-1.49589,7.70725-5.87275,13.64768-12.14566,18.11074a6.19205,6.19205,0,0,1-8.92-1.88368,38.19186,38.19186,0,0,1-4.68467-11.78865c-1.04651-5.8912,3.06565-8.58135,8.56291-6.22981.64636.27706,1.29889.54789,1.92681.80639a62.46381,62.46381,0,0,1,4.71548-4.88162,6.41734,6.41734,0,0,1,7.46712-.91107A5.90929,5.90929,0,0,1,573.34793,652.22739Z"/><path class="cls-1" d="M844.35109,401.47111c-2.95481,3.36732-7.147,4.16142-10.95754,1.18809a54.87363,54.87363,0,0,1-8.55678-9.03076,5.71045,5.71045,0,0,1-.13541-7.17169c1.69289-2.37,4.15526-2.24073,6.66686-1.59437.67714.17851,1.36052.33857,2.22229.54789a41.64229,41.64229,0,0,1,2.61628-5.49113c2.65324-3.95211,7.9904-3.60737,10.34818.54173C849.479,385.60726,848.28482,396.99576,844.35109,401.47111Z"/><path class="cls-1" d="M772.49892,360.7003c-2.487,2.96717-5.81118,3.83514-9.09851,1.9391a49.89737,49.89737,0,0,1-9.03688-7.067c-1.04648-.98494-1.459-2.93024-1.63751-4.49384-.51091-4.55541,2.59787-6.88234,6.987-5.40493,1.04039.35089,2.05.78181,3.02259,1.15119,1.422-2.21616,2.54857-4.28455,3.97679-6.119,1.75435-2.26542,4.19216-3.42887,7.04853-2.55473,2.87477.88029,4.20448,3.25032,4.33381,6.10052A23.3597,23.3597,0,0,1,772.49892,360.7003Z"/><path class="cls-1" d="M868.97487,651.7965c-1.35428,4.99239-2.727,10.08337-4.99239,14.69417-2.69638,5.50345-8.63681,5.86663-12.48427,1.04039a66.78924,66.78924,0,0,1-5.842-9.30779c-1.47752-2.65941-1.89608-5.62038.52317-7.94118,2.2839-2.2038,4.93091-1.20654,7.40562.01849.62175.30779,1.262.57253,1.90224.85568,1.28657-1.48976,2.37618-2.97337,3.69356-4.22913,1.88985-1.80372,4.16759-2.684,6.71609-1.49593A5.23476,5.23476,0,0,1,868.97487,651.7965Z"/><path class="cls-1" d="M577.09692,521.3212c-3.712,2.65934-7.97195,2.24078-10.4651-1.60053a44.84807,44.84807,0,0,1-4.106-9.16621c-.81875-2.26542-1.15116-5.05408,1.20042-6.42068,1.62514-.948,3.989-.63408,6.02665-.88026.13542.26466.277.53556.4186.8003.8803-1.36667,1.47128-3.13959,2.70247-4.00136,1.71134-1.20045,4.06291-2.61012,5.82966-2.27158,1.77908.33853,3.909,2.41315,4.6108,4.223C585.67215,508.0736,582.37873,517.52912,577.09692,521.3212Z"/><path class="cls-1" d="M801.18568,274.25237a75.01219,75.01219,0,0,1-3.10262,8.883c-1.61293,3.30574-4.58615,4.25374-7.71342,2.29a66.75145,66.75145,0,0,1-9.82486-7.67644,5.10442,5.10442,0,0,1-.93572-6.75309c1.539-2.45622,3.95823-2.84405,6.48839-2.14842a6.47346,6.47346,0,0,0,5.42951-.751C796.26092,265.40012,800.90246,268.54579,801.18568,274.25237Z"/><path class="cls-1" d="M303.65065,247.8695c12.152,3.72434,25.64576-2.79479,33.50076-12.78587,7.84883-9.99729,11.12383-22.777,13.37685-35.28588a292.25554,292.25554,0,0,0,2.33313-88.227c-5.31266-42.15594-23.63276-87.26668-62.3844-104.688-42.06362-18.91108-93.7181,3.355-121.84458,39.909-28.12647,36.54788-37.74213,83.77628-44.02117,129.46568-1.71753,12.47195-3.18257,25.53489,1.16341,37.34815,4.34613,11.81326,16.40568,21.77973,28.76687,19.40967A820.5148,820.5148,0,0,0,30.7947,469.44659c-24.93789,75.4657-52.23941,167.51557-4.83864,239.82327a164.293,164.293,0,0,0,104.55263,70.28862c6.89462,1.34819,14.47248,2.57321,19.09575,7.855,3.4534,3.95214,4.506,9.40623,5.30635,14.58963a331.78186,331.78186,0,0,1,3.33647,69.439c-.76949,13.4384-2.17307,27.76329,4.29068,39.57652,6.45773,11.80713,24.587,18.02462,33.50691,7.94742,5.76805-6.513,5.11563-16.30717,4.12446-24.95006q-6.10372-53.31664-12.20113-106.63327,7.76588-.59109,15.5376-1.17588,8.006,43.58416,15.9993,87.16824c1.50832,8.2305,3.29965,17.00888,9.26472,22.8816,9.43711,9.28938,24.77152,7.43027,37.773,4.92476,3.69356-.70787,7.584-1.51434,10.385-4.02594,9.57868-8.5691-2.00685-23.12176-11.04989-32.25716a88.10485,88.10485,0,0,1-25.04851-64.74819c.26467-6.353,1.31115-12.90908,4.80783-18.22166,6.03887-9.17846,17.65521-12.50885,28.17577-15.673,36.677-11.04373,73.08953-29.5547,94.45063-61.35017,18.5293-27.58475,23.63876-61.91647,25.6148-95.0847C401.38259,483.76532,369.44547,355.654,303.65065,247.8695ZM233.02351,135.11723c4.59246-29.88711,25.54116-60.46371,49.09366-74.83783,6.56233-4.00136,14.57122-7.3502,21.76749-4.63544,5.09714,1.92681,8.66145,6.51916,11.6225,11.09918a120.03809,120.03809,0,0,1,14.52178,96.70372c-3.36729,11.8502-8.92,23.59575-18.554,31.27836-14.15867,11.29-35.46446,11.37621-51.05121,2.14845C236.13845,182.49336,229.34843,159.0269,233.02351,135.11723Zm.50483,54.36931c3.88443,3.15184,7.067,6.21749,10.70527,8.58139,7.79337,5.07865,15.85156,9.74483,23.70655,14.71885a8.53381,8.53381,0,0,1,3.02251,3.55815c4.25371,9.51707,8.35366,19.108,12.66282,29.03758-22.59845-1.67444-43.28864-8.79687-61.01163-23.40491C226.22747,211.22934,229.81628,200.53031,233.52834,189.48654ZM170.547,840.55771c-2.23469-18.54779-4.43857-36.79409-6.66694-55.26193h13.106c1.8528,18.20934,3.67508,36.06158,5.52187,54.17232C178.64815,839.819,174.63446,840.18221,170.547,840.55771Zm52.71944-8.90147c-.74484-9.65248-1.48984-18.93569-2.16074-28.2189-.474-6.52522-.825-13.05674-1.29281-19.57586-.12925-1.736.38174-2.57322,2.247-2.85637,3.52119-.53557,6.99923-1.35428,11.2591-2.21-1.10179,16.82417.35093,33.13742,3.26884,49.48148C231.94622,829.45853,227.72332,830.52966,223.26642,831.65624ZM371.64935,610.91016c-1.20038,27.13545-4.28467,55.35436-18.84342,78.27909-12.7551,20.0991-33.17432,34.15933-54.46163,44.79675a269.88922,269.88922,0,0,1-172.348,22.98628c-30.74275-6.17436-62.00266-19.028-80.415-44.40893-17.66768-24.35295-22.95554-54.948-21.5951-87.082,2.12993-50.35566,20.59161-104.48492,33.30357-144.25231a903.07957,903.07957,0,0,1,109.28651-226.822c10.93913-16.36247,24.80849-28.82214,45.00618-18.24619,21.94589,11.48081,37.64355,18.3878,61.8919,21.96441,24.71606,3.63814,35.51977,21.42268,44.35962,43.03619A735.4169,735.4169,0,0,1,371.64935,610.91016Z"/><path class="cls-2" d="M182.50794,839.4681c-3.85979.35093-7.87348.71411-11.961,1.08961-2.23469-18.54779-4.43857-36.79409-6.66694-55.26193h13.106C178.83887,803.50512,180.66115,821.35736,182.50794,839.4681Z"/><path class="cls-2" d="M236.58782,828.27663c-4.6416,1.1819-8.8645,2.253-13.3214,3.37961-.74484-9.65248-1.48984-18.93569-2.16074-28.2189-.474-6.52522-.825-13.05674-1.29281-19.57586-.12925-1.736.38174-2.57322,2.247-2.85637,3.52119-.53557,6.99923-1.35428,11.2591-2.21C232.21719,795.61932,233.66991,811.93257,236.58782,828.27663Z"/><path class="cls-2" d="M283.62549,245.38251c-22.59845-1.67444-43.28864-8.79687-61.01163-23.40491,3.61361-10.74826,7.20242-21.44729,10.91448-32.49106,3.88443,3.15184,7.067,6.21749,10.70527,8.58139,7.79337,5.07865,15.85156,9.74483,23.70655,14.71885a8.53381,8.53381,0,0,1,3.02251,3.55815C275.21638,225.862,279.31633,235.453,283.62549,245.38251Z"/><path class="cls-2" d="M330.02894,163.44686c-3.36729,11.8502-8.92,23.59575-18.554,31.27836-14.15867,11.29-35.46446,11.37621-51.05121,2.14845-24.28532-14.38031-31.07534-37.84677-27.40026-61.75644,4.59246-29.88711,25.54116-60.46371,49.09366-74.83783,6.56233-4.00136,14.57122-7.3502,21.76749-4.63544,5.09714,1.92681,8.66145,6.51916,11.6225,11.09918A120.03809,120.03809,0,0,1,330.02894,163.44686Z"/><path class="cls-2" d="M317.834,301.16152c-8.83985-21.61351-19.64356-39.39805-44.35962-43.03619-24.24835-3.57661-39.946-10.4836-61.8919-21.96441-20.19769-10.576-34.067,1.88372-45.00618,18.24619a903.07957,903.07957,0,0,0-109.28651,226.822c-12.712,39.76739-31.17364,93.89665-33.30357,144.25231-1.36044,32.134,3.92742,62.729,21.5951,87.082,18.41238,25.38095,49.67229,38.23457,80.415,44.40893A269.88922,269.88922,0,0,0,298.3443,733.986c21.28731-10.63742,41.70653-24.69765,54.46163-44.79675,14.55875-22.92473,17.643-51.14364,18.84342-78.27909A735.4169,735.4169,0,0,0,317.834,301.16152ZM67.97039,587.28371a66.42051,66.42051,0,0,1,6.26671-2.8502c4.50619-1.54515,4.34613-1.4528,4.25986-6.199-.09844-5.61429.03081-11.24076.37558-16.84273.08011-1.31122,1.44055-2.54241,2.21-3.81049.70171,1.29273,1.92058,2.54233,2.03134,3.88436.57877,6.80851.87425,13.64159,1.27432,20.58552,2.32081.277,4.3523.36934,6.30369.80639a7.47731,7.47731,0,0,1,3.52734,1.68063c.79414.78175.97885,2.17916,1.43438,3.29951a30.97882,30.97882,0,0,1-3.28717.16006c-.79415-.04306-1.5698-.45554-2.3701-.53549-5.02936-.52948-5.39262-.197-5.58349,4.74621a13.43073,13.43073,0,0,1-.314,3.64427c-.27082.82495-1.20038,1.42822-1.83446,2.12385-.68322-.64025-1.77284-1.16965-1.98219-1.9453-.6156-2.24694-.8741-4.59232-1.342-7.29478h-10.416C68.33965,588.25016,68.1551,587.77006,67.97039,587.28371ZM100.57225,695.85c-5.59581.48627-7.51639,3.121-5.83583,8.62448.29548.96645-1.14507,2.46238-1.78516,3.71814a14.0058,14.0058,0,0,1-3.0165-2.49311,22.073,22.073,0,0,1-1.90209-3.95214c-4.08147-.39392-7.71958-.64641-11.30855-1.20654-.52331-.08-.8248-1.60061-1.20654-2.40084,3.12111-.7879,5.85431-1.57588,8.62449-2.14842,2.25918-.46785,2.487-1.72978,2.327-3.77976-.73883-9.38781-1.31129-18.79411-1.91456-28.19425a10.2116,10.2116,0,0,1,.12309-3.36113,13.767,13.767,0,0,1,1.6499-2.91175c.73868.8741,1.98219,1.6744,2.12993,2.64709.99719,6.46374,1.76668,12.97054,2.59163,19.465.52331,4.14918,1.00335,8.30444,1.50818,12.44738,2.801,0,5.24487-.117,7.65811.07387.68938.05538,1.80365.97877,1.82213,1.539C102.06209,694.56954,101.15087,695.80073,100.57225,695.85Zm2.25933-266.20153c-1.88992-.24009-2.524.57866-3.23187,2.00069a32.88644,32.88644,0,0,1-3.25051,5.528c-.62776.81259-1.96371,1.08962-2.97938,1.60669-.35093-1.065-1.15724-2.21612-.97269-3.18261a71.97322,71.97322,0,0,1,2.12393-7.32559,73.56917,73.56917,0,0,1-6.63628-3.20722c-.78783-.46786-1.66824-1.933-1.45272-2.61015a3.44982,3.44982,0,0,1,2.55466-1.736,15.80487,15.80487,0,0,1,5.46039.38779c2.38243.64025,3.08414-.3755,3.9952-2.37618,4.383-9.67713,8.94461-19.28043,13.61087-28.82214.52932-1.08342,2.14225-1.6313,3.25636-2.43157.14774,1.49589.83728,3.19494.35094,4.44457-2.40076,6.19288-5.15861,12.25035-7.69494,18.394-1.47736,3.58893-2.72088,7.28249-4.17991,10.88371-.59094,1.47128-.474,2.24077.97269,3.2688a4.56248,4.56248,0,0,1,1.48353,3.74283C106.13725,428.88505,103.958,429.79,102.83158,429.64842Zm23.28168,88.94721c-3.10262-.01849-4.4569,1.225-4.069,4.41384a7.99781,7.99781,0,0,1-.38174,3.93982c-.58478,1.3666-1.58828,3.26884-2.727,3.52734-2.17923.49251-2.75169-1.736-3.05332-3.4289-.41256-2.30232-.50483-4.66-.76334-7.2947a55.37174,55.37174,0,0,1-7.34415-.09243c-1.32346-.17848-2.53-1.23736-3.792-1.90217,1.07112-.81871,2.02533-1.93914,3.23187-2.38851a19.75541,19.75541,0,0,1,5.68808-1.20654c2.24686-.12309,2.69624-1.23119,2.64709-3.17649-.17855-7.27013-.32628-14.54034-.35709-21.81055a49.81553,49.81553,0,0,1,.59094-7.95343c.16006-1.00342,1.21271-1.86523,1.85911-2.79478.86192.84952,2.30232,1.5882,2.49319,2.56085a69.29341,69.29341,0,0,1,.84344,8.83993c.40007,6.74073.81863,13.49386,1.028,20.24691.06763,2.30232.7202,3.47813,3.13959,3.238a4.181,4.181,0,0,1,.91708.06154c1.72986.20936,3.84747.19087,3.84747,2.57322C129.91143,518.24477,127.88009,518.608,126.11326,518.59563Zm37.69284,154.1941c-2.28383.8496-4.70308,1.34819-7.0855,1.98836a62.69641,62.69641,0,0,1,.81262,8.2244c-.037,1.39125-.88025,3.65044-1.8591,3.95823-2.16691.6957-2.40076-1.67439-2.82549-3.14567-.708-2.43773-1.182-4.94317-1.77915-7.54712-5.7497-.09243-11.14232,3.05332-16.95966,1.15724,4.34614-4.09364,10.09584-4.45073,15.57458-6.11281-1.56364-6.89463-3.1396-13.5554-4.57383-20.24691a65.36394,65.36394,0,0,1-1.31129-8.79687c-.08-1.08345.78181-2.23461,1.2127-3.355,1.07729.85568,2.721,1.502,3.13343,2.60395a84.02708,84.02708,0,0,1,2.43157,9.19086c1.56979,6.46374,3.10878,12.93365,4.72171,19.63741,2.72088-.22777,5.331-.53557,7.94727-.60944a8.50244,8.50244,0,0,1,2.64709.83112C165.20967,671.33085,164.66186,672.46961,163.8061,672.78973Zm1.52666-79.27012a2.00717,2.00717,0,0,1-1.16341.94188c-3.52734,1.0588-4.38927,3.29965-3.33662,6.70391a6.29677,6.29677,0,0,1-.19688,3.31182c-.5663,2.08688-2.58547,2.57938-3.90909.89875a9.52849,9.52849,0,0,1-2.08064-4.04442c-.42472-2.604-1.70521-2.73328-3.87211-2.28384-2.61012.54173-5.30034.70795-7.95343,1.03424-.13557-.4617-.27714-.9234-.41872-1.38509,2.41324-3.33655,6.34682-4.20456,10.23126-5.69425-1.50818-11.37625-4.91244-22.59236-3.38577-35.409,1.28048,1.61278,2.49318,2.50544,2.801,3.65043,1.32963,4.92476,2.3946,9.92338,3.55184,14.89736,1.17589,5.07249,2.33929,10.15115,3.552,15.40835a34.52,34.52,0,0,1,4.45073-1.19422c.77581-.10468,2.10544.20312,2.33313.70788C166.21317,591.67283,165.68985,592.73787,165.33276,593.51961ZM175.83484,388.422c-.80031.4617-1.853.96033-2.16075,1.70521-.73868,1.77291-.89874,3.79821-1.68672,5.54035-.41856.91723-1.66207,1.459-2.53632,2.173-.63393-.95417-1.69288-1.85295-1.80981-2.86866a65.886,65.886,0,0,1-.08612-7.48565,41.785,41.785,0,0,1-5.81734-.0677,16.10183,16.10183,0,0,1-3.712-1.53283c1.13275-.89262,2.1361-2.1238,3.41658-2.5855a40.47584,40.47584,0,0,1,6.29136-1.24964c.07995-1.34815.22153-2.75172.25234-4.16142.20319-9.01231.35709-18.03079.60327-27.04306a13.30256,13.30256,0,0,1,.81262-4.1922c.25851-.708,1.20655-1.61286,1.84063-1.61286a2.75215,2.75215,0,0,1,2.00684,1.51434,13.80023,13.80023,0,0,1,.86793,4.48771c.17855,10.04647.32629,20.093.314,30.13948,0,1.853.79414,2.37619,2.23469,3.05953.98486.46169,1.58813,1.72982,2.36379,2.63472C177.96477,387.38168,176.85682,387.83106,175.83484,388.422Zm3.72437-91.79745c-.66489,1.02187-3.93989.34473-6.6238.474a59.50924,59.50924,0,0,1-4.01369,5.36181c-.76949.84336-2.15458,1.12038-3.26268,1.64978-.23385-1.21886-.77565-2.48082-.61559-3.65047a22.1542,22.1542,0,0,1,1.50817-4.974c.55413-1.4159.314-2.20384-1.12643-2.91179a21.75592,21.75592,0,0,1-4.85713-3.14568,3.30168,3.30168,0,0,1-.76949-2.94252,3.16626,3.16626,0,0,1,2.57946-1.576,77.74866,77.74866,0,0,1,7.83034,1.6806c2.86862-5.15869,5.75572-10.5513,8.83369-15.827,2.16074-3.69973,4.55549-7.27017,6.91311-10.84677a7.48312,7.48312,0,0,1,2.29015-2.43161,9.50036,9.50036,0,0,1,3.084-.56633c.03081,1.02187.44336,2.22228.04314,3.02255-3.238,6.50068-6.63613,12.9152-9.95412,19.37278-1.81,3.53967-3.552,7.11011-5.31882,10.64977C177.65081,292.19847,181.67066,293.37423,179.55921,296.62459Zm22.68457,182.296a7.36029,7.36029,0,0,1-1.71122.56018c.33245,3.02259.7202,6.03285.96021,9.06157a19.96655,19.96655,0,0,1-.12308,4.58006c-.11693.75717-.86178,1.41582-1.32347,2.11761-.68338-.50483-1.74218-.87417-1.99452-1.539-1.14507-3.05332-2.06847-6.18059-3.04717-9.28933-.27713-.868-.468-1.76059-.7758-2.93024a32.13713,32.13713,0,0,1-5.42327.4186c-1.01583-.08-2.6286-.89874-2.764-1.61285a3.58,3.58,0,0,1,1.539-2.90559,29.82277,29.82277,0,0,1,5.22639-2.04378c-.51715-7.27633-1.00966-14.20177-1.48984-21.12721a4.24781,4.24781,0,0,1,.00631-1.8283,14.62171,14.62171,0,0,1,1.52035-2.27154c.72035.62176,1.87759,1.12039,2.09311,1.88372.831,2.94868,1.40358,5.97127,1.98836,8.9815.74485,3.81669,1.46519,7.63955,2.0868,11.48085.25865,1.58825.9297,2.16074,2.59178,2.29616,1.4159.117,2.764.97265,4.14294,1.502C204.58307,477.14768,203.44431,478.07723,202.24378,478.92059Zm105.43288-122.768a6.82047,6.82047,0,0,1-.517-1.76059c-.03081-1.11423.11693-2.24078.19688-3.355,1.16356.62788,2.94872.97877,3.38577,1.9391,2.327,5.10946,4.33381,10.36663,6.42076,15.58686a19.13437,19.13437,0,0,1,1.028,3.21342c.548,2.67166,1.56979,4.43229,4.85712,3.81053.76318-.14774,1.80365,1.12039,2.71472,1.736-.62176.8372-1.12043,2.2469-1.88376,2.407-2.82563.59711-3.004,2.29-2.45621,4.54925a4.3182,4.3182,0,0,1,.20935,1.816,3.28453,3.28453,0,0,1-.9542,1.9391,1.99067,1.99067,0,0,1-1.76067-.69562c-1.43423-4.86318-5.12163-4.06907-8.77838-3.81053-.9787.06774-2.02533-.84953-3.04716-1.31735.63408-.97881,1.0588-2.27154,1.94522-2.86869a32.95868,32.95868,0,0,1,5.18957-2.3208C312.01663,369.985,309.84973,363.0657,307.67666,356.15259Zm-50.75573-46.37275c-2.26535-8.16279-4.13062-16.44254-6.04518-24.69765a19.04624,19.04624,0,0,1-.043-4.1491c.511-.17238,1.028-.33857,1.539-.51095,1.29266,2.53625,2.89943,4.96785,3.829,7.63339,2.53617,7.23323,4.80783,14.55878,7.12247,21.86589.437,1.3728.79414,2.45009,2.62229,2.27771,1.7545-.16619,3.98919-.08,3.99535,2.16074.006,1.11422-1.82213,2.24693-2.838,3.355a5.1121,5.1121,0,0,1-.83727.57249,16.01218,16.01218,0,0,1,.3879,4.186c-.18471,1.13271-.985,2.81943-1.80981,3.02259-.88026.21544-2.33929-.83108-3.13343-1.70521A15.90685,15.90685,0,0,1,259.845,320.128c-3.46572.948-6.907,1.896-10.79139,2.961.44937-4.06291,2.89342-5.81121,5.38645-6.91927C257.73355,314.7046,257.78285,312.88859,256.92093,309.77984Zm-22.45688,400.3273a.40527.40527,0,0,1-.27082.12925c-5.06017.45553-5.94058,3.42274-4.66626,7.71342a1.63849,1.63849,0,0,1,.01233.91106c-.49867,1.54515-.76334,4.19224-1.61278,4.40144-2.56714.62176-2.82564-2.03757-3.48436-3.76119-.64626-1.69289-1.03416-3.49045-1.582-5.40494-1.90841.39391-3.57048.86793-5.26337,1.04032a9.66266,9.66266,0,0,1-3.90292-.28931,3.08926,3.08926,0,0,1-1.87143-2.05614,3.02843,3.02843,0,0,1,1.63141-2.23454,30.03387,30.03387,0,0,1,5.8235-1.87759c1.60046-.35093,1.95139-1.12043,1.68673-2.604q-2.65948-14.65422-5.23872-29.32693c-.19087-1.07113-.234-2.16074-.34477-3.24419.234-.17231.46786-.33853.70171-.51092.84344.68946,1.98851,1.20654,2.46238,2.093a29.38356,29.38356,0,0,1,2.75184,6.46375c1.90209,7.43642,3.6566,14.92208,5.31251,22.42005.48634,2.22221,1.262,3.24412,3.67508,2.54849a8.14571,8.14571,0,0,1,3.6321-.17854,2.57949,2.57949,0,0,1,1.77284,1.62525C235.77535,708.61737,234.91959,709.393,234.46405,710.10714ZM236.8095,401.528c-.714-4.19219-3.238-4.82624-6.76537-4.19219a2.6251,2.6251,0,0,1-1.50818-.17851,3.85112,3.85112,0,0,1-1.79764-1.34816c-.16622-.35089.45553-1.31738.9542-1.699a8.77589,8.77589,0,0,1,2.94256-1.58821c2.44389-.63408,3.05949-1.71753,2.46854-4.37074-2.06846-9.2893-3.87211-18.64635-5.53419-28.02188-.26466-1.502.714-3.22571,1.11427-4.84472,1.17573,1.22506,3.01635,2.26538,3.42274,3.712,2.333,8.36591,4.33982,16.83033,6.42677,25.27015.44321,1.76675.77565,3.552,1.17573,5.39261a26.67173,26.67173,0,0,1,5.091-.49247c.91107.08,2.43157,1.02187,2.46238,1.63747.04929.96032-.788,2.684-1.51434,2.83788-3.88444.83107-5.054,2.86869-4.19224,6.70383.22769,1.00959-1.08961,2.35774-1.69288,3.552C238.79786,403.11628,236.96956,402.46375,236.8095,401.528Zm20.327,214.84868c-4.18608,1.20654-4.18608,1.15109-3.2935,5.57109a14.94291,14.94291,0,0,1,.65873,4.5246c-.1539,1.21271-1.13275,3.2073-1.87143,3.26268a4.53645,4.53645,0,0,1-3.66276-1.82213c-1.08961-2.01917-1.45287-4.43225-2.12993-6.67926-.17238-.57862-.38174-1.13876-.59711-1.75436-2.33312,0-4.574.05531-6.80851-.037a5.59288,5.59288,0,0,1-1.82213-.788c.35078-.671.54165-1.68672,1.09562-1.94522,2.00068-.9542,4.11844-1.656,6.43925-2.54865-1.21271-5.054-2.49319-10.0772-3.60129-15.13744a76.50035,76.50035,0,0,1-1.45287-9.06154c-.08612-.88649.81263-1.8591,1.262-2.79482.99117.56637,2.46854.89266,2.88109,1.74211a59.31852,59.31852,0,0,1,3.31182,8.53836c1.5698,5.15861,2.91792,10.39117,4.34,15.51912a27.77985,27.77985,0,0,1,4.857.07386c.88657.17239,1.61909,1.10187,2.42556,1.69289C258.49688,615.29942,257.9121,616.155,257.13645,616.37671Zm17.489-75.2441c-.08612.54781-1.26816,1.0957-2.05,1.305-.96637.25242-2.06215.01233-3.041.24633-3.9459.9418-4.12445,1.29882-3.77968,5.3618a13.96055,13.96055,0,0,1-.037,4.58615c-.36927,1.39125-1.44055,2.604-2.21,3.8906-.99719-1.01582-2.37611-1.87143-2.91175-3.09646a46.181,46.181,0,0,1-1.86512-6.63612c-3.76135.2585-7.31334,2.79482-11.42547-.73252,2.79482-1.50209,5.04168-3.05957,7.51638-3.946,2.85013-1.02807,3.10262-2.604,2.72088-5.33723-1.29281-9.22159-2.28383-18.49248-3.29349-27.751a15.152,15.152,0,0,1,.68338-6.22365c.57862.70787,1.459,1.32963,1.69288,2.13609,1.15124,4.026,2.2162,8.08276,3.15808,12.16416,1.60046,6.96241,3.084,13.94931,4.6353,21.01024a52.15539,52.15539,0,0,1,5.88512-.60335,6.20867,6.20867,0,0,1,3.41657,1.02807A3.14523,3.14523,0,0,1,274.62543,541.13261Zm24.62994-93.1949a4.99043,4.99043,0,0,1-1.80981,1.10806,2.7662,2.7662,0,0,0-1.699,3.632,15.63558,15.63558,0,0,1,.03081,5.46032,2.534,2.534,0,0,1-1.58828,1.79752,2.73489,2.73489,0,0,1-2.12377-1.27428c-1.03431-1.85907-1.79148-3.87208-2.71487-5.94663-2.333.45554-4.69075,1.08345-7.08535,1.31122-.91106.08619-1.9084-.73872-2.86876-1.15116.59094-.8372,1.00966-1.98223,1.816-2.43777,1.933-1.1019,4.05066-1.88371,6.37763-2.91791-2.23454-11.4562-8.18128-22.14908-8.26123-35.27355,1.50817,1.15732,2.567,1.58824,2.9917,2.36386a67.7126,67.7126,0,0,1,4.25386,8.803c2.63461,7.184,5.00471,14.46031,7.59017,22.01979a15.99421,15.99421,0,0,1,3.64443-1.028c.84328-.03694,1.72354.63408,2.58546.99109A12.495,12.495,0,0,1,299.25537,447.93771Zm32.51575,195.876c-.35093.394-1.12659.41863-1.71137.59718-4.16759,1.26809-4.13062,1.26192-3.3981,5.71882.49867,3.02876.948,6.06976,1.27432,9.11692a10.36113,10.36113,0,0,1-.19087,4.25378,4.40113,4.40113,0,0,1-2.4254,2.62244c-.6957.1847-2.30232-.9911-2.65325-1.88985-1.465-3.79208-2.64709-7.70109-3.85979-11.59785-.44937-1.43431-.68323-2.94256-1.00951-4.41376-4.26618.56013-8.34133,1.09577-12.41664,1.63126-.11077-.30163-.22153-.60327-.32613-.90491a13.72044,13.72044,0,0,1,7.7564-5.71889c3.65043-1.15109,3.96439-3.078,3.21338-6.33442-1.21886-5.27561-2.08064-10.63749-2.9917-15.98088a10.84211,10.84211,0,0,1-.12324-4.54918c.314-1.15116,1.60676-2.87485,2.41939-2.85021a4.30546,4.30546,0,0,1,3.29334,2.29c1.51449,4.77086,2.6286,9.671,3.84747,14.528.59711,2.38243,1.15739,4.777,1.61909,7.184.32628,1.69288,1.0588,2.46854,2.91175,2.19148a12.92,12.92,0,0,1,4.27219.04929c.7202.14158,1.79749,1.04648,1.816,1.63743A4.21227,4.21227,0,0,1,331.77112,643.81373ZM344.557,525.34252a30.96972,30.96972,0,0,1-4.62929,1.39125,90.38608,90.38608,0,0,1,1.01567,9.06777c.02465,1.16965-1.08345,2.3577-1.67439,3.53967-.86178-.905-2.01917-1.67448-2.52385-2.75177-1.3113-2.77017-2.33313-5.68192-3.63826-8.96917H320.59182c2.96721-4.42,7.418-3.69973,11.11768-5.20791-.91107-5.36188-1.87745-10.76682-2.727-16.184a18.0687,18.0687,0,0,1-.2032-4.8817,2.96672,2.96672,0,0,1,1.64975-2.173,2.87573,2.87573,0,0,1,2.46238,1.2496,46.41343,46.41343,0,0,1,2.83179,7.73806c1.11427,4.34614,1.93306,8.76606,2.92408,13.39534a24.25424,24.25424,0,0,1,5.288-.43088c1.17573.16006,2.22837,1.23119,3.34264,1.896A13.32111,13.32111,0,0,1,344.557,525.34252Z"/><path class="cls-1" d="M333.08842,641.39441a4.21227,4.21227,0,0,1-1.3173,2.41932c-.35093.394-1.12659.41863-1.71137.59718-4.16759,1.26809-4.13062,1.26192-3.3981,5.71882.49867,3.02876.948,6.06976,1.27432,9.11692a10.36113,10.36113,0,0,1-.19087,4.25378,4.40113,4.40113,0,0,1-2.4254,2.62244c-.6957.1847-2.30232-.9911-2.65325-1.88985-1.465-3.79208-2.64709-7.70109-3.85979-11.59785-.44937-1.43431-.68323-2.94256-1.00951-4.41376-4.26618.56013-8.34133,1.09577-12.41664,1.63126-.11077-.30163-.22153-.60327-.32613-.90491a13.72044,13.72044,0,0,1,7.7564-5.71889c3.65043-1.15109,3.96439-3.078,3.21338-6.33442-1.21886-5.27561-2.08064-10.63749-2.9917-15.98088a10.84211,10.84211,0,0,1-.12324-4.54918c.314-1.15116,1.60676-2.87485,2.41939-2.85021a4.30546,4.30546,0,0,1,3.29334,2.29c1.51449,4.77086,2.6286,9.671,3.84747,14.528.59711,2.38243,1.15739,4.777,1.61909,7.184.32628,1.69288,1.0588,2.46854,2.91175,2.19148a12.92,12.92,0,0,1,4.27219.04929C331.99265,639.89856,333.06994,640.80346,333.08842,641.39441Z"/><path class="cls-1" d="M129.91143,515.94862c0,2.29615-2.03134,2.65933-3.79817,2.647-3.10262-.01849-4.4569,1.225-4.069,4.41384a7.99781,7.99781,0,0,1-.38174,3.93982c-.58478,1.3666-1.58828,3.26884-2.727,3.52734-2.17923.49251-2.75169-1.736-3.05332-3.4289-.41256-2.30232-.50483-4.66-.76334-7.2947a55.37174,55.37174,0,0,1-7.34415-.09243c-1.32346-.17848-2.53-1.23736-3.792-1.90217,1.07112-.81871,2.02533-1.93914,3.23187-2.38851a19.75541,19.75541,0,0,1,5.68808-1.20654c2.24686-.12309,2.69624-1.23119,2.64709-3.17649-.17855-7.27013-.32628-14.54034-.35709-21.81055a49.81553,49.81553,0,0,1,.59094-7.95343c.16006-1.00342,1.21271-1.86523,1.85911-2.79478.86192.84952,2.30232,1.5882,2.49319,2.56085a69.29341,69.29341,0,0,1,.84344,8.83993c.40007,6.74073.81863,13.49386,1.028,20.24691.06763,2.30232.7202,3.47813,3.13959,3.238a4.181,4.181,0,0,1,.91708.06154C127.79382,513.58476,129.91143,513.56627,129.91143,515.94862Z"/><path class="cls-1" d="M191.37244,259.9413c-3.238,6.50068-6.63613,12.9152-9.95412,19.37278-1.81,3.53967-3.552,7.11011-5.31882,10.64977,1.55131,2.23462,5.57116,3.41038,3.45971,6.66074-.66489,1.02187-3.93989.34473-6.6238.474a59.50924,59.50924,0,0,1-4.01369,5.36181c-.76949.84336-2.15458,1.12038-3.26268,1.64978-.23385-1.21886-.77565-2.48082-.61559-3.65047a22.1542,22.1542,0,0,1,1.50817-4.974c.55413-1.4159.314-2.20384-1.12643-2.91179a21.75592,21.75592,0,0,1-4.85713-3.14568,3.30168,3.30168,0,0,1-.76949-2.94252,3.16626,3.16626,0,0,1,2.57946-1.576,77.74866,77.74866,0,0,1,7.83034,1.6806c2.86862-5.15869,5.75572-10.5513,8.83369-15.827,2.16074-3.69973,4.55549-7.27017,6.91311-10.84677a7.48312,7.48312,0,0,1,2.29015-2.43161,9.50036,9.50036,0,0,1,3.084-.56633C191.36011,257.94062,191.77266,259.141,191.37244,259.9413Z"/><path class="cls-1" d="M274.62543,541.13261c-.08612.54781-1.26816,1.0957-2.05,1.305-.96637.25242-2.06215.01233-3.041.24633-3.9459.9418-4.12445,1.29882-3.77968,5.3618a13.96055,13.96055,0,0,1-.037,4.58615c-.36927,1.39125-1.44055,2.604-2.21,3.8906-.99719-1.01582-2.37611-1.87143-2.91175-3.09646a46.181,46.181,0,0,1-1.86512-6.63612c-3.76135.2585-7.31334,2.79482-11.42547-.73252,2.79482-1.50209,5.04168-3.05957,7.51638-3.946,2.85013-1.02807,3.10262-2.604,2.72088-5.33723-1.29281-9.22159-2.28383-18.49248-3.29349-27.751a15.152,15.152,0,0,1,.68338-6.22365c.57862.70787,1.459,1.32963,1.69288,2.13609,1.15124,4.026,2.2162,8.08276,3.15808,12.16416,1.60046,6.96241,3.084,13.94931,4.6353,21.01024a52.15539,52.15539,0,0,1,5.88512-.60335,6.20867,6.20867,0,0,1,3.41657,1.02807A3.14523,3.14523,0,0,1,274.62543,541.13261Z"/><path class="cls-1" d="M115.66048,391.92477c-2.40076,6.19288-5.15861,12.25035-7.69494,18.394-1.47736,3.58893-2.72088,7.28249-4.17991,10.88371-.59094,1.47128-.474,2.24077.97269,3.2688a4.56248,4.56248,0,0,1,1.48353,3.74283c-.1046.671-2.28383,1.57592-3.41027,1.43434-1.88992-.24009-2.524.57866-3.23187,2.00069a32.88644,32.88644,0,0,1-3.25051,5.528c-.62776.81259-1.96371,1.08962-2.97938,1.60669-.35093-1.065-1.15724-2.21612-.97269-3.18261a71.97322,71.97322,0,0,1,2.12393-7.32559,73.56917,73.56917,0,0,1-6.63628-3.20722c-.78783-.46786-1.66824-1.933-1.45272-2.61015a3.44982,3.44982,0,0,1,2.55466-1.736,15.80487,15.80487,0,0,1,5.46039.38779c2.38243.64025,3.08414-.3755,3.9952-2.37618,4.383-9.67713,8.94461-19.28043,13.61087-28.82214.52932-1.08342,2.14225-1.6313,3.25636-2.43157C115.45728,388.97609,116.14682,390.67514,115.66048,391.92477Z"/><path class="cls-1" d="M179.02974,386.87689c-1.065.50479-2.17292.95417-3.1949,1.54515-.80031.4617-1.853.96033-2.16075,1.70521-.73868,1.77291-.89874,3.79821-1.68672,5.54035-.41856.91723-1.66207,1.459-2.53632,2.173-.63393-.95417-1.69288-1.85295-1.80981-2.86866a65.886,65.886,0,0,1-.08612-7.48565,41.785,41.785,0,0,1-5.81734-.0677,16.10183,16.10183,0,0,1-3.712-1.53283c1.13275-.89262,2.1361-2.1238,3.41658-2.5855a40.47584,40.47584,0,0,1,6.29136-1.24964c.07995-1.34815.22153-2.75172.25234-4.16142.20319-9.01231.35709-18.03079.60327-27.04306a13.30256,13.30256,0,0,1,.81262-4.1922c.25851-.708,1.20655-1.61286,1.84063-1.61286a2.75215,2.75215,0,0,1,2.00684,1.51434,13.80023,13.80023,0,0,1,.86793,4.48771c.17855,10.04647.32629,20.093.314,30.13948,0,1.853.79414,2.37619,2.23469,3.05953C177.65081,384.70386,178.25408,385.972,179.02974,386.87689Z"/><path class="cls-1" d="M102.03744,693.917c.02465.65257-.88657,1.88376-1.46519,1.933-5.59581.48627-7.51639,3.121-5.83583,8.62448.29548.96645-1.14507,2.46238-1.78516,3.71814a14.0058,14.0058,0,0,1-3.0165-2.49311,22.073,22.073,0,0,1-1.90209-3.95214c-4.08147-.39392-7.71958-.64641-11.30855-1.20654-.52331-.08-.8248-1.60061-1.20654-2.40084,3.12111-.7879,5.85431-1.57588,8.62449-2.14842,2.25918-.46785,2.487-1.72978,2.327-3.77976-.73883-9.38781-1.31129-18.79411-1.91456-28.19425a10.2116,10.2116,0,0,1,.12309-3.36113,13.767,13.767,0,0,1,1.6499-2.91175c.73868.8741,1.98219,1.6744,2.12993,2.64709.99719,6.46374,1.76668,12.97054,2.59163,19.465.52331,4.14918,1.00335,8.30444,1.50818,12.44738,2.801,0,5.24487-.117,7.65811.07387C100.90469,692.43337,102.019,693.35676,102.03744,693.917Z"/><path class="cls-1" d="M235.68908,707.96488c.08627.65249-.76949,1.42815-1.225,2.14226a.40527.40527,0,0,1-.27082.12925c-5.06017.45553-5.94058,3.42274-4.66626,7.71342a1.63849,1.63849,0,0,1,.01233.91106c-.49867,1.54515-.76334,4.19224-1.61278,4.40144-2.56714.62176-2.82564-2.03757-3.48436-3.76119-.64626-1.69289-1.03416-3.49045-1.582-5.40494-1.90841.39391-3.57048.86793-5.26337,1.04032a9.66266,9.66266,0,0,1-3.90292-.28931,3.08926,3.08926,0,0,1-1.87143-2.05614,3.02843,3.02843,0,0,1,1.63141-2.23454,30.03387,30.03387,0,0,1,5.8235-1.87759c1.60046-.35093,1.95139-1.12043,1.68673-2.604q-2.65948-14.65422-5.23872-29.32693c-.19087-1.07113-.234-2.16074-.34477-3.24419.234-.17231.46786-.33853.70171-.51092.84344.68946,1.98851,1.20654,2.46238,2.093a29.38356,29.38356,0,0,1,2.75184,6.46375c1.90209,7.43642,3.6566,14.92208,5.31251,22.42005.48634,2.22221,1.262,3.24412,3.67508,2.54849a8.14571,8.14571,0,0,1,3.6321-.17854A2.57949,2.57949,0,0,1,235.68908,707.96488Z"/><path class="cls-1" d="M165.893,670.56752c-.68338.76333-1.23119,1.90209-2.087,2.22221-2.28383.8496-4.70308,1.34819-7.0855,1.98836a62.69641,62.69641,0,0,1,.81262,8.2244c-.037,1.39125-.88025,3.65044-1.8591,3.95823-2.16691.6957-2.40076-1.67439-2.82549-3.14567-.708-2.43773-1.182-4.94317-1.77915-7.54712-5.7497-.09243-11.14232,3.05332-16.95966,1.15724,4.34614-4.09364,10.09584-4.45073,15.57458-6.11281-1.56364-6.89463-3.1396-13.5554-4.57383-20.24691a65.36394,65.36394,0,0,1-1.31129-8.79687c-.08-1.08345.78181-2.23461,1.2127-3.355,1.07729.85568,2.721,1.502,3.13343,2.60395a84.02708,84.02708,0,0,1,2.43157,9.19086c1.56979,6.46374,3.10878,12.93365,4.72171,19.63741,2.72088-.22777,5.331-.53557,7.94727-.60944A8.50244,8.50244,0,0,1,165.893,670.56752Z"/><path class="cls-1" d="M247.26229,390.80439c.04929.96032-.788,2.684-1.51434,2.83788-3.88444.83107-5.054,2.86869-4.19224,6.70383.22769,1.00959-1.08961,2.35774-1.69288,3.552-1.065-.78182-2.89327-1.43435-3.05333-2.37007-.714-4.19219-3.238-4.82624-6.76537-4.19219a2.6251,2.6251,0,0,1-1.50818-.17851,3.85112,3.85112,0,0,1-1.79764-1.34816c-.16622-.35089.45553-1.31738.9542-1.699a8.77589,8.77589,0,0,1,2.94256-1.58821c2.44389-.63408,3.05949-1.71753,2.46854-4.37074-2.06846-9.2893-3.87211-18.64635-5.53419-28.02188-.26466-1.502.714-3.22571,1.11427-4.84472,1.17573,1.22506,3.01635,2.26538,3.42274,3.712,2.333,8.36591,4.33982,16.83033,6.42677,25.27015.44321,1.76675.77565,3.552,1.17573,5.39261a26.67173,26.67173,0,0,1,5.091-.49247C245.711,389.247,247.23148,390.18879,247.26229,390.80439Z"/><path class="cls-1" d="M300.39428,445.3953a12.495,12.495,0,0,1-1.13891,2.54241,4.99043,4.99043,0,0,1-1.80981,1.10806,2.7662,2.7662,0,0,0-1.699,3.632,15.63558,15.63558,0,0,1,.03081,5.46032,2.534,2.534,0,0,1-1.58828,1.79752,2.73489,2.73489,0,0,1-2.12377-1.27428c-1.03431-1.85907-1.79148-3.87208-2.71487-5.94663-2.333.45554-4.69075,1.08345-7.08535,1.31122-.91106.08619-1.9084-.73872-2.86876-1.15116.59094-.8372,1.00966-1.98223,1.816-2.43777,1.933-1.1019,4.05066-1.88371,6.37763-2.91791-2.23454-11.4562-8.18128-22.14908-8.26123-35.27355,1.50817,1.15732,2.567,1.58824,2.9917,2.36386a67.7126,67.7126,0,0,1,4.25386,8.803c2.63461,7.184,5.00471,14.46031,7.59017,22.01979a15.99421,15.99421,0,0,1,3.64443-1.028C298.6521,444.36727,299.53236,445.03829,300.39428,445.3953Z"/><path class="cls-1" d="M165.33276,593.51961a2.00717,2.00717,0,0,1-1.16341.94188c-3.52734,1.0588-4.38927,3.29965-3.33662,6.70391a6.29677,6.29677,0,0,1-.19688,3.31182c-.5663,2.08688-2.58547,2.57938-3.90909.89875a9.52849,9.52849,0,0,1-2.08064-4.04442c-.42472-2.604-1.70521-2.73328-3.87211-2.28384-2.61012.54173-5.30034.70795-7.95343,1.03424-.13557-.4617-.27714-.9234-.41872-1.38509,2.41324-3.33655,6.34682-4.20456,10.23126-5.69425-1.50818-11.37625-4.91244-22.59236-3.38577-35.409,1.28048,1.61278,2.49318,2.50544,2.801,3.65043,1.32963,4.92476,2.3946,9.92338,3.55184,14.89736,1.17589,5.07249,2.33929,10.15115,3.552,15.40835a34.52,34.52,0,0,1,4.45073-1.19422c.77581-.10468,2.10544.20312,2.33313.70788C166.21317,591.67283,165.68985,592.73787,165.33276,593.51961Z"/><path class="cls-1" d="M269.94084,314.35987c.006,1.11422-1.82213,2.24693-2.838,3.355a5.1121,5.1121,0,0,1-.83727.57249,16.01218,16.01218,0,0,1,.3879,4.186c-.18471,1.13271-.985,2.81943-1.80981,3.02259-.88026.21544-2.33929-.83108-3.13343-1.70521A15.90685,15.90685,0,0,1,259.845,320.128c-3.46572.948-6.907,1.896-10.79139,2.961.44937-4.06291,2.89342-5.81121,5.38645-6.91927,3.29349-1.46512,3.34279-3.28113,2.48087-6.38988-2.26535-8.16279-4.13062-16.44254-6.04518-24.69765a19.04624,19.04624,0,0,1-.043-4.1491c.511-.17238,1.028-.33857,1.539-.51095,1.29266,2.53625,2.89943,4.96785,3.829,7.63339,2.53617,7.23323,4.80783,14.55878,7.12247,21.86589.437,1.3728.79414,2.45009,2.62229,2.27771C267.7,312.03294,269.93468,312.11909,269.94084,314.35987Z"/><path class="cls-1" d="M259.16794,614.73305c-.67106.56637-1.25584,1.422-2.03149,1.64366-4.18608,1.20654-4.18608,1.15109-3.2935,5.57109a14.94291,14.94291,0,0,1,.65873,4.5246c-.1539,1.21271-1.13275,3.2073-1.87143,3.26268a4.53645,4.53645,0,0,1-3.66276-1.82213c-1.08961-2.01917-1.45287-4.43225-2.12993-6.67926-.17238-.57862-.38174-1.13876-.59711-1.75436-2.33312,0-4.574.05531-6.80851-.037a5.59288,5.59288,0,0,1-1.82213-.788c.35078-.671.54165-1.68672,1.09562-1.94522,2.00068-.9542,4.11844-1.656,6.43925-2.54865-1.21271-5.054-2.49319-10.0772-3.60129-15.13744a76.50035,76.50035,0,0,1-1.45287-9.06154c-.08612-.88649.81263-1.8591,1.262-2.79482.99117.56637,2.46854.89266,2.88109,1.74211a59.31852,59.31852,0,0,1,3.31182,8.53836c1.5698,5.15861,2.91792,10.39117,4.34,15.51912a27.77985,27.77985,0,0,1,4.857.07386C257.62895,613.21255,258.36147,614.142,259.16794,614.73305Z"/><path class="cls-1" d="M347.27791,523.02179a13.32111,13.32111,0,0,1-2.72088,2.32073,30.96972,30.96972,0,0,1-4.62929,1.39125,90.38608,90.38608,0,0,1,1.01567,9.06777c.02465,1.16965-1.08345,2.3577-1.67439,3.53967-.86178-.905-2.01917-1.67448-2.52385-2.75177-1.3113-2.77017-2.33313-5.68192-3.63826-8.96917H320.59182c2.96721-4.42,7.418-3.69973,11.11768-5.20791-.91107-5.36188-1.87745-10.76682-2.727-16.184a18.0687,18.0687,0,0,1-.2032-4.8817,2.96672,2.96672,0,0,1,1.64975-2.173,2.87573,2.87573,0,0,1,2.46238,1.2496,46.41343,46.41343,0,0,1,2.83179,7.73806c1.11427,4.34614,1.93306,8.76606,2.92408,13.39534a24.25424,24.25424,0,0,1,5.288-.43088C345.111,521.28585,346.16364,522.357,347.27791,523.02179Z"/><path class="cls-1" d="M202.24378,478.92059a7.36029,7.36029,0,0,1-1.71122.56018c.33245,3.02259.7202,6.03285.96021,9.06157a19.96655,19.96655,0,0,1-.12308,4.58006c-.11693.75717-.86178,1.41582-1.32347,2.11761-.68338-.50483-1.74218-.87417-1.99452-1.539-1.14507-3.05332-2.06847-6.18059-3.04717-9.28933-.27713-.868-.468-1.76059-.7758-2.93024a32.13713,32.13713,0,0,1-5.42327.4186c-1.01583-.08-2.6286-.89874-2.764-1.61285a3.58,3.58,0,0,1,1.539-2.90559,29.82277,29.82277,0,0,1,5.22639-2.04378c-.51715-7.27633-1.00966-14.20177-1.48984-21.12721a4.24781,4.24781,0,0,1,.00631-1.8283,14.62171,14.62171,0,0,1,1.52035-2.27154c.72035.62176,1.87759,1.12039,2.09311,1.88372.831,2.94868,1.40358,5.97127,1.98836,8.9815.74485,3.81669,1.46519,7.63955,2.0868,11.48085.25865,1.58825.9297,2.16074,2.59178,2.29616,1.4159.117,2.764.97265,4.14294,1.502C204.58307,477.14768,203.44431,478.07723,202.24378,478.92059Z"/><path class="cls-1" d="M95.65365,587.83769a30.97882,30.97882,0,0,1-3.28717.16006c-.79415-.04306-1.5698-.45554-2.3701-.53549-5.02936-.52948-5.39262-.197-5.58349,4.74621a13.43073,13.43073,0,0,1-.314,3.64427c-.27082.82495-1.20038,1.42822-1.83446,2.12385-.68322-.64025-1.77284-1.16965-1.98219-1.9453-.6156-2.24694-.8741-4.59232-1.342-7.29478h-10.416c-.18471-.48635-.36926-.96645-.554-1.4528a66.42051,66.42051,0,0,1,6.26671-2.8502c4.50619-1.54515,4.34613-1.4528,4.25986-6.199-.09844-5.61429.03081-11.24076.37558-16.84273.08011-1.31122,1.44055-2.54241,2.21-3.81049.70171,1.29273,1.92058,2.54233,2.03134,3.88436.57877,6.80851.87425,13.64159,1.27432,20.58552,2.32081.277,4.3523.36934,6.30369.80639a7.47731,7.47731,0,0,1,3.52734,1.68063C95.01341,585.31993,95.19812,586.71734,95.65365,587.83769Z"/><path class="cls-1" d="M325.76291,377.32289c-.62176.8372-1.12043,2.2469-1.88376,2.407-2.82563.59711-3.004,2.29-2.45621,4.54925a4.3182,4.3182,0,0,1,.20935,1.816,3.28453,3.28453,0,0,1-.9542,1.9391,1.99067,1.99067,0,0,1-1.76067-.69562c-1.43423-4.86318-5.12163-4.06907-8.77838-3.81053-.9787.06774-2.02533-.84953-3.04716-1.31735.63408-.97881,1.0588-2.27154,1.94522-2.86869a32.95868,32.95868,0,0,1,5.18957-2.3208c-2.21-7.03624-4.37694-13.95552-6.55-20.86863a6.82047,6.82047,0,0,1-.517-1.76059c-.03081-1.11423.11693-2.24078.19688-3.355,1.16356.62788,2.94872.97877,3.38577,1.9391,2.327,5.10946,4.33381,10.36663,6.42076,15.58686a19.13437,19.13437,0,0,1,1.028,3.21342c.548,2.67166,1.56979,4.43229,4.85712,3.81053C323.81137,375.43917,324.85184,376.7073,325.76291,377.32289Z"/></svg>