<?xml version="1.0" encoding="utf-8"?>
<!-- Generator: Adobe Illustrator 25.2.3, SVG Export Plug-In . SVG Version: 6.00 Build 0)  -->
<svg version="1.1" id="Capa_1" xmlns="http://www.w3.org/2000/svg" xmlns:xlink="http://www.w3.org/1999/xlink" x="0px" y="0px"
	 viewBox="0 0 366.9 194.3" style="enable-background:new 0 0 366.9 194.3;" xml:space="preserve">
<style type="text/css">
	.st0{fill:url(#);}
	.st1{fill:#FFFFFF;}
	.st2{fill:#BC6562;}
</style>
<g>
	<path class="st1" d="M227.1,149.2c0.5,7.4,1.1,14.8,4,21.7c0.8,2,1,4.5,3.8,5.1c0.2-0.2,0.4-0.4,0.6-0.6c-3.6-3.3-3.9-8.2-5.1-12.4
		c-1.2-4.1-1-8.6-1.4-13c-0.7-1.1-1-2.3,0-3.4c0,0,0,0,0,0c0-1,0-1.9,0-2.9c-0.7-1.2-0.8-2.3,0-3.5c0,0,0,0,0,0
		c0.3-3.4,0.5-6.7,0.8-10.1c-0.1-1.1,0-2.1,0.3-3.1c0-0.1,0.1-0.2,0.1-0.3c0.3-3.1-0.7-6.3,0.8-9.4c0-1.3,0-2.5,0-3.8
		c-0.6-5.7,0.6-11.4,0.7-17.1c0-4.7,1-9.4,0-14.2c-0.6-2.9-1.6-5.8-1.4-9c6.6,2.3,13.6,16.3,12.8,25.2c0.6,1.1,0.5,2.3,0.5,3.5
		c0.1,3.1,0.6,6.2,0.2,9.3c0.5,1.1,0.6,2.3,0.5,3.5c0,0,0,0,0,0c0,0,0,0,0,0c0.2,1.7,0.3,3.4,0.6,5c0.1,0.7,0.3,1.5,1.4,1.1
		c1.7-0.6,3.6-1,4.3-2.9c1.6-3.7,4.3-6.7,6.5-10c4.6-6.8,9.9-13.1,14.1-20.1c3.1-5.1,6.5-10,10-14.8c0.4-0.7,0.5-1.5,1.3-1.9
		c5.9-7.2,10.1-15.6,15.9-22.8c4.2-5.2,8.4-10.3,13.5-14.6c1-0.8,1.9-1,3.2-0.4c-10,17.9-18.4,36.5-30.1,53.3c-0.4,1-0.7,2-1.6,2.7
		c-0.6,2.7-2.3,4.8-3.9,7c-1.4,1.9-1.8,4.1-2.7,6.2c-0.7,1.6,0.4,3.3,1.9,3.9c1.9,0.8,3.6-0.4,5-1.6c6-5.4,10.6-11.9,15.9-18
		c4.2-4.9,8.5-9.8,12.7-14.8c5.4-6.4,11.2-12.5,16.8-18.8c5.5-6.3,11.6-12,18.3-17c0.7-0.5,1.2-0.8,2-0.4c0.8,0.5,1.1,1.4,0.8,2.2
		c-0.3,0.9-0.8,1.7-1.3,2.4c-5.9,8.9-11.9,17.7-17.6,26.8c-2.1,3.4-4,6.8-6.4,10.1c-5.2,7.1-10.6,14-15.2,21.4
		c-4.1,6.5-7.8,13.3-12,19.8c-0.8,1.3-2,2.9-0.3,4.2c1.4,1.1,3.2,1.5,4.8,0c3.3-3.1,7.2-5.3,11.2-7.3c2.1-1.1,4.4-1.9,6.3-3.2
		c6.3-4.4,12.4-8.9,18.6-13.4c7-5.1,13.7-10.7,21.5-14.5c0.9-0.4,1.7-1.4,3-0.6c-0.2,0.5-0.4,1.1-0.8,1.6c-2.9,4.7-6.9,8.2-11,11.8
		c-5.3,4.7-10.1,10.1-15.3,15c-4,3.8-7.5,8-11.8,11.4c-4.1,3.2-7.8,7.1-11.6,10.7c-2,1.9-2.2,4.5-0.5,5.7c1.5,1.1,3.2,0.6,4.9,0.2
		c6-1.6,11.5-4.3,17.4-5.9c3.4-0.9,7.4-1.2,10-2.9c4.5-3.1,9.7-3,14.2-5.2c0.7-0.7,1.5-0.9,2.2-0.3c0.3,0.3-0.2,1-0.9,0.8
		c-1.5,1-3,2.1-4.5,3.1c-6.2,4.2-12.5,8.6-19.3,11.7c-10.1,4.6-20,9.6-29.3,15.5c-5.2,3.2-10.6,6.2-16.1,8.3
		c-8,3.1-15.7,5.8-20.2,13.8c-0.4,0.9-0.9,1.7-1.3,2.6c0,0,0,0,0,0c-0.2,1.5-0.4,3-0.6,4.5l0,0c0,0,0,0,0,0c0.5,0.8,1,1.6,0.7,2.6
		c0.1,0.5,0.1,1,0.5,1.4c0.7,0.8,0.9,2.6,2.2,2.1c1.6-0.6,0.3-1.9,0.1-2.9c-0.3-0.9-0.5-1.8-0.7-2.7c-0.8-3.8,1.3-9.4,4.5-10.7
		c4.3-1.7,8.2-4,12.3-6c6.9-3.5,13.2-7.9,20.1-11.4c7.2-3.7,14.2-8,21.4-11.9c4.9-2.7,10.4-4.3,15.1-7.1c6.4-3.9,11.9-8.9,18.7-12.3
		c0.5-0.2,0.8-0.6,1.2-1c0.5-0.6,0.6-1.4,0.3-2.1c-0.3-0.7-1.1-1-1.9-0.9c-1.9,0.3-3.9,0.4-5.7,1c-11.8,4.2-23.5,8.5-35.2,12.7
		c-2.2,0.8-4.3,2-6.8,1.5c-0.7-0.1-1.5,0.4-1.9-0.7c-0.2-0.8,0.2-1.5,0.8-1.9c2.4-2,4.4-4.6,6.9-6.5c7.1-5.3,13-12,19.4-18.1
		c6.3-6.1,12.2-12.7,18.7-18.5c3.7-3.3,6.1-7.6,7.8-12.3c-1.1-0.1-2.1-0.1-3.2-0.2c-1.1,0.4-2.3,0.8-3.3,1.3
		c-10.1,5-18.8,12.3-27.8,18.8c-6.5,4.7-12.5,10.3-20.1,13.4c-3.4,1.4-6.6,3.4-9.5,6c-0.9,0.8-1.7,2.7-3.2,1.7
		c-1.4-1,0.3-2.4,0.5-3.6c0.1-0.3,0.2-0.6,0.3-0.9c4.2-6.5,8-13.4,12.6-19.5c8.5-11.2,15.6-23.4,23.8-34.9c5-7.1,8.4-15.4,15.3-21.2
		c1.3-1,0.9-6-0.6-7.3c-1.8-1.6-4.2-1.3-5.8,0c-5.1,4-10,8.3-14.4,13c-1.3,1.4-2.2,3-3.5,4.4c-4.4,4.3-8.1,9.3-12.4,13.7
		c-3.8,4-7.1,8.5-11.3,12.1c0,1-0.5,1.6-1.3,2.1c-1.7,1.1-1.9,3.4-3.8,4.2c0,1-0.5,1.7-1.3,2.2v0c-1.1,1.2-2.2,2.3-3.2,3.5
		c-4.2,5.1-8.3,10.2-13.2,14.7c-0.7,0.7-1.3,1-2.2,0.4c-0.8-0.6-1-1.5-0.5-2.2c0.8-1.3,1.1-2.9,2.3-4c0.3-0.7,0.5-1.5,1.3-1.9
		c0-1,0.6-1.7,1.1-2.5c0.1-1.1,0.3-2.1,1.4-2.6c1.6-3.9,4-7.4,6.4-10.9c2.9-4.3,6.3-8.3,8-13.3c0.3-1,0.7-2,1.5-2.7
		c0.1-1.4,1.9-2,1.5-3.6c0.3-1.1,1-1.9,1.8-2.7c3.2-5.9,6.5-11.8,9.7-17.7c0.4-1,0.9-2,1.8-2.7c1.8-2.5,3-5.1,0.7-8
		c-0.6,0.1-1.2,0.1-1.8,0.2c-1.8,1.5-3.7,2.8-5.5,4.4c-5.8,5.2-10.4,11.4-15.6,17.1c0,1-0.3,1.7-1.3,2.1c-0.3,0.8-0.4,1.6-0.8,2.3
		c-6.6,9-12.9,18.2-19.1,27.5c-4.4,6.6-8.9,13.1-13.3,19.6c-3.2,4.8-6.3,9.6-9.5,14.5c-0.6,0.9-1.3,1.3-2.4,1.1
		c-1.3-0.2-0.8-1.2-0.9-2c-1-9.1-0.4-18.3-2-27.4c-0.8-0.4-0.4-1.3-0.7-1.9c-2.1-5.7-4.4-11.1-9.7-14.8c-1.8-1.3-3.3-1.6-5.1-0.6
		c-1.8,1-0.6,2.4-0.3,3.7c0.5,1.9,1.5,3.6,1.3,5.7c0.6,1,0.6,2.2,0.5,3.3c0.3,3.4,0.5,6.8,0,10.2c0.1,1.1,0.1,2.3-0.5,3.3
		c0,0,0,0,0,0c-0.1,2.9-0.1,5.9-0.2,8.8c0.1,1.2,0.1,2.4-0.4,3.5c0,0,0,0,0,0c0.3,8.2-1.5,16.4-1.5,24.6c0.4,0.8-0.4,1.3-0.6,1.9
		c0.3,1.5,0.3,3,0,4.5c0,2.3,0,4.7,0,7C227.1,148.3,227.1,148.7,227.1,149.2z"/>
	<path class="st1" d="M234.8,175.9c0.6,2.7,1.8,5.4,0,8.2c-0.2,0.4-0.2,1.2,0.4,1.4c0.9,0.3,1.6-0.2,2-1c1.5-2.5,0.7-6.4-1.8-9.1
		C235.6,175.9,235.4,176.1,234.8,175.9z"/>
	<path class="st1" d="M235.5,175.3c-0.2,0.2-0.4,0.4-0.6,0.6C235.4,176.1,235.6,175.9,235.5,175.3z"/>
	<g>
		<path class="st1" d="M120.8,161.9c-0.1,0-0.1,0-0.2,0C120.5,162,121,162.1,120.8,161.9z"/>
		<path class="st1" d="M114.1,152.8C114.1,152.8,114.2,152.8,114.1,152.8c0-0.1,0-0.1,0-0.2C114.1,152.7,114.1,152.7,114.1,152.8z"
			/>
		<path class="st1" d="M84.8,63.3c-0.9-1-1.4-2.2-1.9-3.4c-3.2-5.7-6.3-11.4-9.5-17.1c0,0,0,0,0,0c-1-0.9-1.5-2.1-2-3.3
			c-1.4-1.4-2.5-3-3.1-4.9c-1.1-0.9-1.3-2.3-1.9-3.4c-1.9-2.4-2.8-5.2-2.5-8.2c-0.5-0.9-1.2-2-0.1-2.8c0.8-0.6,1.5,0.3,2.1,0.8
			c3.2,4.8,7.9,8.4,11.4,13c0.9,0.5,1.5,1.4,1.8,2.4c11.8,17.1,22.6,34.8,32.7,52.9c0.8,0.8,1.4,1.6,1.7,2.6c3.2,4.2,6.7,8,11,11
			c1.3,0.9,3.2,0.9,4.7-0.1c1.3-1,1-2.2,0.5-3.6c-1.9-5.2-2.5-10.7-3.9-16.1c-1-1.4-1.2-3-1.7-4.6c-2.4-4.1-2.6-8.8-3.7-13.2
			c-2.4-9.3-7.6-17.6-9.9-26.9c-0.8-3.2-2.9-6-3.3-10.3c5.7,6.1,10.3,11.8,13.3,18.6c0.6,1.4,0.8,3,1.6,4.3
			c4.5,6.8,7.3,14.5,10.8,21.8c0.4,0.9,0.8,1.7,1.2,2.6c1.6,5.2,4.1,9.8,6.9,14.5c1.5,2.5,3.1,5,4.3,7.7c3.1,7.1,6.3,14.1,10.1,20.9
			c0.6,1.1,1.5,1.9,2.7,1.4c3-1.2,6.1-2.5,7.6-5.6c2.2-4.5,4.2-9,6.1-13.6c1.9-4.4,3.2-8.9,3.4-13.8c0.2-3.9,0.3-8.1,2.9-11.6
			c0.8-1.4,1.9-2.4,3.2-3.2c0.2-0.2,0.3-0.4,0.5-0.6c0.7-1.3,1.7-2.4,3.4-2.4c2.7-0.6,1.5,1.4,1.4,2.3c-0.5,2.4-1.5,4.7-1.9,7.1
			c-0.6,4.8-1.5,9.6-2.4,14.3c-1,5-3,9.8-1.5,15c0.6,1.1,0.5,2.2,0.5,3.4c-0.9,2.7-0.1,5.6-0.6,8.3c0,0.2-0.1,0.3-0.1,0.5
			c0.1-0.2,0.1-0.3,0.1-0.5c0.1,1.1,0.2,2.1,0.2,3.2c0.3,0,0.7,0,1,0c0.1-2.8,0.1-5.5,0.2-8.3c0-2.3,0-4.7,0-7
			c-1-6,1.2-11.6,2.2-17.3c1.3-7.9,3.5-15.6,5.3-23.4c-1.2-0.7-2.5,0.1-3.8-0.2c-0.4,0-0.9,0-1.3,0c-0.6,0.3-1.1,0.9-1.9,0.8
			c-1.4,2.4-4.5,3.2-5.8,5.9c-2.1,4.4-3.4,9-3.9,13.8c0,1.8,0.2,3.7-0.3,5.4c0,0.2-0.1,0.3-0.2,0.5c0.3,1.2-0.3,2.3-0.7,3.4
			c-1.9,4.6-4.2,9.1-5.9,13.8c-1.1,3.2-3.1,5-5.9,6.6c-2.3,1.4-3,0.6-4.1-1.3c-2.8-4.9-4.5-10.3-7.3-15.2c-7.5-13-13.1-27-19.5-40.5
			c-4.7-9.9-9.1-19.9-16.3-28.3c-1.2-1.4-2.2-3.1-3.7-4.3c-1.5-1.2-4.1-0.9-3.8,0.4c0.4,1.7-0.3,3.6,0.6,5
			c3.3,4.8,3.5,10.7,5.8,15.9c3,6.5,6.8,12.9,7.1,20.4c0.2,3.8,2.4,7,3.5,10.5c2,6.3,4.2,12.6,4.3,19.3c0,1.1,2,2,0.6,2.9
			c-1.6,1-2.8-0.6-4.1-1.5c-4.1-2.8-6.9-6.8-9.5-10.9c-3.6-5.8-6.7-12-10.3-17.8c-5-8.3-10.5-16.4-15.1-24.9
			c-1.1-1.1-1.9-2.4-2.5-3.8c-4.7-7.1-10.4-13.5-15.8-20c-1.8-2.1-3.8-3.9-6.4-5c-1.2-0.5-2.1-0.6-1.9,1.1c0.9,2.3,0,4.8,0.5,7.1
			c1,4.8,3.9,8.6,6.3,12.7c4,7,8.8,13.5,12.3,20.8c2.8,5.9,5.4,12.2,9.7,17.5c0.2-0.2,0.5-0.5,0.7-0.7
			C88.7,71.6,86.7,67.4,84.8,63.3z"/>
		<path class="st1" d="M29.3,70.3c5.2,4.2,10.2,8.5,15.1,13c3.3,3,6.8,5.7,10,8.8c1.4,1.3,2.1,3,3.6,4.2c4.3,3.4,8.4,7.1,12.4,10.9
			c6.7,6.4,13.1,13,17.6,21.2c0.2,0.4,0.7,0.7,1.2,1c1.1,0.6,2.4,0.9,1.6,2.7c-0.9,1.9-2.2,0.9-3.4,0.6c0,0,0,0,0,0c0,0,0,0,0,0
			c-0.2,0.2-0.4,0.4-0.6,0.6c0.1,0.7,0.9,0.4,1.2,0.8c1.4,1.7,2.8,1.3,4.3,0.2c1.8-1.4,0.6-2.8,0-4.1c-0.4-0.9-1-1.7-1.6-2.6
			c-0.7-0.8-1.3-1.7-2-2.5c-4.6-4.6-7.8-10.3-12.5-14.9c-8.5-8.3-18.2-15.4-26.1-24.4c-1.8-2.1-4.4-3.6-6.1-5.9
			c-0.7-0.6-1.3-1.2-2-1.8c-3.5-1.9-5.3-5.8-9-7.3c-0.5-0.2-0.6-0.7-0.4-1c0.2-0.5,0.7-0.5,1.1-0.3c2.8,1.9,6.4,1.6,9.2,3.6
			c3.4,2.4,6.9,4.7,10.3,7.1c4,2.8,7.3,6.7,11.9,8.6c0.9,0.3,1.7,0.7,1.8,1.8c0.7,0.7,1.4,1.3,2,2c1.4,0,2.3,1,3.3,1.8
			c3.4,3.1,7,5.8,10.7,8.4c1.5,0.9,3.2,1.6,4.3,3.1c3.4,2.2,6.1,5.2,9.7,7.1c0.9,0.3,1.7,0.7,2.6,1c1.7,0,2.8,1.3,4,2
			c1.5,0.9,2.4,0.2,3.4-0.3c1.2-0.7,1.2-2.1,0.6-3.1c-1.5-2.2-1.8-4.9-2.6-7.3C101.8,96,96,88,92.4,79l0,0v0
			c-0.2,0.4-0.3,0.8-0.5,1.2c1.3,4.5,3.8,8.5,5.7,12.7c0,0,0,0,0,0c0,0,0,0,0,0c0.5,1.1,1,2.1,1.5,3.2c0,0,0,0,0,0l0,0
			c0.3,0.4,0.5,0.9,0.8,1.3c2.5,4.5,4.1,9.3,5.4,14.2c0.2,0.7,1.4,1.5,0.4,2.2c-0.7,0.5-1.8,0.6-2.7,0.1c-2.7-1.5-5.6-2.6-8-4.4
			c-10.2-8-20.6-15.7-31.1-23.4c-9.7-7.1-18.9-14.9-30-19.9c-0.6-0.1-1.2-0.2-1.9-0.2c-1.6-1-3.3-0.2-4.1,0.9
			C27,68.2,28.4,69.5,29.3,70.3z"/>
		<path class="st1" d="M154.5,148.8C154.5,148.8,154.5,148.8,154.5,148.8c0.8-2,0.3-4,0.4-6c0.1-1.2,0.2-2.3,0.3-3.6
			c1.5,0.2,2.1,1.1,1.5,2.3c-0.8,1.6-0.3,3.2-0.4,4.8c-0.3,3.4,2,5.4,5.3,4.7c0.6-0.1,1.4-0.6,1.1-1.6c0.1-0.2,0.1-0.4,0.2-0.6
			c0.3-1.3,0.3-2.7,0.3-4.1c0-0.4,0.1-0.8,0.1-1.3c0.1-0.8-0.3-1.9,1.1-1.8c1,0.1,0.8,1.1,0.8,1.8c0,1.5,0.1,3-0.1,4.4
			c-0.5,4.1-0.4,4.4,3.6,5.2c0.9,0.2,2.2,0.2,2.1,1.3c-0.1,1.4-1.4,1.3-2.4,1.2c-0.4,0-0.9-0.2-1.3-0.1c-1.1,0.2-2.8-1.4-3.2,1
			c-0.3,1.9,0.7,2.9,2.6,3.2c0.8,0.1,1.6,0.4,2.4,0.7c0.6,0.4,1.3,0.8,1.9,1.2c-0.9,3.4-3.7,1.4-5.5,1.7c-1.4,0.3-2.6,0.1-2,2
			c0,1.1,0,2.1,0,3.2c-0.9,0.6,1.3,3-1.5,2.6l0,0c0-1.3,0-2.5,0-3.8c0.3-4.3-0.5-5.4-3.7-5.2c-1.3,0.1-1.8,0.4-2,1.8
			c-0.4,2.4-0.7,4.7-0.6,7.2c0,0.5,0.1,1.2-0.6,1.2c-0.6,0-1.1-0.4-1.1-1.2c0-2.3-0.2-4.7,0-7c0.2-2.1-0.3-3-2.6-3.3
			c-1.7-0.2-3.7-0.5-5.1-1.8c0-0.8,0-1.5,0-2.3c2-1.8,4,0.1,6,0.1c1.3,0,2.2,0.2,2.2-1.5c0-1.4,0.1-2.7-1.7-2.7
			c-2.4,0-4.7-0.8-7-1.2c-0.9-0.2-1.9-0.3-1.8-1.3c0.1-1.2,1.3-1.3,2.2-1.1C148.9,148.9,151.7,150,154.5,148.8z M157,157.3
			c1.6,0.8,3.4,1.4,5.1,1c1.2-0.3,0.4-1.9,1-2.7c0.1-0.7-0.1-1.2-0.7-1.3c-1.7-0.4-3.5-0.8-5.2-1c-0.7-0.1-1,0.6-1.1,1.3
			C156,155.6,155.9,156.8,157,157.3z"/>
		<path class="st1" d="M124.6,155.6c3.4-0.2,6.9-0.5,10.1,0.2c1.3,0.3,1.9,3.1,2,5.1c0,0.3,0.5,0.6,0.7,1c2.3,5.9,4.6,11.8,6.9,17.7
			c0.4,1.1,0.8,2.3,2.4,2.6c0.5-3.4-1.9-5.9-2.6-8.8c-1-2.4-2-4.9-2.5-7.5c-1.1-1.2-1.3-2.8-1.9-4.2c-1.4-3.1-2.4-6.5-5.1-8.8
			c-2,1.2-4,0.7-6.1,0.5c-2.4-0.3-4.8-0.6-7.2-0.8c-0.6,0-1.3,0.2-1.7,0.6c-0.6,0.6,0.1,1.1,0.4,1.6c0.4,0.8,1.4,1.3,1.4,2.6
			c-2.9-0.6-6.6,0.3-7.2-4.6c0,0,0,0,0,0c-0.2,3.3-2,3.7-4.5,3.2c-0.5-0.1-1,0.1-1.2,0.8c0.7,1.6,3.5,1.4,3.1,3.8c0,1.1,0,2.1,0,3.2
			c0,1.1,0.1,2.1,0.1,3.2c0.4,0.4,0.8,0.9,1.3,1.3c2,0.2,4.1,0.4,6.1,0.6c0.6,0,1.4,0.3,1.5-0.6c0.1-0.7-0.3-1.1-1-1.3
			c-1.1-0.3-2.2-0.6-3.4-0.7c-1.9-0.1-3-1.1-2.3-3.1c0.3-0.8,0.2-1.6,0.3-2.5c0.1-1.7,1.1-2.6,2.7-2c0.5,0.2,3.5-0.1,1.4,2.3
			c-0.8,1,0.4,1.9,1.3,2.6c1.9,1.4,4.4-0.1,6.1,1.5c0.9-0.2,1.8-0.2,2.6,0.5c1.4,0.2,2.8,0.6,4.2,1.2c0.5,0.2,1.8,0.4,2.1-0.8
			c0.3-1.1-0.4-1.3-1.3-1.7c-2.8-1.1-5.9-1-8.8-1.9c-1.1-0.2-2.3-0.4-3.6-0.6c0.2,0.2-0.3,0.1-0.2,0c-0.2,0-0.4-0.1-0.6-0.1
			c1.5-1.2,3-1.2,4.4-1c1.8-1.1,1.6-2.2,0.1-3.4C124,156.7,123.1,155.7,124.6,155.6z"/>
		<path class="st1" d="M0.9,86.8c3.6-2.8,6.4-6.3,9.6-9.5c1-0.9,1.8-3.1,3.3-1.9c1.6,1.3-0.5,2.5-1.3,3.5c-0.1,0.1-0.1,0.4-0.3,0.8
			c2.5,1.2,5,2.5,5.7,5.8c0.3,1.2,0.3,1.8-0.5,2.7c-0.5,0.5-2.2,1.4-1,2c1.2,0.7,3,2.6,4.6,0.7c1-1.2,2-1.6,3.3-1.7
			c0.4,0.4,0.9,0.9,1.3,1.3l0,0v0c-0.7,2.3-3,4.5-0.1,6.9c0.3,0.2,0.2,1.4-0.2,1.7c-0.8,0.6-2.1,0.5-2.7-0.1c-1.4-1.4-2.4-1.2-3.7,0
			c-0.7,0.6-2,0.7-2.6,0c-0.7-0.7-0.3-1.8,0-2.7c0.3-0.8,0.8-1.2,0.6-2.4c-0.4-2.8-1.5-2.3-3.2-1.3c-1.3,0.7-2.6,1.4-3.9,2.1
			c-3.2,1.9-3.3,2.2-1.4,5c-3-0.5-4.2-2.5-2.5-4.7c0.7-0.9,0.3-1.2-0.2-1.8c-1-1-2.3-1.9-2.6-3.5c-0.4-0.7,0.1-2.8-1.9-1.4
			C-0.3,88.2-0.4,87.8,0.9,86.8z M19,94.7c2.2,0.1,2.2,0.1,3.2-0.9C21.1,93.3,20.2,93.8,19,94.7z M8.7,90.5
			c-0.1-0.8-0.5-1.3-1.3-1.4c-0.5,0-1.1-0.1-1.1,0.7c0,1,0.5,1.6,1.4,1.7C8.3,91.6,8.5,91.1,8.7,90.5z M11.6,83
			c0.6,1.2,1.2,2.2,2.8,1.9c0.5-0.1,0.7-0.4,0.5-0.9C14.2,82.7,13.1,82.5,11.6,83z M6.9,86.4c1.7,0.8,2.9,2.1,3.5,3.8
			c0.7,2.1,1.9,1.6,3,0.3c1.2-1.5,2.3-3.2-0.7-4.2C11.4,86,10.6,85,9.8,84c-0.4-0.5-0.9-0.8-1.3-1.2c-1.4,0.2-1.8,1.3-2.4,2.1
			C5.3,85.8,6.3,86.2,6.9,86.4z"/>
		<path class="st1" d="M87.4,132.6c-3.3-1.8-6.5-3.7-9.9-5.3c-4.4-2.2-8.8-4-13.2-6.2c-8.7-4.4-16-11.1-25.4-14.1
			c-1.3,0.1-2.6-0.4-3.8,0.3c1.2,3.2,4.2,4.7,6.2,7.3c3,3.9,6.5,7.4,11,9.7c0.2-0.4,0.4-0.7,0.6-1.1c0,0,0,0,0,0c0,0,0,0,0,0
			c-5.3-3.9-9.8-8.6-13.8-14.3c2.8,0.6,5.2,1.3,6.8,3.5c0.9,0.5,1.9,1.1,2.8,1.6c0.8,0.5,1.5,1,2.3,1.5c2.2,0.6,4.1,1.6,5.8,3.1
			c5.4,2.5,10.3,5.8,15.9,8.2c4.7,2,9.1,4.9,14.1,6.5l0,0v0C86.6,132.6,86.8,132.3,87.4,132.6z"/>
		<path class="st1" d="M87.4,132.6c-0.7-0.2-0.8,0.1-0.6,0.6v0C87,133,87.2,132.8,87.4,132.6C87.4,132.6,87.4,132.6,87.4,132.6z"/>
		<path class="st1" d="M92.3,13.1c1.2-0.6,0.2-1.4,0.2-2.2c0-0.8,0-1.6,0.8-1.9c0.9-0.4,1.8-0.5,2.6,0.3c1.3,1.2,2.6,2.5,2.6,4.5
			c0,3.2,1.6,3.1,3.9,2.1c0.9-0.4,2-0.5,3-0.7c2.3-0.6,4.1-1.7,5.1-4.2c-2.6-0.8-4.7,0.8-7,0.8c-0.6-1.3-0.3-2.7-0.3-4
			c0-1.6,0.9-1.7,2.1-1.4c1.7,0,3.4,0,5.1,0c1.1-0.9,2.5-1.3,3.3-2.6c0-1.1-0.1-2.1-0.1-3.2c-1.1-0.5-2-1.1-2.4,0.9
			c-0.4,2.1-2.4,3.2-4.3,3.4c-1.4,0.2-3.5,0.1-3.6-2.5c0-0.8-1-1.1-1.8-0.9c-0.8,0.2-0.5,1-0.5,1.6c-0.1,2.7,0.2,5.5-0.4,8.2
			c-1.2-0.5-1.1-1.5-1.6-2.1c-1.7-1.9-3.9-2.9-6.3-2.6c-1.7,0.2-2.4,1.8-2.8,3.4c-0.3,1.1,0.2,2.1,0.8,3
			C91,13.5,91.7,13.4,92.3,13.1z"/>
		<path class="st1" d="M115.4,147.8c3.3-2.2,7-4,10.6-5.7c2.7-1.2,4-0.7,5.3,2c1.3,2.7,2,5.6,3.3,8.2c0-3.5-2.1-6.3-3-9.6
			c-0.4-1.6-0.9-3.1,1-4.1c0,0,0,0,0,0c0.7-0.6,1.3-1.2,2-1.8c2.9-3,4.4-6.9,7-10.1c0.7-0.8,1.3-1.7,2-2.5c0.2-1,0.5-2.1,0.5-3.1
			c0-0.9,1.1-2.4-0.6-2.6c-1.3-0.1-1.4,1.6-1.6,2.4c-1.3,6.6-5.6,11.3-9.9,16c-1.1,1.2-2,1.2-2.7-0.7c-0.4-1.2-1.3-2.5-3-2.4
			c-0.4,0.2-0.8,0.3-1.2,0.5c3.1,0.4,1.8,3.5,3.1,5.1c0.7,0.9-1.5,1.5-2.5,2.1c-2.5,1.3-5,2.6-7.5,3.9c-1,0.8-2,1.7-3.3,1.8
			c-2.8,2-5.7,3.9-8,6.6c-0.7,0.8-2.5,1.6-0.5,3C107.9,152.3,111.9,150.2,115.4,147.8z"/>
		<path class="st1" d="M112.2,151c4.3-3.2,9.1-5.3,13.6-7.9c2.6-1.5,3.7-0.9,5.1,1.6c1.4,2.5,1,5.9,3.8,7.7c-1.3-2.6-2-5.5-3.3-8.2
			c-1.3-2.7-2.6-3.3-5.3-2c-3.7,1.7-7.3,3.5-10.6,5.7c-3.5,2.3-7.5,4.4-9.1,8.8C108.4,154.9,109.9,152.7,112.2,151z"/>
		<path class="st1" d="M91.2,154.3c0.7,1,1.3,2.1,2.1,3c2,2.1,4.4,3.8,6.1,6.1c3.1,4.4,6.2,8.8,10.4,12.4c6.2,5.4,13.2,9.5,21,11.8
			c4,1.2,8,2,10.3,5.9c0.4,0.7,0.7,1,1.4,0.5c0.7-0.5-0.1-0.9-0.2-1.3c-1.9-5-6.4-6.2-10.8-7.1c-5.6-1.1-10.3-3.7-14.8-7
			c-1.1-0.3-1.9-1-2.6-1.9c-9.1-6.4-14-16.7-22.3-23.9c-0.2,0.2-0.4,0.4-0.5,0.6C91.2,153.8,91.2,154,91.2,154.3z"/>
		<path class="st1" d="M180.7,122.5c0,0.4-0.1,0.8-0.1,1.1c1.4,7,2.6,14.2,1.8,21.3c-0.8,7.2-2.4,14.5-6.5,20.7
			c-3,4.5-4.8,9.6-7.1,14.4c-0.4,0.9-0.7,2.1,0.7,3.2c1-5.1,3.6-9.5,6.2-13.5c3.5-5.5,6-11.1,7.2-17.4c1-5.2,1.6-10.3,1.1-15.6
			c-0.4-4.8-2.2-9.4-2.2-14.3C181.4,122.6,181,122.7,180.7,122.5z"/>
		<path class="st1" d="M180.7,122.5c0.3,0.2,0.7,0.1,1.1-0.1c-0.3,0-0.7,0-1,0C180.7,122.4,180.7,122.4,180.7,122.5z"/>
		<path class="st1" d="M46.8,10.7C50.2,8,50.2,8,52.5,12c0.3,0.5,0.5,1.2,1,1.6c1.1,1,1.6,3.8,3.4,2.8c2-1.1-0.7-2.3-1-3.6
			c-0.3-1.2-0.8-2.6,0.1-3.2c1-0.7,2.3-0.1,3.2,1.2c1.5,2.1,3.9,2.2,6.6,2.6c-1.7-2.3-4.4-2.8-5.8-4.8c-1.4-2.1-3.4-2-5.3-0.9
			c-0.8,0.4-1.4,0.9-2.3,0.5c0.1-2.5,3.5-2.3,3.8-4.7c-1.9-0.5-3.3,0.5-4.9,1.1c-2.3,0.8-1.3-3.2-4.2-3c2.2,3.5,0.6,6-2.2,8
			c-0.5,0.4-0.7,1.2-0.2,1.7C45.3,11.6,46,11.4,46.8,10.7z"/>
		<path class="st1" d="M124.7,123.4c-4.8-0.4-9.4-2.1-9.1-6.3c0.3-3.9,3.1-7.5,6.6-7.5c6.2,0,9.3,2.7,9.3,8.1
			C131.5,121,128.6,123.8,124.7,123.4z M123.7,121.7c3.2,0,5.8-2,5.9-4.6c0.1-3.7-1.7-5.4-5.6-5.5c-3.2-0.1-6,2.5-6.1,5.5
			C117.8,118.9,121.4,121.7,123.7,121.7z"/>
		<path class="st1" d="M126.3,133.8c1.7-1.8,3.4-3.6,5.1-5.4c3-3.2,4.4-10.8,2.6-14c-1.9,1,0,3.1-1.2,4.2c0,0,0,0,0,0
			c0.6,2.9-2.3,4.3-2.7,6.8c-0.3,1.2-0.6,2.5-1.7,3.4c-5.7,6.8-12.9,9.4-22.1,6.2c0.8,1.4,1.1,1.7,1.6,1.8
			c6.2,2.2,12.1,2.1,17.3-2.6c0,0,0,0,0,0s0,0,0,0C125.2,133.5,125.7,133.4,126.3,133.8z"/>
		<path class="st1" d="M125.1,134.3C125.1,134.3,125.1,134.3,125.1,134.3c0.4-0.2,0.8-0.3,1.2-0.5
			C125.7,133.4,125.2,133.5,125.1,134.3z"/>
		<path class="st1" d="M9,50.7c0.2-4,3.6-7.5,7-7.4c4.6,0.1,7.5,3.1,7.4,7.6c-0.1,3-3.8,6.3-7.2,6.3C12.6,57.1,8.8,53.7,9,50.7z
			 M11.5,50.1c0,2.3,2.9,4.7,5.8,4.8c2,0.1,3.7-2.1,3.7-5c0-2.3-2.1-4.9-3.9-5C14,44.9,11.5,47.3,11.5,50.1z"/>
		<path class="st1" d="M70.5,137.8c5.7,4.7,11.5,9.4,17.6,13.6c0.6,1.1,1.5,1.9,2.8,2.1c0,0,0,0,0,0c0.2-0.4,0.4-0.7,0.9-0.5
			c-3-3.4-7.3-5.3-10.1-8.9v0c-0.8-0.7-1.7-1.3-2.5-2v0l0,0c-1.4-0.9-2.9-1.7-3.9-3.1c-0.7-0.6-1.3-1.1-2-1.7
			c-0.8-0.2-1.5-0.7-1.8-1.5c-0.9-0.7-1.7-1.3-2.6-2c-4.5-3-8.9-6-13.4-8.9c-0.2,0.2-0.4,0.4-0.6,0.7
			C59.5,130.4,65.4,133.6,70.5,137.8z"/>
		<path class="st1" d="M90.9,153.5C90.9,153.5,90.9,153.6,90.9,153.5c0.1,0.1,0.2,0.1,0.3,0.1c0.2-0.2,0.4-0.4,0.5-0.6
			C91.3,152.8,91.1,153.1,90.9,153.5z"/>
		<path class="st1" d="M19.3,85.5c-0.1,0.9,0.4,1.1,1.4,0.9c0.9-1.4,3.6,0.8,4-1.4c0.3-1.4-1.5-2.1-2.9-2.2
			C20.1,82.8,19.4,83.9,19.3,85.5z"/>
		<path class="st1" d="M92.4,79c-0.4-1.2-0.8-2.4-1.8-3.3c0.2,0.7-0.1,0.8-0.7,0.7c0.3,1.4,1.1,2.7,1.9,3.9
			C91.5,79.6,91.4,79.1,92.4,79z"/>
		<path class="st1" d="M90.7,75.7c-0.2,0.2-0.5,0.5-0.7,0.7C90.6,76.6,90.9,76.4,90.7,75.7z"/>
		<path class="st1" d="M92.4,79c-1,0.1-0.9,0.6-0.5,1.2C92.1,79.9,92.2,79.4,92.4,79L92.4,79z"/>
		<path class="st1" d="M52.3,124.2C52.3,124.2,52.3,124.2,52.3,124.2L52.3,124.2c0.8,0.5,1.7,0.9,2.5,1.4c-0.2-0.6,0-0.9,0.6-0.7
			c-0.9-0.6-1.7-1.2-2.6-1.8C53.2,123.7,52.8,124,52.3,124.2z"/>
		<path class="st1" d="M52.3,124.2C52.3,124.2,52.3,124.2,52.3,124.2c0.5-0.2,0.9-0.4,0.6-1.1c0,0,0,0,0,0
			C52.7,123.5,52.5,123.8,52.3,124.2z"/>
		<path class="st1" d="M54.9,125.6c0.2-0.2,0.4-0.4,0.6-0.7C54.9,124.7,54.7,125,54.9,125.6z"/>
		<path class="st1" d="M123.6,114.7c-1.2-0.2-1.8,0.8-1.9,1.7c-0.2,1.7,1.2,2,2.5,2.3c1.1,0.2,1.6-0.1,1.5-1.3
			C125.8,115.9,125,114.9,123.6,114.7z"/>
		<path class="st1" d="M15.3,52.6c1.8-0.5,2.9-1.6,3-3.3c0.1-1.5-0.9-2-2.3-1.9c-1.5,0.2-3,0.8-3,2.6C13.1,51.3,13.8,52.4,15.3,52.6
			z"/>
	</g>
</g>
</svg>
