<?xml version="1.0" encoding="utf-8"?>
<!-- Generator: Adobe Illustrator 25.2.3, SVG Export Plug-In . SVG Version: 6.00 Build 0)  -->
<svg version="1.1" id="Capa_1" xmlns="http://www.w3.org/2000/svg" xmlns:xlink="http://www.w3.org/1999/xlink" x="0px" y="0px"
	 viewBox="0 0 893.9 464.2" style="enable-background:new 0 0 893.9 464.2;" xml:space="preserve">
<style type="text/css">
	.st0{fill:url(#);}
	.st1{fill:#FFFFFF;}
	.st2{fill:#BC6562;}
</style>
<g>
	<path class="st1" d="M206.5,215.9c0.6-0.1,1.1-0.3,1.7-0.4C207.6,215.5,207,215.5,206.5,215.9z"/>
	<path class="st1" d="M250.3,433.3c0,0.1-0.1,0.1-0.1,0.2c0.1,0,0.1,0,0.2,0C250.4,433.4,250.3,433.4,250.3,433.3z"/>
	<path class="st1" d="M313.6,430.4c1,0.1,2,0.3,3,0.4C315.6,430.3,314.6,430.4,313.6,430.4z"/>
	<path class="st1" d="M75,59.2c9.6,1.9,19.2,3.9,28.9,5.8c1.6,0.3,3.3,0.6,4.9,0.9c0.8,0.9,1.9,0.5,2.9,0.5c2.5,1.5,5.4,1.7,8.2,2.2
		c0.7,1.1,1.9,0.5,2.8,0.9c8.9,3.7,17.8,2.1,26.6-0.5c2.2-0.7,5.6,0.8,6.5-1.6c0.9-2.3-2.3-3.9-3.5-5.9c-1.5-2.8-2.9-5.9-3.3-8.8
		c-1-6.6-4.8-11.2-9.1-15.7c-2.6-2.7-5-5.6-6.9-8.9c-0.5-0.9-1.6-1.9-0.4-2.8c1-0.8,2,0.1,2.8,0.9c2.7,2.8,5.7,5.3,7.9,8.6
		c0.7,1.1,1.5,2.3,3.1,2.4c1,0.9,2.1,1.8,3.1,2.8c3.5,2.9,7.7,3.9,12,4.7c0.6,1.2,1.9,0.5,2.7,1v0l0,0c1.8,1,3.7,2,5.5,2.9
		c5.6,2.8,5.9,2.6,5.8-3.8c0,0,0,0,0,0c1-3.6,0.8-7.2,0-10.8c1.7-5.6-3.4-8-5.9-11.3c-3.4-4.7-5.6-10-8.2-15.1c0-1.5,0-3.1,0.1-4.6
		c0.4-0.8,1.1-0.7,1.9-0.6c1.7,3,2.2,6.5,4.7,9.1c0.5,1,0.7,2.2,1.9,2.7c7.5,12.4,18.5,21.4,29.5,30.5c0.6,1,1.2,2,1.8,3
		c0,1.2,0.6,2.1,1.7,2.3c1.9,0.2,0.7-1.5,1.3-2.2c1.4-1.7,1-3.6,0.9-5.6c0,0,0,0,0,0c0,0,0,0,0,0c1-2.2,0.7-4.6,0.7-6.9
		c2.6-9-0.4-17.7-1.7-26.5c-0.3-1.8,0.3-3.3,1.4-4.6c0.3-0.3,1.2-0.4,1.7-0.1c1.7,0.9,1.2,2.6,1.2,4.1c0.5,13.7,4.1,26.2,14.6,36.4
		c1.5-3.4,3.3-6.5,4.4-9.9c2.2-6.8,7.4-12.1,9.2-19.2c1-3.8,0.3-7.5,0.7-11.3c0.2-2,0.3-3.7,2.7-4.1c0.6,0.7,1.2,1.3,1.8,2
		c0.1,2.2,0.1,4.3,0.2,6.5c0,2.1,0,4.3,0,6.4c0,0,0,0,0,0c0,0,0,0,0,0c-0.8,9.3-0.8,18.5,4.6,26.8c1.9,2.9,1.9,6.3,1.6,11
		c5.7-5,12.7-4.7,17.7-9.1c1.4,0,2.5-0.4,2.8-1.9c2.1,0,3.4-1.5,3.9-3.1c2.9-8.4,9.3-14.5,13.9-21.8c0.6-0.9,1-1.8,1.5-2.7
		c1.5-0.4,2-1.4,2-2.8c1.6-0.8,2-2.1,2.1-3.7c0.1-1.1,0.7-2,2.1-1.7c1.3,0.3,1.1,1.3,1.1,2.1c0.2,5.5-2.4,10.1-5.9,13.9
		c-8.5,9.4-14.8,19.8-16.2,32.6c-0.3,3-1.8,5.8-2.6,8.6c-0.3,1.2-0.9,3.3,1.6,2.2c8-3.5,16.7-2.8,25-4.1c5.7-0.9,10.8-3.3,15.6-6.6
		c1.4,0,2.5-0.3,2.8-1.9c4.8-3.1,9.5-6.3,13.8-10.1c1.4,0,2.6-0.3,2.8-1.9c2.6-0.9,5.1-1.8,7.7-2.8c2.3-0.8,4.5-1.8,6.9,0.4
		c-6.1,3-12.4,5.4-17.9,9.3c-13.7,9.7-26.7,20-35.9,34.4c-1.6,2.6-1.7,2.9,0.4,3.7c2.8,0,5.5,0,8.3,0c13.5,4.2,27.1,0.9,40.6,0.9
		c1.7,0.1,3.3,0.1,4.9-0.7c2.4-0.1,4.7-0.2,7.1-0.3c1.7,0.1,3.3,0.1,4.9-0.7c2.1,0.4,5.7-0.7,5.7,2c0,2.5-3.5,1.3-5.5,1.3
		c-7.9,0.1-15.6,2.6-23.6,2.3c-1.7-0.1-3.5-0.2-5.1,0.7c-3.2-0.7-5.9,0.7-8.5,2.2c-9.3,5.5-19.2,9.7-28.6,14.2
		c12.6,13.1,29.2,14.8,45.7,16.9c0,0,0,0,0,0c2.7,1.2,5.6,0.6,8.5,0.7c7,1.1,7,1.1,9.1,2.9c-0.6,1.4-1.8,0.9-2.7,0.8
		c-8.9-0.9-17.9,0.6-26.7-2.3c-3.2-1.1-7.6,1.1-11.4,2c-2.3,0.5-4.6,1.2-6.9,1.8c0,1.9,1.3,2,2.7,2.5c14.9,5.7,30,10.1,45.9,11.8
		c1.2,0.1,2.6,0.1,2.6,1.6c0,0.3-1.3,0.7-1.9,1c0,0,0,0,0,0c-2.2-0.9-4.5-0.8-6.9-0.7c-11-0.9-21.6-4.2-32.7-4.4
		c-9.3-0.1-18.6-0.9-28.2-0.9c8.4,6.1,12.8,16.4,23.5,20.1c15.4,5.2,30.9,9.6,46.8,12.7c1.4,0.3,2.8,0.3,3.7,2.1
		c-3.3,1.3-6.4,0.7-9.6,0.1c-17.6-3.3-34.9-7.7-52.8-9.3c-2.1-0.2-4.5-0.5-6.4,0.2c-7.7,2.7-15.1,0.7-22.6-0.8
		c-4.3-0.9-8-3-11.3-5.9c-0.9-0.8-1.8-1.7-2.7-2.5c-4.9-4.2-11-5.7-14.7-3.5c-5.6,3.3-8.6,10.2-6.1,16.8c3.5,9,6.1,18.8,15.2,24.4
		c1.1,0.7,2.5,1.6,1.1,3.3c-1.8,2.1-4.1,1.5-5.7,0.2c-2.1-1.8-3.8-4.3-5.6-6.5c-5.2-6.6-7.1-14.5-9.3-22.3c0-1.8,0-3.7,0-5.5
		c1.8-10.3,7.4-16.2,18.1-17c7.3-0.6,11.2-5,14.4-10.1c6.8-10.7,9-23,10.2-35.4c1.1-11-5.2-18.5-12.9-24.5
		c-6.3-4.9-12.2-10.5-19.9-13.7c-3.3-1.4-6.5-2.5-9.8-2.6c-13.6-0.4-27.3-0.8-40.3,4.9C182,72,171.5,79.6,168.6,93
		c-3,13.4-4.2,27.2,4.6,39.6c3.1,4.4,8.2,6.8,11.4,11.2c0.7,1,2.1,1.7,1.7,3c-0.5,1.6-2.1,0.8-3.2,0.8c-10-0.6-16.6,5.3-22.9,11.8
		c-0.4,0.4-0.8,1-1.2,1.4c-1.3,1.1-4.1,1.7-2.8,3.9c1,1.7,3.3,0.1,5.1,0.1c8.1-0.1,15.7-1.8,22.4-6.7c1.1-0.8,2.3-1.5,3.2-2.5
		c5.8-6.2,14.4-5.1,18.4,2.4c3.2,6,6.5,12.1,6.7,19.1c0.2,6.7-0.9,13.4-1.9,20c-0.9,6.1-1.5,12.1,1.2,17.9v0c-1,0.2-2,0.5-2.9,0.7
		c-0.6,0-1.2,0-1.7,0.4c-3.1,0.3-4,3-5.2,5.1c-1.3,2.2-2.4,4.5-3.8,7.2c4.5-0.9,7.7-3.3,11.2-5.3c1.1-0.6,2.9-2.3,4-0.3
		c0.8,1.5-1.1,2.1-2.2,2.8c-3,1.8-6,3.6-9,5.2c-1.9,1-2.8,2.6-4,4.2c1.7,1.4,3.1,0,4.1-0.7c1.5-1,2.4-0.3,3,0.6
		c0.7,1-0.5,1.6-1.3,2.1c-3.9,2.2-6.2,5.8-7.6,9.8c-1.3,3.5-3.6,5.9-6.6,7.9c-1,0.7-2.8,1.2-2.2,2.8c0.6,1.4,2.1,1.8,3.8,2
		c5,0.5,8.5-2.2,12-4.9c1.5-1.1,3.1-2.2,4.4-1c1.4,1.3-0.4,2.8-1.2,3.9c-4.1,5.9-14,8.1-20.7,4.8c-2.6-1.3-3.8-3.5-4.1-6
		c-0.2-2.3,2-2.7,3.8-3.6c2.9-1.5,5.6-3.5,7.2-6.5c0.4-0.7,1.7-1.2,0.6-2.2c-0.7-0.6-1.3-0.2-2,0.4c-5.5,4.8-11.9,8.5-16,14.9
		c-2.5,3.8-7.3,4.9-11.6,2.8c-3-1.4-6-3.1-9-4.6c-0.3-1.5-1.9-1-2.7-1.8c-2.7-2.2-5.3-4.7-8.2-6.6c-5.9-3.9-8.7-9.9-12-15.7
		c-2.7-4.9-4.9-10.2-9.4-13.9c-0.9-0.6-1.9-1.2-2.8-1.8c-0.6-3.2-3.6-4.4-5.6-6.4c-0.3-1.5-1.9-1-2.7-1.8
		c-5.6-5.3-11.9-9.9-18.5-13.9c-0.3-1.5-1.3-1.9-2.7-1.8c-3.1-4.5-8.7-4.9-12.9-7.6c-5.8-3.7-11.8-7.2-18.6-9.1
		c-0.3-2.2-2.6-1.6-3.7-2.6c-3.4-2.8-6.9-5.3-11-6.9c-2.9-1.1-5.2-3.2-7.4-5.4c-0.6-1.1-1.3-1.9-2.7-1.6c-4.5-5.1-9.3-9.9-14.8-13.8
		c-1.1-2-2.7-3.5-4.7-4.7c-2-3-3.2-6.7-7.8-8.2c1.5,8.2,1.3,16.4,7.7,22.4c0.9,1.2,1.9,2.4,2.8,3.6c-0.2,1.5,0.8,2.3,1.7,3
		c6.6,4.7,11.3,11.7,18.7,15.5c1.2,0.6,3.5,1.2,2.4,3c-0.5,0.9-2.7,0.8-4-0.3c-0.5-0.5-1.2-0.7-1.9-1.1c-1.7-1.5-3.6-2.8-5.9-3.4
		c-7.7-4.2-12.6-11.6-19.3-17c-0.7-0.8-0.4-2.3-1.8-2.6c-1.7-4-4.1-8.3-4.7-12.1c-1.2-6.9-3-14.1-0.9-21.4c0.6-2.2,2-1.7,3.1-1.2
		c2.2,1,4,2.4,5.4,4.7c9.7,15.1,22,27.8,36.8,37.7c11.4,7.6,23.9,13.5,36.3,19.3c10.9,5.2,20.1,13,29.3,20.7c2.9,2.4,6,4.7,8.9,7.1
		c6.4,5.2,10.5,12,13.9,19.4c5.8,12.7,16.9,19.9,28.4,26.5c4.3,2.5,7.7,1.1,10-3.2c1.7-3.2,4.6-5.4,7.6-6.9c5.8-2.9,9-8.2,13.2-12.6
		c1.5-1.6,0-2.2-0.9-2.5c-4.6-1-2.7-3.1-0.8-5c2.7-2.7,5.5-5.3,9.2-8.9c-3.7,0-6.2-0.1-8.7,0c-1.1,0-1.8-0.4-2.3-1.2
		c-0.6-1.1,0.4-1.8,1.1-2.3c8.6-5.7,11.2-15.3,15.4-23.9c1.6-4.6,0.2-9.4,0.7-14.1c0.4-7.5-3.9-13.4-7.6-19.2
		c-2.2-3.4-8.2-3.1-11.3-0.1c-4.6,4.5-10.1,7.8-16,10.2c-1.7,0-3.5-0.2-5.1,0.7c-2.3,0.1-4.6,0.2-6.9,0.2c-1.8,0-3.7,0-5.5,0
		c-9-0.1-17.8,1.1-26.1,4.9c-1.1,0.5-2.9,2.3-3.9,0.3c-1-2.2,0.9-2.9,2.8-3.5c3.4-1,6.6-2.7,10-3.4c9.3-2,15.8-8.4,22.5-14.4
		c1.2-1,3.2-1.2,3.8-3.7c-6.6,0.8-12.8,2.5-19.3,2.3c-2.6-0.1-5.2-0.3-7.6,0.7c-7.2-0.5-12.6,4.5-19,6.5c-1.1,0.3-2.2,1.1-3.3,1.6
		c-1.6,0.7-3.6,2.4-4.6,0c-0.4-0.9,0.6-3.3,2.8-4.4c8.3-4,16.2-8.8,25.1-11.3c4.4-1.3,8.1-3.9,12-6.7c-8.9,0.7-17.6,2.7-26.6,2.6
		c-1.7-0.1-3.5-0.2-5.1,0.7c-6.3,0-12.7-0.7-18.9,1.2c-2-0.1-4-0.2-5.9,0.7c-2.8-0.5-5.2,1.2-7.9,1.2c0,0,0,0,0,0c0,0,0,0,0,0
		c-1.5,0-3.1,0-4.6,0c-3.1-2.7-0.3-3.4,1.5-3.7c15.8-2.5,31.1-7,46.3-11.9c5-1.6,8.5-5.1,12.5-7.8c2.3-1.6,6.8-1.8,6.5-4.8
		c-0.2-2.4-4.3-0.4-6.7-1.4c-5.9-2.5-11.6-5.4-17.1-8.6c-7.9-4.5-16.6-4.8-25.1-6.4c-7-1.3-14-2.8-21.2-2.7c0,0,0,0,0,0c0,0,0,0,0,0
		c-1.9-1-4-0.5-6-0.7c-1.2-0.7-1.9-1.6-0.9-3c0,0,0,0,0,0c0,0,0,0,0,0c1.5,0,3.1,0,4.6-0.1c0,0,0,0,0,0c0,0,0,0,0,0
		c9.4,1.5,18.7,3.5,28.3,3c0,0,0,0,0,0c1.9,0.8,3.9,0.8,5.8,0.7c3.6,0.1,7.1,0.2,10.7,0.2c0,0,0,0,0,0c1.8,0.7,3.7,0.8,5.5,0
		c4.3,0.5,8.4-0.7,12.5-1.7c3.4-0.8,6.9-1.3,10.5-1.1c0.1-1.4-0.7-1.7-1.8-2c-7.9-2.6-13.8-8.3-19.9-13.5c-3.1-2.6-6.5-4.4-10.1-6
		c-6.6-2.9-13.7-4-20.6-5.5c-7.5-1.7-14.8-4.4-22.7-4.6c-1.4,0-2.6-1.4-2.4-2.2C71.8,58.9,73.6,59,75,59.2z M205.1,202.3
		c-2.5,3.9-4.6,7.9-6,12.5C205.7,214,206.3,212.7,205.1,202.3z M274.5,139.2c-3.1-0.9-4.6-0.6-5.9,1.9c-1.4,2.8-3.3,5.1-5.8,7
		c-4.6,3.3-4.5,3.3-0.6,6.8c0.8,0.7,1.5,1.6,2.3,2.3c3.9,3.2,8,5.7,13.2,6.8c5.9,1.3,11.5,1,17.2,0.5c6.4-0.6,12.8,1,19.3,1.3
		c-4.6-1.8-9.2-3.4-12.5-7.1C294.3,149.8,285.9,142.6,274.5,139.2z M279,126.5c-2.1-0.6-3.6,0.1-4.4,2.7c-1.3,4.4-0.6,5.9,4.6,7.4
		c11.7,3.3,23.7,0.9,35.5,1.8C303.5,132.1,291.1,129.8,279,126.5z M290.6,112.4c-2.6-1.3-5.4-2-8.4-1c-4.2,1.5-4.2,5.4-4.6,8.7
		c-0.4,3,2.9,2.7,4.7,3.2c4.1,1.2,8.3,1.9,12.4,3.1c7,2.1,13.9,1.8,20.9-0.9C306.1,123.2,298.9,116.6,290.6,112.4z M287.5,89.2
		c-2.9,0.4-6.5,0.9-6.9,4.2c-0.5,4.3-1.6,8.7-0.4,13.1c0.4,1.4,0.7,1.9,2,1.5c11.9-3.7,23.2-8.9,35.5-15.4
		C306.8,90.5,297.3,87.8,287.5,89.2z M269.3,71c-3,2-3.5,3.8-0.7,6.5c2.5,2.5,5.8,4.1,7.8,7.1c2.5,3.7,5.2,4.3,8.4,1.2
		c6.3-6,11-13.3,16.7-21c-8.8,1-16.6,1.8-24.3,2.8C274.3,67.9,271.7,69.4,269.3,71z M247.2,62.9c4.9,2.1,9.7,4.4,13.8,8.1
		c1.6,1.4,2.5,0.9,3.6-0.7c3.8-6,2.4-13.5,5.8-19.5c-0.2-2.8-1.9-2.1-3.3-1.6c-5.4,2.2-10.7,4.4-16,6.8c-1.8,0.8-3.2,2.3-4.4,3.9
		C245.5,61.3,245.3,62.1,247.2,62.9z M226.8,58c3.9-1.3,7.5-0.1,11.2,1c2.6,0.8,4.5,0.4,5.1-3.2c0.9-5.6,0.7-10.9-1.7-16.1
		c-1.7-3.8-4.3-7.3-4.9-11.9c-5.3,9-10.6,17.7-11.8,28.3C224.5,57.8,225.3,58.5,226.8,58z M208.5,59.2c2-0.1,3.9-0.7,5.9-0.7
		c4.6-0.1,6-2.9,6.1-6.9c0.1-6.3-5.1-9.5-8.2-13.8c-0.5-0.7-1-1.8-2.1-1.2c-1,0.5-0.7,1.6-0.7,2.5c0.6,5.8-0.7,11.1-3.9,16.1
		C203.3,58.5,204.2,59.4,208.5,59.2z M157.7,112.9c5,0.5,5.5,0.5,5.6-4.6c0-0.9,0-1.8,0-2.8c0.4-8.4,0.4-8.2-7.9-8.1
		c-8.5,0.1-16.8,0.9-25,3.1c-1.2,0.3-3.3-0.7-3.6,0.9c-0.4,1.8,1.9,2.1,3.1,2.8C138.6,108.9,147.7,112,157.7,112.9z M167.7,136.4
		c-10.2-0.5-16.1,6.9-23.6,11.6c11.1-0.5,21.8-3.6,32.9-3.3c1.2,0,1.5-1.2,0.8-2C174.9,139.9,172.7,136.6,167.7,136.4z M163.4,118.4
		c-0.1-1.8-1.6-1.5-2.8-1.3c-5.1,0.6-9.9,2-13.7,5.7c-5.1,4.9-11.1,8-17.7,10.3c-3.4,1.1-6.7,2.5-10.4,4c0.8,0.5,1.1,0.8,1.3,0.8
		c15.5-0.5,30.5-6.3,46.2-4.8c1.9,0.2,2-1.2,1.4-2.5C165.8,126.6,163.7,122.8,163.4,118.4z M179,45.6c-0.6,6.7,2,12.7,3.8,18.9
		c0.9,3.2,2.1,3.5,4.7,1.3c1.6-1.3,3.7-2.3,5.7-2.8c7.9-2,7.3-6.2,4.7-12.2c-3.1-7.1-9.9-10.7-15.3-15.6c-1.6-1.4-2.5-0.4-2.7,1.4
		C179.6,39.6,178.6,42.6,179,45.6z M167,67.8c3.4,0.4,6.6,1.1,9.3,3.4c1,0.9,2.2,1.2,3.4,0.6c1.8-1,0.6-2.4,0.3-3.6
		c-2.6-10.5-15.3-21.1-26.7-21.9c-0.8,0-1.2,0.7-0.9,2.1c0.3,1.3,0.5,2.7,0.8,4.1C155.1,61,160.3,66.9,167,67.8z M130.5,75.2
		c8.4,9.7,18.9,15.6,30.9,18.9c2.5,0.7,3.7-0.4,4.2-2.8c1.1-5.2,3.7-9.6,7.5-13.5c2.7-2.7,1.9-5-1.9-5.7c-2.7-0.5-5.5-0.5-8.3-0.5
		C152,71.7,141.7,77.2,130.5,75.2z"/>
	<path class="st1" d="M890.5,76.4c-3,1-5,3.1-6.6,5.4c-5.9,8.4-14.5,6.8-20.2,1.8c-7.7-6.7-11.8-5.5-14,4.4
		c-1.7,7.9-1.9,15.9,0.5,23.8c0.6,1.1-0.1,2.7,1.1,3.6c2,5.2,4,10.4,6,15.6c0.4,1.3,0.9,2.5,1.3,3.8c1.1,7,2.6,14,5.8,20.4
		c0.2,0.9-0.3,2,0.8,2.6c2.6,8.7,2.8,17.9,4.9,26.7c0,1.2,0,2.5,0.1,3.7c2,8.4-0.5,16.5-1.4,24.7c-0.7,6.6-2.1,13-3.2,19.6
		c0,1.2-0.1,2.5-0.1,3.7c-1.7,7.5-3.8,14.9-5.1,22.5c-3.1,17.4-12.9,30.4-27.6,39.8c-9.6,6.1-20,10.4-30.7,14.3
		c-9.8,3.6-19.9,4.4-30,5.4c-1.2,0.1-2.5,0.1-3.4,1.1c-1.5,0-3.1,0-4.6,0.1c-0.9,0-1.8,0-2.8,0c-0.9,0-1.9,0-2.8,0
		c-1.5,0-3.1,0-4.6,0c-11.7-1.1-22.7-5.2-34.2-7.6c-1-1-2.3-1.2-3.6-1c-5.1-3.6-11.1-5.6-16.4-9.1c-6.5-4.3-11.4-10.3-17.8-14.5
		c-5.6-3.7-10.3-8.3-14.7-13.6c-5.1-6.2-12.7-9.8-19.9-13.1c-12.5-5.8-25.9-8.3-39.7-7.8c-17.4,0.7-32.9,5.6-44.2,20
		c-3.2,4.1-8,6.7-10.6,11.3c-1.2,1.4-2.6,2.7-2.9,4.7c-5.1,11.1-7.1,23.1-10,34.8c-1.1,4.4-2.1,8.7-3.2,13.1
		c-0.2,1.2-0.5,2.5-0.7,3.7c-1.3,6.1-2.6,12.3-3.9,18.4c-0.3,1.2-0.5,2.5-0.8,3.7c0,0,0,0,0,0l0,0c-1.2,5.7-2.3,11.5-5.3,16.6
		c-1.1,0.6-1.3,1.8-1.8,2.8c-1.7,1-2.4,2.7-2.8,4.4c-1.5,1.3-2.4,3-2.8,4.9c-6.7,12.8-18.2,20.4-30,27.4
		c-13.7,8.1-27.6,16.1-42.3,22.6c-4.7,2.1-9.6,2.8-14.4,4c-1.1,0.6-2.7-0.1-3.6,1.1c-2.4,0.8-4.9,1.5-7.3,2.3c0,0,0,0,0,0
		c-1.3,0.5-2.5,1-3.8,1.5c-14.8,6.1-30.3,8.6-46,10.5c-0.9,0-1.9,0-2.8,0.1c-1.7-0.1-3.3-0.1-4.8,0.7c0,0,0,0,0,0
		c-0.8,0.1-1.7,0.1-2.5,0.2c-1.2,0-2.5,0-3.7,0.1c-3.7,0.9-7.6,0.7-11.2,2.2c-1.8,0.2-3.6,0.4-5.4,0.5c-0.5-0.1-1.1-0.1-1.6-0.2
		c0,0,0,0,0,0c-1.5-0.8-3.1-0.9-4.8-0.7c-4.4-0.1-8.7-0.6-13.1,0.5c-4.2,1-8.3-0.8-12.5-0.7c-2-1-4-1.4-6-0.1
		c-0.5,0.1-1,0.2-1.5,0.3c-1.8,0-3.7,0-5.5,0c0,0,0,0,0,0c0,0,0,0,0,0c-6.9-0.6-14,0.5-20.9-1.3c-6.2-1.6-12.4-3.4-18.5-5.5
		c-3.4-1.2-7.1-1.5-10.3-3.5c-1.2-0.8-2.3-1.6-3-2.7c-0.5-0.9-0.9-2.3-0.6-3c0.5-1.2,1.8-0.2,2.8-0.1c7.3,1.1,13.6,5.6,20.9,6.5
		c2.3,3.4,6.2,2.1,9.4,2.9c13.6,3.1,27.4,1.7,41.1,2c0,0,0,0,0,0c1.7,0.9,3.5,0.8,5.2,0c8.2-0.1,16.4-0.2,24.6-0.3
		c1.7,0.1,3.4,0.2,5-0.7c4.7,0.7,8.9-2.2,13.5-2.1c4.1-0.4,8.3,0.3,12.4-0.7c7.9-1,16-1.8,23.6-4.6c1.3,0.1,2.6,0,3.7-1
		c8.7-1.8,16.7-5.8,25.4-7.7c12.6-2.7,23.8-8.8,35.3-14.4c14.1-6.9,27.1-15.4,39.8-24.4c6.8-4.8,9.6-13.1,14.1-20
		c6.1-9.5,7.8-20.4,10-31c3.5-16.6,7.4-33.2,10.8-49.8c3-14.7,11.3-25.3,22.7-34.3c4.2-3.3,7.6-7.6,12.3-10.5
		c8.4-5.2,17.2-8.5,27-9.2c1.8,0.1,3.5,0.1,5.1-0.7c10.7-0.5,21.2,0.9,31.5,3.6c7.2,1.9,13.7,5.4,20,9.2c0.8,0.5,1.4,1.2,2.4,1.1
		c1.3,1.3,2.9,2.2,4.6,2.9c11.6,11,21.8,23.5,35.6,32.4c14.9,9.6,30.8,15.1,48.2,17.4c12.9,1.7,25.7,1.2,38.3-1.3
		c6.1-1.2,12.3-2.1,18.2-4.3c3.2-1.2,6.2-2.2,8-5.6c1.6-3,5.4-2.6,8.2-3.8c4.3-1.8,8.3-4.2,12.3-6.5c2.1-1,3.6-2.5,4.9-4.4
		c6.1-4.4,10.5-10.6,13.3-17.3c3.5-8.5,5.5-17.8,7.6-26.9c2.5-10.7,4.5-21.5,5.7-32.5c1.1-1.4,0.9-3,0.8-4.6
		c1.1-5.8,1.3-11.7,0.8-17.5c0.1-1.6,0.5-3.2-0.5-4.7c-3.3-26.7-12.7-51.8-21.4-76.3c-1.3,6.5,1.4,13.3,3.1,20.2
		c2.3,9.6,6.8,18.6,8.3,28.5c0.4,3,0.8,5.9,0.6,8.9c-0.4,5.7,0.1,11.3,1,16.9c0,2.5,0,4.9,0,7.4c-0.1,3.1-1.5,6-1.1,9.2
		c-1.1,1.4-0.9,3-0.8,4.6c-1.8,6.7-2.8,13.5-3.7,20.3c-1.2,1.3-0.8,3-1.2,4.5c-0.8,3.1-1.6,6.2-2.4,9.3c-0.6,1.8-1.2,3.7-1.8,5.5
		c-5.5,11.3-11.5,22.3-19.6,32c-1.8,1.7-3.6,3.3-5.4,5c-7,7-17,5.7-25.2,9.2c-8.3,3.6-16.2-0.1-24.2-0.1c0,0,0,0,0,0
		c-2.6-0.8-5.2-1.7-7.8-2.5c-9.1-3.7-18.9-5.8-26.7-12.3c-1.2-1.4-2.9-2.1-4.7-2.4c-1.7-1.2-3.7-2-4.9-3.8c-1.4-1.9-3.1-3.4-5.2-4.5
		c-0.7-0.7-1.3-1.3-2-2c-0.9-2.1-2.6-3.5-4.4-4.9c-4.4-3.2-9.1-6.1-12.2-10.8c-0.8-2.2-2.7-3.5-4.4-4.9c-2.2-2.7-5.1-4.2-8.2-5.7
		c-6.3-3-12.4-6.4-18.6-9.6c-1.6,0-2.8-1.8-4.6-1.1c-6.8-4.2-14.1-7.1-21.8-9.1c-2.8-0.7-5.5-1.7-8-2.9c-2.8-1.4-5.5-2.1-8.6-1.7
		c0,0,0,0,0,0c-1.8-0.8-3.5-1-5.3,0c-3.1,0-6.3,0-9.4,0c0,0,0,0,0,0c0,0,0,0,0,0c-2.7-0.8-5.4-1-8.1,0c-6.4,1-12.8,1.4-18.8,4.3
		c-3.8,1.8-7.8,3.2-12.2,3.1c-5.8-0.1-9.9,4.3-15,6c-3.1,1.1-6,2.8-9,4.4c-1.4,0.7-2.9,0.8-3.6-0.6c-0.7-1.5,0.8-1.7,1.9-2.4
		c13.5-7.6,27.5-14.1,42.6-17.3c8.4-1.8,16.8-5.4,25.8-3c3.1,0.8,6.1-1,9.5-0.5c21.1,3,39.7,12.1,58,22.1c6.2,3.4,13,5.8,18.1,11
		c4.2,4.2,8.2,8.6,12.5,12.8c10.8,10.7,22.5,20.3,36.5,26.8c11,5.1,22.4,8.8,34.4,9.3c7.5,0.3,14.7-2.8,21.7-5.6
		c12.2-4.9,19.1-15.3,25.9-25.8c7.3-11.3,10.6-24.2,13.3-36.9c3.8-17.6,6.9-35.6,4.8-53.9c0.1-1.7,0.2-3.4-0.7-4.9
		c-0.1-7.7-3.8-14.3-5.9-21.5c-2.2-7.7-5.1-15.3-5.5-23.4c0-3.7,0-7.4,0-11c0.6-8.2,1.6-16.2,5.9-23.4c0.4-0.6,0.6-1.5,1.1-1.9
		c5.4-3.8,4.2-7.2-0.5-10.5c-4.5-3.2-5.5-8-5.6-13.1c0-4.3,0-8.6,0-12.9c0.4-2.9,1.1-5.9,1.2-8.8c0.1-1.9,0-4.1,1.7-4.6
		c2.2-0.7,1.6,2.4,2.9,3.3c0,1.2,0.1,2.5,0.1,3.7c0.3,3.2,0.6,6.3,0.7,9.5c0.1,1,0.3,2,1.2,2.2c1.2,0.3,1.2-1.2,1.5-1.8
		c2.6-5.4,5.2-10.8,9.4-15.3c1,0.2,2.1-0.4,2.8,0.8c-0.9,2.8-1.8,5.5-2.7,8.3c0,2.4,0,4.7,0,7.8c1.6-1.9,3.7-2.4,3.6-4.9
		c2.4-1.1,3-3.7,4.6-5.6c1.7-0.3,2.3-2.2,3.6-3c2.2,0.8,1.1,2.7,0.7,3.7c-0.8,2-0.9,4-0.8,6c0,0,0,0,0,0c-0.8,1.6-0.8,3.3-0.7,5.1
		c0,0,0,0,0,0c0,0,0,0,0,0c-0.4,3-0.8,6-1.2,9c-0.9,1-1.2,2.2-0.5,3.3c0.8,1.1,1.8,0.4,2.7-0.2c4.9,0.7,6.1-3.2,8.1-6.2
		c1.1-1.7,1.4-5.4,4.1-4.1c2.1,1-0.5,3.6-1,5.5c-1.2,5.2-4,10.2-2.3,15.8c0,0,0,0,0,0s0,0,0,0c1.6,1.3,3.3,1,4.9,0.1
		c0.3,0,0.6,0,0.9-0.1c1.7-0.7,4.1-2,5,0C894.6,74.1,892.4,75.8,890.5,76.4z M851.2,65.4c-0.4-6.9-1.9-13.6-5-19.9
		C846,52.6,845.5,59.8,851.2,65.4z M861.5,64.4c1.6,1,3.1-0.8,4.4-1.7c0.8-0.6,1.7-1.5,1.9-2.5c1.3-5.1,2.7-10.2,2.1-16
		c-5.7,4.3-6.8,10.3-8.1,16.1C861.5,61.6,859.9,63.5,861.5,64.4z M858.8,42.4c-5.7,7.7-6.3,14.9-4,22.6c0.3,0.9-0.1,2.6,1.4,2.5
		c1.6-0.1,1.7-1.7,1.8-2.8C858.6,57.7,859.3,50.7,858.8,42.4z M865.3,73.5c0.8,0,1.5-0.1,2.3-0.2c2.1-0.1,4.3-0.1,6.4-0.4
		c3.8-0.4,5.5-2.9,6.1-6.4c0.2-1.1-0.2-2.9-1.3-2.3c-4.7,2.7-10.3,0.9-15,3.6c-2,1.1-4.2,2.5-3.7,4.5
		C860.6,74.6,863.4,73.6,865.3,73.5z M882.3,77.6c-0.4-1.8-2.3-0.9-3.6-1c-1.7-0.1-3.4,0-5,0c0,0.1,0,0.2,0,0.3
		c-2.4,0-4.9-0.1-7.3,0c-2.2,0.1-2.6,1.1-1.1,2.9c3.5,4.3,9.3,4.7,14.6,0.8C880.9,79.7,882.6,79.1,882.3,77.6z"/>
	<path class="st1" d="M265.6,453.7c0,0,0.1,0.1,0.1,0.1c0,0,0,0,0,0C265.7,453.8,265.6,453.7,265.6,453.7z"/>
	<polygon class="st1" points="265.6,453.7 265.6,453.7 265.6,453.7 	"/>
	<path class="st1" d="M227.4,408c3.3-0.4,6,1.6,9.1,2.1c1.2,0.2,2.4,0.7,3.6,0.4c5.1-1.1,5.9-2.8,3.7-7.8c-2.1-4.5-4.3-8.8-7.8-12.4
		c-1.1-1.1-2.5-2.5,0-3.9c1.2-0.7,0.2-1.3-0.3-2.1c-1.8-2.8-3.6-5.5-4.1-8.9c0-2.1,0-4.3,0-6.4c0.1-4.8,3.9-7.9,5.9-11.7
		c3.2-6,3.3-5.9-3.5-7.3c0.7-2.4,2.7-3,4.6-2.8c5.2,0.6,10.7,0.6,15.4,3.6c6.1,3.9,12.9,4.3,19.7,4.6c0.8,0,1.9,0.6,2.4-0.6
		c0.4-1.1-0.6-1.7-1.2-2.3c-5.1-4.3-9.8-9-16.3-11.3c-1.5-0.5-4-0.7-3.6-3.2c0.3-2,2.3-0.5,3.4-1c0.4-0.2,1.1-0.4,1.1-0.6
		c0.1-4.7,2.9-1.9,4-1.1c5.9,4.5,13,5.6,19.8,7.8c0.8,0.3,1.8,0,2.6,0c-3.7-6.2-8-11.7-12.2-17.3c-3.5-4.8-6.5-6.7-11.9-5.9
		c-1.5,0.2-2.9-0.7-2.8-2.1c0-1.6,1.7-1.3,2.9-1.3c1.2,0,2.4,0,3.7-0.1c0,0,0.1,0,0.1,0c2.5,0.8,5.1,0.8,7.6,0.6c2,0.1,4,0.2,6,0.2
		c0.8,0,2,0.4,2.2-0.9c0.3-1.4-1.2-1.1-1.8-1.5c-1.9-1.3-4.7-0.9-6.4-2.8c-0.7-0.7-2.1-1.2-1.4-2.5c0.6-1.1,1.9-1,2.8-0.3
		c4.3,3,9.2,4.3,14.1,5.7c0.7,0.2,2.2,0.1,1.8,1.5c-0.2,0.6-1.1,1.2-1.7,1.3c-3.5,0.8-7.1,1.4-10.6,2c-1,0.2-2.4-0.3-2.4,1.4
		c0,1.5,1.3,2.5,2.4,3.2c1.1,0.7,1.4-0.3,1.7-1.2c0.8-2.3,1.6-0.5,2.5,0c8.3,4.4,16.4,10.2,26.3,9.6c5.3-0.3,10.8,0.2,16-1.8
		c-0.2-1.7-1.7-1.7-2.6-2.3c-5.2-3.5-10.9-6.1-15.6-10.8c-3.7-3.6-9.8-4.3-15.1-5.4c-3.9-0.8-7.8-1.6-11.7-2.7
		c-1.7-0.5-3.3-1.4-4.2-3.5c5.6-0.3,10.4,3.5,15.9,2.7c0,0,0,0,0,0c1.8,0.7,3.6,0.8,5.5,0c3,0.3,6,0.4,9.1-1.5
		c-8.1-3.7-17-5.6-22.3-13.4c1.7-1.5,3.2-0.8,4.3,0.2c6.5,5.5,14.7,7.7,22.2,11.1c1.2,0.5,3.2,0.7,3.1,2.2c-0.1,1.5-1.9,1.8-3.3,2.5
		c-1.7,0.9-4.2-0.2-5.4,2.4c5.1,2.3,9.3,5.9,13.7,9.3c2.2,1.6,4.8,3.2,7.8,1.2c0.8-0.5,2.2-0.4,3.2-0.1c8,2.4,15.7-0.6,23.6-1.1
		c2.3-0.2,5-0.4,6-3.3c-8.7-2.3-18-2.3-26.4-5.8c-2.7-1.1-5.5-1.9-8.1-3.2c-1-0.5-2.6-1.4-2.1-3.1c0.6-1.9,2.5-1.3,3.5-0.9
		c13.7,5.5,27.3,3.7,41,0c5.9-1.6,12-2.7,18.4-4.1c-5.3-2.9-11.6-1.2-16-5.4c-1.2-1.1-2.5-2.2-3.8-3.3c-1.5-1.3-2.8-3.1-1.2-4.6
		c1.2-1.1,3.5-0.7,4.9,1c3.4,3.8,6.8,7.6,12.6,7c0,0,0,0,0,0c2.2,0.8,4.5,0.6,6.8,0.6c2.8,0.5,5.8-0.3,8.9,2.3
		c-16.3,9.7-34.3,10.5-52.3,13c5,2.2,10.1,2.7,15.1,3.3c2.1,0.2,5.2,0.2,5.7,1.8c0.7,2.1-2.3,3.2-3.9,4.4c-5.6,4-12.3,3.7-18.6,4.6
		c-5.7,0.8-11.5,0.5-17.3-0.4c2.6,2,5.3,3.7,8.8,3.5c1.4,1.2,3.2,0.4,4.8,1c0.7,3.4-2.6,3.1-3.8,3.1c-8,0.2-15.8,2.6-23.8,3.1
		c-9.1,0.6-17.2-2-25-6.4c-1.3-0.7-2.3-2.9-4.4-1.5c2.7,6.7,6.3,12.5,13.2,15.8c3,1.5,5.2,4,7,7.2c-4.2,1.8-6.6-1.6-9.5-2.9
		c-3.5-1.5-7-2.2-10.8-2.2c-3.5,0-6.5-2.1-10.7-3.2c4.4,6.5,9.8,9.9,16.2,11.8c2.3,0.7,5.8,1.4,5.1,4c-0.6,2-4,0.9-6.5,0.6
		c-8.5-1-17.2-1.2-25.7-2.8c-4.8-0.9-8.9-3.3-13.2-5.1c-2.2-0.9-3.1-0.4-3.7,1.5c-1.1,3.7-3.3,6.8-5.4,10c-2.4,3.6-3.1,7.5-2.4,11.8
		c0.8,4.9,3.2,6.2,7.7,4.3c0.3-0.1,0.5-0.2,0.8-0.3c2.6-1,5.6-2.1,7.6,0.3c2.2,2.6-0.4,4.5-1.9,6.7c-0.9,1.3-3.8,2.3-2.2,4.2
		c1.6,1.9,4.1,1.4,6.2,0c1.5-1,2.9-2.1,4.6-2.7c1.1-0.4,2.4-1.4,3.8-0.1c1.3,1.2,0.7,2.4,0.4,3.7c-0.4,1.7-2.9,3.4-0.6,5.1
		c2.3,1.7,4.7,0.4,6.8-0.9c2.9-1.8,5.6-4.6,8.9-0.7c0,1.5,0,3-0.1,4.6c0.3,3.7,2.3,5,6,4.2c3.2-0.6,5.1-2.9,7.3-4.9
		c1.2-1.1,1.9-2.2,3.8-1.3c1.9,0.9,2,2.4,2.2,4.1c0.2,2-2.7,4.7,0.1,5.7c3.1,1.1,6.8,1.3,10.2-0.2c2.2-1,3.8-2.3,4.6-4.6
		c0.9-2.8,3.2-3.6,5.8-2.8c2.8,0.8,3.5,3.3,3.2,5.9c-0.8,6-1.8,6.5-7.9,6.8c-10.8,0.6-20.6-4.1-31.1-5.1
		c-13.3-1.3-23.8-9.1-35.7-13.8c-0.7-0.3-1.3-0.8-3.1-0.2c3.5,4.2,3.1,10.7,9.6,12.7c0.6,0.8,2,1,1.7,2.5c-3.2,2.6-7.8,2.4-10.9,5.1
		c-2.1,0-4.3,0-6.4,0c-2-0.4-4.1-0.6-6.1-1.2C229,411.7,226.6,411.1,227.4,408z M312.2,409.9c3-0.9,3.9-2.3,4.4-4.8
		C314.3,405.9,313.4,407.3,312.2,409.9z M270.2,400.2c1.7,0.8,3.1,1.1,4.2-0.5c0.5-0.7,0-1.3-0.4-1.5
		C272.3,397.5,271.2,398.3,270.2,400.2z M244.4,386.8c2.2-0.8,3.6-2.4,5.2-4.7c-3-0.9-4.8,0.5-6.8,1.1c-0.7,0.2-2.4,0.6-1.7,2.1
		C241.7,386.8,242.8,387.4,244.4,386.8z"/>
	<path class="st1" d="M257,260.2c5.4-2.1,10.1-4.8,12.7-10.3c2.7-5.8,7.4-10,11.4-14.7c8.2-9.5,20.4-11.1,31.4-13.4
		c16.5-3.4,33.5-5.2,50.6-4.1c2.8-1,5.7-0.8,8.6-0.7c6.7,0,13.3-1,19.9-2.1c2.2-1,4.5-0.7,6.8-0.6c8-0.1,16,0.5,23.8-0.4
		c19-2.2,37.9-4.8,56.4-10c4.5-1.3,8.9-3.1,14.2-3.6c-3.6,7.1-8.8,11.9-15.5,15c-7.6,3.5-15.2,6.9-23,9.9c-10.4,4-20.8,8.6-32.2,7.3
		c-5.6-0.6-10.9,0.5-16.4,0.3c-1.3,0-2.2,0.4-2.1,1.7c0,1.3,0.9,1.4,2.1,1.5c11.3,1.5,22.5,4.4,34.1,5.4
		c-18.6,6.1-37.6,11-56.7,15.3c10.2,1.1,19.8-1,29.4-3.5c6.4-1.7,12.3-5,19.2-5.1c7-0.1,12.4-4.2,18.1-7.4c0.9-0.5,1.6-1.5,1.1-2.7
		c-0.5-1.2-1.6-0.7-2.4-0.7c-5.4,0-10.7,0-16.1,0c-1.2,0-2.7,0.3-3.3-1.8c1.2-0.1,2.2-0.1,3.2-0.1c1.5-0.8,3.2-0.7,4.9-0.7
		c2.6-0.2,5-0.9,7.4-1.7c9.1-2.8,17.3-7.7,26.5-10.3c13.1-3.7,22.6-11.8,28-24.6c0.4-1,1.3-1.9,0.6-2.9c-0.8-1.2-2.1-1.2-3.3-1
		c-1,0.2-2.1,0.3-3.1,0.6c-21.6,6.7-43.3,12.9-66,14.4c-2.1,0.1-4.3,0.2-6.4,0.4c-22.1,2.1-44.3,3.8-66.5,4.1
		c-13.5,0.2-26.9,1.8-40.2,4c-21.2,3.4-38.8,11.8-48.8,32.2c-1.3,2.8-3.8,4.8-6.7,6c-1.2,0.5-3,1.4-3.7,0.9
		c-1.2-0.8-1.1-2.6-0.9-4.2c0.6-4.7,2-9.5,1.1-14.2c-0.9-4.5,0.5-6.7,4.3-8.8c2.5-1.3,6.3-2.8,5.2-6.7c-1.1-3.9-4.8-2.4-7.5-2.3
		c-3.6,0.1-5.3-2.8-6.5-5.1c-1.3-2.7,2.5-2.6,3.8-4.1c0.2-0.2,0.5-0.3,0.8-0.4c1.4-1,2.9-2,2.3-4.1c-0.6-2.1-2.1-3.4-4.4-3.2
		c-1.6,0.1-3.1,0.1-4.2-1.2c-1.1-1.4-2.6-2.3-3.7-0.8c-1.3,1.8-0.1,3.7,1.7,4.5c1.8,0.8,3.9,1,6,1.5c-2.9,2.4-4.4,3.3-5.5,3.4
		c-4,0.1-4.8,1.2-2.6,4.7c3.3,5.2,7.5,9.5,14.6,9.4c-5.1,6.4-9.8-2.2-14.6,0.2c0.8,3.6,4.9,3.9,6.4,6.7c1.4,6.3,1.2,12.6,0,19
		c0,0,0,0,0,0c-0.3,1.9-0.2,3.9-0.9,5.6c-1.4,3.1-0.3,7.3-3.2,9.4c-2.2,1.6-2.2,3.1-2.4,5.2c-0.2,2.9,1.3,5.5,1.1,8.4
		c-0.1,1.3,1.4,2.9-0.4,3.8c-2.2,1.1-2.6-1.2-3.7-2.3c-1.9-2-2.7-5.1-5.7-6.3c-2.1,7.2,2.9,10.2,7.2,13.6c3.3,2.5,5.5-0.9,8.2-1.7
		c0.3-0.1,0.6-0.1,0.9-0.2c2.3-0.9,2.7-1.9,0.6-3.7C246.3,277.5,248.8,263.3,257,260.2z"/>
	<path class="st1" d="M142.1,335.8c-4.5,0.7-8.5,2.8-12.5,4.6c-1,0.4-2.4,0.7-2.9-0.3c-0.8-1.5,0.9-1.5,1.7-2.1
		c4.1-2.8,7.7-5.9,7.5-11.4c-0.8-3,0.8-3.9,3.4-4c0.6-1.2,2.8,0.2,2.7-1.5c-0.1-1.7-2-0.5-2.8-1.2c-0.4-0.4-1.1-0.5-1.6-0.7
		c-1.9,0.3-3.7,0.1-5.3-1.3c0.6-1.6,2.2-1.7,3.5-2.2c2.4-1.7,4.8-1,7.1,0.1c2.4,1.1,4.7,2.3,7.1,3.2c7.6,3.1,16.9-0.9,19.9-8.5
		c0.3-0.7,1.2-1.3,0.5-1.9c-0.5-0.4-1.4-0.4-2.2-0.4c-1.4-0.1-1.8,1.6-3,1.9c-0.3,2.2-2.5,1.6-3.7,2.5c-2.2,1.7-4.9,2.2-7.5,2.9
		c-0.9,0.2-1.8-0.1-2.4-1c-0.7-1.1,0-1.9,0.8-2.3c2.6-1.3,3.5-3.7,4.4-6.1c1.7-4.4,4.4-7.5,9.1-8.8c1.2-0.3,2.8-0.7,2.7-2.6
		c-6-2.2-10.4,0.2-12.5,4c-1.5,2.7-2.9,5.5-4.8,7.9c-2,2.6-4.3,5.7-8.3,4.1c-2.7-1.1-4.7-0.9-7,0.9c-1.3,1.1-3.3,1.5-5,1.9
		c-4.8,1.1-5.6,2.4-3.2,6.2c1.3,1.9,1.1,2.9-0.4,4.5c-4.9,5.3-11.1,6-17.7,6c-0.9,0-2.5,0.7-2.6-1c-0.1-1.3,1.4-1.6,2.3-1.8
		c4.5-1,8.2-3.2,11.1-6.8c0.8-1,2.6-1.7,1.6-3.3c-1-1.6-2.6-0.9-4.1-0.5c-6.4,1.6-12.6,4-19.5,3.2c-5.5-0.6-10.2-2.9-12.5-6.8
		c2.1-1,4.2-1.4,6.5-1.7c4.2-0.4,8.5-0.7,12.4-2.1c4.2-1.5,7.4-2.4,12,0c5,2.7,11.1,1.1,16.6-0.6c3.9-1.2,8.2-1.8,11.6-5.2
		c-3.6-0.9-6.2,0.5-8.9,1.2c-5.9,1.4-11.8,3.6-17.8,0.9c-1.4-0.6-3.8-1.3-3.1-3.9c0.6-2.2,2.5-2.4,4.3-2.3c3.8,0.2,7.6-0.6,11.1-2
		c3.2-1.3,6.9-2.2,8.9-6c-1-0.1-1.7-0.4-2.2-0.2c-8,3.9-16.6,4.7-25.2,5.8c-2.2,0.3-3.7,2-3.1,4.3c0.5,2-0.1,2.4-1.8,3
		c-2.4,0.9-4.8,1.9-7.4,1.7c-2.6,1.1-5.2,1.1-7.8,0h0l0,0c-3.5,0.3-6.6-0.6-9.2-3.7c4.6-0.4,8.6-0.5,12.6-1.2
		c3.7-0.7,7.9-0.7,10.5-4.2c-1.8-0.9-3.6-0.3-5.5-0.3c-0.7,0.2-1.4,0.3-2-0.3c-1.2-0.5-2.4-1-3.5-1.5c-1.8,0.1-3.7,0.3-5.5,0.1
		c-4.2-0.4-8.4-1.1-12.1-3.3c-1.1-0.7-2.4-1.7-1.8-3.3c0.5-1.3,1.9-0.8,2.8-0.7c4.1,0.4,8-1.2,12.1-1.4c2.8-0.1,6.1-1.4,8.5-4.8
		c-1.4,0-2.3-0.2-3.1,0c-8.2,2-16.4,3.6-24.9,3.6c-2.7,0-3.8,2.7-2.2,5.2c0.9,1.5,2.3,2.8,3.9,3.7c5.4,3.3,11.5,3.6,17.5,4
		c1.3,0.5,0.8,1.2,0,1.2c-2.3,0.2-4.6,0.7-6.8-0.4c0,0,0,0,0,0c-1.8,0-3.7-0.1-5.5-0.1c-3.5-0.1-3.8,1.5-2.2,4.1
		c2.3,3.6,6.5,4.4,10.3,6.8c-4,0.3-7,2.1-4.2,5.5c2.3,3,4.7,6.4,9.2,7.4c6.2,1.4,12.1,1.3,18.1-0.7c1.5-0.5,3.1-1.9,5.1-0.6
		c-2.6,3.6-6.8,4-10.4,4.9c-4.1,1-4.1,2.8-2.4,5.7c0.9,0.4,1.8,0.7,2.7,1.1c7.9,1.5,15.2,0.1,22.1-3.9c0.2-0.8,0.9-0.9,1.5-0.9
		c1-1.3,2.4-2.7,3.9-1.3c0.9,0.9-0.5,2-1.6,2.5v0c-0.6,0.6-1.2,1.3-1.8,1.9c0,0,0,0,0,0c-1.9,2.5-4.1,4.7-6.8,6.4
		c-1.6,1-3.1,2.3-2.4,4.4c0.6,2.1,2.1,3,4.5,2.8c7.5-0.5,13.9-3.3,19.5-8.2C142.8,336.5,142.4,336.2,142.1,335.8z"/>
	<path class="st1" d="M546.6,233.4c0.8-0.7,1.9-1.4,1.2-2.7c-0.7-1.2-1.8-0.9-2.8-0.4c-0.9,0.4-2,0.7-2.8,1.3
		c-9,6.9-17.6,14.2-25.2,22.5c-4.5,5-9,10-12.1,16.2c-4.5,9.2-7.4,19-12,28.1c-2.7,5.5-3.6,11.2-4,17.2c-0.3,3.7-0.7,7.6-2.2,11.4
		c-2.3,5.5-5.9,10.3-7.3,16.2c-0.5,2.2-1.3,4.8-4.5,4.9c-1.6,0.1-1.5,1.9-1.3,2.5c0.5,1.4,0.1,2.2-1,3c-7,5.1-14.6,9.4-20.7,15.7
		c-4.6,4.7-11.5,5.3-15.8,10.4c-1.6,1.9-5,4.2-8.7,2.5c-1-0.5-2.2-0.1-2.5,1.2c-0.5,1.9-2.3,2.3-3.7,3c-5.2,2.5-10.8,4-15.8,6.9
		c-1.5,0.9-3.8,1.9-5,1.4c-3.4-1.7-5,0.4-7,2.2c-0.8,0.7-2,1.1-2.9,1.7c-1.7,1.1-3.3,1.2-5,0.1c0,0,0,0,0,0c-1.8,0.2-3.7-0.5-5,1.8
		c-0.8,1.4-2.7,2.2-4.6,1.8c-1.9,1-3.8,1.4-5.7-0.1c-3.1-1.5-5.9-1.1-8.8,0.9c-1.4,1-3.8,2.4-4.9-0.4c-1.5-3.8-3.7-2.4-4.9-0.5
		c-2.5,3.7-6.6,3.2-9.9,4.7c-1.4,0.6-1.9-0.2-1.9-1.6c0.1-1.9,0.1-3.8-2.5-4c-2.4-0.2-3.9,0.8-4.9,3.1c-1.3,3-4.1,4.4-7.2,5.1
		c-1.3,0.3-3.4-0.2-3.4,1.3c0,1.6,2.1,2.5,3.6,3.1c3,1.1,5.9-0.7,9-0.7c1-1,2.3-0.9,3.6-1.2c8.1-2.6,16.4-4.4,25-3.2
		c1.1-0.8,2.2-1.5,3.7-1c7,0.6,13.5-2,20.3-2.9c1.2-0.6,2.5-1.1,3.7-1.7c1.9-1.5,3.9-2.5,6.5-1.8c2.2-0.9,4.3-1.9,6.5-2.8
		c4.2-2.4,8.6-4.2,13.2-5.7c8.6-2.9,17-6.2,24.6-11.4c10.6-7.1,20.6-15,30.9-22.6c4-2.9,8.6-5.2,10.3-10.5c2.2-6.6,4.9-13,8.8-18.8
		c0.7-1,0.6-2,0.8-3c1.2-5.8,0.7-12,2.3-17.6c4.3-14.6,10.2-28.7,18-41.8c5.4-9.2,13.7-15.9,21.6-23
		C537.8,240.5,542.3,237,546.6,233.4z"/>
	<path class="st1" d="M234.3,437.5c-2.4-2-4.8-4.1-8.1-4.6c-1.2-0.2-3-0.9-3.7,0.6c-0.7,1.8,0.8,2.4,2.3,3.1
		c1.3,0.6,2.4,1.3,3.9,1.6c3.2,0.7,2.6,4.1,2.6,5.8c0.1,1.8-2.3,0.5-3.5-0.3c-0.7-0.1-1.5-0.3-2.2-0.4c-0.8,0-1.7,0.1-2.5-0.4
		c-6.2-2.8-13.2-4.5-16.1-11.8c-0.6-1.5-0.8-3.1-1.2-4.9c3.7,0,7.2,0,10.7,0c0,0,0,0,0,0c2.2-1.1,4.5-1.1,6.7,0
		c2.1-0.3,3.8,0.7,5.6,1.5c1.2,0.5,2.7,0.9,3.7-0.6c0.9-1.3,0.7-2.6-0.2-3.8c-3.4-4.5-5.6-9.7-8.4-14.5c-1.7-1.2-3-3-5.1-3.5
		c-1.3-0.4-3.2-0.7-3.8,0.3c-0.7,1.4,0.5,3.2,2,3.6c5,1.5,5.6,6.3,8,9.8c1.7,2.4,0.4,3.4-1.8,3.4c-2.4,0-4.8-0.5-7.2-0.8
		c0,0,0,0,0,0c0,0,0,0,0,0c-2.1,1.1-4.1,1.1-6.1,0c0,0,0,0,0,0c-3.3,0.3-5.8-1.3-8.1-3.3c-1.8-1.5-3.7-3.1-6.4-1.9
		c0.7,1.8,1.4,3.4,2.1,5c2,0.5,1.5,2.6,2.4,3.8c0.7,1.1,1.9,2.3,1.8,3.4c0,1.2,1.6,2.3,0.1,3.6c-1.4,1.1-2.3-0.2-3.2-0.7
		c-3.5-1.7-6.7-3.9-9-7.1c-0.6-0.6-1.1-1.2-1.7-1.7c-2.8-1.5-1.8-3,0.1-4.4c3.2-2.5,4.7-5.8,4.6-9.9c0-1.5-0.2-2.8-2-3
		c-2.1-0.2-1.4,1.6-1.6,2.6c-0.7,3.8-2.4,6.9-5.9,8.7c-2,1.1-4.5,0.9-6.6,0.1c-1.4-0.5-0.9-2.5-0.5-3.2c2.5-4.5,1-11.7,8.5-13
		c1.5-0.3,1.8-1.9,2.7-2.9c0-2.4,0-4.9,0-7.3c-2.4-0.7-2.5-0.7-2.9,3.3c-0.4,4-3.5,4.8-6.5,5.6c-1.3,0.3-1.4,0-1-5
		c0-0.3,0-0.6,0-0.9c1.3-6.7,0.4-14,5.8-19.7c1.4-1.5,1.9-4.9-0.8-6c-2.4-1-2.8,1.7-3.2,3.6c-0.2,0.8-0.4,2.4-1.6,2.5
		c-1.5,0.1-1.7-1.2-2.2-2.4c-1.1-2.6-1.3-5,0.3-7.4c0.8-1.2,0.6-2.1-0.4-2.8c-0.9-0.6-2.7-0.7-2.9,0.2c-0.5,3-3.5,5.3-1.9,8.9
		c4.3,9.9,5.6,19.9,0.7,30.1c-0.7,1.5-0.7,3.9,2.4,3.5c1.2-0.1,2.1,0.1,1.3,1.8c-1.4,3.1-1.9,6.6-4.2,9.4c-2.9,3.4-2.7,4.5,1.8,5.6
		c6.9,1.6,12.9,4.2,17,10.3c0.7,0.8,2.4,0.2,2.7,1.8c4.1,1.4,7.1,4.3,9.6,7.7c0.9,1.2,2,2.1,2.8,1.3c4-4.6,6.2,0,8.8,1.7
		c2.7,1.8,5.2,3.7,8.5,4.2c4.2,0.7,8.3,1.9,12.1,3.7c1.4,0.6,2.6,1.1,3.7,0.3c1.2-0.9,1-2.8,0.5-3.9
		C236.2,444.4,235.6,440.8,234.3,437.5z"/>
	<path class="st1" d="M239.3,329.7c2.6-0.4,5.1-2.2,7.9-0.8c1.8,0.8,4.2,2.8,5.4,0.6c1.3-2.3-1.8-3.7-3.2-5.2
		c-0.5-0.5-1.2-0.9-1.9-1.3c-2.5-1.3-5.3-3.2-5.4-5.8c-0.2-5.1-3.5-7.4-6.9-10c-2.5-0.3-2,1.5-2,2.9c1.9,3.3,4.5,6,5.5,10
		c1.3,5.3,2,5.1-3.5,5.7c-1.8,0.2-3.4-0.4-4.7-1.4c-4.7-3.4-11.6-1.3-15.8-6c-0.2-0.2-0.9,0.1-1.6,0.2c1.7,1.7,2.4,3.8,4.2,5.3
		c2.5,2,3.3,5.2,4.4,8.1c0.4,1.2,0.2,2.6-0.5,3.5c-0.8,0.9-2.2,0.6-3.4,0.2c-8.9-3.3-17.3-17.6-15.6-26.8c0.2-1.1,2-2.6-0.4-3.2
		c-1.6-0.4-2.1,0.6-2.6,2.2c-2.2,7.3-6.7,12.8-13.1,17c-1.1,0.7-1.9,1.3-3.1,0.7c5-7.1,4-15.7,6.2-23.5c0.2-0.7,0.4-1.9-1.1-2.1
		c-1.2-0.1-1.5,0.7-1.8,1.6c-1.1,2.9-2.2,5.8-2.5,9c-0.5,5.1-0.4,10.8-6.7,13.1c-1.2,0.4-2.5,2-1.6,3.3c0.8,1.2,0.9,3.1,3.2,3.3
		c4.7,0.4,8.7-0.5,12.1-3.9c1.8-1.9,3.6-3.7,5.6-5.5c1-0.9,2.2-1.9,2.9,0.6c2.8,9.8,10.1,15.5,18.8,19.7c2.2,1,3.8,3.2,6.7,3
		c1.9-0.1,2.9-0.7,1.8-2.4c-2.6-3.9-1.9-8.4-2.4-12.6c-0.1-0.8-0.7-2,0.4-2.4c1-0.4,2.1-0.3,3,0.6
		C231,331.2,235.1,330.3,239.3,329.7z"/>
	<path class="st1" d="M212.2,133.9c-1.5-0.3-3-0.7-4.4-0.6c-1.1,0-2.8-0.1-2.7,1.6c0,1.1,1.3,1.3,2.3,1.8c7.7,3.8,15.4,0,23.4,0.8
		c-0.9-3.2-3.4-2.7-4.9-3.6c-1.3-0.8-2.4-1.2-2.5-3.2c-0.4-7.8,1.8-15.2,5.4-21.8c5.7-10.7,20.3-15.6,32.5-12.7
		c4,0.9,7.2,4.6,12.2,3.2c-2.7-5.1-7.6-5.8-12.2-7.2c-3.1,0-6.1,0-9.2,0c-3.3,0.6-6.6,1.6-9.9,1.6c-4.6,0-7,4.7-11.3,5
		c-2.5,0.2-3.9,1.3-4.6,3.4c-2,5.3-4.8,10.4-5.7,16c-0.1,3.2,0.4,6.4-0.6,9.6c0,0,0,0,0,0C219.8,134.8,219,135.5,212.2,133.9z"/>
	<path class="st1" d="M209.4,241.6c-1.6,0.9-0.9,2.8-0.6,4.2c0.3,1.4,1.7,1.4,2.9,1.6c5.4,0.9,9-1.9,12-5.9c1.1-1.4,1.7-3.2,4.4-3.4
		c-2.3,3.7-0.5,6.3,1.6,8.9c1.6,2.1,2.5,4.6,4.8,6.4c1,0.8,2.3,2.4,1.1,4.3c-0.6,0.8-1,2.1,0.7,2.5c1.4,0.3,3.1,0.2,3.4-1.5
		c1.4-7.4,4.5-14.5,3.8-22.3c-0.2-2.1-0.6-3.9-3.7-5c0.8,5.6-0.3,10.5-0.5,15.5c-0.1,1.3-0.4,2.7-1.5,3.2c-1.3,0.6-2-0.8-2.7-1.8
		c-2.3-3.4-4.2-6.9-4.6-11.2c-0.2-2.1,0.1-5.3-2-5.9c-2.7-0.8-2.7,2.9-4.2,4.4c-3.2,3.4-5.9,7.4-11.1,8.1c3.8-3.6,5.8-8.2,7.2-12.9
		c0.7-2.2,3.6-5.6,1.1-6.7c-2.6-1-2.9,3.5-4.1,5.6C214.9,233.8,214.1,238.9,209.4,241.6z"/>
	<path class="st1" d="M265.1,110.7c1.5,1.7,3.2,3.6,2.3,6c-1,2.6-3.5,2.5-5.8,2.4c-2.7-0.1-5.5-0.1-8.2-0.1c0,0,0,0,0,0c0,0,0,0,0,0
		c-1.9-0.9-4-0.8-6-0.7c0,0,0,0,0,0c0,0,0,0,0,0c-2.1-0.1-4.3-0.2-6.4-0.4c-2.1-0.2-3.6-1.5-4.4-3.3c-0.9-1.9,0.4-3.7,1.5-4.9
		C244.2,103.4,259.1,104,265.1,110.7z M245.1,113.8c-0.4-1.3-1.1-2.1-2.5-2.3c-1-0.1-1.7,0.3-1.9,1.4c-0.3,1.4,0.4,1.9,1.7,1.8
		C243.4,114.5,244.6,115.2,245.1,113.8z M255.2,115.4c2.9,1.2,5.4,1.6,7.8,0.1c0.6-0.4,0.2-1.3-0.3-1.5
		C260.1,112.7,257.7,113,255.2,115.4z"/>
	<path class="st1" d="M87.7,266.7c-2.5,0.2-3.6,1.5-2,3.6c3.1,4.2,6.9,7,12.6,7.4c7.4,0.5,14.4-1,21.4-2.7c-3.1-2.3-6.6-0.3-9.9-1
		c-2.1,0.1-4.1,0.2-6.2,0.2l0,0h0c-2.1,0.7-4.2,0.9-6.3,0c0,0,0,0,0,0c0,0,0,0,0,0c-2.4,0.4-4.7-0.6-4.9-2.8
		c-0.2-2.7,2.6-1.7,4.2-2.1c4-1,8.1-2,12.1-3.2c1.8-0.6,5.4-0.6,4.9-2.6c-0.7-2.5-4-0.7-5.6,0c-6.1,2.4-11.9,0.6-17.8-0.5
		c-0.7-0.1-2.5,0-1.8-1.8c2.1-1.2,4.1-0.7,6.2,0c0,0,0,0,0,0c0,0,0,0,0,0c1.5-0.7,3.8,0.9,5.1-2c-4.9-0.9-9.6-1.8-14.3-2.4
		c-1.6-0.2-4.3-1.1-4.8,0.8c-0.4,2,0.8,4.4,2.6,5.9c0.8,0.7,2.2,0.8,3.2,1.4c1.8,1,4.1,0.1,5.9,1.5
		C90.7,267.4,89.2,266.6,87.7,266.7z"/>
	<path class="st1" d="M18.6,173.2c-3.4-1.3-5.1-0.3-5.5,3.3c-0.8,6.8,1.8,12.1,7.7,15.6c3,1.8,5.8,3.9,8.7,5.8
		c4.4,2.8,9.4,3.6,14.5,3.4c2.4-0.1,1.7-1,0.4-2c-1.3-0.5-2.5-0.9-3.8-1.4c-8.1-1.4-14.7-5.1-19.6-11.9c-1.4-2-3.8-4.5-2.1-6.3
		c1.7-2,4.1,0.9,6.1,1.7c5.8,2.5,10.6,7.4,17.5,7c0.3-0.3,0.7-0.7,1-1c-0.3-2.2-2.1-2.2-3.7-2.8c-2.6-1-5.4-1.6-7.6-3.6
		c-2-1.1-4.2-2-5.8-3.7C23.5,176.7,21.4,174.3,18.6,173.2z"/>
	<path class="st1" d="M176.6,105.8c0.2-2.5,2.1-4.3,4.6-4.9c3.5-0.9,7.1-1.5,10.7-2.2c1.5,0,3.1,0,4.6,0c5.3,1,8.2,4.9,11.1,8.8
		c1.9,2.5,0.7,4.1-1.6,5c-4.4,1.8-8.9,1.3-13.3,0.1c-4-1.1-7.9-2.5-11.8-3.8C179.3,108.1,176.4,108.6,176.6,105.8z M193.3,108.5
		c2.6,2.1,5,1.2,7.2,1.3c1.1,0.1,2.6,0.7,3.3-0.7c0.6-1.1-0.4-2-1-2.9c-0.9-1.3-2.2-1.8-3.6-1.1
		C197.3,106.2,195.6,107.3,193.3,108.5z M180.6,106c1.9,0.8,3.7,0.8,5.6,0C183.6,102.9,183.1,102.9,180.6,106z"/>
	<path class="st1" d="M306.9,299.7c6.3,0.6,12.5,1.4,18.8,2.2c3.1,0,6.1,0,9.2,0c5.8-0.8,11.6-1.1,16.8-4.2c1.2-0.7,2.6-1.4,2.5-3
		c-0.1-1.9-2.1-1.9-3.2-1.9c-8.3-0.6-15.1-5-22-9c-2.5-1.4-4.9-3.2-7.9-3.3c-1.2,0-2.9-0.3-3.2,1c-0.3,1.4,1.1,2.2,2.4,2.6
		c8.3,2.4,14.6,8.8,23.1,10.8c0.6,0.1,1.6-0.1,1.5,1.2c-0.1,1.1-0.9,1-1.7,1.1c-5.3,0.7-10.4,2.4-15.9,1.5c-2.1,0-4.3,0-6.4,0
		c-4.6-0.6-9.3-1.2-13.9-1.6c-0.8-0.1-2.4-0.8-2.5,0.9C304.6,299.3,305.6,299.6,306.9,299.7z"/>
	<path class="st1" d="M60.9,230.8c2.2-0.8,4.3,0.1,6.5,0c0.8-0.4,0.8-1.2,1.1-1.9c-1.9-3-5.1-1.2-7.5-2c-1.6,0.1-3.3,0.2-4.8-0.7
		c0,0,0,0,0,0c-7.1-0.7-12.8-3.9-17.4-9.2c-1.1-1.4-2.6-2.7-3-4.6c-1.2-1.9-0.9-3.6,1.5-2.6c1.7,0.6,3.5,0.6,5.2,1
		c4.6,0.9,9.5,1.2,14.6-0.2c-1-0.9-1.4-1.5-1.9-1.6c-7.3-1.2-14.5-2.5-21.9-3.5c-2.2-0.3-3.5,1-3.7,3.5c-0.4,3.8,1.6,6.3,3.9,8.7
		c0.5,0.9,1.1,1.8,1.6,2.7c6.1,6,13.7,8.8,22.1,9.5C58.7,229.2,59.5,231.2,60.9,230.8z"/>
	<path class="st1" d="M370.2,285.1c3-0.1,6.2,0.1,9.1-0.5c11.7-2.5,21.7-8.8,32-14.3c1.4-0.8,3.5-1.6,2.8-3.6
		c-0.6-1.6-2.7-1.6-4.4-1.6c-5.7,0-11.2-0.4-16.5-2.7c-1.9-0.8-4-1.5-6-2c-1.4-0.4-2.9-0.1-3.2,1.7c-0.3,1.5,0.8,2.1,2.1,2.4
		c4.5,0.9,8.7,3.4,13.4,3.3c2.2,0.2,4.6-0.7,6.7,0.6c0.1,0.1,0.3,0.1,0.4,0.2c0.1,0.1,0.2,0.3,0.1,0.3c-0.3,0.5-0.6,1.2-1.1,1.4
		c-10,4.4-19.6,10.2-30.9,11.2c-1.7,0.2-3.3,0.6-4.9,1c-0.9,0.2-1.8,0.8-1.5,1.9C368.5,285.5,369.5,285.2,370.2,285.1z"/>
	<path class="st1" d="M185.7,364.2c1.4,0.8,2.3,0.1,3.2-0.9c0.9-1.1,2.1-1.5,3.5-1.8c7.9-1.7,12.6-7.3,13.3-15.2
		c0.1-1.2-0.2-2.2-1.3-2.6c-1-0.4-1.6,0-2.5,1c-1.5,1.8-2.1,3.8-2.6,6c-0.9,3.4-3.1,5.7-6,7.2c-1.1,0.6-3.1,1.3-3.2-0.8
		c-0.4-4.7-4.2-8-4.8-12.5c-1.2-1.7-1.1-3.3,0.1-4.9c0-0.5-0.1-1,0.1-1.4c0.6-1.3,3-2.7,0.8-3.9c-1.6-0.9-3.3,0-4.7,2.1
		c-2.2,3.5-1.6,6.9-1.4,10.4c0.8,1.3,1.5,2.6,2.3,3.8c1.6,3.2,4.1,6.3,2,10.3C184.1,362,184.4,363.4,185.7,364.2z"/>
	<path class="st1" d="M154.7,383.9c0-2,0.4-4,1.7-5.6c0.9-1.1,2.1-2.2,0.3-3.3c-1.4-0.9-2.7-0.3-3.4,1.2c-1.9,4.1-5.6,4-9.3,4
		c-2.5,0-3.3-1.3-2.6-3.6c1.5-4.6,2.9-9.2,5.6-13.3c0.8-1.2,3.2-2.6,1-4.3c-2.1-1.7-3.2,0.7-4.5,1.8c-0.5,0.5-0.8,1.3-1.3,1.9
		c-3.7,5.2-3.9,12-8.2,17c-0.9,1.1,0.2,2.3,0.8,3.3c0.9,0.3,1.8,0.7,2.7,1c4.5,0.2,9.2-1.8,13.3,2.2
		C152.3,387.6,154.7,386.9,154.7,383.9z"/>
	<path class="st1" d="M237.6,414.7c-0.2,2.2,1.3,3.3,2.7,4.5c3.7,3.1,6.4,6.9,9.1,10.8c1,1.4,1.3,2.5,1,3.3c0,0.1,0.1,0.1,0.1,0.2
		c-0.1,0-0.1,0-0.2,0c-0.4,0.7-1.5,1.1-3.2,1.2c-2.3,0.2-4.5-0.4-6.7-1.1c-2-0.7-3.9-0.8-4.9,1.7c5.7,1.5,11.5,2.5,17.5,2
		c1-0.9,2.3-1,3.6-1.2c0.7-0.9,1.8-0.3,2.5-0.7c1.4-0.7,4-0.7,3.8-2.6c-0.1-2.1-2.5-1.8-4.1-1.7c-3,0-5.5-1.1-6.8-3.7
		c-2.8-5.8-7.1-9.8-12.8-12.3c-0.5-0.2-1-0.4-1.5-0.6C237.5,414.5,237.6,414.6,237.6,414.7z"/>
	<path class="st1" d="M240.3,433.7c2.2,0.7,4.4,1.3,6.7,1.1c1.7-0.1,2.8-0.5,3.2-1.2c-4.4,0.6-8,0-11.5-1.4c-1.2-0.5-3-0.5-4,0.1
		c-1.1,0.8,0,2.1,0.6,3.2C236.3,432.8,238.2,433,240.3,433.7z"/>
	<path class="st1" d="M249.3,430.1c-2.7-3.9-5.4-7.8-9.1-10.8c-1.4-1.2-2.9-2.3-2.7-4.5c0-0.1,0-0.2-0.1-0.3c0,0,0,0,0,0
		c-0.1,0-0.2,0.1-0.3,0.1c-0.1,0-0.2,0-0.3,0c-1.3,1.8-0.7,3,1.2,4.4c5.2,3.7,8.5,9,12.2,14.4C250.6,432.6,250.3,431.5,249.3,430.1z
		"/>
	<path class="st1" d="M237.5,414.4c-0.1-0.1-0.3-0.1-0.4-0.2c-0.1,0.1-0.1,0.2-0.2,0.3c0.1,0,0.2,0,0.3,0
		C237.3,414.5,237.4,414.5,237.5,414.4z"/>
	<path class="st1" d="M169.4,406.6c-4.9-4.3-3-8.3,0.3-12.4c0.6-0.8,0.8-1.9,1.2-2.9c0-2.1,0-4.3,0-6.4c-1-1.1-1.5-2.7-3.7-2.3
		c0,1.6-0.1,3.1,0,4.6c0.6,5.6-2.3,9.7-8.3,12.3c-1.2,0.5-3,2.5-4.4,0.8c-1.1-1.3,0.7-2.7,1.2-4c0.4-1.3,0.9-2.5,1.4-3.8
		c0.4-1,1.7-2.3-0.3-2.9c-1.1-0.3-2.6-0.6-3.4,1.3c-1.1,2.4-1.9,5-3.6,7.2c-0.8,1.1-3.2,2.4-1.4,4.5c1.6,1.8,3.5,2.4,6,2
		c2.4-0.4,4.6-1.7,7.1-1.1c2,0.3,2.1,2.1,2.8,3.4c0.8,0.7,1.7,1.3,2.4,2.1c0.7,0.8,1.6,1.1,2.4,0.6
		C170.2,408.7,170.1,407.3,169.4,406.6z"/>
	<path class="st1" d="M192,270.6c0.7-1.1,1.4-2.4,0.4-3.3c-1.3-1.1-2.4-0.1-3.4,0.9c-3.3,3.2-4.7,7.2-5,11.7
		c-0.2,3.6-1.1,6.8-3.7,9.5c-0.9,0.9-2.8,1.4-2.1,3.1c0.7,1.7,2.4,0.4,3.6,0.7c0.7,0.2,1.5,0,2.3,0c7.6,0.8,12.6-3.1,16.6-9
		c0.9-1.3,2.2-2.9,0.8-4c-1-0.8-2.7,0.4-3.8,1.5c-2.4,2.5-4.7,5.1-8.1,6.4c-2.6,1-4,0.4-3.1-2.4C188.1,280.6,188.9,275.2,192,270.6z
		"/>
	<path class="st1" d="M68.4,265.6c3.8,0.7,7.6,3.3,12.6,1.2c-5.7-2.4-10.7-4.4-15.6-6.6c-2.7-1.2-5.4-2.6-5.1-6.4
		c1.2-1.5,2.8-0.7,4.3-0.8c6.2,0.4,12.4,1.9,18.3-2.5c-8.2-0.4-16.5-0.8-24.7-1.2l0,0v0c-1.1,0.9-2.8,0.8-3.6,2.2
		c-1.3,1.6-0.8,3.1,0.1,4.8C57.8,261.6,62.6,264.6,68.4,265.6z"/>
	<path class="st1" d="M85.8,281.4c-0.8-3.2-3.5-2.2-5.6-2.5c-6.4-0.8-12.5-2.5-17.8-7.1c3.7-1.7,6.4,0.2,9.1,0.5
		c5.3,0.6,5.3,1,8.9-1.2c-7.7-2.3-14.9-3.8-22.3-4.1c-2.4-0.1-3.6,2.2-2.4,4c2.3,3.7,4.4,7.4,9.5,8.6c3.5,0.8,6.9,1.5,10.5,2.1
		C79.1,281.5,82.5,282.3,85.8,281.4z"/>
	<path class="st1" d="M225.7,380.6c1.4-1.7-0.7-3.1-2-3.9c-4.7-3.3-6.2-7.7-4.8-13.1c0-1.5-0.1-3.1-0.1-4.6c-0.3-0.5-0.8-1-1-1.5
		c-0.6-1.8-1.9-3.2-3.6-2.8c-1.7,0.4-1,2.5-1,3.9c-0.1,1.5,0,3,0,4.5c0,0,0,0,0,0c0,0,0,0,0,0c0.9,1.6,0.7,3.4,0.6,5.1
		c0.2,4.4-0.6,4.8-4.3,2.9c-2.5-1.3-4.1-3.5-5.5-5.9c-0.5-0.9-1.3-1.9-2.6-1.5c-1.4,0.4-0.8,1.8-1.3,2.7c0.3,0.9,0.7,1.7,1,2.6
		c2.1,0.4,1.8,2.6,2.9,3.8c0.7,0.9,2.4,0.2,2.7,1.8c5.1,1,10.4,1.4,14.7,5C222.6,380.5,224.6,382,225.7,380.6z"/>
	<path class="st1" d="M161,361.4c1.9,1.4,3.6-0.5,5-1.9c1.7-1.7,3.5-3.4,5.2-5.2c3.2-3.2,4.6-7.4,5.8-11.6c0.3-0.9,0.8-2.6-1-3
		c-1.6-0.4-1.5,1.1-2,1.9c-2,3.1-4,6.3-5.8,9.5c-0.8,1.4-2,2.3-2.2,0.5c-0.7-5.4-6.3-9.7-3.8-15.8c0.6-1.5,0.1-3-1.5-3.2
		c-1.6-0.3-2.4,1.2-2.6,2.5c-0.3,2.4-0.2,4.9-0.3,7.3c0.9,1,1.1,2.3,1.1,3.6c2.2,3.4,3.8,7,3.1,11.1
		C161.8,358.6,159.3,360.1,161,361.4z"/>
	<path class="st1" d="M99.7,288.7c1.2,0.9,2.4,1.9,3.7,2.8c1.3-0.1,2.6,0,3.7,1c2.7,0.1,5.4,1.1,8.2,0.5c4.9-1,9.8-1.9,14.8-2.8
		c1.2-0.7,2.8-0.5,3.7-1.9c-5.9-1.3-11.7,0.4-17.4,1.2c-3.5,0.4-6.8,0.5-9.9-1.5c-1.5-1-2.1-1.7-0.1-2.8c1.5-0.6,3.1-1.2,4.6-1.8
		c3.1-1,6.1-2.1,9.2-3.1c1-1.1,2.5-1.1,3.8-1.5c0.6-0.8,2.3-0.7,2.1-1.9c-0.3-1.4-1.7-1-2.7-0.8c-0.7,0.1-1.5,0.2-2.1,0.4
		c-6.2,2-12.5,4-18.6,6.1c-1.6,0.5-3.6,1.1-3.5,3.5C99.6,286.8,99.8,287.7,99.7,288.7z"/>
	<path class="st1" d="M213.3,302.8c-0.5,1-1.6,2.3-0.3,3.3c1,0.8,2.3,1.4,3.8,0.5c3.1-1.9,6.3-3.7,9.4-5.4c4.4-2.5,6.4-6.7,7.9-11.1
		c0.3-1,0.6-2.2-0.7-2.8c-1.6-0.7-1.8,0.8-2.1,1.6c-1.6,5-6.4,6.9-9.5,10.5c-0.8,0.9-2.6,0.9-2.3-0.4c1.1-5.3-2-11.3,2.7-16.1
		c0.7-0.7,1.8-1.9,0.8-2.7c-1-0.8-2.3-0.7-3.6,0.3c-2.7,2-2.2,4.8-2.6,7.5c0,2.7,0.3,5.3-0.5,7.9c-0.1,0.2-0.1,0.4-0.2,0.5
		C215.7,298.8,214.4,300.7,213.3,302.8z"/>
	<path class="st1" d="M88.5,242.3c-3.2-1.1-4.6-0.1-4.5,3.2c0.6,0.8,1.2,1.5,1,2.6c2.1,1.6,4,3.4,6.3,4.8c6.1,3.4,12.8,4.1,19.5,4.8
		c1.5-0.1,3.1-0.1,4.6-0.2c0.4-2.2-1.6-2.1-2.8-2.8c-1.2,0-2.5-0.1-3.7-0.1c-5.7-1.4-11.9-1.6-16.3-6.6c3.8,2.4,7.5,0.3,11.3,0.3
		c1.7,0,3.9-0.4,3.8-2.2c-0.1-2-2.5-0.9-3.9-1.4c0,0,0,0,0,0c-2.4,0.8-4.7,1.2-7.1,0c0,0,0,0,0,0C93.7,244.6,91.2,243.2,88.5,242.3z
		"/>
	<path class="st1" d="M207.1,146.7c5.1-2.1,10.4-2.2,16.5-1.5c-3.3,1.3-6.2,1-9,1.4c-1.4,0.2-3.2-0.3-3.5,1.9
		c9.9,3.9,17.9-2,26.6-4.7c-12.9-2.4-25.9-0.9-39.3-2.8C200.1,146,203.5,146.5,207.1,146.7z"/>
	<path class="st1" d="M194.5,369.6c-1.2,0.9-0.8,2.7-0.2,4.2c1.4,3.3,1.8,6.8,2.3,10.4c0.4,2.9-0.9,3.2-3.2,1.8
		c-2.8-1.7-5.2-3.8-6.4-6.9c-0.4-1-1.1-2-2.4-1.5c-1.4,0.5-1,1.8-0.8,2.7c0.5,3.2,2.7,5.2,5.1,7.1c3.8,3,8.8,3.9,12.2,7.6
		c0.7,0.7,1.1,2.8,2.7,1.3c1.2-1.1,1.4-2.6-0.1-4c-1.4-1.2-2.6-2.6-2.5-4.6c-1.8-3.3,0.1-6.9-0.7-10.3c0,0,0,0,0,0
		c-0.1-0.5-0.2-1-0.3-1.5c-1.2-1.3-1.8-2.8-1.9-4.6C197,370.6,196.2,368.3,194.5,369.6z"/>
	<path class="st1" d="M208.3,278.2c1.1,1.1,2.7,0.6,4.2-0.2c1.7-0.9,3.7-1.3,5.5-2.1c3.9-1.8,6.4-5,8.2-8.8c0.8-1.7,0.4-3.1-1-3.9
		c-1.6-0.8-1.9,1.1-2.5,2c-1.2,1.7-1.9,3.7-3.5,5.1c-1.2,1.1-2.7,2.4-4.2,1.9c-2-0.6-0.8-2.6-0.9-4c-0.1-1.2-0.3-2.4-0.7-3.6
		c-0.7-2.1-0.5-4.1,1.3-5.9c0.8-0.8,3.4-1.6,1.2-3.4c-1.6-1.3-3-0.7-4.7,0.8c-3.5,3.3-1.3,7.2-1.7,10.9c0.9,1.8,1.1,3.5,0,5.3
		c0,0,0,0,0,0c-0.2,0.5-0.3,1.2-0.6,1.6C207.9,275.4,207.1,277,208.3,278.2z"/>
	<path class="st1" d="M176.2,270.3c-4.3,1.4-7,4.9-10.1,7.9c-1.5,1.5-2.8,3.2-5.4,2.7c-1.5-0.3-3.4,0-3.8,2.1c-0.4,2.5,1,4,3.2,4.7
		c1.3,0.4,2.7,0.3,4.1,0.4c1.8,0,3.7,0,5.5,0c3.2-1.2,5.9-2.9,7.5-6.1c-2.5-1.2-4.1,0.3-6,1.1c-1.2,0.5-2.9,2.5-3.9,0.9
		c-1.1-1.7,1.4-2.5,2.5-3.6c3.3-3.2,7.5-5.3,10.3-9C179.3,269.2,177.6,270.5,176.2,270.3z"/>
	<path class="st1" d="M137.4,351.4c-2.2,1.2-1.8,3.3,0.4,4.6c3.2,2,9.9,0.5,13.5-3.3c1-1.1,2.8-2.7,1.3-4.3
		c-1.7-1.8-2.4,0.7-3.5,1.5c-0.5,0.3-1,0.8-1.5,0.8c-1.6,0.2-2.6,3.3-4.1,1.7c-1.9-2,1.9-2,2.2-3.6c0.1-0.7,0.8-1.3,1.2-1.9
		c0.1-0.8,0.2-1.6,0.3-2.3c0-0.9,0-1.9,0.4-2.7c-0.4-2.4,0.3-4.6,1.2-6.9c0.5-1.2,2.7-2.5,0.4-4.1c-2-1.4-2.9,0.6-4.2,1.3
		c-0.3,1.5-0.7,3-1,4.5C143.5,342.4,143.4,348.1,137.4,351.4z"/>
	<path class="st1" d="M69.2,246.4c2.5,0.7,4.8,1.1,7.3,0c1-0.4,2.2-0.9,1.8-2.2c-0.3-1-1.4-1.5-2.6-1.3c-6.3,0.9-11.8-2.2-17.5-4
		c-1.1-0.8-3.7,0.2-2.8-2.6c1.8-1.4,3.5-0.8,5.3-0.3c0.2,0.1,0.4,0.1,0.6,0.2c1.3-0.5,3.1,0.4,3.9-1.4c0.1-0.2-1-1-1.5-1.5
		c-1.9,0.1-3.8,0.2-5.6-0.6c0,0,0,0,0,0c-1.4,0-2.7,0.1-4.1,0c-1.8-0.1-4-0.3-4.7,1.6c-0.6,1.8,0.2,3.8,1.9,5.2
		c1.2,0.9,2.2,2.4,3.5,2.8C59.5,243.9,64.4,245,69.2,246.4z"/>
	<path class="st1" d="M316.6,432.8c-3.2,1.4-6.2,3.5-10,2.9c-1.9-0.3-4-0.6-5.6,1c0.9,2.4,3.6,2.2,5.3,3.6c1.1-0.8,2.2-1.4,3.7-1
		c4.1-1.8,8.3-3.4,11.6-6.6c1-0.9,2.3-2,1.9-3.4c-0.5-1.6-2.1-2.1-3.7-1.9c-4.3,0.3-8.1-1.1-11.6-3.2c-2.6-1.5-5.3-1.5-7.8-0.3
		c-1.9,0.9-2.1,2.2,0.5,2.7c1.6-0.1,3.3-0.5,4.7,0.7c2.2,0.8,3.8,2.8,6.4,3c0.6,0.1,1.1,0.2,1.7,0.3c1,0,2-0.2,3,0.4
		C317.7,431.5,317.7,432.3,316.6,432.8z"/>
	<path class="st1" d="M366.9,273.6c-0.7-1.6-2.6-2.1-4.3-2c-2.1,0.1-4.2,0.5-6.3,0.8c-3.9,1.1-7.7,1.2-11.6,0c0,0,0,0,0,0
		c-4.2,1-7.8-2.7-12.2-1.7c1.3,1.8,2.6,2.7,4.5,3.4c6.9,2.2,13.8,2.2,20.8,1c1.4-0.4,3.1-2.3,3.8,0.7c-4.5,3-10.4,3.4-14.6,7.1
		c6.6,0.2,12.4-1.6,17.8-5.2C366.2,276.7,367.7,275.4,366.9,273.6z"/>
	<path class="st1" d="M212.8,95c-6.4-3.4-13.4-4.5-20.1-5.4c-4.9,0.3-9.3,1.2-13.7,2.4c-1.2,0.3-3,0.8-2.5,2.6
		c0.5,1.6,2.1,1.4,3.5,1.1c3.2-0.7,6.4-1.6,9.7-2.2c8.5-1.4,16,1,22.9,6c1.2,0.9,2.3,2.8,3.8,1.7c1.9-1.5-0.3-2.9-1-4.3
		C214.8,96,213.7,95.6,212.8,95z"/>
	<path class="st1" d="M212.7,394.7c5.9,5.4,13,6.4,20.6,5.5c0.9-0.1,2.1-1,2.4-1.9c0.3-1.1-0.9-1.8-1.8-2.3c-3.1-1.7-5.3-4-6.1-7.5
		c-0.3-1.4-1.5-2.3-2.6-3.1c-0.6-0.5-1.1-0.8-2-0.2c-1.3,0.9,0.2,1.5,0,2.3c0.5,1.2,1,2.4,1.4,3.6l0,0c1.4,2.1,2.7,4.3,4.5,7.1
		c-3.6-0.9-6.3-1.8-8.6-3.4c-1.3-0.4-2.8-0.4-3.7-1.6c-0.9-0.8-2-1.5-2.6-2.5c-0.6-1-1.1-2.6-2.5-1.9c-1.4,0.7-1.2,2.3-0.5,3.7
		C211.7,393.3,212.1,394.1,212.7,394.7z"/>
	<path class="st1" d="M289,426.4c-0.4-1.3-2-1.3-3.1-1.5c-1.8-0.3-3.9,0.4-5.5-1.2c-1-0.8-1.9-1.7-2.9-2.5c-2.7-0.6-3.7-3.7-6.4-4.3
		c-1.9-0.5-4.4-1.6-5.1,0.9c-0.7,2.1,2.1,2.3,3.6,3.1c3.7,2.1,7.6,4,10.5,8.1c-4.3,0.6-7.9,1.2-12.3,1.8c4,3.6,8.1,1.4,11.6,2.1
		c1.2-0.6,2.5-1.1,3.7-1.7c1.2-0.5,2.6-0.9,3.6-1.6C287.8,428.7,289.4,428,289,426.4z"/>
	<path class="st1" d="M370.3,255.3c1-1.5,1.1-3.5-0.1-5.2c-1-1.4-2.7-1.2-3.8-0.8c-5.3,2.3-10.8,3.5-17.1,2.9c1.6,2.8,3,3.3,5.3,3.2
		c3.3,0,6.2-0.8,9-2.3c0.8-0.4,1.9-0.7,2.5,0.1c0.8,1.1-0.5,1.6-1.1,2.1c-3,2.8-6.3,5.1-10.1,6.8c-1.7,0.7-4.1,1.3-4.2,4.5
		c6-1.2,10.6-4.6,15.5-7.2C367.9,258.6,369.3,256.9,370.3,255.3z"/>
	<path class="st1" d="M265.7,453.8C265.7,453.8,265.7,453.8,265.7,453.8c0,0,0-0.1,0-0.1c0,0-0.1,0-0.1,0L265.7,453.8
		C265.7,453.8,265.7,453.8,265.7,453.8z"/>
	<path class="st1" d="M282,451c1.1-1.1,2.7-2.5,1.8-3.8c-0.8-1.2-2.9-2-4.6-1.2c-2.5,1.2-4.3,0-6.2-1.2c-0.9-0.7-1.8-1.4-2.7-2.1
		c-1.2-0.4-2.5-1.1-3.7-1.3c-2.3-0.3-5.7-0.9-6,1.9c-0.3,2.8,3.3,1.7,5.2,2.3c1.2,0.9,2.5,1.7,3.7,2.6c3,0.4,6.1,0.8,9.9,1.2
		c-3.5,2.2-6.6,1.9-9.7,1.7c-1.8-0.1-4.1-0.6-4,2.4c3.2,0.1,6.3,0.2,9.5,0.3C278,454.1,280.2,453,282,451z"/>
	<polygon class="st1" points="265.6,453.7 265.6,453.7 265.6,453.7 	"/>
	<path class="st1" d="M265.7,453.8l-0.1-0.1c0,0,0,0,0,0c0,0,0,0,0,0C265.6,453.7,265.7,453.8,265.7,453.8
		C265.7,453.8,265.7,453.8,265.7,453.8z"/>
	<path class="st1" d="M340.8,441.3c-1.7-1.7-3.8-1.5-5.8-0.2c-2,1.4-4.2,1.3-6.5,1.1c-2.1-0.2-4.3-0.3-6.4,0c-1.8,0.3-3.7,2-3.6,3.5
		c0.3,2.7,2.6,1.2,4,0.8c4.4-1.2,8.8-0.8,13.8-1.1c-1.4,1.7-2.3,2.9-3.3,3.9c-0.7,0.8-1.8,1.6-1.3,2.7c0.8,1.6,2.1-0.1,3.2,0.2
		c0.9-0.7,1.8-1.4,2.7-2.1c0.9-1,1.9-2,2.6-3.2C341.2,445.2,342.7,443.2,340.8,441.3z"/>
	<path class="st1" d="M345.9,431.6c1.1,0.8,2-0.2,2.7-1c2.5-2.6,4.6-5.6,6.5-8.7c-2.9-2.9-6.1,0.5-9.1-0.3c-3.6,0.7-7.3-0.3-10.9,1
		c-1.5,0.6-2.5,1.5-1.9,3c0.5,1.3,1.6,1.1,3,0.9c2.7-0.4,5.5-0.2,8.2-0.2c1.9,0,3.9-0.1,1.6,2.5
		C345.2,429.7,344.8,430.8,345.9,431.6z"/>
	<path class="st1" d="M199.7,413.3c2.4,0.4,4.5-0.4,5.9-2.5c0.8-1.2,1.4-2.7,1.9-4.1c0.3-1.1,2-2.6-0.2-3.4c-1.7-0.6-3,0.1-3.2,2.1
		c-0.1,1-0.6,2.2-1.4,2.1c-1.1-0.1-1.2-1.5-1.4-2.5c-0.4-0.9-0.8-1.7-1.1-2.6l0,0c-1.5-1.5-3-3-4.6-4.4c-1-0.8-1.7-2.8-3.2-1.9
		c-1.7,1-0.6,2.8-0.1,4.3c0.6,1.7,2,2.7,3.2,3.9c1.3,1.3,2.5,2.3,2.2,4.6C197.4,410.4,197.1,412.9,199.7,413.3z"/>
	<path class="st1" d="M361.8,447.6c0.4,0.9,1.3,0.8,2,0.5c4.7-1.8,8.6-4.6,10.4-9.5c0.8-2.1,0.2-3.4-2.2-3
		c-3.5,0.5-6.9,1.3-10.4,1.8c-2.8,0.4-4.4,1.7-5.1,4.8c4.2-0.5,7.9-3.2,12.7-1.6c-2.5,1.8-4.6,3.2-6.6,4.6
		C361.9,445.8,361.4,446.6,361.8,447.6z"/>
	<path class="st1" d="M381.5,420.8c0.7-1.3,1.1-2.7-0.4-3.6c-2.7-1.6-10.9,1-12.7,3.9c2.6,2.1,5.1-1.6,7.9-0.1
		c-0.4,2.1-3.1,1.6-4,3.2c-0.6,1.1-1.6,2.2-0.8,3.3c0.8,1.1,2.1,0.6,3.3-0.1C377.6,425.8,379.9,423.6,381.5,420.8z"/>
	<path class="st1" d="M295.4,414.3c-0.5-1.1-1.5-1.9-2.5-1.5c-3.4,1.3-5.9,0-8.7-1.9c-1.9-1.3-4.8-2.3-7.4-0.4
		c1.7,2.9,5.2,2.3,7.1,4.7c4,5,6,4.9,11.4,0.8C295.3,415.4,295.3,414.9,295.4,414.3z"/>
	<path class="st1" d="M400.1,425.3c-5.2,0.1-7.4,1-9.1,4.6c1.4,0,2.9,0.4,4.1-0.1c1.4-0.6,2.6-1.2,4-0.4c-0.2,1.8-2,1.6-3,2.5
		c-1,0.9-1.9,2.5-1.5,3c0.8,1,2.5,1,3.6,0.1c1.7-1.3,3.2-2.8,4.8-4.2h0c0.3-0.6,0.7-1.1,1-1.7C403.7,426.8,403,425.3,400.1,425.3z"
		/>
	<path class="st1" d="M462.5,411.8c2,1.3,2.2,4.9,4,4.9c2,0,4.8-1.5,4.9-4.5c0.1-2-1.5-2.8-3-3C465.5,409.1,461.9,411.4,462.5,411.8
		z"/>
	<path class="st1" d="M441.3,409.7c-1.7,0-3.6,0.1-3.8,2.2c-0.2,2.3,2.1,0.8,3,1.5c0.8,0.6,1.9,0.9,2.4,1.6c0.9,1.4,2.1,1.4,3.1,0.8
		c1-0.6,0.7-2,0.5-3C445.9,410.1,443.8,409.6,441.3,409.7z"/>
	<path class="st1" d="M419.3,407c-1.7,0.2-3.8,0.1-4,2.4c-0.3,3.8,4,1.2,5.4,3.4c0.4,0.7,2-1.1,1.9-2.5
		C422.7,407.9,421.6,406.8,419.3,407z"/>
	<path class="st1" d="M499.6,354.5c-0.1-2.1-1.1-4.2-4.1-3.8c-1.6-0.4-3.3,0.3-3.2,1.9c0.2,2.1,1.9,3.5,4.3,3.6
		C498,356.3,499.7,356.2,499.6,354.5z"/>
	<path class="st1" d="M477,371.1c1.8-1.2,0.8-2.7-0.2-3.3c-2.1-1.1-4.4-0.7-6.4,0.5c-1.2,0.7-2.8,1.5-2.3,2.9
		c0.4,1.3,2.2,0.4,3.3,0.7C473,370.3,475.1,371.3,477,371.1z"/>
	<path class="st1" d="M450.1,398.3c0.1-2.9-1.4-4.5-4.5-4.6c-1.1-0.1-3.2,0-2.5,1.2c1.1,2.1,3.2,4,5.2,5.4
		C449.2,401,450,399.3,450.1,398.3z"/>
	<path class="st1" d="M425.9,427.8c3.1,0.5,5.7-0.8,8.2,0.7c1.1,0.7,1.4-0.7,1.4-1.6c0-1,0.4-2.4-1.2-2.5
		C431.3,424.5,428,423.7,425.9,427.8z"/>
	<path class="st1" d="M489.9,372.6c0.1,1.7,0.2,3.7,2.7,3.8c2.8,0.1,1.5-2.8,3-3.8c-0.4-1.7-1.1-2.7-2.8-2.7
		C491.1,370.1,489.7,370.6,489.9,372.6z"/>
	<path class="st1" d="M507.3,307.4c-2,0.1-3.2,1.5-3.6,3.8c0.9,0.5-1,2.6,1.2,2.5c2.4-0.1,3.1-2,3.5-4.1
		C508.8,308.3,508.7,307.3,507.3,307.4z"/>
	<path class="st1" d="M472.9,400.5c1.5-0.4,0.8-1.1,0.6-2c-0.9-3.5-3.3-2.6-6.1-2.4C468.8,398.5,469.3,401.3,472.9,400.5z"/>
	<path class="st1" d="M515.2,321.2c-1.8-0.2-1.9,1.7-3,2.3c0.9,0.6,0.6,2.6,2.3,2.2c2.1,0.1,2.5-1.4,2.8-2.6
		C517.5,321.9,516.4,321.3,515.2,321.2z"/>
	<path class="st1" d="M527.7,301.9c-1.3,0.8-2.6,2-3.4,3.3c-0.3,0.5,1.3,1.4,1.6,1.3c2.6-0.2,3.6-1.3,3.5-3
		C529.4,302.6,528.4,301.5,527.7,301.9z"/>
	<path class="st1" d="M517.9,349.8c1.9,0.2,1.8-1.6,2.1-2.4c0.4-1.4-0.9-2-2.3-2.2c-1.5,0.2-1.8,1.3-1.7,2.6
		C516.1,348.8,516.6,349.7,517.9,349.8z"/>
	<path class="st1" d="M503.8,339.8c1.1,1.1,1.8,2.4,3.4,1.9c0.2-0.1,0.4-0.9,0.2-1.3C506.6,338.8,505.3,339.7,503.8,339.8z"/>
	<path class="st1" d="M635,215.5c0.8-0.3,0.8-1.1,0.7-1.8c-0.1-0.5-0.2-1.3-1-1.1c-1,0.2-0.9,1-0.7,1.7
		C634.1,214.8,634,215.5,635,215.5z"/>
</g>
</svg>
