<?xml version="1.0" encoding="utf-8"?>
<!-- Generator: Adobe Illustrator 25.2.3, SVG Export Plug-In . SVG Version: 6.00 Build 0)  -->
<svg version="1.1" id="Capa_1" xmlns="http://www.w3.org/2000/svg" xmlns:xlink="http://www.w3.org/1999/xlink" x="0px" y="0px"
	 viewBox="0 0 723.9 1483.4" style="enable-background:new 0 0 723.9 1483.4;" xml:space="preserve">
<style type="text/css">
	.st0{opacity:5.000000e-02;fill:#FFFFFF;}
</style>
<path class="st0" d="M372.3,1172.9c-2.4,2.9-2.9,5.8,0.2,8.7c4.2,3.8,8.8,7.4,8.2,14c-0.7,7.8-5.1,13.4-10.8,18.2
	c-2.1,1.7-4.8,2.7-6.6,4.6c-1.7,1.8-2.8,4-3.2,6.4c-0.1,0.9,2.5,2.6,4.1,3.2c7.7,3,9.7,11.1,6.9,18.6c-2.6,7-7,12.7-13.8,16.2
	c-0.6,0.3-1.1,0.7-1.7,1.1c-0.2,0.1-0.3,0.4-0.6,1c3.4,3.3,11.2,2.5,9.9,10.5c-1,6.3-5.4,8.5-11.3,10.2c1,2.1,2.1,4.1,3.3,6.1
	c1.8,2.5,4.1,4.7,5.9,7.2c5.1,7.1,3,13.9-5.2,17.1c-1.6,0.6-3.2,1.1-5.9,2c1.9,0.6,2.9,1,3.8,1.2c7.5,1.8,10.2,8.6,5.6,14.8
	c-1.7,2-3.7,3.8-6,5.2c-3.5,2.5-3.7,4.5-0.1,7c1.6,1.2,3.4,2.1,5.1,3.2c5.9,3.9,6.1,10.1,0.3,14.1c-2.3,1.6-4.8,2.9-7.2,4.3
	c9.9,9,9.4,13.6-2.6,22.6c1.7,2.5,3.5,5,5.1,7.6c1.2,2,2.4,4.4-0.4,6c-2.3,1.3-3.9-0.4-5.2-2.4c-1.6-2.5-3.5-4.8-5.2-7.2
	c-2.8-4-2.1-7.2,1.9-10c0.7-0.5,1.4-0.8,2.1-1.2c5.3-3.3,5.5-5.4,0.6-9.1c-5.2-4-4.9-9.3,0.7-12.7c2.5-1.5,5-2.8,8.3-4.7
	c-2.7-1.8-4.5-3.2-6.4-4.3c-7-3.9-9.7-14.2,0.2-18.7c1.3-0.7,2.5-1.6,3.4-2.7c2.4-2.9,1.5-5-2.1-6.3c-2.1-0.7-4.6-1.5-5.8-3.1
	c-2.7-3.6-0.8-8,3.7-9.6c10.2-3.8,10.5-5.7,3.4-14.2c-2.5-3-4.4-6.3-5.6-10c-1.6-4.7-0.2-6.5,4.5-8.2c1.3-0.4,2.5-0.9,3.6-1.7
	c2.8-2.2,2.4-4.7-0.8-6.3c-1.2-0.5-2.4-1.1-3.5-1.9c-4.3-3.2-4.3-8.1,0.3-10.8c5.5-3.2,9.9-8.1,12.4-13.9c2.7-6.1,0.8-10.8-5.4-13.2
	c-11-4.4-13.8-18.3-5.5-27c5-5.2,4.8-10.4-0.5-15.3c-3.8-3.5-4.2-4.8-4.6-15.1c-1.4-0.1-2.8-0.1-4.2,0c-8.3,2-15.6-0.7-22-5.4
	c-5.6-4-11.3-4.9-17.8-3.7c-1.4,0.2-2.9-0.2-4-1c-6.6-5.1-13.1-10.2-19.4-15.7c-4.5-3.9-9.3-7-15.1-8.1c-8.1-1.6-13.9-6.2-18.4-12.8
	c-2.1-3.1-4.9-4.9-8.3-5c-6.4-0.2-10.9-3.5-14.8-8c-8.3-9.6-16.2-19.4-24.8-28.7c-8.3-9-13.3-19.7-18.1-30.7
	c-1.4-3.5-3.3-6.7-5.6-9.7c-5.3-6.5-8.7-13.7-11.3-21.6c-1.4-4-3.4-7.8-6.1-11.2c-6.9-9-11.2-18.9-10.9-30.4
	c0.1-6.4,0.4-12.8,0.7-19.2c0.3-6.9-1-13.7-3.8-20c-0.6-1.2-1.4-2.3-2.4-3.2c-6.7-5.6-9.3-13-9.1-21.5c0.2-8.5,0.6-16.9,0.8-25.4
	c0.3-12.4-2.8-24.2-6.5-35.9c-0.2-0.7-0.5-1.3-0.9-1.8c-9.2-10-6-20.9-3-32.2c1.9-6.9,2-14.3,2.4-21.5c0.2-3.7-0.6-7.5-1.1-11.2
	c-0.7-5.2,0.2-10,4-13.8c4.2-4.1,8.7-8,12.9-12.1c3.9-3.8,7-7.8,5.5-14.2c-1.1-4.7,3.5-9.7,10-12.2c3.6-1.4,7.4-2.5,10.9-4.1
	c5.7-2.5,9.4-7.4,13.6-11.6c2.8-2.8,4.8-6.5,6.8-10c5.4-9,13.7-11.4,23.5-10.4c4.4,0.4,8.5,0.3,12.1-2.8
	c7.1-6.1,14.6-11.9,21.6-18.2c8.3-7.6,18.5-8.9,28.9-8.8c5.8,0.1,10.6-0.7,14.4-5.3c2.7-3.2,6.6-3.8,10.6-4
	c11.6-0.4,22.8,1.9,33.7,5.4c11.7,3.8,23.8,4.2,35.8,4.6c13.5,0.5,27.1,0.6,40.6,0.9c7.1,0.1,14.3,1.3,21.2,0
	c6.5-1.2,12.6-5,18.9-7.6c0.5-0.2,0.9-0.9,1.3-0.8c5.1,0.4,6.5-3.7,8-7c6.9-15,15-29.7,17.7-46.2c3.7-21.8,8.8-43.5,10.2-65.7
	c1-15.5,0-30.5-4.6-45.4c-4.5-14.4-14.1-24.7-26.3-32.4c-3.3-2.1-8.8-2.5-12.8-1.6c-6.8,1.5-13.3,4-19.4,7.2
	c-7.8,4.1-14.8,9.9-23.8,11.6c-17.3,3.2-34.1,1.8-50-5.7c-9.5-4.5-19.4-6.1-29.6-7.2c-15.6-1.7-31.2-3.5-46.8-5.3
	c-5.1-0.6-8.6-3.3-9.8-8.2c-0.9-3.6-3.2-4.7-6.5-5.2c-11.7-1.8-19.9-8.5-26.2-18.3c-3.7-5.9-1.9-16.8,6.8-20.5
	c10.7-4.6,22-5.8,33.3-7.2c10.9-1.4,21.8-2.9,32.7-4.9c5-1,9.8-2.7,14.3-5.1c7.7-4,8.5-9.9,3.2-16.7c-4.8-6.3-9.5-12.7-14-19.2
	c-2.1-3-4.7-4-8.3-4.8c-17.5-3.6-34-8.9-41.2-27.9c-6.2-16.3-3.3-31.1,7.3-44.6c2-2.5,4.1-5,6.1-7.5c5-6,12.1-7.1,19.2-8
	c9.9-1.3,18.8,2.1,27.3,6.8c4.3,2.4,8.7,4.9,13.1,7.1c4.9,2.5,10.6,2.8,15.7,0.8c-4.1-2.9-7.8-5.8-11.6-8.3
	c-20.7-13.5-21.4-45.6-4.1-63.5c20.7-21.4,51-20.6,71.9-2.4c14.3,12.4,22.4,27.7,21.8,46.9c-0.1,4.2-1.1,8.4-1.7,13.2
	c5.7,0,11-0.3,16.3,0.1c24.6,1.8,43.5,16.7,48.8,40.4c2.1,8.4,1.3,17.3-2.2,25.3c-2.7,5.9-5.3,12-9,17.3c-4.8,7-12.2,10.7-19.9,13.9
	c-11,4.5-17.3,13.3-21.2,24c-1.7,4.7-0.5,9.3,2.4,13.4c5.9,8.3,13.9,13.8,23.5,16.9c11.6,3.9,23.3,7.4,34.9,11.1
	c6.9,2.2,10.9,6.9,12.8,13.8c0.6,2.4,1.9,4.7,3.7,6.5c16.5,15.6,22.7,35.5,23.6,57.4c0.3,7.9,1.5,15.7,3.5,23.3
	c1.9,7.1,1.6,14.9,1.6,22.4c0,13-0.5,26.1-1,39.1c-0.7,17.7-4.3,34.6-13.7,50c-2.4,4-4,8.5-4.5,13.2c-1.6,15.8-9.5,28.4-20.7,38.6
	c-10.1,9.2-20.9,17.7-32.3,25.3c-6.5,4.5-14.4,7-21.6,10.3c7,4,12.3,11.4,22.4,11.5c7.2,0.1,13.4,4.3,18.2,10.2
	c4.3,5.2,8.9,10.1,13.7,14.8c4.3,4.4,9.6,6.8,16,6.1c5.6-0.7,9.4,1.8,12.9,5.8c6.7,7.7,14.3,14.7,20.5,22.7c3.8,4.9,5.8,11.3,8.8,17
	c1.5,2.9,3.4,5.7,5.5,8.2c1.5,1.8,3.9,2.9,5.7,4.5c5.5,4.7,8.3,10.6,6.4,17.9c-0.9,3.3,0.1,5.2,2.6,7.2c2.5,2,4.6,4.4,7,6.6
	c4.2,3.9,5.3,8.6,4,14c-1.1,4.6,0.4,8,4.4,10.1c6.1,3.2,7.5,7.9,6.1,14.5c-1.8,8.5-1.1,16.6,5.3,23.8c5.4,6,5.2,11.6,0.3,18.2
	c-5.5,7.4-3.9,15.1-0.8,22.5c1.8,4.2,2.5,7.8,0.2,11.8c-3.4,5.9-2.2,12.4-1.7,18.5c0.6,7.8,1.9,15.6-0.8,23.2
	c-1.3,3.7-3.1,7.6-5.7,10.4c-3,3.3-4.9,6.8-5.1,11c-0.6,9.6-5.1,17.3-11.7,23.6c-9.5,9.1-17.1,19.7-24.8,30.2
	c-4.3,6.1-9.7,11.2-15.9,15.3c-7,4.5-12.6,10.4-15.1,18.9c-1.7,5.7-6.1,9.6-11.8,11.3c-12.5,3.8-23.8,9.9-35,16.3
	c-7.7,4.4-15.9,8-23.8,12c-6.3,3.2-13.6,4-20.4,2.1c-6.7-1.7-12.8-1.3-18.9,2.4c-4.4,2.7-9.9,2.7-14.4,0.1c-7-4-14-4.8-21.7-3
	C379,1173.5,375.8,1172.9,372.3,1172.9z M375.3,1081.7c8.4-0.2,16.8-0.3,25.2-0.7c4.5-0.3,9-0.9,13.5-1.7c7.6-1.3,15.3-2.5,22.9-4.2
	c5.8-1.4,12-2.6,17.1-5.5c9.9-5.6,19.2-12.1,30.4-15.3c3.3-0.9,7.3-4.4,8.2-7.5c2-7,5.7-11.8,12.1-15.2c3.7-1.9,7.1-4.7,7.8-9.2
	c1.2-8.5,5.3-15.2,11.1-21.4c2.2-2.4,3.3-5.9,4.4-9.1c1.5-4.4,1.8-9.5,4-13.4c4.6-8,4.9-16.4,3.4-25c-1.6-9.2-5.1-18.3-5.8-27.5
	c-2-25.8-12.7-48.1-26.9-68.7c-16.5-24.1-34.9-46.8-57.4-65.8c-11.2-9.4-23-17.8-38.3-20c-20.4-3-39.3,8.3-46,26
	c-3.6,9.6-5.6,19.7-5.8,29.9c-0.7,20.8,0.7,41.3,8.3,61c8.4,21.7,16.8,43.5,24.3,65.6c6.6,19.5,6.1,38.4-7.3,55.7
	c-6.2,8-9.8,17.5-7.4,27.9c1.2,5.2,3.8,10.2,6.2,15.1c3.9,7.9,4.9,15.5-0.5,23.2C377.4,1077.7,376.3,1079.7,375.3,1081.7
	L375.3,1081.7z M351.9,1074.9c4.6-6.7,4.7-12.1,1.1-17.8c-6-9.6-8.6-20.1-6.3-31.2c1.7-8.7,4.9-17,6.8-25.7
	c2.1-9.7,5.1-19.2,3.8-29.4c-1.8-13.9-6.3-26.9-11.8-39.6c-3.8-8.9-7.5-17.9-12.4-26.2c-6.4-10.9-12-21.9-14.3-34.3
	c-1.1-5.8-2.2-11.6-3.1-17.5c-3-21.3-4.1-42.7,3.1-63.5c7.5-21.8,18.4-41.4,40.9-51.4c0.3-0.1,0.4-0.6,1.1-1.5
	c-13.9-1.8-27.3-3.8-40.7-5.4c-12.2-1.5-24.6,0.4-35.9,5.5c-21.7,9.7-37.6,26.6-53.1,43.7c-4.1,4.5-7,10.1-10.1,15.4
	c-1.5,2.6-2.6,5.4-3.2,8.3c-0.9,4.2-1.5,8.4-1.8,12.7c-0.3,4-1,8.2,0,11.9c2.1,7.7,5.1,15.3,7.9,22.8c2.6,6.4,3.4,13.4,2.1,20.1
	c-0.7,3.6-0.3,7.4,1.1,10.8c3.8,8.4,8.1,16.7,12.8,24.6c4.2,7,6.9,14.2,6.1,22.5c-0.9,9,0.9,17.6,4,26.1c1.5,4,3.1,8.1,3.6,12.3
	c0.7,5.5,3.2,9.2,7.9,11.8c7,3.7,10.5,10.3,12.1,17.3c1.3,5.8,4.2,9.5,9,12c7.3,3.6,13.2,9.7,16.4,17.1c2.2,5.3,3.8,10.9,5,16.5
	c1,4.3,3.3,6.5,7.4,7.3c5.6,1.1,10.5,3.6,13.2,9c1.8,3.6,4.6,4.8,8.5,4.9c5.9,0.2,11.4,2,15.3,6.8
	C349.6,1072.3,350.7,1073.5,351.9,1074.9L351.9,1074.9z M392.7,454.4c0.1,0.4,0.1,0.9,0.2,1.3c-1.1,0.6-2.2,1.1-3.4,1.5
	c-10.4,1.4-20.7,3.5-31.1,3.7c-15.6,0.2-31.2-0.8-46.6-2.8c-12.8-1.7-26-0.8-39-1.1c-1.5,0-3,0-4.6,0c2.4,5.2,2.8,5.9,6.3,6.2
	c13.9,1.4,27.8,2.7,41.7,3.9c13.1,1.1,26.3,1.7,38.4,7.8c4.4,2.3,9.2,3.9,14.1,4.9c18.5,3.7,36.4,3.4,52.3-8.7
	c1.4-1,2.9-1.9,4.5-2.6c7.3-3.3,14.2-7.7,22.8-7c0.8,0.1,2.1-1.1,2.6-2c4.4-7.1,6.9-15.2,7.2-23.6c0.2-5.1-0.7-9.2-6.3-12.3
	c-6.1-3.6-11.6-8.1-16.2-13.5c-7.4-8.4-7.6-17.9-1.8-27.6c2.1-3.5,4.3-7,6.7-10.9c-12.5-0.8-24.9-0.1-35.9-7.6
	c-0.2,23.5-13.8,34.5-36,38.4c1.6,0.6,2,0.8,2.5,1c13.9,4.9,24.4,13.3,28.5,28.1c1,3.7,4.5,5.9,8.7,5.6c1.7-0.1,3.5-0.4,5.2-0.7
	c8.5-1.4,12.7,1.7,14.8,10c1.2,4.9-5.5,15.3-11.6,14.6c0.9-1.3,1.5-2.3,2.3-3.4c1.4-2,2.9-3.9,4.2-5.9c2-3.2,0.8-6.3-1.1-9
	c-1.7-2.4-4.2-3.1-7.1-2.3c-2,0.4-4,0.7-6,0.8c-6.7,0.5-11.6-2.7-13.4-8.7c-4.3-14.2-14.4-22.2-28.2-26c-5.9-1.6-12.2-2.2-17.9-4.4
	c-6.2-2.5-11.9-6.3-17.9-9.5c-5.1,9.5-10.2,14.2-20.8,16.3c-15.9,3.1-32.1,5.2-48.2,7.5c-8.2,1.2-16.2,2.8-23.2,7.3
	c-4,2.6-4.8,5.2-2.8,8.9c4.4,8.1,10.5,14.7,20.1,15.9c10.8,1.3,21.6,1.7,32.5,2.4c11,0.7,21.9,1.2,32.9,1.9
	c9.4,0.6,18.7,1.7,28.1,1.9c10.2,0.2,20.3-0.3,30.5-0.4C384.6,454.3,388.7,454.4,392.7,454.4L392.7,454.4z M189,725.3
	c6.9-0.5,13.4-0.5,19.6-1.7c8.5-1.6,16.3-2.1,22.5,5.3c1.3,1.3,3,2.2,4.9,2.6c4.7,1.3,9.4,2.2,14.2,2.8c3.2,0.3,7.4,0.7,9.7-1
	c5.1-3.5,9.5-7.8,13.2-12.7c6.4-8.8,11.6-18.4,17.7-27.4c3.2-4.8,6.9-9.2,11-13.3c2.3-2.2,5.9-4.4,8.8-4.3
	c8.2,0.3,16.5,1.7,24.7,2.8c2,0.2,3.9,0.7,5.8,1.1c6.2,1.2,11.9,3.7,14.4,9.7c2.4,5.5,3.5,11.5,5.3,17.3c1.4,4.7,2.6,9.5,4.5,14.1
	c1.2,2.9,3.8,3.7,7.1,2.9c5.7-1.3,9.1-5.1,11.5-9.9c3.5-6.7,5.6-14,6-21.6c0.1-1.3,0.7-2.4,1.7-3.2c0.5-0.4,2.4,0.4,3,1.1
	c5.2,6.5,10.1,13.2,15.4,19.5c2.5,3,5.4,6.2,8.8,8c13,7,10.2,8.3,17.6-5.5c5.1-9.5,9.8-19.1,15-28.5c3.3-5.9,8.7-7.4,14.9-4.6
	c1.9,0.9,3.6,2.4,5.6,3.2c6.7,2.9,13.5,5.8,20.4,8.2c3.2,1.1,8.2-2.4,8.5-5.7c1.2-10.4,3.2-20.7,1.2-31.3
	c-1.9-10.4-4.2-20.5-11.3-28.9c-3.1-3.7-4.1-8.7-2.8-13.4c2-8.5,7.3-14.7,14.1-19.9c4.3-3.2,8.3-6.8,11.8-10.8
	c6-7.1,5.3-13.6-1.2-20c-0.9-0.9-1.7-1.7-2.5-2.6c-6-6.7-8.6-15-8.8-23.7c-0.2-8.2,0-16.5,7.5-22.4c1.3-1,2.2-2.7,3.3-4.1
	c2.9-3.8,2.7-7.7,0.3-11.6c-1-1.7-2.3-3.3-3.5-4.9c-2.6-3.6-4.2-7.5-3.5-12.1c0.7-4-1-6.9-3.8-9.7c-2.4-2.2-4.5-4.6-6.3-7.3
	c-3.5-5.2-1.5-10.1,4.4-12c1.7-0.6,3.5-1.1,5.2-1.6c-0.9-4.9-3.7-8.4-8-9c-2.5-0.3-5.9,2-8,4.1c-5.5,5.7-10.5,11.9-15.7,17.8
	c-0.9,1-1.8,1.8-2.8,2.7l-1-0.9c5-10.4,13.6-17.8,21.8-25.8c-9.8-3-19.5-5.9-29.8-9c1.1,12.3-1,23.6-8.6,33.4
	c12.6,2.9,21.3,10.8,28.1,20.4c10.3,14.6,14.1,31.6,14.5,49.2c0.4,19.2-2.2,38-5.9,56.9c-3,15.4-3.9,31.3-10.6,45.8
	c-5.6,12.2-11.4,24.3-18.1,35.9c-4.4,7.5-12.4,10.3-21.1,10.5c-3.1,0.1-6.2,0.1-9.4,0.3c-2.3,0.1-4.6,0.7-6.8,0.6
	c-7.9-0.3-15.8-0.9-23.7-1.1c-13.2-0.3-26.3-0.2-39.5-0.7c-6.6-0.2-13.1-1.1-19.5-2.5c-12.8-2.9-25.4-7-38.8-7
	c-3.7,0-6.8,0.9-9.4,3.6c-4.3,4.3-9.5,5.3-15.5,5c-9.2-0.5-18.2,0.8-25.7,7.1c-7.6,6.4-15.4,12.6-23,19c-4.4,3.6-9.4,4.3-14.8,3.8
	C199.4,707.2,195.6,712.8,189,725.3z M339,322.4c5.3-4.4,10.3-9,15.6-12.9c8.6-6.3,17.7-11.3,29-9.6c1.1,0.2,2.7-1.1,3.7-2.1
	c5-5.4,9.4-11.4,15-16.2c4.5-3.8,10.3-6.1,15.4-9.2c1.2-0.8,2.1-2,2.5-3.4c0.6-3.6,0.9-7.2,0.8-10.8c-0.8-22.9-12-39.7-31.8-50.3
	c-15.1-8.1-30.7-8.1-45.3,2.3c-10,7.1-16.4,16.8-18,29c-1.9,15.5,3.7,27.8,16.7,36.8c8,5.5,15.9,6.4,24.4,1.5
	c7.3-4.3,10.2-11.7,7.2-18.8c-2.2-5.1-8.4-8.8-13.5-7.1c-2.4,0.8-4.2,3.7-5.8,6c-0.4,0.5,0.4,2.9,1.2,3.3c2.6,1.2,4.5-0.3,6.3-2.2
	c0.8-0.7,1.8-0.9,2.8-0.6c0.9,0.7,1.4,1.8,1.4,2.9c-0.4,1.6-1.3,3.1-2.6,4.3c-2.8,2.4-8.5,2.6-11.4,0.6c-3.4-2.4-4.1-5.8-3.4-9.7
	c0.9-5.2,6-10.1,11.2-10.8c10.3-1.3,19.7,5.9,21,16.2c0.3,2,0.2,4-0.2,6c-2,9.8-11.7,17.3-23.5,18.3c-1.3,0.1-2.6,0.4-3.7,1
	c-8.1,5.1-16.5,5.3-24.9,1c-6.5-3.3-12.7-7.1-19.1-10.3c-7.5-3.8-15.6-5.4-23.3-1.8c-6.4,3-11.9,7.4-16.2,13
	c-11.9,15.3-12.3,34.5-0.4,49.5c6.3,7.9,15.3,11,24.5,13.9c22.9,7.2,42.9-14.2,38.4-35.7c-1-5-6.1-9.7-11.2-10.3
	c-7-0.9-12.5,4.5-10.6,10.4c1,3,3.3,3.7,5.7,2.9c2.5-0.7,2.6-2.8,1.8-5.3c-0.4-1.3,0.4-2.9,0.6-4.4c1.6,0.7,3.7,1.1,4.6,2.3
	c3.4,5-0.8,12.9-6.9,13.2c-4.2,0.2-8.4-0.7-10.3-4.9c-2.1-4.7-2.3-9.7,1.1-14.1c4.6-5.9,11.1-6.6,17.6-5.1
	c6.4,1.4,11.3,6.4,12.6,12.8C338.5,316.7,338.9,319.5,339,322.4z M299.6,1051.2c-1.4,6.8-3.4,14.4-4.3,22
	c-1.6,13.7-2.3,27.6-3.6,41.3c-1.3,13.3,1.3,26.7,7.4,38.6c2.5,5,6,6.9,11.5,7c3.9,0,8.3,0.4,11.5,2.3c8.1,4.9,16.1,8.7,26.1,6.9
	c6-1,11-4.7,11.3-10.9c0.1-3.1-0.3-6.2-3.8-7.8c-7.6-3.5-9.4-10.3-9.7-17.7c-0.1-2,1.3-4.3,2.5-6c2-2.8,4.6-5.2,6.7-8
	c5.3-6.7,4.7-14.8-1-21.1c-5-5.6-9-11.6-4.5-19.3c-1.7-1.3-3.6-2.3-4.8-3.8c-3.3-4-7.6-5.6-12.5-5.5c-5.8,0-9.7-2.3-12.1-7.5
	c-1.4-3.2-3.9-4.7-7.3-5.6C308.6,1054.8,304.2,1052.8,299.6,1051.2L299.6,1051.2z M376.8,731.7c-0.7-0.4-1-0.5-1.3-0.7
	c-0.4-0.2-0.7-0.3-1.1-0.4c-10.7-2.1-15.1-9.5-17.1-19.4c-1.1-6.2-2.7-12.3-4.9-18.2c-1.1-2.9-4-6.4-6.8-7.2
	c-10.2-3.1-20.7-5.7-31.5-5.3c-2.8,0.1-6.2,0.9-8,2.7c-4.2,4.3-8,9-11.4,14c-6.7,9.7-12.5,20.2-19.7,29.4
	c-5.9,7.5-12.9,14.8-24.3,12.7c-4.1-0.7-8.2-1.5-12.3-2.2c-5.1-0.9-9.2-3.3-13-6.8c-2.2-1.9-4.9-3-7.8-3.1
	c-9.9,0.2-19.8,0.9-29.7,1.6c-1.6,0.1-3.2,1.7-4.7,2.7c-2.7,1.8-5.3,3.8-8.1,5.4c-5.3,2.9-10.8,5.6-15.8,8.2
	c1.1,0.8,2.7,1.5,3.6,2.7c2.8,3.6,6.2,7,8,11c6.2,14.3,12,28.9,17.6,43.5c4.6,12,10.3,23.3,18.7,33.1c1.3,1.3,2.7,2.4,4.1,3.5
	c0.1-0.7,0.1-1.3,0-2c-2.5-8.6-3.1-17.2,0.6-25.6c0.3-0.7,0.3-1.6,0.1-2.3c-0.7-2.4-1.6-4.7-2.2-7.1c-3.1-13.7-6-27.5-9.1-41.2
	c-1.1-4.6-0.3-6,4.5-6.1c4.4-0.2,8.8,0,13.2-0.2c2-0.1,4.2-0.1,5.8-1.1c9.4-5.4,19.7-5.5,30-6.2c1.7-0.2,3.3-0.7,4.7-1.6
	c7-4.4,13.8-9.4,21-13.4c8.2-4.6,15.6-10.4,22.1-17.1c4.8-4.9,9-9.9,15.8-12.6c3-1.2,4.8-1.1,6.7,0.7c3.1,2.9,6.1,6.1,9,9.2
	C345.1,724.9,357.8,735,376.8,731.7L376.8,731.7z M419.8,278.9c1.7,0.3,3.4,0.6,5.1,0.9c21.2,3.6,33.2,15.2,36.2,36.4
	c1.8,12.1-2.7,22.8-13.3,28.9c-7.8,4.7-17.1,6.2-26,4.2c-11.6-2.6-21.1-11.9-22.4-22.6c-1.5-12,4-26.1,16.4-31.2
	c6.8-2.8,16.3-1.7,20.4,2.8c4.1,4.4,4.3,11.1,0.6,17.6c-2,3.6-5.6,4.7-8.3,2.3c-0.6-0.6-1-1.5-1.1-2.4c0-0.4,1.1-1.2,1.7-1.2
	c3.4-0.1,4.5-2.6,4.6-5.1c0-3.2-0.9-6.4-4.6-7.7c-11.5-4.2-25,7.1-24.1,20.2c0.8,12.8,11.8,22.5,24.6,21.8c0.2,0,0.4,0,0.6,0
	c4.3-0.4,8.8-0.9,12.5-2.7c4-2,9.1-4.8,10.5-8.5c4.6-12.2,2-24-6.4-33.9c-9.4-11.1-22.4-13.5-36.2-12.9c-2.6,0.1-5.6,0.7-7.5,2.3
	c-11.1,9.1-17.3,20.7-17.2,35.3c0.1,1.5,0.8,3,1.9,4c8.7,7.6,13.5,17.2,15.7,28.3c0.2,1.2,0.9,2.8,1.9,3.2c3.8,1.7,7.6,3.7,11.7,4.2
	c8,1.1,16,1.6,24.1,1.6c11-0.1,20.5-4.7,29.5-10.7c7.5-5,10-12.8,11.8-20.7c1.2-5.5,2-11.6,1.1-17.1c-3-19.1-14.5-31.3-32.8-37.1
	C440.7,275.5,429.8,275.6,419.8,278.9z M528.7,1003.4c-5.7,4.3-10,10-11,17c-1,7.1-4.6,11.6-10.3,14.9c-5.4,3.1-9.4,6.4-10.2,13.4
	c-0.8,6.7-6.6,10.2-12.8,11.8c-9.1,2.4-16.6,7.2-24.1,12.5c-2.3,1.6-4.7,3.2-7.5,5.1c1.9,1.1,3.1,2,4.4,2.6
	c16.4,8,33.8,13.6,51.8,16.6c13.8,2.3,27.2,0.4,40.8-1.6c3.9-0.6,5.9-2.4,5.5-6.4c-0.8-7.9-1.3-15.8-2.6-23.5
	C548.9,1043.6,543,1022.2,528.7,1003.4L528.7,1003.4z M153.8,971.5c-0.2,0.4-0.4,0.9-0.5,1.4c-2.4,19.7,7.8,34.9,17.6,50.2
	c0.1,0.2,0.5,0.3,0.7,0.4c9.5,8.8,20.9,14.7,32.9,18.8c6.3,2.2,13.4,2.2,20.1,2.4c11.5,0.4,23.1,0,34.6,0.6c6.9,0.4,8.2,2.7,6.4,9.6
	c-2.1,8-3.4,16.3-3.9,24.5c-0.8,11.5,2.9,21.9,7,31.8c3.5,8.4,7.6,17.2,14.5,24c2.1,2.1,3.1,5.1,4.7,7.7c0.5-0.9,0.6-1.9,0.4-2.9
	c-0.9-6.6-2.2-13.2-2.7-19.9c-0.2-5.2,0-10.5,0.5-15.7c1.2-15.8,2.2-31.6,6.8-47c1.4-4.6,1.5-9.5,2.2-14.3c0.3-2.6-0.6-3.8-3.5-4.2
	c-7-1.1-14-2.4-20.9-4.1c-11-2.6-22-5-32.7-8.5c-10.4-3.5-20.5-8-30.5-12.5C186.3,1004.2,167.6,991.1,153.8,971.5L153.8,971.5z
	 M375,1086.5c1.4,3.3,2.6,5.7,3.6,8.2c2.2,5.8,3.6,11.8,0.7,17.6c-2.6,5-5.5,9.8-8.8,14.3c-3,4.3-2.9,7.4,1.1,10.8
	c0.8,0.7,1.7,1.3,2.5,2c7.5,5.9,9.5,16.3,4.9,24.6c-0.9,1.6-1.8,3.1-2.9,5c0.6,0.1,1.1,0,1.7,0c9.6-2.7,19.1-5,28.4,0.8
	c0.8,0.5,2.8,0.1,3.6-0.6c3.8-3.3,8.1-6.5,11.1-10.5c11.2-14.8,17.8-31.8,22.9-49.4c2.8-9.5,3-19.2,2.3-29.8
	c-12,2.4-23.5,5.6-35.1,6.7C399.2,1087.4,387.4,1086.5,375,1086.5L375,1086.5z M383.5,305.3c-4.6-1.1-9.4-0.6-13.6,1.6
	c-15.9,7.4-28.2,18.6-35.5,34.8c-5.2,11.4-8.1,23.5-5.2,36.1c0.7,2.7,2,5.2,4,7.2c9.8,10.1,22.3,13.6,35.8,11.6
	c16-2.4,27.3-12,29.1-27.4c1.6-13.2-2.5-25.2-11.4-35c-9.4-10.4-21.9-9.3-32.2-2.6c-4.6,3-6.6,7.9-5.8,13.3c0.8,5.1,5.2,6.3,9.5,7.3
	c1.1,0.4,2.3,0.6,3.5,0.7c2.4-0.3,5.9-0.1,6.8-1.5c1.7-2.6,2.3-5.8,1.8-8.9c-0.4-2-3.4-3.8-5.7-5c-0.8-0.4-3.2,1.2-4.1,2.4
	c-1.6,2.2-0.8,4.5,1,6.5c0.1,0.1-0.1,0.5-0.3,1.7c-1.5-0.5-3.6-0.6-4.1-1.6c-1.5-3.1-1.9-6.5,0.1-9.6c2-3.1,4.9-4.7,8.5-4.2
	c6.6,0.9,11.4,7.6,10.7,14.4c-0.9,7.8-6.1,12.5-13.6,11.7c-3.6-0.4-7.2-1.2-10.6-2.3c-4.4-1.5-7.8-4.4-8.8-9.2
	c-1.8-8.7,2.4-17.6,10.2-21.8c8.5-4.5,17.4-5.9,26.7-3C381.5,316.7,382.5,311.1,383.5,305.3L383.5,305.3z M154.9,964.9
	c0.3-0.1,0.6-0.2,0.9-0.2c0.6,1.5,0.9,3.2,1.8,4.5c2,3.2,4.4,6.1,6.9,8.9c12.7,13,27.8,23.4,44.4,30.8c15.3,6.9,30.4,14.3,47,17.7
	c11.3,2.3,22.6,4.8,33.9,7c1.4,0.1,2.8-0.5,3.8-1.6c0.6-0.8,0.3-2.7-0.3-3.7c-2.9-5.7-6.9-10.2-12.8-12.9c-2.1-1.2-4.1-2.5-6-4.1
	c-3.4-2.5-5.7-5.6-6.1-10c-0.3-1.3-1.1-2.3-2.2-2.9c-14.6-6-29.3-11.9-44-17.8c-7.1-2.8-14.3-5.3-21.5-8c-3.3-1.3-6.4-2.8-9.6-4.3
	c-12.4-5.5-24.7-11-37-16.5C154.3,955.9,154.6,960.4,154.9,964.9z M532.5,992.7c6.6-1.2,12.3-1.2,17.3-3.2
	c16.6-6.6,33-13.8,49.5-20.9c0.6-0.3,1-1.5,1.1-2.3c0.6-6.1,0.3-11.9-4.6-16.6c-1.4-1.3-2.3-3.3-3.4-5
	c-14.8-23.2-36.4-37.2-61.7-46.1c1.3,9.3,2.4,18.8,4.2,28.1c1.5,7.9,3.9,15.6,5.5,23.5c2.1,10.8,2.1,21.3-4.1,31.2
	C534.3,984.4,533.9,988.2,532.5,992.7z M262.3,989.6l0.8-0.9c-2.5-1.6-5.1-3.1-7.4-4.9c-15.8-12.8-31-26.1-42.3-43.3
	c-2.5-3.4-5.6-6.4-9.1-8.7c-5.1-3.7-10.7-6.7-16.1-10c-3-1.8-3.8-4.1-2-7.1c2-3.3,4-6.7,6.2-9.9c5.7-8,9.4-16.4,9-26.5
	c-0.3-7.6-0.1-15.3-0.1-23.7c-1.5,1.7-2.4,2.7-3.3,3.6c-7.5,7.9-13.6,17-17.9,27c-5.2,11.5-11.4,22.5-13,35.3
	c-0.3,1.9-0.9,3.6-1.8,5.3c-2.9,5.9-6,11.7-8.8,17.6c-0.4,1.4-0.1,2.8,0.7,4c1,1.1,2.3,1.9,3.7,2.3c23.1,8.6,45,20.1,68.9,27
	C241,979.9,251.5,985.2,262.3,989.6L262.3,989.6z M201.9,847.2c-0.4-0.3-0.8-0.5-1.2-0.7c-0.8-0.2-1.6-0.3-2.4-0.4
	c-12.9-2.1-23.3-8.5-31.7-18.4c-4.2-5-8.3-10.2-13.2-14.5c-6.1-5.4-12.8-10-19.3-14.9l-1.1,0.5c0,4,0.5,8.1-0.1,12
	c-0.9,5.8-0.2,10.8,3.9,15.2c7.4,7.9,14.2,16.4,22.1,23.8c6.9,6.4,8,9.7,3.6,18c-7.1,13.4-13.9,26.9-20.6,40.5
	c-1.4,2.9-2.1,6-2.3,9.3c-0.7,9.9,4.3,17.4,12,24.1c3.2-9.4,10-17.1,11.1-27.4c0.3-2.8,1.1-5.5,2.2-8.1c4.8-10.7,9.6-21.3,14.8-31.8
	c2-3.9,4.5-7.6,7.4-10.9C191.7,857.9,196.8,852.7,201.9,847.2z M545.8,807.5c-6.5,0.7-12.1,2.1-17.7,1.9
	c-10.8-0.4-21.7-1.7-32.5-2.6c-8.3-0.7-16.7-0.2-24.9,1.6c22.4,26.2,44.8,51.8,57.2,84.3c4.8-14.1,10.3-27.6,13.2-41.6
	C544.2,836.9,546.3,822.4,545.8,807.5L545.8,807.5z M282.8,1140.7c-22.3-26.5-32.2-55.7-21.3-89.8c-0.8-0.3-1.7-0.5-2.6-0.7
	c-11.1-0.2-22.3-0.9-33.4-0.4c-11.2,0.5-21.6-1.5-31.3-7c-6.7-3.8-13.2-7.8-19.8-11.7c1,2.5,2.2,4.8,3.8,7c3.5,5.5,7.2,11,10.4,16.6
	c1.8,3.2,4,5.5,7.7,6.1c7.9,1.2,15.9,2.2,23.8,3.7c8.6,1.6,11.3,5.2,11.4,13.9c0,1.2,0,2.4,0,3.6c0.3,10.7,2.8,20.3,11.2,27.9
	c4.7,4.2,8.7,9.2,11.8,14.6c2.4,4.7,6.5,8.2,11.4,10C271.2,1136.7,276.6,1138.5,282.8,1140.7L282.8,1140.7z M420.4,1166.8
	c2-0.6,4-1,6-1.3c2.4-0.2,4.8-0.1,7.2,0.2c3.2,0.4,6.3,1.3,9.5,1.6c1.5-0.1,2.9-0.7,3.9-1.8c15.1-16.4,19.1-37,21.4-58.1
	c0.3-1.3,1.1-2.4,2.3-3.2c0.4-0.3,1.8,0.5,2.6,0.9c1.7,0.8,3.2,2,4.9,2.5c9.7,2.6,19.4,5.5,29.2,7.3c11,2,22.3,3.1,31-6.7
	c1-1.1,2.8-1.6,4.1-2.6c1.8-1.4,3.4-2.9,5.1-4.4c-16.6,2.9-33.6,2.5-50.1-1.1c-16.4-3.5-32-10-46.2-19
	C451.2,1113.9,440.7,1142.3,420.4,1166.8L420.4,1166.8z M133.1,793.9c3.6,2.1,6.9,3.6,9.6,5.8c8.2,6.3,16.3,12.6,24.1,19.4
	c4.7,4.1,8.2,9.7,12.9,13.7c7.4,6.4,16.7,8.2,26.5,9.3c-4.4-5.9-8.9-10.9-12.3-16.6c-7.6-12.9-11.9-27.3-16.5-41.4
	c-4.5-13.8-9.8-27.1-21.6-38.3c-0.5,2.8-1.4,4.8-1.1,6.6c0.7,4.5,0,8.7-3.1,12c-4.5,4.8-9,9.6-13.9,14
	C132.6,783,130.8,788.2,133.1,793.9z M504.3,685.9c0.5,0.2,1,0.5,1.5,0.7c2.8-5,6.2-9.7,8.1-14.9c2.4-6.7,2.9-14,5.2-20.7
	c2-5.8,0.1-10.5-2.6-15.2c-1-1.6-2.1-3.1-3.3-4.6c-6-8.4-5.9-14.4-0.1-22.9c4.4-6.4,8.9-12.8,12.9-19.5c4.6-7.7,6-15.9,1.5-24.1
	c-2.3-4.1-5-7.9-8-11.5c-5.8-7.2-9.8-16-3-26.6c3-4.9,6.3-9.7,9.8-14.2c2.7-3.4,4.1-7.6,4-11.9c0.3-19.2-9.6-33.4-22.9-45.7
	c-1.3-1.2-5.1,0.4-7.8,0.7c0.3,1.8,0.1,3.8,1,5.2c1.5,2.1,3.2,4,5.1,5.6c3.6,3.3,5.5,8.1,5.1,13c-0.2,2.8,1,5.9,2.1,8.6
	c0.8,1.9,2.6,3.4,3.8,5.2c4.2,6.4,4,12.2-0.5,18.3c-1.5,2-3.6,3.7-4.9,5.8c-1.7,2.7-3.8,5.6-4.4,8.7c-2.4,12.9,1.6,23.9,11.7,32.4
	c4.4,3.7,5.3,8.2,4.6,13.4c-1.6,11.2-8.6,18.6-17.6,24.3c-5,3.2-8.3,7.6-10.9,12.7c-2.5,4.9-1.8,9.6,2,13.8c1.4,1.6,2.7,3.4,3.6,5.3
	c6.3,12.9,8.7,27.3,6.6,41.6C506.1,674.8,505.2,680.4,504.3,685.9z M551,809c-0.4,0.2-0.8,0.4-1.1,0.6c0,2.5,0.2,5.1,0,7.6
	c-0.8,8.1-1.8,16.3-2.7,24.4c-1.2,9.9-3.1,19.5-7.2,28.7c-3.5,7.7-6.2,15.8-9.5,24.6c31.2,9.8,54.8,28,69.8,56.7
	c2.2-4.1,3.8-7.2,5.5-10.2c1.5-2.5,1.4-5.6-0.4-8c-3.4-5-6.5-10.1-10.2-14.9c-9.2-12-20.3-22.2-33-30.4c-3.5-2.2-5.8-5.7-6.5-9.8
	c-1.3-6.8,0.2-13.3,2.1-19.8c2.1-7.2,4.2-14.4,6-21.7c0.4-1.6-0.7-3.7-1.5-5.3c-1.7-3.7-3.8-7.2-5.6-10.9
	C554.7,816.9,552.9,812.9,551,809z M191,917.1c2,1.2,3.4,2.1,4.9,3c10.1,5.5,19.8,11.3,25.3,22.1c0.5,1,1.1,1.8,1.9,2.6
	c7.6,8.4,15.2,16.7,22.9,25c0.4-0.3,0.7-0.5,1.1-0.8c-0.4-1.5-0.7-3.1-1.3-4.5c-4.4-12.2-7.4-24.5-6.5-37.8c0.3-4-1.4-8.4-3.2-12.1
	c-3-6.3-7.3-12-10.3-18.2c-3.9-8-8.8-16.2-6.1-25.6c2.3-7.9-0.9-14.5-3.5-21.3c-0.9-2.3-3.6-2.5-5-0.6c-4.2,5.4-6.3,11.1-5.2,18.3
	c1.1,6.6,1.2,13.3,0.5,20c-1,8.1-4.8,15.3-9.9,21.7C194.4,911.4,192.9,914.2,191,917.1z M602.4,970.3c-1.3,0.6-2.6,1.1-3.7,1.7
	c-19.8,10.5-39.6,20.9-62.3,23.7c-5.4,0.7-5.9,2-2.7,6.3c12,16.6,19.4,35.2,22.8,55.4c1.6,9.3,2.5,18.7,3.7,28.2
	c3.2-4.1,6.7-8.3,10-12.7c0.5-0.9,0.6-2,0.3-3c-2.3-11.2-4.2-22.4-7.2-33.4c-2.3-8.3-5.3-16.3-8.9-24.1c-2.1-4.8-2.5-4,2.7-5.8
	c13.8-4.7,27.4-10,41-15c2.2-0.8,3-2.4,3.2-4.9c0.3-2.9,1-5.8,2.3-8.4C604.9,975.3,605.1,972.9,602.4,970.3z M433,734
	c-1-0.4-2-0.7-3.1-0.9c-1.1-0.2-2.1-0.2-3.2-0.1c-13.6,1.3-27.2,2.3-40.8,4.2c-14.1,2-27.8,6.3-38.1,16.7
	c-10.5,10.5-18.3,23.4-22.6,37.7c-0.5,1.8-0.9,3.7-1.5,6c8.9-4.7,25.6-19.5,31.9-28.1c8.4-11.3,23.2-15.6,36.3-10.6
	c3.9,1.5,5.7,0.9,8-1.8c8.3-9.6,18-17.3,30.1-21.5C431.1,735.1,432.1,734.6,433,734z M524.9,640c2.6-6.2,5.6-12.1,7.6-18.3
	c4.2-12.9,4.9-26.4,5.6-39.8c0.4-7.5,0.4-15.1,0.5-22.6c0.1-6,0.6-12.1-0.1-18.1c-0.8-5.7-3.3-11.2-4.5-16.9
	c-0.8-3.9-0.7-8.1-1-12.1l-1-0.4c-4.1,6.4-8.1,12.8-12.1,19.3c-2.9,4.8-2.4,9.5,0.5,14.1c1.4,2.1,2.9,4.2,4.6,6.1
	c11.5,13.2,14.1,28,3.6,43.4c-3.8,5.7-7.6,11.4-11.5,17c-3.9,5.6-4.1,9.7-0.4,15.2C519.2,630.9,521.7,635,524.9,640z M573.4,1069.8
	c3.2-3.7,5.9-6.9,8.7-10c2-2,2.7-5,1.8-7.8c-1.8-7-3.2-14.1-4.9-21.1c-1.2-5.3,0-8.7,4.2-11c6.3-3.5,12.6-6.9,18.8-10.3
	c-0.4-5.6-0.8-10.6-1.2-15.4c-14.2,5.7-28.1,11.4-42.3,17.1C566.9,1029.2,571.4,1048.7,573.4,1069.8z M454,1165.2
	c6.3-2.9,12.5-6,18.8-8.8c3-1.2,5.2-3.9,5.8-7.1c1.2-5,2.4-9.9,3.6-14.9c1.3-5.2,2.3-6.1,7.6-5c7.6,1.5,15.2,3.5,22.7,5.2
	c2.6,0.6,5.6,1.6,7.3-1.3c2.2-4,4-8.2,5.7-11.6c-9.2-1.2-18-1.9-26.6-3.7c-8.7-1.8-17.1-4.8-26.3-7.5
	C471.4,1130.2,466.7,1149,454,1165.2z M568,837.4c-0.7,2.5-1.4,4.9-2,7.3c-2.2,8.4-4.6,16.7-6.3,25.2c-1.3,6.3,0,12.1,6.5,15.4
	c6.9,3.6,12.1,9.2,17.5,14.6c4.2,4.2,9.4,7.2,14.2,10.8c-0.6,0.6-1.3,1.2-1.9,1.7c0.3-3.3,0.4-6.7,1-10c0.6-3.1,0.2-5.3-2.8-7.1
	c-5.9-3.5-8.7-8.9-7.3-15.7c1-4.6,0-8.1-3.2-11.3c-1.7-1.9-3.6-3.7-5.5-5.3c-4.1-3.3-5.6-7.2-4.3-12.4
	C575.4,845.4,573.2,840.7,568,837.4z M350.1,846.5c-6.3,4.5-11.9,8.2-17,12.3c-6.9,5.5-7.5,12.8-2.8,20.3
	c5.1,8.1,13.4,12.6,20.2,18.8c4.2,3.8,9.1,6.9,13.7,10.3l0.9-0.6C358.6,887.9,349.9,868.8,350.1,846.5z M545.2,803.7
	c-9-2.5-16.8-5.7-24.9-6.9c-14.6-2.1-29.3-3.2-44-4.1c-13.2-0.8-19-6.7-19.7-19.9c-0.4-7.1-2.4-14.2-3.7-21.3
	c-0.3-0.8-0.7-1.6-1.2-2.3c-3.4,1.9-4.5,4.7-4,8.2c1.4,10.5,2.7,21,4.1,31.5c0.2,1.2,0.7,2.2,1.5,3.1c3.7,3.7,7.5,7.3,11.5,10.7
	c1.2,1,2.7,1.5,4.2,1.3c15.4-2.8,30.8-1.5,46.1-0.1C524.8,804.8,534.4,806,545.2,803.7L545.2,803.7z M542.1,799.7
	c-5.4-5.8-10.5-11.4-15.8-16.9c-0.8-0.9-1.9-1.5-3.1-1.7c-6.4-0.9-12.9-2-19.4-2.2c-8-0.2-16.1,0.6-24.2,0.6c-8,0-11.7-4.1-11.8-12
	c-0.1-4.7-0.3-9.4-0.7-14.1c-0.1-1.4-0.8-3.5-1.9-4c-2.7-1.1-5.5-2-8.4-2.7c1.3,9.2,2.7,18.7,4.1,28.2c1.4,9.2,4.4,12.5,12,13.1
	c7.3,0.6,14.8,0.6,22.1,1.4c9,1,18.1,2.1,27,3.9C528.7,794.9,535.2,797.5,542.1,799.7L542.1,799.7z M497.4,694.6
	c-3-0.2-6.5,0.2-9.7-0.7c-7.2-2.1-14.3-4.2-20.5-8.9c-6.4-4.8-9.7-3.7-13.3,3.3c-4,7.6-7.8,15.3-11.9,22.8c-3,5.6-6.4,11-9.5,16.5
	c2.3,0.6,4.6,1.9,6.9,1.8c3.3-0.2,7.7-0.3,9.5-2.3c5.8-6.4,9.9-14.1,12-22.4c1.4-5.5,3.8-7.1,9.5-6.4c4.4,0.6,8.9,0.6,13.1,1.8
	C490.3,702,493.9,697.9,497.4,694.6z M338.9,796.2c-6.3,3.3-11.3,5.9-16.3,8.7c-0.8,0.7-1.2,1.7-1.3,2.7c-2.2,17.7-1,35.3,2.2,52.2
	c7.4-5.7,14.9-11.5,22.5-17.4c-1.1-1.3-2.2-2.4-3.2-3.7c-2.2-2.9-4.5-5.7-6.5-8.7c-5.4-8.1-4.8-16.3-0.3-24.7
	C337.5,802.6,338,799.4,338.9,796.2z M140.1,896.6c5.6-10.8,11.1-21.4,16.7-32c2.8-5.2,2.5-6.3-2.1-10c-3.1-2.5-6-5.3-8.7-8.3
	c-5.4-6-10.6-12.2-16.1-18.5c-1.7,7.4-3.8,14.8,0.3,22.2c1.9,3.5,4,7.1,4.9,10.9C138.1,872.6,140.9,884.4,140.1,896.6z M370.8,919.4
	c-1.6,7.9-2.8,14.7-4.2,21.4c-4,18.8,0.9,34.8,15.4,47.6c0.8,0.6,1.7,1.2,2.6,1.7c2.5-9.3,2.6-19,0.3-28.4
	C381.3,947.6,375.7,933.9,370.8,919.4z M251.2,752c-8.3,1-15.6,1-22.5,4.1c-3.3,1.4-6.8,2.2-10.4,2.4c-3.4,0.3-6.9-0.3-10.4-0.6
	c-3.2-0.3-4.4,0.7-3.3,4.2c2.5,7.6,4.9,15.3,7,23c1.1,4.1,1.4,8.4,2.1,12.7c0.3,0.1,0.6,0.2,0.9,0.3
	C222.1,779.4,236.8,766.5,251.2,752z M242.7,1116.8c-2.6-2.3-4.6-3.9-6.5-5.6c-4.8-4.5-7.8-10.4-8.8-16.9c-0.9-5.5-0.8-11.2-1-16.9
	c-0.2-5.1-1.5-7.4-6.4-8.3c-9-1.8-18.1-3.1-27.5-4.7c1,1.9,2.2,3.8,3.4,5.6c7.1,9.1,14.1,18.3,21.4,27.2c4.7,5.7,9.8,11.1,14.8,16.4
	C234.6,1116.3,237.4,1118.2,242.7,1116.8z M332.9,890.5c-0.3,0.2-0.6,0.4-1,0.6c12.2,22.1,23.1,44.6,29.3,69.3
	c-0.5-9.9,1.1-19.4,3.4-29c2.2-9.2,1.2-17.6-8.7-23.4C347.6,903.2,340.5,896.4,332.9,890.5z M427.6,726.4c-1.8-0.8-3.6-1.7-5.4-2.5
	c-6-2.8-11.4-6.2-15.5-11.8c-3.7-5.1-8.4-9.6-12.9-14.6c-0.3,1.9-0.3,3.5-0.9,4.8c-2.9,6.4-5.9,12.8-9.1,19.1
	c-1.3,2.5-3.2,4.6-4.8,6.9C395.8,732,411.6,727.3,427.6,726.4z M377.1,1060.7c-1.3-2.7-2.4-5-3.7-7.4c-1.2-2.2-2.8-4.3-3.7-6.6
	c-4.1-10-3.6-21.2,1.2-30.9c3.1-6.4,7.2-12.2,10.8-18.4c0.7-1.3,1.3-2.6,2.4-5c-1.8,0.8-2.5,1-2.9,1.4c-3.6,3.6-7.3,7.1-10.7,10.8
	c-4.9,5.2-9.5,10.6-13.8,16.2c-3.9,5.4-4.3,11.5-2.1,18c2.9,8.4,9,13.3,16.1,17.6C372.7,1057.7,374.6,1059.1,377.1,1060.7z
	 M350.9,806.2c0.6-2.1,0.9-3.1,1.1-4c5.6-20.7,17.6-34.4,40-37c0.9-0.1,1.6-0.9,3.1-1.9c-7.7-3.5-14.7-3.9-21.9-1.7
	c-6.2,1.9-11.5,5.8-15.2,11.2c-4.6,6.7-10.2,12.7-15.6,19.3C345,796.3,347.7,800.8,350.9,806.2z M400.2,761.9
	c7.6-1.6,15.3-3.1,23-4.7c5.7-1.2,11.5-2.5,17.1-4c1-0.3,2.4-1.6,2.4-2.4c-0.2-4.1-0.7-8.3-1.3-12.4c-0.4-2.8-2-3.5-4.6-1.9
	c-2.5,1.6-5.1,2.9-7.8,4.1C417.1,744.9,408.2,753.1,400.2,761.9L400.2,761.9z M343.6,728.7c-6.2-6.5-12.3-13-18.4-19.5
	c-3.4-3.6-7.2-4.2-10.8-0.8c-5.9,5.7-11.4,11.9-17.3,18.1C313,723.6,328.4,726.7,343.6,728.7L343.6,728.7z M442.5,756.9
	c-13,2.7-25.9,5.4-38.7,8l0,1.2c16.9,0.8,30.1,9.7,43.6,20.3C445.7,775.8,444.1,766.3,442.5,756.9z M473,749.3c0,6.9,0,12.6,0,18.3
	c0,3.1,0.7,6.5,4.2,6.9c7.8,0.8,15.8,1,24.6,1.4c-7.8-8.3-14.6-15.7-21.7-22.8C478.4,751.3,475.4,750.5,473,749.3z M362.4,966.5
	c2,17.3-3.5,32.8-7.2,48.2c7.9-7.6,16-15.5,24.2-23.3C371.7,984.7,365.8,976.2,362.4,966.5z M375.5,1108.5c1.4-5.6,0-10.8-2.8-15.4
	c-3.4-5.7-3-11-0.1-16.7c2-3.9,0.5-12.5-2.1-14.4c-4.6-3.4-9.3-6.6-13.4-9.4c4,10.2,4.5,10.6,2.6,16c-2.3,6.6,0.2,11.9,4.3,16
	C370.8,1091.4,375.1,1098.8,375.5,1108.5z M353.3,1141.7c1.5,1.1,2.9,2.6,4.5,3.3c4,1.5,6.8,5.2,7.2,9.4c1,5.7-0.7,11.5-4.7,15.6
	c-3.2,3.5-3.1,8.8,0.2,12.2c1,1.1,1.9,2.2,2.8,3.4c4.4,6.1,7.9,12.6,7.2,21.1c7.6-9.1,7.1-13.6-0.9-20.8c-3.9-3.5-7.2-7.4-4-13.3
	c1.1-2.1,1.5-4.6,2.3-6.8C372.4,1152.9,367.4,1144.1,353.3,1141.7z M349.4,837.4c0-6.5-1-12.2,0.2-17.4c1.9-8-2.4-13.1-6.3-18.9
	C331.6,818.4,339.9,827.9,349.4,837.4z M355.7,1078.7c-4.2,5.2-4.3,7.5,0,13.3c0.9,1.2,1.8,2.3,2.9,3.3c3.9,3.5,5.4,7.9,5.3,13
	c-0.1,2.6-0.3,5.2-0.4,7.8c3-3.2,5.7-6.7,7.9-10.4c0.4-0.8,0.5-1.8,0.1-2.6c-1.6-3.6-3-7.5-5.2-10.7
	C363.1,1087.5,359.2,1083.1,355.7,1078.7L355.7,1078.7z M587.6,1051.6c0.6-3.2,1.1-5.3,1.5-7.5c1-5.9,2.1-11.5,7-15.8
	c3.8-3.3,4.9-8.2,5.3-12.8c-5.3,2.8-10.6,5.7-15.9,8.5c-2.5,1.4-3,3.4-2.4,6.1C584.6,1036.8,585.9,1043.6,587.6,1051.6z
	 M372.6,1110.2c-3.2,4-6,7.3-8.7,10.8c-2.7,3.5-5.6,6.9-8.1,10.5c-2.8,4.1-1.9,5.6,2.7,7.2c2.7,0.9,5.3,2.2,7.6,4
	c6.7,5.7,7.9,13.3,6,22.1c6.3-8.7,5.2-16.2-2.6-22.2c-7.8-6-8.4-12.9-1.6-20.2C371,1119.1,372.5,1115.3,372.6,1110.2z M485.9,704.6
	c-6.3-0.8-11.5-1.7-16.8-2.1c-1.3-0.1-3.6,0.8-4.1,1.9c-3.1,6.7-5.9,13.6-8.5,20c0.3-0.1,1.6-0.7,2.9-1.3c3.8-1.7,7.4-3.3,8-8.4
	c0.4-3.4,3.9-4.6,6.5-4.1C479.8,711.9,481.5,707,485.9,704.6z M483.2,1150.5c8.7-4,16.9-7.7,26.2-11.9c-8-1.6-14.7-3-21.5-4.4
	C486.2,1139.7,484.8,1144.8,483.2,1150.5L483.2,1150.5z M354.2,1220.8c3.9-3.3,6.7-5.6,9.4-8.1c1.5-1.4,3.6-2.9,4-4.6
	c1.2-5.1-0.4-9.7-3.8-14.8c0.6,5.9-0.6,10-3.6,14.1C357.5,1211,356.3,1215.8,354.2,1220.8z M311.4,358.3c3.3,4.2,6.5,8.1,9.6,12
	c0.8-3.1,0.7-6,0.9-8.9c0.2-2.8,0.8-5.6,1.3-8.6C319.2,354.7,315.5,356.4,311.4,358.3z"/>
<path class="st0" d="M378.3,433.5c2.2-0.4,4.5-0.8,7.4-1.2c-7.2-8-14.8-13.4-25.9-11.2c-10,2-17.1,8-23,16c-0.4-0.3-0.8-0.6-1.3-0.9
	c0.2-1.5,0.6-3.1,1.1-4.5c4.4-8.7,12-13,21.1-15.3c0.9-0.2,1.8-0.4,2.7-0.6c0.2-0.1,0.3-0.4,0.5-0.5c-12.3-3.7-24.3-2-36,3.5
	l-0.5-1.5c1.1-1,2.2-1.9,3.4-2.7c8.9-5.3,18.5-5.4,28.4-3.9c12.5,1.9,23.5,6.3,31.7,16.3c0.7,0.8,1.3,1.7,1.9,2.6
	c3,4.6,2.7,4.9-2.6,6.2c-10,2.4-20,1.7-30,0.7c-2.6-0.3-5.6-0.6-6.3-4c-0.7-3.3,1-5.5,3.8-7.3C363.8,419.3,373.3,422.5,378.3,433.5z
	"/>
<path class="st0" d="M377.9,401.9c10.4-3.9,15.4-2.2,21.1,6.3c2.1,3.3,4.7,6.2,7.7,8.6c2.5,1.9,5.9,2.9,9,3.5c2.8,0.6,5.9,0.2,8.8,0
	c5.7-0.3,9.9,2.2,11.8,7.3c2.1,5.7,4.1,11.7,4.7,17.6c0.6,4.2-2.2,8.1-6.4,8.7c-0.6,0.1-1.1,0.1-1.7,0.1c1.4-2.7,3.9-5.5,4.1-8.4
	c0.4-6.9-2.2-13.2-6.4-18.6c-1.5-1.7-3.7-2.5-5.9-2.4c-13.9,2-23.6-3.7-30.5-15.5c-2-3.4-4.4-5.4-8.9-4.2
	C382.6,405.8,379.4,404.5,377.9,401.9z"/>
<path class="st0" d="M419,1357.6c27.5,37.2,17.4,81.8-9.7,106c-28.2,25-70.2,26.5-100,3.5c-28.2-21.9-41.5-67.1-14.9-106.3
	c-6-5.2-12.1-10.5-18.2-15.8C200.1,1279.1,124,1213.2,48,1147.2c-4.9-4.2-9.9-8.3-14.2-13.1c-2.6-3.2-6.8-4.5-10.7-3.3
	c-4.2,1-8.2,2.5-12,4.5c-4.2,2.3-4.4,6.8-4.2,11.1c0.2,3.2,1.4,6.1,4.6,7.5c3.6,1.6,8,0.6,9.8-2.3c1.7-2.8,0.7-6.6-2.2-9.1
	c3.4-3.7,6.7-3.2,8.3,1.4c1.7,4.8,2.3,9.5-1.8,13.5c-4.6,4.6-10,5.5-16,3.6c-5.3-1.4-9-6.1-9.3-11.5c-1.3-14.1,3.3-19.6,13.1-22.7
	c3.4-1.1,7.1-1.6,10.4-3c2-0.9,3.7-2.4,4.8-4.3c33.7-54.8,66.9-109.9,101.1-164.3C200.2,842.9,271.5,731,342.1,618.8
	c11.1-17.7,13.8-37.5,7.9-57.8c-8.5-29-26-51.8-48.4-71.5c-20.2-17.8-43-31.7-65-47c-54.2-37.6-86.3-89.4-96.1-154.8
	c-2.2-14.7-4.3-29.4-3.4-44.4c3.2-53.3,21.4-100.5,56.5-140.8c38.2-43.7,86.7-69.2,144.2-76.7C457.5,10.3,570.4,92.4,591.2,211
	c14.6,83.2-10.4,154.1-71.5,212.2C507,435.3,493,446.4,477,453.4c-15.9,6.9-27.1,19.2-39.8,29.6c-12.9,10.7-23.8,23.5-32.4,37.9
	c-8.8,14.5-17.4,29.5-18.6,46.8c-0.7,9.2,0.9,18.7,2.1,28c1.7,13.5,7.2,25.9,13.5,37.8c58.7,109.2,117.6,218.4,176.5,327.6
	c0.9,1.7,2.9,2.7,4.2,4.2c0.7,0.7,1.7,2,1.4,2.5c-1.3,2.9,0.5,4.9,1.6,7c29.7,55.4,59.3,110.8,88.9,166.2c3,5.6,6.4,9.7,12.7,11
	c7.7,1.6,15.3,2,22.2-2.6c4.9-3.2,7-8.1,7.2-13.7c0.1-3.9-6.3-8.9-10-8c-2.6,0.7-4.2,3.4-3.5,6.1c0.1,0.5,0.4,1,0.7,1.5
	c0.8,1.2,1.7,3.7,1.2,4c-1.4,1.1-3.1,1.7-4.9,1.7c-3.7-0.2-6.2-3.7-6.2-7.7c0.1-9.5,9.2-16,17.9-12.4c5.5,2.3,11,5.5,11.7,12.2
	c1,8.8-2.3,16.3-9.6,21.4c-9.1,6.3-19.4,6.5-29.4,2.9c-5.6-2-10.2-0.4-14.1,2.6c-26.1,20.2-52,40.6-77.9,60.9
	c-56.7,44.6-113.4,89.1-170.1,133.7C421.4,1355.5,420.3,1356.5,419,1357.6z M413.5,1349.9c84.9-65.6,170.2-131.7,256-198.1
	c-1.8-1-2.8-1.5-3.8-2.1c-7.7-3.9-15.5-7.6-23-11.7c-82-44.9-147.8-107.1-197.2-186.5c-46.3-74.3-73.2-154.8-74.9-243
	c-0.6-33,2.1-65.6,10.7-97.5c0.7-2.7,0.8-5.5,0.2-8.3c-5.6-27.6-2.4-54.1,10.8-79.1c18-34,46.7-57.3,78.7-76.9
	c14.5-8.9,29-17.7,41.4-29.3c56.6-52.9,81.4-117.9,70.7-194.7c-9.6-68.8-45.2-122.2-104.7-157.9c-80.1-48.2-178.7-41.4-251.1,17.8
	c-64.6,52.8-90.4,122.7-79.5,204.6c7.6,56.7,36.8,102.5,81.3,138.7c15.4,12.5,34.2,19.7,48.8,33.3c9.9,9.2,21.6,16.6,31.3,26.1
	c10,10,19.3,20.6,27.9,31.8c19.8,25.5,27.6,54,20,86c-0.3,1.3-0.3,2.6-0.2,4c0.9,11,2.3,22,2.7,33c2,53.9-3.2,107.7-15.5,160.2
	c-14.5,62.3-37.9,120.8-73.2,174.3c-29.5,44.8-65.6,83.2-111.4,111.8c-38,23.8-79.2,38.2-123.5,39.8
	c87.7,75.6,175.8,151.5,264.3,227.7c1-1.1,2.1-2.1,3.3-3c9.7-6.4,18.7-14.4,29.3-18.6c19.2-7.6,39-6,57.6,3.2
	C398.4,1339.3,405.6,1344.9,413.5,1349.9z M351.2,620.9C245.9,786.4,143.8,953.7,36.3,1118.2c1.9,0,3.2,0.1,4.5,0
	c21.7-1.9,43.1-6.6,63.6-14.1c51.3-18.9,93-51.2,128.3-92.3c42.1-49,70.8-105.4,90.7-166.5c22-67.6,30.2-137.2,28.7-208
	C352,631.8,351.5,626.3,351.2,620.9L351.2,620.9z M661.6,1139.4c0.2-0.3,0.5-0.6,0.7-0.9c-0.8-1.5-1.6-3-2.4-4.6
	c-75-140-150.1-280-225-420.1c-16.9-31.7-32.6-63.9-48.9-95.9c-0.1-0.1-0.4-0.1-0.7-0.2c-0.2,0.3-0.4,0.7-0.5,1
	c-2.2,18.6-5.3,37.1-6.3,55.7c-2.2,39.7,1.4,79.5,10.7,118.2c35.1,144.8,118.2,254.4,244.9,331.5
	C643.1,1129.6,652.4,1134.3,661.6,1139.4z M301.3,1366.8c-16.9,23-17.7,62.9,10.8,88.5c28.1,25.2,69.7,23.4,95.1-4
	c26.1-28.1,20.5-67.8,3.5-87.3c-0.4,0.1-0.7,0.3-1.1,0.5c-16.6,12.5-33.3,25.1-49.9,37.7c-0.8,0.6-0.9,2.4-0.9,3.6
	c0.2,3.6-2.1,6-5.4,5c-1.6-0.6-3.1-1.6-4.4-2.8c-9.8-8.4-19.5-16.9-29.3-25.4C313.7,1377.5,307.5,1372.2,301.3,1366.8z
	 M306.7,1359.4c15.5,13.4,30.9,26.6,46.1,39.7c17.6-14.2,34.8-28,52.6-42.4c-0.8-0.4-1.5-0.9-2.2-1.4c-10-9.1-21.8-14.5-35.1-16.9
	c-14.1-2.6-27.7,0.8-40.7,4.8C319.1,1345.7,312.5,1352.3,306.7,1359.4z"/>
<path class="st0" d="M697.8,784H38.3l2-4.5L368,17L697.8,784z M48.2,777.5h639.7L368,33.5L48.2,777.5z"/>
<path class="st0" d="M354.7,21c6.8,7.9,19.8,7.2,26.8,0c2.1-2.2,3.6-4.8,4.5-7.6c0.5-1.5,0.8-3.1,0.9-4.7c0.1-1.7-0.2-3.3-0.2-5
	c-0.2-1.3-1.3-2.4-2-3.6c-1,0.9-1.9,2-2.6,3.1c-1.9,3.9-3.2,8-5.4,11.7c-2.4,4.3-7.6,6.2-12.2,4.3c-4.5-1.6-7.9-4.4-9.1-9.5
	c-0.7-3-1.7-5.9-2.7-9.3c0,0.1-1.4,1.4-1.5,1.6c-0.4,0.6-0.8,1.2-1.1,1.8c-0.6,1.2-1,2.6-1,4c-0.2,3.5,1.5,6.4,3,9.5
	C352.8,18.6,353.7,19.9,354.7,21z"/>
<path class="st0" d="M697.6,770.1c-8.2,6.5-8.1,19.4-1.2,26.8c2.1,2.2,4.6,3.8,7.4,4.8c1.5,0.5,3.1,0.9,4.7,1.1c1.7,0.2,3.4-0.1,5,0
	c1.3-0.1,2.5-1.2,3.7-1.8c-0.9-1-1.9-2-3-2.8c-3.8-2-7.8-3.6-11.4-5.9c-4.2-2.6-5.8-7.9-3.8-12.4c1.8-4.4,4.8-7.7,9.9-8.6
	c3-0.5,5.9-1.4,9.4-2.2c-0.1,0-1.3-1.4-1.5-1.6c-0.5-0.5-1.1-0.9-1.7-1.2c-1.2-0.7-2.5-1.1-3.9-1.2c-3.5-0.3-6.5,1.2-9.6,2.5
	C700.1,768.4,698.8,769.2,697.6,770.1z"/>
<path class="st0" d="M37,770.1c8.2,6.5,8.1,19.4,1.2,26.8c-2.1,2.2-4.6,3.8-7.4,4.8c-1.5,0.5-3.1,0.9-4.7,1.1c-1.7,0.2-3.4-0.1-5,0
	c-1.3-0.1-2.5-1.2-3.7-1.8c0.9-1,1.9-2,3-2.8c3.8-2,7.8-3.6,11.4-5.9c4.2-2.6,5.8-7.9,3.8-12.4c-1.8-4.4-4.8-7.7-9.9-8.6
	c-3-0.5-5.9-1.4-9.4-2.2c0.1,0,1.3-1.4,1.5-1.6c0.5-0.5,1.1-0.9,1.7-1.2c1.2-0.7,2.5-1.1,3.9-1.2c3.5-0.3,6.5,1.2,9.6,2.5
	C34.5,768.4,35.8,769.2,37,770.1z"/>
</svg>
