<?xml version="1.0" encoding="utf-8"?>
<!-- Generator: Adobe Illustrator 25.2.3, SVG Export Plug-In . SVG Version: 6.00 Build 0)  -->
<svg version="1.1" id="Capa_1" xmlns="http://www.w3.org/2000/svg" xmlns:xlink="http://www.w3.org/1999/xlink" x="0px" y="0px"
	 viewBox="0 0 1145.7 465.9" style="enable-background:new 0 0 1145.7 465.9;" xml:space="preserve">
<style type="text/css">
	.st0{fill:#FFFFFF;}
	.st1{opacity:5.000000e-02;}
	.st2{fill:#FFFFFF;stroke:#FFFFFF;stroke-miterlimit:10;}
	.st3{fill:#1D5B57;stroke:#FFFFFF;stroke-miterlimit:10;}
	.st4{fill:#E4DCC7;}
	.st5{fill:#E4DCC6;}
	.st6{fill:#0A080B;}
	.st7{fill:#1D5B57;stroke:#1D5B57;stroke-linecap:round;stroke-linejoin:round;stroke-miterlimit:10;}
	.st8{fill:#1D5B57;stroke:#1D5B57;stroke-miterlimit:10;}
	.st9{fill:#1D5B57;}
	.st10{fill:none;stroke:#0A080B;stroke-linejoin:round;stroke-miterlimit:10;}
	.st11{fill:#1D5B57;stroke:#1D5B57;stroke-linejoin:round;stroke-miterlimit:10;}
	.st12{fill:#FFFFFF;stroke:#F1DFB7;stroke-miterlimit:10;}
	.st13{fill:#070508;}
	.st14{fill:none;}
</style>
<g>
	<path class="st0" d="M136.5,150c-1.3-4.1,1-4.2,4.1-4.2c43.6,0.1,87.3,0.1,130.9,0c1.9,0,4,0.6,5.7-0.9c0,0,0,0,0,0
		c0-0.7,0.1-1.3,0.1-2c-0.1-1.8-0.3-3.6-0.3-5.5c0-41.7,0-83.4,0-125c0-1.8,0.2-3.6,0.3-5.4c0.3-3.6-1.5-4.1-4.8-4.1
		C183.3,3,94,3,4.7,2.9C1.1,2.9,0,3.6,0,7.5c0.1,142.6,0.1,285.1,0.1,427.7c0,1.2,0.1,2.3,0,3.5c-0.2,2.2,0.6,2.8,2.9,2.8
		c43.5-0.1,87-0.1,130.4,0c3,0,3.5-0.8,3.5-3.7c-0.3-77.9-0.4-155.9-0.6-233.8C136.3,186,136.4,168,136.5,150z"/>
	<polygon class="st0" points="421.4,441 421.4,441 421.4,441 	"/>
	<path class="st0" d="M417.8,3c-44.1,0.1-88.3,0.1-132.4,0.1c0,21.8-0.1,43.6-0.1,65.4c0,122.4,0,244.7-0.1,367.1
		c0,4.8,1.1,5.9,5.9,5.9c42.3-0.2,84.6-0.1,126.9-0.1c1.1,0,2.3-0.2,3.4-0.4c0-144,0-288,0-432c0-0.8-0.1-1.7,0-2.5
		C421.8,3.6,420.5,3,417.8,3z"/>
	<path class="st0" d="M277.3,319c-0.4-5.7-0.4-11.3,0-17c-0.5-1.4-1.9-1.5-3-1.9c-1.8,0.1-3.6,0.3-5.5,0.3
		c-39.5,0-78.9,0.1-118.4-0.1c-3.9,0-5.4,0.6-5.4,5c0.2,44.1,0.2,88.3,0,132.4c0,3.8,1,4.5,4.7,4.5c38.3-0.1,76.6-0.1,114.9-0.1
		c4,0,8.8,1.6,11.6-0.7c2.5-2,0.1-6.9,1-10.5c-0.4-16-0.4-32,0-48c-0.4-5.3-0.4-10.7,0-16C276.9,351,276.9,335,277.3,319z"/>
	<path class="st0" d="M226.1,294.3c38.7-9.7,62-51.3,50.8-90.5c-5.7-19.9-17.9-34.5-35.5-44.8c-3-1.3-6-2.6-9-3.9
		c-2.6,0.1-4.8-0.9-7-2c-1.6,0-3.3,0.1-4.7-0.8c-0.1-0.1-0.2-0.1-0.3-0.2c-5.6-0.1-11.3-0.1-16.9-0.2c-0.3,0-0.7,0-1,0
		c-2.3,0.7-4.6,1.3-7,1.2c-0.2,0.3-0.5,0.4-0.9,0.3c-4.4,1.5-8.8,3.1-13.1,4.6h0c-34.3,18-45.9,52.9-38,84.8
		C152.5,279.9,190.2,303.3,226.1,294.3z"/>
	<path class="st0" d="M656.3,399.9c-4.8,0.2-9.7,0.3-14.5,0c-3.6-0.2-4.8,0.7-4.7,4.5c0.1,3.5,1.2,4.2,4.3,3.9
		c1.6-0.2,3.3,0.1,5-0.1c2.7-0.2,3.8,0.6,3.7,3.6c-0.2,5.8-0.1,11.7,0,17.5c0,2.2-0.8,3.1-2.9,3.8c-10.3,3.6-22.2-1.1-26.8-11.3
		c-4.7-10.2-5.6-20.8-2.1-31.5c3.8-12,13.2-17.8,25.6-16.5c4.7,0.5,8.9,2.5,13.3,3.8c1.3-9.8,1-10.3-8.6-11.8
		c-0.7-0.1-1.3-0.3-2-0.4c-18-3.1-33.2,6.4-38.4,23.9c-3.2,11-2.8,22.1,1.2,32.8c3.7,10,10.7,16.7,21.2,19.4
		c9.2,2.3,18.1,0.9,26.9-2.1c2-0.7,2-1.9,2-3.4c0-11-0.1-22,0-33C659.4,400.5,658.6,399.8,656.3,399.9z"/>
	<path class="st0" d="M521.3,364.9c0-3.3-0.1-5.1-4.4-5.1c-4.1,0.1-5.4,0.9-5.3,5.2c0.3,9,0.1,18.1,0.1,27.9
		c-11.4-13.2-28.3-7.3-31.7,7.4c-2.3,9.8-2.5,19.4,0.5,29c2.3,7.4,7.1,12.4,15.2,13.2c6.8,0.7,12.2-2,16.6-8.8c0,2.3,0.1,3.2,0,4.2
		c-0.8,5.1,2.9,3.8,5.6,4.1c3.7,0.5,3.5-1.6,3.5-4.1C521.3,413.5,521.2,389.2,521.3,364.9z M509.4,428.3c-2,4.3-5.2,6.7-10.1,6.6
		c-5-0.1-8.2-2.8-9.7-7.2c-3-9-3.1-18.3,0-27.3c1.5-4.6,5-7.4,10.1-7.4c4.8,0.1,7.9,2.6,9.8,7c2,4.6,1.7,9.4,2.1,13.9
		C511.3,419,511.6,423.8,509.4,428.3z"/>
	<path class="st0" d="M521.3,243.2c0-3.7-1.2-4.5-4.5-4.3c-2.9,0.2-5.4-0.4-5.2,4.2c0.4,9.2,0.1,18.5,0.1,28.3
		c-1-0.7-1.4-0.9-1.7-1.2c-10.1-10-23.9-7.1-29,6.3c-4.1,10.7-3.8,21.6-0.3,32.3c2.2,6.8,6.8,11.7,14.6,12.5c7.1,0.8,12.4-2,17-8.4
		c0,2.2,0.1,3.4,0,4.5c-0.4,5.2,3.5,2.9,5.8,3.4c3.2,0.6,3.3-1.3,3.3-3.8C521.3,292.5,521.2,267.8,521.3,243.2z M510.1,305.7
		c-1.7,5.2-5.4,8.1-10.1,8.2c-5.1,0.1-8.9-2.5-10.6-8c-2.6-8.6-2.8-17.3,0-26c1.8-5.6,5.4-8.1,10.6-8c4.8,0.1,8.3,2.9,10.1,8.1
		c1.4,4.2,1.3,8.5,1.6,13C511.5,297.2,511.5,301.6,510.1,305.7z"/>
	<path class="st0" d="M740.4,305.4c2.1-8.7,2-17.5-0.3-26.1c-1.8-6.7-5.4-12.3-12.6-14.2c-7.4-1.9-13.8-0.2-19.2,7.8
		c0-11.1,0-20.5-0.1-30c0-1.3,1-3-1.1-3.8c-4.7-1.8-8,0.4-8,5.5c-0.1,24-0.2,47.9-0.2,71.9c0,1.8-1.8,4.8,2.3,4.4
		c2.7-0.2,6.8,1.8,6.6-3.8c0-0.9,0.3-1.9,0.5-3.7c5,7.8,11.9,9.5,19.5,7.4C735.4,318.6,738.7,312.5,740.4,305.4z M720.4,313.9
		c-4.9,0-8.4-2.5-9.9-7c-3.1-9.4-3.3-19,0.2-28.3c1.6-4.2,4.8-6.6,9.5-6.7c5-0.1,8.1,2.4,10,6.7c2,4.5,2.2,9.3,2.1,14.2
		c0.1,4.8,0,9.6-2,14.2C728.5,311.4,725.3,314,720.4,313.9z"/>
	<path class="st0" d="M816.6,427.3c0-21-0.1-41.9,0.1-62.9c0-3.9-1.2-4.6-4.8-4.6c-3.7,0-4.8,1-4.7,4.8c0.3,9.2,0.1,18.4,0.1,29
		c-5.5-7.9-12.1-9.5-19.6-7.4c-7.5,2.2-10.8,8.4-12.5,15.5c-1.9,8.4-1.9,16.9,0.2,25.2c1.7,7,5.3,13,13,15c7.7,2,14-0.3,19.1-7.4
		c0.9,7.3,0.9,7.3,3.6,7.4c6.4,0.3,6.3,0.3,5.8-6.1C816.7,433,816.6,430.1,816.6,427.3z M805.2,428.1c-1.8,4.4-5,6.8-10,6.8
		c-4.8,0-8.1-2.4-9.6-6.6c-3.5-9.5-3.5-19.2,0-28.7c1.5-4.2,4.9-6.6,9.6-6.6c4.6-0.1,7.9,2.3,9.8,6.4c2.1,4.6,2.6,9.6,2.3,14.6
		C807.5,418.8,807.1,423.6,805.2,428.1z"/>
	<path class="st0" d="M903.1,195c-0.3-9.5-0.1-19-0.1-28.4c0-3.2,0.1-6.3,1.6-9.2c2.2-4.4,7-6.8,11.6-5.9c5.2,1.1,7,4.8,7.1,9.5
		c0.2,11.8,0.3,23.6,0.1,35.4c0,3.7,2,3.6,4.5,3.4c2.2-0.2,5.3,1.2,5.2-3.2c-0.3-13,0.6-26-0.5-38.9c-0.8-9.3-6-14.1-15.2-14.5
		c-6.1-0.2-10.9,2.2-14.8,8.6c-0.1-1.9-0.3-2.6-0.2-3.2c0.9-5-2.3-4.5-5.6-4.7c-4.3-0.3-3.5,2.3-3.4,4.7c0.1,15.5,0.2,30.9,0.1,46.4
		c0,3.6,0.7,5,4.6,4.9C901.7,199.9,903.2,199.2,903.1,195z"/>
	<path class="st0" d="M940.9,404.4c0-10-4.6-16.4-13.5-18.3c-4.6-1-9.2-0.9-13.8,0.4c-8.8,2.6-8.8,2.6-6.6,11.6
		c3.4-2.7,7.1-4.3,11.3-5c8.4-1.4,13.7,3,13.9,11.2c0.1,2.4-0.4,3.7-3.2,3.5c-5.2-0.4-10.3,0.2-15.4,1.2c-2,1.1-3.9,2.5-6.3,2.7
		c-7.7,6.7-9,18.8-3,25.8c3.1,3.6,7.2,4.7,11.6,5c6.4,0.3,11.9-2,16.3-7.5c0.2,1.6,0.4,2.6,0.4,3.6c0.1,4.9,3.8,2.9,6.2,3.2
		c3.6,0.4,2.4-2.3,2.4-4.1C941,426.7,940.9,415.5,940.9,404.4z M932.1,419.2c-0.1,9.3-3.9,14.7-10.9,15.9c-4,0.7-7.8,0.1-9.9-3.8
		c-2.2-4-2.1-8.3,0.9-12c3.1-3.8,14-6.5,18.4-4.8C933.6,415.7,931.1,418.2,932.1,419.2z"/>
	<path class="st0" d="M881.9,160.6c-2.8-11.3-10.4-17.5-21.2-17.4c-10.9,0.1-18.8,6.7-21.2,18.1c-2.4,11.4-1.6,22.5,5.1,32.5
		c0.7,0.7,1.3,1.3,2,2c15.4,9.6,30.8,4.1,35.3-12.5C883.8,175.8,883.8,168.2,881.9,160.6z M871.1,186.2c-1.9,4.4-5.3,6.7-10.1,6.8
		c-4.8,0.1-8.6-2.1-10.3-6.5c-3.7-9.7-3.7-19.5,0.1-29.2c1.7-4.4,5.4-6.4,10.4-6.3c4.7,0.1,7.9,2.4,9.8,6.5
		c2.2,4.6,2.6,9.6,2.3,14.7C873.5,176.9,873,181.6,871.1,186.2z"/>
	<path class="st0" d="M751.9,386.5c-4.9-1.5-9.9-1.4-14.8-0.2c-8.6,2.1-8.8,2.6-7.4,11.4c1.8-0.1,2.8-1.6,4.3-2.3
		c5.3-2.6,10.7-3.7,16.3-1.1c3.3,1.5,6,7.9,4.8,11.7c-1.2,3.7-4.6,1.5-6.8,1.7c-5.5,0.3-10.9,0.9-15.9,3.5
		c-6.4,3.3-9.7,10.4-8.4,18.1c1.3,7.9,5.2,11.8,13.4,13c7.1,1,13-1.2,17.8-7.2c0.3,1.9,0.5,3.4,0.9,4.9c1.1,3.7,4.2,1.2,6.3,1.8
		c1.9,0.5,2-1,2-2.5c-0.1-12.2,0.1-24.3-0.4-36.5C763.5,393.7,759.7,389,751.9,386.5z M755.1,419.3c0,8.9-3.6,14.3-10.3,15.7
		c-5.1,1.1-9.4-0.7-11.1-4.4c-1.9-4.3-0.5-10.2,3.3-13c4.9-3.5,10.6-3.6,16.3-3C756.6,415,754.5,417.9,755.1,419.3z"/>
	<path class="st0" d="M826.3,292.4c0.3-4-0.5-8.6-1.9-13c-3.2-9.8-10.2-14.9-20.5-15.1c-9.7-0.1-17.5,5.6-20.4,15.2
		c-2.4,7.8-2.6,15.8-0.8,23.7c2.6,12,10.3,18.4,21.4,18.3c11.8-0.2,18.9-6.7,21.4-19.5C826.1,299,826.4,296.1,826.3,292.4z
		 M814.2,307.2c-2.1,4.5-5.6,6.9-10.7,6.7c-4.8-0.1-8.3-2.6-9.9-7c-3.3-9.2-3.3-18.6-0.1-27.8c1.8-5.1,6-7.4,11.3-7.2
		c5.4,0.3,8.3,3.7,10.1,8.3c1.5,4.1,1.5,8.5,1.6,12.8C816.4,297.9,816.4,302.7,814.2,307.2z"/>
	<path class="st0" d="M738.6,200.4c5.9-0.1,10.6-2.6,14.7-7.3c0.3,2,0.5,3.3,0.8,4.6c0.7,3.9,3.7,1.6,5.6,2c2.3,0.6,2.7-0.8,2.7-2.9
		c-0.1-12,0.1-24-0.3-35.9c-0.3-10-5.4-15.3-15.3-17.2c-3.9-0.8-7.7-0.3-11.4,0.5c-8.3,1.8-8.8,2.7-7.8,12.3
		c3.2-2.6,6.2-4.2,9.6-5.1c9.4-2.4,15.6,1.7,16,10.2c0.2,3.2-0.6,4.4-4.1,4.2c-6.5-0.3-13,0.2-18.9,3.4c-6.9,3.7-10.1,12.2-7.9,20.8
		C724.2,196.7,730.4,200.6,738.6,200.4z M732.5,178.5c2.5-4.4,14.9-8.3,19.4-6.2c2.4,1.2,0.8,3.6,1.3,5.1c0,9.7-4.8,15.6-12.5,15.7
		c-3.5,0.1-6.7-0.7-8.4-4.2C730.6,185.6,730.6,181.9,732.5,178.5z"/>
	<path class="st0" d="M1015.2,402.9c-0.1-9-5.4-15.3-13.9-16.9c-5.1-1-10.3-0.6-15.3,1c-6.3,2.1-7.3,4.4-4.6,11
		c5.6-4,11.6-6.4,18.6-4.1c4.7,1.5,7.1,5.8,6.1,11.6c-0.8,5-4.9,2.1-7.2,2.2c-9,0.6-17.1,2.2-22.5,10.4c-0.3,1-0.1,2.2-1.1,2.9l0,0
		l0,0c-0.1,0.7-0.2,1.3-0.3,2c0,3,0.1,6,0.1,9c1.6,5.5,5.5,8.5,10.8,10c5.7,1.6,11.1,0.4,16.2-2.3c0.7-0.6,1.4-1.2,2.1-1.8
		c0.6-0.9,0.9-2.2,2.7-2.2c0.1,1,0.3,1.9,0.2,2.9c-0.4,4.7,3,3.1,5.3,3.4c3,0.4,3-1.3,3-3.6C1015.2,426.5,1015.4,414.7,1015.2,402.9
		z M1006.3,420.6c-0.1,8.4-3.8,13.4-10.6,14.5c-5.5,0.9-9-0.8-10.6-5c-1.9-4.9-0.4-10,3.8-12.8c4.7-3.1,10-3.3,15.3-2.8
		C1006.3,414.7,1006.3,415,1006.3,420.6z"/>
	<path class="st0" d="M866.3,402.2c-0.1-8.6-5.5-14.9-13.9-16.3c-4.8-0.8-9.6-0.7-14.3,0.8c-7.4,2.3-7.9,3.4-5.5,11.2
		c4.4-3.1,9.2-5.3,14.7-5c6.8,0.4,9.7,3.6,10.3,10.2c0.3,3.9-0.9,4.9-4.6,4.7c-6-0.4-11.9,0.3-17.5,3c-7.8,3.8-11.2,12.8-8.2,21.7
		c2.5,7.5,9.7,11.2,18.4,9.8c5-0.8,8.7-3.6,12.5-7.2c0.1,1.7,0.2,2.6,0.2,3.6c-0.4,4.9,3.4,2.7,5.5,3.1c3.1,0.6,2.8-1.5,2.8-3.7
		C866.4,426.2,866.5,414.2,866.3,402.2z M857.5,420c-0.1,8.9-3.5,13.7-10.4,15.1c-4.5,0.9-8.3,0.1-10.6-4.2c-2.3-4.5-1.1-9.9,2.9-13
		c4.8-3.7,10.5-3.9,16.2-3.2C859.3,415.1,856.5,418.5,857.5,420z"/>
	<path class="st0" d="M640.9,79.4c6.3,0.2,11.4-2.2,16-7.6c0.2,2.2,0.2,3.5,0.4,4.8c0.5,4,3.6,1.7,5.5,2.2c2,0.5,2.8-0.5,2.8-2.7
		c-0.2-12.3,0-24.6-0.3-37c-0.2-8.5-5.3-14.2-13.6-16.1c-4.9-1.1-9.6-0.8-14.3,0.6c-7.6,2.2-8.1,3.1-6.1,11.5
		c2.8-1.8,5.6-3.6,8.8-4.5c9.8-2.6,16,1.3,16.4,10c0.2,3.7-1.2,4.4-4.5,4.3c-6.9-0.2-13.6,0.3-19.6,4.3c-6.2,4-8.8,12.1-6.5,19.9
		C627.8,75.7,632.9,79.1,640.9,79.4z M638.8,54.3c4.8-3.3,10.3-3.7,15.8-2.9c3.5,0.5,0.8,3.9,1.7,5.5c0,7.8-2.9,12.8-8.4,14.7
		c-5,1.8-10.3,0.2-12.4-3.5C633,63.5,634.3,57.4,638.8,54.3z"/>
	<path class="st0" d="M957.5,200.4c6.7,0.5,12.5-1.3,17.4-8c0.1,2.2,0.3,3.2,0.3,4.1c-0.3,4.7,3.2,3,5.5,3.3
		c3.3,0.4,2.8-1.8,2.8-3.8c-0.1-11.8-0.1-23.6-0.2-35.4c-0.1-8.7-5.2-14.8-13.5-16.6c-5.4-1.2-10.6-0.7-15.7,1
		c-6.5,2.2-7.3,4.4-4.2,10.7c5.9-4,9.1-5,14.8-4.7c6.4,0.3,9.4,3.5,9.8,10.1c0.3,3.7-0.7,4.9-4.6,4.7c-7.5-0.3-15,0.4-21.2,5.5
		c-5,4.1-6.9,12.1-4.6,19.2C946,196.5,950.5,199.8,957.5,200.4z M957.1,175.2c4.7-3,10.1-3.5,15.4-2.7c3.8,0.5,1,4.2,1.9,5.8
		c-0.2,9-4.3,14.3-11.2,14.9c-4.6,0.4-8.6-0.4-10.2-5.7C951.6,182.8,953.1,177.7,957.1,175.2z"/>
	<path class="st0" d="M551.5,78.5c7.5-1.8,7.5-1.8,6.3-10.2c-2.1,0.9-4.2,2.1-6.3,2.7c-12.6,3.5-19.5-0.8-21.1-13.2
		c-0.4-2.8,0-4.2,3.4-4.1c5.8,0.3,11.6,0.1,17.5,0.1c11,0,11,0,10-11c-1.2-12.2-8-20-18.3-20.7c-10.3-0.7-18.5,6-21.2,17.8
		c-1.3,5.8-1.6,11.7-0.7,17.8C523.7,75.1,534.6,82.6,551.5,78.5z M530.8,40.8c2.1-9,7.1-13.1,13.8-10.9c4.8,1.6,9.2,10.5,7.7,15.2
		c-0.5,1.7-1.7,1.2-2.7,1.3c-2.8,0.1-5.6,0-8.4,0c0,0,0,0,0,0c-2,0-4-0.2-5.9,0C530,47.3,529.9,44.7,530.8,40.8z"/>
	<path class="st0" d="M1097.4,401.2c-0.5-7.9-5-13.4-12.8-15c-5.1-1.1-10.2-1.1-15.3,0.6c-7.9,2.6-8,3-5.3,11.1c4.1-3,8.6-5,13.8-5
		c7,0.1,9.9,2.8,11.1,9.6c0.7,4.3-0.6,5.7-4.9,5.4c-6.2-0.5-12.3,0.4-17.9,3.4c-6.8,3.6-10,11.2-8.2,19.2
		c1.7,7.7,6.6,11.9,14.8,12.2c6.4,0.3,12-1.9,16.5-7.8c0.2,2.3,0.1,3.8,0.5,5.2c1.1,3.7,4.2,1.4,6.3,1.9c1.6,0.4,2.4-0.3,2.3-2.2
		C1096.9,426.9,1098.2,414,1097.4,401.2z M1087.2,427.9c-0.5,2.3-1.9,3.9-4,5c-4.1,3.2-8.6,3.5-12.9,0.9c-3.3-2-3.8-5.6-3.4-9.2
		c0.6-5.2,4.1-8,8.7-9.2c4.1-1.1,9.7-3,12.4,0C1090.8,418.3,1089.1,423.8,1087.2,427.9z"/>
	<path class="st0" d="M620,199.6c7.8-1.9,7.8-1.9,6.1-10.4c-2,1-3.5,2-5.2,2.6c-9.8,3.5-21,1.1-21.8-13.3c-0.2-2.9,0.3-3.7,3.3-3.6
		c8.2,0.2,16.3,0,24.5,0.1c2.6,0,3.5-0.7,3.5-3.4c0-4.2-0.4-8.3-1.3-12.4c-2.4-10-8.7-15.6-17.8-15.9c-9.2-0.4-16.6,5-19.9,14.4
		c-2.6,7.6-2.9,15.4-1.3,23.1C593.3,196.9,604,203.5,620,199.6z M599.6,160.3c1.8-7.4,6.9-11,13.3-9.3c4.9,1.2,9.2,9.6,7.9,15.1
		c-0.4,1.6-1.3,1.7-2.6,1.7c-2.8,0-5.7,0-8.5,0c-1.5,0-3,0-4.5,0C598.4,167.7,597.9,167.1,599.6,160.3z"/>
	<path class="st0" d="M561,320.8c7.9-1.6,8-1.8,6.9-10.4c-2.3,1-4.5,2.1-6.8,2.9c-10.5,3.7-19.1-1.6-20.6-12.6
		c-0.5-3.4-0.1-5.1,4.1-4.9c7.8,0.4,15.6,0,23.5,0.2c2.5,0,3.5-0.6,3.5-3.3c-0.1-5.8-0.4-11.6-2.7-17.1c-2.9-6.8-7.9-10.6-15.2-11.1
		c-7.2-0.5-13.5,1.7-17.7,8c-5.4,8.2-6.2,17.4-4.9,26.8C533.5,317,543.8,324.3,561,320.8z M540.8,283c1.2-4.7,2.4-9.5,8-11
		c3.5-0.9,7-0.6,9.6,2.3c3.3,3.7,3.9,8.3,3.9,13c0,1.7-1.6,1.4-2.6,1.4c-2.8,0-5.6,0-8.5,0c0,0,0,0,0,0c-2,0-4-0.2-6,0
		C540,289.5,539.8,286.8,540.8,283z"/>
	<path class="st0" d="M712,386c-4.8-1.6-7.8,0.3-7.9,5.2c-0.2,10.8,0.9,21.6-0.6,32.4c-1,7.5-5.7,11.5-11.7,11
		c-5.6-0.5-8.4-4.6-8.4-12.6c0-10.7-0.2-21.3,0.1-32c0.1-3.8-1.4-4.3-4.6-4.2c-2.9,0.1-4.9-0.1-4.8,4c0.3,11.8,0,23.6,0.1,35.4
		c0.1,8.7,3.4,14.2,9.7,16.3c7.8,2.5,14.2,0.5,20.3-7c0.2,2.2,0.1,3.7,0.4,5.1c0.8,4.1,4,1.5,6.1,2.1c1.4,0.4,2.9,0.3,2.9-2.1
		c-0.1-17-0.2-33.9-0.2-50.9C713.3,387.7,713.6,386.6,712,386z"/>
	<path class="st0" d="M553.9,385.6c-9.6-0.8-16.8,3.6-20.5,12.4c-1.7,4-2.5,8.3-2.7,12.6c-0.9,18.6,5.9,35.3,29.1,31.3
		c8.6-1.5,9-1.6,8.3-10.7c-2.9,1.2-5.2,2.5-7.7,3.3c-11,3.4-19.8-3.1-20-14.6c-0.1-2.4,0.5-3.2,3-3.1c5,0.2,10,0,15,0
		c15.1,0,15.6-0.6,12.1-15.8C568.2,391.8,562.4,386.4,553.9,385.6z M562.1,408.6c0,1.4-1.4,1.1-2.3,1.1c-2.8,0-5.6,0-8.4,0
		c0,0,0,0,0,0c-0.7,0-1.4,0.1-2,0c-3-0.8-7.1,2.1-8.8-1.7c-1.8-4,2.9-13.2,7-14.7c4-1.4,7.9-1.2,10.9,2.2
		C561.7,399.3,562.3,403.9,562.1,408.6z"/>
	<path class="st0" d="M537.2,163.2c0.1,9.3,0,18.6,0,28c0,8.8,0,8.8,8.9,8.7c0.1-14.6,0.1-29.2,0.2-43.7c-2-7.6-6.6-12.1-14.6-12.7
		c-6.4-0.5-11.5,2-15.4,8.1c-0.2-2.3-0.1-3.8-0.5-5.2c-1.1-4.1-4.4-1.5-6.6-2.1c-2.2-0.6-2.3,1-2.3,2.7c0.1,16.6,0.2,33.3,0.3,49.9
		c0,1.1-0.3,2.3,1.1,3c3.9,2,8.1-0.5,8.1-5c0-1.7-0.1-3.3,0-5c0.4-9.5-1-19,0.7-28.4c1.2-6.9,5.7-10.6,11.5-10.1
		C534.3,151.7,537.1,155.5,537.2,163.2z"/>
	<path class="st0" d="M681.5,195.7c-0.3-10.1-0.2-20.3,0-30.4c0.2-8.6,5-14.1,11.6-14c6.2,0.1,9.1,4.5,9.1,14
		c0,10.1,0.2,20.3-0.1,30.4c-0.1,3.8,1.4,4.4,4.6,4.3c3-0.1,4.8-0.2,4.7-4.2c-0.3-12-0.1-24-0.1-35.9c-0.1-8-3.8-13.8-9.9-15.7
		c-8-2.5-14.6-0.2-20.1,7.3c-0.2-2.4-0.2-4-0.6-5.4c-1.1-3.9-4.4-1.4-6.6-2c-2.1-0.5-2.2,1-2.2,2.8c0.2,16.3,0.4,32.6,0.3,48.9
		c0,4,1.7,4.1,4.7,4.1C680,200,681.6,199.5,681.5,195.7z"/>
	<path class="st0" d="M487.7,78.8c2.8,0.1,5,0.3,4.9-3.9c-0.4-9,0.1-18-0.2-27c-0.1-3.9,1.2-4.8,4.8-4.6c5.1,0.3,10.3-0.1,15.5,0.1
		c3.8,0.2,2.9-2.3,2.9-4.3c0-1.9,1-4.4-2.8-4.2c-5.5,0.3-11-0.1-16.5,0.2c-3.2,0.2-3.9-1-3.8-3.9c0.2-5.5,0.2-11,0-16.5
		c-0.1-2.8,0.7-3.8,3.6-3.7c5.7,0.2,11.3-0.2,17,0.2c3.9,0.3,3.8-1.7,3.8-4.5c0.1-2.8-0.3-4.2-3.7-4.1c-8.8,0.3-17.7,0.2-26.5,0
		c-3.1-0.1-3.9,0.9-3.9,3.9c0.2,11.3,0.1,22.6,0.1,34c0,11.5,0.2,23-0.1,34.5C482.5,79.5,485.1,78.8,487.7,78.8z"/>
	<path class="st0" d="M664.1,312.1c-5.3,0.3-10.7-0.2-16,0.1c-3.8,0.2-5-0.7-5-4.8c0.2-19.7,0-39.3,0.2-59c0.1-4.5-2.5-3.7-5-3.7
		c-2.4,0-5.3-1.2-5.1,3.5c0.3,11.5,0.1,23,0.1,34.5s0.1,23-0.1,34.5c0,2.8,0.7,3.7,3.6,3.7c9.2-0.2,18.3-0.3,27.5,0
		c3.8,0.1,3.8-1.8,3.9-4.5C668.3,313.3,667.5,311.9,664.1,312.1z"/>
	<path class="st0" d="M584.4,192.1c-10,1.5-11.6,0.1-11.6-9.8c0-7.3,0-14.6,0-21.9c0-8.1,0-8.2,8.1-8.4c3.1-0.1,3.5-1.4,3.5-4
		c-0.1-2.4,0-4.4-3.3-4c-1.3,0.2-2.7-0.1-4,0.1c-3.5,0.5-4.9-0.9-4.3-4.4c0.2-1,0-2,0-3c0-7.3-0.7-7.7-7.4-4.5
		c-3.5,1.6-1.9,4.7-1.8,7c0.1,3.7-0.7,5.6-4.8,4.8c-3.2-0.6-4.2,0.8-4.2,4c0,3.2,1.2,4.3,4.1,3.7c4.5-0.8,5,1.4,4.9,5.2
		c-0.3,9.8-0.1,19.6-0.1,29.4c0,3,0.3,6,1.7,8.7c2.4,4.7,9.3,6.7,16.4,4.8C586.7,198.6,583.3,194.8,584.4,192.1z"/>
	<path class="st0" d="M801.2,200.1c7.4-1,8.3-2.4,6.2-10.1c-1.4,0.5-2.8,1-4.2,1.5c-10.1,3.2-18.1-1.2-20.5-11.4
		c-1.3-5.4-1.2-10.9,0.1-16.3c2.6-10.2,9.2-14.1,19.5-11.7c1.6,0.4,3.1,1,4.9,1.6c1.3-7.8,1.3-8.1-1.8-9
		c-12.1-3.5-25.9-0.2-31.3,14.5c-1.9,5.3-2.1,10.7-2,16.2C772.8,192.4,784.4,202.3,801.2,200.1z"/>
	<polygon class="st0" points="963.2,386 963.2,386 963.2,386 	"/>
	<path class="st0" d="M963.6,388.4c0-0.8-0.3-1.6-0.4-2.4c-1,0-2,0.2-3,0c-4.6-0.8-6.6,0.7-6,5.7c0.5,3.9,0.1,8,0.1,11.9
		c0,16.1,0,32.2,0,48.3c0,3-0.2,6-4.2,5.9c-3.1-0.1-4.8,0.1-4.6,4.1c0.2,4.1,2.6,3.9,5.3,4c4.3,0.2,8.2-0.7,11.2-4.1
		c1.1-2.8,1.7-5.7,1.7-8.7C963.6,431.5,963.6,410,963.6,388.4z"/>
	<path class="st0" d="M487.6,123.8c-2.2,0-5-1.2-5,3.2c0.2,23,0.2,45.9,0,68.9c0,4.8,2.8,3.7,5.5,4c3.1,0.3,4.4-0.5,4.4-4
		c-0.2-11.3-0.1-22.6-0.1-33.9c0-11.6-0.2-23.3,0.1-34.9C492.6,122.5,489.8,123.8,487.6,123.8z"/>
	<path class="st0" d="M997.1,158.5c0,12.1,0.1,24.3-0.1,36.4c-0.1,3.7,0.6,5.2,4.8,5.1c4-0.1,4.5-1.4,4.5-4.9
		c-0.1-24.3-0.2-48.5,0.1-72.8c0-4.3-1.7-4.2-4.9-4.3c-3.2-0.1-4.6,0.3-4.5,4.1C997.3,134.2,997.1,146.3,997.1,158.5z"/>
	<path class="st0" d="M889.4,364c0-3.9-1.6-4.2-4.6-4.2c-3.1,0-4.8,0.2-4.7,4.1c0.3,12.3,0.1,24.6,0.1,36.9
		c0,12.3,0.2,24.6-0.1,36.9c-0.1,3.9,1.5,4.2,4.6,4.1c3,0,4.7-0.1,4.7-4.1C889.2,413.3,889.2,388.7,889.4,364z"/>
	<path class="st0" d="M586.9,238.9c-3,0-4.8,0-4.7,4.1c0.3,12.3,0.1,24.6,0.1,37c0,12.3,0.2,24.7-0.1,37c-0.1,4.1,1.9,4,4.8,4
		c3.1,0.1,4.7-0.2,4.7-4.1c-0.2-24.7-0.2-49.3,0-74C591.7,238.8,589.8,239,586.9,238.9z"/>
	<path class="st0" d="M571.3,74c-0.1,4.3,1.5,4.7,5.1,4.9c4.3,0.2,4.3-1.9,4.3-5.1c0.1-10.1-0.8-20.3,0.6-30.4
		c1.1-8,4.9-11.6,12.5-12.3c5.2-0.4,1.8-4.3,2.4-6.5c0.7-2.9-1.5-2.5-3.4-2.2c-5.2,0.6-9.3,3-12.5,7.5c0-0.9-0.1-1.9,0-2.8
		c0.8-5.1-2.8-3.8-5.6-4.2c-3.6-0.5-3.5,1.5-3.5,4.1C571.4,42.7,571.6,58.4,571.3,74z"/>
	<path class="st0" d="M777.1,266.8c0.5-2-0.8-2.4-2.7-2.3c-5.6,0.3-9.7,2.8-13.4,7.3c0-1.5,0.2-3,0-4.4c-0.8-4.3-4.2-1.8-6.5-2.3
		c-2.5-0.6-2.5,1.1-2.5,3c0.1,16.5,0.4,33,0.2,49.4c0,4.3,2.5,3.3,4.8,3.4c2.5,0.1,4.8,0.6,4.6-3.6c-0.4-8.6-0.2-17.3-0.1-26
		c0.1-11.7,3-15.2,14.2-18.2C779,272.2,776.6,268.9,777.1,266.8z"/>
	<path class="st0" d="M1052.7,388.5c0.6-1.8,0-3.1-2.5-3c-5.6,0.3-9.6,3-12.6,7.6c-1.3-1.7-0.7-3.5-1-5c-0.8-4.1-4-1.4-6.1-2
		c-1.9-0.5-3.1,0.4-2.9,2.7c1.3,16.4,0.5,32.9,0.5,49.4c0,4.4,2.4,3.6,5,3.8c2.9,0.2,4.5-0.2,4.4-3.9c-0.3-9.5-0.2-19,0.1-28.4
		c0.3-9.8,4.3-14.2,13.2-15.3C1055,393.8,1052.1,390.4,1052.7,388.5z"/>
	<path class="st0" d="M662.9,152.1c4.1-0.9,1.2-4.4,1.8-6.6c0.5-2-0.9-2.3-2.7-2.1c-5.2,0.6-9.6,2.6-13.1,7.4
		c-0.1-1.4-0.3-2.9-0.4-4.3c-0.3-4.6-3.7-1.8-5.7-2.3c-1.9-0.5-3.5-0.1-3.3,2.8c1.2,16.3,0.5,32.6,0.5,48.9c0,4,1.8,4.1,4.8,4.2
		c3.2,0.1,4.8-0.5,4.6-4.2c-0.3-9.1-0.2-18.3,0-27.4C649.6,158,653.1,154.2,662.9,152.1z"/>
	<path class="st0" d="M681.8,320.9c2.9,0.2,4.6-0.1,4.5-3.9c-0.3-8-0.1-16-0.1-24c0-8.2-0.2-16.3,0.1-24.5c0.1-3.4-1.5-4-4.2-3.6
		c-2.3,0.3-5.5-1.4-5.5,3.3c0.1,16.3,0.2,32.6,0,48.9C676.4,321.8,679.2,320.8,681.8,320.9z"/>
	<path class="st0" d="M822.7,144c-2.3,0.1-5-0.9-4.8,3.4c0.3,8.1,0.1,16.3,0.1,24.5c0,8,0.2,16-0.1,24c-0.2,4.2,2.1,3.9,4.9,3.9
		c2.8,0,4.6,0,4.5-3.8c-0.2-16.1-0.3-32.3,0-48.5C827.5,143.4,825.2,144,822.7,144z"/>
	<path class="st0" d="M609.5,23.1c-2.1,0.3-5.2-1.6-5.1,3c0.1,16.5,0.1,33,0,49.5c0,4.8,3.4,2.8,5.6,3.2c2.6,0.5,3.9-0.2,3.8-3.4
		c-0.2-8.2-0.1-16.3-0.1-24.5s-0.2-16.3,0.1-24.5C613.9,22.7,612,22.8,609.5,23.1z"/>
	<path class="st0" d="M1128.3,385.4c-9.4,0-17,7.6-17.1,17c-0.1,9.7,7.6,17.5,17.1,17.5c9.8,0,17.4-7.6,17.4-17.3
		C1145.7,393,1138.1,385.5,1128.3,385.4z M1128.6,417.2c-8.2,0.1-14.5-6.2-14.5-14.4c0-8,6.4-14.6,14.4-14.7
		c7.7-0.1,14.6,6.8,14.7,14.6C1143.2,410.5,1136.6,417.1,1128.6,417.2z"/>
	<path class="st0" d="M681,241.9c-6-0.2-4.4,3.4-4.8,6.6c-0.7,4.9,2,4.5,5.5,4.8c4.6,0.3,5.4-1.7,4.5-5.7
		C687.5,243.2,685.7,242.1,681,241.9z"/>
	<path class="st0" d="M608.7,11.3c2.9-0.4,6.7,0.9,5.6-4.4c-0.6-2.8,2.1-7.4-4.3-6.9c-3.7,0.3-7.3-0.2-5.8,4.9
		C604.1,8.5,603.2,12.1,608.7,11.3z"/>
	<path class="st0" d="M959.5,363.2c-4.2,0.2-6,0.8-5.5,5.4c0.4,3.2-0.7,6.6,4.8,6c3.7-0.4,6.7-0.3,5.2-5.1
		C964.6,365.7,964.8,363,959.5,363.2z"/>
	<path class="st0" d="M822.9,132.4c4.8,0.1,5.1-2.1,4.5-5.6c0.5-3.7,0.2-6-4.9-5.9c-4.7,0.1-5.2,1.7-5.4,5.8
		C817,131.3,818.5,132.3,822.9,132.4z"/>
	<path class="st0" d="M1132.9,404c-0.6-1.2-0.9-1.8,0.2-2.9c2.5-2.3,2.5-5.2,0.5-7.6c-2.3-2.9-6-2.3-8.9-1.6c-2.9,0.7-1,3.9-1.4,5.9
		c-0.3,1.3,0,2.7,0,4c0,0,0,0,0,0c0,1.3-0.2,2.7,0.1,4c0.5,2.3-1.7,6.5,1.5,6.7c2.8,0.1,0.8-4.1,1.4-6.3c0.3-1-0.6-2.6,1.1-2.9
		c1.4-0.2,2.5,0.6,3,2.1c0.7,2,1.4,4.1,2.2,6.1c0.4,1.1,1.3,1.6,2.4,1.2c1-0.4,0.6-1.4,0.4-2.2
		C1134.5,408.3,1133.9,406.1,1132.9,404z M1128.1,400.9c-3,0.1-1.5-2.3-2-3.5c0.3-1.4-0.8-3.7,2.1-3.5c2.1,0.2,3.6,1.2,3.6,3.3
		C1132,399.5,1130.5,400.8,1128.1,400.9z"/>
</g>
</svg>
