<?xml version="1.0" encoding="utf-8"?>
<!-- Generator: Adobe Illustrator 25.2.3, SVG Export Plug-In . SVG Version: 6.00 Build 0)  -->
<svg version="1.1" id="Capa_1" xmlns="http://www.w3.org/2000/svg" xmlns:xlink="http://www.w3.org/1999/xlink" x="0px" y="0px"
	 viewBox="0 0 783.5 914.8" style="enable-background:new 0 0 783.5 914.8;" xml:space="preserve">
<style type="text/css">
	.st0{fill:#FFFFFF;}
</style>
<g>
	<path class="st0" d="M684.4,647.5c0.4,2,0.7,3.7,1.2,5.3c2.5,8.7,5,17.4,7.7,26c2.5,7.9,5.2,15.9,8.1,23.7
		c8.3,22,17.1,43.8,24.9,65.9c12,33.6,27.6,65.5,43.2,97.5c3.9,8,7.9,15.9,11.8,23.9c0.6,1.3,1.2,2.7,1.6,4c1.5,4.8-0.3,8.1-5.2,9.5
		c-6.3,1.8-12.6,3.5-18.8,5.5c-7.3,2.4-14.8,2.4-22.3,2.5c-1.5,0-3.3,0-4.5,0.7c-5.5,3.4-11.3,2.8-17.2,2c-7.9-1.1-15.8-2-23.7-3.2
		c-9.3-1.5-17.6-5.4-25.1-11.3c-4.2-3.3-8.3-6.7-12.5-10.1c-3.7-3-7.9-2.2-12-1.7c-1.1,0.1-2.1,0.5-3.1,0.9c-9,3.6-18.3,4-27.6,2.7
		c-11-1.6-21.9-4-32.9-5.7c-9.3-1.4-14.3-7-17.8-15.5c-7.6-18.6-13.4-37.8-17.7-57.4c-3.3-14.9-6.9-29.8-8.9-44.8
		c-2.2-16.3-6.4-32-10.4-47.8c-4.8-19-8.4-38.3-10.8-57.8c-1.1-9.1-2.5-18.1-3.9-27.2c-0.2-1.4-0.8-2.7-1.3-4
		c-29.7-7.5-53.8-24-74.2-46.3c-0.2,0.1-0.5,0.2-0.5,0.4c-6.1,13.6-15,25.3-25.2,36c-15.1,15.9-32.2,29.3-50.7,41
		c-4.5,2.9-9.4,5-14.2,7.6c-8.1,4.3-16.3,8.4-23.4,14.3c-5.5,4.5-9,10.4-12.2,16.6c-2.4,4.6-5.6,5.3-8.8,1.2
		c-6.2-7.9-14.5-12.1-23.9-14.5c-12.6-3.3-25.3-6.6-38.1-9.3c-17.3-3.8-32.8-11.4-47.9-20.3c-5.8-3.4-11.4-7.2-17-10.8
		c-0.4-0.3-0.9-0.5-2.2-1.1c1.9,8.3,3.4,16.1,5.4,23.7c5.3,21.1,14.7,40.6,23.8,60.1c3.2,6.8,6.5,13.6,9.5,20.5
		c2.3,5.3,0.5,10.4-4.2,13.8c-4.9,3.5-10.3,5.8-16.1,7.1c-6,1.4-11.1,4.6-14.6,9.4c-7,9.8-17.1,12.5-28.1,12.6
		c-8.5,0.1-17-1.3-25.5-1.2c-10.2,0.1-20.5,0.8-30.6,2c-4.2,0.5-8.2,2.8-12.2,4.4c-7.8,3.1-15.8,5.4-24.2,5.8
		c-10.7,0.4-20.5-2.5-29.7-7.7c-5.2-3-10.1-6.3-15.2-9.5c-0.8-0.5-1.6-1-2.4-1.3c-3.8-1.1-4.5-4.2-4.6-7.4c-0.4-8.1,3-15.2,6.2-22.3
		c6.9-15.5,15.1-30.4,20.3-46.6C34,686,40,662.3,42.4,637.8c2.4-24.2,2.2-48.4,1.2-72.7c-0.7-15.5-1.3-31-2.4-46.5
		c-0.6-8.5-2.1-16.9-3.1-25.4c-1.1-9.2-1.9-18.4-3.3-27.6c-1.3-8.8-3.3-17.5-4.5-26.3c-1.2-8.8-1.7-17.7-2.6-26.5
		c-1.2-12.2-0.6-24.3,0.6-36.4c2.2-21.4,4.3-42.8,12.4-63.1c2-5,2-10.8,3.3-16.2c2.6-10.6,6.2-20.8,12.6-29.9
		c9.5-13.4,19.2-26.7,27.9-40.6c8.5-13.6,11.6-28.5,7.4-44.6c-2.5-9.5-6.8-18.1-11.6-26.6c-2.2-3.9-4.6-7.8-6.3-12
		c-1.9-5-2.7-10.3,0.2-15.3c2-3.3,2.9-6.8,2.6-10.6c-0.5-6.1,1.3-10.9,6.5-14.6c1.6-1.2,2.4-4.2,2.6-6.5c0.5-6.7,4.3-10.2,10.3-12.1
		c2.1-0.7,4.2-1.8,5.9-3.2c9.5-8.2,20-13,32.8-11.2c4.4,0.6,8.1-0.4,11.6-3.3c1.6-1.3,3.7-2.5,5.7-2.8c3.6-0.6,5.4,1.2,5.2,4.8
		c-0.5,9.4-1.2,18.8-1.7,28.2c-0.4,6.2-0.5,12.4-0.9,18.6c-0.3,5-0.5,10-1.4,14.9c-1.6,8.8,0.1,17.1,3.3,25.2c1.4,3.6,1.3,4.7-1.7,7
		c-1.3,0.9-1.7,1.7-1.3,3.3c0.6,2.7,1.2,5.5-2.3,6.9c-0.5,0.2-0.7,1.2-0.8,1.8c-0.2,1.2-0.1,2.4-0.1,3.5c-0.1,4.4-1,5.4-5.4,5.4
		c-3.7,0-7.4-0.4-11.6-0.6c0.4,4,0.9,8.1,1.3,12.2c0.9,9.2,2,18.4,2.5,27.6c0.7,12.9,2.8,25.7,7.1,37.8c2.5,7.1,7,13.4,10.5,20.2
		c1.4,2.7,3,5.4,4.1,8.3c1.8,4.8,0.7,9.1-3,12.7c-0.4,0.4-0.7,0.8-1.2,1.1c-4,2.2-5.7,5.2-5.5,10.2c0.2,5.7-4,9.9-7.5,14.1
		c-3.7,4.5-8.7,6.9-13.8,8.7c8.4,17.3,16.7,34.4,25.3,52c1.6-4.2,2.5-8.1,4.5-11.3c2.3-3.7,3.3-7.9,5.6-11.4
		c3.4-5.3,5.2-11.3,7.9-16.8c2.5-5,5.8-9.6,7.4-14.8c1.2-3.7,4.1-6.7,4-11c0-1.7,1.1-3.4,1.7-5.1c0.6-1.4,1.4-2.8,2-4.2
		c1.7-4.3,3.3-8.6,4.9-12.9c0.2-0.4,0.4-0.9,0.3-1.3c-1.2-4.1,1.5-6.8,3.3-9.9c0.6-1,1.2-2.1,1.6-3.2c1.6-3.7,3.1-7.5,4.7-11.3
		c0.1-0.3,0.4-0.6,0.5-0.9c0.6-3.4,1.1-6.9,1.6-10.4c0.1-0.4,0.1-0.9,0.2-1.3c1.7-4.2,3.4-8.3,5.1-12.5c0.8-2.2,1.5-4.4,2.3-6.6
		c0.5-1.6,1.1-3.2,1.7-4.8c0.6-1.5,1.1-3,1.9-4.4c1.1-1.7,2.4-3.3,4-5.3c0.1-0.5,0-1.8,0.4-2.9c0.9-2.8,1.9-5.6,3.2-8.2
		c1.7-3.4,3.7-6.6,5.5-10c1.5-2.8,2.8-5.7,4.2-8.6c0.5-1,0.6-2.2,1.3-3c2.9-3.2,3.9-7.4,5.9-11.1c0.8-1.5,0.7-3.4,1.4-4.9
		c1.6-3.7,3.6-7.3,5.2-11.1c1-2.4,1.7-5.1,2.6-7.6c0.9-2.6,2-5.1,2.9-7.7c0.2-0.6,0.3-1.2,0.4-1.8c0.1-0.8,0.1-1.7,0.4-2.4
		c1.7-3.5,3.5-7,5.3-10.4c0.3-0.7,0.6-1.4,0.8-2.2c0.3-1.1,0.4-2.4,0.9-3.4c1-2.1,2.5-4,2-6.6c-0.1-0.4,0.2-0.9,0.4-1.3
		c2-3.6,4.4-7,5.8-10.7c1.1-3,3.4-5.1,4.1-8.5c0.9-4.4,3.6-8.5,5.6-12.7c1.4-3.1,2.9-6.3,4.2-9.4c0.9-2.1,1.7-4.3,2.7-6.4
		c1.9-4.1,3.8-8.2,5.8-12.4c0.2-0.4,0.6-0.7,0.7-1.1c0.8-3.4,1.5-6.8,2.2-10.2c0.1-0.4,0-0.9,0.3-1c4-2.6,2.7-7.9,5.8-11.2
		c1.5-1.6,1.4-4.7,2.2-7.1c0.8-2.2,1.9-4.4,3-6.5c1.3-2.5,2.9-4.9,4.3-7.4c1-1.8,1.5-3.8,2.6-5.5c1.3-1.8,3-3.2,4.5-4.7
		c0.4-0.4,1-0.7,1.2-1.2c0.6-1.6,1.1-3.2,1.6-5c-1.7-0.2-3.5-0.3-5.2-0.8c-0.8-0.2-1.3-1.4-1.9-2.1c0.8-0.4,1.6-1.2,2.4-1.2
		c7.4,0.2,14.9,0.6,22.3,1c1.5,0.1,3,0.5,2.6,2.3c-0.2,0.7-1.9,1.3-2.9,1.4c-2.3,0.1-4.7-0.2-6.8-0.3c0.2,2-0.1,4,0.6,5.7
		c0.7,1.7,1.9,3.4,3.3,4.6c2.3,1.9,4.4,3.6,3.9,6.9c0,0.2-0.1,0.5-0.1,0.5c3,1.8,3,5.3,4.4,8c1,1.9,3.1,3.5,1.8,6.1
		c-0.1,0.2,0.3,0.8,0.5,1.1c0.4,0.6,1.1,1.1,1.2,1.8c1,5.1,4.9,9.2,4.6,14.7c0,1.1,1.1,2.3,1.4,3.5c1,4.3,1.8,8.7,2.7,13.1
		c0.2,0.9,0.5,1.9,1,2.7c1.3,2,2.2,3.8,2.4,6.4c0.2,3.6,1.6,7.1,2.6,10.7c0,0.1,0.1,0.2,0.1,0.2c0.7,5.4,3.2,10.2,4.7,15.3
		c0.4,1.5,1.5,2.9,1.9,4.4c0.7,2.2,1,4.5,1.6,6.8c1.1,4.5,2.3,8.9,3.5,13.4c0.2,0.8,0.7,1.4,0.9,2.2c0.7,2.1,1.3,4.2,2,6.3
		c0.1,0.3,0.1,0.7,0.3,1c2.2,2.4,2.7,5.2,2.9,8.5c0.1,2.7,1.4,5.3,2.4,7.9c1.4,3.5,3,7,4.6,10.5c0.1,0.2,0.2,0.3,0.2,0.5
		c1.9,5.7,3.8,11.4,5.5,17.1c0.5,1.6,0.4,3.4,0.7,5.1c0.1,0.8,0.3,1.5,0.6,2.2c0.2,0.5,0.6,0.9,0.7,1.4c1.2,5.2,2.2,10.5,3.7,15.7
		c1.1,3.8,0.1,7.8,1.7,11.7c1.2,3,1.2,6.6,2,9.9c0.6,2.5,0.2,5.1,2.2,7.2c0.6,0.6,0.8,1.7,0.9,2.5c0.3,3.6,0.6,7.1,2.9,10.1
		c0.1,0.1,0.1,0.2,0.1,0.3c-1.3,3.6,1.8,6,2.6,9c0.5,1.9,0.7,3.9,1,5.9c0.1,0.5,0.2,1,0.4,1.5c0.1,0.2,0.4,0.4,0.4,0.7
		c1.7,4.6,3.4,9.1,4.9,13.8c0.5,1.4,0.1,3.2,0.1,5.2c0.5,0.8,1.5,2.2,2.3,3.6c1.3,2.4,2.3,4.9,3.7,7.1c5.7,9.3,11.5,18.5,17.3,27.7
		c4.5,7,10.1,12.3,19,13.1c4.4,0.4,7.9,0,10.7-4.3c9-13.7,18.4-27.2,27.8-40.7c4.4-6.4,9.8-11.7,16.9-15.4c7.8-4,15.1-8.9,22.6-13.5
		c3-1.9,5.7-4.1,9.1-6.6c-1.5-5.5-2.8-11.3-4.7-17c-3.2-9.2-6.1-18.4-6-28.3c0-0.3-0.2-0.7-0.3-1.3c-1.5,0.2-3,0.4-4.5,0.7
		c-4.1,0.7-7.6-0.9-11.2-2.6c-4.3-2.1-7.2-5.7-9.3-9.9c-1.9-3.7-3.8-7.4-5.6-11.2c-1.7-3.6-3.3-6.9-6.4-9.9c-2.2-2.2-3.5-6-4-9.2
		c-1.6-10.4-2.4-20.8-4-31.2c-2.1-13.3-0.2-26.4,3.7-38.8c4.5-14.2,12.7-26.5,26.1-34.3c2.4-1.4,4.5-1.3,6.8,0.1
		c4.3,2.5,8.8,4.7,13.1,7.2c13.2,7.8,23.7,18.3,31.9,31.4c5,7.9,7.4,16.6,8.8,25.5c1.3,8.5,1.1,17.2,1.3,25.8
		c0.2,11,0.8,21.9,2.9,32.9c2.3,11.8,6.3,22.9,11.3,33.7c6.1,13,14.7,24.4,24.9,34.7c13.6,13.7,28.4,25.9,43.9,37.4
		c5.2,3.9,8.5,9.3,12.1,14.5c13.8,20.2,23.6,42.3,30.3,65.7c3.7,13,5.6,26.4,8.8,39.6c3.7,15.6,7.7,31.1,12,46.6
		c1.6,5.8,4.4,11.3,6.3,17c5.9,17,11.8,34.1,17.3,51.2c2.2,6.8,3.8,13.8,5.3,20.8c3.1,14.6-1.9,27.2-10.3,38.7
		c-4.4,6.1-9.2,11.9-13.7,18c-1.1,1.5-2.2,3.3-2.5,5.1c-1.2,7-5.5,12-10.2,16.9c-8.7,9.1-19.9,14.1-30.9,19.5
		C685.8,646.9,684.9,647.3,684.4,647.5z M751.3,555.8c-0.6-3.7-1.1-10.1-2.9-16.1c-5.4-17.8-11.2-35.4-17.2-53.1
		c-1.8-5.3-4.8-10.2-6.5-15.5c-3.1-9.5-6-19-8.3-28.7c-3.8-15.8-7.5-31.6-10.6-47.6c-3.9-19.7-10.4-38.5-18.6-56.8
		c-6.5-14.3-14.7-27.5-24.1-40c-1.5-2-3.1-2.6-5.5-1.2c-7.5,4.4-15.1,8.5-22.7,12.9c-5.8,3.3-11.4,6.5-18.6,5.8
		c-6.9-0.7-13.9-0.9-20.9-1.2c-6.8-0.3-13.3-1.5-19.4-4.7c-7.9-4.1-15.8-8.1-23.4-12.6c-9.6-5.7-18.8-11.9-28.1-18.1
		c-3.9-2.6-3.6-2.5-7.9-0.4c-9.2,4.4-15.9,11.2-21.4,19.5c-5.3,8-10.5,16.1-16,24c-8,11.5-16.3,22.7-24.4,34.1
		c-10.4,14.8-21.6,29.1-34.4,41.8c-10.3,10.2-21.7,19.3-32.8,28.7c-10.7,9.1-21.6,18-32.5,27c-1.5,1.3-1.5,2.2-0.4,3.6
		c9,10.9,15.8,23.1,21,36.1c5.4,13.4,12.8,25.4,21.5,36.8c9.4,12.4,20.1,23.9,27.8,37.6c2.2,4,5,7.8,8,11.3
		c8.9,10.6,19,20,30.4,27.9c13.2,9.2,27.4,16.5,43.1,20.2c10.2,2.4,20,5.6,29.5,10.2c8.6,4.1,17.1,8.5,26.1,11.6
		c12.2,4.3,24.8,7.7,37.3,11c14.7,3.9,29.2,2.9,43.5-2.5c9.3-3.5,18.7-7,28.3-9.6c10.7-3,20.5-7.7,30.2-13c7.2-4,13.3-9.3,18.1-15.8
		c2-2.7,3-6.1,4.5-9.2c1.3-2.8,2.3-5.7,4.1-8.2c5-7.1,10.6-13.9,15.4-21.1C747.7,573.9,751.1,566.7,751.3,555.8z M48,597.3
		c12.4-11.5,19.4-25.9,27.3-39.5c7.9-13.5,15.8-27.1,19.8-42.6c0.2,1.6,0.2,3.2-0.1,4.7c-2.3,11.7-8.3,21.9-13.5,32.4
		c-4.3,8.5-9.4,16.5-14.4,24.6c-5.2,8.3-10.4,16.5-18.3,22.6c-0.5,0.4-0.8,1.1-0.8,1.7c-0.8,12.5-1.2,24.9-2.3,37.4
		c-0.7,8.5-1.9,17-3.7,25.3c-2.6,12-5.6,23.9-8.9,35.8c-2.5,9.1-5.3,18.1-8.9,26.8c-4.8,11.2-10.7,22-15.7,33.1
		c-2.1,4.6-3.8,9.5-4.9,14.5c-0.6,2.7-1.7,6.2,1.9,8.3c5.8,3.4,11.5,7.1,17.3,10.4c12.8,7.3,26.3,10,40.7,6c5-1.4,9.8-3.7,14.8-5.5
		c10.1-3.7,20.7-4.8,31.3-4.8c12.9-0.1,25.9,1,38.8,0.9c8.3-0.1,15.8-3.2,21-10.3c4.2-5.8,10.1-9.3,16.9-11.4
		c4.5-1.4,8.8-3.4,13.1-5.4c2.4-1.1,4.6-3,4.8-5.8c0.2-2.4-0.2-5-1-7.2c-1.1-3.3-2.8-6.4-4.3-9.5c-5.1-10.8-10.3-21.5-15.2-32.5
		c-8.7-19.6-15.1-39.9-18.1-61.2c-0.2-1.3-0.4-3-1.3-3.8c-6.2-5.6-12.5-10.9-18.8-16.4c-0.1,0.3-0.5,0.8-0.5,1.2
		c0.2,5.3,0.1,10.7,0.9,15.9c0.9,6.2,2.7,12.2,4,18.3c1.6,7.2,2.6,14.5,4.7,21.5c2.5,8.2,5.8,16.2,8.9,24.3
		c4.8,12.4,10.6,24.4,18.7,35c0.3,0.3,0.2,0.9,0.3,1.5c-2.2-0.5-2.8-1-5.5-4.9c-6.8-9.9-11.9-20.7-16.1-31.8
		c-3.3-8.5-6.9-17-9.3-25.8c-3.2-11.9-5.3-24.1-7.8-36.2c-1.4-6.6-1.4-13.2,0.2-19.8c0.1-0.6-0.1-1.5-0.5-2
		c-3.6-4.2-7.3-8.2-10.8-12.5c-8.3-10.4-15.1-21.8-20.3-34.1c-3.1-7.3-5.2-15-7.7-22.2c-0.6,2.8-1.1,6.2-2.1,9.5
		c-4.6,15.7-8.7,31.6-14.1,47c-3.7,10.6-8.9,20.7-14.5,30.5c-5.7,10.1-11.8,19.9-18.5,29.4c-0.7,0.9-1.7,1.6-2.6,2.4
		c-0.2-0.2-0.5-0.5-0.7-0.7c0.3-0.6,0.6-1.2,1-1.7c4.4-6.8,9.4-13.2,13.1-20.4c4.6-9,10.8-17.1,14.2-26.8c2.5-7.3,6.3-14.1,8.8-21.4
		c3.6-10.8,6.6-21.7,9.7-32.7c1.4-5.2,2.9-10.4,3.5-15.7c1.2-12.2-1.9-24.3-2.6-36.4c-0.4-7.8,0-15.7-0.1-23.5c0-4.5,0.2-9-3.3-12.7
		c-0.8-0.9-1.1-2.5-1.2-3.8c0-2,0.7-4.1,0.6-6.1c0-9.4,8.7-15,15.6-13.1c0.4,0.1,1.1,0.2,1.3,0c1.9-2,3.8-4,5.4-6.2
		c1.5-2,2.7-4.1,4-6.2c0.7-1.1,1.6-2.3,1.9-3.5c0.8-3.3,2.1-6.1,5.1-7.9c0.7-0.4,1.2-1.4,1.6-2.2c1.3-2.7,2.1-5.8,4-8.1
		c1.8-2.2,3.9-3.9,4.1-7c0.2-2.9,2.9-4.3,4.3-6.5c1.4-2.2,1.7-5.2,2.6-7.8c0.3-0.9,1.4-1.5,1.8-2.3c1-2.5,2-5,2.7-7.5
		c0.3-0.9,0.2-2.2-0.2-3.1c-0.9-2.1-2.3-4.1-3.3-6.2c-9.3-18.9-18.3-38-28-56.6c-4.6-8.9-10.3-17.3-18.8-23.3
		c-3.3-2.3-6.5-2.7-9.9-1.2c-5.7,2.6-11.2,5.6-16.9,8.2c-8,3.8-16.5,3.4-25,2.3c-2.2-0.3-3.3,0.3-4.2,2.3
		c-4.7,10.2-6.7,21.2-8.6,32.1c-1.1,6.5-1.7,13-2.4,19.6c-0.7,6.6-2,13.3-1.9,19.9c0.1,13.8,0.6,27.7,1.6,41.5
		c0.6,8.2,2.3,16.4,3.5,24.5c1.2,7.9,2.4,15.8,3.5,23.7c0.9,6.6,1.5,13.3,2.4,20.7c5.7-9.3,9.5-18.6,12.3-28.2
		c2.6-9.1,4.2-18.5,6-27.8c1.3-6.9,2.4-13.8,3.4-20.8c0.9-6.1,1.4-12.3,2.3-18.5c1.5-10.6,3.4-21.2,4.7-31.9
		c1.2-9.7,3.8-19.1,6.7-28.4c0.3-0.9,1-1.7,1.5-2.6c0.2,0.1,0.5,0.2,0.7,0.3c-0.5,1.9-1,3.8-1.4,5.6c-1.6,7.3-3.4,14.6-4.6,22
		c-1.3,7.5-2,15.1-2.9,22.7c-0.9,6.9-1.8,13.7-2.6,20.6c-0.6,5.3-0.9,10.6-1.8,15.8c-1.8,9.9-3.9,19.7-5.8,29.5
		c-2.9,14.8-7.6,28.8-16,41.4c-1.3,2-1.6,4.1-1.4,6.4c0.9,9.1,2,18.3,2.6,27.4c0.8,11.1,1.2,22.2,1.6,33.3
		c0.4,9.8,0.4,19.6,0.6,29.4C48,594.6,48,595.6,48,597.3z M122.6,465c0,4.8,0.5,8.5-0.1,12.2c-0.8,5-2.9,9.8-3.6,14.7
		c-1.6,11.3-0.9,22.6,0.6,33.9c1.2,9.2,3.1,18.2,7.1,26.7c8.4,18.2,20.2,33.9,33.8,48.5c20.4,21.9,45.4,36.3,73.9,44.6
		c11,3.2,22.4,4.2,33.8,4.9c22.1,1.4,43.7-0.8,64.6-8.4c17.6-6.4,33.7-15.7,49.3-25.9c16.4-10.8,29.1-25,38.1-42.6
		c1.1-2.2,1.5-4,0-6.3c-3.1-4.5-5.7-9.3-8.9-13.6c-6.1-8.1-12.6-15.9-18.8-24c-7.5-9.8-14-20.1-18.6-31.6
		c-3.1-7.8-7.1-15.3-10.7-22.9c-23.8,6.2-46.9,4.9-69.7-2.2c-0.4,0.9-0.7,1.4-1,2c-12.5,28.7-24.9,57.4-37.4,86.1
		c-2.7,6.3-5.7,12.5-8,19c-1.6,4.4-3.3,8.5-6.9,11.7c-4,3.6-8.6,6.1-13.7,7.4c-6.3,1.6-12.4,0.8-17.7-3.4c-5.4-4.2-6-10.7-1-13.9
		c3.3-2,7.2-3.6,11-4.1c7.1-0.9,14.3-1,21.4-1.3c3.2-0.2,5.3-1.4,6.6-4.5c14.1-32.7,28.4-65.4,42.6-98.1c0.3-0.7,0.5-1.5,0.7-1.9
		c-1.6-1.3-3.4-2-4.2-3.4c-1.6-2.9-1.6-6.6-3.7-9.4c2.4-3-1.5-8.3,3.6-10.4c0.2-0.1-0.1-0.9,0.2-1.3c0.8-1.2,1.5-2.7,2.7-3.2
		c0.7-0.3,2.2,0.9,3.2,1.8c2.2,2,4.3,4.1,6.8,6.4c7.2-16.2,14.1-31.7,20.9-46.8c-1.6-1.1-3.1-1.9-4.3-3.1c-1.4-1.3-2.5-1.6-3.8-0.2
		c-1.9,2-3.7,1.2-5.6,0c-0.7-0.4-1.2-1-1.9-1.5c0,0.3,0.1,0.5,0.1,0.8c-1.4,0.5-2.8,1.1-4.2,1.4c-1.3,0.3-2.8-0.2-3.9,0.4
		c-3,1.5-5,0.6-7.1-1.9c-3.1-3.7-3.8-3.7-7.2-0.3c-0.1,0.1-0.3,0.3-0.4,0.4c-1.3,1.4-2.5,1.6-3.9,0.1c-0.5-0.5-1-1-1.6-1.5
		c-2.7-2.5-3.2-2.5-5.7,0.2c-2.5,2.6-2.6,2.7-5.1,0.1c-1.6-1.6-2.8-2.2-4.6-0.2c-1.3,1.5-3,2-5,0.6c-2.1-1.4-3.9-1.5-5.2,1.4
		c-0.8,1.8-2.5,3.1-4.5,1.3c-1.8-1.6-2.9-1-4.1,0.9c-1.8,2.8-2.9,2.9-5.7,1.1c-0.4-0.2-0.8-0.4-1.4-0.8c-0.8,0.9-1.7,1.6-2.4,2.6
		c-2,2.6-4.2,4.5-7.8,2.6c-1.3-0.7-2.8-0.5-3.5,1.4c-0.4,1.1-1.4,1.9-2.1,2.8c-4.3-2.4-4.3-2.4-6.5,1.7c-0.3,0.5-0.5,1.1-1,1.3
		c-1,0.4-2.4,1-3,0.6c-1.6-1-2.5-0.3-3.8,0.5c-1.5,0.9-3.9,2.2-5.1,1.6c-2.4-1.1-3.3-0.2-4.8,1.3c-0.7,0.7-2.7,1.4-3.1,1
		c-2.5-2.6-3.8-1.2-5,1.2c-0.7,1.5-1.8,1.8-2.9,0.2c-0.3-0.5-0.8-0.8-1.5-1.6c-1.1,3.4-3.3,5.9-1.1,9.5c1.1,1.8,0.7,4.5,1.1,6.8
		c0.2,1,0.2,2.2,0.8,3c4.3,6.6,8.7,13.2,13.2,19.6c3.8,5.4,6.4,11.2,7.8,17.7c1,4.5,1.9,9,1.6,13.6c-0.3,4-0.8,8-1.4,12
		c-0.1,0.6-1,1.1-1.5,1.6c-0.4-0.5-1.1-1-1.2-1.5c-0.4-3.2-0.7-6.4-1.1-9.6c-0.4-3.2-0.8-6.3-1.2-9.9c-1.2,0.7-1.7,0.9-2.1,1.3
		c-3.5,2.7-6.9,5.6-10.4,8.3c-2.7,2-5.2,1.5-7.8-0.6c-3.1-2.6-3.4-6-3.5-9.5c0-1.3,0.9-2.6,1.4-3.8c0.9,0.5,1.9,1,2.8,1.5
		c3.2-3,3.5-4.7,1.7-8.4c-1-1.9-2.2-3.9-2.5-6c-0.8-5.8-1.2-11.7-1.8-17.5c-0.1-1.3-0.2-2.6-0.3-3.8
		C158.3,452.6,140.2,458.9,122.6,465z M779.6,895c-1.5-0.6-2.7-0.8-3.5-1.5c-8.7-7.7-17.6-15.2-25.9-23.2
		c-14.4-13.8-27.5-28.7-38.7-45.3c-4.5-6.7-8.5-13.7-12.6-20.6c-0.3-0.5-0.4-1.2-0.5-1.8c0.3-0.2,0.6-0.4,0.9-0.5
		c20.7,35.2,49.4,63.4,79.3,90.5c-0.2-0.9-0.5-1.7-0.9-2.5c-8.4-17-17.2-33.8-25.1-51c-10-21.7-20.5-43.3-28.4-65.9
		c-8-22.9-17.1-45.3-25.6-68c-2.5-6.6-4-13.6-6.8-20.1c-5-11.7-8.4-23.8-10.7-36.8c-11,3.7-22.2,6.7-32.8,11.1
		c-15,6.2-30.4,8.5-46.1,4.8c-15.3-3.5-30.5-8.2-45.4-13.3c-8.7-3-16.8-7.7-25.1-11.8c-6.2-3-12.5-5.5-19.5-6.7c0,0.6,0,0.9,0,1.3
		c1.2,8.8,2.5,17.6,3.7,26.4c3.4,24.4,7.5,48.6,14.7,72.2c3.6,12,4.9,24.5,7,36.8c3,17.3,7.2,34.4,10.9,51.6
		c3.7,16.7,9,32.9,15.5,48.7c1.1,2.7,2.6,5.4,4.2,7.9c0.7,1,1.9,2,3.1,2.4c6,1.7,12,3.3,18.1,4.7c12.1,2.8,24.4,4.8,36.9,3.5
		c4.4-0.5,8.8-2.2,13.1-3.3c7.2-1.9,13.7-1.4,19.4,4.2c3.7,3.6,7.9,6.7,12.1,9.6c6.8,4.7,14.2,8,22.5,9.1c7.5,1,14.9,1.9,22.4,2.9
		c5.1,0.7,10,1.1,14.8-1.7c1.7-1,4.2-1,6.3-1.2c3.7-0.2,7.6,0.4,11.1-0.4c9.6-2.1,19-4.7,28.5-7.2
		C780.1,899.1,780.5,898.1,779.6,895z M193,420.8c0.9-1,1.6-2.1,2.5-2.7c0.8-0.5,2.2-0.9,2.8-0.5c2.1,1.5,3.6,0.4,5.4-0.6
		c1.6-1,3.3-1.7,4.9-2.6c0.3-0.2,0.5-0.6,0.6-0.9c2-3.7,4-7.5,5.9-11.2c4.1-7.9,8.5-15.7,10.2-24.6c1.1-5.9,1.8-11.8,2.4-17.8
		c1.1-10,2.2-19.9,8.3-28.4c0.6-0.8,0.8-1.8,0.9-2.8c0.4-4.5,0.5-9.1,1.2-13.6c1.9-12.6,2.9-25.5,6.2-37.8
		c3.4-12.6,9-24.7,14.1-36.7c1.6-3.8,4.7-7,7.5-10.2c2.7-3.1,6.2-5.6,8.9-8.7c4-4.5,7.5-9.4,11.5-13.8c5.7-6.3,6.1-13.1,3.4-20.7
		c-1.6-4.5-3.1-9-4.6-13.6c-3.2-10.3-4.7-20.6-2.5-31.4c4.7-23,23.8-31.9,42.5-29.7c13,1.5,22.5,9.4,27.9,21.5
		c5.3,11.9,5.2,24.6,4.2,37.2c-0.7,8.8-4.3,16.9-7.7,24.8c-2,4.6-2.3,8.9,0.2,13.5c5.7,10.5,13.3,19.5,22,27.6
		c6.6,6.1,12.5,12.7,16.9,20.5c2.5,4.5,5.1,9,7.7,13.5c1.6,2.7,3.5,5,6.6,5.9c-0.2-2.4-0.4-4.7-0.6-7c-0.1-0.6-0.3-1.1-0.6-1.6
		c-0.6-1.3-1.7-2.5-1.8-3.8c-0.4-3.7-1.4-7-2.9-10.4c-1.4-3.2-2-6.8-3.1-10.2c-1.2-3.6-1.8-7.4-2.9-11.1c-1-3.3-1-6.9-2.2-10.4
		c-0.6-1.6,0.6-3.9,0-5.6c-2.4-6.4-1.7-13.5-4.6-19.8c-0.6-1.4-0.4-3.2-0.8-4.8c-1.5-5.2-3.1-10.4-4.7-15.6c-0.3-0.9-0.7-1.8-1-2.7
		c-0.9-2.7-1.8-5.4-2.7-8.2c-0.2-0.6-0.1-1.2-0.4-1.8c-1.4-3.2-2.9-6.4-4.4-9.7c-0.1-0.3-0.2-0.7-0.3-1.1c-1-3.7-1.9-7.4-2.9-11
		c-1.5-5.2-3.1-10.3-4.6-15.5c-0.1-0.3-0.1-0.7-0.4-1c-3.3-3.5-3.2-8.5-4.9-12.7c-1.5-3.7-2.1-7.7-3.3-11.6
		c-1.5-4.8-3.4-9.5-4.8-14.4c-1.6-5.8-2.5-11.8-4.2-17.5c-1.6-5.6-2.4-11.3-4.6-16.8c-3.2-8.2-5.7-16.7-8.9-25c-1.1-2.9-3-5.6-4.9-8
		c-1.1-1.4-3-2.3-4.6-3.2c-0.6-0.3-1.9-0.3-2.3,0.1c-1.5,1.6-3,3.2-4.2,5.1c-1.6,2.3-2.9,4.7-4.2,7.2c-1.5,2.9-3.1,5.8-4.3,8.9
		c-1.5,3.6-2.6,7.4-3.9,11.1c-0.7,2.1-1,4.7-2.4,6.3c-3.2,3.7-2.8,8.5-4.9,12.5c-2.1,3.9-3.4,8.2-5,12.4c-0.5,1.1-0.9,2.3-1.4,3.4
		c-1.2,2.8-2,5.9-3.7,8.3c-2.9,3.9-4,8.5-5.9,12.7c-1.6,3.5-2.4,7.5-4.6,10.6c-3.3,4.8-5.9,10.1-7.7,15.4c-1.4,4.3-4.5,8-4.5,12.9
		c0,1.7-1.9,3.2-2.5,5c-1.4,4-2.6,8-3.9,12c-1.5,4.8-3.8,9.3-4.8,14.2c-0.4,1.8-1.7,3.3-2.5,5c-1.8,3.9-3.5,7.8-5.2,11.7
		c-0.2,0.5-0.7,0.8-1,1.2c-0.3,0.5-0.8,1-0.8,1.5c0,5.6-4.9,9.1-6,14.2c-0.1,0.4-0.8,0.8-1.1,1.2c-0.4,0.5-0.8,0.9-1.1,1.5
		c-1.4,3.2-2.6,6.4-4,9.6c-0.6,1.3-1.6,2.4-2.4,3.6c-0.3,0.5-0.7,1-0.9,1.6c-1.5,3.5-3.1,7-4.6,10.6c-1.4,3.4-2.8,6.7-4.3,10.1
		c-1.7,3.8-3.5,7.7-5.2,11.5c-0.3,0.7-0.7,1.4-0.8,2.2c-0.5,1.9-0.8,3.9-1.2,5.8c-0.7,3.2-2.4,6.3-2.2,9.4c0.3,4.9-2.5,8.6-4,12.6
		c-1.1,3-3,5.8-4.1,8.9c-0.3,0.8-0.9,1.4-1.2,2.1c-0.4,0.8-0.7,1.6-0.9,2.4c-0.6,2.1-1,4.2-1.6,6.3c-1,3.5-0.6,7.4-3.9,10
		c-0.1,0.1,0,0.3,0,0.5c0.1,3.3-2.3,5.3-3.7,7.9c-1.3,2.5-1.2,5.7-2,8.5c-0.3,1.2-1.6,2.2-2.1,3.4c-2.2,5-5.7,9.3-6.9,14.8
		c-0.1,0.5-0.8,0.9-1.2,1.5c-0.3,0.4-0.5,0.9-0.7,1.4c-0.9,2.2-1.5,4.7-2.9,6.5c-1.2,1.6-1.7,3-2,5c-0.3,2.7-1,5.5-3.6,7.3
		c-0.4,0.3-0.5,1.2-0.6,1.8c-0.5,2.7-1,5.2-3.3,7.4c-1.9,1.8-2.2,5.1-3.3,7.7c-0.1,0.1-0.3,0.2-0.4,0.4c-1.7,1.6-1.9,3.2-0.6,5.2
		c2.1,3.2,4.1,6.5,6.2,9.6c4.3,6.5,8.7,13,13.2,19.6c2.5-6.1,3.7-6.9,6.7-4.4C188.5,418.1,189.2,418,193,420.8z M151.6,111.1
		c0.9-14.2,1.9-28,2.7-41.7c0.1-1.9-1.4-3-3.1-2.2c-1.4,0.6-2.7,1.5-3.9,2.5c-3,2.4-6.4,3.4-10.1,3.5c-3,0.1-6-0.1-9,0
		c-4.7,0.2-9.2,1.3-13.5,3.7c-7,3.8-12.7,9.6-20.5,12.3c-2.7,0.9-4.7,3.6-4.9,7.2c-0.2,3.8-0.7,7.9-4.4,10.4
		c-4.1,2.8-5.7,6.7-5.1,11.5c0.5,4.1-0.6,7.8-2.3,11.5c-1,2.2-1.4,4.8-1.3,7.2c0.3,6.2,3.4,11.4,6.5,16.5
		c5.2,8.7,10.1,17.4,12.6,27.3c4.4,17.6,1.6,33.8-8.5,48.8c-7.4,10.9-14.9,21.7-22.5,32.4c-7.5,10.7-13.6,22.1-17,34.8
		c-1.1,4-1.7,8-2.6,12.8c5.7,0,10.5,0.1,15.4,0c6.2-0.1,11.8-2.1,17.2-5.3c4-2.4,8.5-4.1,12.9-5.8c3.7-1.4,8-1.5,10.9,1.2
		c5.9,5.7,11.7,11.7,16.7,18.2c3.5,4.5,5.7,10,8.5,15c7.1-3.5,13-8.4,17.4-15.1c2.1-3.2,3-6.7,1.2-10.3c-1.5-2.9-3-5.8-4.7-8.6
		c-6.8-11.3-11.3-23.5-14.4-36.2c-0.7-2.9-0.7-5.9-1-8.8c0.4-0.1,0.8-0.2,1.3-0.3c2.1,9,3.9,18,8.3,26.2c4.3,8.2,8.7,16.4,13.1,24.8
		c2.5-2.2,4.6-4,6.5-5.9c2.2-2.2,3.2-4.9,1.9-7.9c-1.1-2.7-2.3-5.3-3.6-7.9c-4.3-8.2-9.6-15.9-12.2-25c-4.2-14.4-4.9-29.3-5.9-44.1
		c-0.7-9.7-1.5-19.3-2.2-29c-0.1-1.7-1-2.3-2.6-2.5c-2.5-0.3-5.1-0.6-7.5-1.2c-5.5-1.4-11.4-2.1-15.2-7.1c-1.1-1.4-2.3-2.8-3.6-4.1
		c-1.6-1.7-3.3-3.4-5.3-5.5c1.2,0,2-0.2,2.4,0c1.7,1.2,3.5,2.3,4.8,3.9c3.8,4.7,8.1,8,14.4,8.6c8.4,0.8,16.7,2.2,25,3.3
		c2.1,0.3,3.2-0.5,3.4-2.7c0.2-2.4,0.5-4.8,0.8-7.2c-2.3-0.4-4.9,0.2-6.7-1.6c0.1-0.3,0.1-0.5,0.2-0.8c2.6,0.2,5.3,0.4,8,0.6
		c0-0.8-0.1-1.3-0.1-1.7c-0.2-2.6-0.5-5,2.8-6.1c1.5-0.5,1.9-1.9,1.2-3.8c-3-7.8-4.3-15.9-3.9-24.3c0.3-5.6,0.9-11.2,1.3-16.8
		c0-0.8-0.8-2-1.5-2.3c-3.7-1.5-7.6-1.9-11.5-0.8c-8.4,2.3-16,6.1-23.1,11.2c-0.8,0.6-1.8,0.7-2.7,1.1c-0.2-0.3-0.3-0.6-0.5-1
		c2.3-3,5.7-4.8,9-6.5C130.5,112.5,139.9,107,151.6,111.1z M489.2,134c0.2,2.9,0.1,6.2,0.6,9.5c1.1,8,2.3,15.9,3.6,23.8
		c0.6,3.4,1.1,7.2,4.2,9.4c2.5,1.8,3.7,4.3,5,7c2.5,5.3,5.2,10.6,7.7,15.9c1.6,3.5,4.4,5.7,7.6,7.5c4.4,2.4,9.1,3.2,14.1,1.4
		c-0.9-10.4,0.1-20.6,1.5-30.9c0.7,0.7,1.2,1.4,1.1,2.1c-0.1,8-0.6,16.1-0.4,24.1c0.3,10.1,1.7,20,5,29.6c2.4,7.1,4.6,14.3,6.7,21.5
		c1.1,3.9,0.7,4.4-2.7,6.6c-6.4,4.3-12.7,8.6-19,13c5.1,3.4,10.2,7.1,15.6,10.4c8.5,5.2,17.2,10.1,25.7,15.3
		c11,6.7,22.2,12.2,35.6,11.5c4.6-0.2,9.2,0.6,13.8,1c4.5,0.3,8.8,0.1,12.9-2.3c8.2-4.8,16.5-9.4,24.8-14.1c1.7-1,3.5-1.7,5.5-2.7
		c-14.8-11.3-29-22.8-41.6-36.1c-4.2-4.4-8.9-8.4-12.7-13.1c-7.5-9.4-13.3-19.8-17.6-31.1c-6.2-16.5-11-33.2-9.6-51.1
		c0-0.3-0.2-0.6-0.3-1.1c-1.9,0.8-3.7,1.4-5.4,2.2c-0.9,0.4-1.8,0.9-2.5,1.6c-5.8,5.8-18.5,6.3-25.3-0.5c-3.4-3.4-7.1-6.6-10.7-9.9
		c-0.2,1.7,0,3.2,0.4,4.6c0.9,2.7,1.2,5.3,0.1,7.9c-0.9,2.1-2,4-4.7,3.6c-2.1-0.3-4-3.3-3.7-6.3c0.6,0.7,1.1,1.2,1.5,1.6
		c1,0.9,2,1.9,3,2.8c0.8-1.3,1.6-2.5,2.3-3.8c0.3-0.5,0.3-1.3,0.2-1.9c-0.6-3.6-1.2-7.3-2.1-10.9c-0.9-3.8-4.3-4.7-7.2-2.1
		c-0.6,0.6-1.4,0.9-2.1,1.4c-0.2-0.2-0.4-0.4-0.6-0.6c0.7-1.2,1.4-2.3,2.1-3.5c-3.6-3.5-7.8-5.9-12.6-7.3
		C502.6,138.1,496.1,136.1,489.2,134z M360.1,323.1c0.4-1.2,0.7-1.9,0.8-2.6c1.3-5.9,0.7-11.7-0.8-17.5c-1.2-4.6-2.8-9.2-3.8-13.8
		c-0.8-3.8-1-7.7-1.5-11.7c-13.8-1.2-25.1-8.4-36.4-15.4c-11.4-7.1-28.9-23-29.3-26.6c1.3,1.2,2.6,2.1,3.8,3.3
		c11.5,11.3,24.1,21.1,38.3,28.9c7.4,4,15.1,7.2,23.6,8.1c0.1-4.3,0.5-8.6,2.9-12.3c0.3,1,0.2,1.8,0.1,2.7
		c-1.6,10.1-0.9,20.1,2.6,29.7c2.5,6.7,4.1,13.5,3.8,20.7c-0.3,9.1-4.6,14.9-13.2,17.6c-0.2,0.1-0.5,0.2-0.7,0.3
		c0.1,0.8,0.2,1.6,0.2,2.4c-0.1,2.3,1.5,3.3,3.2,3.9c3.1,1,9.1-1.3,11.2-3.9c6.5-8.2,6.5-17.7,4.8-27.3c-1.7-9.2-4.2-18.3-6.5-27.5
		c-1.2-5.1-2.1-10.1-0.8-15.3c0.4-1.5,0.8-3.2,3.1-2.8c-0.5,1.5-1.4,3-1.4,4.3c0.2,4.5,0.4,9.1,1.3,13.4c2.3,10.7,5.4,21.2,7.5,31.9
		c1.3,6.4,0.5,12.9-2.3,18.9c-2.6,5.5-5.9,10.3-12.9,10.4c-1.2,0-2.5,0.2-3.8,0.3c-0.4,3.2,1.5,5.4,3,7.7c1.4,2,3.1,1,4.7,0.9
		c8.8-0.6,14.9-5.7,17.2-14.3c2.2-8.3,1.9-16.4-0.3-24.7c-3.2-12.1-5.1-24.5-4.1-37.1c0.2-2.5,0.9-4.9,1.6-7.4
		c0.2-0.7,1.1-1.2,1.6-1.8c-0.5,4.2-1.4,8-1.4,11.9c-0.2,9.7,1.4,19.1,3.5,28.5c1.8,8.3,4.2,16.3,3.1,25.1
		c-1.5,12.3-10.2,23.6-22,21.9c-0.5-0.1-1.7,1.3-1.6,1.7c0.6,2.3,1.1,4.8,2.3,6.8c4.7,7.5,9.6,14.9,14.7,22.5
		c5.5-6.6,10.4-13.2,13.2-21.1c2.3-6.5,4-13.2,5.5-19.8c2.4-10.2,3.1-20.6,2.8-31.1c-0.3-8.8-1.2-17.5-1.5-26.3
		c-0.3-7.9,0-7.9-4-14.8c-3.7-6.3-7.3-12.6-11.2-18.7c-3.4-5.3-7.9-9.6-12.9-13.7c-3.1,5.1-7.9,7.7-12.2,11
		c-4.1,3.1-8.9,3.8-13.5,2.8c-12.2-2.6-23.7-7.4-34.2-14.2c-4.4-2.8-8.6-6.1-13-8.9c-4.8-3-9.7-5.8-14.1-8.3
		c-3.6,3.4-7.4,6.6-10.7,10.1c-3.1,3.3-6.6,6.5-8.5,10.5c-4.7,10.1-9.1,20.4-12.6,30.9c-4.8,14.7-6.6,30.1-7.9,45.5
		c-0.2,2.8,0.1,5.3,1.4,7.8c2.1,4,4,8.1,6.1,12.1c1.7,3.2,3.1,6.6,5.2,9.5c3,4.3,6.6,8.2,9.8,12.3c3.5,4.4,3.6,4.5,7.1,0
		c6.8-8.6,12.6-18,21.8-24.7c-4.9-3.1-9.8-6-14.3-9.2c-8.6-6-17.1-12.2-25.5-18.5c-1.3-1-2.2-2.7-3.2-4.1c0.2-0.2,0.5-0.4,0.7-0.6
		c0.6,0.5,1.2,1,1.8,1.5c3.4,3,6.6,6.3,10.3,8.8c9.1,6.1,18.5,11.6,27.6,17.8c4,2.8,7.2,2.9,10.6-0.5c0.1-0.1,0.2-0.3,0.3-0.7
		c-1.1-1.5-2.2-3.2-3.5-4.7c-3.8-4.4-6-9.5-7.2-15c-0.3-1.5-0.8-2.1-2.1-2.7c-12.8-5.7-23.9-13.7-31.5-25.8c-0.2-0.4,0-1,0-1.5
		c0.2-0.1,0.5-0.2,0.7-0.3c8.7,11.7,20,20,33.2,26c0.5-2.5,0.7-4.6,1.3-6.6c0.2-0.7,0.9-1.2,1.4-1.8c0.4,0.6,0.9,1.2,1.2,1.8
		c0.6,1.1,1,2.3,1.6,3.4c2.4,3.8,4.8,7.5,7.2,11.1c-0.6-4.5,4.2-8.6,2.3-13.1c-1.6,0.9-3.1,1.7-4.6,2.6c-0.4-1.6-1.4-3.3-1-4.6
		c2.1-7.6,3-15.7,9.4-21.6c-8.7-5.2-16.3-11.3-22.3-19.3c-7.3-9.6-13.2-22.9-11.1-26.5c0.5,1,0.9,1.7,1.2,2.5
		c1.5,4,2.6,8.3,4.7,12.1c6.6,12,15.5,21.8,27.3,29c0.7,0.4,1.8,0.9,2.5,0.7c5.2-1.5,10.4-0.9,15.6,0c6,1,10.5,3.9,12.9,9.5
		c1.1,2.5,1.9,5.1,2.9,7.6c2.4,5.7,4.9,11.3,7.4,16.9C352.9,315,355.7,319.3,360.1,323.1z M118.2,474.9c-5.4,0-10.5-0.1-15.7,0.1
		c-1,0-2.5,0.6-2.7,1.3c-0.3,0.9,0.2,2.2,0.6,3.2c0.8,2.1,2.4,4,2.6,6.1c0.5,3.7,0.4,7.6,0.4,11.4c0.1,5.3-0.3,10.5,0.1,15.8
		c0.5,6.8,1.6,13.5,2.3,20.3c2.7,25.8,11.2,49.4,26.9,70.1c29,38,66.8,62.7,113.7,72.8c13.5,2.9,26.9,6,39.7,11.3
		c3.8,1.6,7.5,3.5,10.2,7c1.6,2.2,3.9,3.9,6.1,6.1c0.6-1.2,1.3-2.3,1.8-3.4c4.1-8.7,10.3-15.7,18.4-20.7c6-3.8,12.3-7,18.5-10.4
		c4.5-2.4,9.2-4.5,13.4-7.2c18.2-11.6,35.1-24.9,50-40.6c9.9-10.4,18.4-21.7,24.2-35c0.3-0.7,0.7-1.9,0.4-2.4
		c-1.3-1.9-2.8-3.7-4.3-5.5c-0.2,0.1-0.4,0.1-0.5,0.3c-0.5,0.8-0.9,1.6-1.4,2.4c-7.5,14.2-17.6,26.2-30.2,36.1
		c-13.6,10.8-28.9,18.8-44.3,26.5c-17,8.4-35.1,13.2-54,14.5c-9.3,0.6-18.7,0.1-28,0c-12.6-0.2-25-2.2-37-5.9
		c-33-10.4-60.5-29-82.2-56.1c-15.8-19.7-29.3-40.4-32-66.5c-1.3-12-1.9-23.9-0.3-35.8C115.6,485.5,116.9,480.6,118.2,474.9z
		 M319.4,396.6c-0.1,0.3-0.2,0.6-0.2,1c-1.8-0.2-3.7-0.1-5.5-0.6c-12.9-3.4-24.5-9.3-34.7-17.9c-9.2-7.8-17.2-16.6-24.2-26.4
		c-1.4-2-3-3.9-4.1-6c-3.3-6.2-6.3-12.5-9.2-18.2c-0.8,2-1.8,4.4-2.8,6.7c-1.7,3.9-4,7.6-4.9,11.7c-1.4,5.8-2,11.8-2.5,17.8
		c-1,11.3-3.5,22.2-9.1,32.2c-2.5,4.5-4.8,9-7.1,13.5c1.3,0.6,2.5,1,3.8,1.6c1.3-2.4,2.7-5.1,6.2-3.6c2.7,1.2,4.4,0.2,6-1.9
		c3.1-3.8,3.5-3.8,8-1.5c2.3-3,4.5-6.6,8.6-2.4c0.4-0.3,0.7-0.4,0.9-0.6c3.3-4.2,3.3-4.1,8.5-2.5c0.7,0.2,1.9-0.1,2.6-0.7
		c3.3-2.5,3.9-2.5,6.9,0.3c0.4,0.4,0.9,0.8,1.4,1.1c-0.1-0.3-0.1-0.5-0.2-0.8c2.1-0.9,4.2-2.6,6.1-2.3c2.1,0.3,4.1,2.3,6.1,3.6
		c2.3-0.8,3-5.3,6.5-3.2c2.3,1.3,4.3,3.1,6.6,4.8c1.6-2,3.9-1.8,6.3-1.3c0.8,0.2,2.3,0.1,2.6-0.3c1.6-3.1,3.1-1.9,4.8-0.2
		c1,1,2,2,3.7,0.8c3.3-2.4,3.4-2.3,6.6,0.4c2.8,2.4,3.2,2.3,5.7-0.5c2.3,1.4,4.6,2.8,7,4.1c0.7,0.4,1.8,0.6,2.6,0.3
		c4.6-1.4,8.3,0.1,11.8,3c0.7,0.5,2,1,2.7,0.7c3.4-1.8,5.6,0.3,7.6,2.4c1.1,1.2,1.8,1.9,3.6,1.3c2.5-0.8,4.4,0.5,5.8,2.5
		c0.5,0.7,0.9,1.5,1.1,1.8c2.1-0.2,4.2-1.1,5.4-0.4c1.4,0.8,1.9,3,2.8,4.6c7.9-2,8.2-1.9,11.5,3.2c1.8-1.6,3.6-3.2,5.4-4.7
		c-0.4,0.3-0.9,0.6-1.3,0.8c-3.4-3.9-6.9-7.8-10-11.9c-2.7-3.5-5.2-7.2-7.3-11c-2.5-4.5-0.7-8.4,2.9-11.3c-4-6.2-8-12.1-11.7-18.3
		c-2.5-4.2-5.9-8.1-5.3-13.6c0.1-0.5-0.7-1.1-1.2-1.6c-2.4-2.4-4.2-5.2-4.1-8.6c0.1-1.8-0.5-2.5-1.6-3.6c-3-2.8-2.9-7,0.6-9.8
		c-3.3-2-6.3-4.4-9.6-5.7c-6.8-2.5-12.6-6.2-17.4-11.7c-1.1-1.3-3.6-2.1-5.3-1.9c-2.5,0.3-3.6-0.5-4.2-2.6c-0.6-2.3-1.1-4.6-1.6-6.9
		c-0.2,0-0.4,0-0.7,0c-1.2,7.6-2.3,15.3-3.5,23.1c3.2-1.7,4.5-5.7,9.3-5.8c-1.1,3.2-2.1,5.9-3.1,8.8c0.6-0.5,1-0.8,1.4-1.1
		c2.1-1.7,4.2-3.4,6.4-4.9c0.6-0.4,2.1-0.4,2.4-0.1c0.4,0.7,0.5,1.8,0.3,2.7c-0.2,0.9-0.8,1.6-1.4,2.7c1.8-0.9,3.2-1.8,4.8-2.3
		c0.7-0.3,2-0.2,2.4,0.3c0.4,0.4,0.2,1.7-0.1,2.4c-1,1.9-2.2,3.6-3.7,6c2.7-1.5,4.8-2.7,6.9-3.8c0.6-0.3,1.5-0.2,2.2-0.3
		c-0.1,0.7,0,1.5-0.2,2.1c-2.3,5.5-6.3,9.7-10.9,13.3c-2.3,1.8-4.5,3.5-6.6,5.1c3.7,3.7,7.5,7.1,10.9,11c9.4,10.5,15,22.9,17.5,36.7
		c0.4,2.4-0.3,5.1-0.5,7.7c-2.2-22.6-13.5-39.7-30.2-54c-12.6,8.1-27.4,12.3-37.4,24.2C290.5,385.9,304.4,392.4,319.4,396.6z
		 M343.8,201.9c-1.7,1.1-3.3,2.2-4.9,3.2c-9.9,6.3-21.2,5-29.1-3.7c-4.8-5.4-9.3-11.1-13.9-16.7c-0.6-0.8-0.9-1.9-1.3-2.9
		c0.3-0.2,0.5-0.4,0.8-0.6c1.7,1.5,3.5,3,5.1,4.6c3.9,4.3,7.7,8.7,11.6,13c6.7,7.2,13.7,8.7,22.6,4.8c4.9-2.1,9.6-4.9,12.1-10
		c7.8-15.9,8.6-32.6,5.5-49.7c-1.9-10.5-7.6-18.4-16.9-23.9c-5.7-3.3-11.6-5.5-18.1-4.4c-4.7,0.8-9.4,2.6-13.9,4.4
		c-6.3,2.5-11,7.3-13.3,13.4c-2.4,6.4-7.9,12.3-4.7,20.2c0.2,0.6,0,1.3,0.1,1.9c1,5.8,1.8,11.6,3.2,17.3c1.4,5.7,3.5,11.2,5.3,16.8
		c2.4,7.5,1.1,14.3-4.2,20.2c-2.6,2.9-4.9,6-7.5,9.3c1.5,1.3,2.5,2.4,3.7,3.2c4.7,2.9,9.7,5.4,14.2,8.5c8.6,5.8,17.5,10.9,27.4,14.2
		c5.1,1.7,10.4,3.4,15.7,4.4c4.1,0.8,8.2-0.2,11.8-2.9c3.8-2.8,8.4-4.6,11.1-8.6c-4.2-5-8.4-9.7-12.2-14.8
		C349.3,216.8,344.8,210.2,343.8,201.9z M576.1,148.7c-0.6-6.5-0.8-12.5-1.9-18.4c-1.1-6-2.5-12.2-4.8-17.8
		c-5.8-13.9-15.3-25.1-27.3-34c-6.6-4.9-14.1-8.4-21.4-12.4c-0.6-0.4-2.1,0.1-2.8,0.7c-3.2,2.6-6.2,5.3-9.2,8
		c-8.8,8.1-14.4,18.2-17.1,29.7c-1.7,7.2-2.2,14.6-3.1,22c-0.2,2.2,0.3,4.3,3.3,4.5c0.6,0,1.1,0.5,1.7,0.7c3.1,1.2,6.2,2.7,9.4,3.4
		c10.3,2,19.2,6.5,26.9,13.4c5.5,5,11.1,9.9,16.5,15c4.3,4,14.6,3.8,19.1,0.3c2.3-1.9,5.3-3,8.2-4c1.8-0.6,2.5-1.4,2.5-3.2
		C576.1,153.8,576.1,151,576.1,148.7z M390.9,418.7c4.3-3.6,7.3-6.4,10.5-8.8c11.6-8.7,21.4-19,30.5-30.2c1.4-1.7,1.5-3,1-5.2
		c-1.4-5.7-2.3-11.6-4.4-17.1c-0.4-1,0-2.2-0.3-3.2c-1.8-4.5-4.1-8.8-5.6-13.4c-1.9-5.7-3.7-11.3-6.1-16.8c-0.7-1.5-0.5-3.3-0.7-5
		c-0.1-0.6,0.2-1.3,0.1-1.9c-1.3-4.5-2.8-8.9-4.1-13.4c-1-3.3-0.9-6.9-3.5-9.8c-0.6-0.7-0.6-2.1-0.7-3.1c-0.9-6.1-2.5-8.3-8.5-10.9
		c-0.2,1.9-0.7,3.8-0.6,5.6c0.4,9.3,1.3,18.6,1.5,28c0.5,15-1.2,29.9-5.4,44.3c-3.6,12.3-9.2,23.4-19.7,31.5c-2.1,1.6-3,4.1-1.6,6.6
		c2.1,3.7,4.3,7.4,6.9,10.7C383.6,410.7,387.3,414.6,390.9,418.7z M351.5,459c-2.7-4.1-0.7-6.9,2.3-9.3c1.8-1.5,4.1-2.4,5.9-3.9
		c7.7-6.6,15.4-13.2,23-19.8c-1.4-4.1-1.6-4.2-5.6-3.5c-0.7,0.1-1.4,0.2-2.1,0.4c-2.4,0.8-4,0.1-4.8-2.4c-0.3-0.8-0.8-1.6-1.3-2.7
		c-3.3,2.6-5.5,1.8-7.1-1.7c-0.6-1.4-2.2-2-4-1.3c-1.7,0.6-3.1,0.1-4.5-1.4c-1.1-1.3-3.6-3-4.6-2.6c-3.2,1.4-5.1-0.3-7.3-1.8
		c-2.3-1.6-4.7-2.8-7.6-1.7c-2.9,1.1-5.1,0-7.4-1.8c-2.6-2.1-3.5-1.6-4.8,1.4c-4,9.5-8,19-11.9,28.5c-1.8,4.2-3.5,8.4-5.3,12.7
		c3.1,0.5,5.7,0.9,8.4,1.3c6.7,0.9,13.2,2.2,18.3,7.2c0.3,0.3,0.7,0.6,1.1,0.7C338.5,458.6,344.7,459.9,351.5,459z M155.8,398.1
		c-1.3,2.3-2.8,3.9-3,5.6c-0.4,3.5-1.4,6.5-4.1,8.8c-0.4,0.3-0.6,0.9-0.9,1.4c-1.2,2.8-2.4,5.7-3.6,8.5c-0.3,0.6-0.7,1.2-0.8,1.9
		c-0.6,4.4-2.6,7.8-6.3,10.2c-1.1,0.7-1.8,1.5-2,3.1c-0.4,3.6-1.8,6.8-5.1,8.7c-0.3,0.2-0.5,0.8-0.7,1.2c-0.9,2.1-1.2,4.7-2.7,6.3
		c-1.9,2-2.5,4.1-2.3,6.7c1.7-0.6,3.3-1.1,4.9-1.6c5.9-2.2,11.8-4.3,17.7-6.5c9.6-3.6,19.2-7.1,28.7-10.7c3.2-1.2,4.5-4.7,3.2-7.8
		c-0.8-2-1.8-3.9-3-5.7c-4.4-6.7-8.9-13.3-13.4-20C160.2,405.2,158.3,402,155.8,398.1z M289.8,445.8c-2,0.7-2.2,1.7-1.3,3.1
		c2.1,3.4,4.8,6.2,8.5,7.9c2.5,1.1,4.8,2.4,7.9,3.9c-4.7,0.3-14.2-4.4-17.5-10.6c-1,0.7-2,1.4-3.6,2.5c3.8,3,6.9,5.8,10.5,8.1
		c3.4,2.2,7.3,3.7,11.5,5.7c-1.5,0-2.5,0.3-3.2,0c-3.9-1.9-7.9-3.8-11.6-5.9c-2.1-1.2-3.9-2.9-5.9-4.3c-0.3,0.2-0.6,0.4-0.9,0.5
		c0.3,1.5,0.1,3.6,1,4.5c3.6,3.5,7.5,6.5,12.7,7.7c2.9,0.7,5.7,1.9,9.3,3.1c-4.4,0.7-14.8-3.1-20.4-6.6c0.6,1.3,1.3,2.5,2.4,3.3
		c4.6,3.1,9.9,4.5,15.2,5.4c5.4,0.9,10.8,1.7,16.3,2.2c5.3,0.4,10.7,0.7,16,0.5c4.7-0.2,9.5-0.9,14.2-1.5c3.6-0.5,7.1-1.2,11.3-1.9
		c-2.7-4-5-7.4-7.4-10.7c-0.6-0.8-1.8-1.5-2.7-1.5c-3.6-0.2-7.2,0.3-10.7-0.2c-4.6-0.6-9.2-0.8-13.1-4c-2-1.6-4.4-3-6.8-3.7
		c-4.5-1.3-9.2-2.3-13.8-3c-4.2-0.7-4.3-0.3-5.2,3.1c3.3,0.4,6.7,0.8,10,1.3c-0.1,0.2-0.2,0.5-0.2,0.7
		C302.8,456.6,294.9,454.5,289.8,445.8z M325.5,299.9c-2.3,7.4-0.9,13,5,16.9c2.3,1.5,4.7,3.1,7.3,4.1c4.7,1.9,9.1,3.9,12.8,7.5
		c2.8,2.8,3.9,2.7,6.5-0.4c0.9-1,1.5-2.2,1.9-2.9c-2.5-2.8-5.1-5-6.9-7.8c-2.3-3.4-4.3-7.1-6-10.9c-2.5-5.5-4.8-11.1-6.8-16.8
		c-1.8-5-4.2-9.2-9.6-10.6c-3.7-1-7.7-1.2-11.5-1.7c-6.3-0.9-10.6,4.6-12.1,8.6c-1.5,3.9-2.4,8.1-3.5,12.2c-0.2,0.9-0.2,1.9-0.3,2.9
		c0.2,0.1,0.4,0.1,0.6,0.2c1.1-2.4,2.3-4.8,3.4-7.2c1.1-2.5,2-5.2,3.3-7.7c1.2-2.2,2.4-4.6,5.2-5.5c-5.5,7.7-9.6,15.6-5.2,25.2
		c1.5-9.1,3.3-18,9.9-25.1c-0.5,2-1.2,4-2.3,5.8c-2.1,3.7-4,7.4-3.2,11.8c0.6,3.4,1.4,6.7,2.1,10c0.1,0.5,0.4,0.9,0.9,1.7
		c0.4-1.2,0.8-1.9,0.8-2.7c0.1-4-0.3-8.1,0.1-12.1c0.6-6.5,3.7-11.7,9.1-16.1c-2.5,5.1-5.5,9.6-7.1,14.5c-1.7,5.2-0.2,10.5,1.7,15.9
		c0.6-5,0.3-9.9,1.8-14.1c1.5-4.3,4.8-8,7.2-11.9c0.3,0.2,0.6,0.3,0.9,0.5c-0.2,0.7-0.1,1.6-0.5,2c-1.7,1.6-1.5,3.6-1.2,5.5
		c0.7,5.2,1.7,10.3,4.5,14.8c0.8,1.3,1.4,2.7,2.1,4.1c-0.2,0-0.3,0.1-0.5,0.1C332.5,307.2,329,303.6,325.5,299.9z M277.2,374.5
		c2.4-2.8,4.4-5.5,6.7-7.8c6.2-6,14.6-8.2,22-12.2c9.6-5.2,19-10.5,26.2-19.1c0.7-0.8,1.1-1.8,1.7-2.7c-0.3-0.2-0.5-0.5-0.8-0.7
		c-5.8,4.1-11.6,8.3-17.4,12.4c-0.3-0.3-0.5-0.6-0.8-0.9c2.5-2.4,5.1-4.6,7.4-7.2c2.4-2.7,4.6-5.7,6.8-8.6c-0.2-0.2-0.4-0.4-0.6-0.6
		c-4.8,3.3-9.5,6.6-14.3,9.9c-0.3-0.3-0.5-0.5-0.8-0.8c3.3-3.8,6.7-7.6,10-11.4c-0.2-0.2-0.5-0.4-0.7-0.7c-2.6,2.3-5.1,4.6-7.7,6.8
		c-5.4,4.4-6.3,4.8-8.2,4.5c2.8-4.1,5.7-8.4,8.6-12.6c-2.9,1.7-5.4,3.5-7.4,5.8c-1.1,1.2-1.6,3.1-2.1,4.8c-0.7,2.4-0.2,5.3-3,7.6
		c-0.2-2.9-0.4-5.3-0.6-8.5c-4.2,3.2-8.1,5.6-11.3,8.6c-3.3,3.1-6,6.8-8.8,10.3c-4.1,5.1-7.4,10.9-12.4,14.2
		C272.2,368.7,274.8,371.7,277.2,374.5z M420.4,304.3c-0.2,0-0.5,0.1-0.7,0.1c0,0.9-0.3,2,0,2.8c1.4,4,3.2,8,4.5,12
		c0.5,1.4,0.1,3,0.1,4.9c2.2,1.7,3.2,4.5,3.3,7.7c0,0.8,0.5,1.7,0.8,2.4c0.6,1.4,1.9,2.8,1.8,4.1c-0.1,3.4,1.8,5.9,2.7,8.9
		c0.4,1.3,0.4,2.6,0.6,3.9c0.1,0.4,0,0.9,0.3,1.1c2.5,2.3,2.7,5.4,3,8.5c0,0.5,0,1.1,0.3,1.5c1.4,1.9,3,3.7,4.6,5.7
		c6.1-8.5,12.3-17.2,18.4-25.6c-4.5-1.1-8.9-1.6-12.9-3.3c-6.5-2.7-10.6-8.2-14.2-14.2C428.8,318,424.6,311.2,420.4,304.3z
		 M203.2,498.7c0.1,0,0.1,0.1,0.2,0.1c0-3.8,0.2-7.6,0-11.4c-0.5-7-1.7-13.9-5.5-19.9c-3.7-6-7.7-11.7-11.5-17.6
		c-1.8-2.8-3.6-5.5-5.3-8.3c-0.3,0-0.6,0.1-0.8,0.1c-0.3,1.7-0.9,3.4-0.9,5.1c0.2,4.9,0.5,9.7,1.2,14.5c0.5,3.6,1.3,7.3,2.9,10.5
		c1.7,3.5,1.4,6.5-0.6,9.5c-0.6,0.9-1.4,2-2.4,2.3c-0.9,0.3-2.1-0.3-3.4-0.5c0.2,1,0.5,2,0.9,3.5c1.7-1,3.1-1.7,4.4-2.6
		c1.3-0.9,2.4-1.9,4.1-3.3c-0.1,1.1,0,1.8-0.2,2c-2.2,1.8-4.5,3.4-6.7,5.2c-0.5,0.4-0.8,1.3-1.1,1.9c0.8,0.2,1.9,0.8,2.4,0.5
		c1.4-0.8,2.6-1.9,3.8-3c2.2-1.9,4.3-3.9,7-6.4c0,3.8-2.5,5.1-4.3,6.8c-2,1.8-4,3.5-5.9,5.3c2.2,1.9,4.2,0.5,6.4-1.3
		c3-2.5,5.9-5,9-7.3c2.1-1.6,3.9-0.8,4.4,1.7C201.9,490.4,202.5,494.5,203.2,498.7z M245,577.8c-8,0.6-15.6,1.3-23.2,1.6
		c-4.5,0.2-8.5,1.5-12.3,3.6c-1.4,0.8-3.3,3-3,4c0.4,1.6,2.3,3.2,3.9,3.9c8.5,3.4,16.7,1,24.7-2.2
		C240.2,586.8,242.7,582.4,245,577.8z M100.5,470.5c2.8,0.2,5.4,0.3,8,0.5c2.7,0.1,5.5,0,8.1,0.4c1.9,0.3,2.4-0.4,2.2-1.9
		c-0.3-1.5-0.5-2.9-2.6-3.5c-1.8-0.6-5.3-0.1-4.5-3.9C105.1,460.3,99.8,464.5,100.5,470.5z M303.8,329.3c-1.7-9.6-3.1-19.2-11-26.6
		c-0.1,3.2-1.1,6.5-0.1,9.1C295,318.3,298.5,324.4,303.8,329.3z M304.6,326.4c0.4,0.1,0.7,0.1,1.1,0.2c1.2-6,3-11.9,2-18
		c-0.4,0-0.8-0.1-1.2-0.1C305.8,314.4,305.2,320.4,304.6,326.4z M330.6,302.3c-0.8-3.8-1.6-7.5-2.4-11.2c-1.2,2.2-2.4,4.5-3.6,6.6
		C326.9,299.4,328.8,300.9,330.6,302.3z M322,5.2c-2.9,3.2-3.3,5.5-1.8,7c1.4-0.9,2.7-1.6,3.8-2.5c0.5-0.4,0.7-1.7,0.4-2.2
		C323.9,6.6,322.9,5.9,322,5.2z M121.8,457.4c-1.1-0.6-1.8-1.2-2-1.1c-1.1,0.9-2.1,1.9-3.2,2.9c0.6,0.7,1.3,1.3,1.9,2
		C119.5,460.1,120.5,459,121.8,457.4z M127.9,444c1.5-2.1,4.2-3.5,3.2-7C128.4,438.8,127.4,441,127.9,444z M435.9,366.5
		c-0.3,0.1-0.6,0.1-0.8,0.2c0.3,2.3,0.7,4.6,1.1,7.3C438.5,371.9,438.3,370.1,435.9,366.5z M134.3,431.2c0.2,0.1,0.4,0.3,0.6,0.4
		c3.5-2.5,4.7-4.4,4.1-7.8C137.1,426.6,135.7,428.9,134.3,431.2z M168.2,365.4c-0.5-0.2-0.9-0.3-1.4-0.5c-0.8,2.2-1.7,4.4-2.5,6.7
		c0.4,0.2,0.9,0.3,1.3,0.5C166.5,369.8,167.4,367.6,168.2,365.4z M162,381.1c0.6-2.2,1-3.9,1.5-5.7
		C160.1,377.3,159.6,379.3,162,381.1z M238.9,194.5c-3,1.9-3.9,4-2.8,6.5C237.1,198.6,238,196.5,238.9,194.5z M352.9,81.6
		c-0.4,0.1-0.8,0.2-1.2,0.3c0.5,2,0.9,3.9,1.4,5.9c0.4-0.1,0.9-0.2,1.3-0.3C353.9,85.5,353.4,83.5,352.9,81.6z M420.3,318.6
		c-0.4,0.1-0.8,0.2-1.2,0.2c0.2,1.4,0.4,2.9,0.7,4.3c0,0.1,1.2,0,2.1,0C421.3,321.3,420.8,320,420.3,318.6z M194.7,296.6
		c0.4,0.2,0.9,0.4,1.3,0.7c0.8-1.9,1.5-3.8,2.3-5.7c-0.3-0.1-0.6-0.3-0.9-0.4C196.6,293,195.7,294.8,194.7,296.6z M406.8,276.5
		c0.4-0.1,0.8-0.2,1.1-0.3c-0.4-2-0.9-4.1-1.3-6.1c-0.4,0.1-0.7,0.2-1.1,0.2C405.9,272.4,406.3,274.4,406.8,276.5z M125.9,448.1
		c-3.4,1.6-3.9,2.5-3.4,5.5C123.8,451.4,124.9,449.8,125.9,448.1z M227.7,216.4c-0.4-0.2-0.8-0.3-1.2-0.5c-0.7,1.7-1.4,3.5-2,5.2
		c0.4,0.1,0.7,0.3,1.1,0.4C226.2,219.9,226.9,218.2,227.7,216.4z M246,178.8c-0.5-0.2-0.9-0.4-1.4-0.6c-0.6,1.7-1.2,3.3-1.9,5
		c0.4,0.1,0.7,0.3,1.1,0.4C244.5,182,245.3,180.4,246,178.8z M361.3,115.1c0.5-0.1,0.9-0.2,1.4-0.4c-0.5-1.7-1-3.4-1.5-5.2
		c-0.3,0.1-0.7,0.2-1,0.3C360.5,111.6,360.9,113.3,361.3,115.1z M403.6,265.6c0.4-0.1,0.8-0.2,1.2-0.3c-0.4-2-0.8-4-1.3-6
		c-0.3,0.1-0.6,0.1-0.9,0.2C403,261.5,403.3,263.6,403.6,265.6z M397.5,238.5c-0.4,0.1-0.7,0.2-1.1,0.3c0.4,2,0.8,4,1.2,6
		c0.4-0.1,0.7-0.1,1.1-0.2C398.3,242.5,397.9,240.5,397.5,238.5z M422.8,327.2c-0.4,0.1-0.8,0.3-1.1,0.4c0.6,1.8,1.2,3.6,1.8,5.5
		c0.3-0.1,0.7-0.2,1-0.3C423.9,330.9,423.4,329,422.8,327.2z M411.8,289c-0.3,0.1-0.6,0.2-1,0.2c0.2,1.3,0.4,2.5,0.8,3.7
		c0.1,0.3,0.8,0.4,1.2,0.6c0.2-0.4,0.5-0.9,0.4-1.3C412.9,291.2,412.3,290.1,411.8,289z M385.4,189.3c0.4-0.1,0.8-0.2,1.2-0.3
		c-0.4-1.8-0.8-3.5-1.2-5.3c-0.3,0.1-0.6,0.1-1,0.2C384.7,185.7,385,187.5,385.4,189.3z M254.2,156c-0.4-0.1-0.7-0.3-1.1-0.4
		c-0.6,1.6-1.2,3.3-1.7,4.9c0.4,0.1,0.7,0.3,1.1,0.4C253,159.2,253.6,157.6,254.2,156z M410.2,279.8c-0.4,0-0.8,0-1.1,0
		c0.1,1.8,0.3,3.6,0.4,5.3c0.2,0,0.5,0,0.7-0.1C410.2,283.4,410.2,281.6,410.2,279.8z M380.3,171.7c0.3-0.1,0.7-0.3,1-0.4
		c-0.7-1.8-1.4-3.6-2.1-5.5c-0.3,0.1-0.6,0.2-0.9,0.3C378.9,168,379.6,169.9,380.3,171.7z"/>
	<path class="st0" d="M291.8,731.5c1.2,3.2,2.1,5.8,3.3,8.8c2.3-6.4,1.3-12.3,0.2-18.1c-0.5-2.8-0.7-5.7-0.9-8.6
		c0-0.5,0.5-1,0.8-1.5c0.5,0.4,1.2,0.8,1.3,1.4c1.1,6,4.2,11.1,6.8,16.5c1.6,3.3,1.6,7.5,2.2,11.1c2.4-2.9,5.1-6.3,7.9-9.7
		c0.4-0.5,1.2-0.9,1.8-1.3c0.3,0.7,1,1.4,0.9,2c-0.3,1.6-0.9,3.2-1.6,4.8c-1.7,4.1-3.5,8.1-5.1,12.2c-0.3,0.6-0.2,1.4-0.5,2.9
		c2.3-2.7,4-5.5,7.7-3.6c0,0,0.2,0.3,0.2,0.5c-0.7,4.7-1.5,9.4-2.3,14.1c-0.5,2.6-1.9,4.4-4.4,5.4c-5.5,2.2-11.2,3-17.1,2.8
		c-3.8-0.1-7.6-0.6-11.3-1.4c-4.5-1-7.1-4.7-7.6-9.4c-0.8-6.9,1.8-13.1,3.3-19.6c0.7-3.1,0.6-6.4,0.9-9.6c0.1-0.7,0.3-1.4,0.5-2.7
		c2.4,2.4,2.9,4.8,2.4,7.1c-1.2,5.9-0.3,10.9,4.4,15c0.1,0.1-0.1,0.3-0.1,0.5c-3-0.8-3.9-2-6.4-8.7c-0.3,0-0.5-0.1-0.8-0.1
		c-0.8,5.2-2,10.3-2.4,15.5c-0.5,6.2,2.2,9.8,8.7,10.7c8.2,1.2,16.2,1,24.1-1.5c2.9-0.9,3.9-2.9,4.3-5.5c0.5-3.8,1-7.6,1.5-11.6
		c-1.7-0.6-2.1,1.3-3.1,2.3c-0.8,0.8-1.7,1.4-2.6,2.1c-0.4-1.3-1.5-2.8-1.1-3.9c1.5-4.5,3.4-8.9,5.2-13.3c0.4-1.1,1-2,1.2-3.3
		c-2.5,2.9-5.3,5.5-7.4,8.7c-2,3-3.3,6.5-5.4,9.7c2.8-9.7,3.5-18.9-3.6-27.3c1,6.2,0.9,12.2-1,18.1c-0.4,1.2,0,2.5-0.2,3.8
		c-0.1,0.5-0.6,0.9-1,1.3c-0.4-0.5-1.1-0.9-1.3-1.4c-0.6-3-1.1-6.1-1.7-9.1c-0.4,0.1-0.8,0.1-1.1,0.2c0.4,3.8,0.7,7.7,1.1,11.5
		c-0.2,0-0.5,0.1-0.7,0.1c-1-1.1-2-2.1-3.2-3.5c-0.5,2.3-0.9,4.2-1.3,6.1c-0.3-0.1-0.5-0.1-0.8-0.2c-0.9-2.4-0.1-4.6,1.1-6.7
		c0.3-0.5,1.8-0.2,2.8-0.3C289.8,740.7,289.6,736.4,291.8,731.5z"/>
	<path class="st0" d="M779.1,705.3c-0.9,0.7-1.5,1.5-1.9,1.4c-0.6-0.1-1.3-0.8-1.5-1.4c-0.1-0.3,0.7-1.3,1.2-1.4
		C777.5,704,778.1,704.6,779.1,705.3z"/>
	<path class="st0" d="M446.4,472.1c2.7,4.2,5.1,8.7,8.2,12.7c11,14.1,24.6,25.4,38.9,35.9c17.7,12.9,36.5,23.7,57.4,30.6
		c0.5,0.2,1,0.3,1.7,0.5c-1.1-2.3-1.9-4.5-3.2-6.2c-5.5-7.2-8.4-15.7-11.6-23.9c-4.4-11.2-7.8-22.8-11.2-34.4
		c-2.5-8.5-4-17.3-6.4-25.9c-0.8-2.9-2.9-5.4-4.3-8c-2,0.6-3.7,1.1-5.4,1.6c-0.2-0.3-0.3-0.5-0.5-0.8c0.9-1.3,1.8-2.7,2.7-4
		c-2.7-1.6-5.3-3.1-8.5-5c3.8-2.7,6.6-0.5,9.6,0.1c0.2-1.6,0.4-3.1,0.7-5.3c1.1,1.4,1.8,2.2,2.5,3c0.1,0,0.3-0.1,0.4-0.1
		c-1.5-7.6-2.6-15.3-4.6-22.8c-2-7.6-2.9-15.3-3.7-23c-0.8-7.7-3.3-15.2-2.7-23c0.2,0,0.5-0.1,0.7-0.1c4.5,23.3,9,46.7,13.4,69.7
		c1.3,0.1,2.2,0.1,3.1,0.2c-0.5,1.8-0.9,3.5-1.4,5.5c0.6,0.2,1.6,0.6,2.5,1c0.5,0.3,0.9,0.7,1.4,1c-0.4,0.4-0.7,1.2-1.1,1.3
		c-2.7,0.7-2.7,2.5-2.2,4.8c4.1,17.4,7.5,34.9,14.2,51.6c3.7,9.2,6.5,19,11.2,27.6c8.6,15.7,18.6,30.7,27.5,46.2
		c5.5,9.7,12.2,18.2,20.3,25.8c1.2,1.1,2.9,2.2,2.2,4.6c-7.6-7.4-15.6-14.1-21.2-23c-3.9-6.2-7.9-12.4-11.8-18.6
		c-3-4.8-6-9.7-8.9-14.6c-0.9-1.6-2-2.3-3.9-2.9c-6.2-1.7-12.5-3.3-18.3-5.9c-30.6-13.7-56.6-33.5-78.3-58.9
		c-3.5-4.1-6.4-8.8-9.4-13.3c-0.9-1.4-1.4-3-2.1-4.5c0.2-0.2,0.4-0.3,0.6-0.5C445.4,471.4,445.9,471.8,446.4,472.1L446.4,472.1z
		 M508,445.1c1.7,3.1,7.3,1.3,6.5,5.6c1.7,1.2,3.1,2.2,4.4,3.1c-0.5-3.2-0.1-7-3.5-9.6c-0.5,3.2-0.8,3.3-3.6,2.2
		C510.7,446,509.6,445.6,508,445.1z"/>
	<path class="st0" d="M697.4,410.6c0,1.7,0,3.4,0,5.4c2.3-0.5,4.5-0.9,6.7-1.4c0.2,0.2,0.4,0.5,0.6,0.7c-0.9,1.6-1.6,3.3-2.7,4.7
		c-1.2,1.5-1.2,2.5,0.6,3.3c1.1,0.5,2.4,0.9,3.4,1.5c0.6,0.3,1,1,1.5,1.6c-0.6,0.3-1.2,0.8-1.8,0.9c-1.3,0.1-2.7,0-4.2,0
		c-0.4,3.4-0.8,6.5-1.3,9.7c-0.4,0-0.9,0-1.3,0.1c-0.8-2.6-1.6-5.3-2.4-7.9c-0.4,8.9,0,17.6,2.2,26.2c2.8,11,5.6,21.9,8.7,32.8
		c0.5,1.6,2.2,3.2,3.7,4.2c3,1.8,6.2,3.2,9.3,4.7c0,0.3,0,0.7,0.1,1c-2.8,0.8-5.7,1.6-8.7,2.4c0,0,0,0.5,0.1,0.9
		c4.7,9.7,9.4,19.4,14.2,29c0.4,0.9,1.1,1.7,1.7,2.5c3.3,4.1,4,4.2,7.6,0.4c0.2-0.2,0.6-0.4,1.3-0.9c0.1,1.1,0.4,1.9,0.1,2.5
		c-0.9,2.5,0.1,4.2,2.1,5.6c0.3,0.2,0.6,0.4,0.8,0.7c0.6,0.8,1.2,1.7,1.8,2.5c-0.9,0.4-1.9,0.8-2.8,1.1c-0.7,0.2-1.4,0.2-2.3,0.3
		c1.2,2.1,2.3,4.1,3.3,6.1c-0.3,0.2-0.6,0.5-0.9,0.7c-1.6-1.8-3.2-3.6-5.3-5.9c0,2.3,0.1,4-0.1,5.6c-0.1,0.7-0.9,1.4-1.4,2.1
		c-0.6-0.5-1.1-1.1-1.7-1.6c-0.7-0.6-1.4-1.1-2.2-1.6c-1.6-1-3.3-1.8-4.9-2.9c-0.4-0.3-0.5-1.3-0.3-1.8c0.3-0.9,0.8-2,1.5-2.5
		c2.5-2,1.8-4.1,0.6-6.4c-5.5-11.3-11-22.6-16.8-34.3c1.2,4.3,2.4,8,3.4,11.8c0.2,0.8,0,1.8-0.1,2.7c-0.9-0.4-2-0.6-2.7-1.2
		c-1.9-1.8-3.6-3.8-5.4-5.7c-2.5-2.7-5.1-5.4-8.2-8.6c-3.2,4.3-6.3,8.5-9.3,12.6c-0.3-0.1-0.6-0.2-0.9-0.3c0.1-0.9,0.1-1.9,0.4-2.8
		c1.1-3.2,1.9-6.6,3.4-9.6c1.2-2.3,0.8-3.8-1.2-4.9c-3.6-2.2-7.3-4.2-11-6.3c-1.4-0.8-2.9-1.6-4.6-2.5c2-2.2,4-1.6,6-1.5
		c2,0.1,4-0.3,6.8-0.5c-2.2-4.2-4.1-8.1-6.3-11.8c-2.6-4.4-5.4-8.5-8.1-12.9c-0.3-0.5-0.2-1.3-0.3-1.9c0.7,0.2,1.5,0.2,2,0.6
		c7,6.3,13.9,12.7,20.9,19.1c0.5,0.4,0.9,0.8,1.6,1.5c0.8-4.4,1.6-8.5,2.3-12.6c1.4-7.6-2.2-14.7-2.4-22.2c-0.1-4-0.3-7.9-0.5-12
		c-1,1.6-2,3.1-3,4.5c-0.3,0.4-1,0.6-1.5,0.8c-0.2-0.6-0.6-1.3-0.5-1.9c0.4-2.3,1.1-4.6,1.3-6.9c0.3-2.8-0.9-3.6-4-3.1
		c-0.8,0.1-1.7-0.1-2.6-0.2c0.5-0.8,0.7-2,1.4-2.4c3.7-2.1,3.9-4.8,2.1-8.3c-0.8-1.6-1.1-3.4-1.5-5.2c-0.1-0.5,0.1-1.3,0.5-1.6
		c0.3-0.2,1.2,0,1.6,0.4c1.1,1.1,2.1,2.3,3,3.5c1.9,2.5,3.1,2.4,4.5-0.4c0.4-0.7,0.7-1.4,1-2.1C696.8,410.6,697.1,410.6,697.4,410.6
		z M677.2,487.9c0,0.1,0,0.3-0.1,0.4c0.5,0.2,1.1,0.4,1.6,0.7c4.1,2.1,8.4,3.8,11.5,7.5c1.2,1.4,1.6,2.5,0.7,4.3
		c-0.9,1.7-1.3,3.6-2.2,6.2c1.9-2.3,3.2-4,4.7-5.5c1.6-1.6,3.1-1.7,5,0.2c3.5,3.6,7.5,6.7,10.3,9.2c-0.5-1.8-1.7-5.1-2.4-8.5
		c-0.3-1.5,0.4-3.3,0.1-4.9c-0.4-2.1-0.8-4.9-2.2-5.9c-3.1-2.1-4.4-4.6-4.5-8.3c-0.1-3.9-0.7-7.9-1.2-11.8c-0.3,0-0.7,0-1,0
		c-0.4,4-0.9,8-1.4,12.7c-6.9-6.5-13.4-12.7-19.9-18.9c0.1,1.4,0.8,2.4,1.4,3.5c2.7,4.8,5.6,9.4,8.1,14.3c1.6,3.2,0.5,4.8-3.1,4.8
		C680.9,487.9,679,487.9,677.2,487.9z M688.6,413.1c0.8,4.3,4.9,8.5-0.8,11.5c1.6,0.7,3.4,1.1,4.2,2.2c0.8,1.1,0.5,2.9,0.7,4.5
		c0.4-0.8,0.8-1.7,1.3-2.5c0.7-1.1,1.6-2.1,2.5-3.1c0.8,1.2,1.6,2.4,2.4,3.5c0.1,0.1,0.2,0.2,0,0c0.8-1.3,1.7-2.6,2.5-3.9
		c-0.5-1-1.9-2.4-1.8-3.8c0.1-1.4,1.5-2.8,2.4-4.3c-2.5-0.4-5.3,2.9-7.4-0.9C691.8,417.5,690.6,414.9,688.6,413.1z M731.5,548.5
		c1.2-4.6,0.5-6.1-3.8-9.9c0.5,1.1,0.8,1.9,1.1,2.5c-1.1,1.3-2.2,2.4-3.7,4.2C728.6,543.9,730.5,544.9,731.5,548.5z M731.9,538.4
		c2.7,4.9,3,5.1,6.9,4c-1.1-0.9-2-1.4-2.7-2.2c-0.7-0.8-1-1.8-1.5-2.7C733.7,537.7,732.8,538.1,731.9,538.4z M709.3,493.7
		c1.4,5,2.3,5.4,6.6,3.4C713.9,496,711.8,495,709.3,493.7z M701.9,480.2c-0.1,3-1.5,6.4,2.4,8.7C703.5,485.8,702.7,483,701.9,480.2z
		"/>
	<path class="st0" d="M692.7,535.5c3.2,4.8,6.3,9.6,9.5,14.3c-0.3,0.3-0.6,0.7-1,1c-2-5.2-7.2-3.9-11.2-6.3c0.5,1.1,0.7,1.7,1,2.2
		c5.7,8.5,8.6,18.3,12.5,27.6c0.3,0.7,0,1.6-0.1,2.5c-0.6-0.5-1.5-0.8-1.9-1.5c-6.3-9-12.6-18.1-19.4-27.9c-0.5,3.1-0.7,5.3-1.3,7.5
		c-0.5,1.8-1.7,3.3-2.5,5c-0.6-1.5-1.2-3-1.6-4.6c-0.2-0.7-0.2-1.4-0.1-2.2c0.2-4.7-0.1-4.9-4.5-7c-3.1-1.5-6-3.3-8.9-5
		c-1.9-1.2-1.4-2.5,0.3-3.2c1.8-0.8,3.7-1.1,5.8-1.7c-2-3-6.1-4.2-7.2-9.1c3.6,0.9,6.5,1.7,9.9,2.6c-3.5-7.4-6.9-14.6-10.3-21.7
		c0.4-0.2,0.8-0.5,1.1-0.7c5.1,6.6,10.1,13.2,15.1,19.7c1.9-3.7,2-7.5,0.2-11.1c-6.8-13.2-13.1-26.6-16.9-41c-0.1-0.3-0.3-0.6-0.5-1
		c-4.4,0-8.7,0-13,0c0,3.4,0.2,7,0,10.6c-0.2,3.5,1,7.1-0.8,10.4c-0.3,0.1-0.7,0.2-1,0.3c-3.1-6.2-6.2-12.4-9.3-18.6
		c-1.8,2.3-3.6,4.6-5.6,6.9c-0.5,0.5-1.3,0.7-2,1.1c-0.3-0.8-0.9-1.7-0.8-2.4c0.6-2.6,1.4-5.2,2.5-8.6c-4.8,1-9.1,1.9-13.4,2.7
		c-1.1,0.2-2.3,0.1-3.5,0.1c0.8-1,1.4-2.1,2.3-2.9c3.5-2.8,7.2-5.5,10.8-8.3c0.7-0.5,1.1-1.3,1.4-1.7c-3-1.8-5.8-3.4-8.6-5.1
		c-1.6-1-0.8-1.8,0.4-2.2c2-0.6,4-1,6.5-1.6c-3.2-7.1-6.3-14.2-9.5-21.2c0.2-0.3,0.4-0.5,0.6-0.8c0.9,0.4,2,0.7,2.5,1.4
		c3.9,4.5,7.8,9.1,11.6,13.6c1.5,1.8,3,3.6,4.4,5.4c2.5-1.6,4.9-3.2,7.3-4.7c0.3,0.2,0.7,0.4,1,0.6c-0.6,2.5-1.1,5-1.8,8.1
		c3.4-1,6.5-1.9,9.5-3c2.7-0.9,5.3-2.2,8.1-3c1.2-0.4,2.7-0.2,4-0.2c-0.6,1.1-1,2.4-1.9,3.3c-3.4,3.1-6.9,6.1-10.4,9.2
		c-0.7,0.6-1.3,1.2-2.1,1.9c3.3,1.9,6.3,3.6,9.5,5.5c0.2-0.9,0.4-1.6,0.6-2.5c0.4,0.5,0.7,0.8,0.8,1.1c1.6,5.1,3,10.2,4.9,15.2
		c6,15.7,13.5,30.6,22.5,44.8c0.8,1.2,1.3,2.3,3.2,1.4c0.9-0.4,2.1,0,3.2,0.1c-0.2,1.1-0.4,2.2-0.8,3.2
		C693.5,534.6,693,535,692.7,535.5z M633.2,472.3c-1.3,3.6-2.1,6.2-3,8.7c0.2,0.1,0.4,0.2,0.6,0.3c1.9-2.6,3.8-5.2,5.9-8.1
		c2.9,6,5.9,12.1,8.8,18.1c0.5-5.4,0.5-10.5,0.4-15.7c-0.1-3.5-0.2-3.5,3.3-3.6c2.8,0,5.6,0,8.9,0c-2.3-1.3-4.2-2.5-6.2-3.6
		c-5.3-2.8-5.3-3.2-0.6-7.1c3.2-2.6,6.3-5.3,9.4-8c-6.7,1.7-13,4.7-20,5.3c0.6-2.6,1.1-4.8,1.6-7.1c-0.2-0.1-0.4-0.2-0.6-0.3
		c-1.1,0.9-2.3,1.7-3.2,2.8c-1.3,1.5-2.3,1.5-3.5,0c-1.7-2.1-3.4-4.2-5.1-6.4c-3.1-4-6.2-8-9.3-12c-0.2,0.1-0.4,0.3-0.7,0.4
		c0.3,0.6,0.5,1.3,0.8,1.9c2.3,4.8,4.7,9.6,6.8,14.4c1.6,3.6,1.4,3.8-2.5,4.5c-1,0.2-1.9,0.5-3.3,0.8c3.3,1.9,6.3,3.6,10,5.8
		c-4.4,3.7-8.2,6.9-11.6,9.8C623.9,473,628.3,472.6,633.2,472.3z M697.4,565.8c0.1-0.1,0.3-0.2,0.4-0.2c-0.3-0.7-0.4-1.5-0.8-2.2
		c-2.9-6-5.8-12-8.9-18c-0.9-1.8-0.8-2.8,1.3-3.2c-2.7-3.1-2.7-3.3,0.6-7.4c-1.3-0.2-2.2-0.7-3.1-0.5c-3.7,0.8-5-0.2-5.1-4
		c-0.1-1.8-0.4-3.6-0.6-6.1c-1,2.6-1.7,4.4-2.7,7c-3.7-5.1-6.7-9.4-9.8-13.6c1.2,4,3,7.7,4.6,11.5c0.4,0.9,0.3,2,0.4,3
		c-0.9-0.1-1.9,0-2.8-0.2c-1.7-0.5-3.4-1.2-4.9-1.7c1.8,2,3.6,3.9,5.3,5.9c1.1,1.2,1,2.1-0.8,2.4c-2,0.3-3.9,0.7-6.6,1.2
		c5.1,2.9,9.5,5.5,14.5,8.3c0,2.3,0,5.2,0,8.1c0.9-2.5,1.3-5,1.8-7.5c0.2-0.8,0.9-1.9,1.5-1.9c0.8,0,1.9,0.5,2.4,1.2
		c2.9,3.9,5.6,8,8.5,12C694.2,561.6,695.8,563.7,697.4,565.8z M690.7,536.7c-0.4,1.1-1.2,2.4-1,2.6c1.5,1.3,3.2,2.4,4.8,3.6
		c0.1-0.2,0.3-0.4,0.4-0.7C693.7,540.5,692.4,538.8,690.7,536.7z M683.8,526.2c-0.2,1-0.2,1.3-0.2,1.5c0,0.9,0,1.8,0,2.7
		c0.1,2.4,0.8,2.7,3.5,1.3C686.1,530.1,685.2,528.5,683.8,526.2z"/>
	<path class="st0" d="M567.9,486.7c-0.3,0.7-0.8,1.3-1,2c-0.2,0.8-0.1,1.6-0.3,2.4c-0.2,0.6-0.8,1.1-1.2,1.7
		c-0.5-0.4-1.1-0.8-1.5-1.3c-0.5-0.7-0.8-1.6-1.2-2.6c-1.2,0.8-2.3,1.5-4,2.6c-0.1-1.3-0.5-2.3-0.2-2.9c1.3-2.2,0.4-3.7-1-5.4
		c-0.6-0.7-0.9-1.7-1.3-2.5c0.2-0.2,0.5-0.3,0.7-0.5c1.5,0.7,3,1.5,4.6,2.3c0.9-1.3,1.8-2.7,2.8-3.9c0.4-0.4,1.2-0.4,1.8-0.7
		c0.1,0.6,0.4,1.3,0.2,1.9c-0.8,3.3-0.9,3.3,2.6,3.8c0.5,0.1,1.1,0.2,1.6,0.4c0.4,0.2,0.7,0.4,1.4,0.8c-2.1,1.8-1.1,3.5-0.4,5.3
		c4.6,12,11.3,22.9,18.6,33.5c10.7,15.3,22.2,29.9,35,43.4c0.7,0.7,1.2,2.1,2.7,1c0.3-0.2,1.4,0.5,2.1,0.9c3.5,2.4,6.9,4.9,10.8,7.8
		c0.5-3.7,0.9-6.7,1.3-9.8c0.5,0,0.9-0.1,1.4-0.1c1,3.1,2.1,6.1,3.1,9.1c2.3-2,4.7-4,7.5-6.5c1.3,4.5-1.5,7.1-2.2,10.5
		c3.9,0.1,7.7,0.1,11.2,2.6c-2.7,3.4-6.4,4.4-10.4,5.7c4.1,2.6,7.9,4.9,11.7,7.3c-0.1,0.4-0.3,0.7-0.4,1.1
		c-3.3-0.6-6.7-1.1-10.6-1.8c5.1,4.4,9.9,8.4,14.6,12.6c1,0.9,1.5,2.2,2.2,3.4c-1.4-0.2-3.1-0.1-4.1-0.8c-3.9-2.7-7.6-5.8-11.4-8.7
		c-1.4-1.1-2.8-2.2-4.5-3.5c-0.6,2.1-1.1,3.9-1.7,5.6c-0.3,0.7-1,1.1-1.5,1.7c-0.4-0.6-1.1-1.1-1.3-1.8c-0.7-3.1-1.3-6.2-2-9.8
		c-1.6,1.8-2.8,3.5-4.3,4.8c-0.9,0.8-2.2,1.2-3.4,1.8c-0.3-1.2-1-2.4-0.9-3.6c0.2-2.4,0.8-4.8,1.2-7.2c-3.5,0-7.2,0-11,0
		c-0.1-0.3-0.2-0.6-0.3-0.9c3-2,6-4,9-6c-13.4-13.7-26.4-28.2-37.5-44.3C585.4,522.1,574.2,506.1,567.9,486.7z M660,583.7
		c0-0.4,0-0.7,0-1.1c-1.9-0.3-3.9-0.5-5.8-0.8c-1.1-0.2-3-0.2-3.2-0.7c-0.4-1.2-0.1-2.7,0.2-4.1c0.3-1.3,1-2.4,1.5-3.6
		c-0.4-0.3-0.8-0.6-1.2-0.9c-1.5,2.1-3,4.3-4.5,6.4c-0.4-0.1-0.8-0.3-1.2-0.4c-0.7-2.2-1.5-4.4-2.2-6.6c-0.3,0.7-0.3,1.4-0.3,2
		c-0.1,4.1-1.8,5.1-5.2,2.8c-2.2-1.4-4.4-3-7.2-4.9c0.8,1,1.1,1.4,1.5,1.9c5.2,5.3,10.8,10.3,15.7,15.8c2.8,3.2,6.2,3.4,9.8,4
		c-1.6-1.2-3.3-2.1-4.9-3.2c-0.8-0.6-1.5-1.4-2.2-2.1c1-0.7,1.8-1.6,2.9-2.1C655.7,585.2,657.9,584.5,660,583.7z M643.4,591.1
		c-1.6-1.5-3.3-3-4.9-4.6c-2.8-2.7-5-2.6-8.1,0.7c2,0,3.8,0,5.7,0c3.1,0,3.4,0.7,2.3,3.6c-0.8,2.3-1.3,4.7-1.9,7
		c0.2,0.1,0.5,0.2,0.7,0.3C639.2,595.7,641.2,593.5,643.4,591.1z M561,486.4c1.6,1,2.7,1.7,4,2.5c0.3-1.3,0.6-2.5,0.9-3.6
		c-0.8-1-1.4-1.8-1.8-2.4c-1.1,0.6-2.2,1.1-3.2,1.6C560.9,485.3,561,486.1,561,486.4z M646.9,602.1c2.2-5.9,2.1-6.3-2-9
		C645.6,595.9,646.2,598.7,646.9,602.1z"/>
	<path class="st0" d="M516.6,579.3c-1.4-2.1-2.7-4.3-4-6.4c0.3-0.3,0.6-0.6,0.8-0.9c1.9,0.7,3.8,1.2,5.6,2.1
		c1.4,0.7,2.2,0.6,2.7-0.9c0.2-0.4,0.3-0.9,0.6-1.2c0.8-0.8,1.7-1.6,2.6-2.4c0.3,1.2,0.8,2.4,0.9,3.6c0.1,0.8-0.4,1.7-0.7,2.9
		c1.7,0.4,3.3,0.6,4.8,1.1c0.6,0.2,1.1,0.7,1.6,1c-0.4,0.5-0.8,1.4-1.2,1.5c-5.5,0.7-6.2,4.5-5.8,9c0.1,0.7,0.5,1.6,1,1.9
		c5.9,3.7,11.8,7.4,17.7,11c0.6,0.4,1.5,0.5,2.2,0.7c0.1,0.3,0.1,0.5,0.2,0.8c-0.8,0.2-1.7,0.7-2.3,0.5c-2.2-0.8-4.4-1.8-6.4-2.9
		c-45.2-25-83.4-58.1-114.2-99.7c-8.5-11.4-16.6-23.2-24.8-34.8c-0.2-0.3-0.3-0.6-0.5-0.9c0.2-0.2,0.4-0.4,0.5-0.7
		c0.7,0.6,1.5,1.1,2.1,1.8c10.2,13.4,20.1,26.9,30.6,40c7.2,9,15.2,17.4,22.8,26c0.8,0.9,1.5,1.7,2.5,3c0.4-1.7,0.8-3,1.1-4.3
		c-2.4-0.9-4.6-1.8-6.8-2.6c0-0.3-0.1-0.6-0.1-0.9c1.8-0.8,3.6-2,5.5-2.2c2.3-0.3,2.6-1.3,2.4-3.2c-0.2-2.4,0-4.8,0-7.2
		c0.2-0.1,0.4-0.2,0.7-0.3c1.6,2.2,3.4,4.3,4.6,6.7c1.1,2.2,1.9,3.8,4.9,3c1.8-0.5,3.9-0.1,5.8-0.1c0.1,0.3,0.2,0.6,0.3,0.9
		c-1.1,0.8-2.1,1.7-3.3,2.3c-2.7,1.4-3.8,3.2-2.9,6.4c0.6,2.4,0.5,5,0.2,7.7c-3.4-1.9-4.1-6-7.1-8.7c-1.1,1.2-2.3,2.4-3.4,3.7
		c6.8,8.9,44.1,39.7,55.9,46.2C514.7,581.8,515.6,580.6,516.6,579.3z M459.1,530.4c-0.4,1.4-0.8,2.4-1.3,3.9c0.7-0.6,1-0.9,1.3-1.2
		c1.7-1.8,3.1-2,4.4,0.4c0.7,1.3,1.8,2.4,2.9,3.8c0.5-4.1-1.8-8.7,3.4-11c-5.8,0.5-5.8,0.5-8.6-4.4c-0.4-0.6-0.9-1.1-1.8-2.1
		c0,1.4-0.1,2.2,0,2.9c0.5,3-0.6,4.4-3.7,4.6c-0.7,0-1.5,0.6-2.4,1C455.7,529.1,457.4,529.8,459.1,530.4z M516.2,575.2
		c1,1.8,1.8,3.3,2.6,4.7c-1,0.9-1.7,1.5-2.5,2.1c4.5-1.6,4.9,2.3,6.6,4.7c-0.8-3.8,0.1-6.6,3.8-7.3c-1.5-1.5-2.8-2.8-4-4.1
		C521.1,579,518.7,575.2,516.2,575.2z M518.8,583.1c-1.1,0.6-2,1-3,1.6c1.6,0.9,3,1.7,4.4,2.6c0.2-0.1,0.3-0.3,0.5-0.4
		C520.1,585.6,519.5,584.4,518.8,583.1z"/>
	<path class="st0" d="M619.6,528.3c-0.1,3.1-0.4,6.2-0.4,9.3c0,5.4,0.1,10.9,0.1,16.3c0,0.5-0.5,1.3-0.9,1.4
		c-0.5,0.1-1.3-0.2-1.6-0.6c-0.9-1.3-1.8-2.7-2.4-4.3c-2.1-5.7-4.5-11.3-6-17.1c-2.7-10.4-8.6-18.2-17.7-23.7
		c-1.8-1.1-3.6-2.5-5.2-3.9c-0.6-0.5-0.7-1.6-1-2.4c0.8-0.3,1.6-0.9,2.4-0.8c4.9,0.4,9.7,0.9,14.6,1.3c2.7,0.3,5.4,0.5,8.2,0.8
		c0.3-4.1,0.6-8,0.9-12c0.3-3.4,0.6-6.9,1.2-10.3c0.2-1.1,1.2-2.1,1.8-3.1c1,0.7,2.4,1.1,2.9,2c2.5,4.3,4.9,8.7,7.2,13
		c1.6,2.9,3.1,5.7,4.8,9c3.3-1.5,6.6-2.9,9.8-4.4c0.7-0.3,1.3-0.8,2-0.9c0.6-0.1,1.4-0.1,1.9,0.3c0.3,0.2,0.3,1.2,0,1.7
		c-3.2,6-6.4,12.1-9.9,18c-0.8,1.3-1,2.1-0.4,3.3c3,6.2,5.9,12.4,8.8,18.6c2.2,4.8,4.4,9.7,6.5,14.6c0.2,0.5,0.3,1,0.5,1.6
		c-2.3,0.8-3.9-0.5-5.1-1.8c-4.2-4.6-8.3-9.3-12.3-14.1c-3.1-3.7-5.9-7.6-8.8-11.4c-0.3-0.3-0.6-0.5-1-0.8
		C620.1,528.2,619.9,528.3,619.6,528.3z M643.8,553.5c0.2-0.1,0.4-0.3,0.6-0.4c-1.1-2.3-2.2-4.7-3.3-7c-3.6-7.7-7-15.5-10.7-23.1
		c-1.3-2.6-0.4-4.3,0.9-6.4c3-5,5.6-10.1,8.7-15.7c-4.7,1.9-8.6,3.5-12.1,4.9c-4.7-8.5-9-16.3-13.3-24.2c-0.3,0.1-0.6,0.2-1,0.3
		c-0.5,6.8-1,13.7-1.4,20.5c-0.2,3-1.2,4.2-4.2,4.1c-3.2-0.1-6.3-0.5-9.5-0.8c-3.5-0.3-7-0.6-10.6-0.8c2.5,2.4,5.3,4.1,7.8,6.1
		c4.3,3.3,8.9,6.4,10.9,11.8c1.6,4.1,2.9,8.4,4.4,12.5c1.8,5.1,3.6,10.2,5.4,15.4c1.4-8.1-0.6-16.2,2.7-24.2c1.5,0.8,2.9,1.1,3.7,2
		c2.9,3.4,5.5,6.9,8.4,10.4C635.4,543.7,639.6,548.6,643.8,553.5z"/>
	<path class="st0" d="M392.8,482.4c0.7,0.7,1.7,1.4,2.2,2.2c2.7,4.4,5.3,8.8,8,13.2c7.8,12.9,15.6,25.7,23.4,38.6
		c6.1,10,13.4,19.2,20.7,28.3c5.5,6.9,11.7,12.9,18.3,18.5c0.4,0.3,0.8,0.7,1.2,1.1c0.2,0.3,0.4,0.6,0.8,1.4c-1-0.1-1.9,0.2-2.3-0.2
		c-6.5-4.8-13.2-9.3-18.1-15.9c-2.6-3.6-5.6-6.9-8.5-10.3c-7.9-9.5-14.2-19.9-20.2-30.6c-3.5-6.2-7.5-12.2-11.1-18.4
		c-4.5-7.8-8.9-15.8-13.3-23.6c-0.7-1.2-1.3-2.4-1.9-3.5C392.3,483,392.5,482.7,392.8,482.4z"/>
	<path class="st0" d="M572.1,437.6c-2.2,2.8-5.4,4.5-8.8,6c1.7,3.6,3.4,7.2,5.1,10.8c-0.4,0.3-0.7,0.6-1.1,0.9
		c-3.2-2.3-6.4-4.6-9.7-7c-1.5,2.5-3.2,5.2-4.8,7.8c-0.3-0.1-0.7-0.3-1-0.4c0-3.2,0-6.4,0-9.7c-2.3-0.4-4.2-0.7-6.1-1.1
		c-0.6-0.1-1.1-0.7-1.7-1.1c0.4-0.5,0.6-1.3,1.1-1.6c1.9-1,3.9-1.8,6.3-2.9c-0.8-1.4-1.4-3-2.3-4.4c-1.6-2.5-3.4-4.9-5-7.4
		c-0.3-0.5,0-1.3-0.1-1.9c0.6,0.1,1.4,0,1.9,0.3c3.4,2.5,6.8,5,10.7,7.9c1-1.9,1.8-3.6,2.7-5.1c0.4-0.7,1.1-1.2,1.7-1.8
		c0.3,0.7,0.9,1.5,1,2.2c0.1,2.4,0,4.9,0,7.7c3.4,0,6.6,0,9.7,0C571.9,437,572,437.3,572.1,437.6z M553.4,451c0.2,0,0.4,0.1,0.6,0.1
		c0.6-1.1,1.2-2.2,1.8-3.3c1.4-2.4,2-2.5,4.1-0.6c1.1,1,2.3,1.9,3.5,2.8c0.2-0.2,0.3-0.4,0.5-0.6c-0.6-1.4-1.1-2.8-1.9-4.2
		c-1.2-2.2-0.9-3.5,1.7-4.1c1.2-0.3,2.2-1.1,3.5-1.8c-2.4-0.7-4.9-0.6-6-1.8c-1.1-1.1-0.8-3.5-1.1-5.4c-2.7,3.8-4.3,3.9-8,0.7
		c-1-0.9-2.1-1.8-3.1-2.7c0.5,1.7,1.4,3,2.3,4.4c3.3,5.2,3,5.9-2.6,8.1c-0.1,0.1-0.2,0.2-0.4,0.5c1.8,0.4,3.5,0.8,5,1.2
		C553.1,446.7,553.3,448.9,553.4,451z"/>
	<path class="st0" d="M649.1,432.7c-1.2,2.9-2.2,5.5-3.3,8.2c-0.3,0.7-1,1.1-1.5,1.7c-0.4-0.7-0.9-1.4-1-2.2
		c-0.3-1.6-0.3-3.2-0.5-4.8c-0.5-3.8-0.6-3.8-4.6-3.8c-0.8,0-1.6-0.1-3.4-0.2c1.4-2.3,2.3-4.2,3.7-5.7c1.7-1.7,1.8-3.1,0.6-5
		c-1.9-3.3-3.7-6.6-5.6-9.9c-0.3-0.5-0.5-1.1-0.4-2.2c0.8,0.3,1.6,0.6,2.3,1c3.6,2.4,7.2,4.9,10.7,7.4c1.4,1,2.4,0.9,3.7-0.5
		c2-2.1,4.2-4,6.3-6.1c0.3,0.1,0.6,0.2,0.9,0.3c-0.5,2.9-1,5.7-1.5,8.6c2.3-0.5,5.1-1.1,7.9-1.6c0.6-0.1,1.3,0.1,1.9,0.2
		c-0.4,0.6-0.7,1.3-1.2,1.8c-2.6,2.5-5.4,4.8-7.9,7.4c-0.6,0.6-0.7,2.2-0.4,3.1c1.1,3,2.5,5.8,3.7,8.7c0.4,1,0.7,2,0.7,3.3
		C655.6,440.7,653.3,436,649.1,432.7z M636.9,412.9c1.6,3.1,2.8,5.6,4.1,8c1.1,2.1,1.2,3.8-0.8,5.5c-1.1,1-1.9,2.3-2.9,3.5
		c2.3,0.3,4.4,0.6,6.3,0.8c0.4,2.7,0.8,5,1.2,7.4c1.3-2,2.1-4,3-6c0.7-1.5,1.6-2.1,3-0.5c2,2.2,4.2,4.3,6.2,6.5
		c-0.4-2.2-1.3-4.1-2.1-5.9c-1.6-3.7-1.3-4.8,1.7-7.6c1.4-1.3,2.7-2.5,4.1-3.8c-1.5-0.3-2.7,0-3.9,0.1c-1.1,0.1-2.1-0.2-3.2-0.3
		c0.2-1.1,0.4-2.2,0.7-3.2c0.3-1,0.7-1.9,1.1-2.8c-1.7,0.9-3.2,1.9-4.2,3.2c-1.6,2.3-3.3,2.1-5.3,0.9
		C643.1,417,640.3,415.1,636.9,412.9z"/>
	<path class="st0" d="M502.3,488.3c-1.3-1.8-2.6-3.7-4-5.6c-1.3-1.9-2.5-3.8-3.8-5.7c0.2-0.2,0.4-0.4,0.6-0.7
		c0.7,0.2,1.5,0.2,2.1,0.6c2.4,1.2,4.9,2.3,7.2,3.8c2.4,1.6,3.6,0.8,4.8-1.5c0.7-1.4,1.8-2.5,2.7-3.8c0.4,0.2,0.8,0.4,1.2,0.6
		c-0.4,2.9-0.7,5.9-1.1,9.4c1.5-0.6,2.9-1.2,4.2-1.6c0.7-0.2,1.5,0,2.2,0.1c-0.2,0.7-0.3,1.7-0.8,2.1c-1.5,1.2-3.2,2.3-4.8,3.4
		c2.9,3,5.8,5.9,8.5,8.8c0.5,0.6,0.7,1.5,1,2.2c-0.8-0.2-1.6-0.2-2.2-0.6c-3.2-1.9-6.2-3.9-9.5-5.9c-1,1.7-2,3.6-3.2,5.4
		c-0.4,0.6-1.3,1-2,1c-0.3,0-0.9-1-1-1.6c-0.4-1.9-0.6-3.9-0.9-5.8c-2.5,0.3-4.8,0.5-7,0.7c-0.2-0.4-0.3-0.8-0.5-1.3
		C498.2,491.1,500.1,489.8,502.3,488.3z M511.1,491.6c0.3-1.6,0.6-3.1,0.8-4.6c-3.8-1.4-0.4-4.6-0.8-7.1c-3.2,4.5-3.7,4.6-8.5,2
		c-1.2-0.7-2.4-1.3-3.6-2c1,2,2.3,3.6,3.4,5.3c2.3,3.5,2.3,3.5-0.8,5.9c0.4,0,0.8,0.1,1.1,0c2.5-1.2,3.2-0.1,3.1,2.3
		c-0.1,1.2,0.2,2.4,0.4,3.8C508.8,495.6,507.7,491.2,511.1,491.6z"/>
	<path class="st0" d="M503.2,554.8c-0.6,2.4-0.9,4.3-1.6,6.1c-0.3,0.7-1.4,1.1-2.1,1.7c-0.4-0.7-0.9-1.4-1.2-2.2
		c-0.3-1.2-0.5-2.4-0.7-3.7c-1.5,0.4-2.8,0.9-4.1,1.1c-0.8,0.2-1.7,0.1-2.5,0.1c0-0.9-0.3-2,0-2.8c0.7-1.6,1.8-3.1,2.9-5
		c-1.4,0-2.6,0.1-3.7,0c-0.6,0-1.5-0.3-1.6-0.6c-0.1-0.6,0.1-1.6,0.6-1.9c1.6-1.1,3.4-2,5.3-3.1c-0.6-1.9-1.2-3.9-1.8-6
		c-0.2-0.7,0-1.5,0-2.2c0.8,0,1.9-0.3,2.5,0.1c2.1,1.4,3.9,3,6,4.7c0.5-0.6,1.1-1.6,1.9-2.2c0.7-0.6,1.9-1.3,2.5-1.1
		c0.7,0.3,1.3,1.5,1.3,2.4c0.1,1.6-0.3,3.2-0.5,5.3c2-0.5,3.6-1.1,5.2-1.2c1-0.1,2,0.4,3,0.7c-0.5,0.9-0.8,2-1.5,2.6
		c-1.5,1.2-3.2,2-5,3.2c1.1,1.4,2.2,2.8,3.1,4.3c0.4,0.7,0.4,1.6,0.6,2.4c-0.9,0-1.8,0.4-2.6,0.1
		C507.1,556.7,505.2,555.7,503.2,554.8z M500,559.9c0.8-2.5,0.9-5.1,2.2-6.1c1.2-0.9,3.7,0,5.2,0.1c-0.4-1.3-1.6-3.2-1.1-4.3
		c0.7-1.4,2.7-2.1,4.6-3.3c-1.2,0.3-1.9,0.4-2.6,0.5c-2.9,0.6-3.6,0-3.6-2.8c0-1.3,0-2.6,0-4.3c-0.6,0.7-0.9,1.1-1.2,1.4
		c-2.6,3-2.6,3-5.2,0.1c-1.1-1.2-2.3-2.2-3.4-3.4c-0.1,1.8,0.3,3.2,0.7,4.5c1,3.3,0.8,3.6-2.4,4.7c-0.6,0.2-1.2,0.5-2.4,1.1
		c1.2,0.1,1.7,0,2.1,0.2c1,0.3,1.9,0.7,2.9,1.1c-0.4,0.9-0.7,1.9-1.2,2.8c-0.7,1.2-1.5,2.2-2.6,4c1.9-0.6,2.9-1,3.9-1.3
		c1-0.3,2-0.6,3-0.9C499.4,556.1,499.6,557.8,500,559.9z"/>
	<path class="st0" d="M625.1,324c-0.3,2.2-0.7,4.5-1.1,6.8c4.3-0.9,8.2-4,12.8-3.8c0.2,0.4,0.4,0.7,0.5,1.1
		c-3.9,2.8-7.8,5.5-11.7,8.4c1.2,1.4,2.8,3.1,4.3,4.9c0.4,0.5,0.4,1.3,0.6,1.9c-0.6,0.1-1.2,0.5-1.7,0.4c-2.3-0.4-4.6-0.8-6.9-1.2
		c-1.1,2.6-2.1,5.2-3.1,7.8c-0.4,0-0.8-0.1-1.2-0.1c-0.6-2.6-1.2-5.2-1.9-8c-2.8,0.6-5.7,1.3-8.5,1.9c-0.2-0.3-0.3-0.6-0.5-0.8
		c1.7-2,3.5-3.9,5.3-6c-1.3-3.3-6.4-4.2-6.3-9.4c3.4,0.8,6.7,1.3,9.8,2.2c1.9,0.6,2.9,0.3,4-1.4c1.2-1.9,2.8-3.5,4.3-5.2
		C624.2,323.6,624.6,323.8,625.1,324z M618.4,345.7c1-1.8,1.5-4.1,2.9-4.8c1.4-0.7,3.7,0.1,5.9,0.2c-0.9-1-1.5-1.7-2.1-2.4
		c-2.3-2.6-2.1-3.2,1-4.8c2-1.1,3.9-2.5,5.8-3.7c-0.1-0.1-0.2-0.3-0.3-0.4c-3.6,1.4-7.3,2.8-11.6,4.5c1.3-3,2.1-5.1,3-7.2
		c-1.4,1-2.6,2.2-3.3,3.6c-0.8,1.6-1.8,1.5-3.3,1.2c-2.9-0.8-5.8-1.3-8.8-1.9c1.3,2.1,3,3.5,4.6,5.1c1.2,1.3,1.9,2.6-0.1,4
		c-0.9,0.6-1.5,1.8-2.5,3C617.2,339.9,617.2,339.9,618.4,345.7z"/>
	<path class="st0" d="M526.8,318.3c-2.5-4.2-4.9-8.4-7.4-12.6c0.1-0.1,0.3-0.3,0.4-0.4c3,2.2,6,4.4,9,6.6c0.6,0.4,1.2,0.8,1.7,1.3
		c1.8,1.5,3.3,1.6,5.2,0c1.3-1.1,3.1-1.7,5.1-2.8c1,4.3-2.4,7.1-2.5,10.9c2.2,0.5,4.5,1,6.7,1.5c0.1,0.2,0.2,0.5,0.4,0.7
		c-1.5,1.1-3,2.2-4.7,3.5c0.2,3,0.5,6.3,0.6,9.7c0.1,1.7,0,3.4-0.1,5.1c-0.1,0.6-0.8,1.1-1.2,1.6c-0.5-0.5-1.1-0.9-1.3-1.4
		c-1.5-3.8-3-7.5-4.5-11.3c-0.2-0.5-0.5-0.9-0.8-1.4c-1.5,1.8-2.9,3.5-4.3,5.2c-0.3-0.2-0.7-0.3-1-0.5c0.1-1.6,0.2-3.1,0.3-4.7
		c0.1-1,0.3-2,0.3-3c0-3.2-0.6-3.6-3.8-3c-1.7,0.3-3.5,0.4-5.3,0.5c-0.1-0.3-0.3-0.7-0.4-1C521.6,321.5,523.9,320.1,526.8,318.3z
		 M542.4,324.1c-1-0.4-1.7-0.6-2.3-0.8c-3.4-0.8-3.8-1.7-2.5-4.9c0.7-1.7,1.4-3.4,2.3-5.9c-1.8,1.2-2.9,1.9-4,2.6
		c-1.7,1.2-3.2,1.6-5.1,0c-1.9-1.6-4.1-2.9-6.1-4.3c0.4,1.5,1.1,2.7,1.6,3.9c1,2.3,2.9,4.9-1.3,6.7c5.2,0.2,5.4,0.4,5.4,5.1
		c0,1,0,2,0,3.4c2.9-3.3,3.6-3.2,5.4,0.3c1.3,2.6,2.5,5.3,4.1,8.6c-0.2-3-0.3-5.3-0.6-7.6C539,328.4,538.3,325.5,542.4,324.1z"/>
	<path class="st0" d="M583,475.7c0-3.5-0.3-6.9,0.1-10.4c0.2-2-0.1-2.8-2-3.1c-2-0.3-3.9-0.6-5.9-1.1c-0.8-0.2-1.5-1-2.3-1.5
		c0.7-0.4,1.3-1,2-1.3c1.7-0.6,3.4-1.2,5.2-1.5c2.2-0.4,2.9-1.5,2.6-3.6c-0.4-2.7-1-5.3-1.2-8c-0.1-1,0.3-2.1,0.5-3.1
		c0.3-0.1,0.7-0.1,1-0.2c2,2.8,4.1,5.6,6,8.6c1,1.5,1.8,2.4,3.6,1.3c2.1-1.2,4.2-2.5,6.3-3.6c0.6-0.3,1.5-0.2,2.2-0.2
		c-0.1,0.7,0,1.4-0.3,2c-1.6,3-3.3,5.9-5,9.1c2.2,1.3,4.1,2.5,6.1,3.8c0.4,0.3,0.7,0.9,1.1,1.3c-0.5,0.3-1,0.7-1.6,0.8
		c-2.6,0.1-5.2,0.2-7.9,0.1c-2-0.1-3.4,0.5-4.3,2.4c-1,2.2-2.4,4.3-3.7,6.3c-0.5,0.8-1.2,1.4-1.8,2.1
		C583.4,475.8,583.2,475.7,583,475.7z M598.4,450.9c-2,1-3.4,1.7-4.8,2.3c-4,1.7-4.6,1.4-6.7-2.6c-0.9-1.6-2.1-3.1-3.2-4.6
		c-0.1,2.4,0.2,4.5,0.6,6.6c0.7,3.9-0.3,5.2-4.2,6c-0.9,0.2-1.7,0.5-2.7,0.8c0.4,0.3,0.6,0.5,0.8,0.5c0.8,0.1,1.6,0.2,2.4,0.3
		c3.2,0.4,4.3,2,3.9,5.2c-0.3,2,0,4.1,0,6.6c1.7-2.8,2.6-6.1,4.7-7.5c2.2-1.4,5.5-1.1,8.5-1.5c-1.3-1.8-4.7-2.4-3.2-5.5
		C595.5,455.3,596.9,453.3,598.4,450.9z"/>
	<path class="st0" d="M557.7,380.3c1.6-1,3-1.9,4.5-2.7c0.5-0.2,1.1,0,1.7,0c0,0.6,0.1,1.3-0.1,1.8c-0.7,1.5-1.5,2.9-2.5,4.6
		c1.2,1,2.5,1.9,3.6,3c0.6,0.7,0.8,1.8,1.2,2.7c-0.9,0.1-1.8,0.2-2.7,0.1c-0.9-0.1-1.7-0.4-3.1-0.8c0.3,3.5,0.6,6.6,0.9,9.8
		c0.3,2.8,0.6,5.6,0.8,8.3c0,0.5-0.4,1.1-0.6,1.6c-0.5-0.4-1.2-0.7-1.5-1.2c-2.2-4.8-4.4-9.6-6.6-14.4c-1.6,1.2-3.2,2.4-4.8,3.6
		c-0.3-0.2-0.5-0.4-0.8-0.6c0.2-2.5,0.4-4.9,0.7-7.3c-1.9-1-3.7-2-5.5-2.9c-0.1-0.3-0.1-0.6-0.2-0.9c2.2-1,4.4-1.9,6.6-2.9
		c-1-4.7-2-9.4-2.8-14.2c-0.2-0.8,0.3-1.8,0.5-2.7c0.8,0.4,1.9,0.7,2.4,1.3c2.3,3.5,4.4,7,6.5,10.6
		C556.5,378.2,557.1,379.3,557.7,380.3z M548.4,367.4c-0.2,0.1-0.4,0.2-0.5,0.3c0.9,4.3,1.7,8.6,2.6,12.9c0.5,2.2-0.3,3.5-2.3,4.1
		c-0.6,0.2-1.3,0.4-2.2,0.6c1.6,1.2,3.8,1.9,4.2,3.2c0.5,1.5-0.5,3.5-0.9,5.3c1.3-0.6,2-1.4,2.9-2.2c0.5-0.5,1-0.8,1.6-1.2
		c0.4,0.6,0.9,1.1,1.1,1.7c1.7,4,3.3,8.1,5,12.1c0.1,0,0.2-0.1,0.3-0.1c-0.6-5.5-1.2-11-1.8-16.6c1.4,0,2.6,0,3.9,0
		c0.1-0.2,0.3-0.4,0.4-0.6c-1.2-0.9-2.5-1.8-3.6-2.6c1.2-1.8,2.1-3.2,3.4-5.2c-5.5,3.1-5.4,3.1-8.3-2
		C552.4,373.8,550.4,370.7,548.4,367.4z"/>
	<path class="st0" d="M446.5,472.2c-0.2-3.2-0.4-6.3-0.6-9.4c-1.9,0-3.8,0.1-5.6,0c-0.7,0-1.3-0.5-1.9-0.7c0.4-0.7,0.7-1.4,1.2-1.9
		c0.6-0.5,1.4-0.9,2.1-1.2c2.3-0.7,2.6-2,1.6-4.1c-1.4-2.9-2.5-6-3.7-9c-0.4-1.1-0.6-2.3-1.1-4.1c5,1.8,6.2,6.1,8.9,9.3
		c0.8-1.4,1.4-2.6,2.2-3.7c0.3-0.4,1.1-0.9,1.2-0.7c0.4,0.3,0.8,0.9,0.9,1.4c0.2,0.9,0.1,1.9,0.1,2.9c0.3,3.6,0.7,3.9,4.2,4.2
		c1,0.1,2-0.1,3,0.1c0.7,0.1,1.3,0.6,2,0.9c-0.5,0.6-1,1.6-1.6,1.8c-1.7,0.5-3.5,0.6-5.7,0.9c1.5,2.5,3,4.7,4.3,7
		c0.4,0.7,0.4,1.6,0.5,2.4c-0.9-0.2-2,0-2.6-0.5c-1.8-1.4-3.5-3.1-5.6-5c-0.6,2.8-1.4,5.2-1.7,7.7
		C448.5,472,447.7,472.3,446.5,472.2C446.4,472.1,446.5,472.2,446.5,472.2z M450.1,450.5c-2.2,3.3-2.8,3.4-5,0.4
		c-1.1-1.5-2.1-3.1-3.1-4.7c0.6,2.6,1.6,4.9,2.6,7.3c2,4.8,2,4.8-2,7.6c4.6-0.4,4.6-0.4,5.2,6.3c0.6-2.2,1.2-4,1.7-5.8
		c1.7,0.6,3.4,1.1,4.9,1.7c-0.1-1.8-4.3-4.1-0.2-6.6C450.5,455.4,450.5,455.4,450.1,450.5z"/>
	<path class="st0" d="M578.4,349.4c2.3-1.6,4.6-3.2,7.2-5c1.5,4.3-1.6,6.9-2.9,10.2c2,0.4,3.8,0.8,5.6,1.3c0.1,0.3,0.2,0.5,0.2,0.8
		c-1.9,1.1-3.7,2.3-5.7,3.1c-2.3,1-2.8,2.5-2.2,4.7c0.3,1.3,0.5,2.7,0.6,4c0,0.7-0.4,1.4-0.7,2.1c-0.6-0.3-1.4-0.5-1.8-0.9
		c-1.7-1.8-3.3-3.6-5.1-5.6c-2,1.5-3.8,3.1-5.8,4.5c-0.7,0.5-1.7,0.5-2.6,0.8c0.1-0.9-0.1-2,0.3-2.8c0.9-2,2.1-4,3.2-6
		c-1.8-1.8-3.6-3.6-5.4-5.5c-0.4-0.5-1-1.3-0.8-1.8c0.2-0.5,1.1-0.9,1.7-1c2.4-0.3,4.8-0.5,7.6-0.8c-0.3-2-0.6-3.7-0.7-5.5
		c0-0.8,0.4-1.6,0.6-2.5c0.8,0.3,1.7,0.5,2.2,1.1C575.6,346,576.8,347.6,578.4,349.4z M564.7,354.2c1.5,1.2,2.5,2.1,3.6,2.9
		c2.2,1.5,2.8,3.3,1.2,5.6c-0.5,0.7-0.7,1.6-1,2.4c1.6-0.6,2.7-1.4,3.8-2.2c1.5-1.1,2.7-1.1,3.8,0.6c0.8,1.3,1.9,2.3,2.9,3.4
		c-1.5-5,0.2-8.3,5.5-10c-4-1.4-4.1-1.8-2.4-5c0.7-1.3,1.4-2.6,2.1-3.9c-1.1,0.2-1.7,0.7-2.4,1.2c-0.6,0.5-1.3,1-2,1.4
		c-1.6,0.9-3,1.2-3.9-1c-0.4-1-1.4-1.9-2.1-2.8c-0.4,0.9-0.4,1.5-0.2,2.1c0.7,3.2,0.3,3.8-2.9,4.3
		C569,353.6,567.2,353.8,564.7,354.2z"/>
	<path class="st0" d="M483.3,448.5c3.5,0.2,6.4,0.9,8.9,4c-2.7,0.4-4.9,0.8-7.3,1.2c3,3.9,6,7.7,9,11.5c-0.3,0.3-0.5,0.7-0.8,1
		c-0.9-0.4-2-0.5-2.8-1.1c-3.9-3-7.8-6.1-12.4-9.8c-1,1.6-2.1,3.5-3.3,5.4c-2.9-2.8-1.6-4.9-1-7.5c-2.3-0.1-4.5-0.3-7-0.4
		c1-3.2,4-2.7,6.3-3.7c-2-4-4-7.7-5.8-11.5c-0.3-0.7-0.3-1.6-0.4-2.5c0.8,0.2,1.8,0.2,2.3,0.7c3.5,3.3,6.9,6.6,10.7,10.2
		c2.1-1.7,4.1-3.3,6-4.8c0.3,0.2,0.5,0.3,0.8,0.5c-0.4,1-0.7,2.1-1.2,3.1C484.7,446,484,447.1,483.3,448.5z M489.6,463
		c0.2-0.2,0.4-0.4,0.6-0.5c-2.2-2.5-4.3-5-6.4-7.6c-0.5-0.6-0.7-1.5-1.1-2.3c0.8-0.2,1.6-0.5,2.5-0.7c1-0.2,2-0.2,3-0.3
		c0-0.2,0-0.5,0-0.7c-1-0.2-2-0.6-3-0.6c-3.3-0.2-3.5-0.4-3-3.9c-2.1,1.6-3.7,0.9-5.3-0.6c-2.6-2.5-5.2-5.1-8.4-8.1
		c1.7,3.4,3.1,6.1,4.5,8.9c0.5,1,1.2,2.2,1,3.2c-0.1,0.7-1.6,1.1-2.5,1.6c1.2,0.5,3.2,0.7,3.6,1.6c0.4,1.1-0.5,2.7-1,4.7
		c0.8-0.7,1.1-1,1.4-1.3c2.8-2.8,2.8-2.6,5.6-0.1C483.8,458.7,486.8,460.8,489.6,463z"/>
	<path class="st0" d="M610.3,367.1c-0.4,2.3-0.6,4.7-1.1,7c-0.5,2.2-1.2,4.3-2,6.4c-0.5,1.3-0.4,1.9,1.2,2.2c2.1,0.5,4.2,1.3,7,2.2
		c-0.7,0.6-1.3,1.3-2.1,1.5c-1.2,0.4-2.5,0.4-3.7,0.6c-3.2,0.4-5.3,2-6.1,5.3c-0.2,1-1.3,1.7-2,2.5c-0.5-0.9-1.2-1.7-1.5-2.6
		c-0.6-1.8-1-3.6-1.5-5.7c-2.1,0-4.1,0.1-6.2,0c-0.6,0-1.3-0.4-1.9-0.6c0.3-0.7,0.5-1.5,1-2c1.1-1.1,2.4-2.1,3.9-3.4
		c-1.8-1.4-3.4-2.6-5-3.9c-0.7-0.6-1.4-1.1-2-1.9c-0.3-0.4-0.4-1.3-0.2-1.7c0.2-0.3,1.1-0.5,1.6-0.3c2,0.6,3.9,1.5,5.8,2.2
		c4,1.4,5.3,0.9,7.9-2.4c1.2-1.6,2.6-3,4-4.4c0.6-0.6,1.4-0.9,2.1-1.4C609.8,366.8,610,367,610.3,367.1z M593.4,376.4
		c1.2,1.2,3,2.3,3.3,3.7c0.2,1.2-1.4,2.8-2.1,4.1c4.8,0.2,4.8,0.2,6.3,5.1c0.2,0.7,0.5,1.4,1,2.9c0.6-4.7,3.3-6.5,7.1-7.2
		c-4.7-2.2-4.6-2.2-2.7-7.3c0.8-2.3,1.2-4.7,1.9-7c-0.2-0.2-0.4-0.3-0.7-0.5C603.8,375.1,600.5,380.5,593.4,376.4z"/>
	<path class="st0" d="M491.3,383.2c1,0.2,2.1,0.3,3.2,0.7c1,0.4,1.9,1.1,2.9,1.7c-0.9,0.7-1.7,1.4-2.6,1.9c-0.8,0.4-1.7,0.6-2.6,0.6
		c-2.4,0-3.5,1.4-4.1,3.6c-0.6,2.3-1.4,4.5-2.1,6.7c-0.4,0-0.7,0-1.1,0c-1.1-3.6-2.2-7.2-3.5-11.2c-2.3,0-4.8,0.1-7.4,0
		c-0.8,0-1.6-0.5-2.4-0.8c0.3-0.7,0.5-1.6,1-2.1c1.1-1,2.4-2,3.7-2.6c2.4-0.9,2.7-2.4,1.7-4.4c-0.9-1.8-1.9-3.5-2.7-5.3
		c-0.3-0.8-0.1-1.8-0.2-2.7c0.9,0.2,2,0.2,2.6,0.7c2,1.5,4,3.2,5.7,5c1.1,1.2,2.1,1.6,3.4,0.5c1.1-0.9,2.2-1.9,3.4-2.6
		c0.8-0.5,1.9-0.6,2.9-0.9c0.1,0.8,0.5,1.7,0.3,2.5C493,377.1,492.2,379.9,491.3,383.2z M485.1,393.6c1.3-4.1,2.6-8.1,8.8-7.6
		c-4.9-2.1-4.9-2.1-3.2-6.5c0.6-1.5,0.7-3.1,1.2-5.1c-1.6,1-2.7,1.7-3.8,2.4c-2.2,1.4-4.1,1.5-5.9-0.9c-0.8-1.1-2.1-1.9-3.4-3
		c0.7,2.7,2.3,5.3,1.7,7.2c-0.5,1.8-3.3,3-5,4.5c0.5,0,1.2,0,1.8,0c4.4-0.1,5.1,0.4,6.4,4.6C484,390.8,484.6,392.2,485.1,393.6z"/>
	<path class="st0" d="M592.4,601.5c1.9-2.4,3.7-4.9,5.8-7.2c1.5-1.7,0.5-2.9-0.3-4.3c-0.8-1.4-1.6-2.9-2.4-4.3
		c0.2-0.3,0.5-0.6,0.7-1c1.8,0.5,3.7,0.8,5.3,1.7c2.6,1.3,4.2,0.7,5.3-1.9c0.4-0.9,0.9-1.8,1.6-2.5c0.5-0.6,1.3-1,2-1.4
		c0.4,0.8,1.1,1.5,1.2,2.3c0.1,2,0.1,4-0.2,5.9c-0.3,1.9,0.4,2.3,2.1,2.1c1.2-0.2,2.3-0.5,3.4-0.6c0.5,0,1.1,0.3,1.7,0.4
		c-0.3,0.6-0.4,1.4-0.9,1.7c-1.3,0.8-2.7,1.3-4.3,2.1c1.3,1.6,2.7,3.1,4,4.6c-0.2,0.3-0.3,0.7-0.5,1c-2.4-0.5-4.7-1-7.3-1.5
		c-0.2,2.7-0.4,5.6-0.7,8.4c-0.1,0.7-0.5,1.3-0.8,1.9c-0.7-0.3-1.7-0.4-2-0.9c-0.9-1.2-1.6-2.5-2.1-3.9c-0.7-2.1-1.1-4.3-1.7-6.7
		c-3.3,1.6-5.4,5.1-9.3,5.1C592.8,602.1,592.6,601.8,592.4,601.5z M612.4,592.7c-4.9-2.3-0.8-6.8-2.7-9.4c-1.6,1.8-2.9,4.6-4.9,5.2
		c-2,0.6-4.7-1-7.2-1.7c0.9,1.4,1.8,2.8,2.5,4.2c0.9,1.8,1,3.2-1.2,4.4c-1.4,0.8-2.2,2.5-3.3,3.7c0.2,0.2,0.4,0.3,0.6,0.5
		c1.5-1.1,3-2.2,4.5-3.4c1.7-1.4,2.8-0.9,3.4,1c0.6,2.1,1,4.2,1.6,6.2c0.3,0.9,0.7,1.7,1.1,2.6c0.6-1.5,0.6-2.7,0.8-4
		c0.6-5.6,0.6-5.6,5.8-4.8C613.4,595.7,609,595,612.4,592.7z"/>
	<path class="st0" d="M590.6,422.8c-0.3,2.8-0.5,5.7-0.8,8.5c-0.1,0.8-0.1,1.6-0.4,2.4c-0.2,0.5-0.8,0.8-1.2,1.3
		c-0.4-0.4-1-0.8-1.1-1.3c-0.8-2.9-1.4-5.8-2.2-8.8c-2.5,0.4-4.9,0.7-7.3,1c-0.2-0.2-0.4-0.5-0.6-0.7c0.9-1.2,1.6-2.6,2.8-3.4
		c3.3-2.2,3.4-5,1.9-8.2c-1.3-2.7-2.5-5.4-3.7-8.1c-0.3-0.7-0.2-1.6-0.3-2.5c0.8,0.3,1.8,0.3,2.3,0.8c2.8,2.9,5.5,5.8,8,8.8
		c2.2,2.7,3.2,2.9,6.1,1c1.1-0.7,2.3-1.2,3.4-1.8c0.2,0.3,0.5,0.6,0.7,0.8c-1.2,2.2-2.3,4.3-3.6,6.6c1.8,0.5,3.6,0.9,5.2,1.6
		c0.8,0.4,1.3,1.4,2,2.2c-0.8,0.4-1.7,1.1-2.5,1C596.5,423.8,593.7,423.3,590.6,422.8z M580.2,423.8c1.7-0.4,2.6-0.4,3.4-0.8
		c2-0.8,3.1-0.2,3.4,1.9c0.2,1.5,0.5,3,0.8,4.5c0.7-2,0.8-3.9,0.9-5.9c0.2-2.2,1.3-3,3.5-2.5c2.1,0.5,4.2,0.9,6.2,1.4
		c-1.5-0.9-3.7-1.1-4.6-2.2c-0.7-0.9,0.2-3.1,0.4-4.5c-3.8,1.4-5.3,0.8-8.2-2.9c-1.3-1.8-3-3.3-4.9-5.3c1.4,4.3,2.6,7.9,3.8,11.4
		C583.5,420.4,582.2,421.8,580.2,423.8z"/>
	<path class="st0" d="M650,342.1c1.5-0.8,2.8-1.5,4-2.2c0.2,0.2,0.5,0.3,0.7,0.5c-0.3,1.8-0.6,3.6-0.9,5.8c1.4,0.6,3,1.3,4.6,2.1
		c0.5,0.2,0.8,0.8,1.2,1.2c-0.4,0.4-0.8,0.9-1.4,1c-3.9,1.1-3.9,1.1-2.6,4.9c0.9,2.6,1.8,5.2,2.8,7.9c-3.1,0.2-3.5-0.1-9.8-8.9
		c-1.4,1.6-2.7,3.1-4.1,4.6c-0.4,0.4-1,0.4-1.6,0.6c-0.1-0.6-0.3-1.3-0.2-1.9c0.4-1.6,1-3.2,1.6-5c-0.9,0.1-1.5,0.2-2.1,0.2
		c-0.8,0-1.7-0.1-2.5-0.2c0.2-1,0.2-2.2,0.8-2.9c2.6-3.3,2.6-3.2-0.2-6.5c-1.1-1.3-1.9-2.9-2.9-4.4c0.3-0.2,0.5-0.4,0.8-0.7
		c1.8,0.8,3.5,1.6,5.8,2.6c0.4-1.6,0.6-2.9,1-4.2c0.3-1.2,0.8-2.4,1.2-3.7c0.4,0,0.8-0.1,1.1-0.1C648.2,336,649.1,339,650,342.1z
		 M654.8,359.6c0.5-3.6-4.8-7.3,0.6-10.6c-2.7-2-2.7-2-3.1-5.9c-3.5,1.7-3.8,1.5-4.6-2.6c-0.2-1.2-0.5-2.4-0.7-3.7
		c-0.6,1.6-0.7,3.4-1.7,4.3c-0.8,0.8-2.6,0.8-3.7,1c0.8,1.3,2.5,2.7,2.6,4.3c0.1,1.5-1.4,3-2.2,4.6c1-0.1,2.1-0.1,3.3-0.2
		c0.1,1.4,0.1,2.5,0.2,3.7c3.5-2.8,3.4-2.8,5.9,0.8C652.5,356.9,653.7,358.3,654.8,359.6z"/>
	<path class="st0" d="M671,362.5c2.2,2.5,4.4,5.1,6.6,7.7c1.3-1.4,2.7-2.9,4.1-4.3c0.3,0.1,0.6,0.3,0.9,0.4c-0.2,1.9-0.5,3.7-0.8,6
		c1.4,0.6,3.2,1.4,4.9,2.3c0.7,0.3,1.8,1.1,1.7,1.4c-0.2,0.7-0.8,1.6-1.5,1.9c-1.6,0.9-3.4,1.6-5.3,2.5c0.3,1.6,0.8,3.3,0.9,5.1
		c0.1,1-0.4,2-0.7,3c-0.8-0.6-1.9-1-2.4-1.8c-1.3-1.9-2.3-4-3.6-6.2c-2.1,2.1-1.9,5.8-5.9,7c0.2-3.4,0.3-6.4,0.4-9.3
		c-1.3-0.1-2.8,0-4-0.5c-1.6-0.6-1.8-1.8-0.1-2.7c1.7-0.8,3.5-1.4,5.5-2.2c-0.6-3.2-1.3-6.5-1.9-9.9
		C670.2,362.9,670.6,362.7,671,362.5z M680.3,370.1c-2.7,3.1-3.6,2.9-5.6-0.3c-0.7-1.1-1.5-2.1-2.2-3.2c-0.2,1.5-0.1,2.9,0.4,4.1
		c1,2.5,0,3.7-2.4,4.3c-1,0.3-2,0.8-3,1.2c0.5,0.4,0.8,0.4,1.2,0.3c3.3-0.7,4,0,3.5,3.2c-0.2,1.2-0.4,2.3-0.7,4.1
		c1.7-2.3,2.9-4,4.5-6.2c1.5,2.2,2.5,3.8,3.6,5.4c-1.6-5.7,4.1-4.5,6.2-6.6C683.6,374.5,679.1,375.1,680.3,370.1z"/>
	<path class="st0" d="M468.8,487.7c-2-2.9-3.8-5.5-5.6-8.1c0.2-0.2,0.3-0.4,0.5-0.6c1.8,0.5,3.7,0.9,5.5,1.6
		c3.4,1.3,3.9,1.2,6.1-1.7c0.7-0.9,1.7-1.5,2.9-2.5c0.4,2.8,0.8,4.9,1.1,7.2c1.6-0.8,2.7-1.6,4-2c0.7-0.2,1.5,0.1,2.3,0.2
		c-0.1,0.8,0,1.9-0.5,2.5c-1.1,1.2-2.5,2.1-4.3,3.5c3.4,2.4,6,4.2,8.5,6.1c0.6,0.5,1,1.2,1.5,1.8c-0.8,0-1.7,0.1-2.4-0.1
		c-3.3-1.3-6.7-2.7-10.3-4.1c-0.3,1.7-0.6,3.2-1,4.7c-0.2,0.6-1,1.1-1.5,1.6c-0.4-0.5-1-1-1.2-1.6c-0.7-2.1-1.2-4.3-1.9-6.8
		c-1.7,1.1-3.2,2.1-4.7,3c-0.4,0.2-1.1,0.1-1.6,0.2c0.1-0.6,0-1.2,0.3-1.7C467.1,489.6,468,488.6,468.8,487.7z M475.7,493.3
		c1-3.9,1.2-3.9,5.8-2.9c-1.7-2.4-1.7-2.4,0.5-5.7c-1.2-0.1-3,0.3-3.7-0.4c-1-0.9-1.2-2.7-1.7-4.4c-2.2,4.6-5.8,3.2-9.6,1.8
		c1.5,2.5,2.7,4.5,4,6.4c0.5,0,2-0.5,2.2-0.2C474.2,489.6,474.9,491.5,475.7,493.3z"/>
	<path class="st0" d="M492,435.8c-1-2.7-2.1-5.3-2.8-8c-0.5-1.7-1.3-2.2-2.9-2c-2.1,0.2-4.1,0.5-6.2,0.6c-0.6,0-1.4-0.4-1.8-0.8
		c-0.2-0.2,0.2-1.3,0.6-1.6c1-1,2.1-1.9,3.4-2.6c1.4-0.8,2-1.7,1.3-3.3c-0.9-2-1.9-3.9-2.7-5.9c-0.3-0.7-0.1-1.6-0.1-2.4
		c0.7,0.1,1.6,0.1,2.2,0.5c1.9,1.2,3.6,2.7,5.8,4.3c1-1.1,2-2.4,3.2-3.6c0.4-0.4,1.2-0.5,1.8-0.8c0.1,0.6,0.5,1.3,0.3,1.9
		c-0.5,2.1-1.1,4.2-1.8,6.7c4.6,1.5,9.1,3.1,14.5,4.9c-1.6,0.5-2.6,1-3.7,1.1c-2.9,0.5-5.9,0.7-8.8,1.2c-0.6,0.1-1.3,1.3-1.4,2.1
		c-0.2,2.6-0.1,5.1-0.1,7.7C492.5,435.7,492.2,435.7,492,435.8z M491.8,413.8c-4.1,4.8-5.8,0.1-8.9-1.7c1.9,4.6,6.1,9.1-1.6,11.7
		c3.1,0,5.8,0,8.4,0c0.5,2.3,0.9,4.5,1.4,6.7c0.6-0.8,0.6-1.5,0.6-2.1c0-3.6,0.5-4.1,4-4.2c1.5-0.1,3-0.4,4.8-0.6
		c-2.8-1.2-5.1-2.4-7.5-3.2c-1.7-0.6-2.1-1.5-1.8-3C491.3,416.4,491.5,415.5,491.8,413.8z"/>
	<path class="st0" d="M558.7,308.9c4,3.2,8,6.3,12.4,9.8c1.4-1.6,3.2-3.5,4.9-5.4c0.3,0.1,0.5,0.1,0.8,0.2c-0.1,1.4-0.1,2.9-0.4,4.2
		c-1.1,4.1-1,4.4,2.8,6.2c1.3,0.7,3.3,0.9,3,3.3c-3.6,0-7.2,0-11,0c-0.6,2.1-1.1,4.3-1.8,6.4c-0.2,0.5-0.9,0.9-1.3,1.4
		c-0.3-0.5-0.7-0.9-1-1.4c0-0.1,0-0.2,0-0.3c-1.7-5.4-1.7-5.4-7.4-5.2c-0.6,0-1.1-0.3-1.7-0.4c0.2-0.6,0.3-1.4,0.7-1.9
		c0.9-1.1,1.9-2.1,3-3.1c2-2,1.4-4,0.1-6c-1-1.6-2.1-3.2-3-4.8c-0.4-0.8-0.6-1.7-0.8-2.5C558,309.4,558.3,309.2,558.7,308.9z
		 M560.9,326.1c0.2,0.2,0.3,0.4,0.5,0.6c1.8,0,3.7,0,5.3,0c0.4,1.9,0.8,3.5,1.2,5c0.8-1.1,1.2-2,1.2-3c0.1-2.3,1.2-3.2,3.5-2.8
		c1.7,0.3,3.5,0,5.3,0c0.1-0.2,0.3-0.4,0.4-0.5c-4.1-1.4-5.2-4-3.6-7.9c-0.7,0.4-1.1,0.7-1.5,1.1c-2.6,2.6-3.1,2.5-5.6-0.1
		c-1.7-1.8-3.7-3.4-5.6-5c-0.2,0.1-0.4,0.3-0.7,0.4C564.9,318,566.1,322.2,560.9,326.1z"/>
	<path class="st0" d="M592.2,534c-0.5,1.8-0.9,3.6-1.5,5.3c-1,2.8-0.2,4,2.9,4.2c1.1,0.1,2.2,0.4,3.4,0.7c0,0.3,0,0.7,0,1
		c-2.1,0.4-4.2,0.8-6.5,1.2c0.3,3,0.7,6,1,9c-0.4,0.1-0.8,0.2-1.2,0.3c-1.4-2.4-2.7-4.7-4.2-7.2c-1.3,0.7-2.5,1.5-3.7,2.1
		c-0.5,0.3-1.5,0.5-1.7,0.3c-0.4-0.5-0.7-1.3-0.5-1.9c0.5-1.7,1.2-3.4,1.9-5.3c-2-0.5-3.9-0.9-5.8-1.4c-0.1-0.3-0.2-0.5-0.3-0.8
		c0.8-0.4,1.7-1.1,2.5-1.2c2.5-0.1,4.1-0.6,3.9-3.7c-0.1-2,0.2-4,0.5-5.9c0.1-0.7,0.5-1.3,0.8-2c0.3,0,0.5,0,0.8,0
		c0.8,2.8,1.6,5.6,2.5,8.9c1.7-1.5,3.1-2.7,4.5-3.9C591.7,533.8,591.9,533.9,592.2,534z M584,534.7c-0.5,2.4,0.8,5.5-2.8,6.8
		c5.5,1.6,0.3,4.6,1.3,6.9c2.7-2.5,4.9-1.7,6.1,1c0.2-1.7,0.5-3.5,0.8-5.7c-2.7-1-0.7-3.5-0.2-5.8C584.6,541,585.6,536,584,534.7z"
		/>
	<path class="st0" d="M525,405.4c-1.2-1.1-2.4-1.9-3.3-3c-0.5-0.6-0.6-1.6-0.9-2.4c0.8-0.1,1.7-0.4,2.5-0.3c1.2,0.2,2.4,0.6,3.9,1
		c0.9-1.6,1.7-3.3,2.7-4.9c0.3-0.5,0.9-1,1.4-1c0.4,0,1,0.8,1.1,1.3c0.2,1.5,0.4,3.1,0.3,4.6c-0.1,1.6,0.5,2.3,2.1,2.4
		c1.2,0,2.4,0.2,3.5,0.5c0.5,0.1,1.2,0.6,1.3,1.1c0.1,0.4-0.4,1.1-0.8,1.5c-0.9,0.7-4.9,5.9-5.3,6.9c-0.2,0.6-0.6,1.3-0.9,1.9
		c-0.3,0.1-0.6,0.1-0.9,0.2c-0.9-2-1.7-4-2.5-5.7c-1.7,0.5-3.4,1.1-5.1,1.3c-0.7,0.1-1.7-0.6-2.1-1.2c-0.2-0.3,0.5-1.4,0.9-2
		C523.4,406.7,524.3,406.1,525,405.4z M528.4,406.8c2.7-0.6,2.1,2.9,3.1,3.9c0.7-1.8,1.5-3.8,2.3-5.8c-0.5-0.4-2-1-2.6-2.1
		c-0.6-1.1-0.3-2.7-0.4-4.4c-1.9,2.5-2.8,6.1-6.9,3C525.5,403.4,526.8,404.9,528.4,406.8z"/>
	<path class="st0" d="M516.1,342.9c1.4,2.2,2.9,4.4,4.4,6.7c-0.1,0.2-0.3,0.5-0.4,0.7c-2.7-1.5-5.4-3.1-8.2-4.6
		c-0.8,1.4-1.5,2.7-2.3,4c-0.3,0-0.6-0.1-0.8-0.1c-0.2-1.2-0.6-2.5-0.6-3.7c0-1.6-0.7-2-2.2-1.8c-1.2,0.2-2.4,0.1-3.5,0.2
		c-0.1-0.3-0.3-0.6-0.4-0.9c1.4-1.4,2.7-2.8,4.5-4.6c-0.9-2.2-1.9-4.9-2.9-7.6c0.3-0.2,0.5-0.4,0.8-0.6c2.4,1.9,4.9,3.8,7.5,5.8
		c0.7-0.8,1.5-1.7,2.3-2.5c0.6-0.5,1.3-0.7,2-1.1c0.1,0.7,0.3,1.4,0.3,2.2c0,1.1-0.1,2.1-0.2,3.4c1.9-0.2,3.6-0.3,5.3-0.4
		c0.1,0.3,0.3,0.7,0.4,1C520.1,340.3,518.3,341.4,516.1,342.9z M509.9,345.5c2-4.8,3.8,0.5,6-0.2c-1.4-1.8-2.2-3.6-0.3-4.6
		c-0.5-1.5-1-2.8-1.5-4.2c-2.9,3.8-4.6-0.4-7.7-1.8c2.3,3.7,2.3,6.2-1.8,7.7C507.6,341.7,509.2,342.6,509.9,345.5z"/>
	<path class="st0" d="M632.8,621.1c-0.3-0.5-0.7-1-0.9-1.5c-0.5-1.4-1-2.7-1.5-4.1c1.5-0.4,3-1.2,4.3-1c2.3,0.3,3.7-0.4,4.9-2.3
		c0.4-0.6,1-1,1.6-1.4c1.9-1.2,3.6-0.5,3,1.6c-1.1,4.3,0.7,6.7,4.2,8.4c0.3,0.2,0.6,0.4,1.2,0.7c-2.6,2.8-5.6,2.3-8.6,2.6
		c-0.3,1.9-0.6,3.8-1.1,5.7c-0.2,0.7-1,1.3-1.5,2c-0.6-0.6-1.5-1.1-1.8-1.8c-0.6-1.2-0.8-2.6-1.2-4c-1,0.7-1.8,1.5-2.9,1.9
		c-0.9,0.3-2.3,0.3-2.8-0.3c-0.5-0.5-0.4-2.1,0.1-2.8C630.6,623.5,631.7,622.4,632.8,621.1z M647.5,622c-1.1-0.8-1.5-1.3-2.1-1.5
		c-2.6-1-4-2.6-2.8-5.6c0.3-0.8,0-1.9,0-2.8c-0.2-0.2-0.4-0.4-0.6-0.6c-1.7,4.9-5.8,5-10.5,5c1.6,2,2.6,3.3,3.7,4.6
		c-1.5,1.6-3.2,3.4-4.8,5.2c0.2,0.2,0.4,0.5,0.7,0.7c1.1-0.8,2.2-1.7,3.3-2.4c0.5-0.4,1.4-0.9,1.8-0.7c0.5,0.2,0.8,1.1,1,1.8
		c0.3,1.3,0.4,2.7,0.7,4c0.3,0,0.5,0,0.8,0c0.3-1.7,0.3-3.5,0.8-5.1c0.2-0.8,1.2-1.6,1.9-1.8C643.2,622.2,645,622.2,647.5,622z"/>
	<path class="st0" d="M578.7,563.3c-1.4-0.1-2.9,0-4.2-0.4c-1.7-0.5-2.3,0.2-2.7,1.7c-0.4,1.3-1,2.5-1.6,3.8c-0.3-0.1-0.6-0.1-1-0.2
		c-0.3-1.1-0.6-2.2-0.8-3.3c-0.3-2.7-1.5-4.5-4.1-5.3c-0.5-0.2-0.9-0.9-1.3-1.4c0.5-0.3,0.9-0.9,1.4-1c3.5-0.5,4.6-2.4,4.1-5.8
		c-0.1-0.9,0.5-2,0.8-3c0.3,0,0.7,0,1,0c0.7,1.8,1.5,3.7,2.3,5.8c1.3-1.1,2.6-2.1,3.8-3.2c0.3,0.2,0.6,0.3,0.9,0.5
		c-0.5,1.8-0.8,3.7-1.6,5.2c-0.9,1.7-0.7,2.5,0.9,3.4c1,0.6,1.7,1.5,2.6,2.3C579.2,562.7,578.9,563,578.7,563.3z M566.4,558.6
		c4,0.4,2.2,3.9,3.8,6.2c0.3-2.7,1.3-4.4,3.6-3.9c0-1.8,0-3.5,0-5c-1-0.4-2.3-0.9-3.6-1.4C570.6,556.7,569.2,558,566.4,558.6z"/>
	<path class="st0" d="M625.9,406.8c-5.5-11-11.4-50.9-7.7-54.6c-0.2,18.5,4.2,36.2,8.5,54C626.7,406.2,626.3,406.4,625.9,406.8z"/>
	<path class="st0" d="M639.4,391.7c-0.8-1.8-1.3-2.8-1.8-3.8c-0.4-1-0.8-2-1.1-2.8c-1.9,0.2-3.7,0.6-5.4,0.6c-0.7,0-1.3-1-2-1.5
		c0.6-0.6,1.1-1.4,1.8-1.7c1.2-0.6,2.5-0.8,3.9-1.3c-1-1.8-1.8-3.3-2.7-4.9c0.2-0.3,0.4-0.5,0.7-0.8c1.8,0.9,3.5,1.7,5.6,2.7
		c0.8-1.3,1.7-2.6,2.6-4c0.3,0,0.5,0,0.8,0c0.2,1.3,0.6,2.6,0.5,3.8c-0.4,2.7,0.6,3.9,3.3,3.7c0.5,0,1.1,0.4,2.5,0.9
		c-1.6,1-2.5,1.9-3.6,2.1c-2.4,0.5-3.4,1.9-3.8,4.2C640.5,389.6,640,390.3,639.4,391.7z M642.6,382.9c-2.5-0.1-2.1-2.3-2.2-3.9
		c-1.5,0.3-2.8,0.5-4.2,0.8c1.6,4.6-3.5,2.3-4.6,4.8c3.7-2,6.5-1.7,7.2,2.4C640.1,385.6,641.3,384.4,642.6,382.9z"/>
	<path class="st0" d="M545.6,571.3c-1.6,0.7-3,1.3-4.8,2c0.1-1.1-0.1-1.7,0.1-2c1.5-2.2,0.8-4-0.6-5.9c-0.6-0.8-0.5-2-0.7-3.1
		c1.2,0.1,2.4,0.1,3.6,0.3c1.1,0.1,2.4,0.7,3.4,0.4c3.2-0.9,3.4-0.9,3.5,2.4c0,0.5,0.1,1.1,0.1,1.8c1.1,0.1,2.2,0,3.2,0.3
		c0.6,0.2,1,0.9,1.5,1.4c-0.5,0.4-1.1,1.2-1.6,1.2c-3-0.4-3.1,1.6-3.3,3.7c0,0.6-0.2,1.3-0.4,1.8c-0.2,0.4-0.7,1.1-1,1.1
		c-0.5-0.1-1.1-0.6-1.3-1C546.6,574.2,546.1,572.7,545.6,571.3z M541.2,563.1c1.1,2.7,1.9,4.7,2.7,6.7c3.6-2.5,2.9,1.9,4.2,3.1
		c2.1-2.9,0.3-5.7,0.3-9C546,566,543.8,565.1,541.2,563.1z"/>
	<path class="st0" d="M553.4,601.7c-1,0.1-1.8,0.4-2.4,0.2c-0.5-0.2-1.2-1.3-1.1-1.4c1.3-1.9,0.6-3.3-0.5-4.9
		c-0.3-0.4-0.6-1.3-0.3-1.6c0.3-0.4,1.2-0.6,1.7-0.5c2.2,0.9,3.3-0.3,4.3-2c0.5-0.8,1.6-1.2,2.4-1.8c0.2,1,0.6,2,0.4,2.9
		c-0.5,1.7,0.4,2.2,1.7,2.8c0.8,0.4,1.4,1.1,2.1,1.7c-0.7,0.4-1.4,1.1-2.2,1.2c-1.8,0.2-2.2,1.2-2.1,2.8c0.1,0.5,0,1.1-0.3,1.6
		c-0.3,0.7-0.8,1.3-1.2,1.9c-0.7-0.5-1.3-1-1.9-1.6C553.7,602.7,553.7,602.2,553.4,601.7z M557.2,596c-0.2-0.3-0.9-1.3-1.3-1.9
		c-1.4,0.6-2.7,1.1-3.9,1.5c0.2,1.2,0.4,2.4,0.6,3.7c0.8,0.4,1.8,0.9,2.5,1.2C555.7,599.3,556.4,597.9,557.2,596z"/>
	<path class="st0" d="M593.9,395.5c1.4-0.8,2.4-1.5,3.4-2.1c0.2,0.2,0.4,0.4,0.6,0.6c-0.5,1.1-1,2.2-1.5,3.4
		c0.9,1.2,1.8,2.4,2.8,3.7c-0.1,0.3-0.2,0.5-0.3,0.8c-1.9-0.3-3.8-0.6-5.9-1c-1.1,1.4-2.2,3-3.4,4.5c-0.2-0.1-0.5-0.3-0.7-0.4
		c0-1.6,0-3.1,0-4.8c-0.8-0.2-1.4-0.3-2-0.6c-0.4-0.2-0.8-0.6-1.1-1c0.4-0.4,0.7-1.1,1.2-1.2c2.6-0.3,2.9-1.9,2.4-4
		c-0.1-0.6-0.1-1.3,0-1.9c0.1-0.5,0.4-0.9,0.6-1.4c0.5,0.3,1.3,0.4,1.5,0.8C592.3,392.3,593,393.8,593.9,395.5z M595.7,399.2
		c-1.5-1.4-3.1-2.8-4.7-4.3c-0.3,2.1-0.7,4.1-1,6c0.2,0.1,0.4,0.2,0.7,0.3C591.7,398.9,593.3,398.5,595.7,399.2z"/>
	<path class="st0" d="M672.3,324c-0.5,1.8-0.9,3.3-1.3,4.9c-1.1-0.7-2.1-1.4-3.4-2.2c-0.6,0.4-1.6,1.1-2.7,1.8c-1.1-2.7,2-6-2-7.1
		c0.1-0.5,0.1-0.8,0.2-0.9c2.7-1.1,5.6-1.8,6.4-5.2c0.5,0.3,1.4,0.6,1.5,1.1c0.2,1,0.1,2.1,0.1,2.5c1.7,1.4,2.9,2.3,4.1,3.3
		C674.1,322.8,673,323.5,672.3,324z M666.1,321.4c0.2,2.3,1.8,3.1,3.4,3.5c0.6-1.2,1.1-2.2,1.7-3.3c-0.5-0.4-1.3-1.1-1.9-1.6
		C668.1,320.5,667.1,320.9,666.1,321.4z"/>
	<path class="st0" d="M521.2,511.3c-0.2,1.4-0.1,2.1-0.4,2.7c-1.4,2.8-0.3,4.1,2.5,4.5c0.8,0.1,1.5,0.8,2.2,1.2
		c0,0.3-0.1,0.5-0.1,0.8c-1.7,0.3-3.4,0.6-5.1,0.9c-0.4,1.4-0.7,2.8-1.2,4.5c-0.8-0.5-1.4-0.7-1.4-1c-0.6-2.3-1.7-3.5-4.3-2.6
		c-0.4,0.1-1-0.5-1.5-0.7c0.5-0.9,1-1.9,1.7-3.1c-0.6-0.7-1.5-1.8-2.4-2.9c0.1-0.2,0.2-0.4,0.3-0.7c1.7,0.1,3.6,0.8,5.1,0.3
		C518.2,514.6,519.3,512.9,521.2,511.3z M518,521.2c0.8-0.7,1.5-1.4,2-1.9c-0.7-0.9-1.4-1.9-2.1-2.8c-0.8,0.2-1.8,0.4-2.6,0.6
		c0,1.2,0,2.3,0,3.4C516.1,520.6,517.1,520.9,518,521.2z"/>
	<path class="st0" d="M82.5,379.1c-0.1,1.8,0.1,3.6-0.3,5.3c-1.3,6.6-2.8,13.1-4.1,19.6c-0.4,2.1-0.7,4.3-0.7,6.4
		c-0.2,11-0.5,21.9-0.5,32.9c0,6.8,0.7,13.7,0.4,20.5c-0.4,10.6,1.4,20.9,2.1,31.4c0.5,7,1.9,13.7,4.5,20.1c1.1,2.6,2.4,5.1,4,8.6
		c-1.3-0.8-2.2-1.1-2.6-1.7c-4.4-7.7-7.5-15.8-8.1-24.8c-0.4-5.7-1.5-11.4-1.9-17.1c-0.4-4.8-0.1-9.7-0.2-14.5
		c-0.1-5.6-0.5-11.2-0.6-16.8c-0.1-4.5,0.1-9,0.2-13.5c0-0.5,0.3-1,0.4-1.6c0.2-4.6,0.9-9.3,0.5-13.8c-1.1-10.6,2.1-20.6,4.2-30.7
		c0.6-2.7,0.9-5.5,1.4-8.2c0.1-0.7,0.4-1.5,0.6-2.2C82.1,379,82.3,379.1,82.5,379.1z"/>
	<path class="st0" d="M100,659.8c5.5,15,6.8,30.5,5.7,46.1c-1.5,20.6-5.4,40.8-14.5,59.9c0.2-1.8,0.3-3.6,0.8-5.3
		c1.8-6.2,4.2-12.4,5.6-18.7c1.8-8.1,3.1-16.3,4.3-24.6c0.9-6.2,1.8-12.5,2.1-18.8c0.2-5.7,0-11.4-0.7-17.1
		c-0.8-6.8-2.3-13.6-3.5-20.4C99.8,660.7,99.9,660.2,100,659.8z"/>
	<path class="st0" d="M61.8,335.3c0.1,1.2,0.5,2.6,0.3,3.7c-2.1,8.9-4.4,17.8-6.4,26.8c-2.7,12.3-5.1,24.7-8,36.9
		c-2,8.5-4.5,16.9-6.8,25.3c-0.4,1.4-1.2,2.6-2.2,3.7C47.8,400,51.4,367.1,61.8,335.3z"/>
	<path class="st0" d="M159.3,783.4c-16.5-7-35-33.7-34.8-40.6c5.1,7.3,9.7,15.2,15.6,22C145.9,771.6,152.9,777.3,159.3,783.4z"/>
	<path class="st0" d="M168,745c-0.6-0.3-1.3-0.4-1.8-0.8c-6.4-4.6-11.1-10.7-14.8-17.6c-4.4-8.1-8.7-16.2-13-24.4
		c-0.7-1.4-1.2-3-1.6-4.5c-0.1-0.5,0.1-1,0.2-2.1c9.2,17.6,17,35.3,31.4,48.8C168.2,744.6,168.1,744.8,168,745z"/>
	<path class="st0" d="M56.9,710.9c1.6,18.7,12.6,32.5,17,43.6c-1.7,0.3-1.8,0.2-2.9-2c-3-6-5.7-12.1-9.1-17.9
		c-3.4-5.9-4.5-12.4-5.7-18.8C56,714.3,56.7,712.6,56.9,710.9z"/>
	<path class="st0" d="M127.5,717.6c6.4,14.8,16.3,27,27.9,38.1c-0.1,0.2-0.3,0.4-0.4,0.6c-1.3-0.8-2.8-1.5-3.9-2.5
		c-9.7-9.4-18.1-19.8-23.5-32.3c-0.5-1.1-0.6-2.3-0.9-3.5C127,717.8,127.2,717.7,127.5,717.6z"/>
	<path class="st0" d="M117.6,784.2c1.2-12.5-2.3-24.2-4.9-36.3C117,750.5,120.6,777.2,117.6,784.2z"/>
	<path class="st0" d="M262.8,563.1c-1.1-5.8,5.1-11.2,13.9-11.4c4.6-0.1,10.4,3.9,10.4,10.9c0,6.4-5.9,12-13.1,12.1
		C267.9,574.7,262.9,569.4,262.8,563.1z M264.4,562.8c0,5.4,4,9.7,9.2,9.7c6.3,0,11.5-4.4,11.5-9.8c0-5.2-3.8-9.5-8.5-9.3
		C269.3,553.8,264,557,264.4,562.8z"/>
	<path class="st0" d="M313,500.8c1.5,0.3,2.2,0.7,3,0.6c1.5-0.2,3-0.8,4.5-1c2.8-0.4,4.8-2,7-3.6c0.5-0.3,1.8,0.4,2.8,0.7
		c1.7-1.6,3.5-3,6.1-1.1c0.4,0.3,1.8-0.7,2.7-1.1c1.2-0.5,2.3-1.1,3.5-1.4c1.6-0.3,3.3-0.2,4.9-0.6c3.2-0.8,6.3-1.9,9.4-2.9
		c0.2,0.2,0.4,0.4,0.5,0.6c-1,0.7-1.9,1.7-3,2.1c-2,0.8-4.1,1.2-6.1,1.8c-0.8,0.2-1.5,0.8-2.3,0.8c-2.9,0-5.7,0.1-7.9,2.5
		c-0.4,0.4-1.8,0.6-2.2,0.2c-1.8-1.5-2.9-0.8-4.5,0.4c-0.8,0.6-2.4,0.3-3.6,0.4c-0.1-0.2-0.2-0.5-0.3-0.7c-0.6,0.7-1.1,1.4-1.8,2
		c-0.6,0.5-1.3,1.3-1.9,1.3c-3.3-0.1-6.4,3.1-9.8,0.5C313.7,502.3,313.6,501.9,313,500.8z"/>
	<path class="st0" d="M282.9,421.4c-1.7,0.2-3,0-3.7,0.5c-2.4,1.7-4.6,2.1-7.2,0.3c-1.6-1.1-3.3-1.1-5,0.1c-1.7,1.3-3.5,1.2-5.2-0.1
		c-1.9-1.4-3.7-1.8-6-0.3c-1,0.7-2.8,0.6-4,0.2c-2.9-0.8-5.6-1.6-8.7-0.9c-1.9,0.4-4-0.4-6-0.6c-0.1-0.3-0.1-0.6-0.2-0.9
		c0.9-0.2,1.8-0.7,2.7-0.7c1.5-0.1,3,0.1,4.5,0.2c2.7,0.3,5.5,0.8,8.2,1.1c0.9,0.1,2.1,0.3,2.7-0.2c2.8-2.2,5.4-1.5,8,0.3
		c1.2,0.8,2,1.2,3.3,0.1c1.9-1.5,4.3-1.8,6.3-0.3c2.4,1.8,4.3,1.5,6.5-0.1c0.7-0.5,2-0.7,2.9-0.5C282.4,419.8,282.7,421,282.9,421.4
		z"/>
	<path class="st0" d="M318.5,551.3c-0.1,4.5-3.4,8.1-7.8,8.5c-4.9,0.4-10-2.8-10.7-6.9c-0.4-1.9,1.4-5.2,3.6-6.2
		c3.2-1.6,6.7-2.1,10.3-1.4C316.6,545.8,318.6,548.5,318.5,551.3z M308.9,557.7c0.7,0,1.2,0,1.8,0c3.2-0.2,6-3.3,6-6.6
		c0-2.6-2.6-4.6-6.1-4.3c-1.9,0.1-3.9,0.8-5.8,1.3c-2.9,0.8-4,4-2.2,6.3C304.2,556.6,306.2,557.9,308.9,557.7z"/>
	<path class="st0" d="M215.4,454.8c-0.2,1.7-0.4,2.9-0.6,4.5c-1.7-0.4-1.9-1.6-1.4-3.1c0.8-2.6,2-3.1,5.2-2c3.2-4.8,4-5.1,7.9-2.7
		c2.2-1.2,2.8-6.8,7.1-3.2c5-3.3,8.7-3.1,11.9,1.4c-0.9-0.2-1.8-0.3-2.6-0.7c-2.7-1.4-5.3-2.3-7.7,0.7c-0.4,0.5-2,0.5-2.7,0
		c-1.4-1-2-0.5-2.8,0.7c-0.6,0.9-1.2,1.9-2,2.5c-0.6,0.4-2.1,0.5-2.5,0.1c-2.1-1.9-3.2-0.8-4.2,1c-0.2,0.4-0.4,0.8-0.6,1.2
		c-0.7,1.8-1.7,2.2-3.1,0.6C216.9,455.5,216.4,455.4,215.4,454.8z"/>
	<path class="st0" d="M259.5,461.7c-2.1,1.2-3.6,2.1-5.2,2.9c-0.6,0.3-1.3,0.4-2,0.5c-1.8,0-2.9,0.8-4.3,2.1c-2,1.8-3.9,2.9-3.7,5.9
		c0,0.3-1.4,0.5-1.8,1c-0.4,0.6-0.7,1.6-0.4,2.2c0.6,1.3,1.3,2.7,2.4,3.7c1.1,1,2.6,1.4,3.9,2.1c-2.2,1.9-4.2,1.5-5.6-1.1
		c-0.6-1.1-1.3-2.1-2-3c-1.6-2-1.3-3.7,0.7-5.3c0.6-0.5,0.9-1.5,1.4-2.3c0.8-1.1,1.6-2.2,2.5-3.3c0.5-0.6,1.1-1,1.7-1.6
		c0.6-0.5,1.1-1.4,1.8-1.5c2.9-0.5,5.5-1.4,7.9-3.4C258.1,459.2,259.2,460.6,259.5,461.7z"/>
	<path class="st0" d="M207.5,537.6c3.7-4.9,9.1-4.1,11.7,1.3c1.7-0.2,3.4-0.7,5-0.5c1.5,0.2,3,1.2,4.5,1.8c0.9,0.4,1.9,1.1,2.7,0.8
		c4-1.1,7.3-0.2,10,3.5c-0.9-0.1-2,0-2.6-0.5c-2.5-2.2-5.1-1.8-7.9-1.1c-0.9,0.2-2.7-0.1-2.9-0.7c-1.3-2.8-3.7-2.5-5.8-2
		c-2.7,0.7-4.5,0.8-5.6-2.5c-0.7-2-2.8-2.2-4.8-1.6C210.2,536.7,208.9,537.2,207.5,537.6z"/>
	<path class="st0" d="M226.2,498.9c-2.1,0.4-4.2,1.1-5.6-1.3c-0.2-0.3-1.3-0.2-2-0.1c-1.8,0.2-2.7-0.6-2.8-2.4
		c-0.4-5,1.3-6.8,6.5-6.2c-2.4,1.8-7.2,2-3.9,5.9c1.3,0.6,2.6,1.3,4,1.9c0.6,0.3,1.3,0.6,2,0.5c2.1-0.3,3.5,0.3,4.4,2.2
		c0.3,0.5,1.6,1.2,1.9,1c2.6-1.8,4.7,0.4,7.1,0.5c0,0.3,0.1,0.6,0.1,0.9c-0.8,0.2-1.6,0.4-2.4,0.4c-1.5,0-3-0.4-4.3-0.1
		C228.3,502.9,227.4,500.8,226.2,498.9z"/>
	<path class="st0" d="M133.5,505.4c3.1-0.9,6.2-2.2,9.4-2.6c1.5-0.2,3.6,0.8,4.6,2c1.3,1.5,2.3,2.6,4.4,2.6c3,0.1,2.8,2.8,3.7,4.8
		c5.2-1.9,5.8,3.8,9.3,5.4c-2.2,1.4-3.2-0.1-4-1.2c-1.4-1.9-2.5-3.9-5.4-2.5c-0.3,0.1-1.6-1.1-1.7-1.8c-0.5-2.7-1.9-3.7-4.6-3.1
		c-0.6,0.1-1.7-0.5-1.9-0.9c-1-4-3.5-4.6-7.6-3.3c-1.7,0.5-3.3,1.3-5,2c-0.2,0.1-0.6-0.1-0.9-0.2
		C133.7,506.1,133.6,505.7,133.5,505.4z"/>
	<path class="st0" d="M298.5,575.1c3.9,0,7.9,3.5,8,7c0.1,3.4-4.9,7.2-9.5,7.1c-2.9,0-5.8-3.5-5.9-7.1
		C291.1,579.3,295.4,575.1,298.5,575.1z M297.2,587.7c3.6,0,7.9-3,7.8-5.4c0-2.5-3.5-5.3-6.5-5.4c-2.5-0.1-5.8,3-5.8,5.4
		C292.7,585.1,294.8,587.7,297.2,587.7z"/>
	<path class="st0" d="M378.9,511.2c-0.8,0.3-1.4,0.6-2,0.9c-1.9,0.7-3.3,1.7-3,4.2c0.2,2-0.7,3.6-2.5,4.8c-1.1,0.7-2.1,1.9-2.8,3.1
		c-1.6,2.6-3.6,3.2-5,1.9c1.3-1.6,2.6-3.1,3.9-4.6c0.4-0.4,0.7-0.9,1.1-1.1c2.1-1.2,3.2-2.7,3.2-5.4
		C372,511.6,376.2,509.5,378.9,511.2z"/>
	<path class="st0" d="M281.1,587.7c2.3-0.1,4.8,2.4,5,4.9c0.1,2.8-1.8,4.8-4.6,4.9c-2.3,0.1-4.5-2.3-4.6-4.8
		C276.8,589.9,278.7,587.7,281.1,587.7z M284.2,592.7c0-1.8-1.9-3.8-3.4-3.3c-1,0.4-2.4,2.1-2.2,3c0.3,1.3,1.6,2.9,2.8,3.2
		C283.1,596.1,284.3,594.7,284.2,592.7z"/>
	<path class="st0" d="M303.7,601.6c0,2.3-2,4-4.8,4.1c-2.2,0.1-4.5-2-4.5-4.2c0-2.3,1.9-4,4.9-4
		C301.8,597.5,303.7,599.2,303.7,601.6z M302.4,602c0-0.4,0-0.8,0-1.2c-1.2-0.5-2.3-1.6-3.5-1.5c-1,0.1-1.9,1.3-2.8,2.1
		c1,0.9,1.9,2.3,3,2.4C300.1,603.9,301.2,602.6,302.4,602z"/>
	<path class="st0" d="M279.5,601.9c2.9,0,5.1,1.5,5,3.5c-0.1,2.5-3.1,5.2-5.8,5.2c-2.2,0-4.1-1.7-4.1-3.8
		C274.8,604.3,277.2,601.8,279.5,601.9z M282.9,604.6c-1-0.3-2.2-0.9-3.5-1c-2-0.1-3.3,1.3-3.1,3.1c0.1,0.8,1.5,1.9,2.5,2
		C280.7,609.2,282.9,607,282.9,604.6z"/>
	<path class="st0" d="M360.8,519c-1.9,1.3-3.5,2.1-4.8,3.2c-1.2,0.9-2,2.2-4,1.3c-0.7-0.3-2.2,0.7-3.1,1.4c-0.9,0.7-1.6,1.7-2.7,2.9
		c-0.4-3,3.3-7.2,5.5-6.5c2.2,0.6,2.8-0.7,4.1-1.7c1-0.7,2.1-1.4,3.3-1.6C359.6,517.9,360.4,518.7,360.8,519z"/>
	<path class="st0" d="M287.4,619.2c-0.7-0.7-2.5-1.7-3.2-3.3c-0.6-1.4,3-4.4,4.7-4.3c2.1,0.1,3.8,2.1,3.7,4.2
		C292.5,617.9,290.7,619.3,287.4,619.2z M288.8,618.4c1-1.2,1.6-2.1,2.3-2.9c-0.8-0.6-1.7-1.8-2.4-1.6c-1.1,0.2-2,1.3-3,2
		C286.6,616.6,287.5,617.3,288.8,618.4z"/>
	<path class="st0" d="M286.9,517.8c1.9-3.2,3.7-3.2,7.9-0.7c1.6-1.8,3.5-1.6,5.2-0.2c0.4,0.3,0.6,1,0.8,1.5
		c-0.5,0.1-1.3,0.6-1.6,0.4c-1.4-1.1-2.6-0.8-3.9,0.1c-0.3,0.3-1.3,0.3-1.5,0C291.9,516.8,289.5,516.8,286.9,517.8z"/>
	<path class="st0" d="M287.1,634.1c-3,0-4.3-1.2-4.4-3c-0.1-1.9,1.3-3.1,3.3-3.1c1.9,0,3.6,1,3.4,2.9
		C289.1,632.1,287.6,633.3,287.1,634.1z M287.9,631.4c0-0.5,0-1,0-1.4c-0.9-0.1-1.8-0.2-2.6-0.3c-0.1,0.8-0.2,1.6-0.2,2.4
		C286,631.9,286.9,631.7,287.9,631.4z"/>
	<path class="st0" d="M749.6,900.9c-1.3-0.8-2.7-1.4-3.9-2.4c-6.6-5.2-13.4-10.3-19.6-15.9c-5.3-4.8-10.2-10.1-15.1-15.3
		c-11.3-12-22.8-23.9-33.8-36.2c-17.2-19.4-32-40.6-44.1-63.6c-8-15-15.4-30.2-21.6-46c-1.6-4.1-2.7-8.4-4-12.6
		c-0.1-0.4,0.1-0.8,0.7-1.4c0.4,0.8,1,1.5,1.3,2.4c4.1,14.7,11,28.3,17.8,41.9c6,11.9,12.5,23.6,19.7,34.8
		c7.6,11.8,15.7,23.4,24.9,34c14.2,16.5,29.4,32.2,44.3,48c5.9,6.3,12.1,12.3,18.4,18.1c5,4.7,10.4,8.9,15.7,13.3
		C749.9,900.3,749.7,900.6,749.6,900.9z"/>
	<path class="st0" d="M641.4,668c0.6,1,1.4,1.9,1.7,3c6.1,17.5,11.9,35.1,20.5,51.6c6.7,12.8,13,25.7,20.1,38.3
		c4,7.1,9.1,13.5,13.8,20.2c0.3,0.4,0.8,0.8,1,1.3c0.2,0.6,0,1.3,0,1.9c-0.6-0.1-1.3-0.1-1.7-0.5c-1.2-1.1-2.2-2.4-3.2-3.7
		c-11.9-14.6-20.1-31.4-28.5-48.1c-8.3-16.4-15.4-33.4-20.6-51c-0.9-3-1.8-6.1-2.6-9.1c-0.3-1.2-0.7-2.3-1-3.5
		C640.9,668.3,641.2,668.2,641.4,668z"/>
	<path class="st0" d="M632.2,791.4c10.8,36.1,30.7,67.6,49.6,100c-0.9-0.7-2-1.3-2.6-2.2c-5.6-8.4-11.5-16.6-16.5-25.2
		c-10.9-18.9-21.2-38.2-27.9-59.1c-1.2-3.8-2.4-7.6-3.5-11.4c-0.2-0.5,0-1.1,0-1.7C631.7,791.6,631.9,791.5,632.2,791.4z"/>
	<path class="st0" d="M141,140.8c-2.7-0.4-5.4-0.8-8-1.3c-0.8-0.2-1.8-0.9-1.9-1.6c-0.1-0.6,0.6-1.7,1.2-2c3.2-1.7,6.5-3.6,9.9-4.9
		c2.7-1,4.1,0.2,4.5,3.1C147.3,138.8,145.8,140.7,141,140.8z M141.5,134.4c-2.3,0.9-4.4,1.8-6.5,2.6c0,0.2,0,0.4,0.1,0.6
		c2.3,0.2,4.6,0.3,6.9,0.5C141.8,136.7,141.7,135.7,141.5,134.4z"/>
	<path class="st0" d="M145.4,155.6c1.3,2.1,2.3,3.8,3.4,5.5c-0.1,0.2-0.2,0.5-0.4,0.7c-0.8-0.4-1.7-0.7-2.2-1.3
		C145.1,159.1,144,157.7,145.4,155.6z"/>
	<path class="st0" d="M528.4,159c-0.9,1-1.5,1.6-2.1,2.3c-0.6-1-1.5-1.9-1.8-3c-0.1-0.5,1-1.3,1.6-1.9
		C526.8,157.1,527.4,157.9,528.4,159z"/>
	<path class="st0" d="M334,161.9c0.2,0.9,0.5,1.7,0.5,2.6c0.3,6.5,0.6,13,0.7,19.5c0,1.4-0.7,3.4-1.7,4c-1.4,0.8-3.4,0.5-5.2,0.6
		c-0.1-0.4-0.2-0.8-0.2-1.2c0.8-0.3,1.6-0.8,2.4-1c1.7-0.3,2.1-1.1,2.1-2.8c-0.1-6-0.1-12.1,0-18.2c0-1.2,0.4-2.4,0.6-3.6
		C333.5,161.9,333.8,161.9,334,161.9z"/>
	<path class="st0" d="M294.6,151.1c1.6-2.6,8.3-3.1,15.1-1.6c6.5,1.4,13.1,5.8,13.5,9.5C314.8,151.6,305.1,150.2,294.6,151.1z"/>
	<path class="st0" d="M309.2,173.3c0.6,0.2,1.1,0.4,1.5,0.6c3.6,1.6,7.2,3.2,10.7,4.8c0.7,0.3,1.1,1.1,1.7,1.7
		c-0.6,0.4-1.3,1-1.9,1.1C317.1,181.7,310.8,177.4,309.2,173.3z"/>
	<path class="st0" d="M351.5,175.4c-3.4,3-6.7,5-10.8,5.3c-0.7,0-1.5-1-2.2-1.5c0.5-0.7,0.8-1.8,1.4-1.9c3.4-0.9,6.8-1.5,10.2-2.3
		C350.4,175,350.6,175.1,351.5,175.4z"/>
	<path class="st0" d="M351.3,149.5c-5,3.2-10,6.4-15.1,9.7C337.3,155.7,345.8,149.8,351.3,149.5z"/>
	<path class="st0" d="M307.1,167.7c4.3-3.6,15.2-0.2,16.7,5.7C318.9,168.3,313.3,167.3,307.1,167.7z"/>
	<path class="st0" d="M335.6,196.8c-4.2,0-8.5,0-13.1,0c1.4-1.9,10.8-2.2,13.1-0.8C335.6,196.3,335.6,196.5,335.6,196.8z"/>
	<path class="st0" d="M329.4,430c2.2-1.8,4.2-0.8,6.2,0.2c0.8,0.4,1.8,1,2.6,0.9c2.5-0.2,3.8,1.2,4.2,3.3c0.3,1.8,1.1,2.4,2.9,2.3
		c0.8,0,1.7,0.8,2.5,1.2c-0.8,0.1-1.7,0.3-2.5,0.4c-3,0.6-4.2-1-4.7-3.7c-0.1-0.6-1-1.7-1.2-1.6c-3.3,1.2-5-2.1-7.6-2.7
		C330.9,430.2,330.2,430.1,329.4,430z"/>
	<path class="st0" d="M294.7,354.7c8.1-2.8,14.7-7.5,18.8-15.9c-1.6,1.1-2.8,1.7-3.8,2.6c-3.4,3.1-7.5,4.9-12,5.9
		c-4.2,0.9-8.2,2.5-10.6,6.4c-0.2,0.4-0.6,0.7-1,0.9c-0.1,0.1-0.3,0-1,0.1c0.3-1,0.4-1.9,0.8-2.6c2.1-3.7,5.8-5.2,9.6-6.2
		c5.5-1.5,10.5-3.8,14.9-7.4c0.4-0.3,0.9-0.8,1.4-0.8c1.1-0.1,2.2-0.1,3.3-0.1c-0.1,1,0.1,2.1-0.4,2.9c-3.9,7.4-9.3,13.1-17.9,15
		c-0.5,0.1-1.1,0-1.6,0C295,355.3,294.9,355,294.7,354.7z"/>
</g>
</svg>
